<svg width="1081" height="808" viewBox="0 0 1081 808" fill="none"
    xmlns="http://www.w3.org/2000/svg">
    <path d="M547.67 411.406H547.588L547.507 411.409C544.13 411.539 540.811 411.799 537.55 412.178L538.037 416.745C531.47 417.509 525.148 418.772 519.075 420.447L517.95 416.004C511.38 417.816 505.098 420.094 499.107 422.73L500.817 426.964C494.766 429.628 489.012 432.672 483.562 435.985L481.346 432.013C475.496 435.568 469.994 439.418 464.843 443.428L467.475 447.112C462.142 451.264 457.184 455.599 452.608 459.964L449.638 456.572C447.153 458.941 444.78 461.318 442.519 463.678C440.346 465.946 438.109 468.105 435.815 470.156L438.679 473.646C433.817 477.992 428.703 481.869 423.392 485.278L421.086 481.363C415.856 484.72 410.429 487.604 404.858 490.018L406.546 494.262C400.682 496.803 394.665 498.841 388.557 500.375L387.527 495.907C381.595 497.397 375.573 498.395 369.521 498.899L369.872 503.48C363.575 504.005 357.248 504.016 350.952 503.512L351.288 498.93C345.233 498.446 339.209 497.469 333.276 495.998L332.258 500.468C326.144 498.952 320.121 496.931 314.253 494.405L315.931 490.157C310.355 487.757 304.923 484.884 299.691 481.537L297.391 485.455C292.074 482.054 286.957 478.183 282.093 473.84L284.955 470.348C282.66 468.299 280.424 466.141 278.251 463.874C276.079 461.606 274.012 459.272 272.049 456.877L268.703 459.864C264.543 454.787 260.834 449.445 257.575 443.896L261.329 441.495C258.123 436.034 255.37 430.364 253.071 424.544L249 426.296C246.58 420.17 244.644 413.885 243.192 407.502L247.475 406.44C246.066 400.247 245.129 393.959 244.665 387.639L240.275 387.99C239.793 381.418 239.804 374.814 240.306 368.242L244.695 368.608C245.178 362.291 246.134 356.005 247.561 349.814L243.281 348.739C244.751 342.363 246.703 336.083 249.138 329.961L253.204 331.723C255.516 325.909 258.28 320.243 261.495 314.785L257.745 312.378C261.011 306.835 264.725 301.497 268.889 296.422L272.233 299.411C274.197 297.016 276.266 294.682 278.439 292.414C280.611 290.146 282.848 287.986 285.142 285.936L282.279 282.445C287.141 278.1 292.255 274.223 297.566 270.814L299.872 274.729C305.101 271.372 310.529 268.487 316.099 266.074L314.411 261.83C320.276 259.289 326.292 257.251 332.401 255.717L333.431 260.184C339.363 258.695 345.384 257.697 351.436 257.193L351.086 252.612C357.382 252.087 363.71 252.076 370.005 252.58L369.669 257.161C375.724 257.646 381.749 258.623 387.682 260.094L388.699 255.623C394.814 257.139 400.836 259.16 406.705 261.687L405.026 265.935C410.602 268.335 416.034 271.208 421.266 274.555L423.566 270.637C428.883 274.038 434.001 277.909 438.864 282.252L436.003 285.744C438.297 287.793 440.534 289.951 442.706 292.218C445.008 294.621 447.52 297.127 450.216 299.691L453.181 296.295C457.852 300.738 463.096 305.372 468.772 309.956L466.078 313.59C471.373 317.867 477.044 322.106 482.98 326.115L485.372 322.257C491.036 326.082 496.94 329.69 502.981 332.909L500.979 337.002C507.251 340.344 513.701 343.294 520.219 345.656L521.663 341.315C528.245 343.701 534.866 345.454 541.407 346.372L540.821 350.927C544.409 351.43 547.995 351.698 551.559 351.693C555.126 351.688 558.619 351.493 562.037 351.126L561.587 346.555C568.447 345.818 574.989 344.358 581.227 342.335L582.533 346.723C589.313 344.524 595.728 341.691 601.79 338.425L599.77 334.341C605.809 331.088 611.511 327.375 616.891 323.403L619.434 327.155C625.168 322.92 630.529 318.413 635.529 313.87L632.639 310.403C637.91 305.614 642.803 300.759 647.34 296.112L650.423 299.392C652.917 296.838 655.302 294.348 657.569 291.983L657.575 291.977C659.748 289.708 661.984 287.549 664.278 285.499L661.415 282.008C666.277 277.663 671.391 273.786 676.702 270.377L679.008 274.291C684.237 270.935 689.665 268.05 695.235 265.637L693.547 261.393C699.412 258.851 705.429 256.814 711.537 255.279L712.567 259.747C718.499 258.257 724.52 257.26 730.572 256.755L730.222 252.175C736.518 251.65 742.846 251.639 749.141 252.142L748.805 256.724C754.86 257.208 760.885 258.186 766.818 259.657L767.835 255.186C773.95 256.702 779.972 258.723 785.841 261.249L784.162 265.498C789.738 267.898 795.17 270.771 800.402 274.118L802.702 270.2C808.019 273.601 813.137 277.472 818 281.815L815.139 285.307C817.433 287.356 819.67 289.514 821.842 291.781C824.014 294.048 826.082 296.383 828.045 298.778L831.39 295.791C835.551 300.868 839.26 306.209 842.518 311.759L838.764 314.16C841.971 319.621 844.724 325.291 847.023 331.111L851.093 329.359C853.513 335.484 855.449 341.77 856.902 348.152L852.618 349.214C854.028 355.407 854.964 361.696 855.428 368.016L859.818 367.665C860.3 374.236 860.29 380.841 859.787 387.413L855.398 387.047C854.915 393.364 853.959 399.65 852.532 405.841L856.812 406.916C855.343 413.292 853.39 419.572 850.956 425.694L846.89 423.932C844.577 429.746 841.814 435.411 838.598 440.869L842.348 443.276C839.083 448.82 835.368 454.158 831.205 459.233L827.861 456.244C825.896 458.638 823.828 460.973 821.655 463.241C819.482 465.509 817.245 467.668 814.951 469.719L817.815 473.209C812.953 477.555 807.839 481.432 802.528 484.841L800.222 480.926C794.992 484.282 789.565 487.167 783.994 489.581L785.682 493.825C779.818 496.366 773.801 498.404 767.693 499.938L766.663 495.47C760.731 496.96 754.709 497.958 748.657 498.462L749.008 503.043C742.711 503.568 736.384 503.579 730.088 503.075L730.424 498.493C724.369 498.009 718.345 497.031 712.412 495.56L711.394 500.031C705.28 498.515 699.258 496.494 693.389 493.968L695.067 489.72C689.491 487.32 684.059 484.447 678.828 481.1L676.527 485.018C671.211 481.617 666.093 477.745 661.229 473.403L664.091 469.911C661.796 467.862 659.56 465.704 657.387 463.437C655.059 461.007 652.575 458.547 649.941 456.086L647.005 459.51C642.278 455.095 637.057 450.674 631.393 446.433L633.959 442.699C628.572 438.666 622.788 434.787 616.648 431.216L614.505 435.231C608.787 431.905 602.758 428.856 596.454 426.214L598.095 421.95C591.815 419.317 585.258 417.072 578.458 415.338L577.414 419.803C571.034 418.176 564.445 417.018 557.674 416.433L558.037 411.854C554.626 411.559 551.169 411.406 547.67 411.406Z" stroke="white" stroke-width="9" stroke-dasharray="18 18"/>
    <path d="M569.345 468.359L569.394 468.368L569.443 468.376C572.465 468.866 575.472 469.481 578.456 470.221L579.54 465.854C585.695 467.381 591.756 469.419 597.661 471.969L595.877 476.101C601.451 478.507 606.881 481.389 612.113 484.747L614.543 480.959C619.833 484.354 624.924 488.215 629.764 492.543L626.764 495.898C629.034 497.927 631.247 500.064 633.398 502.309C635.678 504.69 638.165 507.171 640.831 509.71L643.934 506.451C648.569 510.863 653.77 515.465 659.399 520.02L656.568 523.518C661.838 527.783 667.482 532.013 673.393 536.018L675.917 532.292C681.571 536.124 687.466 539.741 693.501 542.972L691.377 546.939C697.669 550.308 704.144 553.287 710.693 555.677L712.236 551.449C718.866 553.869 725.538 555.65 732.129 556.584L731.497 561.04C735.135 561.555 738.772 561.83 742.387 561.825C746.006 561.82 749.549 561.62 753.014 561.243L752.529 556.77C759.454 556.018 766.056 554.528 772.348 552.466L773.749 556.743C780.57 554.507 787.017 551.635 793.105 548.329L790.957 544.375C796.982 541.103 802.67 537.377 808.037 533.395L810.719 537.009C816.415 532.782 821.74 528.289 826.708 523.765L823.678 520.438C828.897 515.686 833.744 510.872 838.24 506.265L841.461 509.408C843.93 506.878 846.293 504.412 848.539 502.067C850.686 499.827 852.894 497.693 855.159 495.665L852.157 492.313C856.979 487.994 862.05 484.138 867.315 480.742L869.754 484.524C874.964 481.164 880.371 478.275 885.919 475.855L884.12 471.731C890.001 469.166 896.035 467.108 902.163 465.558L903.267 469.92C909.224 468.413 915.271 467.403 921.349 466.893L920.972 462.408C927.319 461.875 933.697 461.864 940.042 462.375L939.681 466.861C945.762 467.351 951.813 468.34 957.772 469.829L958.862 465.463C964.996 466.995 971.037 469.036 976.922 471.586L975.133 475.715C980.687 478.121 986.098 480.999 991.311 484.349L993.744 480.564C999.015 483.952 1004.09 487.803 1008.91 492.119L1005.91 495.473C1008.18 497.499 1010.39 499.632 1012.53 501.872C1014.73 504.166 1016.82 506.529 1018.81 508.955L1022.29 506.106C1026.47 511.222 1030.2 516.606 1033.47 522.2L1029.59 524.471C1032.79 529.95 1035.54 535.64 1037.83 541.481L1042.02 539.836C1044.42 545.945 1046.34 552.212 1047.77 558.574L1043.38 559.566C1044.78 565.734 1045.7 571.996 1046.16 578.29L1050.65 577.963C1051.13 584.486 1051.12 591.041 1050.62 597.565L1046.13 597.224C1045.66 603.515 1044.71 609.775 1043.3 615.942L1047.69 616.946C1046.23 623.302 1044.3 629.564 1041.88 635.669L1037.7 634.015C1035.39 639.85 1032.63 645.536 1029.42 651.012L1033.3 653.289C1030.03 658.878 1026.29 664.258 1022.1 669.372L1018.62 666.521C1016.64 668.947 1014.54 671.31 1012.35 673.605C1010.2 675.845 1007.99 677.979 1005.73 680.007L1008.73 683.359C1003.91 687.678 998.836 691.534 993.57 694.93L991.131 691.148C985.921 694.508 980.514 697.397 974.966 699.817L976.765 703.941C970.885 706.506 964.85 708.564 958.723 710.114L957.619 705.752C951.662 707.259 945.614 708.269 939.536 708.779L939.913 713.264C933.567 713.797 927.189 713.808 920.843 713.297L921.204 708.811C915.123 708.321 909.072 707.332 903.114 705.843L902.023 710.209C895.889 708.677 889.849 706.636 883.964 704.086L885.753 699.957C880.199 697.551 874.787 694.673 869.574 691.323L867.141 695.108C861.87 691.72 856.795 687.869 851.971 683.553L854.971 680.199C852.706 678.173 850.498 676.04 848.352 673.8C846.05 671.397 843.594 668.965 840.992 666.531L837.918 669.818C833.232 665.434 828.059 661.045 822.448 656.831L825.15 653.233C819.788 649.205 814.029 645.328 807.913 641.753L805.643 645.638C799.928 642.298 793.902 639.234 787.599 636.574L789.348 632.428C783.037 629.765 776.443 627.491 769.601 625.733L768.481 630.091C762.055 628.44 755.416 627.262 748.592 626.668L748.982 622.185C745.533 621.885 742.037 621.728 738.498 621.728H738.411L738.324 621.732C734.908 621.864 731.551 622.128 728.253 622.513L728.775 626.983C722.155 627.757 715.785 629.039 709.666 630.74L708.461 626.404C701.851 628.241 695.533 630.547 689.512 633.214L691.335 637.329C685.286 640.008 679.536 643.068 674.09 646.394L671.744 642.554C665.92 646.111 660.443 649.958 655.316 653.962L658.086 657.508C652.804 661.633 647.892 665.936 643.355 670.268L640.248 667.013C637.793 669.357 635.447 671.708 633.21 674.042C631.021 676.327 628.767 678.502 626.455 680.566L629.452 683.923C624.522 688.323 619.335 692.242 613.945 695.681L611.525 691.887C606.191 695.29 600.654 698.202 594.972 700.624L596.737 704.763C590.714 707.331 584.534 709.369 578.262 710.879L577.209 706.503C571.114 707.97 564.93 708.917 558.719 709.345L559.028 713.834C552.547 714.281 546.039 714.183 539.571 713.542L540.016 709.064C536.913 708.756 533.821 708.318 530.747 707.75L530.698 707.741L530.649 707.733C527.627 707.243 524.62 706.628 521.636 705.888L520.553 710.255C514.398 708.729 508.336 706.69 502.431 704.14L504.215 700.008C498.642 697.602 493.211 694.72 487.98 691.363L485.549 695.15C480.26 691.755 475.168 687.894 470.329 683.566L473.328 680.211C471.059 678.182 468.846 676.045 466.695 673.8C464.393 671.397 461.937 668.965 459.336 666.531L456.262 669.818C451.576 665.434 446.402 661.045 440.791 656.831L443.494 653.233C438.131 649.205 432.372 645.328 426.257 641.753L423.986 645.638C418.272 642.298 412.245 639.234 405.942 636.574L407.692 632.428C401.38 629.765 394.786 627.491 387.944 625.733L386.824 630.091C380.399 628.44 373.759 627.262 366.935 626.668L367.325 622.185C363.876 621.885 360.38 621.728 356.841 621.728H356.754L356.667 621.732C353.251 621.864 349.894 622.128 346.596 622.513L347.119 626.983C340.499 627.757 334.128 629.039 328.01 630.74L326.805 626.404C320.194 628.241 313.877 630.547 307.856 633.214L309.678 637.329C303.629 640.008 297.88 643.068 292.433 646.394L290.088 642.554C284.264 646.111 278.786 649.958 273.66 653.962L276.429 657.508C271.147 661.633 266.235 665.936 261.699 670.268L258.591 667.013C256.136 669.357 253.79 671.708 251.554 674.042C249.407 676.283 247.199 678.417 244.934 680.444L247.936 683.797C243.114 688.115 238.043 691.972 232.777 695.367L230.339 691.585C225.128 694.945 219.721 697.834 214.174 700.254L215.973 704.379C210.092 706.943 204.057 709.001 197.93 710.551L196.826 706.189C190.869 707.697 184.821 708.706 178.743 709.217L179.12 713.701C172.774 714.234 166.396 714.245 160.05 713.734L160.412 709.248C154.33 708.758 148.28 707.769 142.321 706.28L141.231 710.646C135.097 709.114 129.056 707.073 123.171 704.523L124.96 700.394C119.406 697.988 113.995 695.11 108.782 691.76L106.349 695.545C101.077 692.157 96.0028 688.306 91.1785 683.99L94.1787 680.636C91.9139 678.61 89.7053 676.478 87.5591 674.237C85.3612 671.943 83.2702 669.58 81.2861 667.154L77.8029 670.003C73.6181 664.888 69.8909 659.503 66.6212 653.909L70.5063 651.638C67.3038 646.159 64.5556 640.47 62.262 634.628L58.0733 636.273C55.6747 630.164 53.7567 623.897 52.3191 617.535L56.7084 616.544C55.3147 610.376 54.3883 604.113 53.9298 597.819L49.4417 598.146C48.9665 591.623 48.9767 585.068 49.4721 578.544L53.9592 578.885C54.437 572.594 55.3819 566.334 56.7936 560.167L52.407 559.163C53.862 552.807 55.796 546.545 58.209 540.44L62.394 542.094C64.7006 536.259 67.4601 530.573 70.6719 525.097L66.7902 522.82C70.0677 517.232 73.8004 511.851 77.9882 506.737L81.4699 509.588C83.4557 507.162 85.5478 504.799 87.7462 502.504C89.893 500.264 92.1016 498.13 94.366 496.102L91.3641 492.75C96.1865 488.431 101.257 484.575 106.523 481.179L108.962 484.961C114.172 481.601 119.579 478.712 125.126 476.292L123.328 472.168C129.208 469.603 135.243 467.545 141.37 465.995L142.474 470.357C148.431 468.85 154.479 467.841 160.557 467.33L160.18 462.846C166.526 462.312 172.904 462.301 179.25 462.813L178.888 467.298C184.97 467.788 191.02 468.777 196.979 470.266L198.07 465.9C204.204 467.433 210.244 469.473 216.129 472.023L214.34 476.152C219.894 478.558 225.305 481.436 230.519 484.787L232.952 481.001C238.223 484.389 243.297 488.241 248.122 492.556L245.122 495.91C247.386 497.936 249.595 500.069 251.741 502.309C254.022 504.69 256.508 507.171 259.175 509.71L262.278 506.451C266.912 510.863 272.113 515.465 277.742 520.02L274.911 523.518C280.181 527.783 285.826 532.013 291.736 536.018L294.261 532.292C299.915 536.124 305.81 539.741 311.844 542.972L309.72 546.939C316.013 550.308 322.488 553.287 329.037 555.677L330.579 551.449C337.209 553.869 343.881 555.65 350.472 556.584L349.841 561.04C353.479 561.555 357.116 561.83 360.73 561.825C364.35 561.82 367.892 561.62 371.358 561.243L370.872 556.77C377.798 556.018 384.4 554.528 390.691 552.466L392.093 556.743C398.913 554.507 405.36 551.635 411.448 548.329L409.301 544.375C415.325 541.103 421.013 537.377 426.381 533.395L429.062 537.009C434.759 532.782 440.084 528.289 445.051 523.765L442.022 520.438C447.24 515.686 452.087 510.872 456.584 506.265L459.804 509.408C462.272 506.88 464.633 504.415 466.878 502.072L466.882 502.067C469.072 499.782 471.326 497.607 473.638 495.544L470.641 492.187C475.57 487.786 480.758 483.867 486.147 480.429L488.568 484.222C493.902 480.819 499.439 477.907 505.121 475.485L503.356 471.346C509.378 468.779 515.558 466.74 521.831 465.231L522.883 469.606C528.978 468.139 535.163 467.192 541.373 466.764L541.064 462.275C547.545 461.828 554.054 461.926 560.521 462.567L560.077 467.045C563.179 467.353 566.271 467.791 569.345 468.359Z" stroke="white" stroke-width="9" stroke-dasharray="18 18"/>
    <path d="M468.216 94.3266C470.389 92.0586 472.625 89.8994 474.92 87.849L472.056 84.3585C476.918 80.013 482.032 76.1358 487.343 72.727L489.649 76.6415C494.878 73.2852 500.306 70.4003 505.876 67.9868L504.188 63.7426C510.053 61.2015 516.07 59.1638 522.178 57.6296L523.208 62.0974C529.14 60.6074 535.162 59.6101 541.214 59.1056L540.863 54.5248C547.16 53.9999 553.487 53.9891 559.783 54.4924L559.446 59.0744C565.502 59.5585 571.526 60.5362 577.459 62.0073L578.477 57.5363C584.591 59.0523 590.613 61.0733 596.482 63.5994L594.804 67.8477C600.38 70.2478 605.811 73.1211 611.043 76.4678L613.344 72.5497C618.66 75.9506 623.778 79.8223 628.642 84.1649L625.78 87.6569C628.075 89.7056 630.311 91.8636 632.483 94.1311C634.656 96.3985 636.723 98.733 638.686 101.128L642.032 98.141C646.192 103.218 649.901 108.559 653.159 114.109L649.406 116.51C652.612 121.971 655.365 127.641 657.664 133.461L661.734 131.709C664.154 137.835 666.091 144.12 667.543 150.503L663.26 151.565C664.669 157.758 665.606 164.046 666.07 170.366L670.459 170.015C670.942 176.586 670.931 183.191 670.428 189.763L666.04 189.397C665.556 195.714 664.601 202 663.173 208.191L667.454 209.266C665.984 215.642 664.032 221.922 661.597 228.044L657.531 226.282C655.219 232.096 652.455 237.761 649.239 243.22L652.99 245.627C649.724 251.17 646.009 256.508 641.846 261.583L638.502 258.594C636.538 260.989 634.469 263.323 632.296 265.591C630.123 267.859 627.887 270.018 625.593 272.069L628.456 275.559C623.594 279.905 618.48 283.782 613.169 287.191L610.863 283.276C605.634 286.633 600.206 289.517 594.636 291.931L596.324 296.175C590.459 298.716 584.442 300.754 578.334 302.288L577.304 297.82C571.372 299.31 565.35 300.308 559.298 300.812L559.649 305.393C553.353 305.918 547.025 305.929 540.729 305.425L541.066 300.843C535.01 300.359 528.986 299.381 523.053 297.91L522.035 302.381C515.921 300.865 509.899 298.844 504.03 296.318L505.709 292.07C500.133 289.67 494.701 286.797 489.469 283.45L487.168 287.368C481.852 283.967 476.734 280.095 471.87 275.753L474.732 272.261C472.438 270.212 470.201 268.054 468.029 265.787C465.856 263.519 463.789 261.185 461.826 258.79L458.481 261.777C454.32 256.7 450.611 251.358 447.353 245.809L451.106 243.408C447.9 237.947 445.147 232.277 442.848 226.457L438.778 228.209C436.358 222.083 434.421 215.797 432.969 209.415L437.252 208.353C435.843 202.16 434.906 195.872 434.443 189.552L430.053 189.903C429.571 183.331 429.581 176.727 430.084 170.155L434.472 170.521C434.956 164.204 435.911 157.918 437.339 151.727L433.058 150.651C434.528 144.276 436.481 137.996 438.915 131.874L442.981 133.636C445.293 127.822 448.057 122.156 451.273 116.698L447.522 114.291C450.788 108.748 454.503 103.41 458.666 98.3349L462.01 101.324C463.975 98.9291 466.043 96.5946 468.216 94.3266Z" stroke="white" stroke-width="9" stroke-dasharray="18 18"/>
    <path d="M643.149 317.523C622.861 337.81 593.369 367.302 551.442 367.357C516.792 367.403 477.471 337.982 457.218 317.729C415.308 275.819 347.285 275.894 305.283 317.896C263.281 359.897 263.207 427.921 305.116 469.83C347.026 511.74 415.049 511.665 457.051 469.663C477.378 449.337 507.939 427.667 547.981 426.184C588.518 426.184 622.69 449.165 642.982 469.457C684.891 511.367 752.915 511.292 794.916 469.29C836.918 427.289 836.993 359.265 795.083 317.356C753.174 275.446 685.15 275.521 643.149 317.523Z" fill="#1C1B24"/>
    <path d="M381.757 537.293C423.692 537.238 453.189 507.78 473.48 487.515C499.326 461.702 535.024 451.742 568.43 457.649C590.13 461.015 610.983 471.038 627.687 487.721C647.943 507.951 687.272 537.339 721.928 537.293C763.862 537.238 793.359 507.78 813.65 487.515C855.659 445.56 923.694 445.486 965.611 487.348C1007.53 529.211 1007.45 597.158 965.444 639.112C923.435 681.067 855.4 681.142 813.483 639.279C793.188 619.01 759.01 596.055 718.467 596.055C678.417 597.536 647.851 619.181 627.52 639.485C601.674 665.298 565.975 675.258 532.569 669.35C510.869 665.984 490.017 655.962 473.313 639.279C453.017 619.01 418.84 596.055 378.296 596.055C338.247 597.536 307.68 619.181 287.35 639.485C245.341 681.44 177.306 681.514 135.389 639.652C93.472 597.789 93.5467 529.842 135.556 487.888C177.565 445.933 245.6 445.858 287.517 487.721C307.773 507.951 347.101 537.339 381.757 537.293Z" fill="#1C1B24"/>
    <path d="M466.685 123.807C420.399 170.093 420.317 245.054 466.501 291.238C512.685 337.422 587.646 337.34 633.932 291.054C680.217 244.769 680.299 169.807 634.115 123.623C587.932 77.4394 512.97 77.5218 466.685 123.807Z" fill="#1C1B24"/>
</svg>
