<svg width="1081" height="808" viewBox="0 0 1081 808" fill="none"
    xmlns="http://www.w3.org/2000/svg">
    <path d="M822.991 253.85C805.773 251.735 780.743 248.661 765.117 228.705C752.203 212.213 751.595 182.527 753.713 165.339C758.095 129.772 732.75 97.3893 697.103 93.0107C661.456 88.6322 629.006 113.916 624.624 149.483C620.241 185.05 645.587 217.433 681.234 221.811C698.485 223.93 720.185 230.426 735.79 248.952C750.872 268.266 752.633 293.101 750.511 310.322C746.129 345.89 771.474 378.272 807.121 382.651C842.769 387.029 875.219 361.746 879.601 326.178C883.983 290.611 858.638 258.229 822.991 253.85Z" fill="#84FF81"/>
    <path d="M401.819 584.453C384.601 582.338 359.571 579.264 343.945 559.308C331.031 542.816 330.424 513.13 332.541 495.942C336.924 460.375 311.578 427.992 275.931 423.614C240.284 419.235 207.834 444.519 203.452 480.086C199.07 515.653 224.415 548.036 260.062 552.414C277.313 554.533 299.013 561.029 314.618 579.555C329.701 598.869 331.461 623.704 329.34 640.925C324.957 676.493 350.302 708.875 385.95 713.254C421.597 717.632 454.047 692.349 458.429 656.781C462.811 621.214 437.466 588.832 401.819 584.453Z" fill="#302F38"/>
    <path d="M597.611 232.232C613.268 252.227 638.319 255.329 655.552 257.463C677.503 260.181 695.561 273.509 705.194 291.655C711.676 303.266 714.666 316.954 712.931 331.143C710.828 348.35 711.464 378.072 724.403 394.596C740.06 414.591 765.111 417.693 782.344 419.827C818.021 424.245 843.416 456.69 839.064 492.296C834.712 527.902 802.262 553.186 766.584 548.768C730.907 544.351 705.512 511.905 709.864 476.299C711.971 459.059 710.186 434.192 695.074 414.841C679.439 396.277 657.718 389.753 640.452 387.615C618.5 384.897 600.442 371.569 590.809 353.423C584.327 341.811 581.338 328.124 583.072 313.935C585.179 296.695 583.394 271.828 568.282 252.476C552.647 233.913 530.926 227.389 513.66 225.251C477.982 220.833 452.587 188.388 456.939 152.782C461.291 117.175 493.741 91.892 529.419 96.3095C565.097 100.727 590.491 133.173 586.139 168.779C584.036 185.986 584.672 215.708 597.611 232.232Z" fill="#302F38"/>
    <path d="M384.172 394.974C399.791 414.919 424.814 417.986 442.028 420.096C463.956 422.783 481.981 436.069 491.583 454.175C498.045 465.761 501.015 479.424 499.265 493.594C497.144 510.776 497.743 540.452 510.65 556.935C526.268 576.881 551.292 579.948 568.506 582.057C604.145 586.425 629.476 618.79 625.086 654.347C620.695 689.903 588.245 715.187 552.606 710.819C516.967 706.451 491.636 674.086 496.026 638.529C498.152 621.313 496.398 596.487 481.324 577.184C465.727 558.668 444.033 552.18 426.786 550.066C404.858 547.378 386.833 534.093 377.231 515.986C370.77 504.4 367.799 490.737 369.549 476.568C371.675 459.352 369.921 434.526 354.846 415.222C339.249 396.706 317.556 390.218 300.308 388.104C264.67 383.737 239.338 351.372 243.729 315.815C248.119 280.259 280.569 254.975 316.208 259.343C351.847 263.711 377.178 296.076 372.788 331.632C370.666 348.815 371.265 378.491 384.172 394.974Z" fill="#84FF81"/>
    <path d="M429.828 233.318C445.445 253.262 470.484 256.316 487.709 258.417C517.741 262.08 540.446 285.612 544.229 314.197C545.347 320.443 545.557 326.96 544.735 333.589C542.602 350.78 543.185 380.467 556.092 396.95C571.709 416.894 596.748 419.948 613.973 422.049C635.91 424.725 653.939 438.002 663.538 456.107C670 467.696 672.967 481.365 671.207 495.544C669.075 512.735 669.658 542.422 682.564 558.905C698.182 578.849 723.221 581.903 740.445 584.004C776.106 588.354 801.436 620.717 797.022 656.29C792.609 691.863 760.122 717.175 724.462 712.825C688.802 708.476 663.471 676.112 667.885 640.539C670.022 623.315 668.281 598.48 653.207 579.178C637.609 560.663 615.905 554.185 598.647 552.08C576.709 549.404 558.681 536.126 549.082 518.021C542.619 506.433 539.653 492.763 541.412 478.584C543.549 461.36 541.808 436.525 526.734 417.222C511.137 398.708 489.433 392.23 472.174 390.125C442.142 386.462 419.437 362.93 415.654 334.345C414.536 328.099 414.326 321.582 415.148 314.953C417.285 297.729 415.544 272.893 400.47 253.591C384.873 235.076 363.169 228.598 345.911 226.493C310.25 222.143 284.92 189.78 289.333 154.207C293.747 118.634 326.233 93.322 361.894 97.6715C397.554 102.021 422.885 134.385 418.471 169.958C416.338 187.148 416.921 216.835 429.828 233.318Z" fill="#FA82FE"/>
    <path d="M865.584 92.5959C829.87 88.2022 797.363 113.529 792.979 149.166C788.595 184.802 813.994 217.253 849.708 221.647C885.423 226.041 917.93 200.713 922.314 165.077C926.698 129.44 901.299 96.9895 865.584 92.5959Z" fill="#302F38"/>
    <path d="M233.267 586.379C197.759 581.824 165.587 606.89 161.409 642.365C157.232 677.841 182.63 710.292 218.138 714.847C253.646 719.402 285.818 694.336 289.996 658.861C294.173 623.386 268.775 590.934 233.267 586.379Z" fill="#FA82FE"/>
    <rect x="137.5" y="160.5" width="807" height="459" rx="27.5" stroke="white" stroke-width="9"/>
    <circle cx="195" cy="214" r="18" fill="white"/>
    <circle cx="258" cy="214" r="18" fill="white"/>
    <circle cx="321" cy="214" r="18" fill="white"/>
    <path d="M659.238 165H755.5C758.333 184.833 761.8 218.4 753 194C744.936 171.64 691.465 165.488 659.238 165H651C653.536 164.958 656.298 164.956 659.238 165Z" fill="#0E0D16"/>
    <path d="M323.238 165H419.5C422.333 184.833 425.8 218.4 417 194C408.936 171.64 355.465 165.488 323.238 165H315C317.536 164.958 320.298 164.956 323.238 165Z" fill="#0E0D16"/>
    <path d="M519.427 615H620.5C623.333 595.167 562.538 574.436 585.5 586.5C613.935 601.441 551.161 614.523 519.427 615H516C517.095 615.018 518.239 615.018 519.427 615Z" fill="#0E0D16"/>
    <path d="M186.847 615H286.5C289.333 595.166 227.538 578.435 250.5 590.5C278.515 605.22 218.9 614.528 186.847 615H182C183.527 615.025 185.148 615.025 186.847 615Z" fill="#0E0D16"/>
    <path d="M686.427 615H787.5C790.333 595.167 729.538 574.436 752.5 586.5C780.935 601.441 718.161 614.523 686.427 615H683C684.095 615.018 685.239 615.018 686.427 615Z" fill="#0E0D16"/>
    <path d="M369.668 165.013H269.098C266.264 184.846 316.178 222.887 301.501 201.5C284.729 177.061 338.465 165.493 369.668 165.013H373.598C372.335 164.992 371.023 164.992 369.668 165.013Z" fill="#0E0D16"/>
</svg>
