<svg width="1073" height="342" viewBox="0 0 1073 342" fill="none" xmlns="http://www.w3.org/2000/svg">
<path d="M279.043 96.8722C270.962 143.34 245.682 191.397 209.54 210.858C235.951 178.886 247.845 147.309 252.632 120.503C266.533 42.6596 235.951 0.957642 266.533 0.957642C288.774 0.957642 284.604 64.9007 279.043 96.8722Z" fill="black"/>
<path d="M314.869 149.273C301.012 184.799 273.272 218.825 241.511 228.449C267.568 207.351 282.058 184.236 290.15 163.763C313.651 104.307 296.106 66.3569 320.339 71.2619C337.963 74.8291 324.403 124.83 314.869 149.273Z" fill="black"/>
<path d="M338.452 194.655C322.922 219.76 297.032 241.775 271.502 244.65C294.298 232.24 308.57 216.674 317.602 202.221C343.829 160.251 335.793 128.898 353.555 136.03C366.472 141.217 349.138 177.383 338.452 194.655Z" fill="black"/>
<path d="M77.6255 138.162C121.64 121.212 175.857 118.199 211.126 139.2C170.126 132.976 136.925 139.002 111.471 148.672C37.5508 176.756 17.4955 224.422 1.77807 198.189C-9.65275 179.11 47.3421 149.824 77.6255 138.162Z" fill="black"/>
<path d="M104.162 80.4985C141.759 74.1266 185.204 80.4349 209.784 102.733C178.293 91.2252 151.018 90.6754 129.296 94.2559C66.216 104.654 42.6786 139.209 34.4314 115.9C28.4335 98.9482 78.2945 84.8826 104.162 80.4985Z" fill="black"/>
<path d="M130.972 36.9431C160.489 37.3631 192.681 48.2571 208.268 68.6798C185.906 55.5031 165.218 51.2604 148.179 50.9409C98.696 50.0132 75.9315 73.0208 72.9206 54.1189C70.7309 40.372 110.664 36.6541 130.972 36.9431Z" fill="black"/>
<path d="M212.592 290.464C176.053 260.639 146.562 215.046 147.319 174.005C162.237 212.698 183.928 238.546 204.944 255.859C265.976 306.138 317.315 299.928 302.323 326.582C291.419 345.967 237.732 310.984 212.592 290.464Z" fill="black"/>
<path d="M149.357 296C125.187 266.506 109.13 225.646 116.312 193.246C121.927 226.3 134.97 250.261 148.847 267.352C189.145 316.982 230.823 320.296 214.668 339.013C202.918 352.625 165.987 316.293 149.357 296Z" fill="black"/>
<path d="M98.2407 294.307C83.9742 268.464 77.4784 235.105 87.4892 211.444C87.1296 237.397 93.7 257.468 101.869 272.425C125.591 315.86 156.857 324.227 141.933 336.211C131.08 344.927 108.056 312.088 98.2407 294.307Z" fill="black"/>
<path d="M476.299 11.2812H494.993V175.046H476.299V11.2812Z" fill="black"/>
<path d="M555.012 92.9901C555.012 47.1836 593.477 8.23569 638.565 8.23569C684.05 8.23569 721.921 46.7627 721.921 92.9901C721.921 139.217 683.753 177.732 638.565 177.732C593.675 177.98 555.012 139.205 555.012 92.9901ZM703.239 92.9901C703.239 56.642 673.663 25.6669 638.565 25.6669C603.467 25.6669 573.706 56.6172 573.706 92.9901C573.706 129.685 603.418 160.66 638.565 160.66C673.712 160.66 703.239 129.685 703.239 92.9901Z" fill="black"/>
<path d="M817.545 28.8362H762.663V11.2812H890.909V28.96H836.028V175.046H817.371L817.545 28.8362Z" fill="black"/>
<path d="M988.7 34.0853L926.799 175.058H906.508L974.339 20.43C975.545 17.6815 977.522 15.3422 980.032 13.6962C982.542 12.0502 985.476 11.1682 988.477 11.1573C991.475 11.128 994.413 11.9951 996.914 13.6473C999.416 15.2995 1001.37 17.6614 1002.52 20.43L1070.45 174.934H1050.18L988.7 34.0853Z" fill="black"/>
<path fill-rule="evenodd" clip-rule="evenodd" d="M1072.06 235.844H476.299V228.961H1072.06V235.844Z" fill="black"/>
<path d="M520.288 297.34H513.886C513.508 295.459 512.845 293.806 511.898 292.381C510.969 290.957 509.833 289.761 508.491 288.794C507.166 287.809 505.694 287.07 504.076 286.578C502.459 286.086 500.772 285.839 499.017 285.839C495.815 285.839 492.916 286.666 490.317 288.319C487.735 289.972 485.679 292.407 484.147 295.626C482.633 298.844 481.875 302.792 481.875 307.469C481.875 312.147 482.633 316.095 484.147 319.313C485.679 322.531 487.735 324.967 490.317 326.62C492.916 328.273 495.815 329.099 499.017 329.099C500.772 329.099 502.459 328.853 504.076 328.361C505.694 327.868 507.166 327.139 508.491 326.171C509.833 325.187 510.969 323.982 511.898 322.558C512.845 321.116 513.508 319.463 513.886 317.599H520.288C519.806 320.359 518.929 322.83 517.655 325.011C516.382 327.191 514.798 329.047 512.905 330.577C511.012 332.089 508.887 333.241 506.529 334.032C504.188 334.824 501.684 335.219 499.017 335.219C494.508 335.219 490.498 334.094 486.987 331.843C483.476 329.592 480.714 326.391 478.7 322.241C476.686 318.091 475.68 313.167 475.68 307.469C475.68 301.772 476.686 296.848 478.7 292.698C480.714 288.547 483.476 285.347 486.987 283.096C490.498 280.845 494.508 279.72 499.017 279.72C501.684 279.72 504.188 280.115 506.529 280.907C508.887 281.698 511.012 282.859 512.905 284.389C514.798 285.901 516.382 287.747 517.655 289.928C518.929 292.091 519.806 294.562 520.288 297.34Z" fill="black"/>
<path d="M593.053 307.469C593.053 313.167 592.046 318.091 590.033 322.241C588.019 326.391 585.257 329.592 581.746 331.843C578.235 334.094 574.225 335.219 569.716 335.219C565.207 335.219 561.197 334.094 557.686 331.843C554.175 329.592 551.413 326.391 549.399 322.241C547.386 318.091 546.379 313.167 546.379 307.469C546.379 301.772 547.386 296.848 549.399 292.698C551.413 288.547 554.175 285.347 557.686 283.096C561.197 280.845 565.207 279.72 569.716 279.72C574.225 279.72 578.235 280.845 581.746 283.096C585.257 285.347 588.019 288.547 590.033 292.698C592.046 296.848 593.053 301.772 593.053 307.469ZM586.857 307.469C586.857 302.792 586.091 298.844 584.56 295.626C583.045 292.407 580.989 289.972 578.39 288.319C575.808 286.666 572.917 285.839 569.716 285.839C566.515 285.839 563.615 286.666 561.016 288.319C558.435 289.972 556.378 292.407 554.846 295.626C553.332 298.844 552.575 302.792 552.575 307.469C552.575 312.147 553.332 316.095 554.846 319.313C556.378 322.531 558.435 324.967 561.016 326.62C563.615 328.273 566.515 329.099 569.716 329.099C572.917 329.099 575.808 328.273 578.39 326.62C580.989 324.967 583.045 322.531 584.56 319.313C586.091 316.095 586.857 312.147 586.857 307.469Z" fill="black"/>
<path d="M621.628 280.458H629.27L647.237 325.301H647.857L665.824 280.458H673.465V334.481H667.476V293.436H666.96L650.438 334.481H644.656L628.134 293.436H627.618V334.481H621.628V280.458Z" fill="black"/>
<path d="M704.112 280.458H711.754L729.721 325.301H730.341L748.308 280.458H755.95V334.481H749.96V293.436H749.444L732.922 334.481H727.14L710.618 293.436H710.102V334.481H704.112V280.458Z" fill="black"/>
<path d="M821.292 280.458H827.695V316.227C827.695 319.92 826.843 323.217 825.139 326.119C823.452 329.003 821.069 331.28 817.988 332.951C814.907 334.604 811.293 335.43 807.146 335.43C802.998 335.43 799.384 334.604 796.303 332.951C793.222 331.28 790.83 329.003 789.127 326.119C787.44 323.217 786.597 319.92 786.597 316.227V280.458H792.999V315.699C792.999 318.337 793.567 320.685 794.703 322.742C795.838 324.782 797.456 326.391 799.556 327.57C801.673 328.73 804.203 329.31 807.146 329.31C810.089 329.31 812.618 328.73 814.735 327.57C816.852 326.391 818.47 324.782 819.589 322.742C820.724 320.685 821.292 318.337 821.292 315.699V280.458Z" fill="black"/>
<path d="M900.214 280.458V334.481H894.018L865.208 292.065H864.692V334.481H858.29V280.458H864.486L893.399 322.98H893.915V280.458H900.214Z" fill="black"/>
<path d="M937.237 280.458V334.481H930.835V280.458H937.237Z" fill="black"/>
<path d="M964.993 286.261V280.458H1004.65V286.261H988.02V334.481H981.618V286.261H964.993Z" fill="black"/>
<path d="M1027.79 280.458H1035.12L1049.79 305.676H1050.41L1065.07 280.458H1072.4L1053.3 312.217V334.481H1046.9V312.217L1027.79 280.458Z" fill="black"/>
</svg>
