<svg width="40" height="40" viewBox="0 0 40 40" fill="none" xmlns="http://www.w3.org/2000/svg">
<rect width="40" height="40" rx="10" fill="#1573FF" fill-opacity="0.16"/>
<rect width="40" height="40" rx="10" fill="#ADCEFF"/>
<path d="M25.058 11.5554C25.7957 11.5554 26.3938 10.9589 26.3938 10.223C26.3938 9.48715 25.7957 8.89062 25.058 8.89062C24.3202 8.89062 23.7222 9.48715 23.7222 10.223C23.7222 10.9589 24.3202 11.5554 25.058 11.5554Z" fill="black"/>
<path d="M26.5608 30.3757C27.2985 30.3757 27.8966 29.7792 27.8966 29.0433C27.8966 28.3075 27.2985 27.7109 26.5608 27.7109C25.823 27.7109 25.225 28.3075 25.225 29.0433C25.225 29.7792 25.823 30.3757 26.5608 30.3757Z" fill="black"/>
<path d="M25.4398 14.8866C26.059 14.8866 26.5609 14.3859 26.5609 13.7683C26.5609 13.1507 26.059 12.6501 25.4398 12.6501C24.8206 12.6501 24.3186 13.1507 24.3186 13.7683C24.3186 14.3859 24.8206 14.8866 25.4398 14.8866Z" fill="black"/>
<path d="M28.4218 15.3146C29.041 15.3146 29.5429 14.814 29.5429 14.1964C29.5429 13.5788 29.041 13.0781 28.4218 13.0781C27.8026 13.0781 27.3006 13.5788 27.3006 14.1964C27.3006 14.814 27.8026 15.3146 28.4218 15.3146Z" fill="black"/>
<path d="M25.0582 17.7177C25.5851 17.7177 26.0123 17.2916 26.0123 16.766C26.0123 16.2404 25.5851 15.8143 25.0582 15.8143C24.5312 15.8143 24.104 16.2404 24.104 16.766C24.104 17.2916 24.5312 17.7177 25.0582 17.7177Z" fill="black"/>
<path d="M28.0397 18.1225C28.5666 18.1225 28.9938 17.6964 28.9938 17.1708C28.9938 16.6452 28.5666 16.2191 28.0397 16.2191C27.5127 16.2191 27.0855 16.6452 27.0855 17.1708C27.0855 17.6964 27.5127 18.1225 28.0397 18.1225Z" fill="black"/>
<path d="M30.4252 19.0502C30.9522 19.0502 31.3794 18.6241 31.3794 18.0985C31.3794 17.5729 30.9522 17.1468 30.4252 17.1468C29.8982 17.1468 29.471 17.5729 29.471 18.0985C29.471 18.6241 29.8982 19.0502 30.4252 19.0502Z" fill="black"/>
<path d="M27.1571 20.4064C27.6182 20.4064 27.992 20.0336 27.992 19.5737C27.992 19.1137 27.6182 18.7409 27.1571 18.7409C26.696 18.7409 26.3222 19.1137 26.3222 19.5737C26.3222 20.0336 26.696 20.4064 27.1571 20.4064Z" fill="black"/>
<path d="M24.1756 20.0018C24.6367 20.0018 25.0105 19.6289 25.0105 19.169C25.0105 18.7091 24.6367 18.3363 24.1756 18.3363C23.7145 18.3363 23.3407 18.7091 23.3407 19.169C23.3407 19.6289 23.7145 20.0018 24.1756 20.0018Z" fill="black"/>
<path d="M29.5664 21.3341C30.0275 21.3341 30.4013 20.9613 30.4013 20.5014C30.4013 20.0415 30.0275 19.6686 29.5664 19.6686C29.1053 19.6686 28.7315 20.0415 28.7315 20.5014C28.7315 20.9613 29.1053 21.3341 29.5664 21.3341Z" fill="black"/>
<path d="M25.9647 22.143C26.3599 22.143 26.6803 21.8234 26.6803 21.4292C26.6803 21.035 26.3599 20.7155 25.9647 20.7155C25.5695 20.7155 25.2491 21.035 25.2491 21.4292C25.2491 21.8234 25.5695 22.143 25.9647 22.143Z" fill="black"/>
<path d="M28.3739 23.0472C28.7692 23.0472 29.0895 22.7276 29.0895 22.3334C29.0895 21.9392 28.7692 21.6197 28.3739 21.6197C27.9787 21.6197 27.6583 21.9392 27.6583 22.3334C27.6583 22.7276 27.9787 23.0472 28.3739 23.0472Z" fill="black"/>
<path d="M23.0066 21.7146C23.4018 21.7146 23.7222 21.395 23.7222 21.0008C23.7222 20.6066 23.4018 20.2871 23.0066 20.2871C22.6113 20.2871 22.2909 20.6066 22.2909 21.0008C22.2909 21.395 22.6113 21.7146 23.0066 21.7146Z" fill="black"/>
<path d="M24.6525 23.3091C24.9819 23.3091 25.2489 23.0428 25.2489 22.7143C25.2489 22.3858 24.9819 22.1195 24.6525 22.1195C24.3232 22.1195 24.0562 22.3858 24.0562 22.7143C24.0562 23.0428 24.3232 23.3091 24.6525 23.3091Z" fill="black"/>
<path d="M25.6782 24.9508C25.9681 24.9508 26.203 24.7164 26.203 24.4273C26.203 24.1382 25.9681 23.9039 25.6782 23.9039C25.3884 23.9039 25.1534 24.1382 25.1534 24.4273C25.1534 24.7164 25.3884 24.9508 25.6782 24.9508Z" fill="black"/>
<path d="M24.414 25.284C24.6511 25.284 24.8433 25.0923 24.8433 24.8557C24.8433 24.6192 24.6511 24.4275 24.414 24.4275C24.1768 24.4275 23.9846 24.6192 23.9846 24.8557C23.9846 25.0923 24.1768 25.284 24.414 25.284Z" fill="black"/>
<path d="M23.2928 24.0466C23.5826 24.0466 23.8176 23.8123 23.8176 23.5232C23.8176 23.2341 23.5826 22.9998 23.2928 22.9998C23.003 22.9998 22.768 23.2341 22.768 23.5232C22.768 23.8123 23.003 24.0466 23.2928 24.0466Z" fill="black"/>
<path d="M21.671 22.9046C22.0003 22.9046 22.2673 22.6383 22.2673 22.3098C22.2673 21.9813 22.0003 21.715 21.671 21.715C21.3416 21.715 21.0746 21.9813 21.0746 22.3098C21.0746 22.6383 21.3416 22.9046 21.671 22.9046Z" fill="black"/>
<path d="M21.6469 18.4311C21.9762 18.4311 22.2432 18.1648 22.2432 17.8363C22.2432 17.5078 21.9762 17.2415 21.6469 17.2415C21.3175 17.2415 21.0505 17.5078 21.0505 17.8363C21.0505 18.1648 21.3175 18.4311 21.6469 18.4311Z" fill="black"/>
<path d="M21.9093 16.3377C22.1991 16.3377 22.4341 16.1033 22.4341 15.8143C22.4341 15.5252 22.1991 15.2908 21.9093 15.2908C21.6195 15.2908 21.3845 15.5252 21.3845 15.8143C21.3845 16.1033 21.6195 16.3377 21.9093 16.3377Z" fill="black"/>
<path d="M22.4819 14.6245C22.719 14.6245 22.9112 14.4328 22.9112 14.1963C22.9112 13.9597 22.719 13.768 22.4819 13.768C22.2447 13.768 22.0525 13.9597 22.0525 14.1963C22.0525 14.4328 22.2447 14.6245 22.4819 14.6245Z" fill="black"/>
<path d="M21.48 13.8159C21.7698 13.8159 22.0048 13.5815 22.0048 13.2925C22.0048 13.0034 21.7698 12.769 21.48 12.769C21.1902 12.769 20.9552 13.0034 20.9552 13.2925C20.9552 13.5815 21.1902 13.8159 21.48 13.8159Z" fill="black"/>
<path d="M27.038 24.2129C27.3673 24.2129 27.6343 23.9466 27.6343 23.6181C27.6343 23.2896 27.3673 23.0233 27.038 23.0233C26.7086 23.0233 26.4416 23.2896 26.4416 23.6181C26.4416 23.9466 26.7086 24.2129 27.038 24.2129Z" fill="black"/>
<path d="M20.1203 13.1257C20.4496 13.1257 20.7166 12.8594 20.7166 12.5309C20.7166 12.2024 20.4496 11.9361 20.1203 11.9361C19.7909 11.9361 19.5239 12.2024 19.5239 12.5309C19.5239 12.8594 19.7909 13.1257 20.1203 13.1257Z" fill="black"/>
<path d="M20.5258 15.6479C20.8552 15.6479 21.1222 15.3816 21.1222 15.0531C21.1222 14.7246 20.8552 14.4583 20.5258 14.4583C20.1965 14.4583 19.9295 14.7246 19.9295 15.0531C19.9295 15.3816 20.1965 15.6479 20.5258 15.6479Z" fill="black"/>
<path d="M19.8581 18.0508C20.2533 18.0508 20.5737 17.7312 20.5737 17.337C20.5737 16.9428 20.2533 16.6232 19.8581 16.6232C19.4629 16.6232 19.1425 16.9428 19.1425 17.337C19.1425 17.7312 19.4629 18.0508 19.8581 18.0508Z" fill="black"/>
<path d="M17.6871 18.0506C18.1482 18.0506 18.522 17.6777 18.522 17.2178C18.522 16.7579 18.1482 16.3851 17.6871 16.3851C17.226 16.3851 16.8522 16.7579 16.8522 17.2178C16.8522 17.6777 17.226 18.0506 17.6871 18.0506Z" fill="black"/>
<path d="M15.1589 18.6219C15.6858 18.6219 16.113 18.1958 16.113 17.6702C16.113 17.1446 15.6858 16.7185 15.1589 16.7185C14.6319 16.7185 14.2047 17.1446 14.2047 17.6702C14.2047 18.1958 14.6319 18.6219 15.1589 18.6219Z" fill="black"/>
<path d="M12.3917 19.9782C13.0109 19.9782 13.5129 19.4775 13.5129 18.8599C13.5129 18.2423 13.0109 17.7417 12.3917 17.7417C11.7725 17.7417 11.2706 18.2423 11.2706 18.8599C11.2706 19.4775 11.7725 19.9782 12.3917 19.9782Z" fill="black"/>
<path d="M9.52919 22.2621C10.2669 22.2621 10.865 21.6656 10.865 20.9297C10.865 20.1939 10.2669 19.5974 9.52919 19.5974C8.79143 19.5974 8.19336 20.1939 8.19336 20.9297C8.19336 21.6656 8.79143 22.2621 9.52919 22.2621Z" fill="black"/>
<path d="M11.2708 17.1943C11.89 17.1943 12.3919 16.6936 12.3919 16.076C12.3919 15.4585 11.89 14.9578 11.2708 14.9578C10.6516 14.9578 10.1496 15.4585 10.1496 16.076C10.1496 16.6936 10.6516 17.1943 11.2708 17.1943Z" fill="black"/>
<path d="M14.0375 15.838C14.5645 15.838 14.9917 15.4119 14.9917 14.8863C14.9917 14.3606 14.5645 13.9346 14.0375 13.9346C13.5105 13.9346 13.0833 14.3606 13.0833 14.8863C13.0833 15.4119 13.5105 15.838 14.0375 15.838Z" fill="black"/>
<path d="M13.6319 13.316C14.1589 13.316 14.5861 12.8899 14.5861 12.3643C14.5861 11.8387 14.1589 11.4126 13.6319 11.4126C13.1049 11.4126 12.6777 11.8387 12.6777 12.3643C12.6777 12.8899 13.1049 13.316 13.6319 13.316Z" fill="black"/>
<path d="M16.1606 12.745C16.6217 12.745 16.9955 12.3721 16.9955 11.9122C16.9955 11.4523 16.6217 11.0795 16.1606 11.0795C15.6995 11.0795 15.3257 11.4523 15.3257 11.9122C15.3257 12.3721 15.6995 12.745 16.1606 12.745Z" fill="black"/>
<path d="M18.3311 12.745C18.7264 12.745 19.0468 12.4255 19.0468 12.0313C19.0468 11.637 18.7264 11.3175 18.3311 11.3175C17.9359 11.3175 17.6155 11.637 17.6155 12.0313C17.6155 12.4255 17.9359 12.745 18.3311 12.745Z" fill="black"/>
<path d="M18.7368 15.2669C19.132 15.2669 19.4524 14.9473 19.4524 14.5531C19.4524 14.1589 19.132 13.8394 18.7368 13.8394C18.3416 13.8394 18.0212 14.1589 18.0212 14.5531C18.0212 14.9473 18.3416 15.2669 18.7368 15.2669Z" fill="black"/>
<path d="M16.5661 15.2909C17.0272 15.2909 17.401 14.9181 17.401 14.4582C17.401 13.9983 17.0272 13.6255 16.5661 13.6255C16.105 13.6255 15.7312 13.9983 15.7312 14.4582C15.7312 14.9181 16.105 15.2909 16.5661 15.2909Z" fill="black"/>
<path d="M14.2045 21.6196C14.4416 21.6196 14.6339 21.4278 14.6339 21.1913C14.6339 20.9548 14.4416 20.7631 14.2045 20.7631C13.9673 20.7631 13.7751 20.9548 13.7751 21.1913C13.7751 21.4278 13.9673 21.6196 14.2045 21.6196Z" fill="black"/>
<path d="M15.9221 21.4056C16.2119 21.4056 16.4468 21.1713 16.4468 20.8822C16.4468 20.5931 16.2119 20.3588 15.9221 20.3588C15.6322 20.3588 15.3973 20.5931 15.3973 20.8822C15.3973 21.1713 15.6322 21.4056 15.9221 21.4056Z" fill="black"/>
<path d="M17.8064 20.692C18.1357 20.692 18.4027 20.4257 18.4027 20.0972C18.4027 19.7687 18.1357 19.5024 17.8064 19.5024C17.477 19.5024 17.21 19.7687 17.21 20.0972C17.21 20.4257 17.477 20.692 17.8064 20.692Z" fill="black"/>
<path d="M18.2596 22.5952C18.6548 22.5952 18.9752 22.2756 18.9752 21.8814C18.9752 21.4872 18.6548 21.1676 18.2596 21.1676C17.8644 21.1676 17.544 21.4872 17.544 21.8814C17.544 22.2756 17.8644 22.5952 18.2596 22.5952Z" fill="black"/>
<path d="M15.97 23.0471C16.2993 23.0471 16.5663 22.7808 16.5663 22.4523C16.5663 22.1238 16.2993 21.8575 15.97 21.8575C15.6406 21.8575 15.3736 22.1238 15.3736 22.4523C15.3736 22.7808 15.6406 23.0471 15.97 23.0471Z" fill="black"/>
<path d="M13.9421 23.0233C14.2319 23.0233 14.4669 22.789 14.4669 22.4999C14.4669 22.2108 14.2319 21.9764 13.9421 21.9764C13.6522 21.9764 13.4173 22.2108 13.4173 22.4999C13.4173 22.789 13.6522 23.0233 13.9421 23.0233Z" fill="black"/>
<path d="M13.9658 24.6652C14.2951 24.6652 14.5621 24.3989 14.5621 24.0704C14.5621 23.7419 14.2951 23.4756 13.9658 23.4756C13.6364 23.4756 13.3694 23.7419 13.3694 24.0704C13.3694 24.3989 13.6364 24.6652 13.9658 24.6652Z" fill="black"/>
<path d="M16.3991 24.9744C16.7943 24.9744 17.1147 24.6548 17.1147 24.2606C17.1147 23.8664 16.7943 23.5469 16.3991 23.5469C16.0038 23.5469 15.6834 23.8664 15.6834 24.2606C15.6834 24.6548 16.0038 24.9744 16.3991 24.9744Z" fill="black"/>
<path d="M19.2379 24.6652C19.699 24.6652 20.0728 24.2924 20.0728 23.8325C20.0728 23.3726 19.699 22.9998 19.2379 22.9998C18.7768 22.9998 18.403 23.3726 18.403 23.8325C18.403 24.2924 18.7768 24.6652 19.2379 24.6652Z" fill="black"/>
<path d="M20.9073 26.7349C21.4343 26.7349 21.8615 26.3088 21.8615 25.7832C21.8615 25.2576 21.4343 24.8315 20.9073 24.8315C20.3804 24.8315 19.9532 25.2576 19.9532 25.7832C19.9532 26.3088 20.3804 26.7349 20.9073 26.7349Z" fill="black"/>
<path d="M17.401 27.0206C17.8621 27.0206 18.2359 26.6477 18.2359 26.1878C18.2359 25.7279 17.8621 25.3551 17.401 25.3551C16.9399 25.3551 16.5661 25.7279 16.5661 26.1878C16.5661 26.6477 16.9399 27.0206 17.401 27.0206Z" fill="black"/>
<path d="M15.421 28.6382C15.8821 28.6382 16.2559 28.2654 16.2559 27.8055C16.2559 27.3456 15.8821 26.9728 15.421 26.9728C14.9599 26.9728 14.5861 27.3456 14.5861 27.8055C14.5861 28.2654 14.9599 28.6382 15.421 28.6382Z" fill="black"/>
<path d="M17.0669 30.7323C17.5939 30.7323 18.0211 30.3062 18.0211 29.7806C18.0211 29.255 17.5939 28.8289 17.0669 28.8289C16.5399 28.8289 16.1127 29.255 16.1127 29.7806C16.1127 30.3062 16.5399 30.7323 17.0669 30.7323Z" fill="black"/>
<path d="M21.4562 31.113C22.0754 31.113 22.5773 30.6124 22.5773 29.9948C22.5773 29.3772 22.0754 28.8765 21.4562 28.8765C20.837 28.8765 20.335 29.3772 20.335 29.9948C20.335 30.6124 20.837 31.113 21.4562 31.113Z" fill="black"/>
<path d="M19.0469 29.1143C19.5739 29.1143 20.001 28.6882 20.001 28.1626C20.001 27.637 19.5739 27.2109 19.0469 27.2109C18.5199 27.2109 18.0927 27.637 18.0927 28.1626C18.0927 28.6882 18.5199 29.1143 19.0469 29.1143Z" fill="black"/>
<path d="M23.293 28.7338C23.9122 28.7338 24.4142 28.2331 24.4142 27.6155C24.4142 26.9979 23.9122 26.4973 23.293 26.4973C22.6739 26.4973 22.1719 26.9979 22.1719 27.6155C22.1719 28.2331 22.6739 28.7338 23.293 28.7338Z" fill="black"/>
<path d="M14.4191 26.5925C14.8143 26.5925 15.1347 26.2729 15.1347 25.8787C15.1347 25.4845 14.8143 25.165 14.4191 25.165C14.0239 25.165 13.7035 25.4845 13.7035 25.8787C13.7035 26.2729 14.0239 26.5925 14.4191 26.5925Z" fill="black"/>
</svg>
