<svg width="40" height="40" viewBox="0 0 40 40" fill="none" xmlns="http://www.w3.org/2000/svg">
<rect width="40" height="40" rx="10" fill="#1573FF" fill-opacity="0.16"/>
<rect width="40" height="40" rx="10" fill="#ADCEFF"/>
<path d="M26.149 16.874C26.3995 16.874 26.6026 17.0774 26.6026 17.3283V22.9344C26.6026 23.0546 26.5548 23.1702 26.4696 23.2555L19.7736 29.9613C19.6885 30.0466 19.573 30.0945 19.4526 30.0945H13.8544C13.6039 30.0945 13.4008 29.8911 13.4008 29.6402V24.0341C13.4008 23.9135 13.4487 23.798 13.5338 23.7127L20.3628 16.874H26.149Z" fill="#26252E"/>
<path d="M19.9092 9.89844C20.1597 9.89844 20.3628 10.1018 20.3628 10.3527V16.874L13.8511 16.8736C13.6005 16.8736 13.3975 16.6702 13.3975 16.4194V10.3527C13.3975 10.1018 13.6006 9.89845 13.8511 9.89844H19.9092Z" fill="#26252E"/>
</svg>
