<svg width="40" height="40" viewBox="0 0 40 40" fill="none" xmlns="http://www.w3.org/2000/svg">
<rect width="40" height="40" rx="10" fill="#ADCEFF"/>
<path d="M26.5391 15.3437C26.2687 15.2316 25.9736 15.1692 25.6635 15.1692C23.8603 15.1692 22.5705 13.7789 22.4788 12.0842C22.4788 12.0205 22.4788 11.9555 22.4788 11.893C22.4788 10.5716 21.4358 9.5 20.1497 9.5H20.146C18.8599 9.5 17.8182 10.5704 17.8182 11.8918C17.8182 12.7264 18.2349 13.4617 18.8649 13.8898C19.2332 14.1408 19.6747 14.2861 20.1497 14.2861C20.1919 14.2861 20.2353 14.2861 20.2787 14.2861C22.0794 14.3562 23.3357 15.8394 23.3357 17.5609C23.3357 17.6157 23.3382 17.6705 23.3407 17.724V23.0785C23.337 23.132 23.3357 23.1868 23.3357 23.2416C23.3357 24.563 24.3775 25.6333 25.6635 25.6333C25.9711 25.6333 26.2662 25.5722 26.5354 25.46C27.3936 25.1071 28 24.2457 28 23.2377V17.5648C28 16.5581 27.396 15.698 26.5391 15.3437Z" fill="#26252E"/>
<path d="M12 17.7601C12 16.4385 13.0432 15.3667 14.3296 15.3667C15.616 15.3667 16.6592 16.4385 16.6592 17.7601V23.434C16.6592 23.4786 16.6592 23.5232 16.6592 23.5665C16.72 25.2335 17.9605 26.6469 19.7182 26.7131C19.7629 26.7131 19.8075 26.7131 19.8522 26.7131C21.1386 26.7131 22.1818 27.785 22.1818 29.1066C22.1818 30.4282 21.1386 31.5 19.8522 31.5H19.8472C18.5621 31.5 17.5189 30.4282 17.5189 29.1078C17.5189 27.3274 16.2002 25.8299 14.3284 25.8299C13.042 25.8299 12 24.7594 12 23.4378V17.7601Z" fill="#26252E"/>
</svg>
