<svg xmlns="http://www.w3.org/2000/svg" width="48" height="48" fill="none" viewBox="0 0 48 48">
  <path stroke="#3131FF" stroke-width="2" d="M42 24c0 9.941-8.059 18-18 18S6 33.941 6 24 14.059 6 24 6s18 8.059 18 18Z"/>
  <path fill="#3131FF" d="M24.087 30.559c-.64 1.299-1.242 2.518-1.842 3.738-.398.806-.839 1.596-1.178 2.426-.339.83-1.302 1.137-1.956.841-.813-.372-1.17-1.22-.821-2.073.398-.975.83-1.935 1.223-2.911.782-1.94 1.627-3.863 2.122-5.901.349-1.433.356-2.91.408-4.375.013-.386-.232-.6-.585-.706l-5.875-1.77c-.181-.054-.363-.105-.543-.161-.703-.219-1.121-.898-1.027-1.666.08-.662.695-1.19 1.4-1.239.518-.035.975.176 1.448.315 1.95.576 3.903 1.13 5.908 1.498 1.296.239 2.546.01 3.793-.275 1.81-.413 3.591-.935 5.361-1.493.827-.26 1.678.102 1.968.816.289.715-.012 1.622-.711 1.947-.415.193-.871.298-1.312.431-1.754.532-3.507 1.062-5.261 1.59-.451.137-.663.433-.633.899.08 1.192.093 2.39.277 3.574.163 1.045.53 2.035.89 3.023a113.37 113.37 0 0 0 2.614 6.475 1.489 1.489 0 0 1-.732 1.952c-.77.372-1.629.117-1.994-.652-.874-1.837-1.717-3.689-2.573-5.534l-.37-.769Z"/>
  <path fill="#3131FF" d="M21.182 14.212c.009-1.613 1.307-2.882 2.936-2.87a2.914 2.914 0 0 1 2.904 2.92 2.955 2.955 0 0 1-2.955 2.923c-1.614-.008-2.895-1.327-2.885-2.973Z"/>
</svg>
