<svg width="24" height="24" viewBox="0 0 24 24" fill="none" xmlns="http://www.w3.org/2000/svg">
<path d="M7.5 4C6.11929 4 5 5.11929 5 6.5V10.5C5 11.0523 4.55228 11.5 4 11.5C3.72386 11.5 3.5 11.7239 3.5 12C3.5 12.2761 3.72386 12.5 4 12.5C4.55228 12.5 5 12.9477 5 13.5V17.5C5 18.8807 6.11929 20 7.5 20H8C8.27614 20 8.5 19.7761 8.5 19.5C8.5 19.2239 8.27614 19 8 19H7.5C6.67157 19 6 18.3284 6 17.5V13.5C6 12.9027 5.73812 12.3665 5.32291 12C5.73812 11.6335 6 11.0973 6 10.5V6.5C6 5.67157 6.67157 5 7.5 5H8C8.27614 5 8.5 4.77614 8.5 4.5C8.5 4.22386 8.27614 4 8 4H7.5Z" fill="#171D26"/>
<path d="M19 6.5C19 5.11929 17.8807 4 16.5 4H16C15.7239 4 15.5 4.22386 15.5 4.5C15.5 4.77614 15.7239 5 16 5H16.5C17.3284 5 18 5.67157 18 6.5V10.5C18 11.0973 18.2619 11.6335 18.6771 12C18.2619 12.3665 18 12.9027 18 13.5V17.5C18 18.3284 17.3284 19 16.5 19H16C15.7239 19 15.5 19.2239 15.5 19.5C15.5 19.7761 15.7239 20 16 20H16.5C17.8807 20 19 18.8807 19 17.5V13.5C19 12.9477 19.4477 12.5 20 12.5C20.2761 12.5 20.5 12.2761 20.5 12C20.5 11.7239 20.2761 11.5 20 11.5C19.4477 11.5 19 11.0523 19 10.5V6.5Z" fill="#171D26"/>
<path fill-rule="evenodd" clip-rule="evenodd" d="M9.5 7.5C8.39543 7.5 7.5 8.39543 7.5 9.5C7.5 10.6046 8.39543 11.5 9.5 11.5C10.6046 11.5 11.5 10.6046 11.5 9.5C11.5 8.39543 10.6046 7.5 9.5 7.5ZM8.5 9.5C8.5 10.0523 8.94772 10.5 9.5 10.5C10.0523 10.5 10.5 10.0523 10.5 9.5C10.5 8.94772 10.0523 8.5 9.5 8.5C8.94772 8.5 8.5 8.94772 8.5 9.5Z" fill="#171D26"/>
<path fill-rule="evenodd" clip-rule="evenodd" d="M12.5 9.5C12.5 8.39543 13.3954 7.5 14.5 7.5C15.6046 7.5 16.5 8.39543 16.5 9.5C16.5 10.6046 15.6046 11.5 14.5 11.5C13.3954 11.5 12.5 10.6046 12.5 9.5ZM14.5 10.5C13.9477 10.5 13.5 10.0523 13.5 9.5C13.5 8.94772 13.9477 8.5 14.5 8.5C15.0523 8.5 15.5 8.94772 15.5 9.5C15.5 10.0523 15.0523 10.5 14.5 10.5Z" fill="#171D26"/>
<path fill-rule="evenodd" clip-rule="evenodd" d="M9.5 12.5C8.39543 12.5 7.5 13.3954 7.5 14.5C7.5 15.6046 8.39543 16.5 9.5 16.5C10.6046 16.5 11.5 15.6046 11.5 14.5C11.5 13.3954 10.6046 12.5 9.5 12.5ZM8.5 14.5C8.5 15.0523 8.94772 15.5 9.5 15.5C10.0523 15.5 10.5 15.0523 10.5 14.5C10.5 13.9477 10.0523 13.5 9.5 13.5C8.94772 13.5 8.5 13.9477 8.5 14.5Z" fill="#171D26"/>
<path fill-rule="evenodd" clip-rule="evenodd" d="M12.5 14.5C12.5 13.3954 13.3954 12.5 14.5 12.5C15.6046 12.5 16.5 13.3954 16.5 14.5C16.5 15.6046 15.6046 16.5 14.5 16.5C13.3954 16.5 12.5 15.6046 12.5 14.5ZM14.5 15.5C13.9477 15.5 13.5 15.0523 13.5 14.5C13.5 13.9477 13.9477 13.5 14.5 13.5C15.0523 13.5 15.5 13.9477 15.5 14.5C15.5 15.0523 15.0523 15.5 14.5 15.5Z" fill="#171D26"/>
</svg>
