<svg width="24" height="24" viewBox="0 0 24 24" fill="none" xmlns="http://www.w3.org/2000/svg">
<path d="M10.8536 5.14645L11.5 5.79289V3C11.5 2.72386 11.7239 2.5 12 2.5C12.2761 2.5 12.5 2.72386 12.5 3V5.79289L13.1464 5.14645C13.3417 4.95118 13.6583 4.95118 13.8536 5.14645C14.0488 5.34171 14.0488 5.65829 13.8536 5.85355L12.3536 7.35355C12.3056 7.40149 12.2504 7.43766 12.1914 7.46206C12.1329 7.48633 12.0687 7.4998 12.0015 7.5L12 7.5L11.9985 7.5C11.9313 7.4998 11.8671 7.48633 11.8086 7.46206C11.7496 7.43766 11.6944 7.40149 11.6464 7.35355L10.1464 5.85355C9.95118 5.65829 9.95118 5.34171 10.1464 5.14645C10.3417 4.95118 10.6583 4.95118 10.8536 5.14645Z" fill="#171D26"/>
<path fill-rule="evenodd" clip-rule="evenodd" d="M6 19C4.89543 19 4 18.1046 4 17V9C4 7.89543 4.89543 7 6 7H6.50238C7.13055 7 7.72223 7.29514 8.10009 7.79696L8.67857 8.56522H17C18.1044 8.56522 18.9998 9.46041 19 10.5648C20.014 10.8294 20.6878 11.8657 20.441 12.9456L19.4124 17.4456C19.2046 18.3551 18.3956 19 17.4627 19H6ZM7.5373 11.5H18.4913C19.1335 11.5 19.6092 12.0967 19.4661 12.7228L18.4376 17.2228C18.3336 17.6775 17.9291 18 17.4627 18H6.50873C5.8665 18 5.39076 17.4033 5.53387 16.7772L6.56244 12.2772C6.66637 11.8225 7.07086 11.5 7.5373 11.5ZM5.58758 12.0544C5.79545 11.1449 6.60442 10.5 7.5373 10.5H17.9979C17.9643 9.97811 17.5304 9.56522 17 9.56522H8.17976L7.30123 8.39848C7.1123 8.14757 6.81646 8 6.50238 8H6C5.44772 8 5 8.44772 5 9V14.625L5.58758 12.0544Z" fill="#171D26"/>
</svg>
