<svg width="24" height="24" viewBox="0 0 24 24" fill="none" xmlns="http://www.w3.org/2000/svg">
<path d="M12.3248 4.25C12.3248 3.97386 12.101 3.75 11.8248 3.75C11.5487 3.75 11.3248 3.97386 11.3248 4.25V6C11.3248 6.27614 11.5487 6.5 11.8248 6.5C12.101 6.5 12.3248 6.27614 12.3248 6V4.25Z" fill="#171D26"/>
<path fill-rule="evenodd" clip-rule="evenodd" d="M17.8579 8.95288L15.3837 10.7363L15.8446 11.3991C16.2183 11.9364 16.1958 12.6325 15.8369 13.1385C15.9858 13.3556 16.1487 13.594 16.2998 13.8155C16.6764 14.3674 16.6409 15.0801 16.2596 15.5877C16.7354 16.6208 16.4691 17.9177 15.3977 18.5404C12.162 20.4209 8.77017 20.6185 6.74106 19.2784C5.70551 18.5945 5.05725 17.5232 5.00362 16.1573C4.9509 14.8146 5.47276 13.2341 6.6603 11.4795C6.79162 11.2604 6.85476 10.8791 6.8624 10.3705C6.86608 10.1262 6.85728 9.87604 6.84695 9.63079L6.84248 9.52629C6.83364 9.32164 6.82481 9.11734 6.82481 8.93987C6.82481 8.37451 7.0293 7.90898 7.37103 7.58643C7.70581 7.27044 8.1434 7.11885 8.56973 7.11781C8.99613 7.11676 9.43477 7.2663 9.77057 7.58269C10.1133 7.90562 10.3171 8.37247 10.3171 8.93987V10.0883L16.119 6.38943C16.8699 5.91069 17.8689 6.162 18.3039 6.93908C18.6886 7.62616 18.4967 8.49246 17.8579 8.95288ZM16.6566 7.23264C16.9229 7.06288 17.2771 7.152 17.4314 7.42755C17.5678 7.67119 17.4997 7.97838 17.2732 8.14165L14.4006 10.2122L13.1863 11.0856C12.9621 11.2468 12.9111 11.5593 13.0723 11.7835C13.2335 12.0076 13.546 12.0587 13.7702 11.8974L14.572 11.3207L15.0236 11.97C15.1836 12.2001 15.1294 12.516 14.9019 12.6796L13.7153 13.533C13.4912 13.6943 13.4401 14.0067 13.6014 14.2309C13.7626 14.4551 14.0751 14.5061 14.2992 14.3449L15.071 13.7898C15.2026 13.9819 15.3425 14.1867 15.4737 14.3791C15.6333 14.6129 15.5773 14.9318 15.3466 15.0977L14.0992 15.995C13.875 16.1562 13.824 16.4686 13.9852 16.6928C14.1465 16.917 14.4589 16.968 14.6831 16.8068L15.4441 16.2594C15.5882 16.8165 15.378 17.3952 14.8952 17.6758C11.8331 19.4554 8.87828 19.4915 7.29217 18.444C6.52011 17.934 6.04361 17.1561 6.00285 16.1181C5.96128 15.0594 6.3733 13.6847 7.49481 12.0306C7.49878 12.0247 7.50263 12.0188 7.50634 12.0128C7.79703 11.5422 7.85441 10.9098 7.86229 10.3855C7.86643 10.1104 7.85646 9.83562 7.84607 9.58873L7.84139 9.47925C7.83251 9.27278 7.82481 9.09384 7.82481 8.93987C7.82481 8.62692 7.93187 8.43217 8.05744 8.31365C8.18996 8.18857 8.37545 8.11829 8.57219 8.1178C8.76886 8.11732 8.95329 8.1866 9.0848 8.31051C9.20938 8.42789 9.31711 8.62284 9.31711 8.93987V10.0883C9.31711 10.8777 10.189 11.3559 10.8547 10.9315L16.6566 7.23264Z" fill="#171D26"/>
<path d="M8.47128 4.64645C8.27601 4.84171 8.27601 5.15829 8.47128 5.35355L9.47128 6.35355C9.66654 6.54882 9.98312 6.54882 10.1784 6.35355C10.3736 6.15829 10.3736 5.84171 10.1784 5.64645L9.17838 4.64645C8.98312 4.45118 8.66654 4.45118 8.47128 4.64645Z" fill="#171D26"/>
<path d="M15.1784 5.35355C15.3736 5.15829 15.3736 4.84171 15.1784 4.64645C14.9831 4.45118 14.6665 4.45118 14.4713 4.64645L13.4713 5.64645C13.276 5.84171 13.276 6.15829 13.4713 6.35355C13.6665 6.54882 13.9831 6.54882 14.1784 6.35355L15.1784 5.35355Z" fill="#171D26"/>
</svg>
