<svg xmlns="http://www.w3.org/2000/svg" width="48" height="48" fill="none" viewBox="0 0 48 48">
  <path fill="#3131FF" fill-rule="evenodd" d="M35.64 35.452c0-.023.017-.043.04-.047a8.695 8.695 0 0 0-1.283-17.296.563.563 0 0 1-.554-.468C33.027 12.738 28.766 9 23.633 9 17.914 9 13.28 13.634 13.28 19.351c0 .13.002.26.007.39a.838.838 0 0 1-.835.852 7.453 7.453 0 0 0 0 14.906h21.895a8.3 8.3 0 0 0 .1 0h1.145a.047.047 0 0 0 .048-.047Z" clip-rule="evenodd"/>
  <path fill="#3131FF" fill-rule="evenodd" d="M35.64 35.452c0-.023.017-.043.04-.047a8.695 8.695 0 0 0-1.283-17.296.563.563 0 0 1-.554-.468C33.027 12.738 28.766 9 23.633 9 17.914 9 13.28 13.634 13.28 19.351c0 .13.002.26.007.39a.838.838 0 0 1-.835.852 7.453 7.453 0 0 0 0 14.906h21.895a8.3 8.3 0 0 0 .1 0h1.145a.047.047 0 0 0 .048-.047Z" clip-rule="evenodd"/>
  <path fill="#fff" d="M15.688 31H14l3.072-8.727h1.952L22.101 31h-1.688l-2.33-6.938h-.069L15.688 31Zm.055-3.422h4.602v1.27h-4.602v-1.27ZM23.25 31v-8.727h3.273c.67 0 1.233.125 1.688.375a2.5 2.5 0 0 1 1.035 1.03c.236.435.354.93.354 1.484 0 .56-.118 1.056-.354 1.491a2.527 2.527 0 0 1-1.044 1.027c-.46.247-1.027.37-1.7.37h-2.17v-1.299h1.957c.392 0 .713-.068.963-.204.25-.137.434-.324.554-.563a1.78 1.78 0 0 0 .183-.822c0-.31-.061-.583-.183-.819a1.245 1.245 0 0 0-.559-.55c-.25-.133-.572-.2-.967-.2h-1.449V31h-1.58Zm9.304-8.727V31h-1.581v-8.727h1.581Z"/>
</svg>
