<svg width="24" height="24" viewBox="0 0 24 24" fill="none" xmlns="http://www.w3.org/2000/svg">
<path d="M6.5 8.5C6.22386 8.5 6 8.72386 6 9C6 9.27614 6.22386 9.5 6.5 9.5H13C13.2761 9.5 13.5 9.27614 13.5 9C13.5 8.72386 13.2761 8.5 13 8.5H6.5Z" fill="#171D26"/>
<path d="M6 12C6 11.7239 6.22386 11.5 6.5 11.5H13C13.2761 11.5 13.5 11.7239 13.5 12C13.5 12.2761 13.2761 12.5 13 12.5H6.5C6.22386 12.5 6 12.2761 6 12Z" fill="#171D26"/>
<path d="M6.5 14.5C6.22386 14.5 6 14.7239 6 15C6 15.2761 6.22386 15.5 6.5 15.5H11.5C11.7761 15.5 12 15.2761 12 15C12 14.7239 11.7761 14.5 11.5 14.5H6.5Z" fill="#171D26"/>
<path fill-rule="evenodd" clip-rule="evenodd" d="M13.3773 19H5.5C4.39543 19 3.5 18.1046 3.5 17V6C3.5 4.89543 4.39543 4 5.5 4H12.5715C13.0995 4 13.6061 4.20882 13.9808 4.5809L15.4093 5.99959C15.7874 6.37506 16 6.88586 16 7.41869V12.5309C16.1638 12.5105 16.3307 12.5 16.5 12.5C18.7091 12.5 20.5 14.2909 20.5 16.5C20.5 18.7091 18.7091 20.5 16.5 20.5C15.2368 20.5 14.1104 19.9145 13.3773 19ZM12.7908 18H5.5C4.94772 18 4.5 17.5523 4.5 17V6C4.5 5.44772 4.94772 5 5.5 5H12.5V7.5H15V12.7908C13.5341 13.3841 12.5 14.8213 12.5 16.5C12.5 17.0304 12.6033 17.5368 12.7908 18ZM16.6464 17.6464L17.2929 17H14.5C14.2239 17 14 16.7761 14 16.5C14 16.2239 14.2239 16 14.5 16H17.2929L16.6464 15.3536C16.4512 15.1583 16.4512 14.8417 16.6464 14.6464C16.8417 14.4512 17.1583 14.4512 17.3536 14.6464L18.8536 16.1464C19.0488 16.3417 19.0488 16.6583 18.8536 16.8536L17.3536 18.3536C17.1583 18.5488 16.8417 18.5488 16.6464 18.3536C16.4512 18.1583 16.4512 17.8417 16.6464 17.6464Z" fill="#171D26"/>
</svg>
