<svg width="24" height="24" viewBox="0 0 24 24" fill="none" xmlns="http://www.w3.org/2000/svg">
<path fill-rule="evenodd" clip-rule="evenodd" d="M6.3668 6.31959C7.81261 4.88572 9.80287 4 12 4C16.4183 4 20 7.58172 20 12C20 16.4183 16.4183 20 12 20C7.58172 20 4 16.4183 4 12C4 9.80287 4.88572 7.81261 6.31959 6.3668L6.34315 6.34315L6.3668 6.31959ZM12.5 5.01758C16.1326 5.27397 19 8.30213 19 12C19 15.6979 16.1326 18.726 12.5 18.9824V15.9691C14.4732 15.723 16 14.0398 16 12C16 9.9602 14.4732 8.27701 12.5 8.03095V5.01758ZM11.5 8.03095L11.5 5.01788C11.2195 5.03797 10.9407 5.07493 10.6651 5.12846C10.2058 5.21768 9.75556 5.35294 9.32123 5.53284C8.62631 5.82069 7.98334 6.21824 7.41647 6.70934L9.54719 8.84006C10.1004 8.40999 10.7696 8.12202 11.5 8.03095ZM8.84008 9.54717L6.70935 7.41644C6.21824 7.98331 5.82069 8.62629 5.53284 9.32122C5.24499 10.0161 5.07145 10.7519 5.01788 11.5L8.03095 11.5C8.12202 10.7696 8.41 10.1004 8.84008 9.54717ZM8.03095 12.5H5.01788C5.07145 13.2481 5.24499 13.9839 5.53284 14.6788C5.88463 15.5281 6.40024 16.2997 7.05025 16.9497C7.70026 17.5998 8.47194 18.1154 9.32122 18.4672C10.0161 18.755 10.7519 18.9285 11.5 18.9821V15.9691C9.69064 15.7434 8.25657 14.3094 8.03095 12.5ZM12 9C13.6569 9 15 10.3431 15 12C15 13.6569 13.6569 15 12 15C10.3431 15 9 13.6569 9 12C9 10.3431 10.3431 9 12 9Z" fill="#171D26"/>
</svg>
