<svg width="24" height="24" viewBox="0 0 24 24" fill="none" xmlns="http://www.w3.org/2000/svg">
<path d="M8 4.5C8 4.22386 7.77614 4 7.5 4H5.5C4.67157 4 4 4.67157 4 5.5V7.5C4 7.77614 4.22386 8 4.5 8C4.77614 8 5 7.77614 5 7.5V5.5C5 5.22386 5.22386 5 5.5 5H7.5C7.77614 5 8 4.77614 8 4.5Z" fill="#171D26"/>
<path fill-rule="evenodd" clip-rule="evenodd" d="M16 12C16 14.2091 14.2091 16 12 16C9.79086 16 8 14.2091 8 12C8 9.79086 9.79086 8 12 8C14.2091 8 16 9.79086 16 12ZM10 12C10 11.7239 10.2239 11.5 10.5 11.5H11.5V10.5C11.5 10.2239 11.7239 10 12 10C12.2761 10 12.5 10.2239 12.5 10.5V11.5H13.5C13.7761 11.5 14 11.7239 14 12C14 12.2761 13.7761 12.5 13.5 12.5H12.5V13.5C12.5 13.7761 12.2761 14 12 14C11.7239 14 11.5 13.7761 11.5 13.5V12.5H10.5C10.2239 12.5 10 12.2761 10 12Z" fill="#171D26"/>
<path d="M7.5 20C7.77614 20 8 19.7761 8 19.5C8 19.2239 7.77614 19 7.5 19H5.5C5.22386 19 5 18.7761 5 18.5V16.5C5 16.2239 4.77614 16 4.5 16C4.22386 16 4 16.2239 4 16.5V18.5C4 19.3284 4.67157 20 5.5 20H7.5Z" fill="#171D26"/>
<path d="M4.5 10C4.77614 10 5 10.2239 5 10.5V13.5C5 13.7761 4.77614 14 4.5 14C4.22386 14 4 13.7761 4 13.5V10.5C4 10.2239 4.22386 10 4.5 10Z" fill="#171D26"/>
<path d="M13.5 5C13.7761 5 14 4.77614 14 4.5C14 4.22386 13.7761 4 13.5 4H10.5C10.2239 4 10 4.22386 10 4.5C10 4.77614 10.2239 5 10.5 5L13.5 5Z" fill="#171D26"/>
<path d="M14 19.5C14 19.7761 13.7761 20 13.5 20H10.5C10.2239 20 10 19.7761 10 19.5C10 19.2239 10.2239 19 10.5 19H13.5C13.7761 19 14 19.2239 14 19.5Z" fill="#171D26"/>
<path d="M16.5 4C16.2239 4 16 4.22386 16 4.5C16 4.77614 16.2239 5 16.5 5H18.5C18.7761 5 19 5.22386 19 5.5V7.5C19 7.77614 19.2239 8 19.5 8C19.7761 8 20 7.77614 20 7.5V5.5C20 4.67157 19.3284 4 18.5 4H16.5Z" fill="#171D26"/>
<path d="M16 19.5C16 19.7761 16.2239 20 16.5 20H18.5C19.3284 20 20 19.3284 20 18.5V16.5C20 16.2239 19.7761 16 19.5 16C19.2239 16 19 16.2239 19 16.5V18.5C19 18.7761 18.7761 19 18.5 19H16.5C16.2239 19 16 19.2239 16 19.5Z" fill="#171D26"/>
<path d="M19 10.5C19 10.2239 19.2239 10 19.5 10C19.7761 10 20 10.2239 20 10.5V13.5C20 13.7761 19.7761 14 19.5 14C19.2239 14 19 13.7761 19 13.5V10.5Z" fill="#171D26"/>
</svg>
