<svg width="24" height="24" viewBox="0 0 24 24" fill="none" xmlns="http://www.w3.org/2000/svg">
<path fill-rule="evenodd" clip-rule="evenodd" d="M18.2174 13.8813L19.3677 11.8889L19.3702 11.8846C19.9225 10.928 17.4622 8.47362 13.875 6.40255C10.2878 4.33148 6.93212 3.42802 6.37983 4.3846L6.37913 4.38582L4.63097 7.41372L4.62982 7.41571C4.07754 8.37229 6.53782 10.8267 10.125 12.8978C10.2121 12.9481 10.2991 12.9977 10.3859 13.0466C7.01957 13.2435 4.5 14.0433 4.5 15.0002L4.50001 15.0038V18.5001C4.50001 19.6047 7.85788 20.5001 12 20.5001C16.1421 20.5001 19.5 19.6047 19.5 18.5001V15.0001L19.5 14.9937L19.4998 14.9855C19.4888 14.5766 19.0176 14.1968 18.2174 13.8813ZM18.298 11.2656C18.1401 11.0069 17.8695 10.6693 17.4687 10.2695C16.5518 9.35475 15.1157 8.27354 13.375 7.26858C11.6344 6.26362 9.97998 5.56053 8.72936 5.22382C8.18265 5.07663 7.75505 5.01106 7.45202 5.00363C7.60997 5.26235 7.88056 5.59987 8.28138 5.99974C9.19829 6.91445 10.6344 7.99567 12.375 9.00063C14.1157 10.0056 15.7701 10.7087 17.0207 11.0454C17.5674 11.1926 17.995 11.2582 18.298 11.2656ZM16.4598 11.9256C17.0435 12.0994 17.5662 12.2093 18.0049 12.2493L16.7549 14.4144C16.3161 14.3744 15.7935 14.2644 15.2098 14.0907L16.4598 11.9256ZM15.4931 11.6C14.5187 11.2369 13.4311 10.734 12.3102 10.1129L11.0602 12.278C12.181 12.8991 13.2686 13.402 14.2431 13.7651L15.4931 11.6ZM11.4442 9.61288L10.1942 11.778C9.09587 11.1179 8.11653 10.4274 7.31484 9.76509L8.56485 7.60001C9.36654 8.26233 10.3459 8.95278 11.4442 9.61288ZM7.79952 6.92561L6.54951 9.09069C6.10718 8.67205 5.75065 8.27438 5.49663 7.91437L6.74664 5.74928C7.00066 6.1093 7.35719 6.50697 7.79952 6.92561ZM18.1224 14.0458L18.118 14.0535L18.1202 14.0497L18.1224 14.0458ZM17.6225 14.9117L17.7108 14.7587C17.9351 14.8402 18.1184 14.9219 18.2619 15.0002C17.9958 15.1452 17.5927 15.3022 17.0456 15.4481C15.7942 15.7818 14.0099 16.0002 12 16.0002C9.99008 16.0002 8.20578 15.7818 6.95436 15.4481C6.4073 15.3022 6.0042 15.1452 5.73805 15.0002C6.0042 14.8551 6.4073 14.6981 6.95436 14.5522C8.20578 14.2185 9.99008 14.0002 12 14.0002C12.0813 14.0002 12.1623 14.0005 12.2429 14.0012C14.95 15.2573 17.1791 15.6797 17.6202 14.9157L17.6225 14.9117ZM18.5 15.9986C18.1 16.1834 17.5924 16.3495 17 16.4909V18.9909C17.5924 18.8495 18.1 18.6834 18.5 18.4986V15.9986ZM16 16.6923C14.9746 16.865 13.7812 16.9733 12.5 16.9958V19.4958C13.7812 19.4733 14.9746 19.365 16 19.1923V16.6923ZM11.5 16.9958C10.2188 16.9733 9.02545 16.865 8.00001 16.6923V19.1923C9.02545 19.365 10.2188 19.4733 11.5 19.4958V16.9958ZM7.00001 16.4909C6.40762 16.3495 5.90001 16.1834 5.50001 15.9986V18.4986C5.90001 18.6834 6.40762 18.8495 7.00001 18.9909V16.4909Z" fill="#171D26"/>
</svg>
