<svg width="24" height="24" viewBox="0 0 24 24" fill="none" xmlns="http://www.w3.org/2000/svg">
<path d="M4.5 12C4.5 7.85786 7.85786 4.5 12 4.5C12.2761 4.5 12.5 4.27614 12.5 4C12.5 3.72386 12.2761 3.5 12 3.5C7.30558 3.5 3.5 7.30558 3.5 12C3.5 16.6944 7.30558 20.5 12 20.5C16.6944 20.5 20.5 16.6944 20.5 12C20.5 9.29379 19.2348 6.88279 17.2655 5.32693C17.0488 5.15574 16.7344 5.19261 16.5632 5.40928C16.392 5.62596 16.4289 5.94039 16.6456 6.11158C18.3851 7.48595 19.5 9.61263 19.5 12C19.5 16.1421 16.1421 19.5 12 19.5C7.85786 19.5 4.5 16.1421 4.5 12Z" fill="#171D26"/>
<path d="M7 12C7 9.23858 9.23858 7 12 7C12.2761 7 12.5 6.77614 12.5 6.5C12.5 6.22386 12.2761 6 12 6C8.68629 6 6 8.68629 6 12C6 15.3137 8.68629 18 12 18C15.3137 18 18 15.3137 18 12C18 10.0869 17.1041 8.38277 15.7109 7.28492C15.494 7.114 15.1796 7.15127 15.0087 7.36816C14.8378 7.58506 14.8751 7.89944 15.092 8.07035C16.2549 8.98675 17 10.4062 17 12C17 14.7614 14.7614 17 12 17C9.23858 17 7 14.7614 7 12Z" fill="#171D26"/>
<path d="M12 9.5C10.6193 9.5 9.5 10.6193 9.5 12C9.5 13.3807 10.6193 14.5 12 14.5C13.3807 14.5 14.5 13.3807 14.5 12C14.5 11.2035 14.1281 10.4941 13.5464 10.0355C13.3295 9.86452 13.2924 9.55012 13.4633 9.33328C13.6343 9.11643 13.9487 9.07925 14.1655 9.25022C14.9774 9.89031 15.5 10.8843 15.5 12C15.5 13.933 13.933 15.5 12 15.5C10.067 15.5 8.5 13.933 8.5 12C8.5 10.067 10.067 8.5 12 8.5C12.2761 8.5 12.5 8.72386 12.5 9C12.5 9.27614 12.2761 9.5 12 9.5Z" fill="#171D26"/>
<path d="M13 12C13 12.5523 12.5523 13 12 13C11.4477 13 11 12.5523 11 12C11 11.4477 11.4477 11 12 11C12.5523 11 13 11.4477 13 12Z" fill="#171D26"/>
</svg>
