<svg width="24" height="24" viewBox="0 0 24 24" fill="none" xmlns="http://www.w3.org/2000/svg">
<path fill-rule="evenodd" clip-rule="evenodd" d="M12.75 14.9765C15.0279 14.7613 16.8821 13.0907 17.3726 10.9045C17.4154 10.895 17.4578 10.8848 17.5 10.874C19.2252 10.4299 20.5 8.86384 20.5 7V6.19231C20.5 6.0861 20.4139 6 20.3077 6H17.5V4.42308C17.5 4.18942 17.3106 4 17.0769 4H7.42308C7.18942 4 7 4.18942 7 4.42308V6H4.19231C4.0861 6 4 6.0861 4 6.19231V7C4 8.86384 5.27477 10.4299 7 10.874C7.04219 10.8848 7.08464 10.895 7.12735 10.9045C7.61794 13.0907 9.47212 14.7613 11.75 14.9765V17H9.88461C8.60007 17 7.51164 17.8396 7.13817 19C7.13029 19.0245 7.12263 19.0495 7.11538 19.0742C7.04028 19.3313 7 19.6033 7 19.8846C7 19.9483 7.05166 20 7.11538 20H17.3846C17.4483 20 17.5 19.9483 17.5 19.8846C17.5 19.6033 17.4597 19.3313 17.3846 19.0742C17.3774 19.0495 17.3698 19.0248 17.3619 19.0003C16.9885 17.8399 15.8999 17 14.6154 17H12.75V14.9765ZM8 5V9.75C8 12.0972 9.90279 14 12.25 14C14.5972 14 16.5 12.0972 16.5 9.75V5H8ZM9.88461 18C9.16348 18 8.53695 18.405 8.22009 19H16.2799C15.963 18.405 15.3365 18 14.6154 18H9.88461ZM17.5 7H19.5C19.5 8.30622 18.6652 9.41746 17.5 9.82929V7ZM7 7H5C5 8.30622 5.83481 9.41746 7 9.82929V7Z" fill="#171D26"/>
</svg>
