<svg width="24" height="24" viewBox="0 0 24 24" fill="none" xmlns="http://www.w3.org/2000/svg">
<path fill-rule="evenodd" clip-rule="evenodd" d="M16.9889 5.25001C16.9889 4.83579 16.6558 4.5 16.2448 4.5H14.6168C14.206 4.5 13.8729 4.83579 13.8729 5.25001V6.87502C13.8729 7.28923 14.206 7.62502 14.6168 7.62502H15.64C16.0509 7.62502 16.384 7.96081 16.384 8.37503V18.7499C16.384 19.1642 16.7171 19.4999 17.128 19.4999H18.756C19.1669 19.4999 19.5 19.1642 19.5 18.7499V8.37486C19.5 7.96064 19.1669 7.62485 18.756 7.62485H17.7329C17.322 7.62485 16.9889 7.28906 16.9889 6.87485V5.25001ZM10.7358 5.25005C10.7358 4.83584 10.4027 4.50005 9.99178 4.50005H8.36376C7.95287 4.50005 7.61977 4.83584 7.61977 5.25005V6.87494C7.61977 7.28915 7.28667 7.62494 6.87578 7.62494H5.74399C5.3331 7.62494 5 7.96074 5 8.37495V18.75C5 19.1642 5.3331 19.5 5.74399 19.5H7.37201C7.7829 19.5 8.116 19.1642 8.116 18.75V8.37507C8.116 7.96086 8.44909 7.62507 8.85999 7.62507H9.99178C10.4027 7.62507 10.7358 7.28928 10.7358 6.87506V5.25005ZM13.8298 11.2321C13.8298 10.8179 13.4967 10.4821 13.0858 10.4821H11.4578C11.0469 10.4821 10.7138 10.8179 10.7138 11.2321V15.8035C10.7138 16.2178 11.0469 16.5536 11.4578 16.5536H13.0858C13.4967 16.5536 13.8298 16.2178 13.8298 15.8035V11.2321Z" fill="#171D26"/>
</svg>
