<svg width="24" height="24" viewBox="0 0 24 24" fill="none" xmlns="http://www.w3.org/2000/svg">
<path fill-rule="evenodd" clip-rule="evenodd" d="M18 5H6C5.44772 5 5 5.44772 5 6V18C5 18.5523 5.44772 19 6 19H18C18.5523 19 19 18.5523 19 18V6C19 5.44772 18.5523 5 18 5ZM6 4C4.89543 4 4 4.89543 4 6V18C4 19.1046 4.89543 20 6 20H18C19.1046 20 20 19.1046 20 18V6C20 4.89543 19.1046 4 18 4H6Z" fill="#171D26"/>
<path fill-rule="evenodd" clip-rule="evenodd" d="M7.5 7.5V11.5H11.5V7.5H7.5ZM7 6.5C6.72386 6.5 6.5 6.72386 6.5 7V12C6.5 12.2761 6.72386 12.5 7 12.5H12C12.2761 12.5 12.5 12.2761 12.5 12V7C12.5 6.72386 12.2761 6.5 12 6.5H7Z" fill="#171D26"/>
<path fill-rule="evenodd" clip-rule="evenodd" d="M6.49999 14.5C6.49999 14.2239 6.72385 14 6.99999 14H17C17.2761 14 17.5 14.2239 17.5 14.5C17.5 14.7761 17.2761 15 17 15H6.99999C6.72385 15 6.49999 14.7761 6.49999 14.5Z" fill="#171D26"/>
<path fill-rule="evenodd" clip-rule="evenodd" d="M13.5 9.5C13.5 9.22386 13.7239 9 14 9H17C17.2761 9 17.5 9.22386 17.5 9.5C17.5 9.77614 17.2761 10 17 10H14C13.7239 10 13.5 9.77614 13.5 9.5Z" fill="#171D26"/>
<path fill-rule="evenodd" clip-rule="evenodd" d="M13.5 7C13.5 6.72386 13.7239 6.5 14 6.5H17C17.2761 6.5 17.5 6.72386 17.5 7C17.5 7.27614 17.2761 7.5 17 7.5H14C13.7239 7.5 13.5 7.27614 13.5 7Z" fill="#171D26"/>
<path fill-rule="evenodd" clip-rule="evenodd" d="M6.5 17C6.5 16.7239 6.72386 16.5 7 16.5H17C17.2761 16.5 17.5 16.7239 17.5 17C17.5 17.2761 17.2761 17.5 17 17.5H7C6.72386 17.5 6.5 17.2761 6.5 17Z" fill="#171D26"/>
</svg>
