<svg xmlns="http://www.w3.org/2000/svg" width="48" height="48" fill="none" viewBox="0 0 48 48">
  <path stroke="#3131FF" stroke-width="2" d="M30 24c0 6.592-5.56 12-12.5 12S5 30.592 5 24s5.56-12 12.5-12S30 17.408 30 24Z"/>
  <path stroke="#3131FF" stroke-width="2" d="M43 24c0 6.592-5.56 12-12.5 12S18 30.592 18 24s5.56-12 12.5-12S43 17.408 43 24Z"/>
  <path fill="#3131FF" fill-rule="evenodd" d="M24.513 35.55A13.328 13.328 0 0 0 31.179 24c0-4.935-2.68-9.244-6.666-11.55A13.328 13.328 0 0 0 17.846 24c0 4.935 2.681 9.244 6.667 11.55Z" clip-rule="evenodd"/>
</svg>
