<svg width="24" height="24" viewBox="0 0 24 24" fill="none" xmlns="http://www.w3.org/2000/svg">
<path fill-rule="evenodd" clip-rule="evenodd" d="M16.2418 15.9918C16.2472 16.0772 16.25 16.1633 16.25 16.25C16.25 18.4591 14.4591 20.25 12.25 20.25C10.0409 20.25 8.25 18.4591 8.25 16.25C8.25 16.1633 8.25276 16.0772 8.2582 15.9918C8.17283 15.9972 8.08674 16 8 16C5.79086 16 4 14.2091 4 12C4 9.79086 5.79086 8 8 8C8.08674 8 8.17283 8.00276 8.2582 8.0082C8.25276 7.92283 8.25 7.83674 8.25 7.75C8.25 5.54086 10.0409 3.75 12.25 3.75C14.4591 3.75 16.25 5.54086 16.25 7.75C16.25 7.83674 16.2472 7.92283 16.2418 8.0082C16.3272 8.00276 16.4133 8 16.5 8C18.7091 8 20.5 9.79086 20.5 12C20.5 14.2091 18.7091 16 16.5 16C16.4133 16 16.3272 15.9972 16.2418 15.9918ZM12.25 10.75C13.9069 10.75 15.25 9.40685 15.25 7.75C15.25 6.09315 13.9069 4.75 12.25 4.75C10.5931 4.75 9.25 6.09315 9.25 7.75C9.25 7.90674 9.26202 8.06068 9.28519 8.21094C10.4605 8.60946 11.3905 9.53948 11.7891 10.7148C11.9393 10.738 12.0933 10.75 12.25 10.75ZM11.9918 11.7418C12.0772 11.7472 12.1633 11.75 12.25 11.75C12.3367 11.75 12.4228 11.7472 12.5082 11.7418C12.5028 11.8272 12.5 11.9133 12.5 12C12.5 12.0867 12.5028 12.1728 12.5082 12.2582C12.4228 12.2528 12.3367 12.25 12.25 12.25C12.1633 12.25 12.0772 12.2528 11.9918 12.2582C11.9972 12.1728 12 12.0867 12 12C12 11.9133 11.9972 11.8272 11.9918 11.7418ZM12.7109 13.2852C12.5607 13.262 12.4067 13.25 12.25 13.25C10.5931 13.25 9.25 14.5931 9.25 16.25C9.25 17.9069 10.5931 19.25 12.25 19.25C13.9069 19.25 15.25 17.9069 15.25 16.25C15.25 16.0933 15.238 15.9393 15.2148 15.7891C14.0395 15.3905 13.1095 14.4605 12.7109 13.2852ZM16.0391 9.03519C15.6405 10.2105 14.7105 11.1405 13.5352 11.5391C13.512 11.6893 13.5 11.8433 13.5 12C13.5 13.6569 14.8431 15 16.5 15C18.1569 15 19.5 13.6569 19.5 12C19.5 10.3431 18.1569 9 16.5 9C16.3433 9 16.1893 9.01202 16.0391 9.03519ZM10.9648 12.4609C9.78948 12.8595 8.85946 13.7895 8.46094 14.9648C8.31068 14.988 8.15674 15 8 15C6.34315 15 5 13.6569 5 12C5 10.3431 6.34315 9 8 9C9.65685 9 11 10.3431 11 12C11 12.1567 10.988 12.3107 10.9648 12.4609Z" fill="#171D26"/>
</svg>
