<svg width="24" height="24" viewBox="0 0 24 24" fill="none" xmlns="http://www.w3.org/2000/svg">
<path d="M13.5876 19.8568C13.5161 19.5901 13.6744 19.3159 13.9411 19.2444C14.2079 19.1729 14.482 19.3312 14.5535 19.598C14.625 19.8647 14.4667 20.1389 14.2 20.2103C13.9332 20.2818 13.6591 20.1235 13.5876 19.8568Z" fill="#171D26"/>
<path d="M12 20.5C12.2761 20.5 12.5 20.2761 12.5 20C12.5 19.7239 12.2761 19.5 12 19.5C11.3431 19.5 10.7059 19.4155 10.0987 19.2569C10.0857 19.2522 10.0724 19.2481 10.0589 19.2444C10.0451 19.2408 10.0313 19.2377 10.0175 19.2352C9.40323 19.0673 8.82039 18.8232 8.27976 18.5138C8.27013 18.5073 8.26021 18.5011 8.25 18.4952C8.24005 18.4894 8.22999 18.4841 8.21983 18.4791C7.6633 18.1537 7.15246 17.7586 6.69927 17.3059L6.69669 17.3033L6.6941 17.3007C6.24132 16.8475 5.84624 16.3366 5.52083 15.78C5.51586 15.7699 5.51051 15.7599 5.50479 15.75C5.49892 15.7398 5.49275 15.7299 5.48629 15.7203C5.17687 15.1797 4.93281 14.597 4.76487 13.9827C4.76238 13.9688 4.75929 13.955 4.75557 13.9411C4.75191 13.9274 4.74771 13.914 4.74301 13.901C4.58442 13.2939 4.5 12.6568 4.5 12C4.5 11.3431 4.58445 10.7059 4.74309 10.0987C4.74776 10.0857 4.75193 10.0724 4.75557 10.0588C4.75926 10.045 4.76235 10.0312 4.76483 10.0174C4.9328 9.40302 5.17694 8.82006 5.48648 8.27935C5.49287 8.26984 5.49898 8.26005 5.50479 8.24998C5.51045 8.24017 5.51575 8.23025 5.52067 8.22024C6.17279 7.10478 7.10471 6.17285 8.22016 5.52072C8.23021 5.51578 8.24016 5.51047 8.25 5.50479C8.2601 5.49896 8.26992 5.49283 8.27946 5.48641C8.82028 5.17683 9.40337 4.93266 10.0179 4.7647C10.0316 4.76223 10.0452 4.75918 10.0588 4.75552C10.0723 4.75192 10.0855 4.7478 10.0983 4.7432C10.7056 4.58449 11.3429 4.5 12 4.5C12.2761 4.5 12.5 4.27614 12.5 4C12.5 3.72385 12.2761 3.5 12 3.5C9.65483 3.5 7.53149 4.44974 5.99361 5.98557L5.98957 5.98957L5.98558 5.99361C4.44987 7.53136 3.50016 9.65448 3.5 11.9994L3.5 12.0016C3.50087 16.6953 7.30611 20.5 12 20.5Z" fill="#171D26"/>
<path fill-rule="evenodd" clip-rule="evenodd" d="M11.741 6.3526C8.72766 7.55344 7.40002 10.094 7.40002 12.9C7.40002 15.4405 9.45952 17.5 12 17.5C14.5405 17.5 16.6 15.4405 16.6 12.9C16.6 10.5948 15.8592 9.02114 14.9572 8.29998C13.3222 9.38998 12.5912 8.67201 12.6704 7.08322C12.6867 6.75629 12.7373 6.39249 12.8215 5.99998C12.4397 6.09958 12.0797 6.21763 11.741 6.3526ZM14.4145 15.5703C15.1426 14.9116 15.6 13.9592 15.6 12.9C15.6 11.2863 15.2053 10.1913 14.7615 9.55373C14.4427 9.69657 14.1206 9.79065 13.7997 9.81552C13.1604 9.86508 12.571 9.6307 12.1739 9.11679C11.8231 8.66285 11.6998 8.09073 11.6715 7.56863C11.6698 7.53789 11.6684 7.50694 11.6674 7.47579C10.7175 7.93137 10.0098 8.54128 9.50192 9.23808C8.76399 10.2506 8.40002 11.5134 8.40002 12.9C8.40002 13.9592 8.85744 14.9115 9.58552 15.5703C9.52974 15.3538 9.5 15.1262 9.5 14.8913C9.5 13.4505 10 12.1522 11.5 11.5C11.8314 11.8074 12.2279 12.0469 12.6224 12.2851C13.567 12.8556 14.5 13.4191 14.5 14.8913C14.5 15.1262 14.4702 15.3538 14.4145 15.5703ZM13.5 14.8913C13.5 15.8203 12.7887 16.5 12 16.5C11.2113 16.5 10.5 15.8203 10.5 14.8913C10.5 14.2793 10.6072 13.7695 10.8199 13.3703C10.9529 13.1209 11.1385 12.8922 11.4044 12.697C11.5839 12.8214 11.7604 12.9313 11.9225 13.0302C11.9917 13.0725 12.0578 13.1125 12.1212 13.1508C12.393 13.3151 12.6155 13.4497 12.8223 13.6047C13.063 13.785 13.221 13.9507 13.3239 14.1285C13.4213 14.2969 13.5 14.5289 13.5 14.8913Z" fill="#171D26"/>
<path d="M14.5535 4.402C14.4821 4.66873 14.2079 4.82702 13.9412 4.75555C13.6744 4.68408 13.5161 4.40991 13.5876 4.14318C13.6591 3.87645 13.9332 3.71815 14.2 3.78963C14.4667 3.8611 14.625 4.13527 14.5535 4.402Z" fill="#171D26"/>
<path d="M16.433 5.32179C16.2949 5.56094 15.9891 5.64287 15.75 5.5048C15.5109 5.36673 15.4289 5.06094 15.567 4.82179C15.7051 4.58264 16.0109 4.50071 16.25 4.63878C16.4891 4.77685 16.5711 5.08264 16.433 5.32179Z" fill="#171D26"/>
<path d="M18.0104 6.69668C17.8152 6.89194 17.4986 6.89194 17.3033 6.69668C17.108 6.50141 17.108 6.18483 17.3033 5.98957C17.4986 5.79431 17.8152 5.79431 18.0104 5.98957C18.2057 6.18483 18.2057 6.50141 18.0104 6.69668Z" fill="#171D26"/>
<path d="M19.1782 8.43298C18.939 8.57105 18.6333 8.48911 18.4952 8.24997C18.3571 8.01082 18.439 7.70503 18.6782 7.56695C18.9173 7.42888 19.2231 7.51082 19.3612 7.74997C19.4993 7.98911 19.4173 8.29491 19.1782 8.43298Z" fill="#171D26"/>
<path d="M19.8568 10.4124C19.5901 10.4838 19.3159 10.3255 19.2444 10.0588C19.173 9.79208 19.3313 9.51791 19.598 9.44644C19.8647 9.37497 20.1389 9.53326 20.2104 9.79999C20.2818 10.0667 20.1236 10.3409 19.8568 10.4124Z" fill="#171D26"/>
<path d="M20 12.5C19.7239 12.5 19.5 12.2761 19.5 12C19.5 11.7238 19.7239 11.5 20 11.5C20.2761 11.5 20.5 11.7238 20.5 12C20.5 12.2761 20.2761 12.5 20 12.5Z" fill="#171D26"/>
<path d="M19.598 14.5535C19.3313 14.482 19.173 14.2078 19.2444 13.9411C19.3159 13.6744 19.5901 13.5161 19.8568 13.5876C20.1236 13.659 20.2818 13.9332 20.2104 14.1999C20.1389 14.4667 19.8647 14.625 19.598 14.5535Z" fill="#171D26"/>
<path d="M18.6782 16.433C18.439 16.2949 18.3571 15.9891 18.4952 15.75C18.6333 15.5108 18.939 15.4289 19.1782 15.567C19.4173 15.705 19.4993 16.0108 19.3612 16.25C19.2231 16.4891 18.9173 16.5711 18.6782 16.433Z" fill="#171D26"/>
<path d="M17.3033 18.0104C17.108 17.8151 17.108 17.4985 17.3033 17.3033C17.4986 17.108 17.8151 17.108 18.0104 17.3033C18.2057 17.4985 18.2057 17.8151 18.0104 18.0104C17.8151 18.2056 17.4986 18.2056 17.3033 18.0104Z" fill="#171D26"/>
<path d="M15.567 19.1782C15.4289 18.939 15.5109 18.6332 15.75 18.4952C15.9891 18.3571 16.2949 18.439 16.433 18.6782C16.5711 18.9173 16.4891 19.2231 16.25 19.3612C16.0109 19.4993 15.7051 19.4173 15.567 19.1782Z" fill="#171D26"/>
</svg>
