<svg xmlns="http://www.w3.org/2000/svg" width="48" height="48" fill="none" viewBox="0 0 48 48">
  <path stroke="#3131FF" stroke-width="2" d="M12 8h-1a5 5 0 0 0-5 5v22a5 5 0 0 0 5 5h16.5l7.5 5.5V40h2a5 5 0 0 0 5-5V13a5 5 0 0 0-5-5h-2"/>
  <path stroke="#3131FF" stroke-width="3" d="M17 30V11a7 7 0 1 1 14 0v2.63"/>
  <path fill="#3131FF" fill-rule="evenodd" d="M16 16a4 4 0 0 0-4 4v10a4 4 0 0 0 4 4h16a4 4 0 0 0 4-4V20a4 4 0 0 0-4-4H16Zm8.2 12.4a3.2 3.2 0 1 0 0-6.4 3.2 3.2 0 0 0 0 6.4Z" clip-rule="evenodd"/>
</svg>
