<svg width="24" height="24" viewBox="0 0 24 24" fill="none" xmlns="http://www.w3.org/2000/svg">
<path d="M18.9767 11.4929C18.7161 7.86488 15.6806 5 11.9715 5C9.02378 5 6.50004 6.80976 5.45816 9.37561C5.35427 9.63146 5.06264 9.75466 4.80678 9.65076C4.55093 9.54687 4.42774 9.25524 4.53163 8.99939C5.72191 6.06805 8.60438 4 11.9715 4C16.2198 4 19.6991 7.29301 19.977 11.4614L20.476 10.9624C20.6713 10.7671 20.9879 10.7671 21.1831 10.9624C21.3784 11.1576 21.3784 11.4742 21.1831 11.6695L19.8147 13.0379C19.6194 13.2332 19.3028 13.2332 19.1076 13.0379L17.7391 11.6695C17.5439 11.4742 17.5439 11.1576 17.7391 10.9624C17.9344 10.7671 18.251 10.7671 18.4462 10.9624L18.9767 11.4929Z" fill="#171D26"/>
<path fill-rule="evenodd" clip-rule="evenodd" d="M11.7479 16.5V15.6941C11.2628 15.6689 10.8319 15.5824 10.4553 15.4348C10.0035 15.2566 9.6504 14.993 9.39607 14.6438C9.14422 14.2922 9.01212 13.8574 8.99978 13.3395H10.5516C10.5689 13.5809 10.6418 13.7824 10.7701 13.9441C10.901 14.1035 11.0751 14.2242 11.2924 14.3063C11.4327 14.3571 11.5845 14.3918 11.7479 14.4101V12.5577L11.2664 12.443C10.6269 12.2953 10.122 12.0645 9.75163 11.7504C9.38126 11.4363 9.19731 11.0133 9.19978 10.4812C9.19731 10.0453 9.31953 9.66445 9.56644 9.33867C9.81583 9.01289 10.1578 8.75859 10.5924 8.57578C10.9397 8.42967 11.3249 8.34195 11.7479 8.31261V7.5H12.3553V8.30952C12.8022 8.33536 13.1997 8.42411 13.5479 8.57578C13.9701 8.75859 14.2985 9.01289 14.5331 9.33867C14.7677 9.66445 14.8887 10.0418 14.8961 10.4707H13.359C13.3294 10.1871 13.2022 9.9668 12.9776 9.80977C12.8131 9.69485 12.6057 9.62198 12.3553 9.59116V11.3429L12.7257 11.427C13.0566 11.4973 13.3603 11.591 13.6368 11.7082C13.9134 11.8254 14.1529 11.9695 14.3553 12.1406C14.5578 12.3117 14.7146 12.5133 14.8257 12.7453C14.9393 12.9773 14.9973 13.2434 14.9998 13.5434C14.9973 13.984 14.8788 14.366 14.6442 14.6895C14.4121 15.0105 14.0763 15.2602 13.6368 15.4383C13.2723 15.5849 12.8452 15.6703 12.3553 15.6947V16.5H11.7479ZM12.7442 14.3133C12.6269 14.3573 12.4973 14.3884 12.3553 14.4066V12.7057C12.5202 12.7509 12.6658 12.7993 12.7924 12.8508C12.985 12.9281 13.1306 13.0219 13.2294 13.132C13.3306 13.2422 13.3813 13.3781 13.3813 13.5398C13.3813 13.7133 13.3257 13.8668 13.2146 14.0004C13.1035 14.134 12.9467 14.2383 12.7442 14.3133ZM11.7479 9.59369V11.1988C11.6897 11.1821 11.6329 11.1644 11.5776 11.1457C11.4319 11.0941 11.3035 11.0344 11.1924 10.9664C11.0813 10.8961 10.9936 10.8129 10.9294 10.7168C10.8677 10.6207 10.8393 10.5082 10.8442 10.3793C10.8442 10.2246 10.8911 10.0863 10.985 9.96445C11.0813 9.84258 11.2195 9.74766 11.3998 9.67969C11.5026 9.63959 11.6186 9.61092 11.7479 9.59369Z" fill="#171D26"/>
<path d="M4.89193 10.9624C4.69666 10.7671 4.38008 10.7671 4.18482 10.9624L2.81637 12.3308C2.62111 12.5261 2.62111 12.8427 2.81637 13.0379C3.01163 13.2332 3.32821 13.2332 3.52348 13.0379L4.01342 12.548C4.29587 16.7119 7.77318 20 12.0183 20C15.3854 20 18.2679 17.9319 19.4582 15.0006C19.5621 14.7448 19.4389 14.4531 19.183 14.3492C18.9272 14.2453 18.6355 14.3685 18.5316 14.6244C17.4898 17.1902 14.966 19 12.0183 19C8.3057 19 5.26806 16.1298 5.01233 12.497L5.55327 13.0379C5.74853 13.2332 6.06511 13.2332 6.26037 13.0379C6.45564 12.8427 6.45564 12.5261 6.26037 12.3308L4.89193 10.9624Z" fill="#171D26"/>
</svg>
