<svg width="24" height="24" viewBox="0 0 24 24" fill="none" xmlns="http://www.w3.org/2000/svg">
<path d="M13.5824 8.51856C13.8483 8.59311 14.0034 8.86909 13.9288 9.13498L12.8236 13.077C12.7491 13.3429 12.4731 13.498 12.2072 13.4235C11.9413 13.3489 11.7862 13.073 11.8607 12.8071L12.966 8.86502C13.0405 8.59913 13.3165 8.44401 13.5824 8.51856Z" fill="#171D26"/>
<path d="M11.2075 9.3414C11.396 9.13965 11.3853 8.82325 11.1836 8.6347C10.9818 8.44615 10.6654 8.45685 10.4769 8.6586L8.63482 10.6296C8.45522 10.8218 8.45522 11.1203 8.63482 11.3124L10.4769 13.2834C10.6654 13.4852 10.9818 13.4959 11.1836 13.3073C11.3853 13.1188 11.396 12.8024 11.2075 12.6006L9.68449 10.971L11.2075 9.3414Z" fill="#171D26"/>
<path d="M14.5822 9.3414C14.3936 9.13965 14.4043 8.82325 14.6061 8.6347C14.8078 8.44615 15.1242 8.45685 15.3128 8.6586L17.1549 10.6296C17.3345 10.8218 17.3345 11.1203 17.1549 11.3124L15.3128 13.2834C15.1242 13.4852 14.8078 13.4959 14.6061 13.3073C14.4043 13.1188 14.3936 12.8024 14.5822 12.6006L16.1052 10.971L14.5822 9.3414Z" fill="#171D26"/>
<path fill-rule="evenodd" clip-rule="evenodd" d="M5 6.5C5 5.11929 6.11929 4 7.5 4H16.5C17.8807 4 19 5.11929 19 6.5V18.5C19 19.3284 18.3284 20 17.5 20H6.5C5.67157 20 5 19.3284 5 18.5V6.5ZM6 18.5C6 18.7761 6.22386 19 6.5 19H17.5C17.7761 19 18 18.7761 18 18.5C18 18.2239 17.7761 18 17.5 18H6.5C6.22386 18 6 18.2239 6 18.5ZM18 17.0854V6.5C18 5.67157 17.3284 5 16.5 5H8V17H17.5C17.6753 17 17.8436 17.0301 18 17.0854ZM7 17H6.5C6.32468 17 6.15639 17.0301 6 17.0854V6.5C6 5.84689 6.4174 5.29127 7 5.08535V17Z" fill="#171D26"/>
</svg>
