<svg width="24" height="24" viewBox="0 0 24 24" fill="none" xmlns="http://www.w3.org/2000/svg">
<path fill-rule="evenodd" clip-rule="evenodd" d="M18.7071 6.70735C19.0976 6.31683 19.0976 5.68366 18.7071 5.29314C18.3166 4.90261 17.6834 4.90261 17.2929 5.29314L11.9999 10.5862L6.70735 5.29363C6.31683 4.9031 5.68366 4.9031 5.29314 5.29363C4.90261 5.68415 4.90261 6.31731 5.29314 6.70784L10.5857 12.0004L5.29289 17.2931C4.90237 17.6837 4.90237 18.3168 5.29289 18.7074C5.68342 19.0979 6.31658 19.0979 6.70711 18.7074L11.9999 13.4146L17.2931 18.7078C17.6837 19.0984 18.3168 19.0984 18.7074 18.7078C19.0979 18.3173 19.0979 17.6841 18.7074 17.2936L13.4141 12.0004L18.7071 6.70735Z" fill="#171D26"/>
</svg>
