<svg width="24" height="24" viewBox="0 0 24 24" fill="none" xmlns="http://www.w3.org/2000/svg">
<path fill-rule="evenodd" clip-rule="evenodd" d="M19.5 6C19.5 4.89543 16.2541 4 12.25 4C8.24594 4 5 4.89543 5 6V18C5 19.1046 8.24594 20 12.25 20C16.2541 20 19.5 19.1046 19.5 18V6ZM17.1106 5.54978C17.6452 5.69727 18.0344 5.85555 18.287 6C18.0344 6.14445 17.6452 6.30273 17.1106 6.45022C15.9075 6.78211 14.1887 7 12.25 7C10.3113 7 8.5925 6.78211 7.3894 6.45022C6.85476 6.30273 6.46558 6.14445 6.21304 6C6.46558 5.85555 6.85476 5.69727 7.3894 5.54978C8.5925 5.21789 10.3113 5 12.25 5C14.1887 5 15.9075 5.21789 17.1106 5.54978ZM18.5 7.01421C17.2393 7.60417 14.9122 8 12.25 8C9.58779 8 7.26073 7.60417 6 7.01421V10.0142C7.26073 10.6042 9.58779 11 12.25 11C14.9122 11 17.2393 10.6042 18.5 10.0142V7.01421ZM18.5 18C18.5 18.0047 18.5001 18.0094 18.5002 18.0141C17.2395 18.6041 14.9123 19 12.25 19C9.58765 19 7.26048 18.6041 5.9998 18.0141C5.99993 18.0094 6 18.0047 6 18V15.0142C7.26073 15.6042 9.58779 16 12.25 16C14.9122 16 17.2393 15.6042 18.5 15.0142V18ZM18.5 11.0142V14.0142C17.2393 14.6042 14.9122 15 12.25 15C9.58779 15 7.26073 14.6042 6 14.0142V11.0142C7.26073 11.6042 9.58779 12 12.25 12C14.9122 12 17.2393 11.6042 18.5 11.0142Z" fill="#171D26"/>
</svg>
