<svg width="24" height="24" viewBox="0 0 24 24" fill="none" xmlns="http://www.w3.org/2000/svg">
<path fill-rule="evenodd" clip-rule="evenodd" d="M11.1514 3.95114C11.0467 3.84641 10.9009 3.7935 10.7534 3.80667C10.0774 3.86702 9.12652 4.09787 8.20358 4.45412C7.28637 4.80815 6.33423 5.30979 5.69868 5.94535C5.06045 6.58359 4.60119 7.4971 4.26289 8.38115C3.92119 9.27411 3.68383 10.1897 3.51494 10.8652C3.47234 11.0356 3.52227 11.2159 3.64646 11.3401L4.32044 12.014C4.44012 12.1337 4.61222 12.1847 4.77779 12.1496C4.94336 12.1145 5.07991 11.9979 5.14067 11.84C5.55693 10.7577 6.34772 9.45572 7.37762 8.3316L11.5463 12.5003L7.33615 16.7104C6.67288 16.3514 5.82663 16.4522 5.26607 17.0127C4.58265 17.6961 4.58265 18.8042 5.26607 19.4876C5.94949 20.171 7.05753 20.171 7.74094 19.4876C8.30151 18.927 8.40228 18.0808 8.04326 17.4175L12.2534 13.2074L16.4637 17.4177C16.1048 18.0809 16.2055 18.9271 16.7661 19.4876C17.4495 20.171 18.5575 20.171 19.2409 19.4876C19.9244 18.8042 19.9244 17.6961 19.2409 17.0127C18.6803 16.4521 17.834 16.3514 17.1707 16.7105L12.9605 12.5003L15.6016 9.85922L16.6578 10.9155C17.0483 11.306 17.6815 11.306 18.072 10.9155L19.9795 9.00805C20.5313 8.45618 20.7938 7.67825 20.6891 6.90485L20.3768 4.59803C20.3466 4.37512 20.1713 4.19981 19.9484 4.16963L17.6415 3.8573C16.8681 3.75258 16.0902 4.01506 15.5383 4.56693L13.6309 6.47436C13.2404 6.86489 13.2404 7.49805 13.6309 7.88858L14.8944 9.15211L12.2534 11.7932L8.08472 7.62449C9.20889 6.59448 10.5109 5.80363 11.5933 5.38733C11.7513 5.32657 11.8678 5.19002 11.9029 5.02445C11.9381 4.85889 11.8871 4.68679 11.7674 4.56711L11.1514 3.95114ZM8.56368 5.38703C9.16795 5.15378 9.77205 4.98429 10.2727 4.88685C9.1783 5.44742 8.0102 6.26921 7.01637 7.26304C6.0175 8.2619 5.19242 9.43683 4.63167 10.536C4.77931 9.97868 4.96294 9.3498 5.19685 8.73854C5.51867 7.89754 5.91702 7.14123 6.40579 6.65245C6.89729 6.16094 7.69921 5.72071 8.56368 5.38703ZM14.338 7.18147L17.3649 10.2084L19.2724 8.30094C19.6035 7.96982 19.761 7.50306 19.6981 7.03903L19.4369 5.1095L17.5074 4.84825C17.0433 4.78543 16.5766 4.94291 16.2455 5.27403L14.338 7.18147ZM5.97318 17.7198C6.26607 17.4269 6.74094 17.4269 7.03384 17.7198C7.32673 18.0127 7.32673 18.4876 7.03384 18.7805C6.74094 19.0734 6.26607 19.0734 5.97318 18.7805C5.68028 18.4876 5.68028 18.0127 5.97318 17.7198ZM17.4732 17.7198C17.7661 17.4269 18.2409 17.4269 18.5338 17.7198C18.8267 18.0127 18.8267 18.4876 18.5338 18.7805C18.2409 19.0734 17.7661 19.0734 17.4732 18.7805C17.1803 18.4876 17.1803 18.0127 17.4732 17.7198Z" fill="#171D26"/>
</svg>
