<svg xmlns="http://www.w3.org/2000/svg" width="48" height="48" fill="none" viewBox="0 0 48 48">
  <path fill="#3131FF" d="M23.903 19.928a2.264 2.264 0 1 1-4.528.004 2.264 2.264 0 0 1 4.528-.004Z"/>
  <path fill="#3131FF" fill-rule="evenodd" d="M42 23.92a18 18 0 1 1-36 .16 18 18 0 0 1 36-.16Zm-1.356.004a16.643 16.643 0 0 1-13.698 16.457l-.002-.005.007-.001c-.696-4.87 3.56-9.642 5.959-12.083.232-.237.52-.512.835-.813.389-.373.82-.784 1.237-1.211 3.196-2.934 3.895-6.467-2.543-8.223-1.208-.35-2.465-.846-3.728-1.347a1.18 1.18 0 0 0-.133-.324c-.777-1.599-2.82-1.785-4.52-1.257h.013l-.012.004c-1.483-.35-2.95-.473-4.362-.135-6.114 1.683-7.135 4.66-7.385 8.247-.014.178-.03.354-.043.529-.305 3.684-.537 6.498-1.96 9.698l.027.044a16.644 16.644 0 1 1 30.308-9.58ZM24.857 19.9a3.224 3.224 0 1 1-6.448 0 3.224 3.224 0 0 1 6.448 0Zm8.755 6.516a11.713 11.713 0 0 0 2.753-1.765l-.034-.04a11.571 11.571 0 0 1-2.828 1.563c-.995.41-2.026.728-3.08.948a14.225 14.225 0 0 1-3.169.264c-1.047-.03-2.095-.24-3.013-.833l-.036.042c.741.842 1.892 1.225 3.017 1.327 1.125.103 2.236-.104 3.298-.38a17.507 17.507 0 0 0 3.091-1.126Z" clip-rule="evenodd"/>
</svg>
