<svg xmlns="http://www.w3.org/2000/svg" width="48" height="48" fill="none" viewBox="0 0 48 48">
  <g clip-path="url(#a)">
    <path fill="#3131FF" d="M37.305 27.511a1.943 1.943 0 0 1-1.962.13c-.725-.403-1.115-1.349-1.115-2.637v-3.95c0-1.895-.762-3.244-2.037-3.61-2.155-.621-3.764 1.979-4.385 2.957l-3.81 6.076v-7.416c-.043-1.71-.608-2.734-1.676-3.04-.705-.204-1.764-.12-2.794 1.427l-8.52 13.474a14.655 14.655 0 0 1-1.713-6.924c0-8.12 6.587-14.726 14.702-14.726 8.116 0 14.726 6.605 14.726 14.726v.083c.08 1.571-.438 2.823-1.411 3.43h-.005Zm4.704-3.509v-.078C41.943 14.027 33.89 6 23.995 6S6 14.074 6 23.998C6 33.92 14.073 42 23.995 42a17.93 17.93 0 0 0 12.232-4.802 1.636 1.636 0 0 0 .085-2.317 1.613 1.613 0 0 0-1.12-.522 1.636 1.636 0 0 0-1.166.415 14.588 14.588 0 0 1-4.94 3.035 14.75 14.75 0 0 1-11.397-.524 14.53 14.53 0 0 1-4.632-3.475l7.669-12.144v5.604c0 2.693 1.058 3.564 1.947 3.82.89.254 2.25.078 3.675-2.202l4.234-6.754c.131-.217.259-.403.371-.565v3.434c0 2.517 1.026 4.529 2.823 5.52a5.239 5.239 0 0 0 5.274-.208c1.976-1.265 3.053-3.555 2.94-6.313h.02Z"/>
  </g>
  <defs>
    <clipPath id="a">
      <path fill="#fff" d="M6 6h36v36H6z"/>
    </clipPath>
  </defs>
</svg>
