<svg width="24" height="24" viewBox="0 0 24 24" fill="none" xmlns="http://www.w3.org/2000/svg">
<path d="M11.5001 8.5C11.5001 9.32843 10.8285 10 10.0001 10C9.17169 10 8.50012 9.32843 8.50012 8.5C8.50012 7.67157 9.17169 7 10.0001 7C10.8285 7 11.5001 7.67157 11.5001 8.5Z" fill="#171D26"/>
<path fill-rule="evenodd" clip-rule="evenodd" d="M6.00012 6.5C6.00012 5.39543 6.89555 4.5 8.00012 4.5H17.5001C18.6047 4.5 19.5001 5.39543 19.5001 6.5V16C19.5001 17.1046 18.6047 18 17.5001 18H8.00012C6.89555 18 6.00012 17.1046 6.00012 16V6.5ZM8.00012 5.5H17.5001C18.0524 5.5 18.5001 5.94772 18.5001 6.5V13.4777L16.5687 11.9754C15.3935 11.0614 13.6849 11.3707 12.9047 12.6386L10.2207 17H8.00012C7.44784 17 7.00012 16.5523 7.00012 16V6.5C7.00012 5.94772 7.44784 5.5 8.00012 5.5ZM11.3949 17H17.5001C18.0524 17 18.5001 16.5523 18.5001 16V14.7446L15.9547 12.7648C15.2496 12.2164 14.2245 12.4019 13.7563 13.1627L11.3949 17Z" fill="#171D26"/>
<path d="M5 7.5C5 7.22386 4.77614 7 4.5 7C4.22386 7 4 7.22386 4 7.5V16.5C4 18.433 5.567 20 7.5 20H16.5C16.7761 20 17 19.7761 17 19.5C17 19.2239 16.7761 19 16.5 19H7.5C6.11929 19 5 17.8807 5 16.5V7.5Z" fill="#171D26"/>
</svg>
