<svg width="24" height="24" viewBox="0 0 24 24" fill="none" xmlns="http://www.w3.org/2000/svg">
<path fill-rule="evenodd" clip-rule="evenodd" d="M4 7.5C4 6.39543 4.89543 5.5 6 5.5H17C18.1046 5.5 19 6.39543 19 7.5V13.0351C20.1956 13.7267 21 15.0194 21 16.5C21 18.7091 19.2091 20.5 17 20.5C15.1362 20.5 13.5701 19.2252 13.126 17.5H6C4.89543 17.5 4 16.6046 4 15.5V7.5ZM13 16.5C13 15.4018 13.4426 14.4069 14.1591 13.6841L12.5446 12.2163L12.5174 12.2413C11.9429 12.7717 11.0572 12.7717 10.4826 12.2413L10.4555 12.2162L5.77204 16.4739C5.84526 16.491 5.92158 16.5 6 16.5H13ZM14.9586 13.0594C15.5562 12.7041 16.2543 12.5 17 12.5C17.3453 12.5 17.6804 12.5438 18 12.626V7.5C18 7.40199 17.9859 7.30727 17.9596 7.21776L13.2822 11.5354L14.9586 13.0594ZM6 6.5H17C17.0803 6.5 17.1584 6.50947 17.2332 6.52735L11.8392 11.5065C11.6476 11.6833 11.3524 11.6833 11.1609 11.5065L5.7668 6.52734C5.84162 6.50946 5.91971 6.5 6 6.5ZM5.0404 7.21772C5.01411 7.30724 5 7.40197 5 7.5V15.5C5 15.5995 5.01455 15.6957 5.04163 15.7864L9.71783 11.5354L5.0404 7.21772ZM17.6445 18.5H16.6797V15.4023H16.6562L15.7617 15.9492V15.1133L16.748 14.5H17.6445V18.5Z" fill="#171D26"/>
</svg>
