<svg width="24" height="24" viewBox="0 0 24 24" fill="none" xmlns="http://www.w3.org/2000/svg">
<path d="M12.271 5.83384L12 4.99999L11.7291 5.83384H10.8524L11.5617 6.34919L11.2907 7.18304L12 6.6677L12.7094 7.18304L12.4384 6.34919L13.1477 5.83384H12.271Z" fill="#171D26"/>
<path d="M12.271 17.4202L12 16.5864L11.7291 17.4202H10.8524L11.5617 17.9356L11.2907 18.7694L12 18.2541L12.7094 18.7694L12.4384 17.9356L13.1477 17.4202H12.271Z" fill="#171D26"/>
<path d="M17.7933 10.7933L18.0642 11.6271H18.941L18.2316 12.1425L18.5026 12.9763L17.7933 12.461L17.0839 12.9763L17.3549 12.1425L16.6456 11.6271H17.5223L17.7933 10.7933Z" fill="#171D26"/>
<path d="M6.47778 11.6271L6.20684 10.7933L5.93591 11.6271H5.05914L5.76846 12.1425L5.49752 12.9763L6.20684 12.461L6.91616 12.9763L6.64522 12.1425L7.35454 11.6271H6.47778Z" fill="#171D26"/>
<path d="M14.8967 15.8103L15.1676 16.6441H16.0444L15.335 17.1595L15.606 17.9933L14.8967 17.478L14.1873 17.9933L14.4583 17.1595L13.749 16.6441H14.6257L14.8967 15.8103Z" fill="#171D26"/>
<path d="M17.2881 14.5237L17.0171 13.6899L16.7462 14.5237H15.8694L16.5788 15.0391L16.3078 15.8729L17.0171 15.3576L17.7265 15.8729L17.4555 15.0391L18.1648 14.5237H17.2881Z" fill="#171D26"/>
<path d="M9.10345 5.77613L9.37438 6.60998H10.2511L9.54183 7.12533L9.81276 7.95918L9.10345 7.44383L8.39413 7.95918L8.66507 7.12533L7.95575 6.60998H8.83251L9.10345 5.77613Z" fill="#171D26"/>
<path d="M7.25391 8.73045L6.98298 7.89659L6.71204 8.73045H5.83528L6.5446 9.24579L6.27366 10.0796L6.98298 9.5643L7.69229 10.0796L7.42136 9.24579L8.13068 8.73045H7.25391Z" fill="#171D26"/>
<path d="M17.0171 7.89659L17.2881 8.73045H18.1648L17.4555 9.24579L17.7264 10.0796L17.0171 9.5643L16.3078 10.0796L16.5787 9.24579L15.8694 8.73045H16.7462L17.0171 7.89659Z" fill="#171D26"/>
<path d="M15.1676 6.60998L14.8967 5.77613L14.6257 6.60998H13.749L14.4583 7.12533L14.1873 7.95918L14.8967 7.44383L15.606 7.95918L15.335 7.12533L16.0444 6.60998H15.1676Z" fill="#171D26"/>
<path d="M6.98299 13.6899L7.25392 14.5237H8.13068L7.42137 15.0391L7.6923 15.8729L6.98299 15.3576L6.27367 15.8729L6.5446 15.0391L5.83529 14.5237H6.71205L6.98299 13.6899Z" fill="#171D26"/>
<path d="M9.37438 16.6441L9.10345 15.8103L8.83251 16.6441H7.95575L8.66507 17.1595L8.39413 17.9933L9.10345 17.478L9.81276 17.9933L9.54183 17.1595L10.2511 16.6441H9.37438Z" fill="#171D26"/>
<path fill-rule="evenodd" clip-rule="evenodd" d="M20.5 12C20.5 16.6944 16.6944 20.5 12 20.5C7.30558 20.5 3.5 16.6944 3.5 12C3.5 7.30558 7.30558 3.5 12 3.5C16.6944 3.5 20.5 7.30558 20.5 12ZM19.5 12C19.5 16.1421 16.1421 19.5 12 19.5C7.85786 19.5 4.5 16.1421 4.5 12C4.5 7.85786 7.85786 4.5 12 4.5C16.1421 4.5 19.5 7.85786 19.5 12Z" fill="#171D26"/>
</svg>
