<svg width="24" height="24" viewBox="0 0 24 24" fill="none" xmlns="http://www.w3.org/2000/svg">
<path fill-rule="evenodd" clip-rule="evenodd" d="M14.5 7.5C14.5 8.88071 13.3807 10 12 10C10.6193 10 9.5 8.88071 9.5 7.5C9.5 6.11929 10.6193 5 12 5C13.3807 5 14.5 6.11929 14.5 7.5ZM13.5 7.5C13.5 8.32843 12.8284 9 12 9C11.1716 9 10.5 8.32843 10.5 7.5C10.5 6.67157 11.1716 6 12 6C12.8284 6 13.5 6.67157 13.5 7.5Z" fill="#171D26"/>
<path fill-rule="evenodd" clip-rule="evenodd" d="M8.5 9.5C8.5 10.6046 7.60457 11.5 6.5 11.5C5.39543 11.5 4.5 10.6046 4.5 9.5C4.5 8.39543 5.39543 7.5 6.5 7.5C7.60457 7.5 8.5 8.39543 8.5 9.5ZM7.5 9.5C7.5 10.0523 7.05228 10.5 6.5 10.5C5.94772 10.5 5.5 10.0523 5.5 9.5C5.5 8.94772 5.94772 8.5 6.5 8.5C7.05228 8.5 7.5 8.94772 7.5 9.5Z" fill="#171D26"/>
<path fill-rule="evenodd" clip-rule="evenodd" d="M17.5 11.5C18.6046 11.5 19.5 10.6046 19.5 9.5C19.5 8.39543 18.6046 7.5 17.5 7.5C16.3954 7.5 15.5 8.39543 15.5 9.5C15.5 10.6046 16.3954 11.5 17.5 11.5ZM17.5 10.5C18.0523 10.5 18.5 10.0523 18.5 9.5C18.5 8.94772 18.0523 8.5 17.5 8.5C16.9477 8.5 16.5 8.94772 16.5 9.5C16.5 10.0523 16.9477 10.5 17.5 10.5Z" fill="#171D26"/>
<path fill-rule="evenodd" clip-rule="evenodd" d="M7.99985 12.9997C8.91207 11.7854 10.3643 11 12 11C13.6357 11 15.0879 11.7854 16.0001 12.9997C16.4179 12.6859 16.9372 12.5 17.5 12.5C18.8807 12.5 20 13.6193 20 15V18.8725C20 18.9429 19.9429 19 19.8725 19H4.12745C4.05706 19 4 18.9429 4 18.8725V15C4 13.6193 5.11929 12.5 6.5 12.5C7.06274 12.5 7.58205 12.6859 7.99985 12.9997ZM16 16V18H8V16C8 13.7909 9.79086 12 12 12C14.2091 12 16 13.7909 16 16ZM7.4784 13.863C7.1716 14.511 7 15.2354 7 16V18H5V15C5 14.1716 5.67157 13.5 6.5 13.5C6.87384 13.5 7.21574 13.6368 7.4784 13.863ZM17 16C17 15.2354 16.8284 14.511 16.5216 13.863C16.7843 13.6368 17.1261 13.5 17.5 13.5C18.3284 13.5 19 14.1716 19 15V18H17V16Z" fill="#171D26"/>
</svg>
