<svg width="24" height="24" viewBox="0 0 24 24" fill="none" xmlns="http://www.w3.org/2000/svg">
<path d="M12.2969 3C12.2969 2.72386 12.073 2.5 11.7969 2.5C11.5207 2.5 11.2969 2.72386 11.2969 3V4.59375C11.2969 4.86989 11.5207 5.09375 11.7969 5.09375C12.073 5.09375 12.2969 4.86989 12.2969 4.59375V3Z" fill="#171D26"/>
<path fill-rule="evenodd" clip-rule="evenodd" d="M15.2699 13.9395C14.8351 14.4191 14.5 15.0079 14.5 15.6552V17C14.5 17.7403 14.0977 18.3867 13.4999 18.7325V18.75C13.4999 19.7165 12.7164 20.5 11.7499 20.5C10.7834 20.5 9.99988 19.7165 9.99988 18.75V18.7324C9.40214 18.3865 9 17.7402 9 17V15.6552C9 15.0079 8.6649 14.4191 8.23009 13.9395C7.46571 13.0965 7 11.9776 7 10.75C7 8.12663 9.12665 5.99999 11.75 5.99999C14.3734 5.99999 16.5 8.12663 16.5 10.75C16.5 11.9776 16.0343 13.0965 15.2699 13.9395ZM14.5291 13.2678C15.1332 12.6015 15.5 11.7198 15.5 10.75C15.5 8.67892 13.8211 6.99999 11.75 6.99999C9.67893 6.99999 8 8.67892 8 10.75C8 11.7198 8.3668 12.6015 8.97091 13.2678C9.48915 13.8394 10 14.6585 10 15.6552V17C10 17.5523 10.4477 18 11 18H12.5C13.0523 18 13.5 17.5523 13.5 17V15.6552C13.5 14.6585 14.0108 13.8394 14.5291 13.2678Z" fill="#171D26"/>
<path d="M7.64841 3.61157C7.88755 3.4735 8.19335 3.55544 8.33142 3.79458L9.12829 5.17481C9.26636 5.41396 9.18443 5.71975 8.94528 5.85782C8.70613 5.99589 8.40034 5.91396 8.26227 5.67481L7.46539 4.29458C7.32732 4.05544 7.40926 3.74964 7.64841 3.61157Z" fill="#171D26"/>
<path d="M5.29458 6.46543C5.05544 6.32736 4.74964 6.4093 4.61157 6.64844C4.4735 6.88759 4.55544 7.19338 4.79458 7.33146L6.17481 8.12833C6.41396 8.2664 6.71975 8.18446 6.85783 7.94532C6.9959 7.70617 6.91396 7.40038 6.67481 7.26231L5.29458 6.46543Z" fill="#171D26"/>
<path d="M3.5 10.7969C3.5 10.5207 3.72386 10.2969 4 10.2969H5.59375C5.86989 10.2969 6.09375 10.5207 6.09375 10.7969C6.09375 11.073 5.86989 11.2969 5.59375 11.2969H4C3.72386 11.2969 3.5 11.073 3.5 10.7969Z" fill="#171D26"/>
<path d="M18 10.2969C17.7239 10.2969 17.5 10.5207 17.5 10.7969C17.5 11.073 17.7239 11.2969 18 11.2969H19.5938C19.8699 11.2969 20.0938 11.073 20.0938 10.7969C20.0938 10.5207 19.8699 10.2969 19.5938 10.2969H18Z" fill="#171D26"/>
<path d="M16.7359 7.94532C16.5978 7.70617 16.6798 7.40037 16.9189 7.2623L18.2991 6.46543C18.5383 6.32736 18.8441 6.40929 18.9822 6.64844C19.1202 6.88759 19.0383 7.19338 18.7991 7.33145L17.4189 8.12833C17.1798 8.2664 16.874 8.18446 16.7359 7.94532Z" fill="#171D26"/>
<path d="M14.4654 5.17482C14.3273 5.41396 14.4093 5.71976 14.6484 5.85783C14.8876 5.9959 15.1933 5.91396 15.3314 5.67482L16.1283 4.29459C16.2664 4.05544 16.1844 3.74965 15.9453 3.61158C15.7061 3.4735 15.4003 3.55544 15.2623 3.79459L14.4654 5.17482Z" fill="#171D26"/>
</svg>
