<svg width="24" height="24" viewBox="0 0 24 24" fill="none" xmlns="http://www.w3.org/2000/svg">
<path fill-rule="evenodd" clip-rule="evenodd" d="M10 6.5V7C10 7.55228 10.4477 8 11 8H13C13.5523 8 14 7.55228 14 7V6.5H16V7C16 7.55228 16.4477 8 17 8H19C19.5523 8 20 7.55228 20 7V5C20 4.44772 19.5523 4 19 4H17C16.4477 4 16 4.44772 16 5V5.5H14V5C14 4.44772 13.5523 4 13 4H11C10.4477 4 10 4.44772 10 5V5.5H8V5C8 4.44772 7.55228 4 7 4H5C4.44772 4 4 4.44772 4 5V7C4 7.55228 4.44772 8 5 8H5.5L5.5 10H5C4.44772 10 4 10.4477 4 11V13C4 13.5523 4.44772 14 5 14H5.5L5.5 16H5C4.44772 16 4 16.4477 4 17V19C4 19.5523 4.44772 20 5 20H7C7.55228 20 8 19.5523 8 19V18.5H10V19C10 19.5523 10.4477 20 11 20H13C13.5523 20 14 19.5523 14 19V18.5H16V19C16 19.5523 16.4477 20 17 20H19C19.5523 20 20 19.5523 20 19V17C20 16.4477 19.5523 16 19 16H17C16.4477 16 16 16.4477 16 17V17.5H14V17C14 16.4477 13.5523 16 13 16H12.5V14H13C13.5523 14 14 13.5523 14 13V11C14 10.4477 13.5523 10 13 10H11C10.4477 10 10 10.4477 10 11V11.5H8V11C8 10.4477 7.55228 10 7 10H6.5V8H7C7.55228 8 8 7.55228 8 7V6.5H10ZM11 5H13V7H11V5ZM13 17H11V19H13V17ZM7 5H5V7H7V5ZM5 11V13H7V11H5ZM11.5 16V14H11C10.4477 14 10 13.5523 10 13V12.5H8V13C8 13.5523 7.55228 14 7 14H6.5V16H7C7.55228 16 8 16.4477 8 17V17.5H10V17C10 16.4477 10.4477 16 11 16H11.5ZM13 13H11V11H13V13ZM5 17V19H7V17H5ZM19 17H17V19H19V17Z" fill="#171D26"/>
</svg>
