<svg width="24" height="24" viewBox="0 0 24 24" fill="none" xmlns="http://www.w3.org/2000/svg">
<path d="M9 4C9.27614 4 9.5 4.22386 9.5 4.5C9.5 4.77614 9.27614 5 9 5H5.5C5.22386 5 5 5.22386 5 5.5V9C5 9.27614 4.77614 9.5 4.5 9.5C4.22386 9.5 4 9.27614 4 9V5.5C4 4.67157 4.67157 4 5.5 4H9Z" fill="#171D26"/>
<path d="M15 4C14.7239 4 14.5 4.22386 14.5 4.5C14.5 4.77614 14.7239 5 15 5H18.5C18.7761 5 19 5.22386 19 5.5V9C19 9.27614 19.2239 9.5 19.5 9.5C19.7761 9.5 20 9.27614 20 9V5.5C20 4.67157 19.3284 4 18.5 4H15Z" fill="#171D26"/>
<path d="M9.5 19.5C9.5 19.7761 9.27614 20 9 20H5.5C4.67157 20 4 19.3284 4 18.5V15C4 14.7239 4.22386 14.5 4.5 14.5C4.77614 14.5 5 14.7239 5 15V18.5C5 18.7761 5.22386 19 5.5 19H9C9.27614 19 9.5 19.2239 9.5 19.5Z" fill="#171D26"/>
<path d="M15 20C14.7239 20 14.5 19.7761 14.5 19.5C14.5 19.2239 14.7239 19 15 19H18.5C18.7761 19 19 18.7761 19 18.5V15C19 14.7239 19.2239 14.5 19.5 14.5C19.7761 14.5 20 14.7239 20 15V18.5C20 19.3284 19.3284 20 18.5 20H15Z" fill="#171D26"/>
<path fill-rule="evenodd" clip-rule="evenodd" d="M11 12.5C9.067 12.5 7.5 14.067 7.5 16V16.5C7.5 17.0523 7.94772 17.5 8.5 17.5H15.5C16.0523 17.5 16.5 17.0523 16.5 16.5V16C16.5 14.067 14.933 12.5 13 12.5H11ZM13 13.5H11C9.61929 13.5 8.5 14.6193 8.5 16V16.5H15.5V16C15.5 14.6193 14.3807 13.5 13 13.5Z" fill="#171D26"/>
<path fill-rule="evenodd" clip-rule="evenodd" d="M14.5 9C14.5 10.3807 13.3807 11.5 12 11.5C10.6193 11.5 9.5 10.3807 9.5 9C9.5 7.61929 10.6193 6.5 12 6.5C13.3807 6.5 14.5 7.61929 14.5 9ZM13.5 9C13.5 9.82843 12.8284 10.5 12 10.5C11.1716 10.5 10.5 9.82843 10.5 9C10.5 8.17157 11.1716 7.5 12 7.5C12.8284 7.5 13.5 8.17157 13.5 9Z" fill="#171D26"/>
</svg>
