<svg width="24" height="24" viewBox="0 0 24 24" fill="none" xmlns="http://www.w3.org/2000/svg">
<path fill-rule="evenodd" clip-rule="evenodd" d="M11.7901 14.8732V15.5H12.2963V14.8736C12.7045 14.8547 13.0605 14.7882 13.3642 14.6742C13.7305 14.5357 14.0103 14.3415 14.2037 14.0918C14.3992 13.8402 14.4979 13.5431 14.5 13.2004C14.4979 12.9671 14.4496 12.7602 14.3549 12.5797C14.2623 12.3992 14.1317 12.2424 13.963 12.1094C13.7942 11.9763 13.5947 11.8642 13.3642 11.773C13.1337 11.6819 12.8807 11.609 12.6049 11.5543L12.2963 11.4889V10.1265C12.5049 10.1504 12.6778 10.2071 12.8148 10.2965C13.0021 10.4186 13.108 10.59 13.1327 10.8105H14.4136C14.4074 10.477 14.3066 10.1835 14.1111 9.93008C13.9156 9.67669 13.642 9.47891 13.2901 9.33672C12.9999 9.21875 12.6686 9.14972 12.2963 9.12963V8.5H11.7901V9.13203C11.4376 9.15485 11.1166 9.22307 10.8272 9.33672C10.465 9.47891 10.18 9.67669 9.97222 9.93008C9.76646 10.1835 9.66461 10.4797 9.66667 10.8187C9.66461 11.2326 9.8179 11.5616 10.1265 11.8059C10.4352 12.0501 10.856 12.2297 11.3889 12.3445L11.7901 12.4338V13.8746C11.6539 13.8603 11.5274 13.8333 11.4105 13.7938C11.2294 13.7299 11.0844 13.6361 10.9753 13.5121C10.8683 13.3863 10.8076 13.2296 10.7932 13.0418H9.5C9.51029 13.4447 9.62037 13.7828 9.83025 14.0562C10.0422 14.3279 10.3364 14.5329 10.713 14.6715C11.0268 14.7863 11.3858 14.8536 11.7901 14.8732ZM12.2963 13.8718C12.4146 13.8576 12.5226 13.8334 12.6204 13.7992C12.7891 13.7409 12.9198 13.6598 13.0123 13.5559C13.1049 13.452 13.1512 13.3326 13.1512 13.1977C13.1512 13.0719 13.1091 12.9661 13.0247 12.8805C12.9424 12.7948 12.821 12.7219 12.6605 12.6617C12.555 12.6217 12.4336 12.5841 12.2963 12.5489V13.8718ZM11.7901 11.3768V10.1284C11.6824 10.1418 11.5857 10.1641 11.5 10.1953C11.3498 10.2482 11.2346 10.322 11.1543 10.4168C11.0761 10.5116 11.037 10.6191 11.037 10.7395C11.0329 10.8397 11.0566 10.9272 11.108 11.002C11.1615 11.0767 11.2346 11.1414 11.3272 11.1961C11.4198 11.249 11.5267 11.2954 11.6481 11.3355C11.6943 11.3501 11.7416 11.3639 11.7901 11.3768Z" fill="#171D26"/>
<path fill-rule="evenodd" clip-rule="evenodd" d="M13.5 4.5C13.5 3.67157 12.8284 3 12 3C11.1716 3 10.5 3.67157 10.5 4.5C10.5 5.15311 10.9174 5.70873 11.5 5.91465V6.52242C10.3566 6.62546 9.31414 7.07841 8.48046 7.77337L8.05057 7.34348C8.31693 6.78591 8.2192 6.09787 7.75738 5.63604C7.17159 5.05026 6.22184 5.05026 5.63606 5.63604C5.05027 6.22183 5.05027 7.17158 5.63606 7.75736C6.09787 8.21918 6.78589 8.31691 7.34345 8.05057L7.77336 8.48048C7.0784 9.31415 6.62546 10.3566 6.52242 11.5H5.91465C5.70873 10.9174 5.15311 10.5 4.5 10.5C3.67157 10.5 3 11.1716 3 12C3 12.8284 3.67157 13.5 4.5 13.5C5.15311 13.5 5.70873 13.0826 5.91465 12.5H6.52242C6.62546 13.6434 7.0784 14.6858 7.77336 15.5195L7.34343 15.9494C6.78587 15.6831 6.09785 15.7808 5.63604 16.2427C5.05025 16.8284 5.05025 17.7782 5.63604 18.364C6.22182 18.9498 7.17157 18.9498 7.75736 18.364C8.21918 17.9022 8.31691 17.2141 8.05055 16.6565L8.48046 16.2266C9.31414 16.9216 10.3566 17.3745 11.5 17.4776V18.0854C10.9174 18.2913 10.5 18.8469 10.5 19.5C10.5 20.3285 11.1716 21 12 21C12.8284 21 13.5 20.3285 13.5 19.5C13.5 18.8469 13.0826 18.2913 12.5 18.0854V17.4776C13.6434 17.3745 14.6859 16.9216 15.5195 16.2266L15.9495 16.6566C15.6831 17.2141 15.7809 17.9022 16.2427 18.364C16.8285 18.9498 17.7782 18.9498 18.364 18.364C18.9498 17.7782 18.9498 16.8285 18.364 16.2427C17.9022 15.7809 17.2142 15.6831 16.6566 15.9495L16.2266 15.5195C16.9216 14.6858 17.3745 13.6434 17.4776 12.5H18.0854C18.2913 13.0826 18.8469 13.5 19.5 13.5C20.3284 13.5 21 12.8284 21 12C21 11.1716 20.3284 10.5 19.5 10.5C18.8469 10.5 18.2913 10.9174 18.0854 11.5H17.4776C17.3745 10.3566 16.9216 9.31414 16.2266 8.48046L16.6566 8.05054C17.2141 8.3169 17.9022 8.21917 18.364 7.75735C18.9498 7.17156 18.9498 6.22181 18.364 5.63603C17.7782 5.05024 16.8285 5.05024 16.2427 5.63603C15.7809 6.09784 15.6831 6.78586 15.9495 7.34342L15.5195 7.77336C14.6858 7.0784 13.6434 6.62546 12.5 6.52242V5.91465C13.0826 5.70873 13.5 5.15311 13.5 4.5ZM12.5 4.5C12.5 4.22386 12.2761 4 12 4C11.7239 4 11.5 4.22386 11.5 4.5C11.5 4.77614 11.7239 5 12 5C12.2761 5 12.5 4.77614 12.5 4.5ZM8.82924 8.80684L8.80684 8.82924C7.99907 9.64268 7.5 10.7631 7.5 12C7.5 14.4853 9.51472 16.5 12 16.5C14.4853 16.5 16.5 14.4853 16.5 12C16.5 9.51472 14.4853 7.5 12 7.5C10.7631 7.5 9.64268 7.99907 8.82924 8.80684ZM17.6569 7.05024C17.8521 6.85498 17.8521 6.53839 17.6569 6.34313C17.4616 6.14787 17.145 6.14787 16.9498 6.34313C16.7545 6.53839 16.7545 6.85498 16.9498 7.05024C17.145 7.2455 17.4616 7.2455 17.6569 7.05024ZM5 12C5 12.2761 4.77614 12.5 4.5 12.5C4.22386 12.5 4 12.2761 4 12C4 11.7239 4.22386 11.5 4.5 11.5C4.77614 11.5 5 11.7239 5 12ZM7.05025 17.6569C7.24551 17.4616 7.24551 17.145 7.05025 16.9498C6.85499 16.7545 6.53841 16.7545 6.34315 16.9498C6.14788 17.145 6.14788 17.4616 6.34315 17.6569C6.53841 17.8521 6.85499 17.8521 7.05025 17.6569ZM12.5 19.5C12.5 19.2239 12.2761 19 12 19C11.7239 19 11.5 19.2239 11.5 19.5C11.5 19.7762 11.7239 20 12 20C12.2761 20 12.5 19.7762 12.5 19.5ZM17.6569 16.9498C17.4616 16.7545 17.1451 16.7545 16.9498 16.9498C16.7545 17.145 16.7545 17.4616 16.9498 17.6569C17.1451 17.8521 17.4616 17.8521 17.6569 17.6569C17.8522 17.4616 17.8522 17.145 17.6569 16.9498ZM19.5 12.5C19.7761 12.5 20 12.2761 20 12C20 11.7239 19.7761 11.5 19.5 11.5C19.2239 11.5 19 11.7239 19 12C19 12.2761 19.2239 12.5 19.5 12.5ZM7.05027 6.34315C6.85501 6.14789 6.53842 6.14789 6.34316 6.34315C6.1479 6.53841 6.1479 6.85499 6.34316 7.05026C6.53842 7.24552 6.85501 7.24552 7.05027 7.05026C7.24553 6.85499 7.24553 6.53841 7.05027 6.34315Z" fill="#171D26"/>
</svg>
