<svg width="24" height="24" viewBox="0 0 24 24" fill="none" xmlns="http://www.w3.org/2000/svg">
<path fill-rule="evenodd" clip-rule="evenodd" d="M12.5 4.5C12.5 4.22386 12.2761 4 12 4C11.7239 4 11.5 4.22386 11.5 4.5V6H10.5C9.94772 6 9.5 6.44772 9.5 7V10.5C9.5 11.0523 9.94772 11.5 10.5 11.5H11.5V16.5C11.5 16.7761 11.7239 17 12 17C12.2761 17 12.5 16.7761 12.5 16.5L12.5 11.5H13.5C14.0523 11.5 14.5 11.0523 14.5 10.5V7C14.5 6.44772 14.0523 6 13.5 6H12.5V4.5ZM10.5 10.5V7H13.5V10.5H10.5Z" fill="#171D26"/>
<path fill-rule="evenodd" clip-rule="evenodd" d="M6 6C6.27614 6 6.5 6.22386 6.5 6.5V10.5H7.5C8.05228 10.5 8.5 10.9477 8.5 11.5V16.5C8.5 17.0523 8.05228 17.5 7.5 17.5H6.5V19.5C6.5 19.7761 6.27614 20 6 20C5.72386 20 5.5 19.7761 5.5 19.5V17.5H4.5C3.94772 17.5 3.5 17.0523 3.5 16.5V11.5C3.5 10.9477 3.94772 10.5 4.5 10.5H5.5V6.5C5.5 6.22386 5.72386 6 6 6ZM4.5 16.5L4.5 11.5H7.5V16.5H4.5Z" fill="#171D26"/>
<path fill-rule="evenodd" clip-rule="evenodd" d="M17.5 18.5C17.5 18.7761 17.7239 19 18 19C18.2761 19 18.5 18.7761 18.5 18.5L18.5 15.5H19.5C20.0523 15.5 20.5 15.0523 20.5 14.5V7C20.5 6.44772 20.0523 6 19.5 6H16.5C15.9477 6 15.5 6.44772 15.5 7V14.5C15.5 15.0523 15.9477 15.5 16.5 15.5H17.5V18.5ZM16.5 7H19.5V14.5H16.5V7Z" fill="#171D26"/>
</svg>
