<svg width="24" height="24" viewBox="0 0 24 24" fill="none" xmlns="http://www.w3.org/2000/svg">
<path d="M10.1836 9.1347C10.3853 9.32325 10.396 9.63965 10.2075 9.8414L8.68449 11.471L10.2075 13.1006C10.396 13.3024 10.3853 13.6188 10.1836 13.8073C9.98185 13.9959 9.66545 13.9852 9.47689 13.7834L7.63482 11.8124C7.45522 11.6203 7.45522 11.3218 7.63482 11.1296L9.47689 9.1586C9.66545 8.95685 9.98185 8.94615 10.1836 9.1347Z" fill="#171D26"/>
<path d="M13.5822 9.8414C13.3936 9.63965 13.4043 9.32325 13.6061 9.1347C13.8078 8.94615 14.1242 8.95685 14.3128 9.1586L16.1549 11.1296C16.3345 11.3218 16.3345 11.6203 16.1549 11.8124L14.3128 13.7834C14.1242 13.9852 13.8078 13.9959 13.6061 13.8073C13.4043 13.6188 13.3936 13.3024 13.5822 13.1006L15.1052 11.471L13.5822 9.8414Z" fill="#171D26"/>
<path d="M12.5824 9.01856C12.8483 9.09311 13.0034 9.36909 12.9288 9.63498L11.8236 13.577C11.7491 13.8429 11.4731 13.998 11.2072 13.9235C10.9413 13.8489 10.7862 13.573 10.8607 13.3071L11.966 9.36502C12.0405 9.09913 12.3165 8.94402 12.5824 9.01856Z" fill="#171D26"/>
<path fill-rule="evenodd" clip-rule="evenodd" d="M4 7C4 5.89543 4.89543 5 6 5H18C19.1046 5 20 5.89543 20 7V17C20 18.1046 19.1046 19 18 19H6C4.89543 19 4 18.1046 4 17V7ZM14.5 6H18C18.5523 6 19 6.44772 19 7V16H5V7C5 6.44772 5.44772 6 6 6L9.5 6V6.5C9.5 7.05228 9.94772 7.5 10.5 7.5H13.5C14.0523 7.5 14.5 7.05228 14.5 6.5V6ZM19 17C19 17.5523 18.5523 18 18 18H6C5.44772 18 5 17.5523 5 17H19ZM13.5 6H10.5V6.5H13.5V6Z" fill="#171D26"/>
</svg>
