<svg width="24" height="24" viewBox="0 0 24 24" fill="none" xmlns="http://www.w3.org/2000/svg">
<path d="M9.5 4.5C9.5 4.22386 9.27614 4 9 4H5.5C4.67157 4 4 4.67157 4 5.5V9C4 9.27614 4.22386 9.5 4.5 9.5C4.77614 9.5 5 9.27614 5 9V5.5C5 5.22386 5.22386 5 5.5 5H9C9.27614 5 9.5 4.77614 9.5 4.5Z" fill="#171D26"/>
<path fill-rule="evenodd" clip-rule="evenodd" d="M15.5 7.5C16.0523 7.5 16.5 7.94772 16.5 8.5V15.5C16.5 16.0523 16.0523 16.5 15.5 16.5H8.5C7.94772 16.5 7.5 16.0523 7.5 15.5V8.5C7.5 7.94772 7.94772 7.5 8.5 7.5H15.5ZM14 8.5H15.5V15.5H8.5V8.5H10V9.5C10 10.0523 10.4477 10.5 11 10.5H13C13.5523 10.5 14 10.0523 14 9.5V8.5ZM13 8.5H11V9.5H13V8.5Z" fill="#171D26"/>
<path d="M15 4C14.7239 4 14.5 4.22386 14.5 4.5C14.5 4.77614 14.7239 5 15 5H18.5C18.7761 5 19 5.22386 19 5.5V9C19 9.27614 19.2239 9.5 19.5 9.5C19.7761 9.5 20 9.27614 20 9V5.5C20 4.67157 19.3284 4 18.5 4H15Z" fill="#171D26"/>
<path d="M9.5 19.5C9.5 19.7761 9.27614 20 9 20H5.5C4.67157 20 4 19.3284 4 18.5V15C4 14.7239 4.22386 14.5 4.5 14.5C4.77614 14.5 5 14.7239 5 15V18.5C5 18.7761 5.22386 19 5.5 19H9C9.27614 19 9.5 19.2239 9.5 19.5Z" fill="#171D26"/>
<path d="M15 20C14.7239 20 14.5 19.7761 14.5 19.5C14.5 19.2239 14.7239 19 15 19H18.5C18.7761 19 19 18.7761 19 18.5V15C19 14.7239 19.2239 14.5 19.5 14.5C19.7761 14.5 20 14.7239 20 15V18.5C20 19.3284 19.3284 20 18.5 20H15Z" fill="#171D26"/>
</svg>
