<svg width="24" height="24" viewBox="0 0 24 24" fill="none" xmlns="http://www.w3.org/2000/svg">
<path d="M5.76524 6.1725C6.93596 5.62475 8.18774 5.22667 9.49644 5C9.65716 5.29058 9.84494 5.68142 9.9744 5.99234C11.3656 5.78312 12.744 5.78312 14.1096 5.99234C14.239 5.68142 14.431 5.29058 14.5932 5C15.9033 5.22667 17.1565 5.62621 18.3273 6.1754C20.6886 9.74369 21.3287 13.2233 21.0086 16.6536C19.4425 17.8232 17.9247 18.5336 16.4325 18.9986C16.0641 18.4915 15.7355 17.9525 15.4524 17.3844C15.9915 17.1795 16.5079 16.9267 16.9958 16.6333C16.8664 16.5374 16.7397 16.4371 16.6174 16.334C13.6416 17.7258 10.4083 17.7258 7.46796 16.334C7.3442 16.4371 7.21761 16.5374 7.08959 16.6333C7.57893 16.9282 8.0967 17.181 8.63582 17.3859C8.35275 17.9525 8.02557 18.493 7.65573 19C6.16211 18.5351 4.6429 17.8246 3.07674 16.6536C2.70119 12.6771 3.71827 9.22936 5.76524 6.1725ZM15.047 14.544C15.9403 14.544 16.6729 13.7101 16.6729 12.6945C16.6729 11.6789 15.956 10.8435 15.047 10.8435C14.138 10.8435 13.4054 11.6775 13.4211 12.6945C13.4197 13.7101 14.138 14.544 15.047 14.544ZM9.03839 14.544C9.93171 14.544 10.6643 13.7101 10.6643 12.6945C10.6643 11.6789 9.94737 10.8435 9.03839 10.8435C8.12943 10.8435 7.39683 11.6775 7.41248 12.6945C7.41248 13.7101 8.12943 14.544 9.03839 14.544Z" fill="#171D26"/>
</svg>
