<svg width="24" height="24" viewBox="0 0 24 24" fill="none" xmlns="http://www.w3.org/2000/svg">
<path d="M11.4762 8.34761C11.4081 8.13483 11.2071 7.99304 10.9838 8.00026C10.7605 8.00749 10.5691 8.16199 10.5149 8.37873L9.60961 12H7.5C7.22386 12 7 12.2239 7 12.5C7 12.7761 7.22386 13 7.5 13H10C10.2294 13 10.4294 12.8439 10.4851 12.6213L11.0591 10.3252L12.5238 14.9024C12.5808 15.0805 12.7325 15.212 12.9169 15.2431C13.1014 15.2741 13.2878 15.1996 13.4 15.05L14.75 13.25H17C17.2761 13.25 17.5 13.0261 17.5 12.75C17.5 12.4739 17.2761 12.25 17 12.25H14.5C14.3426 12.25 14.1944 12.3241 14.1 12.45L13.1811 13.6753L11.4762 8.34761Z" fill="#171D26"/>
<path fill-rule="evenodd" clip-rule="evenodd" d="M8.68543 4C5.54266 4 3.5 6.62464 3.5 9.71455C3.5 11.5523 4.73084 13.4695 6.33044 15.1952C7.9515 16.944 10.0465 18.5967 11.9662 19.9124C12.1366 20.0292 12.3611 20.0292 12.5315 19.9125C14.4545 18.595 16.5366 16.9263 18.1506 15.1701C19.7429 13.4375 20.97 11.5236 20.9991 9.7226C21.0488 6.63598 19.0793 4 15.9278 4C14.6652 4 13.4476 4.62484 12.2503 5.75138C11.0806 4.63444 9.95699 4 8.68543 4ZM4.5 9.71455C4.5 7.04173 6.22107 5 8.68543 5C9.67758 5 10.6529 5.5315 11.8906 6.80288C11.9848 6.89956 12.114 6.95409 12.2489 6.95409C12.3838 6.95409 12.513 6.89956 12.6072 6.80288C13.8323 5.54446 14.9245 5 15.9278 5C18.3833 5 20.0423 7.03038 19.9992 9.70649C19.9765 11.1128 18.9823 12.7873 17.4143 14.4934C15.945 16.0922 14.0506 17.6348 12.2488 18.8922C10.4442 17.6347 8.53843 16.1062 7.06384 14.5154C5.49053 12.818 4.5 11.1468 4.5 9.71455Z" fill="#171D26"/>
</svg>
