<svg width="24" height="24" viewBox="0 0 24 24" fill="none" xmlns="http://www.w3.org/2000/svg">
<path fill-rule="evenodd" clip-rule="evenodd" d="M18.5367 15.0909V18H19.2398V17.0966H19.7171C19.9396 17.0966 20.1319 17.0554 20.2938 16.973C20.4557 16.8906 20.5802 16.7746 20.6674 16.625C20.7554 16.4744 20.7995 16.2988 20.7995 16.098C20.7995 15.8982 20.7564 15.723 20.6702 15.5724C20.584 15.4209 20.4614 15.303 20.3023 15.2188C20.1442 15.1335 19.9562 15.0909 19.7384 15.0909H18.5367ZM19.2398 16.5426H19.5864C19.6925 16.5426 19.781 16.5242 19.852 16.4872C19.924 16.4503 19.9784 16.3987 20.0154 16.3324C20.0523 16.2652 20.0708 16.187 20.0708 16.098C20.0708 16.0081 20.0523 15.9304 20.0154 15.8651C19.9784 15.7988 19.924 15.7476 19.852 15.7117C19.7801 15.6757 19.6915 15.6577 19.5864 15.6577H19.2398V16.5426Z" fill="#171D26"/>
<path d="M18.1752 15.0909V18H17.4721V15.0909H18.1752Z" fill="#171D26"/>
<path d="M13.1451 15.0909L13.9917 18H14.6679L15.192 16.2358H15.2147L15.7389 18H16.4164L17.2616 15.0909H16.4861L16.0457 17.0014H16.0216L15.5201 15.0909H14.8866L14.3852 16.9972H14.3611L13.9221 15.0909H13.1451Z" fill="#171D26"/>
<path fill-rule="evenodd" clip-rule="evenodd" d="M6.73169 15.1094C5.65346 13.878 5 12.2653 5 10.5C5 6.63401 8.13401 3.5 12 3.5C15.866 3.5 19 6.63401 19 10.5C19 11.195 18.8987 11.8663 18.7101 12.5H20.5C21.6046 12.5 22.5 13.3954 22.5 14.5V18.5C22.5 19.6046 21.6046 20.5 20.5 20.5H13.5C12.3954 20.5 11.5 19.6046 11.5 18.5V17.4824C9.95554 17.3734 8.54941 16.7634 7.44316 15.8139C7.1896 15.5962 6.9518 15.3607 6.73169 15.1094ZM17.9795 11C17.9364 11.5218 17.8266 12.0246 17.6586 12.5H15.3551C15.4265 12.0196 15.4729 11.5176 15.4912 11H17.9795ZM14.4905 11C14.4707 11.5239 14.4199 12.0263 14.3431 12.5H13.5C12.9917 12.5 12.5278 12.6896 12.175 13.0019C12.1168 13.0006 12.0585 13 12 13C11.2383 13 10.5051 13.1073 9.81859 13.3058C9.65066 12.6105 9.54106 11.8325 9.50945 11H14.4905ZM10.1038 14.2613C10.5634 14.1298 11.0507 14.0447 11.5596 14.0135C11.5207 14.1692 11.5 14.3322 11.5 14.5V16.3417C11.1712 16.1444 10.788 15.7395 10.4196 15.0025C10.306 14.7755 10.2002 14.5276 10.1038 14.2613ZM12.5 18.5V14.5C12.5 14.3288 12.543 14.1676 12.6189 14.0267C12.7877 13.7131 13.1189 13.5 13.5 13.5H20.5C21.0523 13.5 21.5 13.9477 21.5 14.5V18.5C21.5 19.0523 21.0523 19.5 20.5 19.5H13.5C12.9477 19.5 12.5 19.0523 12.5 18.5ZM8.21771 15.158C8.72327 15.569 9.29703 15.8993 9.9194 16.1294C9.63133 15.7029 9.37716 15.19 9.16644 14.6098C8.82827 14.7668 8.51098 14.9508 8.21771 15.158ZM8.87327 13.6489C8.37446 13.869 7.9096 14.1401 7.48747 14.4545C6.66432 13.5159 6.1293 12.3184 6.02054 11H8.50879C8.54222 11.9475 8.66993 12.8428 8.87327 13.6489ZM10.4196 5.99747C10.306 6.2245 10.2002 6.47239 10.1038 6.73875C10.6945 6.9077 11.3307 7.00001 12 7.00001C12.6693 7.00001 13.3055 6.9077 13.8962 6.73875C13.7998 6.47238 13.694 6.2245 13.5804 5.99747C13.0002 4.83702 12.3837 4.5 12 4.5C11.6163 4.5 10.9998 4.83702 10.4196 5.99747ZM12 8.00001C11.2383 8.00001 10.5051 7.89268 9.81859 7.69421C9.65065 8.38955 9.54106 9.16751 9.50945 10H14.4905C14.4589 9.1675 14.3493 8.38955 14.1814 7.6942C13.4949 7.89267 12.7617 8.00001 12 8.00001ZM15.4912 10C15.4578 9.05255 15.3301 8.15716 15.1267 7.35112C15.6255 7.13102 16.0904 6.85989 16.5125 6.5455C17.3357 7.48405 17.8707 8.68159 17.9795 10H15.4912ZM15.7823 5.84204C15.489 6.04916 15.1717 6.23318 14.8336 6.39019C14.6228 5.81005 14.3687 5.29713 14.0806 4.87055C14.703 5.10066 15.2767 5.43102 15.7823 5.84204ZM7.48746 6.54551C7.90959 6.8599 8.37445 7.13102 8.87327 7.35112C8.66993 8.15716 8.54222 9.05255 8.50879 10H6.02054C6.1293 8.6816 6.66432 7.48406 7.48746 6.54551ZM9.9194 4.87055C9.63133 5.29713 9.37715 5.81005 9.16643 6.39019C8.82827 6.23318 8.51097 6.04916 8.2177 5.84205C8.72326 5.43103 9.29703 5.10066 9.9194 4.87055Z" fill="#171D26"/>
</svg>
