<svg width="24" height="24" viewBox="0 0 24 24" fill="none" xmlns="http://www.w3.org/2000/svg">
<path d="M15.9044 9.9176C16.0668 9.69428 16.0174 9.38157 15.7941 9.21915C15.5708 9.05673 15.2581 9.1061 15.0956 9.32943L11.7059 13.9903L9.70766 12.2995C9.49685 12.1211 9.18136 12.1474 9.00299 12.3582C8.82462 12.569 8.85091 12.8845 9.06171 13.0629L11.06 14.7537C11.5036 15.1291 12.1728 15.0485 12.5146 14.5785L15.9044 9.9176Z" fill="#171D26"/>
<path fill-rule="evenodd" clip-rule="evenodd" d="M11.3631 3.50375C11.7794 2.83208 12.7206 2.83208 13.1369 3.50375L13.8403 4.63872C14.112 5.07706 14.6408 5.25647 15.1073 5.06857L16.3153 4.58208C17.0302 4.29418 17.7916 4.87182 17.7503 5.6707L17.6805 7.02062C17.6535 7.54198 17.9803 8.01167 18.4636 8.146L19.7147 8.49381C20.4551 8.69964 20.746 9.63428 20.2628 10.2552L19.4464 11.3045C19.1311 11.7097 19.1311 12.2903 19.4464 12.6955L20.2628 13.7448C20.746 14.3657 20.4551 15.3004 19.7147 15.5062L18.4636 15.854C17.9803 15.9883 17.6535 16.458 17.6805 16.9794L17.7503 18.3293C17.7916 19.1282 17.0302 19.7058 16.3153 19.4179L15.1073 18.9314C14.6408 18.7435 14.112 18.9229 13.8403 19.3613L13.1369 20.4962C12.7206 21.1679 11.7794 21.1679 11.3631 20.4962L10.6597 19.3613C10.388 18.9229 9.85922 18.7435 9.39267 18.9314L8.18468 19.4179C7.4698 19.7058 6.70836 19.1282 6.74968 18.3293L6.81951 16.9794C6.84648 16.458 6.51966 15.9883 6.03644 15.854L4.7853 15.5062C4.04487 15.3004 3.75403 14.3657 4.23718 13.7448L5.05358 12.6955C5.3689 12.2903 5.3689 11.7097 5.05358 11.3045L4.23718 10.2552C3.75403 9.63428 4.04487 8.69964 4.7853 8.49381L6.03644 8.146C6.51966 8.01167 6.84648 7.54198 6.81951 7.02062L6.74968 5.6707C6.70836 4.87182 7.4698 4.29418 8.18468 4.58208L9.39267 5.06857C9.85922 5.25647 10.388 5.07706 10.6597 4.63872L11.3631 3.50375ZM12.2869 4.03056L12.9903 5.16552C13.5084 6.00149 14.5464 6.37253 15.4809 5.99618L16.6889 5.50969C16.6929 5.50808 16.6954 5.50738 16.6967 5.5071C16.6986 5.50764 16.7042 5.50958 16.712 5.51554C16.7224 5.52342 16.7329 5.53548 16.7403 5.55121C16.7469 5.56515 16.7533 5.58634 16.7517 5.61904L16.6818 6.96896C16.6321 7.93041 17.235 8.8424 18.1957 9.10947L19.4469 9.45727C19.4563 9.45989 19.4611 9.46303 19.4667 9.46875C19.4742 9.47642 19.4853 9.49185 19.4928 9.51598C19.5085 9.56649 19.498 9.6098 19.4736 9.64114L18.6572 10.6904C18.0608 11.4568 18.0608 12.5432 18.6572 13.3096L19.4736 14.3589C19.498 14.3902 19.5085 14.4335 19.4928 14.484C19.4853 14.5082 19.4742 14.5236 19.4667 14.5313C19.4611 14.537 19.4563 14.5401 19.4469 14.5427L18.1957 14.8905C17.235 15.1576 16.6321 16.0696 16.6818 17.031L16.7517 18.381C16.7533 18.4137 16.7469 18.4349 16.7403 18.4488C16.7329 18.4645 16.7224 18.4766 16.712 18.4845C16.7042 18.4904 16.6986 18.4924 16.6967 18.4929C16.6954 18.4926 16.6929 18.4919 16.6889 18.4903L15.4809 18.0038C14.5464 17.6275 13.5084 17.9985 12.9903 18.8345L12.2869 19.9694C12.2795 19.9813 12.2735 19.9878 12.27 19.9911C12.2684 19.9927 12.2669 19.9939 12.2657 19.9948C12.2643 19.9958 12.2631 19.9965 12.2622 19.997C12.259 19.9988 12.2549 20 12.25 20C12.2451 20 12.241 19.9988 12.2378 19.997C12.2361 19.9961 12.2335 19.9944 12.23 19.9911C12.2265 19.9878 12.2205 19.9813 12.2131 19.9694L11.5097 18.8345C10.9916 17.9985 9.95361 17.6275 9.0191 18.0038L7.81111 18.4903C7.80711 18.4919 7.80463 18.4926 7.80329 18.4929C7.80137 18.4924 7.79585 18.4904 7.78799 18.4845C7.7776 18.4766 7.76711 18.4645 7.75966 18.4488C7.75306 18.4349 7.74666 18.4137 7.74835 18.381L7.81818 17.031C7.86791 16.0696 7.26497 15.1576 6.30427 14.8905L5.05313 14.5427C5.04371 14.5401 5.0389 14.537 5.03329 14.5313C5.02576 14.5236 5.01474 14.5082 5.00724 14.484C4.99152 14.4335 5.00203 14.3902 5.02641 14.3589L5.84282 13.3096C6.43915 12.5432 6.43915 11.4568 5.84282 10.6904L5.02641 9.64114C5.00203 9.6098 4.99152 9.56649 5.00724 9.51598C5.01474 9.49185 5.02576 9.47642 5.03329 9.46875C5.0389 9.46303 5.04371 9.45989 5.05313 9.45727L6.30427 9.10947C7.26497 8.8424 7.86791 7.93041 7.81818 6.96896L7.74835 5.61904C7.74666 5.58634 7.75306 5.56515 7.75966 5.55121C7.76711 5.53548 7.77761 5.52342 7.78799 5.51554C7.79585 5.50958 7.80137 5.50764 7.80329 5.5071C7.80463 5.50738 7.80711 5.50807 7.81111 5.50969L9.0191 5.99618C9.95361 6.37253 10.9916 6.00149 11.5097 5.16552L12.2131 4.03056C12.2205 4.01868 12.2265 4.01217 12.23 4.00891C12.2335 4.00556 12.2361 4.00389 12.2378 4.00299C12.241 4.00118 12.2451 4 12.25 4C12.2549 4 12.259 4.00118 12.2622 4.00299C12.2639 4.00389 12.2665 4.00556 12.27 4.00891C12.2735 4.01217 12.2795 4.01868 12.2869 4.03056ZM16.698 5.50694C16.698 5.50697 16.6973 5.50711 16.6967 5.5071L16.698 5.50694ZM16.6979 18.4931L16.6967 18.4929C16.6974 18.4929 16.6981 18.4931 16.6979 18.4931ZM7.80204 18.4931C7.802 18.493 7.80272 18.4929 7.80329 18.4929L7.80204 18.4931Z" fill="#171D26"/>
</svg>
