<svg width="24" height="24" viewBox="0 0 24 24" fill="none" xmlns="http://www.w3.org/2000/svg">
<path d="M12.5 4.5C12.5 4.22386 12.2761 4 12 4C11.7238 4 11.5 4.22386 11.5 4.5L11.5 14.2929L9.17155 11.9645C8.97628 11.7692 8.6597 11.7692 8.46444 11.9645C8.26918 12.1597 8.26918 12.4763 8.46444 12.6716L11.6464 15.8536C11.8417 16.0488 12.1583 16.0488 12.3535 15.8536L15.5355 12.6716C15.7308 12.4763 15.7308 12.1597 15.5355 11.9645C15.3402 11.7692 15.0237 11.7692 14.8284 11.9645L12.5 14.2929L12.5 4.5Z" fill="#171D26"/>
<path d="M6.5 17C6.5 16.7239 6.27614 16.5 6 16.5C5.72386 16.5 5.5 16.7239 5.5 17V19.5C5.5 19.7761 5.72386 20 6 20H18C18.2761 20 18.5 19.7761 18.5 19.5V17C18.5 16.7239 18.2761 16.5 18 16.5C17.7239 16.5 17.5 16.7239 17.5 17V19H6.5V17Z" fill="#171D26"/>
</svg>
