<svg width="24" height="24" viewBox="0 0 24 24" fill="none" xmlns="http://www.w3.org/2000/svg">
<path d="M5.5 7C5.5 6.17157 6.17157 5.5 7 5.5C7.82843 5.5 8.5 6.17157 8.5 7C8.5 7.82843 7.82843 8.5 7 8.5C6.17157 8.5 5.5 7.82843 5.5 7Z" fill="#171D26"/>
<path d="M10 6.5C9.72386 6.5 9.5 6.72386 9.5 7C9.5 7.27614 9.72386 7.5 10 7.5L16.5 7.5C16.7761 7.5 17 7.27614 17 7C17 6.72386 16.7761 6.5 16.5 6.5L10 6.5Z" fill="#171D26"/>
<path fill-rule="evenodd" clip-rule="evenodd" d="M6.5 4C4.84315 4 3.5 5.34315 3.5 7C3.5 8.65685 4.84315 10 6.5 10H16.5C18.1569 10 19.5 8.65685 19.5 7C19.5 5.34315 18.1569 4 16.5 4H6.5ZM16.5 5H6.5C5.39543 5 4.5 5.89543 4.5 7C4.5 8.10457 5.39543 9 6.5 9H16.5C17.6046 9 18.5 8.10457 18.5 7C18.5 5.89543 17.6046 5 16.5 5Z" fill="#171D26"/>
<path d="M5.5 14C5.5 13.1716 6.17157 12.5 7 12.5C7.82843 12.5 8.5 13.1716 8.5 14C8.5 14.8284 7.82843 15.5 7 15.5C6.17157 15.5 5.5 14.8284 5.5 14Z" fill="#171D26"/>
<path d="M10 13.5C9.72386 13.5 9.5 13.7239 9.5 14C9.5 14.2761 9.72386 14.5 10 14.5H11.5C11.7761 14.5 12 14.2761 12 14C12 13.7239 11.7761 13.5 11.5 13.5H10Z" fill="#171D26"/>
<path fill-rule="evenodd" clip-rule="evenodd" d="M20.5 16.5C20.5 18.7091 18.7091 20.5 16.5 20.5C14.4602 20.5 12.777 18.9732 12.5309 17H6.5C4.84315 17 3.5 15.6569 3.5 14C3.5 12.3431 4.84315 11 6.5 11H16.5C18.1066 11 19.4182 12.2628 19.4963 13.85C20.1209 14.5557 20.5 15.4836 20.5 16.5ZM12.5309 16C12.777 14.0268 14.4602 12.5 16.5 12.5C17.0827 12.5 17.6362 12.6246 18.1355 12.8485C17.7734 12.3353 17.1759 12 16.5 12H6.5C5.39543 12 4.5 12.8954 4.5 14C4.5 15.1046 5.39543 16 6.5 16H12.5309ZM14.5 16.5C14.5 16.2239 14.7239 16 15 16H16V15C16 14.7239 16.2239 14.5 16.5 14.5C16.7761 14.5 17 14.7239 17 15V16H18C18.2761 16 18.5 16.2239 18.5 16.5C18.5 16.7761 18.2761 17 18 17H17V18C17 18.2761 16.7761 18.5 16.5 18.5C16.2239 18.5 16 18.2761 16 18V17H15C14.7239 17 14.5 16.7761 14.5 16.5Z" fill="#171D26"/>
</svg>
