<svg width="24" height="24" viewBox="0 0 24 24" fill="none" xmlns="http://www.w3.org/2000/svg">
<path d="M6.5 9C6.22386 9 6 9.22386 6 9.5C6 9.77614 6.22386 10 6.5 10L13 10C13.2761 10 13.5 9.77614 13.5 9.5C13.5 9.22386 13.2761 9 13 9L6.5 9Z" fill="#171D26"/>
<path d="M6 12C6 11.7239 6.22386 11.5 6.5 11.5L13 11.5C13.2761 11.5 13.5 11.7239 13.5 12C13.5 12.2761 13.2761 12.5 13 12.5L6.5 12.5C6.22386 12.5 6 12.2761 6 12Z" fill="#171D26"/>
<path d="M6.5 14C6.22386 14 6 14.2239 6 14.5C6 14.7761 6.22386 15 6.5 15L11.5 15C11.7761 15 12 14.7761 12 14.5C12 14.2239 11.7761 14 11.5 14L6.5 14Z" fill="#171D26"/>
<path d="M18.5 17.0231C18.5 17.2992 18.2761 17.5231 18 17.5231L16.5 17.5231C16.2238 17.5231 16 17.2992 16 17.0231C16 17.019 16 17.015 16.0001 17.011C16 17.0073 16 17.0037 16 17V15C16 14.7239 16.2239 14.5 16.5 14.5C16.7761 14.5 17 14.7239 17 15V16.5231L18 16.5231C18.2761 16.5231 18.5 16.7469 18.5 17.0231Z" fill="#171D26"/>
<path fill-rule="evenodd" clip-rule="evenodd" d="M13.0351 19H5.5C4.39543 19 3.5 18.1046 3.5 17V6C3.5 4.89543 4.39543 4 5.5 4H14C15.1046 4 16 4.89543 16 6V13.0309C16.1638 13.0105 16.3307 13 16.5 13C18.7091 13 20.5 14.7909 20.5 17C20.5 19.2091 18.7091 21 16.5 21C15.0194 21 13.7267 20.1956 13.0351 19ZM5.5 5L7 5V6C7 6.55228 7.44772 7 8 7H11.5C12.0523 7 12.5 6.55228 12.5 6V5H14C14.5523 5 15 5.44772 15 6V13.2908C13.5341 13.8841 12.5 15.3213 12.5 17C12.5 17.3453 12.5438 17.6804 12.626 18H5.5C4.94772 18 4.5 17.5523 4.5 17V6C4.5 5.44772 4.94772 5 5.5 5ZM8 6V5H11.5V6H8ZM19.5 17C19.5 18.6569 18.1569 20 16.5 20C14.8431 20 13.5 18.6569 13.5 17C13.5 15.3431 14.8431 14 16.5 14C18.1569 14 19.5 15.3431 19.5 17Z" fill="#171D26"/>
</svg>
