<svg width="24" height="24" viewBox="0 0 24 24" fill="none" xmlns="http://www.w3.org/2000/svg">
<path d="M14.0919 10.7941C14.2543 10.5708 14.2049 10.258 13.9816 10.0956C13.7583 9.93321 13.4456 9.98258 13.2831 10.2059L11.6678 12.4269L10.823 11.7121C10.6122 11.5337 10.2967 11.56 10.1183 11.7708C9.93995 11.9816 9.96624 12.2971 10.177 12.4754L11.0219 13.1903C11.4656 13.5657 12.1347 13.4851 12.4766 13.0151L14.0919 10.7941Z" fill="#171D26"/>
<path fill-rule="evenodd" clip-rule="evenodd" d="M12 18.0714C14.9164 17.4465 17 14.8691 17 11.8865V7.17857L12 5.92857L7 7.17857V11.8865C7 14.8691 9.08357 17.4465 12 18.0714ZM8 7.95934V11.8865C8 14.3256 9.65498 16.4427 12 17.0443C14.345 16.4427 16 14.3256 16 11.8865V7.95934L12 6.95934L8 7.95934Z" fill="#171D26"/>
<path fill-rule="evenodd" clip-rule="evenodd" d="M12 20.5C16.083 19.6251 19 16.0168 19 11.8411V5.25L12 3.5L5 5.25V11.8411C5 16.0168 7.917 19.6251 12 20.5ZM6 6.03078V11.8411C6 15.4734 8.48821 18.6217 12 19.4743C15.5118 18.6217 18 15.4734 18 11.8411V6.03078L12 4.53078L6 6.03078Z" fill="#171D26"/>
</svg>
