<svg width="24" height="24" viewBox="0 0 24 24" fill="none" xmlns="http://www.w3.org/2000/svg">
<path fill-rule="evenodd" clip-rule="evenodd" d="M4 6C4 4.89543 4.89543 4 6 4H9.5C10.6046 4 11.5 4.89543 11.5 6V9.5C11.5 10.6046 10.6046 11.5 9.5 11.5H6C4.89543 11.5 4 10.6046 4 9.5V6ZM6 5H9.5C10.0523 5 10.5 5.44772 10.5 6V9.5C10.5 10.0523 10.0523 10.5 9.5 10.5H6C5.44772 10.5 5 10.0523 5 9.5V6C5 5.44772 5.44772 5 6 5Z" fill="#171D26"/>
<path fill-rule="evenodd" clip-rule="evenodd" d="M12.5 6C12.5 4.89543 13.3954 4 14.5 4H18C19.1046 4 20 4.89543 20 6V9.5C20 10.6046 19.1046 11.5 18 11.5H14.5C13.3954 11.5 12.5 10.6046 12.5 9.5V6ZM14.5 5H18C18.5523 5 19 5.44772 19 6V9.5C19 10.0523 18.5523 10.5 18 10.5H14.5C13.9477 10.5 13.5 10.0523 13.5 9.5V6C13.5 5.44772 13.9477 5 14.5 5Z" fill="#171D26"/>
<path fill-rule="evenodd" clip-rule="evenodd" d="M6 12.5C4.89543 12.5 4 13.3954 4 14.5V18C4 19.1046 4.89543 20 6 20H9.5C10.6046 20 11.5 19.1046 11.5 18V14.5C11.5 13.3954 10.6046 12.5 9.5 12.5H6ZM9.5 13.5H6C5.44772 13.5 5 13.9477 5 14.5V18C5 18.5523 5.44772 19 6 19H9.5C10.0523 19 10.5 18.5523 10.5 18V14.5C10.5 13.9477 10.0523 13.5 9.5 13.5Z" fill="#171D26"/>
<path d="M16.715 12.6754C16.5482 12.254 15.9518 12.254 15.7851 12.6754L15.1125 14.3756C15.0427 14.5522 14.8788 14.674 14.6896 14.6899L12.9006 14.8407C12.4643 14.8775 12.2827 15.4175 12.608 15.7105L14.0072 16.9707C14.1417 17.0919 14.2002 17.2763 14.1601 17.4528L13.7392 19.3084C13.6402 19.7448 14.1204 20.0815 14.497 19.8397L15.9798 18.8874C16.1444 18.7817 16.3556 18.7817 16.5202 18.8874L18.003 19.8397C18.3796 20.0815 18.8598 19.7448 18.7608 19.3084L18.3399 17.4528C18.2998 17.2763 18.3583 17.0919 18.4929 16.9707L19.892 15.7105C20.2173 15.4175 20.0357 14.8775 19.5994 14.8407L17.8104 14.6899C17.6212 14.674 17.4573 14.5522 17.3875 14.3756L16.715 12.6754Z" fill="#171D26"/>
</svg>
