<svg width="24" height="24" viewBox="0 0 24 24" fill="none" xmlns="http://www.w3.org/2000/svg">
<path d="M12 7.5L14.5784 11.3676L12 13.0866L9.4216 11.3676L12 7.5Z" fill="#171D26"/>
<path d="M12 14.2884L14.6539 12.5192L12 16.5L9.34613 12.5192L12 14.2884Z" fill="#171D26"/>
<path fill-rule="evenodd" clip-rule="evenodd" d="M12.5 4.5C12.5 4.22386 12.2761 4 12 4C11.7239 4 11.5 4.22386 11.5 4.5V5.5H10.5V4.5C10.5 4.22386 10.2761 4 10 4C9.72386 4 9.5 4.22386 9.5 4.5V5.5H7.5C6.39543 5.5 5.5 6.39543 5.5 7.5V9.5H4.5C4.22386 9.5 4 9.72386 4 10C4 10.2761 4.22386 10.5 4.5 10.5H5.5V11.5H4.5C4.22386 11.5 4 11.7239 4 12C4 12.2761 4.22386 12.5 4.5 12.5H5.5V13.5H4.5C4.22386 13.5 4 13.7239 4 14C4 14.2761 4.22386 14.5 4.5 14.5H5.5V16.5C5.5 17.6046 6.39543 18.5 7.5 18.5H9.5V19.5C9.5 19.7761 9.72386 20 10 20C10.2761 20 10.5 19.7761 10.5 19.5V18.5H11.5V19.5C11.5 19.7761 11.7239 20 12 20C12.2761 20 12.5 19.7761 12.5 19.5V18.5H13.5V19.5C13.5 19.7761 13.7239 20 14 20C14.2761 20 14.5 19.7761 14.5 19.5V18.5H16.5C17.6046 18.5 18.5 17.6046 18.5 16.5V14.5H19.5C19.7761 14.5 20 14.2761 20 14C20 13.7239 19.7761 13.5 19.5 13.5H18.5V12.5H19.5C19.7761 12.5 20 12.2761 20 12C20 11.7239 19.7761 11.5 19.5 11.5H18.5V10.5H19.5C19.7761 10.5 20 10.2761 20 10C20 9.72386 19.7761 9.5 19.5 9.5H18.5V7.5C18.5 6.39543 17.6046 5.5 16.5 5.5H14.5V4.5C14.5 4.22386 14.2761 4 14 4C13.7239 4 13.5 4.22386 13.5 4.5V5.5H12.5V4.5ZM6.5 7.5C6.5 6.94772 6.94772 6.5 7.5 6.5H16.5C17.0523 6.5 17.5 6.94772 17.5 7.5V16.5C17.5 17.0523 17.0523 17.5 16.5 17.5H7.5C6.94772 17.5 6.5 17.0523 6.5 16.5V7.5Z" fill="#171D26"/>
</svg>
