<svg width="24" height="24" viewBox="0 0 24 24" fill="none" xmlns="http://www.w3.org/2000/svg">
<path fill-rule="evenodd" clip-rule="evenodd" d="M12.0028 20C15.8675 19.9985 19 16.865 19 13C19 9.49216 17.8727 7.09741 16.5 6C13.8273 7.78182 12.742 6.38876 13.0673 3.58865C13.1072 3.24578 13.1682 2.88182 13.25 2.5C12.8756 2.59766 12.515 2.70699 12.168 2.82735C7.18505 4.55555 5 8.55927 5 13C5 16.866 8.13401 20 12 20H12.0028ZM12.0042 19C12.0028 19 12.0014 19 12 19C10.4909 19 9.19565 17.7109 9.19565 16.0302C9.19565 15.0424 9.36803 14.1753 9.74385 13.4703C10.0357 12.9228 10.4679 12.4386 11.1068 12.0576C11.4579 12.3214 11.8187 12.5484 12.1538 12.7528C12.2539 12.8139 12.3511 12.8727 12.4457 12.9299C12.8615 13.1812 13.2268 13.402 13.5641 13.6548C13.9638 13.9542 14.2624 14.256 14.4662 14.6081C14.6645 14.9509 14.8043 15.3957 14.8043 16.0302C14.8043 17.7094 13.5115 18.9976 12.0042 19ZM15.2956 18.0147C15.6192 17.4309 15.8043 16.7531 15.8043 16.0302C15.8043 13.79 14.3846 12.9325 12.9472 12.0644C12.3469 11.7018 11.7435 11.3374 11.2391 10.8696C8.95652 11.862 8.19565 13.8378 8.19565 16.0302C8.19565 16.7531 8.38081 17.4309 8.70434 18.0146C7.07524 16.9418 6 15.0965 6 13C6 10.7992 6.57825 8.76489 7.77689 7.12023C8.73768 5.80194 10.1279 4.69117 12.0305 3.94391C12.009 4.26293 12.0053 4.56887 12.021 4.85882C12.0614 5.60325 12.2356 6.35215 12.6775 6.92395C13.1656 7.55571 13.8863 7.84902 14.6984 7.78607C15.2308 7.7448 15.7861 7.55421 16.3558 7.25196C17.2299 8.27801 18 10.1784 18 13C18 15.0965 16.9247 16.9418 15.2956 18.0147Z" fill="#171D26"/>
</svg>
