<svg xmlns="http://www.w3.org/2000/svg" width="48" height="48" fill="none" viewBox="0 0 48 48">
  <path fill="#3131FF" fill-rule="evenodd" d="M25.57 32.4A11.961 11.961 0 0 0 29 24c0-3.27-1.308-6.235-3.43-8.4A9.953 9.953 0 0 1 31 14c5.523 0 10 4.477 10 10s-4.477 10-10 10a9.953 9.953 0 0 1-5.43-1.6ZM24 33.747A11.985 11.985 0 0 1 19 24c0-4.015 1.972-7.57 5-9.748a12.07 12.07 0 0 1 1.57 1.349A9.992 9.992 0 0 0 21 24a9.992 9.992 0 0 0 4.57 8.4A12.07 12.07 0 0 1 24 33.747Zm0 0A11.946 11.946 0 0 1 17 36c-6.627 0-12-5.373-12-12s5.373-12 12-12c2.612 0 5.03.835 7 2.252A11.946 11.946 0 0 1 31 12c6.627 0 12 5.373 12 12s-5.373 12-12 12c-2.612 0-5.03-.835-7-2.252Z" clip-rule="evenodd"/>
</svg>
