<svg width="24" height="24" viewBox="0 0 24 24" fill="none" xmlns="http://www.w3.org/2000/svg">
<path fill-rule="evenodd" clip-rule="evenodd" d="M4 6C4 4.89543 4.89543 4 6 4H18C19.1046 4 20 4.89543 20 6V18C20 19.1046 19.1046 20 18 20H6C4.89543 20 4 19.1046 4 18V6ZM6 5H10.1898L5 10.1898V6C5 5.44772 5.44772 5 6 5ZM19 10.1898L13.8102 5H18C18.5523 5 19 5.44772 19 6V10.1898ZM13.8102 19L19 13.8102V18C19 18.5523 18.5523 19 18 19H13.8102ZM5 13.8102L10.1898 19H6C5.44772 19 5 18.5523 5 18V13.8102ZM13.8294 8.01103H14.989C15.5413 8.01103 15.989 8.45875 15.989 9.01103V10.1707L13.8294 8.01103ZM11.9567 8.01103H12.0433C12.2846 8.02144 12.5229 8.11876 12.7071 8.30299L15.697 11.2929C15.8814 11.4773 15.9787 11.7158 15.989 11.9573V12.0427C15.9787 12.2842 15.8814 12.5227 15.697 12.7071L12.7071 15.697C12.5227 15.8814 12.2842 15.9787 12.0428 15.989H11.9573C11.7158 15.9787 11.4773 15.8814 11.2929 15.697L8.303 12.7071C8.11878 12.5229 8.02147 12.2847 8.01105 12.0434V11.9566C8.02147 11.7153 8.11878 11.4771 8.303 11.2929L11.2929 8.30299C11.4771 8.11876 11.7154 8.02144 11.9567 8.01103ZM12.0613 7.01103C12.0204 7.00979 11.9796 7.00979 11.9387 7.01103H9.59297L11.2929 5.31111C11.6834 4.92058 12.3166 4.92058 12.7071 5.31111L14.407 7.01103H12.0613ZM10.1706 8.01103L8.01105 10.1706V9.01103C8.01105 8.45875 8.45876 8.01103 9.01105 8.01103H10.1706ZM7.01105 11.9386V9.59295L5.31112 11.2929C4.9206 11.6834 4.9206 12.3166 5.31112 12.7071L7.01105 14.407V12.0614C7.0098 12.0205 7.0098 11.9795 7.01105 11.9386ZM8.01105 13.8294V14.989C8.01105 15.5413 8.45876 15.989 9.01105 15.989H10.1707L8.01105 13.8294ZM11.9395 16.989C11.9798 16.9902 12.0202 16.9902 12.0605 16.989H14.407L12.7071 18.6889C12.3166 19.0794 11.6834 19.0794 11.2929 18.6889L9.593 16.989H11.9395ZM13.8293 15.989H14.989C15.5413 15.989 15.989 15.5413 15.989 14.989V13.8293L13.8293 15.989ZM16.989 12.0604V14.407L18.6889 12.7071C19.0794 12.3166 19.0794 11.6834 18.6889 11.2929L16.989 9.59299V11.9396C16.9902 11.9798 16.9902 12.0201 16.989 12.0604Z" fill="#171D26"/>
</svg>
