<svg width="24" height="24" viewBox="0 0 24 24" fill="none" xmlns="http://www.w3.org/2000/svg">
<path fill-rule="evenodd" clip-rule="evenodd" d="M8.75151 11.6372C8.36098 12.0277 7.72782 12.0277 7.33729 11.6372L4.43645 8.73636C4.04593 8.34584 4.04593 7.71267 4.43645 7.32215L7.33729 4.42131C7.72782 4.03079 8.36098 4.03079 8.75151 4.42131L11.6523 7.32215C12.0429 7.71267 12.0429 8.34584 11.6523 8.73636L8.75151 11.6372ZM8.0444 10.9301L5.14356 8.02926L8.0444 5.12842L10.9452 8.02926L8.0444 10.9301Z" fill="#171D26"/>
<path fill-rule="evenodd" clip-rule="evenodd" d="M12.5992 6.43338C12.5992 5.32881 13.4947 4.43338 14.5992 4.43338H17.791C18.8956 4.43338 19.791 5.32881 19.791 6.43338V9.62514C19.791 10.7297 18.8956 11.6251 17.791 11.6251H14.5992C13.4947 11.6251 12.5992 10.7297 12.5992 9.62514V6.43338ZM14.5992 5.43338H17.791C18.3433 5.43338 18.791 5.8811 18.791 6.43338V9.62514C18.791 10.1774 18.3433 10.6251 17.791 10.6251H14.5992C14.0469 10.6251 13.5992 10.1774 13.5992 9.62514V6.43338C13.5992 5.8811 14.0469 5.43338 14.5992 5.43338Z" fill="#171D26"/>
<path fill-rule="evenodd" clip-rule="evenodd" d="M12.3595 16.1799C12.3595 14.0616 14.0767 12.3443 16.1951 12.3443C18.3134 12.3443 20.0307 14.0616 20.0307 16.1799C20.0307 18.2983 18.3134 20.0155 16.1951 20.0155C14.0767 20.0155 12.3595 18.2983 12.3595 16.1799ZM16.1951 19.0155C14.629 19.0155 13.3595 17.746 13.3595 16.1799C13.3595 14.6139 14.629 13.3443 16.1951 13.3443C17.7611 13.3443 19.0307 14.6139 19.0307 16.1799C19.0307 17.746 17.7611 19.0155 16.1951 19.0155Z" fill="#171D26"/>
<path fill-rule="evenodd" clip-rule="evenodd" d="M7.1784 19.4744C7.5633 20.1411 8.52555 20.1411 8.91045 19.4744L11.9534 14.2039C12.3383 13.5372 11.8572 12.7039 11.0874 12.7039L5.00149 12.7039C4.23169 12.7039 3.75057 13.5372 4.13547 14.2039L7.1784 19.4744ZM5.00149 13.7039L8.04443 18.9744L11.0874 13.7039L5.00149 13.7039Z" fill="#171D26"/>
</svg>
