<svg width="24" height="24" viewBox="0 0 24 24" fill="none" xmlns="http://www.w3.org/2000/svg">
<path d="M15.8344 9.11107L16.0915 8.15158C16.163 7.88484 16.4372 7.72655 16.7039 7.79802C16.9706 7.8695 17.1289 8.14366 17.0575 8.4104L16.5084 10.4594C16.4369 10.7262 16.1628 10.8845 15.896 10.813L13.847 10.264C13.5803 10.1925 13.422 9.91831 13.4935 9.65158C13.5649 9.38485 13.8391 9.22655 14.1058 9.29802L14.9081 9.51299L12.2701 5.19678C12.0723 4.87308 11.6002 4.87898 11.4105 5.20752L8.75206 9.81208C8.61398 10.0512 8.30819 10.1332 8.06904 9.99509C7.8299 9.85702 7.74796 9.55123 7.88603 9.31208L10.5445 4.70752C11.1135 3.7219 12.5299 3.7042 13.1234 4.67529L15.8344 9.11107Z" fill="#171D26"/>
<path d="M7.2001 13.6583L6.97729 12.8267L4.56299 17.2608C4.38158 17.594 4.62275 17.9999 5.00212 17.9999H10.319C10.5951 17.9999 10.819 18.2238 10.819 18.4999C10.819 18.776 10.5951 18.9999 10.319 18.9999H5.00212C3.86402 18.9999 3.1405 17.7821 3.68474 16.7826L6.14605 12.2622L5.2144 12.5118C4.94767 12.5833 4.6735 12.425 4.60203 12.1583C4.53056 11.8915 4.68885 11.6174 4.95558 11.5459L7.00462 10.9969C7.27135 10.9254 7.54552 11.0837 7.61699 11.3504L8.16603 13.3994C8.2375 13.6662 8.07921 13.9403 7.81248 14.0118C7.54574 14.0833 7.27157 13.925 7.2001 13.6583Z" fill="#171D26"/>
<path d="M19.8445 16.7868C20.4158 17.7868 19.6938 19.031 18.5421 19.031L13.5572 19.031L14.1726 19.6463C14.3678 19.8416 14.3678 20.1582 14.1726 20.3535C13.9773 20.5487 13.6607 20.5487 13.4655 20.3535L11.9655 18.8535C11.7702 18.6582 11.7702 18.3416 11.9655 18.1463L13.4655 16.6463C13.6607 16.4511 13.9773 16.4511 14.1726 16.6463C14.3678 16.8416 14.3678 17.1582 14.1726 17.3535L13.495 18.031H18.5421C18.926 18.031 19.1667 17.6163 18.9762 17.2829L16.3849 12.748C16.2479 12.5082 16.3312 12.2028 16.571 12.0658C16.8108 11.9288 17.1162 12.0121 17.2532 12.2518L19.8445 16.7868Z" fill="#171D26"/>
</svg>
