<svg width="24" height="24" viewBox="0 0 24 24" fill="none" xmlns="http://www.w3.org/2000/svg">
<path fill-rule="evenodd" clip-rule="evenodd" d="M11.55 6C11.7816 4.85888 12.7905 4 14 4C15.2095 4 16.2184 4.85888 16.45 6H19.5C19.7761 6 20 6.22386 20 6.5C20 6.77614 19.7761 7 19.5 7H16.45C16.2184 8.14112 15.2095 9 14 9C12.7905 9 11.7816 8.14112 11.55 7H4.5C4.22386 7 4 6.77614 4 6.5C4 6.22386 4.22386 6 4.5 6H11.55ZM14 8C13.1716 8 12.5 7.32843 12.5 6.5C12.5 5.67157 13.1716 5 14 5C14.8284 5 15.5 5.67157 15.5 6.5C15.5 7.32843 14.8284 8 14 8Z" fill="#171D26"/>
<path fill-rule="evenodd" clip-rule="evenodd" d="M6.05001 11.5C6.28164 10.3589 7.29052 9.5 8.5 9.5C9.70948 9.5 10.7184 10.3589 10.95 11.5H19.5C19.7761 11.5 20 11.7239 20 12C20 12.2761 19.7761 12.5 19.5 12.5H10.95C10.7184 13.6411 9.70948 14.5 8.5 14.5C7.29052 14.5 6.28164 13.6411 6.05001 12.5H4.5C4.22386 12.5 4 12.2761 4 12C4 11.7239 4.22386 11.5 4.5 11.5H6.05001ZM8.5 13.5C7.67157 13.5 7 12.8284 7 12C7 11.1716 7.67157 10.5 8.5 10.5C9.32843 10.5 10 11.1716 10 12C10 12.8284 9.32843 13.5 8.5 13.5Z" fill="#171D26"/>
<path fill-rule="evenodd" clip-rule="evenodd" d="M11.55 18H4.5C4.22386 18 4 17.7761 4 17.5C4 17.2239 4.22386 17 4.5 17H11.55C11.7816 15.8589 12.7905 15 14 15C15.2095 15 16.2184 15.8589 16.45 17H19.5C19.7761 17 20 17.2239 20 17.5C20 17.7761 19.7761 18 19.5 18H16.45C16.2184 19.1411 15.2095 20 14 20C12.7905 20 11.7816 19.1411 11.55 18ZM12.5 17.5C12.5 18.3284 13.1716 19 14 19C14.8284 19 15.5 18.3284 15.5 17.5C15.5 16.6716 14.8284 16 14 16C13.1716 16 12.5 16.6716 12.5 17.5Z" fill="#171D26"/>
</svg>
