<svg width="24" height="24" viewBox="0 0 24 24" fill="none" xmlns="http://www.w3.org/2000/svg">
<path fill-rule="evenodd" clip-rule="evenodd" d="M11.8111 11.8732V12.5H12.2667V11.8736C12.634 11.8547 12.9544 11.7882 13.2278 11.6742C13.5574 11.5357 13.8093 11.3415 13.9833 11.0918C14.1593 10.8402 14.2481 10.5431 14.25 10.2004C14.2481 9.96706 14.2046 9.76016 14.1194 9.57969C14.0361 9.39922 13.9185 9.24245 13.7667 9.10938C13.6148 8.9763 13.4352 8.86419 13.2278 8.77305C13.0204 8.6819 12.7926 8.60898 12.5444 8.5543L12.2667 8.48891V7.12646C12.4545 7.15043 12.61 7.2071 12.7333 7.29648C12.9019 7.41862 12.9972 7.58997 13.0194 7.81055H14.1722C14.1667 7.47695 14.0759 7.18346 13.9 6.93008C13.7241 6.67669 13.4778 6.47891 13.1611 6.33672C12.8999 6.21875 12.6018 6.14972 12.2667 6.12963V5.5H11.8111V6.13203C11.4938 6.15485 11.2049 6.22308 10.9444 6.33672C10.6185 6.47891 10.362 6.67669 10.175 6.93008C9.98981 7.18346 9.89815 7.47969 9.9 7.81875C9.89815 8.23255 10.0361 8.56159 10.3139 8.80586C10.5917 9.05013 10.9704 9.22969 11.45 9.34453L11.8111 9.4338V10.8746C11.6885 10.8603 11.5747 10.8333 11.4694 10.7938C11.3065 10.7299 11.1759 10.6361 11.0778 10.5121C10.9815 10.3863 10.9269 10.2296 10.9139 10.0418H9.75C9.75926 10.4447 9.85833 10.7828 10.0472 11.0563C10.238 11.3279 10.5028 11.5329 10.8417 11.6715C11.1241 11.7863 11.4472 11.8536 11.8111 11.8732ZM12.2667 10.8718C12.3731 10.8576 12.4703 10.8334 12.5583 10.7992C12.7102 10.7409 12.8278 10.6598 12.9111 10.5559C12.9944 10.452 13.0361 10.3326 13.0361 10.1977C13.0361 10.0719 12.9981 9.96615 12.9222 9.88047C12.8481 9.79479 12.7389 9.72188 12.5944 9.66172C12.4995 9.62168 12.3903 9.58407 12.2667 9.54887V10.8718ZM11.8111 8.37682V7.12843C11.7141 7.14183 11.6271 7.16412 11.55 7.19531C11.4148 7.24818 11.3111 7.32201 11.2389 7.4168C11.1685 7.51159 11.1333 7.61914 11.1333 7.73945C11.1296 7.83971 11.1509 7.92721 11.1972 8.00195C11.2454 8.07669 11.3111 8.14141 11.3944 8.19609C11.4778 8.24896 11.5741 8.29544 11.6833 8.33555C11.7249 8.3501 11.7674 8.36385 11.8111 8.37682Z" fill="#171D26"/>
<path fill-rule="evenodd" clip-rule="evenodd" d="M18.5 5V8.76756C19.0978 9.11337 19.5 9.75972 19.5 10.5V18C19.5 19.1046 18.6046 20 17.5 20H6.5C5.39543 20 4.5 19.1046 4.5 18V10.5C4.5 9.75972 4.9022 9.11337 5.5 8.76756V5C5.5 4.44772 5.94772 4 6.5 4H17.5C18.0523 4 18.5 4.44772 18.5 5ZM18.5 10.1549L13.6604 14.25L18.4527 18.3049C18.4834 18.2088 18.5 18.1063 18.5 18V10.1549ZM17.5 9.69115L12.8833 13.5976C12.3577 13.2141 11.6423 13.2141 11.1167 13.5976L6.5 9.6912V5H17.5V9.69115ZM5.5 10.155L10.3396 14.25L5.54736 18.305C5.5166 18.2088 5.5 18.1064 5.5 18V10.155ZM6.5 19C6.43086 19 6.36336 18.993 6.29818 18.9796L11.6771 14.4283C11.8635 14.2705 12.1366 14.2705 12.323 14.4283L17.7019 18.9796C17.6367 18.993 17.5692 19 17.5 19H6.5Z" fill="#171D26"/>
</svg>
