<svg width="24" height="24" viewBox="0 0 24 24" fill="none" xmlns="http://www.w3.org/2000/svg">
<path d="M14.75 11C15.1642 11 15.5 11.3358 15.5 11.75C15.5 12.1642 15.1642 12.5 14.75 12.5C14.3358 12.5 14 12.1642 14 11.75C14 11.3358 14.3358 11 14.75 11Z" fill="#171D26"/>
<path d="M17 10.25C17 9.83579 16.6642 9.5 16.25 9.5C15.8358 9.5 15.5 9.83579 15.5 10.25C15.5 10.6642 15.8358 11 16.25 11C16.6642 11 17 10.6642 17 10.25Z" fill="#171D26"/>
<path d="M16.25 12.5C16.6642 12.5 17 12.8358 17 13.25C17 13.6642 16.6642 14 16.25 14C15.8358 14 15.5 13.6642 15.5 13.25C15.5 12.8358 15.8358 12.5 16.25 12.5Z" fill="#171D26"/>
<path d="M18.5 11.75C18.5 11.3358 18.1642 11 17.75 11C17.3358 11 17 11.3358 17 11.75C17 12.1642 17.3358 12.5 17.75 12.5C18.1642 12.5 18.5 12.1642 18.5 11.75Z" fill="#171D26"/>
<path d="M7.75 9.5C8.02614 9.5 8.25 9.72386 8.25 10V11.25H9.5C9.77614 11.25 10 11.4739 10 11.75C10 12.0261 9.77614 12.25 9.5 12.25H8.25V13.5C8.25 13.7761 8.02614 14 7.75 14C7.47386 14 7.25 13.7761 7.25 13.5V12.25H6C5.72386 12.25 5.5 12.0261 5.5 11.75C5.5 11.4739 5.72386 11.25 6 11.25H7.25V10C7.25 9.72386 7.47386 9.5 7.75 9.5Z" fill="#171D26"/>
<path d="M11 14C10.7239 14 10.5 14.2239 10.5 14.5C10.5 14.7761 10.7239 15 11 15H13C13.2761 15 13.5 14.7761 13.5 14.5C13.5 14.2239 13.2761 14 13 14H11Z" fill="#171D26"/>
<path fill-rule="evenodd" clip-rule="evenodd" d="M12 4C12.2761 4 12.5 4.22386 12.5 4.5V7.5H16.5C16.5 6.94772 16.9477 6.5 17.5 6.5H18C18.5523 6.5 19 6.94772 19 7.5C19 7.521 18.9994 7.54184 18.9981 7.56251C19.8617 7.78387 20.5 8.56739 20.5 9.5V18C20.5 19.1046 19.6046 20 18.5 20H17.3615C16.8116 20 16.2859 19.7736 15.9082 19.374L14.2557 17.626C13.8779 17.2264 13.3523 17 12.8024 17H11.1976C10.6477 17 10.1221 17.2264 9.74429 17.626L8.09184 19.374C7.71406 19.7736 7.18841 20 6.63849 20H5.5C4.39543 20 3.5 19.1046 3.5 18V9.5C3.5 8.56739 4.13833 7.78387 5.00192 7.56252C5.00065 7.54184 5 7.521 5 7.5C5 6.94772 5.44772 6.5 6 6.5H6.5C7.05228 6.5 7.5 6.94772 7.5 7.5H11.5V4.5C11.5 4.22386 11.7239 4 12 4ZM5.5 8.5C4.94772 8.5 4.5 8.94772 4.5 9.5V18C4.5 18.5523 4.94772 19 5.5 19H6.63849C6.91345 19 7.17628 18.8868 7.36517 18.687L9.01762 16.9391C9.58429 16.3396 10.3728 16 11.1976 16H12.8024C13.6272 16 14.4157 16.3396 14.9824 16.9391L16.6348 18.687C16.8237 18.8868 17.0866 19 17.3615 19H18.5C19.0523 19 19.5 18.5523 19.5 18V9.5C19.5 8.94771 19.0523 8.5 18.5 8.5H5.5Z" fill="#171D26"/>
</svg>
