<svg width="24" height="24" viewBox="0 0 24 24" fill="none" xmlns="http://www.w3.org/2000/svg">
<path fill-rule="evenodd" clip-rule="evenodd" d="M12.25 19.4999C15.3917 19.4999 18 16.8482 18 13.4999C18 11.9119 17.2269 10.2024 16.1226 8.59843C15.0318 7.01421 13.699 5.64903 12.7579 4.77241C12.4626 4.49741 12.0374 4.49741 11.7421 4.77241C10.801 5.64903 9.46816 7.01421 8.37743 8.59843C7.27308 10.2024 6.5 11.9119 6.5 13.4999C6.5 16.8482 9.10833 19.4999 12.25 19.4999ZM12.25 20.5C15.9779 20.5 19 17.3659 19 13.4999C19 9.72479 15.3768 5.84525 13.4394 4.04068C12.7602 3.40799 11.7398 3.40799 11.0606 4.04068C9.1232 5.84525 5.5 9.72479 5.5 13.4999C5.5 17.3659 8.52208 20.5 12.25 20.5Z" fill="#171D26"/>
<path d="M12.0478 17.0873V8.29713H12.6109V17.0873H12.0478ZM13.5414 11.1986C13.514 10.9216 13.3961 10.7064 13.1878 10.553C12.9795 10.3997 12.6968 10.323 12.3397 10.323C12.097 10.323 11.8921 10.3573 11.725 10.426C11.5579 10.4924 11.4297 10.5851 11.3405 10.7041C11.2535 10.8231 11.21 10.9582 11.21 11.1093C11.2054 11.2352 11.2317 11.3451 11.289 11.4389C11.3485 11.5328 11.4297 11.614 11.5327 11.6827C11.6358 11.7491 11.7548 11.8075 11.8898 11.8578C12.0249 11.9059 12.1691 11.9471 12.3225 11.9814L12.9543 12.1325C13.261 12.2012 13.5426 12.2927 13.799 12.4072C14.0553 12.5217 14.2774 12.6624 14.4651 12.8295C14.6528 12.9966 14.7981 13.1935 14.9011 13.4201C15.0064 13.6467 15.0602 13.9066 15.0625 14.1996C15.0602 14.6299 14.9504 15.003 14.7329 15.3189C14.5177 15.6325 14.2064 15.8763 13.799 16.0503C13.3938 16.222 12.9051 16.3078 12.3328 16.3078C11.7651 16.3078 11.2706 16.2208 10.8495 16.0469C10.4305 15.8729 10.1032 15.6154 9.86743 15.2743C9.63394 14.9309 9.51148 14.5063 9.50003 14.0004H10.9387C10.9548 14.2362 11.0223 14.433 11.1413 14.591C11.2626 14.7467 11.424 14.8645 11.6255 14.9447C11.8292 15.0225 12.0592 15.0614 12.3156 15.0614C12.5674 15.0614 12.786 15.0248 12.9714 14.9515C13.1591 14.8783 13.3045 14.7764 13.4075 14.6459C13.5105 14.5155 13.562 14.3655 13.562 14.1961C13.562 14.0382 13.5151 13.9054 13.4212 13.7978C13.3297 13.6902 13.1946 13.5987 13.0161 13.5231C12.8398 13.4476 12.6235 13.3789 12.3671 13.3171L11.6014 13.1248C11.0085 12.9806 10.5404 12.7551 10.1971 12.4484C9.8537 12.1417 9.68316 11.7285 9.68545 11.2089C9.68316 10.7831 9.79647 10.4111 10.0254 10.0929C10.2566 9.77474 10.5736 9.52637 10.9765 9.34782C11.3794 9.16928 11.8372 9.08 12.35 9.08C12.8719 9.08 13.3274 9.16928 13.7165 9.34782C14.108 9.52637 14.4124 9.77474 14.6299 10.0929C14.8474 10.4111 14.9595 10.7797 14.9664 11.1986H13.5414Z" fill="#171D26"/>
</svg>
