<svg width="24" height="24" viewBox="0 0 24 24" fill="none" xmlns="http://www.w3.org/2000/svg">
<g clip-path="url(#clip0_7617_797)">
<path d="M12 21C10.6076 21 9.27225 20.4469 8.28769 19.4623C7.30312 18.4777 6.75 17.1424 6.75 15.75C6.75 14.3576 7.30312 13.0223 8.28769 12.0377C9.27225 11.0531 10.6076 10.5 12 10.5C13.3924 10.5 14.7277 11.0531 15.7123 12.0377C16.6969 13.0223 17.25 14.3576 17.25 15.75C17.25 17.1424 16.6969 18.4777 15.7123 19.4623C14.7277 20.4469 13.3924 21 12 21ZM12 3L3 10.125L6.6285 13.08C7.12535 12.0801 7.89132 11.2387 8.84027 10.6504C9.78922 10.0622 10.8835 9.75031 12 9.75C13.1165 9.75031 14.2108 10.0622 15.1597 10.6504C16.1087 11.2387 16.8747 12.0801 17.3715 13.08L21 10.125L12 3Z" fill="#171D26"/>
</g>
<defs>
<clipPath id="clip0_7617_797">
<rect width="18" height="18" fill="white" transform="translate(3 3)"/>
</clipPath>
</defs>
</svg>
