<svg width="24" height="24" viewBox="0 0 24 24" fill="none" xmlns="http://www.w3.org/2000/svg">
<path fill-rule="evenodd" clip-rule="evenodd" d="M11.5 19H8.50012C8.22398 19 8.00012 19.2239 8.00012 19.5C8.00012 19.7761 8.22398 20 8.50012 20H15.5001C15.7763 20 16.0001 19.7761 16.0001 19.5C16.0001 19.2239 15.7763 19 15.5001 19H12.5L12.5001 8.91462C12.9471 8.75659 13.2969 8.39268 13.4354 7.93683C14.5443 7.83987 15.6766 7.63173 16.8959 7.3152L15.6182 12H15.0001V13.5C15.0001 14.6046 15.8956 15.5 17.0001 15.5H18.0001C19.1047 15.5 20.0001 14.6046 20.0001 13.5V12H19.3993L18.2474 6.93199C18.7042 6.79247 19.1746 6.63949 19.6617 6.47317C19.923 6.38394 20.0625 6.09976 19.9733 5.83843C19.8841 5.5771 19.5999 5.43759 19.3386 5.52682C17.0411 6.31129 15.1673 6.77685 13.3907 6.93688C13.2301 6.54059 12.905 6.22853 12.5001 6.08539L12.5001 4.5C12.5001 4.22386 12.2763 4 12.0001 4C11.724 4 11.5001 4.22385 11.5001 4.5L11.5001 6.08532C11.0952 6.22841 10.77 6.54044 10.6093 6.93673C8.83334 6.77658 6.95938 6.31118 4.66167 5.52681C4.40033 5.4376 4.11616 5.57713 4.02695 5.83847C3.93774 6.0998 4.07727 6.38397 4.3386 6.47319C4.90741 6.66736 5.45359 6.84335 5.98162 7.00096L4.61825 12H4.00012V13.5C4.00012 14.6046 4.89555 15.5 6.00012 15.5H7.00012C8.10469 15.5 9.00012 14.6046 9.00012 13.5V12H8.39926L7.34863 7.37725C8.47557 7.65894 9.53037 7.84615 10.5646 7.93667C10.7031 8.39265 11.0529 8.75666 11.5001 8.91468L11.5 19ZM11.5887 7.78436C11.6789 7.91466 11.8295 8 12 8C12.0345 8 12.0682 7.9965 12.1008 7.98984C12.3286 7.94322 12.5 7.74162 12.5 7.5C12.5 7.22386 12.2761 7 12 7C11.7505 7 11.5437 7.18269 11.5061 7.42158C11.5021 7.44713 11.5 7.47332 11.5 7.5C11.5 7.60564 11.5328 7.70363 11.5887 7.78436ZM6.5924 8.56203L5.65477 12H7.37376L6.5924 8.56203ZM5.00012 13H8.00012V13.5C8.00012 14.0523 7.55241 14.5 7.00012 14.5H6.00012C5.44784 14.5 5.00012 14.0523 5.00012 13.5V13ZM16.0001 13H19.0001V13.5C19.0001 14.0523 18.5524 14.5 18.0001 14.5H17.0001C16.4478 14.5 16.0001 14.0523 16.0001 13.5V13ZM17.5924 8.56203L16.6548 12H18.3738L17.5924 8.56203Z" fill="#171D26"/>
</svg>
