<svg width="24" height="24" viewBox="0 0 24 24" fill="none" xmlns="http://www.w3.org/2000/svg">
<path d="M9.25012 8.5C9.25012 8.22386 9.47398 8 9.75012 8L16.2501 8C16.5263 8 16.7501 8.22386 16.7501 8.5C16.7501 8.77614 16.5263 9 16.2501 9L9.75012 9C9.47398 9 9.25012 8.77614 9.25012 8.5Z" fill="#171D26"/>
<path d="M9.75012 5.5C9.47398 5.5 9.25012 5.72386 9.25012 6C9.25012 6.27614 9.47398 6.5 9.75012 6.5L16.2501 6.5C16.5263 6.5 16.7501 6.27614 16.7501 6C16.7501 5.72386 16.5263 5.5 16.2501 5.5L9.75012 5.5Z" fill="#171D26"/>
<path fill-rule="evenodd" clip-rule="evenodd" d="M9.75012 13.7082C9.75012 13.6466 9.78151 13.4821 9.87131 13.2588C9.95672 13.0465 10.0732 12.8355 10.1961 12.6822C10.2797 12.5779 10.34 12.5323 10.3711 12.5129C10.3907 12.5326 10.42 12.5686 10.4581 12.6322C10.5162 12.7291 10.5677 12.8773 10.6162 13.0922C10.6489 13.2374 10.6745 13.3834 10.7024 13.5432C10.7165 13.6237 10.7313 13.7079 10.7478 13.7971C10.7939 14.0456 10.8527 14.3219 10.9497 14.5747C11.0469 14.8277 11.197 15.0969 11.451 15.2948C11.6268 15.4317 11.847 15.5216 12.0955 15.4956C12.3325 15.4707 12.515 15.3484 12.6425 15.2281C12.8833 15.0007 13.0623 14.6509 13.1962 14.3554C13.2768 14.1773 13.3636 13.9646 13.4418 13.7726C13.4814 13.6755 13.5188 13.5837 13.5521 13.5045C13.6002 13.6959 13.6679 13.9576 13.7714 14.1445C13.8283 14.2473 13.9554 14.4412 14.1998 14.5152C14.4792 14.5997 14.7124 14.4746 14.8484 14.3632C14.9721 14.2618 15.0873 14.1231 15.1696 14.0241L15.1792 14.0125C15.2751 13.8971 15.3489 13.8084 15.4218 13.7395C15.4363 13.7259 15.4489 13.7148 15.4597 13.7059C15.5023 13.7478 15.536 13.7927 15.5695 13.8448C15.5899 13.8766 15.6081 13.9075 15.6312 13.9468L15.6413 13.964C15.6669 14.0075 15.7005 14.0642 15.7396 14.1203C15.823 14.2401 15.9433 14.3755 16.1343 14.4714C16.3187 14.5641 16.5256 14.5984 16.7501 14.5984C17.0263 14.5984 17.2501 14.3745 17.2501 14.0984C17.2501 13.8222 17.0263 13.5984 16.7501 13.5984C16.6234 13.5984 16.5841 13.5782 16.5832 13.5777C16.5812 13.5759 16.574 13.5686 16.5602 13.5488C16.5453 13.5274 16.5289 13.5006 16.5031 13.4568L16.4941 13.4414C16.4718 13.4034 16.4428 13.3541 16.4108 13.3043C16.3336 13.1841 16.2288 13.0444 16.0696 12.9095C15.8462 12.7203 15.5755 12.635 15.292 12.6951C15.0459 12.7473 14.8585 12.8962 14.7356 13.0122C14.6574 13.086 14.5832 13.1683 14.518 13.2445L14.5038 13.1884L14.4979 13.1652C14.4479 12.9671 14.3729 12.6702 14.2437 12.4613C14.1741 12.3486 14.0332 12.1679 13.785 12.1087C13.5197 12.0454 13.2973 12.1575 13.1556 12.2679C13.0174 12.3755 12.921 12.5259 12.8565 12.6398C12.7856 12.7651 12.7192 12.9095 12.6578 13.0522C12.5999 13.1868 12.5487 13.3131 12.4984 13.4372C12.4304 13.6051 12.3641 13.7687 12.2853 13.9427C12.1757 14.1845 12.0816 14.3501 12.0058 14.4456C11.966 14.3959 11.9243 14.323 11.8833 14.2163C11.8211 14.0542 11.7754 13.854 11.731 13.6147C11.7186 13.5478 11.706 13.4757 11.6929 13.4011C11.6626 13.2281 11.6298 13.0411 11.5917 12.8722C11.5364 12.6269 11.457 12.3537 11.3159 12.1182C11.0891 11.7397 10.7399 11.453 10.2788 11.506C9.88959 11.5508 9.59871 11.8287 9.41592 12.0566C9.21715 12.3046 9.05567 12.6069 8.94356 12.8856C8.83583 13.1534 8.75012 13.4577 8.75012 13.7082C8.75012 13.9844 8.97398 14.2082 9.25012 14.2082C9.52626 14.2082 9.75012 13.9844 9.75012 13.7082ZM10.3421 12.4915C10.3421 12.4915 10.3461 12.4918 10.3536 12.4973C10.3458 12.4951 10.3421 12.4915 10.3421 12.4915Z" fill="#171D26"/>
<path fill-rule="evenodd" clip-rule="evenodd" d="M8.75012 3C7.64555 3 6.75012 3.89543 6.75012 5V16C6.75012 17.1046 7.64555 18 8.75012 18H17.2501C18.3547 18 19.2501 17.1046 19.2501 16V5C19.2501 3.89543 18.3547 3 17.2501 3H8.75012ZM17.2501 4H8.75012C8.19784 4 7.75012 4.44772 7.75012 5V16C7.75012 16.5523 8.19784 17 8.75012 17H17.2501C17.8024 17 18.2501 16.5523 18.2501 16V5C18.2501 4.44772 17.8024 4 17.2501 4Z" fill="#171D26"/>
<path d="M5.25 5.5C5.52614 5.5 5.75 5.72386 5.75 6V16.5C5.75 17.8807 6.86929 19 8.25 19H16.2501C16.5262 19 16.7501 19.2239 16.7501 19.5C16.7501 19.7761 16.5262 20 16.2501 20H8.25C6.317 20 4.75 18.433 4.75 16.5V6C4.75 5.72386 4.97386 5.5 5.25 5.5Z" fill="#171D26"/>
</svg>
