<svg width="24" height="24" viewBox="0 0 24 24" fill="none" xmlns="http://www.w3.org/2000/svg">
<path d="M19.2864 4.84655C19.4777 4.6475 19.4715 4.33098 19.2725 4.13958C19.0734 3.94819 18.7569 3.95439 18.5655 4.15345C16.399 6.40667 13.7343 8.31294 11.1707 9.65419C8.59365 11.0025 6.176 11.75 4.5 11.75C4.22386 11.75 4 11.9739 4 12.25C4 12.5261 4.22386 12.75 4.5 12.75C6.41197 12.75 8.99931 11.9188 11.6343 10.5403C14.2826 9.15466 17.037 7.18592 19.2864 4.84655Z" fill="#171D26"/>
<path fill-rule="evenodd" clip-rule="evenodd" d="M16.4815 8.51852C15.9292 8.51852 15.4815 8.96623 15.4815 9.51852V19C15.4815 19.5523 15.9292 20 16.4815 20H18.5C19.0523 20 19.5 19.5523 19.5 19V9.51852C19.5 8.96623 19.0523 8.51852 18.5 8.51852H16.4815ZM18.5 9.51852H16.4815V19H18.5V9.51852Z" fill="#171D26"/>
<path fill-rule="evenodd" clip-rule="evenodd" d="M9.74072 12.963C9.74072 12.4107 10.1884 11.963 10.7407 11.963H12.7592C13.3115 11.963 13.7592 12.4107 13.7592 12.963V19C13.7592 19.5523 13.3115 20 12.7592 20H10.7407C10.1884 20 9.74072 19.5523 9.74072 19V12.963ZM10.7407 12.963H12.7592V19H10.7407V12.963Z" fill="#171D26"/>
<path fill-rule="evenodd" clip-rule="evenodd" d="M4 15.2593C4 14.707 4.44772 14.2593 5 14.2593H7.01852C7.5708 14.2593 8.01852 14.707 8.01852 15.2593V19C8.01852 19.5523 7.5708 20 7.01852 20H5C4.44772 20 4 19.5523 4 19V15.2593ZM5 15.2593H7.01852V19L5 19V15.2593Z" fill="#171D26"/>
</svg>
