<svg width="24" height="24" viewBox="0 0 24 24" fill="none" xmlns="http://www.w3.org/2000/svg">
<path fill-rule="evenodd" clip-rule="evenodd" d="M15 16.5H9C8.44772 16.5 8 16.0523 8 15.5V10.7446L7.80699 10.8947C7.58902 11.0642 7.27488 11.0249 7.10535 10.807C6.93581 10.589 6.97508 10.2749 7.19305 10.1053L11.6931 6.60532C11.8736 6.46489 12.1264 6.46489 12.307 6.60532L16.807 10.1053C17.025 10.2749 17.0642 10.589 16.8947 10.807C16.7252 11.0249 16.411 11.0642 16.1931 10.8947L16 10.7445V15.5C16 16.0523 15.5523 16.5 15 16.5ZM9 15.5V10.5H15V15.5H14V14C14 12.8954 13.1046 12 12 12C10.8954 12 10 12.8954 10 14V15.5H9ZM14.3999 9.5L12 7.63343L9.60015 9.5H14.3999ZM13 14V15.5H11V14C11 13.4477 11.4477 13 12 13C12.5523 13 13 13.4477 13 14Z" fill="#171D26"/>
<path fill-rule="evenodd" clip-rule="evenodd" d="M20.5 12C20.5 16.6944 16.6944 20.5 12 20.5C7.30558 20.5 3.5 16.6944 3.5 12C3.5 7.30558 7.30558 3.5 12 3.5C16.6944 3.5 20.5 7.30558 20.5 12ZM19.5 12C19.5 16.1421 16.1421 19.5 12 19.5C7.85786 19.5 4.5 16.1421 4.5 12C4.5 7.85786 7.85786 4.5 12 4.5C16.1421 4.5 19.5 7.85786 19.5 12Z" fill="#171D26"/>
</svg>
