<svg width="24" height="24" viewBox="0 0 24 24" fill="none" xmlns="http://www.w3.org/2000/svg">
<path d="M14.5 15.6526C14.5 14.9623 15.0596 14.4026 15.75 14.4026C16.4404 14.4026 17 14.9623 17 15.6526C17 16.1652 16.6915 16.6057 16.25 16.7986V17.9443C16.25 18.2204 16.0261 18.4443 15.75 18.4443C15.4739 18.4443 15.25 18.2204 15.25 17.9443V16.7986C14.8085 16.6057 14.5 16.1652 14.5 15.6526Z" fill="#171D26"/>
<path fill-rule="evenodd" clip-rule="evenodd" d="M10.75 3.5C14.7541 3.5 18 4.39543 18 5.5V12.5H18.5C19.6046 12.5 20.5 13.3954 20.5 14.5V18.5C20.5 19.6046 19.6046 20.5 18.5 20.5H13C12.2577 20.5 11.6098 20.0956 11.2647 19.495C11.0947 19.4983 10.9231 19.5 10.75 19.5C6.74594 19.5 3.5 18.6046 3.5 17.5V5.5C3.5 4.39543 6.74594 3.5 10.75 3.5ZM17 6.51421V9.37889C16.6425 9.13957 16.2125 9 15.75 9C14.8359 9 14.0492 9.54505 13.697 10.3279C12.7966 10.4385 11.7993 10.5 10.75 10.5C8.08779 10.5 5.76073 10.1042 4.5 9.51421V6.51421C5.76073 7.10417 8.08779 7.5 10.75 7.5C13.4122 7.5 15.7393 7.10417 17 6.51421ZM10.75 11.5C11.7234 11.5 12.652 11.4471 13.5 11.3511V12.5H13C11.8958 12.5 11.0006 13.3948 11 14.4988C10.917 14.4996 10.8337 14.5 10.75 14.5C8.08779 14.5 5.76073 14.1042 4.5 13.5142V10.5142C5.76073 11.1042 8.08779 11.5 10.75 11.5ZM10.75 15.5C10.8337 15.5 10.917 15.4996 11 15.4988V18.4988C10.917 18.4996 10.8337 18.5 10.75 18.5C8.08765 18.5 5.76048 18.1041 4.4998 17.5141C4.49993 17.5094 4.5 17.5047 4.5 17.5V14.5142C5.76073 15.1042 8.08779 15.5 10.75 15.5ZM16.787 5.5C16.5344 5.35555 16.1452 5.19727 15.6106 5.04978C14.4075 4.71789 12.6887 4.5 10.75 4.5C8.81134 4.5 7.0925 4.71789 5.8894 5.04978C5.35476 5.19727 4.96558 5.35555 4.71304 5.5C4.96558 5.64445 5.35476 5.80273 5.8894 5.95022C7.0925 6.28211 8.81134 6.5 10.75 6.5C12.6887 6.5 14.4075 6.28211 15.6106 5.95022C16.1452 5.80273 16.5344 5.64445 16.787 5.5ZM17 11.25V12.5H14.5V11.25C14.5 10.5596 15.0596 10 15.75 10C16.4404 10 17 10.5596 17 11.25ZM13 13.5C12.4477 13.5 12 13.9477 12 14.5V18.5C12 19.0523 12.4477 19.5 13 19.5H18.5C19.0523 19.5 19.5 19.0523 19.5 18.5V14.5C19.5 13.9477 19.0523 13.5 18.5 13.5H13Z" fill="#171D26"/>
</svg>
