<svg width="24" height="24" viewBox="0 0 24 24" fill="none" xmlns="http://www.w3.org/2000/svg">
<path d="M17.2021 7.10051L16.7556 6.87537L17.2021 7.10051C17.2574 6.99077 17.3872 6.95562 17.4859 7.01351L18.3678 7.53081C18.8286 7.80112 19.0757 8.33742 18.9793 8.87329L17.8537 15.1332C17.7033 15.9693 17.2175 16.7035 16.514 17.1626L12.3033 19.9102C12.1216 20.0287 11.8893 20.03 11.7064 19.9135L7.40899 17.1761C6.67642 16.7095 6.17471 15.947 6.03301 15.0799L5.01713 8.86354C4.93054 8.3337 5.1778 7.80804 5.63219 7.54152L6.61481 6.96515C6.7135 6.90727 6.84328 6.94242 6.89862 7.05215L7.03247 7.31757C7.35352 7.95424 8.15235 8.17878 8.75579 7.79192L9.65474 7.2156C10.0313 6.97418 10.2428 6.54464 10.2093 6.10012L10.1297 5.04511C10.1233 4.9604 10.1657 4.88236 10.2337 4.84248L11.3764 4.17224C11.7679 3.94259 12.2504 3.94259 12.6419 4.17224L13.8868 4.90248C13.9548 4.94236 13.9972 5.0204 13.9908 5.10512L13.9158 6.10013C13.8822 6.54465 14.0937 6.97418 14.4703 7.21561L15.3693 7.79193C15.9727 8.17879 16.7715 7.95425 17.0926 7.31758L17.2021 7.10051ZM13.2828 13.4039C13.8801 12.9949 14.2715 12.3044 14.2715 11.5231C14.2715 10.2735 13.268 9.25118 12.0187 9.25118C10.7694 9.25118 9.7659 10.2735 9.7659 11.5231C9.7659 12.2645 10.1185 12.9242 10.6648 13.3391V15.1124C10.6648 15.8351 11.2457 16.4302 11.9738 16.4302C12.7018 16.4302 13.2828 15.8351 13.2828 15.1124V13.4039Z" stroke="#171D26"/>
</svg>
