<svg width="24" height="24" viewBox="0 0 24 24" fill="none" xmlns="http://www.w3.org/2000/svg">
<path fill-rule="evenodd" clip-rule="evenodd" d="M3.52519 10.1567C3.53843 10.1969 3.55683 10.2355 3.58023 10.2717C3.5949 10.2943 3.61128 10.3156 3.62916 10.3354L11.6263 19.3322C11.7212 19.4389 11.8572 19.5 12 19.5C12.1428 19.5 12.2788 19.4389 12.3737 19.3322L20.371 10.3352C20.3792 10.3262 20.3871 10.3168 20.3946 10.3071C20.4078 10.2902 20.4199 10.2723 20.4309 10.2536C20.4495 10.2221 20.4644 10.1889 20.4755 10.1547C20.4922 10.1034 20.5003 10.0504 20.5 9.99778C20.4996 9.9139 20.4781 9.8308 20.4368 9.75663C20.4251 9.73569 20.4119 9.71546 20.3971 9.69613C20.3888 9.68534 20.3802 9.67492 20.3711 9.66491L16.3737 5.16782C16.2788 5.06107 16.1428 5 16 5H8.00001C7.85719 5 7.72119 5.06107 7.6263 5.16782L3.62917 9.6646C3.61128 9.68437 3.5949 9.70566 3.58023 9.72834C3.55683 9.76448 3.53843 9.80314 3.52519 9.8433C3.49202 9.94386 3.49119 10.0538 3.52519 10.1567ZM5.11343 9.5L7.70576 9.5L9.65021 6H8.22454L5.11343 9.5ZM10.7942 6L8.84972 9.5L15.1502 9.5L13.2058 6H10.7942ZM14.3497 6L16.2942 9.5L18.8866 9.5L15.7755 6H14.3497ZM7.67503 10.5L5.11343 10.5L10.2366 16.2636L7.67503 10.5ZM8.76934 10.5L15.2306 10.5L12 17.7689L8.76934 10.5ZM16.3249 10.5L13.7632 16.2638L18.8866 10.5L16.3249 10.5Z" fill="#171D26"/>
</svg>
