<svg width="24" height="24" viewBox="0 0 24 24" fill="none" xmlns="http://www.w3.org/2000/svg">
<path d="M13.2003 15.6C13.2003 16.2627 12.663 16.8 12.0003 16.8C11.3376 16.8 10.8003 16.2627 10.8003 15.6L10.8003 12C10.8003 11.3373 11.3376 10.8 12.0003 10.8C12.663 10.8 13.2003 11.3373 13.2003 12V15.6Z" fill="#171D26"/>
<path d="M10.8003 7.8001C10.8003 7.13736 11.3376 6.6001 12.0003 6.6001C12.663 6.6001 13.2003 7.13736 13.2003 7.8001C13.2003 8.46284 12.663 9.0001 12.0003 9.0001C11.3376 9.0001 10.8003 8.46284 10.8003 7.8001Z" fill="#171D26"/>
<path fill-rule="evenodd" clip-rule="evenodd" d="M12 23C18.0751 23 23 18.0751 23 12C23 5.92487 18.0751 1 12 1C5.92487 1 1 5.92487 1 12C1 18.0751 5.92487 23 12 23ZM12 21C16.9706 21 21 16.9706 21 12C21 7.02944 16.9706 3 12 3C7.02944 3 3 7.02944 3 12C3 16.9706 7.02944 21 12 21Z" fill="#171D26"/>
</svg>
