<svg width="24" height="24" viewBox="0 0 24 24" fill="none" xmlns="http://www.w3.org/2000/svg">
<path fill-rule="evenodd" clip-rule="evenodd" d="M15.3333 12C15.3333 13.8409 13.8409 15.3333 12 15.3333C10.159 15.3333 8.66666 13.8409 8.66666 12C8.66666 10.159 10.159 8.66666 12 8.66666C13.8409 8.66666 15.3333 10.159 15.3333 12ZM14.3333 12C14.3333 13.2887 13.2887 14.3333 12 14.3333C10.7113 14.3333 9.66666 13.2887 9.66666 12C9.66666 10.7113 10.7113 9.66666 12 9.66666C13.2887 9.66666 14.3333 10.7113 14.3333 12Z" fill="#171D26"/>
<path fill-rule="evenodd" clip-rule="evenodd" d="M14 5V5.63854C14.3767 5.75687 14.7391 5.90774 15.0837 6.08786L15.5355 5.63604C15.9261 5.24551 16.5592 5.24551 16.9497 5.63604L18.364 7.05025C18.7545 7.44077 18.7545 8.07394 18.364 8.46446L17.9121 8.91629C18.0923 9.26092 18.2431 9.62325 18.3615 10H19C19.5523 10 20 10.4477 20 11V13C20 13.5523 19.5523 14 19 14H18.3615C18.2431 14.3767 18.0923 14.7391 17.9121 15.0837L18.364 15.5355C18.7545 15.9261 18.7545 16.5592 18.364 16.9498L16.9497 18.364C16.5592 18.7545 15.9261 18.7545 15.5355 18.364L15.0837 17.9121C14.7391 18.0923 14.3767 18.2431 14 18.3615V19C14 19.5523 13.5523 20 13 20H11C10.4477 20 9.99999 19.5523 9.99999 19V18.3615C9.62324 18.2431 9.26091 18.0923 8.91628 17.9121L8.46446 18.364C8.07394 18.7545 7.44077 18.7545 7.05025 18.364L5.63603 16.9497C5.24551 16.5592 5.24551 15.9261 5.63603 15.5355L6.08785 15.0837C5.90773 14.7391 5.75685 14.3767 5.63852 14H5C4.44772 14 4 13.5523 4 13V11C4 10.4477 4.44772 10 5 10H5.63852C5.75685 9.62325 5.90773 9.26092 6.08785 8.91629L5.63603 8.46447C5.24551 8.07395 5.24551 7.44078 5.63603 7.05026L7.05024 5.63604C7.44077 5.24552 8.07393 5.24552 8.46446 5.63604L8.91628 6.08786C9.26091 5.90774 9.62324 5.75686 9.99999 5.63853V5C9.99999 4.44772 10.4477 4 11 4H13C13.5523 4 14 4.44772 14 5ZM13 5V6.37262L13.7003 6.59258C14.0201 6.69301 14.3277 6.8211 14.6205 6.97411L15.2714 7.31434L16.2426 6.34314L17.6569 7.75736L16.6857 8.72855L17.0259 9.3795C17.1789 9.67226 17.307 9.9799 17.4074 10.2996L17.6274 11H19V13H17.6274L17.4074 13.7004C17.307 14.0201 17.1789 14.3277 17.0259 14.6205L16.6857 15.2715L17.6568 16.2426L16.2426 17.6569L15.2714 16.6857L14.6205 17.0259C14.3277 17.1789 14.0201 17.307 13.7003 17.4074L13 17.6274V19H11V17.6274L10.2996 17.4074C9.97989 17.307 9.67225 17.1789 9.37949 17.0259L8.72854 16.6857L7.75735 17.6569L6.34314 16.2426L7.31433 15.2715L6.9741 14.6205C6.82109 14.3277 6.693 14.0201 6.59257 13.7004L6.37261 13H5V11H6.37261L6.59257 10.2996C6.693 9.9799 6.82109 9.67226 6.9741 9.3795L7.31432 8.72855L6.34314 7.75736L7.75735 6.34315L8.72854 7.31434L9.37948 6.97411C9.67225 6.8211 9.97989 6.69301 10.2996 6.59258L11 6.37262V5L13 5Z" fill="#171D26"/>
</svg>
