<svg width="24" height="24" viewBox="0 0 24 24" fill="none" xmlns="http://www.w3.org/2000/svg">
<path fill-rule="evenodd" clip-rule="evenodd" d="M18 5C19.1046 5 20 5.89543 20 7C20 8.10457 19.1046 9 18 9H6C5.86193 9 5.72713 8.98601 5.59693 8.95937C4.68556 8.77287 4 7.9665 4 7C4 5.89543 4.89543 5 6 5H18ZM10.7324 6H18C18.5523 6 19 6.44772 19 7C19 7.55228 18.5523 8 18 8H10.7324C10.9026 7.70583 11 7.36429 11 7C11 6.63571 10.9026 6.29417 10.7324 6ZM7 6.99988C7 6.58566 6.66421 6.24988 6.25 6.24988C5.83579 6.24988 5.5 6.58566 5.5 6.99988C5.5 7.41409 5.83579 7.74988 6.25 7.74988C6.66421 7.74988 7 7.41409 7 6.99988ZM8.75 6.24988C9.16421 6.24988 9.5 6.58566 9.5 6.99988C9.5 7.41409 9.16421 7.74988 8.75 7.74988C8.33579 7.74988 8 7.41409 8 6.99988C8 6.58566 8.33579 6.24988 8.75 6.24988Z" fill="#171D26"/>
<path fill-rule="evenodd" clip-rule="evenodd" d="M6 14C4.89543 14 4 13.1046 4 12C4 10.8954 4.89543 10 6 10H18C19.1046 10 20 10.8954 20 12C20 13.1046 19.1046 14 18 14H6ZM10.7324 11H18C18.5523 11 19 11.4477 19 12C19 12.5523 18.5523 13 18 13H10.7324C10.9026 12.7058 11 12.3643 11 12C11 11.6357 10.9026 11.2942 10.7324 11ZM7 11.9999C7 11.5857 6.66421 11.2499 6.25 11.2499C5.83579 11.2499 5.5 11.5857 5.5 11.9999C5.5 12.4141 5.83579 12.7499 6.25 12.7499C6.66421 12.7499 7 12.4141 7 11.9999ZM8.75 11.2499C9.16421 11.2499 9.5 11.5857 9.5 11.9999C9.5 12.4141 9.16421 12.7499 8.75 12.7499C8.33579 12.7499 8 12.4141 8 11.9999C8 11.5857 8.33579 11.2499 8.75 11.2499Z" fill="#171D26"/>
<path fill-rule="evenodd" clip-rule="evenodd" d="M6 19C4.89543 19 4 18.1046 4 17C4 15.8954 4.89543 15 6 15H18C19.1046 15 20 15.8954 20 17C20 18.1046 19.1046 19 18 19H6ZM10.7324 16H18C18.5523 16 19 16.4477 19 17C19 17.5523 18.5523 18 18 18H10.7324C10.9026 17.7058 11 17.3643 11 17C11 16.6357 10.9026 16.2942 10.7324 16ZM7 16.9999C7 16.5857 6.66421 16.2499 6.25 16.2499C5.83579 16.2499 5.5 16.5857 5.5 16.9999C5.5 17.4141 5.83579 17.7499 6.25 17.7499C6.66421 17.7499 7 17.4141 7 16.9999ZM8.75 16.2499C9.16421 16.2499 9.5 16.5857 9.5 16.9999C9.5 17.4141 9.16421 17.7499 8.75 17.7499C8.33579 17.7499 8 17.4141 8 16.9999C8 16.5857 8.33579 16.2499 8.75 16.2499Z" fill="#171D26"/>
</svg>
