<svg width="24" height="24" viewBox="0 0 24 24" fill="none" xmlns="http://www.w3.org/2000/svg">
<path fill-rule="evenodd" clip-rule="evenodd" d="M10.5 3.90135C10.0587 3.64609 9.54643 3.5 9 3.5C7.34315 3.5 6 4.84315 6 6.5C6 8.15685 7.34315 9.5 9 9.5C9.54643 9.5 10.0587 9.35391 10.5 9.09865C10.9413 9.35391 11.4536 9.5 12 9.5C12.5464 9.5 13.0587 9.35391 13.5 9.09865C13.9413 9.35391 14.4536 9.5 15 9.5C16.6569 9.5 18 8.15685 18 6.5C18 4.84315 16.6569 3.5 15 3.5C14.4536 3.5 13.9413 3.64609 13.5 3.90135C13.0587 3.64609 12.5464 3.5 12 3.5C11.4536 3.5 10.9413 3.64609 10.5 3.90135ZM9 8.5C9.23386 8.5 9.45834 8.45986 9.66693 8.3861C9.24984 7.87081 9 7.21458 9 6.5C9 5.78542 9.24984 5.12919 9.66693 4.6139C9.45834 4.54014 9.23386 4.5 9 4.5C7.89543 4.5 7 5.39543 7 6.5C7 7.60457 7.89543 8.5 9 8.5ZM12.6669 4.6139C12.4583 4.54014 12.2339 4.5 12 4.5C10.8954 4.5 10 5.39543 10 6.5C10 7.60457 10.8954 8.5 12 8.5C12.2339 8.5 12.4583 8.45986 12.6669 8.3861C12.2498 7.87081 12 7.21458 12 6.5C12 5.78542 12.2498 5.12919 12.6669 4.6139ZM15 8.5C16.1046 8.5 17 7.60457 17 6.5C17 5.39543 16.1046 4.5 15 4.5C13.8954 4.5 13 5.39543 13 6.5C13 7.60457 13.8954 8.5 15 8.5Z" fill="#171D26"/>
<path d="M16.25 15.5C15.8358 15.5 15.5 15.8358 15.5 16.25C15.5 16.6642 15.8358 17 16.25 17C16.6642 17 17 16.6642 17 16.25C17 15.8358 16.6642 15.5 16.25 15.5Z" fill="#171D26"/>
<path fill-rule="evenodd" clip-rule="evenodd" d="M5 12.5V18C5 19.1046 5.89543 20 7 20H17C18.1046 20 19 19.1046 19 18V12.5C19 11.3954 18.1046 10.5 17 10.5H7C5.89543 10.5 5 11.3954 5 12.5ZM17 11.5C17.5523 11.5 18 11.9477 18 12.5H6C6 11.9477 6.44772 11.5 7 11.5H17ZM6 18V13.5L18 13.5V18C18 18.5523 17.5523 19 17 19H7C6.44772 19 6 18.5523 6 18Z" fill="#171D26"/>
</svg>
