<svg width="24" height="24" viewBox="0 0 24 24" fill="none" xmlns="http://www.w3.org/2000/svg">
<path fill-rule="evenodd" clip-rule="evenodd" d="M6.5 4.5C5.39543 4.5 4.5 5.39543 4.5 6.5V8.5C4.5 9.00722 4.68882 9.47035 5 9.82291V17.5C5 18.6046 5.89543 19.5 7 19.5H17C18.1046 19.5 19 18.6046 19 17.5V9.82291C19.3112 9.47035 19.5 9.00722 19.5 8.5V6.5C19.5 5.39543 18.6046 4.5 17.5 4.5H6.5ZM6.5 5.5H8V8.5C8 9.05228 7.55228 9.5 7 9.5H6.5C5.94772 9.5 5.5 9.05228 5.5 8.5V6.5C5.5 5.94772 5.94772 5.5 6.5 5.5ZM9 5.5V8.5C9 9.05228 9.44772 9.5 10 9.5H10.5C11.0523 9.5 11.5 9.05228 11.5 8.5V5.5H9ZM12.5 5.5V8.5C12.5 9.05228 12.9477 9.5 13.5 9.5H14C14.5523 9.5 15 9.05228 15 8.5V5.5H12.5ZM18 10.437C17.8402 10.4781 17.6726 10.5 17.5 10.5H17C16.4027 10.5 15.8665 10.2381 15.5 9.82291C15.1335 10.2381 14.5973 10.5 14 10.5H13.5C12.9027 10.5 12.3665 10.2381 12 9.82291C11.6335 10.2381 11.0973 10.5 10.5 10.5H10C9.40265 10.5 8.86647 10.2381 8.5 9.82291C8.13353 10.2381 7.59735 10.5 7 10.5H6.5C6.32735 10.5 6.15981 10.4781 6 10.437V17.5C6 18.0523 6.44772 18.5 7 18.5H9.5V14.5C9.5 13.3954 10.3954 12.5 11.5 12.5H12.5C13.6046 12.5 14.5 13.3954 14.5 14.5V18.5H17C17.5523 18.5 18 18.0523 18 17.5V10.437ZM13.5 18.5V14.5C13.5 13.9477 13.0523 13.5 12.5 13.5H11.5C10.9477 13.5 10.5 13.9477 10.5 14.5V18.5H13.5ZM16 8.5V5.5H17.5C18.0523 5.5 18.5 5.94772 18.5 6.5V8.5C18.5 9.05228 18.0523 9.5 17.5 9.5H17C16.4477 9.5 16 9.05228 16 8.5Z" fill="#171D26"/>
</svg>
