<svg width="24" height="24" viewBox="0 0 24 24" fill="none" xmlns="http://www.w3.org/2000/svg">
<path d="M6.75006 7C7.16427 7 7.50006 6.66421 7.50006 6.25C7.50006 5.83579 7.16427 5.5 6.75006 5.5C6.33585 5.5 6.00006 5.83579 6.00006 6.25C6.00006 6.66421 6.33585 7 6.75006 7Z" fill="#171D26"/>
<path d="M10.0001 6.25C10.0001 6.66421 9.66427 7 9.25006 7C8.83585 7 8.50006 6.66421 8.50006 6.25C8.50006 5.83579 8.83585 5.5 9.25006 5.5C9.66427 5.5 10.0001 5.83579 10.0001 6.25Z" fill="#171D26"/>
<path fill-rule="evenodd" clip-rule="evenodd" d="M14.1388 12.8193C14.1388 13.4637 13.9226 14.0575 13.5589 14.5323L15.8536 16.827C16.0489 17.0223 16.0489 17.3389 15.8536 17.5341C15.6584 17.7294 15.3418 17.7294 15.1465 17.5341L12.8194 15.207C12.385 15.4805 11.8707 15.6387 11.3194 15.6387C9.76233 15.6387 8.50006 14.3764 8.50006 12.8193C8.50006 11.2623 9.76233 10 11.3194 10C12.8765 10 14.1388 11.2623 14.1388 12.8193ZM13.1388 12.8193C13.1388 13.8241 12.3242 14.6387 11.3194 14.6387C10.3146 14.6387 9.50006 13.8241 9.50006 12.8193C9.50006 11.8146 10.3146 11 11.3194 11C12.3242 11 13.1388 11.8146 13.1388 12.8193Z" fill="#171D26"/>
<path fill-rule="evenodd" clip-rule="evenodd" d="M4 6C4 4.89543 4.89543 4 6 4H18C19.1046 4 20 4.89543 20 6V18C20 19.1046 19.1046 20 18 20H6C4.89543 20 4 19.1046 4 18V6ZM6 5H18C18.5523 5 19 5.44772 19 6V7.5H5V6C5 5.44772 5.44772 5 6 5ZM5 8.5V18C5 18.5523 5.44772 19 6 19H18C18.5523 19 19 18.5523 19 18V8.5H5Z" fill="#171D26"/>
</svg>
