<svg width="24" height="24" viewBox="0 0 24 24" fill="none" xmlns="http://www.w3.org/2000/svg">
<path d="M15.6425 5.91863C16.1737 5.91863 16.6043 5.48913 16.6043 4.95932C16.6043 4.4295 16.1737 4 15.6425 4C15.1114 4 14.6807 4.4295 14.6807 4.95932C14.6807 5.48913 15.1114 5.91863 15.6425 5.91863Z" fill="#171D26"/>
<path d="M16.7246 19.4693C17.2557 19.4693 17.6863 19.0398 17.6863 18.5099C17.6863 17.9801 17.2557 17.5506 16.7246 17.5506C16.1934 17.5506 15.7628 17.9801 15.7628 18.5099C15.7628 19.0398 16.1934 19.4693 16.7246 19.4693Z" fill="#171D26"/>
<path d="M15.9174 8.31708C16.3632 8.31708 16.7246 7.95661 16.7246 7.51194C16.7246 7.06728 16.3632 6.7068 15.9174 6.7068C15.4716 6.7068 15.1102 7.06728 15.1102 7.51194C15.1102 7.95661 15.4716 8.31708 15.9174 8.31708Z" fill="#171D26"/>
<path d="M18.0645 8.62528C18.5103 8.62528 18.8717 8.2648 18.8717 7.82014C18.8717 7.37547 18.5103 7.015 18.0645 7.015C17.6186 7.015 17.2572 7.37547 17.2572 7.82014C17.2572 8.2648 17.6186 8.62528 18.0645 8.62528Z" fill="#171D26"/>
<path d="M15.6427 10.3555C16.0221 10.3555 16.3297 10.0487 16.3297 9.67029C16.3297 9.29185 16.0221 8.98506 15.6427 8.98506C15.2633 8.98506 14.9557 9.29185 14.9557 9.67029C14.9557 10.0487 15.2633 10.3555 15.6427 10.3555Z" fill="#171D26"/>
<path d="M17.7894 10.647C18.1688 10.647 18.4764 10.3402 18.4764 9.96175C18.4764 9.58331 18.1688 9.27652 17.7894 9.27652C17.4099 9.27652 17.1024 9.58331 17.1024 9.96175C17.1024 10.3402 17.4099 10.647 17.7894 10.647Z" fill="#171D26"/>
<path d="M19.5069 11.3149C19.8863 11.3149 20.1939 11.0081 20.1939 10.6297C20.1939 10.2513 19.8863 9.94447 19.5069 9.94447C19.1275 9.94447 18.8199 10.2513 18.8199 10.6297C18.8199 11.0081 19.1275 11.3149 19.5069 11.3149Z" fill="#171D26"/>
<path d="M17.1539 12.2914C17.4859 12.2914 17.755 12.0229 17.755 11.6918C17.755 11.3607 17.4859 11.0922 17.1539 11.0922C16.8219 11.0922 16.5528 11.3607 16.5528 11.6918C16.5528 12.0229 16.8219 12.2914 17.1539 12.2914Z" fill="#171D26"/>
<path d="M15.0072 12C15.3392 12 15.6083 11.7316 15.6083 11.4005C15.6083 11.0693 15.3392 10.8009 15.0072 10.8009C14.6752 10.8009 14.4061 11.0693 14.4061 11.4005C14.4061 11.7316 14.6752 12 15.0072 12Z" fill="#171D26"/>
<path d="M18.8886 12.9593C19.2206 12.9593 19.4897 12.6909 19.4897 12.3597C19.4897 12.0286 19.2206 11.7602 18.8886 11.7602C18.5566 11.7602 18.2875 12.0286 18.2875 12.3597C18.2875 12.6909 18.5566 12.9593 18.8886 12.9593Z" fill="#171D26"/>
<path d="M16.2954 13.5417C16.5799 13.5417 16.8106 13.3116 16.8106 13.0278C16.8106 12.744 16.5799 12.5139 16.2954 12.5139C16.0108 12.5139 15.7801 12.744 15.7801 13.0278C15.7801 13.3116 16.0108 13.5417 16.2954 13.5417Z" fill="#171D26"/>
<path d="M18.03 14.1927C18.3146 14.1927 18.5453 13.9627 18.5453 13.6788C18.5453 13.395 18.3146 13.1649 18.03 13.1649C17.7455 13.1649 17.5148 13.395 17.5148 13.6788C17.5148 13.9627 17.7455 14.1927 18.03 14.1927Z" fill="#171D26"/>
<path d="M14.1655 13.2333C14.4501 13.2333 14.6808 13.0032 14.6808 12.7194C14.6808 12.4355 14.4501 12.2054 14.1655 12.2054C13.881 12.2054 13.6503 12.4355 13.6503 12.7194C13.6503 13.0032 13.881 13.2333 14.1655 13.2333Z" fill="#171D26"/>
<path d="M15.3506 14.3813C15.5877 14.3813 15.78 14.1896 15.78 13.9531C15.78 13.7165 15.5877 13.5248 15.3506 13.5248C15.1135 13.5248 14.9212 13.7165 14.9212 13.9531C14.9212 14.1896 15.1135 14.3813 15.3506 14.3813Z" fill="#171D26"/>
<path d="M16.0891 15.5633C16.2978 15.5633 16.467 15.3946 16.467 15.1864C16.467 14.9783 16.2978 14.8096 16.0891 14.8096C15.8804 14.8096 15.7113 14.9783 15.7113 15.1864C15.7113 15.3946 15.8804 15.5633 16.0891 15.5633Z" fill="#171D26"/>
<path d="M15.1788 15.8032C15.3496 15.8032 15.488 15.6652 15.488 15.4949C15.488 15.3246 15.3496 15.1865 15.1788 15.1865C15.0081 15.1865 14.8697 15.3246 14.8697 15.4949C14.8697 15.6652 15.0081 15.8032 15.1788 15.8032Z" fill="#171D26"/>
<path d="M14.3716 14.9123C14.5803 14.9123 14.7494 14.7436 14.7494 14.5355C14.7494 14.3273 14.5803 14.1586 14.3716 14.1586C14.1629 14.1586 13.9938 14.3273 13.9938 14.5355C13.9938 14.7436 14.1629 14.9123 14.3716 14.9123Z" fill="#171D26"/>
<path d="M13.2039 14.0901C13.441 14.0901 13.6333 13.8984 13.6333 13.6618C13.6333 13.4253 13.441 13.2336 13.2039 13.2336C12.9668 13.2336 12.7745 13.4253 12.7745 13.6618C12.7745 13.8984 12.9668 14.0901 13.2039 14.0901Z" fill="#171D26"/>
<path d="M13.1865 10.8692C13.4237 10.8692 13.6159 10.6774 13.6159 10.4409C13.6159 10.2044 13.4237 10.0126 13.1865 10.0126C12.9494 10.0126 12.7572 10.2044 12.7572 10.4409C12.7572 10.6774 12.9494 10.8692 13.1865 10.8692Z" fill="#171D26"/>
<path d="M13.3755 9.36189C13.5842 9.36189 13.7533 9.19316 13.7533 8.98502C13.7533 8.77687 13.5842 8.60814 13.3755 8.60814C13.1668 8.60814 12.9976 8.77687 12.9976 8.98502C12.9976 9.19316 13.1668 9.36189 13.3755 9.36189Z" fill="#171D26"/>
<path d="M13.7877 8.12842C13.9585 8.12842 14.0969 7.99036 14.0969 7.82007C14.0969 7.64977 13.9585 7.51171 13.7877 7.51171C13.617 7.51171 13.4786 7.64977 13.4786 7.82007C13.4786 7.99036 13.617 8.12842 13.7877 8.12842Z" fill="#171D26"/>
<path d="M13.0664 7.5462C13.2751 7.5462 13.4442 7.37747 13.4442 7.16932C13.4442 6.96118 13.2751 6.79245 13.0664 6.79245C12.8577 6.79245 12.6885 6.96118 12.6885 7.16932C12.6885 7.37747 12.8577 7.5462 13.0664 7.5462Z" fill="#171D26"/>
<path d="M17.0681 15.032C17.3053 15.032 17.4975 14.8403 17.4975 14.6038C17.4975 14.3672 17.3053 14.1755 17.0681 14.1755C16.831 14.1755 16.6388 14.3672 16.6388 14.6038C16.6388 14.8403 16.831 15.032 17.0681 15.032Z" fill="#171D26"/>
<path d="M12.0874 7.04927C12.3245 7.04927 12.5168 6.85753 12.5168 6.621C12.5168 6.38448 12.3245 6.19274 12.0874 6.19274C11.8503 6.19274 11.658 6.38448 11.658 6.621C11.658 6.85753 11.8503 7.04927 12.0874 7.04927Z" fill="#171D26"/>
<path d="M12.3794 8.86527C12.6165 8.86527 12.8088 8.67353 12.8088 8.437C12.8088 8.20048 12.6165 8.00874 12.3794 8.00874C12.1423 8.00874 11.95 8.20048 11.95 8.437C11.95 8.67353 12.1423 8.86527 12.3794 8.86527Z" fill="#171D26"/>
<path d="M11.8986 10.5953C12.1832 10.5953 12.4139 10.3652 12.4139 10.0814C12.4139 9.79758 12.1832 9.56749 11.8986 9.56749C11.6141 9.56749 11.3834 9.79758 11.3834 10.0814C11.3834 10.3652 11.6141 10.5953 11.8986 10.5953Z" fill="#171D26"/>
<path d="M10.3355 10.5952C10.6675 10.5952 10.9366 10.3267 10.9366 9.99558C10.9366 9.66445 10.6675 9.39601 10.3355 9.39601C10.0035 9.39601 9.73436 9.66445 9.73436 9.99558C9.73436 10.3267 10.0035 10.5952 10.3355 10.5952Z" fill="#171D26"/>
<path d="M8.51517 11.0065C8.89458 11.0065 9.20216 10.6998 9.20216 10.3213C9.20216 9.94288 8.89458 9.63609 8.51517 9.63609C8.13575 9.63609 7.82817 9.94288 7.82817 10.3213C7.82817 10.6998 8.13575 11.0065 8.51517 11.0065Z" fill="#171D26"/>
<path d="M6.52282 11.983C6.96864 11.983 7.33004 11.6226 7.33004 11.1779C7.33004 10.7332 6.96864 10.3728 6.52282 10.3728C6.07701 10.3728 5.7156 10.7332 5.7156 11.1779C5.7156 11.6226 6.07701 11.983 6.52282 11.983Z" fill="#171D26"/>
<path d="M4.4618 13.6275C4.99298 13.6275 5.42359 13.198 5.42359 12.6682C5.42359 12.1384 4.99298 11.7088 4.4618 11.7088C3.93061 11.7088 3.5 12.1384 3.5 12.6682C3.5 13.198 3.93061 13.6275 4.4618 13.6275Z" fill="#171D26"/>
<path d="M5.71575 9.97865C6.16156 9.97865 6.52297 9.61817 6.52297 9.17351C6.52297 8.72884 6.16156 8.36837 5.71575 8.36837C5.26993 8.36837 4.90853 8.72884 4.90853 9.17351C4.90853 9.61817 5.26993 9.97865 5.71575 9.97865Z" fill="#171D26"/>
<path d="M7.70779 9.00208C8.0872 9.00208 8.39478 8.6953 8.39478 8.31686C8.39478 7.93842 8.0872 7.63163 7.70779 7.63163C7.32837 7.63163 7.02079 7.93842 7.02079 8.31686C7.02079 8.6953 7.32837 9.00208 7.70779 9.00208Z" fill="#171D26"/>
<path d="M7.41576 7.18627C7.79517 7.18627 8.10275 6.87948 8.10275 6.50104C8.10275 6.1226 7.79517 5.81582 7.41576 5.81582C7.03634 5.81582 6.72876 6.1226 6.72876 6.50104C6.72876 6.87948 7.03634 7.18627 7.41576 7.18627Z" fill="#171D26"/>
<path d="M9.23642 6.77512C9.56841 6.77512 9.83754 6.50669 9.83754 6.17555C9.83754 5.84442 9.56841 5.57598 9.23642 5.57598C8.90443 5.57598 8.6353 5.84442 8.6353 6.17555C8.6353 6.50669 8.90443 6.77512 9.23642 6.77512Z" fill="#171D26"/>
<path d="M10.7992 6.77517C11.0838 6.77517 11.3145 6.54508 11.3145 6.26125C11.3145 5.97742 11.0838 5.74733 10.7992 5.74733C10.5146 5.74733 10.284 5.97742 10.284 6.26125C10.284 6.54508 10.5146 6.77517 10.7992 6.77517Z" fill="#171D26"/>
<path d="M11.0913 8.59093C11.3758 8.59093 11.6065 8.36084 11.6065 8.07701C11.6065 7.79318 11.3758 7.56309 11.0913 7.56309C10.8067 7.56309 10.576 7.79318 10.576 8.07701C10.576 8.36084 10.8067 8.59093 11.0913 8.59093Z" fill="#171D26"/>
<path d="M9.52841 8.60823C9.8604 8.60823 10.1295 8.33979 10.1295 8.00866C10.1295 7.67752 9.8604 7.40908 9.52841 7.40908C9.19642 7.40908 8.92729 7.67752 8.92729 8.00866C8.92729 8.33979 9.19642 8.60823 9.52841 8.60823Z" fill="#171D26"/>
<path d="M7.82801 13.1649C7.99875 13.1649 8.13716 13.0268 8.13716 12.8565C8.13716 12.6862 7.99875 12.5482 7.82801 12.5482C7.65727 12.5482 7.51886 12.6862 7.51886 12.8565C7.51886 13.0268 7.65727 13.1649 7.82801 13.1649Z" fill="#171D26"/>
<path d="M9.06466 13.0108C9.27334 13.0108 9.44251 12.8421 9.44251 12.6339C9.44251 12.4258 9.27334 12.2571 9.06466 12.2571C8.85598 12.2571 8.68682 12.4258 8.68682 12.6339C8.68682 12.8421 8.85598 13.0108 9.06466 13.0108Z" fill="#171D26"/>
<path d="M10.4214 12.497C10.6585 12.497 10.8508 12.3053 10.8508 12.0688C10.8508 11.8322 10.6585 11.6405 10.4214 11.6405C10.1842 11.6405 9.99201 11.8322 9.99201 12.0688C9.99201 12.3053 10.1842 12.497 10.4214 12.497Z" fill="#171D26"/>
<path d="M10.7477 13.8673C11.0323 13.8673 11.2629 13.6372 11.2629 13.3533C11.2629 13.0695 11.0323 12.8394 10.7477 12.8394C10.4631 12.8394 10.2324 13.0695 10.2324 13.3533C10.2324 13.6372 10.4631 13.8673 10.7477 13.8673Z" fill="#171D26"/>
<path d="M9.09916 14.1927C9.3363 14.1927 9.52853 14.0009 9.52853 13.7644C9.52853 13.5279 9.3363 13.3361 9.09916 13.3361C8.86203 13.3361 8.66979 13.5279 8.66979 13.7644C8.66979 14.0009 8.86203 14.1927 9.09916 14.1927Z" fill="#171D26"/>
<path d="M7.63908 14.1755C7.84776 14.1755 8.01693 14.0068 8.01693 13.7987C8.01693 13.5905 7.84776 13.4218 7.63908 13.4218C7.4304 13.4218 7.26123 13.5905 7.26123 13.7987C7.26123 14.0068 7.4304 14.1755 7.63908 14.1755Z" fill="#171D26"/>
<path d="M7.65615 15.3577C7.89328 15.3577 8.08552 15.166 8.08552 14.9294C8.08552 14.6929 7.89328 14.5012 7.65615 14.5012C7.41901 14.5012 7.22677 14.6929 7.22677 14.9294C7.22677 15.166 7.41901 15.3577 7.65615 15.3577Z" fill="#171D26"/>
<path d="M9.40811 15.5803C9.69267 15.5803 9.92336 15.3502 9.92336 15.0664C9.92336 14.7826 9.69267 14.5525 9.40811 14.5525C9.12354 14.5525 8.89286 14.7826 8.89286 15.0664C8.89286 15.3502 9.12354 15.5803 9.40811 15.5803Z" fill="#171D26"/>
<path d="M11.4521 15.3577C11.7841 15.3577 12.0532 15.0893 12.0532 14.7582C12.0532 14.427 11.7841 14.1586 11.4521 14.1586C11.1201 14.1586 10.8509 14.427 10.8509 14.7582C10.8509 15.0893 11.1201 15.3577 11.4521 15.3577Z" fill="#171D26"/>
<path d="M12.6541 16.8479C13.0335 16.8479 13.3411 16.5411 13.3411 16.1627C13.3411 15.7842 13.0335 15.4774 12.6541 15.4774C12.2747 15.4774 11.9671 15.7842 11.9671 16.1627C11.9671 16.5411 12.2747 16.8479 12.6541 16.8479Z" fill="#171D26"/>
<path d="M10.1295 17.0536C10.4615 17.0536 10.7306 16.7851 10.7306 16.454C10.7306 16.1229 10.4615 15.8544 10.1295 15.8544C9.79752 15.8544 9.52839 16.1229 9.52839 16.454C9.52839 16.7851 9.79752 17.0536 10.1295 17.0536Z" fill="#171D26"/>
<path d="M8.70392 18.2183C9.03591 18.2183 9.30504 17.9499 9.30504 17.6187C9.30504 17.2876 9.03591 17.0191 8.70392 17.0191C8.37193 17.0191 8.1028 17.2876 8.1028 17.6187C8.1028 17.9499 8.37193 18.2183 8.70392 18.2183Z" fill="#171D26"/>
<path d="M9.88896 19.726C10.2684 19.726 10.576 19.4192 10.576 19.0408C10.576 18.6623 10.2684 18.3555 9.88896 18.3555C9.50954 18.3555 9.20196 18.6623 9.20196 19.0408C9.20196 19.4192 9.50954 19.726 9.88896 19.726Z" fill="#171D26"/>
<path d="M13.0492 20.0002C13.4951 20.0002 13.8565 19.6397 13.8565 19.195C13.8565 18.7503 13.4951 18.3899 13.0492 18.3899C12.6034 18.3899 12.242 18.7503 12.242 19.195C12.242 19.6397 12.6034 20.0002 13.0492 20.0002Z" fill="#171D26"/>
<path d="M11.3145 18.5611C11.694 18.5611 12.0015 18.2543 12.0015 17.8759C12.0015 17.4974 11.694 17.1906 11.3145 17.1906C10.9351 17.1906 10.6276 17.4974 10.6276 17.8759C10.6276 18.2543 10.9351 18.5611 11.3145 18.5611Z" fill="#171D26"/>
<path d="M14.3718 18.2871C14.8176 18.2871 15.179 17.9266 15.179 17.4819C15.179 17.0373 14.8176 16.6768 14.3718 16.6768C13.926 16.6768 13.5646 17.0373 13.5646 17.4819C13.5646 17.9266 13.926 18.2871 14.3718 18.2871Z" fill="#171D26"/>
<path d="M7.98254 16.7454C8.2671 16.7454 8.49778 16.5153 8.49778 16.2314C8.49778 15.9476 8.2671 15.7175 7.98254 15.7175C7.69797 15.7175 7.46729 15.9476 7.46729 16.2314C7.46729 16.5153 7.69797 16.7454 7.98254 16.7454Z" fill="#171D26"/>
</svg>
