<svg width="24" height="24" viewBox="0 0 24 24" fill="none" xmlns="http://www.w3.org/2000/svg">
<path d="M13.4043 17.7964V16.232C13.688 16.4699 13.9961 16.6484 14.3287 16.7673C14.6613 16.8863 14.9971 16.9458 15.3362 16.9458C15.5351 16.9458 15.7087 16.9278 15.8571 16.892C16.0054 16.8561 16.1293 16.8064 16.2288 16.7429C16.3282 16.6793 16.4024 16.6044 16.4513 16.518C16.5002 16.4316 16.5247 16.3379 16.5247 16.2369C16.5247 16.1 16.4855 15.9778 16.4073 15.8702C16.329 15.7627 16.2222 15.6633 16.0869 15.572C15.9516 15.4808 15.791 15.3928 15.6052 15.308C15.4193 15.2233 15.2188 15.1369 15.0036 15.0489C14.4558 14.8208 14.0475 14.5421 13.7785 14.213C13.5095 13.8838 13.375 13.4862 13.375 13.0201C13.375 12.6551 13.4484 12.3414 13.5951 12.079C13.7418 11.8167 13.9415 11.6007 14.1942 11.4312C14.4469 11.2618 14.7395 11.1371 15.0721 11.0573C15.4047 10.9774 15.7568 10.9375 16.1285 10.9375C16.4937 10.9375 16.8173 10.9595 17.0993 11.0035C17.3813 11.0475 17.6414 11.1151 17.8794 11.2064V12.6681C17.762 12.5866 17.634 12.5149 17.4955 12.453C17.3569 12.3911 17.2143 12.3398 17.0675 12.299C16.9208 12.2583 16.7749 12.2281 16.6298 12.2086C16.4847 12.189 16.3469 12.1792 16.2165 12.1792C16.0372 12.1792 15.8742 12.1963 15.7274 12.2306C15.5807 12.2648 15.4568 12.3129 15.3558 12.3748C15.2547 12.4367 15.1764 12.5108 15.121 12.5972C15.0656 12.6836 15.0378 12.7806 15.0378 12.8881C15.0378 13.0054 15.0688 13.1105 15.1308 13.2034C15.1927 13.2963 15.2807 13.3843 15.3949 13.4674C15.509 13.5505 15.6476 13.632 15.8106 13.7119C15.9736 13.7917 16.1578 13.874 16.3632 13.9587C16.6437 14.0761 16.8955 14.2007 17.1189 14.3327C17.3422 14.4647 17.5338 14.6138 17.6935 14.7801C17.8533 14.9463 17.9756 15.1361 18.0603 15.3496C18.1451 15.5631 18.1875 15.8116 18.1875 16.0951C18.1875 16.4862 18.1133 16.8146 17.965 17.0802C17.8166 17.3458 17.6153 17.5609 17.361 17.7255C17.1067 17.8901 16.8108 18.0083 16.4733 18.0799C16.1358 18.1517 15.7796 18.1875 15.4047 18.1875C15.0199 18.1875 14.6539 18.1549 14.3067 18.0897C13.9594 18.0245 13.6587 17.9268 13.4043 17.7964Z" fill="#171D26"/>
<path d="M12.7812 12.3776H10.7744V18.0938H9.18456V12.3776H7.1875V11.0938H12.7812V12.3776Z" fill="#171D26"/>
<path fill-rule="evenodd" clip-rule="evenodd" d="M4 6C4 4.89543 4.89543 4 6 4H18C19.1046 4 20 4.89543 20 6V18C20 19.1046 19.1046 20 18 20H6C4.89543 20 4 19.1046 4 18V6ZM6 5H18C18.5523 5 19 5.44772 19 6V18C19 18.5523 18.5523 19 18 19H6C5.44772 19 5 18.5523 5 18V6C5 5.44772 5.44772 5 6 5Z" fill="#171D26"/>
</svg>
