<svg width="24" height="24" viewBox="0 0 24 24" fill="none" xmlns="http://www.w3.org/2000/svg">
<path fill-rule="evenodd" clip-rule="evenodd" d="M11.9014 10.5H8.00006C7.17163 10.5 6.50006 11.1716 6.50006 12C6.50006 12.8284 7.17163 13.5 8.00006 13.5H11.9014C12.4201 14.3967 13.3896 15 14.5001 15C16.1569 15 17.5001 13.6569 17.5001 12C17.5001 10.3431 16.1569 9 14.5001 9C13.3896 9 12.4201 9.6033 11.9014 10.5ZM11.5001 11.5H8.00006C7.72392 11.5 7.50006 11.7239 7.50006 12C7.50006 12.2761 7.72392 12.5 8.00006 12.5H11.5001V11.5ZM12.5001 12C12.5001 13.1046 13.3955 14 14.5001 14C15.6046 14 16.5001 13.1046 16.5001 12C16.5001 10.8954 15.6046 10 14.5001 10C13.3955 10 12.5001 10.8954 12.5001 12Z" fill="#171D26"/>
<path fill-rule="evenodd" clip-rule="evenodd" d="M6 4C4.89543 4 4 4.89543 4 6V18C4 19.1046 4.89543 20 6 20H18C19.1046 20 20 19.1046 20 18V6C20 4.89543 19.1046 4 18 4H6ZM18 5H6C5.44772 5 5 5.44772 5 6V18C5 18.5523 5.44772 19 6 19H18C18.5523 19 19 18.5523 19 18V6C19 5.44772 18.5523 5 18 5Z" fill="#171D26"/>
</svg>
