<svg width="24" height="24" viewBox="0 0 24 24" fill="none" xmlns="http://www.w3.org/2000/svg">
<path d="M4.5 4.5C4.5 4.22386 4.72386 4 5 4H12.7974C14.176 4 15.511 4.48333 16.5701 5.36589C16.7822 5.54267 16.8109 5.85795 16.6341 6.07009C16.4573 6.28223 16.142 6.31089 15.9299 6.13411C15.0505 5.40131 13.9421 5 12.7974 5H5C4.72386 5 4.5 4.77614 4.5 4.5Z" fill="#171D26"/>
<path d="M4.5 19.5C4.5 19.2239 4.72386 19 5 19H12.75C13.0261 19 13.25 19.2239 13.25 19.5C13.25 19.7761 13.0261 20 12.75 20H5C4.72386 20 4.5 19.7761 4.5 19.5Z" fill="#171D26"/>
<path d="M18.1911 6.93312C18.0161 6.71951 17.7011 6.68823 17.4875 6.86324C17.2739 7.03824 17.2426 7.35328 17.4176 7.56688C18.4068 8.77421 19 10.3172 19 12C19 14.77 17.3911 17.1652 15.0546 18.3003C14.8062 18.4209 14.7027 18.7201 14.8233 18.9685C14.944 19.2169 15.2432 19.3204 15.4915 19.1997C18.1593 17.9037 20 15.1673 20 12C20 10.0777 19.3214 8.31262 18.1911 6.93312Z" fill="#171D26"/>
<path d="M5.75 7.5C5.75 7.22386 5.97386 7 6.25 7H12.5139C14.0737 7 15.4997 7.88127 16.1972 9.27639C16.3207 9.52338 16.2206 9.82372 15.9736 9.94721C15.7266 10.0707 15.4263 9.9706 15.3028 9.72361C14.7746 8.66727 13.695 8 12.5139 8H6.25C5.97386 8 5.75 7.77614 5.75 7.5Z" fill="#171D26"/>
<path d="M16.8819 12C16.8819 11.7239 16.658 11.5 16.3819 11.5C16.1058 11.5 15.8819 11.7239 15.8819 12C15.8819 14.2091 14.091 16 11.8819 16H6.25C5.97386 16 5.75 16.2239 5.75 16.5C5.75 16.7761 5.97386 17 6.25 17H11.8819C14.6433 17 16.8819 14.7614 16.8819 12Z" fill="#171D26"/>
<path d="M6.5 10.5C6.5 10.2239 6.72386 10 7 10H11.75C12.8546 10 13.75 10.8954 13.75 12C13.75 13.1046 12.8546 14 11.75 14H11.5C11.2239 14 11 13.7761 11 13.5C11 13.2239 11.2239 13 11.5 13H11.75C12.3023 13 12.75 12.5523 12.75 12C12.75 11.4477 12.3023 11 11.75 11H7C6.72386 11 6.5 10.7761 6.5 10.5Z" fill="#171D26"/>
<path d="M7 13C6.72386 13 6.5 13.2239 6.5 13.5C6.5 13.7761 6.72386 14 7 14H9.5C9.77614 14 10 13.7761 10 13.5C10 13.2239 9.77614 13 9.5 13H7Z" fill="#171D26"/>
</svg>
