<svg width="24" height="24" viewBox="0 0 24 24" fill="none" xmlns="http://www.w3.org/2000/svg">
<path d="M16.5 15H11.5C11.2239 15 11 14.7761 11 14.5C11 14.2239 11.2239 14 11.5 14H16.5C16.7761 14 17 14.2239 17 14.5C17 14.7761 16.7761 15 16.5 15Z" fill="#171D26"/>
<path d="M7.14645 9.85355C6.95118 9.65829 6.95118 9.34171 7.14645 9.14645C7.34171 8.95118 7.65829 8.95118 7.85355 9.14645L10.3536 11.6464C10.5488 11.8417 10.5488 12.1583 10.3536 12.3536L7.85355 14.8536C7.65829 15.0488 7.34171 15.0488 7.14645 14.8536C6.95118 14.6583 6.95118 14.3417 7.14645 14.1464L9.29289 12L7.14645 9.85355Z" fill="#171D26"/>
<path fill-rule="evenodd" clip-rule="evenodd" d="M6 4C4.89543 4 4 4.89543 4 6V18C4 19.1046 4.89543 20 6 20H18C19.1046 20 20 19.1046 20 18V6C20 4.89543 19.1046 4 18 4H6ZM18 5H6C5.44772 5 5 5.44772 5 6V18C5 18.5523 5.44772 19 6 19H18C18.5523 19 19 18.5523 19 18V6C19 5.44772 18.5523 5 18 5Z" fill="#171D26"/>
</svg>
