<svg width="24" height="24" viewBox="0 0 24 24" fill="none" xmlns="http://www.w3.org/2000/svg">
<path fill-rule="evenodd" clip-rule="evenodd" d="M15 7.5C15 9.433 13.433 11 11.5 11C9.567 11 8 9.433 8 7.5C8 5.567 9.567 4 11.5 4C13.433 4 15 5.567 15 7.5ZM14 7.5C14 8.88071 12.8807 10 11.5 10C10.1193 10 9 8.88071 9 7.5C9 6.11929 10.1193 5 11.5 5C12.8807 5 14 6.11929 14 7.5Z" fill="#171D26"/>
<path d="M18.25 17C18.6642 17 19 16.6642 19 16.25C19 15.8358 18.6642 15.5 18.25 15.5C17.8358 15.5 17.5 15.8358 17.5 16.25C17.5 16.6642 17.8358 17 18.25 17Z" fill="#171D26"/>
<path fill-rule="evenodd" clip-rule="evenodd" d="M6.5 19H15.3773C16.1104 19.9145 17.2368 20.5 18.5 20.5C20.7091 20.5 22.5 18.7091 22.5 16.5C22.5 14.2909 20.7091 12.5 18.5 12.5C17.5406 12.5 16.66 12.8378 15.9708 13.4009C15.0716 12.5335 13.8481 12 12.5 12H10.5C7.73858 12 5.5 14.2386 5.5 17V18C5.5 18.5523 5.94772 19 6.5 19ZM12.5 13H10.5C8.29086 13 6.5 14.7909 6.5 17L6.5 18H14.7908C14.6033 17.5368 14.5 17.0305 14.5 16.5C14.5 15.6107 14.7902 14.7892 15.2811 14.125C14.5613 13.4286 13.5807 13 12.5 13ZM18.25 18C18.5513 18 18.8349 17.9239 19.0825 17.7897L19.6464 18.3536C19.8417 18.5489 20.1582 18.5489 20.3535 18.3536C20.5488 18.1583 20.5488 17.8417 20.3535 17.6465L19.7896 17.0826C19.9238 16.835 20 16.5514 20 16.25C20 15.2835 19.2165 14.5 18.25 14.5C17.2835 14.5 16.5 15.2835 16.5 16.25C16.5 17.2165 17.2835 18 18.25 18Z" fill="#171D26"/>
</svg>
