<svg width="24" height="24" viewBox="0 0 24 24" fill="none" xmlns="http://www.w3.org/2000/svg">
<path fill-rule="evenodd" clip-rule="evenodd" d="M11.5 11C13.433 11 15 9.433 15 7.5C15 5.567 13.433 4 11.5 4C9.567 4 8 5.567 8 7.5C8 9.433 9.567 11 11.5 11ZM11.5 10C12.8807 10 14 8.88071 14 7.5C14 6.11929 12.8807 5 11.5 5C10.1193 5 9 6.11929 9 7.5C9 8.88071 10.1193 10 11.5 10Z" fill="#171D26"/>
<path fill-rule="evenodd" clip-rule="evenodd" d="M10.5 12C7.73858 12 5.5 14.2386 5.5 17V18C5.5 18.5523 5.94772 19 6.5 19H15.0351C15.7267 20.1956 17.0194 21 18.5 21C20.7091 21 22.5 19.2091 22.5 17C22.5 14.7909 20.7091 13 18.5 13C17.6656 13 16.8909 13.2555 16.2498 13.6925C15.3336 12.6546 13.9933 12 12.5 12H10.5ZM15.5 14.3542C14.7671 13.5238 13.6947 13 12.5 13H10.5C8.29086 13 6.5 14.7909 6.5 17L6.5 18H14.626C14.5438 17.6804 14.5 17.3453 14.5 17C14.5 15.9856 14.8776 15.0593 15.5 14.3542ZM20.4806 15.512C20.7039 15.6744 20.7533 15.9871 20.5909 16.2105L19.0892 18.2753C18.7474 18.7453 18.0782 18.8259 17.6346 18.4505L16.8636 17.7981C16.6528 17.6197 16.6265 17.3042 16.8048 17.0934C16.9832 16.8826 17.2987 16.8563 17.5095 17.0347L18.2805 17.6871L19.7822 15.6223C19.9446 15.399 20.2573 15.3496 20.4806 15.512Z" fill="#171D26"/>
</svg>
