<svg width="24" height="24" viewBox="0 0 24 24" fill="none" xmlns="http://www.w3.org/2000/svg">
<path fill-rule="evenodd" clip-rule="evenodd" d="M11.8308 4.02936C11.8836 4.01036 11.9406 4 12 4C12.0594 4 12.1163 4.01035 12.1692 4.02934L18.1544 6.02443C18.1569 6.02523 18.1594 6.02605 18.1618 6.02689L18.5331 6.15066C18.6386 6.18582 18.7294 6.25514 18.791 6.34765L20.916 9.53515C20.9956 9.65448 21.0201 9.80222 20.9833 9.94083C20.9464 10.0794 20.8519 10.1956 20.7236 10.2597L19 11.1215V15.6137C19 16.1805 18.6805 16.6989 18.1741 16.9536L12.6741 19.7206C12.25 19.9339 11.75 19.9339 11.3259 19.7206L5.82588 16.9536C5.31952 16.6989 5 16.1805 5 15.6137V11.1215L3.2764 10.2597C3.14812 10.1956 3.05356 10.0794 3.01675 9.94083C2.97994 9.80222 3.00442 9.65448 3.08398 9.53515L5.20898 6.34765C5.27065 6.25514 5.36141 6.18582 5.46689 6.15066L11.8308 4.02936ZM16.6967 6.59262L12.5 5.19371V8.69098L16.6967 6.59262ZM12.574 9.77204L18.0384 7.03983L18.0541 7.04509L19.7698 9.61858L14.2962 12.3554L12.574 9.77204ZM5.94587 7.04509L5.96164 7.03983L11.4261 9.77204L9.70382 12.3554L4.2302 9.61858L5.94587 7.04509ZM7.30328 6.59262L11.5 8.69098V5.19371L7.30328 6.59262ZM11.5 11.4639L10.291 13.2774C10.1512 13.4872 9.87694 13.56 9.6514 13.4472L6 11.6215V15.6137C6 15.8026 6.10651 15.9754 6.27529 16.0603L11.5 18.6888V11.4639ZM12.5 11.4639L13.709 13.2774C13.8489 13.4872 14.1231 13.56 14.3486 13.4472L18 11.6215V15.6137C18 15.8026 17.8935 15.9754 17.7247 16.0603L12.5 18.6888V11.4639Z" fill="#171D26"/>
</svg>
