<svg width="24" height="24" viewBox="0 0 24 24" fill="none" xmlns="http://www.w3.org/2000/svg">
<path fill-rule="evenodd" clip-rule="evenodd" d="M14.0749 19.2283C13.4131 19.4055 12.7176 19.5 12 19.5C9.87134 19.5 7.93685 18.6686 6.50354 17.3128C6.26009 17.0826 6.03109 16.8372 5.81805 16.5781C4.68205 15.1968 4 13.4281 4 11.5C4 9.57195 4.68206 7.8032 5.81806 6.42187C6.0311 6.16284 6.26008 5.91742 6.50353 5.68713C7.93685 4.33137 9.87134 3.5 12 3.5C14.1287 3.5 16.0631 4.33137 17.4964 5.68713L17.5195 5.70905C17.7544 5.93297 17.9756 6.17103 18.1819 6.42186C19.3179 7.80319 20 9.57194 20 11.5C20 12.2176 19.9055 12.9131 19.7283 13.5749C20.5108 14.305 21 15.3454 21 16.5C21 18.7091 19.2091 20.5 17 20.5C15.8454 20.5 14.805 20.0108 14.0749 19.2283ZM13.2183 17.8068C12.7725 18.3097 12.3397 18.5 12 18.5C11.4783 18.5 10.7367 18.0511 10.066 16.7096C9.86936 16.3164 9.69302 15.8705 9.54304 15.3809C10.3011 15.1354 11.1272 15 12 15C12.43 15 12.8487 15.0329 13.2535 15.0956C13.0896 15.5326 13 16.0058 13 16.5C13 16.9576 13.0768 17.3972 13.2183 17.8068ZM18.8492 12.9522C18.9146 12.6419 18.9596 12.324 18.9824 12H15.9923C15.9857 12.2146 15.9749 12.4269 15.9599 12.6366C16.2916 12.5475 16.6402 12.5 17 12.5C17.6671 12.5 18.2961 12.6633 18.8492 12.9522ZM14.9161 13.085C14.954 12.7336 14.9796 12.3713 14.9918 12H9.00818C9.03646 12.8606 9.13699 13.673 9.29417 14.414C10.1393 14.146 11.0503 14 12 14C12.6007 14 13.186 14.0584 13.7489 14.1692C14.0611 13.7345 14.4583 13.365 14.9161 13.085ZM9.29417 8.58602C9.13699 9.32703 9.03646 10.1394 9.00818 11H14.9918C14.9635 10.1394 14.863 9.32702 14.7058 8.58601C13.8607 8.85398 12.9497 8.99999 12 8.99999C11.0503 8.99999 10.1393 8.85398 9.29417 8.58602ZM18.9824 11H15.9923C15.962 10.0159 15.8427 9.08002 15.6503 8.22399C16.3088 7.92554 16.9143 7.54886 17.4509 7.10786C18.3219 8.18749 18.8788 9.53119 18.9824 11ZM5.01758 11H8.00769C8.03803 10.0159 8.15732 9.08002 8.34968 8.224C7.69119 7.92555 7.08574 7.54887 6.54908 7.10787C5.67806 8.1875 5.12124 9.53119 5.01758 11ZM8.00769 12H5.01758C5.12124 13.4688 5.67806 14.8125 6.54907 15.8921C7.08574 15.4511 7.69119 15.0744 8.34967 14.776C8.15732 13.92 8.03803 12.9841 8.00769 12ZM10.066 6.29036C9.86936 6.68364 9.69302 7.12954 9.54305 7.61907C10.3011 7.86455 11.1272 7.99999 12 7.99999C12.8728 7.99999 13.6989 7.86455 14.457 7.61906C14.307 7.12954 14.1306 6.68364 13.934 6.29036C13.2633 4.94895 12.5217 4.5 12 4.5C11.4783 4.5 10.7367 4.94895 10.066 6.29036ZM15.3884 7.24669C15.8914 7.00479 16.354 6.7111 16.7683 6.37518C16.0486 5.70528 15.1877 5.18514 14.235 4.8644C14.6974 5.48859 15.0911 6.30101 15.3884 7.24669ZM7.2317 6.37519C7.64597 6.7111 8.10861 7.0048 8.61156 7.2467C8.90895 6.30101 9.30257 5.4886 9.76495 4.8644C8.81233 5.18515 7.95137 5.70528 7.2317 6.37519ZM7.23169 16.6248C7.95137 17.2947 8.81233 17.8149 9.76495 18.1356C9.30257 17.5114 8.90894 16.699 8.61155 15.7533C8.10861 15.9952 7.64596 16.2889 7.23169 16.6248ZM18.9806 15.012C19.2039 15.1744 19.2533 15.4871 19.0909 15.7105L17.5892 17.7752C17.2474 18.2453 16.5782 18.3259 16.1346 17.9505L15.3636 17.2981C15.1527 17.1197 15.1265 16.8042 15.3048 16.5934C15.4832 16.3826 15.7987 16.3563 16.0095 16.5347L16.7805 17.1871L18.2822 15.1223C18.4446 14.899 18.7573 14.8496 18.9806 15.012Z" fill="#171D26"/>
</svg>
