<svg xmlns="http://www.w3.org/2000/svg" width="48" height="48" fill="none" viewBox="0 0 48 48">
  <path fill="#3131FF" d="M32.149 10.26c1.15 0 2.082-.934 2.082-2.088a2.085 2.085 0 0 0-2.082-2.088c-1.15 0-2.082.935-2.082 2.088 0 1.154.932 2.088 2.082 2.088Zm2.341 29.5c1.15 0 2.082-.935 2.082-2.088a2.085 2.085 0 0 0-2.082-2.088c-1.15 0-2.082.934-2.082 2.088 0 1.153.932 2.088 2.082 2.088Zm-1.747-24.279a1.75 1.75 0 0 0 1.747-1.752 1.75 1.75 0 0 0-1.747-1.752 1.75 1.75 0 0 0-1.747 1.752 1.75 1.75 0 0 0 1.747 1.752Zm4.647.673a1.75 1.75 0 0 0 1.746-1.753 1.75 1.75 0 0 0-1.747-1.752 1.75 1.75 0 0 0-1.746 1.752 1.75 1.75 0 0 0 1.746 1.753Zm-5.241 3.767a1.49 1.49 0 0 0 1.487-1.492 1.49 1.49 0 0 0-1.487-1.492 1.49 1.49 0 0 0-1.488 1.492 1.49 1.49 0 0 0 1.488 1.492Zm4.646.633a1.49 1.49 0 0 0 1.488-1.492 1.49 1.49 0 0 0-1.488-1.493 1.49 1.49 0 0 0-1.487 1.492 1.49 1.49 0 0 0 1.487 1.493Zm3.717 1.456A1.49 1.49 0 0 0 42 20.517a1.49 1.49 0 0 0-1.488-1.492 1.49 1.49 0 0 0-1.487 1.492 1.49 1.49 0 0 0 1.487 1.493Zm-5.092 2.124c.717 0 1.3-.584 1.3-1.304 0-.72-.583-1.305-1.3-1.305-.719 0-1.301.584-1.301 1.305 0 .72.582 1.304 1.3 1.304Zm-4.647-.636c.718 0 1.3-.584 1.3-1.304 0-.72-.582-1.304-1.3-1.304-.718 0-1.3.584-1.3 1.304 0 .72.582 1.304 1.3 1.304Zm8.403 2.089c.718 0 1.3-.584 1.3-1.305 0-.72-.582-1.304-1.3-1.304-.718 0-1.3.584-1.3 1.304 0 .72.582 1.305 1.3 1.305Zm-5.616 1.271c.617 0 1.117-.501 1.117-1.12 0-.618-.5-1.12-1.116-1.12-.617 0-1.117.502-1.117 1.12 0 .619.5 1.12 1.117 1.12Zm3.758 1.417c.616 0 1.116-.502 1.116-1.12 0-.619-.5-1.12-1.116-1.12-.617 0-1.117.501-1.117 1.12 0 .618.5 1.12 1.117 1.12Zm-8.368-2.089c.617 0 1.117-.501 1.117-1.12 0-.618-.5-1.12-1.117-1.12-.616 0-1.116.502-1.116 1.12 0 .619.5 1.12 1.116 1.12Zm2.565 2.497a.93.93 0 0 0 .93-.933.93.93 0 0 0-.93-.932.93.93 0 0 0-.93.932.93.93 0 0 0 .93.933Zm1.599 2.576a.819.819 0 0 0 .818-.82.819.819 0 1 0-.818.82Zm-1.97.521a.671.671 0 1 0-.002-1.343.671.671 0 0 0 .002 1.342Zm-1.747-1.941a.819.819 0 0 0 .818-.82.819.819 0 0 0-.818-.82.819.819 0 0 0-.818.82c0 .453.366.82.818.82Zm-2.529-1.789a.93.93 0 0 0 .93-.931.93.93 0 0 0-.93-.933.93.93 0 0 0-.929.933.93.93 0 0 0 .93.932Zm-.036-7.012a.93.93 0 0 0 .93-.932.93.93 0 0 0-.93-.932.93.93 0 0 0-.929.932.93.93 0 0 0 .93.932Zm.408-3.28a.819.819 0 0 0 .817-.82.819.819 0 1 0-1.635 0c0 .452.366.82.817.82Zm.893-2.685a.671.671 0 1 0-.002-1.342.671.671 0 0 0 .002 1.342Zm-1.56-1.268a.819.819 0 0 0 .818-.82.819.819 0 1 0-1.636 0c0 .453.366.82.818.82Zm8.663 16.298a.93.93 0 0 0 .929-.933.93.93 0 0 0-.93-.932.93.93 0 0 0-.929.932.93.93 0 0 0 .93.933ZM24.451 12.72a.93.93 0 0 0 .93-.931.93.93 0 0 0-.93-.933.93.93 0 0 0-.929.933.93.93 0 0 0 .93.932Zm.634 3.953a.93.93 0 0 0 .93-.932.93.93 0 0 0-.93-.932.93.93 0 0 0-.929.932.93.93 0 0 0 .93.932Zm-1.041 3.769c.617 0 1.117-.502 1.117-1.12 0-.619-.5-1.12-1.117-1.12-.616 0-1.116.501-1.116 1.12 0 .618.5 1.12 1.116 1.12Zm-3.385 0c.718 0 1.3-.584 1.3-1.305 0-.72-.582-1.304-1.3-1.304-.718 0-1.3.584-1.3 1.304 0 .72.582 1.305 1.3 1.305Zm-3.941.896a1.49 1.49 0 0 0 1.488-1.492 1.49 1.49 0 0 0-1.488-1.492 1.49 1.49 0 0 0-1.487 1.492 1.49 1.49 0 0 0 1.487 1.492Zm-4.311 2.124a1.75 1.75 0 0 0 1.747-1.752 1.75 1.75 0 0 0-1.747-1.753 1.75 1.75 0 0 0-1.747 1.753 1.75 1.75 0 0 0 1.747 1.752Zm-4.463 3.581c1.15 0 2.082-.935 2.082-2.088a2.085 2.085 0 0 0-2.082-2.089c-1.15 0-2.082.935-2.082 2.088 0 1.154.932 2.089 2.082 2.089Zm2.716-7.945a1.75 1.75 0 0 0 1.747-1.752 1.75 1.75 0 0 0-1.747-1.753 1.75 1.75 0 0 0-1.747 1.753 1.75 1.75 0 0 0 1.747 1.752Zm4.311-2.124a1.49 1.49 0 0 0 1.488-1.493 1.49 1.49 0 0 0-1.488-1.492 1.49 1.49 0 0 0-1.487 1.492 1.49 1.49 0 0 0 1.487 1.493Zm-.63-3.954a1.49 1.49 0 0 0 1.488-1.491 1.49 1.49 0 0 0-1.488-1.492 1.49 1.49 0 0 0-1.488 1.492 1.49 1.49 0 0 0 1.488 1.492Zm3.941-.895c.718 0 1.3-.584 1.3-1.305 0-.72-.582-1.304-1.3-1.304-.719 0-1.3.584-1.3 1.304 0 .72.581 1.305 1.3 1.305Zm3.382.003c.616 0 1.116-.501 1.116-1.12 0-.618-.5-1.12-1.116-1.12-.617 0-1.117.502-1.117 1.12 0 .619.5 1.12 1.117 1.12Zm.63 3.952c.617 0 1.116-.5 1.116-1.12 0-.618-.5-1.12-1.116-1.12-.617 0-1.117.502-1.117 1.12 0 .62.5 1.12 1.117 1.12Zm-3.382.033c.718 0 1.3-.583 1.3-1.304 0-.72-.582-1.304-1.3-1.304-.718 0-1.3.584-1.3 1.304 0 .72.582 1.304 1.3 1.304Zm-3.682 9.925a.671.671 0 1 0-.001-1.342.671.671 0 0 0 .002 1.342Zm2.677-.34a.819.819 0 0 0 .817-.82.819.819 0 0 0-.817-.82.819.819 0 0 0-.818.82c0 .453.366.82.818.82Zm2.939-1.116a.93.93 0 0 0 .93-.932.93.93 0 0 0-.93-.932.93.93 0 0 0-.93.932.93.93 0 0 0 .93.932Zm.706 2.985c.617 0 1.117-.502 1.117-1.12a1.118 1.118 0 1 0-2.234 0c0 .618.5 1.12 1.117 1.12Zm-3.569.707a.93.93 0 0 0 .929-.932.93.93 0 0 0-.93-.932.93.93 0 0 0-.929.932.93.93 0 0 0 .93.932Zm-3.159-.039a.819.819 0 0 0 .817-.82.819.819 0 0 0-.817-.82.819.819 0 0 0-.818.82c0 .453.366.82.818.82Zm.036 2.576a.93.93 0 0 0 .929-.932.93.93 0 0 0-.93-.932.93.93 0 0 0-.929.932.93.93 0 0 0 .93.932Zm3.792.484c.617 0 1.117-.501 1.117-1.12 0-.618-.5-1.12-1.116-1.12-.617 0-1.117.502-1.117 1.12 0 .619.5 1.12 1.116 1.12Zm4.424-.488c.718 0 1.3-.584 1.3-1.304 0-.72-.582-1.304-1.3-1.304-.719 0-1.3.584-1.3 1.304 0 .72.581 1.304 1.3 1.304Zm2.604 3.248a1.49 1.49 0 0 0 1.487-1.492 1.49 1.49 0 0 0-1.487-1.492 1.49 1.49 0 0 0-1.488 1.492 1.49 1.49 0 0 0 1.488 1.492Zm-5.468.445c.718 0 1.3-.584 1.3-1.305 0-.72-.582-1.304-1.3-1.304-.718 0-1.3.584-1.3 1.304 0 .72.582 1.305 1.3 1.305Zm-3.083 2.536c.718 0 1.3-.584 1.3-1.305 0-.72-.582-1.304-1.3-1.304-.718 0-1.3.584-1.3 1.304 0 .72.582 1.305 1.3 1.305Zm2.564 3.284a1.49 1.49 0 0 0 1.488-1.492 1.49 1.49 0 0 0-1.488-1.492 1.49 1.49 0 0 0-1.487 1.492 1.49 1.49 0 0 0 1.487 1.492Zm6.84.596a1.75 1.75 0 0 0 1.747-1.752 1.75 1.75 0 0 0-1.747-1.752 1.75 1.75 0 0 0-1.747 1.752 1.75 1.75 0 0 0 1.747 1.752Zm-3.753-3.132a1.49 1.49 0 0 0 1.488-1.492 1.49 1.49 0 0 0-1.488-1.493 1.49 1.49 0 0 0-1.487 1.492 1.49 1.49 0 0 0 1.487 1.493Zm6.617-.596a1.75 1.75 0 0 0 1.747-1.753 1.75 1.75 0 0 0-1.747-1.752 1.75 1.75 0 0 0-1.747 1.752 1.75 1.75 0 0 0 1.747 1.753Zm-13.831-3.357c.616 0 1.116-.501 1.116-1.12 0-.618-.5-1.12-1.116-1.12-.617 0-1.117.502-1.117 1.12 0 .619.5 1.12 1.117 1.12Z"/>
</svg>
