<svg width="24" height="24" viewBox="0 0 24 24" fill="none" xmlns="http://www.w3.org/2000/svg">
<path d="M14.3723 9.19914C14.7043 9.19914 14.9734 8.9307 14.9734 8.59957C14.9734 8.26844 14.7043 8 14.3723 8C14.0403 8 13.7711 8.26844 13.7711 8.59957C13.7711 8.9307 14.0403 9.19914 14.3723 9.19914Z" fill="#171D26"/>
<path d="M15.6496 17.0686C15.6496 17.3998 15.3805 17.6682 15.0485 17.6682C14.7165 17.6682 14.4474 17.3998 14.4474 17.0686C14.4474 16.7375 14.7165 16.4691 15.0485 16.4691C15.3805 16.4691 15.6496 16.7375 15.6496 17.0686Z" fill="#171D26"/>
<path d="M14.5441 10.6981C14.8227 10.6981 15.0486 10.4728 15.0486 10.1949C15.0486 9.91702 14.8227 9.69173 14.5441 9.69173C14.2654 9.69173 14.0396 9.91702 14.0396 10.1949C14.0396 10.4728 14.2654 10.6981 14.5441 10.6981Z" fill="#171D26"/>
<path d="M16.3904 10.3876C16.3904 10.6655 16.1645 10.8908 15.8859 10.8908C15.6073 10.8908 15.3814 10.6655 15.3814 10.3876C15.3814 10.1096 15.6073 9.88435 15.8859 9.88435C16.1645 9.88435 16.3904 10.1096 16.3904 10.3876Z" fill="#171D26"/>
<path d="M14.3723 11.9722C14.6094 11.9722 14.8017 11.7804 14.8017 11.5439C14.8017 11.3074 14.6094 11.1156 14.3723 11.1156C14.1352 11.1156 13.9429 11.3074 13.9429 11.5439C13.9429 11.7804 14.1352 11.9722 14.3723 11.9722Z" fill="#171D26"/>
<path d="M16.1434 11.7261C16.1434 11.9626 15.9511 12.1543 15.714 12.1543C15.4769 12.1543 15.2846 11.9626 15.2846 11.7261C15.2846 11.4895 15.4769 11.2978 15.714 11.2978C15.9511 11.2978 16.1434 11.4895 16.1434 11.7261Z" fill="#171D26"/>
<path d="M16.7875 12.5718C17.0246 12.5718 17.2168 12.3801 17.2168 12.1435C17.2168 11.907 17.0246 11.7153 16.7875 11.7153C16.5503 11.7153 16.3581 11.907 16.3581 12.1435C16.3581 12.3801 16.5503 12.5718 16.7875 12.5718Z" fill="#171D26"/>
<path d="M15.6926 12.8073C15.6926 13.0143 15.5244 13.182 15.3169 13.182C15.1094 13.182 14.9412 13.0143 14.9412 12.8073C14.9412 12.6004 15.1094 12.4326 15.3169 12.4326C15.5244 12.4326 15.6926 12.6004 15.6926 12.8073Z" fill="#171D26"/>
<path d="M13.9752 13C14.1827 13 14.3509 12.8322 14.3509 12.6252C14.3509 12.4183 14.1827 12.2505 13.9752 12.2505C13.7677 12.2505 13.5995 12.4183 13.5995 12.6252C13.5995 12.8322 13.7677 13 13.9752 13Z" fill="#171D26"/>
<path d="M16.7767 13.2248C16.7767 13.4318 16.6085 13.5995 16.401 13.5995C16.1935 13.5995 16.0253 13.4318 16.0253 13.2248C16.0253 13.0178 16.1935 12.8501 16.401 12.8501C16.6085 12.8501 16.7767 13.0178 16.7767 13.2248Z" fill="#171D26"/>
<path d="M14.7802 13.9635C14.9581 13.9635 15.1023 13.8197 15.1023 13.6423C15.1023 13.4649 14.9581 13.3211 14.7802 13.3211C14.6024 13.3211 14.4582 13.4649 14.4582 13.6423C14.4582 13.8197 14.6024 13.9635 14.7802 13.9635Z" fill="#171D26"/>
<path d="M16.1864 14.0492C16.1864 14.2266 16.0423 14.3704 15.8644 14.3704C15.6866 14.3704 15.5424 14.2266 15.5424 14.0492C15.5424 13.8718 15.6866 13.728 15.8644 13.728C16.0423 13.728 16.1864 13.8718 16.1864 14.0492Z" fill="#171D26"/>
<path d="M13.4491 13.7707C13.627 13.7707 13.7711 13.6269 13.7711 13.4496C13.7711 13.2722 13.627 13.1284 13.4491 13.1284C13.2713 13.1284 13.1271 13.2722 13.1271 13.4496C13.1271 13.6269 13.2713 13.7707 13.4491 13.7707Z" fill="#171D26"/>
<path d="M14.4581 14.2206C14.4581 14.3684 14.338 14.4883 14.1898 14.4883C14.0416 14.4883 13.9214 14.3684 13.9214 14.2206C13.9214 14.0728 14.0416 13.9529 14.1898 13.9529C14.338 13.9529 14.4581 14.0728 14.4581 14.2206Z" fill="#171D26"/>
<path d="M14.6513 15.227C14.7818 15.227 14.8875 15.1216 14.8875 14.9915C14.8875 14.8614 14.7818 14.7559 14.6513 14.7559C14.5209 14.7559 14.4152 14.8614 14.4152 14.9915C14.4152 15.1216 14.5209 15.227 14.6513 15.227Z" fill="#171D26"/>
<path d="M14.2757 15.1843C14.2757 15.2907 14.1891 15.377 14.0824 15.377C13.9757 15.377 13.8892 15.2907 13.8892 15.1843C13.8892 15.0778 13.9757 14.9915 14.0824 14.9915C14.1891 14.9915 14.2757 15.0778 14.2757 15.1843Z" fill="#171D26"/>
<path d="M13.5779 14.8202C13.7083 14.8202 13.8141 14.7147 13.8141 14.5846C13.8141 14.4545 13.7083 14.3491 13.5779 14.3491C13.4475 14.3491 13.3418 14.4545 13.3418 14.5846C13.3418 14.7147 13.4475 14.8202 13.5779 14.8202Z" fill="#171D26"/>
<path d="M13.1165 14.0386C13.1165 14.1864 12.9963 14.3063 12.8481 14.3063C12.6999 14.3063 12.5797 14.1864 12.5797 14.0386C12.5797 13.8908 12.6999 13.771 12.8481 13.771C12.9963 13.771 13.1165 13.8908 13.1165 14.0386Z" fill="#171D26"/>
<path d="M12.8373 12.2932C12.9855 12.2932 13.1056 12.1734 13.1056 12.0255C13.1056 11.8777 12.9855 11.7579 12.8373 11.7579C12.6891 11.7579 12.5689 11.8777 12.5689 12.0255C12.5689 12.1734 12.6891 12.2932 12.8373 12.2932Z" fill="#171D26"/>
<path d="M13.1915 11.1156C13.1915 11.2457 13.0858 11.3511 12.9553 11.3511C12.8249 11.3511 12.7192 11.2457 12.7192 11.1156C12.7192 10.9855 12.8249 10.8801 12.9553 10.8801C13.0858 10.8801 13.1915 10.9855 13.1915 11.1156Z" fill="#171D26"/>
<path d="M13.213 10.5802C13.3197 10.5802 13.4062 10.4939 13.4062 10.3875C13.4062 10.2811 13.3197 10.1948 13.213 10.1948C13.1063 10.1948 13.0198 10.2811 13.0198 10.3875C13.0198 10.4939 13.1063 10.5802 13.213 10.5802Z" fill="#171D26"/>
<path d="M12.9983 9.9808C12.9983 10.1109 12.8926 10.2163 12.7622 10.2163C12.6317 10.2163 12.526 10.1109 12.526 9.9808C12.526 9.85071 12.6317 9.74525 12.7622 9.74525C12.8926 9.74525 12.9983 9.85071 12.9983 9.9808Z" fill="#171D26"/>
<path d="M15.2633 14.895C15.4115 14.895 15.5316 14.7751 15.5316 14.6273C15.5316 14.4795 15.4115 14.3596 15.2633 14.3596C15.1151 14.3596 14.9949 14.4795 14.9949 14.6273C14.9949 14.7751 15.1151 14.895 15.2633 14.895Z" fill="#171D26"/>
<path d="M12.4186 9.6381C12.4186 9.78593 12.2985 9.90577 12.1503 9.90577C12.0021 9.90577 11.8819 9.78593 11.8819 9.6381C11.8819 9.49028 12.0021 9.37044 12.1503 9.37044C12.2985 9.37044 12.4186 9.49028 12.4186 9.6381Z" fill="#171D26"/>
<path d="M12.3328 11.0408C12.481 11.0408 12.6011 10.9209 12.6011 10.7731C12.6011 10.6253 12.481 10.5054 12.3328 10.5054C12.1846 10.5054 12.0644 10.6253 12.0644 10.7731C12.0644 10.9209 12.1846 11.0408 12.3328 11.0408Z" fill="#171D26"/>
<path d="M12.3543 11.8008C12.3543 11.9782 12.2101 12.122 12.0323 12.122C11.8544 12.122 11.7103 11.9782 11.7103 11.8008C11.7103 11.6234 11.8544 11.4796 12.0323 11.4796C12.2101 11.4796 12.3543 11.6234 12.3543 11.8008Z" fill="#171D26"/>
<path d="M11.0554 12.1219C11.2628 12.1219 11.4311 11.9542 11.4311 11.7472C11.4311 11.5403 11.2628 11.3725 11.0554 11.3725C10.8479 11.3725 10.6797 11.5403 10.6797 11.7472C10.6797 11.9542 10.8479 12.1219 11.0554 12.1219Z" fill="#171D26"/>
<path d="M10.3471 11.9508C10.3471 12.1873 10.1548 12.379 9.91768 12.379C9.68055 12.379 9.48831 12.1873 9.48831 11.9508C9.48831 11.7143 9.68055 11.5225 9.91768 11.5225C10.1548 11.5225 10.3471 11.7143 10.3471 11.9508Z" fill="#171D26"/>
<path d="M8.67245 12.9894C8.95108 12.9894 9.17696 12.7641 9.17696 12.4861C9.17696 12.2082 8.95108 11.9829 8.67245 11.9829C8.39382 11.9829 8.16794 12.2082 8.16794 12.4861C8.16794 12.7641 8.39382 12.9894 8.67245 12.9894Z" fill="#171D26"/>
<path d="M7.98544 13.4176C7.98544 13.7487 7.71631 14.0171 7.38432 14.0171C7.05233 14.0171 6.7832 13.7487 6.7832 13.4176C6.7832 13.0864 7.05233 12.818 7.38432 12.818C7.71631 12.818 7.98544 13.0864 7.98544 13.4176Z" fill="#171D26"/>
<path d="M8.16805 11.7366C8.44669 11.7366 8.67256 11.5113 8.67256 11.2334C8.67256 10.9555 8.44669 10.7302 8.16805 10.7302C7.88942 10.7302 7.66354 10.9555 7.66354 11.2334C7.66354 11.5113 7.88942 11.7366 8.16805 11.7366Z" fill="#171D26"/>
<path d="M9.84241 10.698C9.84241 10.9345 9.65018 11.1263 9.41304 11.1263C9.17591 11.1263 8.98367 10.9345 8.98367 10.698C8.98367 10.4615 9.17591 10.2697 9.41304 10.2697C9.65018 10.2697 9.84241 10.4615 9.84241 10.698Z" fill="#171D26"/>
<path d="M9.23055 9.99138C9.46768 9.99138 9.65992 9.79964 9.65992 9.56312C9.65992 9.3266 9.46768 9.13486 9.23055 9.13486C8.99341 9.13486 8.80118 9.3266 8.80118 9.56312C8.80118 9.79964 8.99341 9.99138 9.23055 9.99138Z" fill="#171D26"/>
<path d="M10.7441 9.3597C10.7441 9.56666 10.5759 9.73443 10.3684 9.73443C10.1609 9.73443 9.99274 9.56666 9.99274 9.3597C9.99274 9.15274 10.1609 8.98497 10.3684 8.98497C10.5759 8.98497 10.7441 9.15274 10.7441 9.3597Z" fill="#171D26"/>
<path d="M11.3452 9.73447C11.523 9.73447 11.6672 9.59066 11.6672 9.41327C11.6672 9.23588 11.523 9.09207 11.3452 9.09207C11.1673 9.09207 11.0232 9.23588 11.0232 9.41327C11.0232 9.59066 11.1673 9.73447 11.3452 9.73447Z" fill="#171D26"/>
<path d="M11.8497 10.5481C11.8497 10.7255 11.7056 10.8693 11.5277 10.8693C11.3499 10.8693 11.2057 10.7255 11.2057 10.5481C11.2057 10.3707 11.3499 10.2269 11.5277 10.2269C11.7056 10.2269 11.8497 10.3707 11.8497 10.5481Z" fill="#171D26"/>
<path d="M10.5509 10.8801C10.7584 10.8801 10.9266 10.7123 10.9266 10.5054C10.9266 10.2984 10.7584 10.1307 10.5509 10.1307C10.3434 10.1307 10.1752 10.2984 10.1752 10.5054C10.1752 10.7123 10.3434 10.8801 10.5509 10.8801Z" fill="#171D26"/>
<path d="M9.68142 13.5353C9.68142 13.6417 9.59491 13.728 9.4882 13.728C9.38149 13.728 9.29498 13.6417 9.29498 13.5353C9.29498 13.4288 9.38149 13.3426 9.4882 13.3426C9.59491 13.3426 9.68142 13.4288 9.68142 13.5353Z" fill="#171D26"/>
<path d="M10.2611 13.6317C10.3915 13.6317 10.4973 13.5263 10.4973 13.3962C10.4973 13.2661 10.3915 13.1606 10.2611 13.1606C10.1307 13.1606 10.025 13.2661 10.025 13.3962C10.025 13.5263 10.1307 13.6317 10.2611 13.6317Z" fill="#171D26"/>
<path d="M11.3774 13.0429C11.3774 13.1907 11.2572 13.3106 11.109 13.3106C10.9608 13.3106 10.8407 13.1907 10.8407 13.0429C10.8407 12.8951 10.9608 12.7753 11.109 12.7753C11.2572 12.7753 11.3774 12.8951 11.3774 13.0429Z" fill="#171D26"/>
<path d="M11.313 14.167C11.4908 14.167 11.635 14.0232 11.635 13.8458C11.635 13.6684 11.4908 13.5246 11.313 13.5246C11.1351 13.5246 10.991 13.6684 10.991 13.8458C10.991 14.0232 11.1351 14.167 11.313 14.167Z" fill="#171D26"/>
<path d="M10.551 14.1027C10.551 14.2505 10.4309 14.3704 10.2827 14.3704C10.1345 14.3704 10.0143 14.2505 10.0143 14.1027C10.0143 13.9549 10.1345 13.835 10.2827 13.835C10.4309 13.835 10.551 13.9549 10.551 14.1027Z" fill="#171D26"/>
<path d="M9.37013 14.3597C9.50055 14.3597 9.60628 14.2542 9.60628 14.1241C9.60628 13.994 9.50055 13.8886 9.37013 13.8886C9.2397 13.8886 9.13397 13.994 9.13397 14.1241C9.13397 14.2542 9.2397 14.3597 9.37013 14.3597Z" fill="#171D26"/>
<path d="M9.64914 14.8309C9.64914 14.9787 9.52899 15.0985 9.38078 15.0985C9.23257 15.0985 9.11243 14.9787 9.11243 14.8309C9.11243 14.683 9.23257 14.5632 9.38078 14.5632C9.52899 14.5632 9.64914 14.683 9.64914 14.8309Z" fill="#171D26"/>
<path d="M10.4757 15.2377C10.6536 15.2377 10.7978 15.0939 10.7978 14.9165C10.7978 14.7391 10.6536 14.5953 10.4757 14.5953C10.2979 14.5953 10.1537 14.7391 10.1537 14.9165C10.1537 15.0939 10.2979 15.2377 10.4757 15.2377Z" fill="#171D26"/>
<path d="M12.1289 14.7238C12.1289 14.9308 11.9607 15.0985 11.7532 15.0985C11.5457 15.0985 11.3775 14.9308 11.3775 14.7238C11.3775 14.5168 11.5457 14.3491 11.7532 14.3491C11.9607 14.3491 12.1289 14.5168 12.1289 14.7238Z" fill="#171D26"/>
<path d="M12.5045 16.0299C12.7416 16.0299 12.9338 15.8381 12.9338 15.6016C12.9338 15.3651 12.7416 15.1734 12.5045 15.1734C12.2673 15.1734 12.0751 15.3651 12.0751 15.6016C12.0751 15.8381 12.2673 16.0299 12.5045 16.0299Z" fill="#171D26"/>
<path d="M11.3023 15.7837C11.3023 15.9907 11.1341 16.1584 10.9266 16.1584C10.7191 16.1584 10.5509 15.9907 10.5509 15.7837C10.5509 15.5767 10.7191 15.409 10.9266 15.409C11.1341 15.409 11.3023 15.5767 11.3023 15.7837Z" fill="#171D26"/>
<path d="M10.0357 16.8864C10.2432 16.8864 10.4114 16.7186 10.4114 16.5116C10.4114 16.3047 10.2432 16.1369 10.0357 16.1369C9.82818 16.1369 9.65997 16.3047 9.65997 16.5116C9.65997 16.7186 9.82818 16.8864 10.0357 16.8864Z" fill="#171D26"/>
<path d="M11.2056 17.4004C11.2056 17.6369 11.0134 17.8287 10.7763 17.8287C10.5391 17.8287 10.3469 17.6369 10.3469 17.4004C10.3469 17.1639 10.5391 16.9722 10.7763 16.9722C11.0134 16.9722 11.2056 17.1639 11.2056 17.4004Z" fill="#171D26"/>
<path d="M12.7515 18C13.0301 18 13.256 17.7747 13.256 17.4968C13.256 17.2189 13.0301 16.9936 12.7515 16.9936C12.4728 16.9936 12.2469 17.2189 12.2469 17.4968C12.2469 17.7747 12.4728 18 12.7515 18Z" fill="#171D26"/>
<path d="M12.0967 16.6723C12.0967 16.9089 11.9044 17.1006 11.6673 17.1006C11.4302 17.1006 11.2379 16.9089 11.2379 16.6723C11.2379 16.4358 11.4302 16.2441 11.6673 16.2441C11.9044 16.2441 12.0967 16.4358 12.0967 16.6723Z" fill="#171D26"/>
<path d="M13.578 16.9294C13.8567 16.9294 14.0825 16.7041 14.0825 16.4262C14.0825 16.1482 13.8567 15.9229 13.578 15.9229C13.2994 15.9229 13.0735 16.1482 13.0735 16.4262C13.0735 16.7041 13.2994 16.9294 13.578 16.9294Z" fill="#171D26"/>
<path d="M9.90681 15.6446C9.90681 15.822 9.76264 15.9658 9.58478 15.9658C9.40693 15.9658 9.26276 15.822 9.26276 15.6446C9.26276 15.4672 9.40693 15.3234 9.58478 15.3234C9.76264 15.3234 9.90681 15.4672 9.90681 15.6446Z" fill="#171D26"/>
<path fill-rule="evenodd" clip-rule="evenodd" d="M8.5 6C8.5 4.89543 9.39543 4 10.5 4H13.5C14.6046 4 15.5 4.89543 15.5 6H18C19.1046 6 20 6.89543 20 8V18C20 19.1046 19.1046 20 18 20H6C4.89543 20 4 19.1046 4 18V8C4 6.89543 4.89543 6 6 6H8.5ZM10.5 5H13.5C14.0523 5 14.5 5.44772 14.5 6H9.5C9.5 5.44772 9.94772 5 10.5 5ZM6 7C5.44772 7 5 7.44772 5 8V18C5 18.5523 5.44772 19 6 19H18C18.5523 19 19 18.5523 19 18V8C19 7.44772 18.5523 7 18 7H6Z" fill="#171D26"/>
</svg>
