<svg width="24" height="24" viewBox="0 0 24 24" fill="none" xmlns="http://www.w3.org/2000/svg">
<path fill-rule="evenodd" clip-rule="evenodd" d="M15 12C15 13.6569 13.6569 15 12 15C10.3431 15 9 13.6569 9 12C9 10.3431 10.3431 9 12 9C13.6569 9 15 10.3431 15 12ZM14 12C14 13.1046 13.1046 14 12 14C10.8954 14 10 13.1046 10 12C10 10.8954 10.8954 10 12 10C13.1046 10 14 10.8954 14 12Z" fill="#171D26"/>
<path fill-rule="evenodd" clip-rule="evenodd" d="M12 3.5C12.7048 3.5 13.2961 3.98614 13.4569 4.6414C16.4304 5.22677 18.7732 7.56958 19.3586 10.5431C20.0139 10.7039 20.5 11.2952 20.5 12C20.5 12.7048 20.0139 13.2961 19.3586 13.4569C18.7732 16.4304 16.4304 18.7732 13.4569 19.3586C13.2961 20.0139 12.7048 20.5 12 20.5C11.2952 20.5 10.7039 20.0139 10.5431 19.3586C7.56958 18.7732 5.22677 16.4304 4.6414 13.4569C3.98614 13.2961 3.5 12.7048 3.5 12C3.5 11.2952 3.98614 10.7039 4.6414 10.5431C5.22677 7.56958 7.56958 5.22677 10.5431 4.6414C10.7039 3.98614 11.2952 3.5 12 3.5ZM12 6.5C11.4012 6.5 10.8843 6.14909 10.6438 5.64169C8.14236 6.17263 6.17263 8.14236 5.64169 10.6438C6.14909 10.8843 6.5 11.4012 6.5 12C6.5 12.5988 6.14909 13.1157 5.64169 13.3562C6.17263 15.8576 8.14236 17.8274 10.6438 18.3583C10.8843 17.8509 11.4012 17.5 12 17.5C12.5988 17.5 13.1157 17.8509 13.3562 18.3583C15.8576 17.8274 17.8274 15.8576 18.3583 13.3562C17.8509 13.1157 17.5 12.5988 17.5 12C17.5 11.4012 17.8509 10.8843 18.3583 10.6438C17.8274 8.14236 15.8576 6.17263 13.3562 5.64169C13.1157 6.14909 12.5988 6.5 12 6.5Z" fill="#171D26"/>
</svg>
