<svg width="24" height="24" viewBox="0 0 24 24" fill="none" xmlns="http://www.w3.org/2000/svg">
<path fill-rule="evenodd" clip-rule="evenodd" d="M20 13.0112V18C20 19.1046 19.1046 20 18 20H6C4.89543 20 4 19.1046 4 18V6C4 4.89543 4.89543 4 6 4H18C19.1046 4 20 4.89543 20 6V10.9888L20.0001 11V13L20 13.0112ZM6 5H18C18.5523 5 19 5.44772 19 6V10H17.0001C16.4478 10 16.0001 10.4477 16.0001 11V11.5H14.0001V11C14.0001 10.4477 13.5523 10 13.0001 10H11.0001C10.4478 10 10.0001 10.4477 10.0001 11V11.5H8.00006V11C8.00006 10.4477 7.55235 10 7.00006 10H5.00006L5 6C5 5.44772 5.44772 5 6 5ZM7.00006 11H5.00006V13H7.00006V11ZM8.00006 12.5H10.0001V13C10.0001 13.5523 10.4478 14 11.0001 14H13.0001C13.5523 14 14.0001 13.5523 14.0001 13V12.5H16.0001V13C16.0001 13.5523 16.4478 14 17.0001 14H19V18C19 18.5523 18.5523 19 18 19H6C5.44772 19 5 18.5523 5 18V14H7.00006C7.55235 14 8.00006 13.5523 8.00006 13V12.5ZM11.0001 13H13.0001V11H11.0001V13ZM19 13H17.0001V11H19V13Z" fill="#171D26"/>
</svg>
