<svg width="24" height="24" viewBox="0 0 24 24" fill="none" xmlns="http://www.w3.org/2000/svg">
<path d="M9 9.5C9 9.22386 9.22386 9 9.5 9H14.5C14.7761 9 15 9.22386 15 9.5C15 9.77614 14.7761 10 14.5 10H9.5C9.22386 10 9 9.77614 9 9.5Z" fill="#171D26"/>
<path d="M9.5 11.5C9.22386 11.5 9 11.7239 9 12C9 12.2761 9.22386 12.5 9.5 12.5H14.5C14.7761 12.5 15 12.2761 15 12C15 11.7239 14.7761 11.5 14.5 11.5H9.5Z" fill="#171D26"/>
<path d="M9 14.5C9 14.2239 9.22386 14 9.5 14H14.5C14.7761 14 15 14.2239 15 14.5C15 14.7761 14.7761 15 14.5 15H9.5C9.22386 15 9 14.7761 9 14.5Z" fill="#171D26"/>
<path fill-rule="evenodd" clip-rule="evenodd" d="M13.4569 4.6414C13.2961 3.98614 12.7048 3.5 12 3.5C11.2952 3.5 10.7039 3.98614 10.5431 4.6414C7.56958 5.22677 5.22677 7.56958 4.6414 10.5431C3.98614 10.7039 3.5 11.2952 3.5 12C3.5 12.7048 3.98614 13.2961 4.6414 13.4569C5.22677 16.4304 7.56958 18.7732 10.5431 19.3586C10.7039 20.0139 11.2952 20.5 12 20.5C12.7048 20.5 13.2961 20.0139 13.4569 19.3586C16.4304 18.7732 18.7732 16.4304 19.3586 13.4569C20.0139 13.2961 20.5 12.7048 20.5 12C20.5 11.2952 20.0139 10.7039 19.3586 10.5431C18.7732 7.56958 16.4304 5.22677 13.4569 4.6414ZM10.6438 5.64169C10.8843 6.14909 11.4012 6.5 12 6.5C12.5988 6.5 13.1157 6.14909 13.3562 5.64169C15.8576 6.17263 17.8274 8.14236 18.3583 10.6438C17.8509 10.8843 17.5 11.4012 17.5 12C17.5 12.5988 17.8509 13.1157 18.3583 13.3562C17.8274 15.8576 15.8576 17.8274 13.3562 18.3583C13.1157 17.8509 12.5988 17.5 12 17.5C11.4012 17.5 10.8843 17.8509 10.6438 18.3583C8.14236 17.8274 6.17263 15.8576 5.64169 13.3562C6.14909 13.1157 6.5 12.5988 6.5 12C6.5 11.4012 6.14909 10.8843 5.64169 10.6438C6.17263 8.14236 8.14236 6.17263 10.6438 5.64169Z" fill="#171D26"/>
</svg>
