<svg width="24" height="24" viewBox="0 0 24 24" fill="none" xmlns="http://www.w3.org/2000/svg">
<path fill-rule="evenodd" clip-rule="evenodd" d="M4 4.5C3.72386 4.5 3.5 4.72386 3.5 5C3.5 5.27614 3.72386 5.5 4 5.5H5.17231C5.41242 5.5 5.61864 5.67068 5.66352 5.90654L7.1994 13.9788C7.42375 15.1579 8.45386 16.0116 9.65494 16.0108C11.8351 16.0092 14.6276 16.0052 16.3654 16.0026C17.5561 16.0008 18.578 15.1596 18.8113 13.9931L18.9887 13.106C18.9898 13.1011 18.9908 13.0962 18.9917 13.0912L19.9884 8.10825C19.9961 8.07339 20.0001 8.03717 20.0001 8C20.0001 7.72386 19.7763 7.5 19.5001 7.5H7.00012C6.99496 7.5 6.98981 7.50008 6.98469 7.50023L6.64589 5.71963C6.51125 5.012 5.89261 4.5 5.17231 4.5H4ZM7.17491 8.5L7.93674 12.504C7.95746 12.5013 7.97857 12.5 8 12.5L18.0901 12.5L18.8902 8.5H7.17491ZM8.12625 13.5L17.8901 13.5L17.8307 13.7969C17.6906 14.4976 17.0775 15.0015 16.3639 15.0026C14.6261 15.0052 11.834 15.0092 9.6542 15.0108C8.93445 15.0113 8.31647 14.4997 8.18178 13.7919L8.12625 13.5Z" fill="#171D26"/>
<path fill-rule="evenodd" clip-rule="evenodd" d="M9 16.5C8.17157 16.5 7.5 17.1716 7.5 18C7.5 18.8284 8.17157 19.5 9 19.5C9.82843 19.5 10.5 18.8284 10.5 18C10.5 17.1716 9.82843 16.5 9 16.5ZM8.5 18C8.5 18.2761 8.72386 18.5 9 18.5C9.27614 18.5 9.5 18.2761 9.5 18C9.5 17.7239 9.27614 17.5 9 17.5C8.72386 17.5 8.5 17.7239 8.5 18Z" fill="#171D26"/>
<path fill-rule="evenodd" clip-rule="evenodd" d="M17 16.5C16.1716 16.5 15.5 17.1716 15.5 18C15.5 18.8284 16.1716 19.5 17 19.5C17.8284 19.5 18.5 18.8284 18.5 18C18.5 17.1716 17.8284 16.5 17 16.5ZM16.5 18C16.5 18.2761 16.7239 18.5 17 18.5C17.2761 18.5 17.5 18.2761 17.5 18C17.5 17.7239 17.2761 17.5 17 17.5C16.7239 17.5 16.5 17.7239 16.5 18Z" fill="#171D26"/>
</svg>
