<svg width="24" height="24" viewBox="0 0 24 24" fill="none" xmlns="http://www.w3.org/2000/svg">
<path d="M7.75397 7.45V6.55C7.75397 6.5225 7.77645 6.5 7.80392 6.5H16.1961C16.2236 6.5 16.246 6.5225 16.246 6.55V7.45C16.246 7.4775 16.2236 7.5 16.1961 7.5H12.4995V15H16.1961C16.2236 15 16.246 15.0225 16.246 15.05V15.95C16.246 15.9775 16.2236 16 16.1961 16H7.80392C7.77645 16 7.75397 15.9775 7.75397 15.95V15.05C7.75397 15.0225 7.77645 15 7.80392 15H11.5005V7.5H7.80392C7.77645 7.5 7.75397 7.4775 7.75397 7.45Z" fill="#171D26"/>
<path d="M13.6734 8.62499C13.646 8.62499 13.6235 8.64749 13.6235 8.67499V13.825C13.6235 13.8525 13.646 13.875 13.6734 13.875H16.1961C16.2236 13.875 16.246 13.8525 16.246 13.825V12.925C16.246 12.8975 16.2236 12.875 16.1961 12.875H14.6226V9.62499H16.1961C16.2236 9.62499 16.246 9.60249 16.246 9.57499V8.67499C16.246 8.64749 16.2236 8.62499 16.1961 8.62499H13.6734Z" fill="#171D26"/>
<path d="M10.3765 8.67499C10.3765 8.64749 10.354 8.62499 10.3266 8.62499H7.80392C7.77645 8.62499 7.75397 8.64749 7.75397 8.67499V9.57499C7.75397 9.60249 7.77645 9.62499 7.80392 9.62499H9.37745V12.875H7.80392C7.77645 12.875 7.75397 12.8975 7.75397 12.925V13.825C7.75397 13.8525 7.77645 13.875 7.80392 13.875H10.3266C10.354 13.875 10.3765 13.8525 10.3765 13.825V8.67499Z" fill="#171D26"/>
<path fill-rule="evenodd" clip-rule="evenodd" d="M19 11.8411C19 16.0168 16.083 19.6251 12 20.5C7.917 19.6251 5 16.0168 5 11.8411V5.25L12 3.5L19 5.25V11.8411ZM6 11.8411V6.03078L12 4.53078L18 6.03078V11.8411C18 15.4734 15.5118 18.6217 12 19.4743C8.48821 18.6217 6 15.4734 6 11.8411Z" fill="#171D26"/>
</svg>
