<svg width="24" height="24" viewBox="0 0 24 24" fill="none" xmlns="http://www.w3.org/2000/svg">
<path d="M18.9767 11.4929C18.7161 7.86488 15.6806 5 11.9715 5C9.02378 5 6.50004 6.80976 5.45816 9.37561C5.35427 9.63146 5.06264 9.75466 4.80678 9.65076C4.55093 9.54687 4.42774 9.25524 4.53163 8.99939C5.72191 6.06805 8.60438 4 11.9715 4C16.2198 4 19.6991 7.29301 19.977 11.4614L20.476 10.9624C20.6713 10.7671 20.9879 10.7671 21.1831 10.9624C21.3784 11.1576 21.3784 11.4742 21.1831 11.6695L19.8147 13.0379C19.6194 13.2332 19.3028 13.2332 19.1076 13.0379L17.7391 11.6695C17.5439 11.4742 17.5439 11.1576 17.7391 10.9624C17.9344 10.7671 18.251 10.7671 18.4462 10.9624L18.9767 11.4929Z" fill="#171D26"/>
<path fill-rule="evenodd" clip-rule="evenodd" d="M12.6699 11.45C13.8111 11.2184 14.6699 10.2095 14.6699 9C14.6699 7.61929 13.5507 6.5 12.1699 6.5C10.7892 6.5 9.66994 7.61929 9.66994 9C9.66994 10.2095 10.5288 11.2184 11.6699 11.45V14H10.1699C9.8938 14 9.66994 14.2239 9.66994 14.5C9.66994 14.7761 9.8938 15 10.1699 15H11.6699V16H10.1699C9.8938 16 9.66994 16.2239 9.66994 16.5C9.66994 16.7761 9.8938 17 10.1699 17H11.6699V17.5C11.6699 17.7761 11.8938 18 12.1699 18C12.4461 18 12.6699 17.7761 12.6699 17.5V11.45ZM13.6699 9C13.6699 9.82843 12.9984 10.5 12.1699 10.5C11.3415 10.5 10.6699 9.82843 10.6699 9C10.6699 8.17157 11.3415 7.5 12.1699 7.5C12.9984 7.5 13.6699 8.17157 13.6699 9Z" fill="#171D26"/>
<path d="M4.89193 10.9624C4.69666 10.7671 4.38008 10.7671 4.18482 10.9624L2.81637 12.3308C2.62111 12.5261 2.62111 12.8427 2.81637 13.0379C3.01163 13.2332 3.32821 13.2332 3.52348 13.0379L4.01342 12.548C4.29587 16.7119 7.77318 20 12.0183 20C15.3854 20 18.2679 17.9319 19.4582 15.0006C19.5621 14.7448 19.4389 14.4531 19.183 14.3492C18.9272 14.2453 18.6355 14.3685 18.5316 14.6244C17.4898 17.1902 14.966 19 12.0183 19C8.3057 19 5.26806 16.1298 5.01233 12.497L5.55327 13.0379C5.74853 13.2332 6.06511 13.2332 6.26037 13.0379C6.45564 12.8427 6.45564 12.5261 6.26037 12.3308L4.89193 10.9624Z" fill="#171D26"/>
</svg>
