<svg width="24" height="24" viewBox="0 0 24 24" fill="none" xmlns="http://www.w3.org/2000/svg">
<path fill-rule="evenodd" clip-rule="evenodd" d="M16.5 9.5C16.5 9.29777 16.3782 9.11545 16.1913 9.03806C16.0045 8.96067 15.7894 9.00345 15.6464 9.14645L14.2086 10.5843L12.9842 9.63203C13.3002 9.35703 13.5 8.95184 13.5 8.5C13.5 7.67157 12.8284 7 12 7C11.1716 7 10.5 7.67157 10.5 8.5C10.5 8.96956 10.7158 9.38872 11.0535 9.66377L10 10.5856L8.32925 9.12371C8.18161 8.99452 7.97205 8.96361 7.79339 9.04468C7.61474 9.12575 7.5 9.30381 7.5 9.5V13.5C7.5 13.7761 7.72386 14 8 14H16C16.2761 14 16.5 13.7761 16.5 13.5V9.5ZM10.3293 11.6263L12.0187 10.148L13.943 11.6447C14.1421 11.7995 14.4252 11.7819 14.6036 11.6036L15.5 10.7071V13H8.5V10.6019L9.67075 11.6263C9.85926 11.7912 10.1407 11.7912 10.3293 11.6263ZM12.5 8.5C12.5 8.77614 12.2761 9 12 9L11.9992 9C11.7234 8.99956 11.5 8.77587 11.5 8.5C11.5 8.22386 11.7239 8 12 8C12.2761 8 12.5 8.22386 12.5 8.5Z" fill="#171D26"/>
<path d="M7.5 15.5C7.5 15.2239 7.72386 15 8 15H16C16.2761 15 16.5 15.2239 16.5 15.5C16.5 15.7761 16.2761 16 16 16H8C7.72386 16 7.5 15.7761 7.5 15.5Z" fill="#171D26"/>
<path fill-rule="evenodd" clip-rule="evenodd" d="M20.5 12C20.5 16.6944 16.6944 20.5 12 20.5C7.30558 20.5 3.5 16.6944 3.5 12C3.5 7.30558 7.30558 3.5 12 3.5C16.6944 3.5 20.5 7.30558 20.5 12ZM19.5 12C19.5 16.1421 16.1421 19.5 12 19.5C7.85786 19.5 4.5 16.1421 4.5 12C4.5 7.85786 7.85786 4.5 12 4.5C16.1421 4.5 19.5 7.85786 19.5 12Z" fill="#171D26"/>
</svg>
