<svg width="24" height="24" viewBox="0 0 24 24" fill="none" xmlns="http://www.w3.org/2000/svg">
<path d="M8.50009 8.5C8.50009 8.22386 8.72395 8 9.00009 8L15.5001 8C15.7762 8 16.0001 8.22386 16.0001 8.5C16.0001 8.77614 15.7762 9 15.5001 9L9.00009 9C8.72395 9 8.50009 8.77614 8.50009 8.5Z" fill="#171D26"/>
<path d="M9.00009 10.5C8.72395 10.5 8.50009 10.7239 8.50009 11C8.50009 11.2761 8.72395 11.5 9.00009 11.5L15.5001 11.5C15.7762 11.5 16.0001 11.2761 16.0001 11C16.0001 10.7239 15.7762 10.5 15.5001 10.5L9.00009 10.5Z" fill="#171D26"/>
<path d="M8.50009 13.5C8.50009 13.2239 8.72395 13 9.00009 13H12.5001C12.7762 13 13.0001 13.2239 13.0001 13.5C13.0001 13.7761 12.7762 14 12.5001 14H9.00009C8.72395 14 8.50009 13.7761 8.50009 13.5Z" fill="#171D26"/>
<path fill-rule="evenodd" clip-rule="evenodd" d="M18.4814 16.2742C18.4937 16.1846 18.5001 16.093 18.5001 16V6.41869C18.5001 5.88586 18.2875 5.37506 17.9094 4.99959L16.4809 3.5809C16.1062 3.20882 15.5996 3 15.0715 3H8.00009C6.89552 3 6.00009 3.89543 6.00009 5V16C6.00009 17.1046 6.89552 18 8.00009 18H16.5001C17.127 18 17.6865 17.7116 18.0532 17.2602L19.6465 18.8536C19.8418 19.0488 20.1584 19.0488 20.3537 18.8536C20.5489 18.6583 20.5489 18.3417 20.3537 18.1464L18.4814 16.2742ZM8.00009 17H16.5001C16.8512 17 17.16 16.8191 17.3384 16.5454L14.1465 13.3536L14.8537 12.6464L17.5001 15.2929V6.5H15.0001V4H8.00009C7.44781 4 7.00009 4.44772 7.00009 5V16C7.00009 16.5523 7.44781 17 8.00009 17Z" fill="#171D26"/>
<path d="M5 6C5 5.72386 4.77614 5.5 4.5 5.5C4.22386 5.5 4 5.72386 4 6V16.5C4 18.433 5.567 20 7.5 20H15.5001C15.7762 20 16.0001 19.7761 16.0001 19.5C16.0001 19.2239 15.7762 19 15.5001 19H7.5C6.11929 19 5 17.8807 5 16.5V6Z" fill="#171D26"/>
</svg>
