<svg width="24" height="24" viewBox="0 0 24 24" fill="none" xmlns="http://www.w3.org/2000/svg">
<path fill-rule="evenodd" clip-rule="evenodd" d="M13 7H10V5C10 4.44772 9.55228 4 9 4H5C4.44772 4 4 4.44772 4 5V9C4 9.55228 4.44772 10 5 10H7V13C7 13.8284 7.67157 14.5 8.5 14.5H10.5V18C10.5 19.1046 11.3954 20 12.5 20H18C19.1046 20 20 19.1046 20 18V12.5C20 11.3954 19.1046 10.5 18 10.5H14.5V8.5C14.5 7.67157 13.8284 7 13 7ZM5 5H9V7H8.5C7.67157 7 7 7.67157 7 8.5V9H5L5 5ZM13.5 10.5V8.5C13.5 8.22386 13.2761 8 13 8H8.5C8.22386 8 8 8.22386 8 8.5V13C8 13.2761 8.22386 13.5 8.5 13.5H10.5V12.5C10.5 11.3954 11.3954 10.5 12.5 10.5H13.5ZM12.5 11.5H18C18.5523 11.5 19 11.9477 19 12.5V18C19 18.5523 18.5523 19 18 19H12.5C11.9477 19 11.5 18.5523 11.5 18V12.5C11.5 11.9477 11.9477 11.5 12.5 11.5Z" fill="#171D26"/>
</svg>
