<svg width="24" height="24" viewBox="0 0 24 24" fill="none" xmlns="http://www.w3.org/2000/svg">
<path fill-rule="evenodd" clip-rule="evenodd" d="M5 4C4.44772 4 4 4.44772 4 5V9C4 9.55228 4.44772 10 5 10H11.5V11.5H8.5C7.67157 11.5 7 12.1716 7 13V14H5C4.44772 14 4 14.4477 4 15V19C4 19.5523 4.44772 20 5 20H10C10.5523 20 11 19.5523 11 19V15C11 14.4477 10.5523 14 10 14H8V13C8 12.7239 8.22386 12.5 8.5 12.5H15.5C15.7761 12.5 16 12.7239 16 13V14H14C13.4477 14 13 14.4477 13 15V19C13 19.5523 13.4477 20 14 20H19C19.5523 20 20 19.5523 20 19V15C20 14.4477 19.5523 14 19 14H17V13C17 12.1716 16.3284 11.5 15.5 11.5H12.5V10H19C19.5523 10 20 9.55228 20 9V5C20 4.44772 19.5523 4 19 4H5ZM19 5H5V9H19V5ZM14 15V19H19V15H14ZM10 15V19H5L5 15H10Z" fill="#171D26"/>
</svg>
