<svg width="24" height="24" viewBox="0 0 24 24" fill="none" xmlns="http://www.w3.org/2000/svg">
<path fill-rule="evenodd" clip-rule="evenodd" d="M5 15.1404L6.07508 15.7611C6.12606 15.8068 6.18215 15.8477 6.2428 15.8827L11.6301 18.9931L11.6446 19.0012L13.3149 19.9656C13.6243 20.1443 14.0055 20.1443 14.3149 19.9656L19.7022 16.8553C20.0116 16.6766 20.2022 16.3465 20.2022 15.9892V9.76851C20.2022 9.41124 20.0116 9.08111 19.7022 8.90248L16.0164 6.77451C15.9406 6.71446 15.8598 6.6595 15.7746 6.61029L11.3873 4.07728C10.7685 3.72001 10.0061 3.72001 9.38731 4.07728L5 6.61029C4.3812 6.96755 4 7.62781 4 8.34234V13.4084C4 14.1229 4.3812 14.7831 5 15.1404ZM11.1515 5.09585L10.8873 4.9433C10.5779 4.76467 10.1967 4.76467 9.88731 4.9433L5.5 7.47631C5.1906 7.65495 5 7.98507 5 8.34234V13.4084C5 13.7656 5.1906 14.0958 5.5 14.2744L5.7428 14.4146V8.79594C5.7428 8.43867 5.9334 8.10855 6.2428 7.92991L11.1515 5.09585ZM14.3019 5.78475L14.3004 5.7839C13.9936 5.6135 13.6195 5.61622 13.3149 5.79209L12.8147 6.08084L12.1301 5.68558L6.7428 8.79594L6.7428 15.0167L7.42755 15.412V9.76851C7.42755 9.41124 7.61815 9.08111 7.92755 8.90248L13.3149 5.79209C13.6199 5.61594 13.9948 5.61352 14.3019 5.78475ZM13.8149 6.65814L19.2022 9.76851V15.9892L13.8149 19.0996L8.42755 15.9892V9.76851L13.8149 6.65814Z" fill="#171D26"/>
</svg>
