<svg width="24" height="24" viewBox="0 0 24 24" fill="none" xmlns="http://www.w3.org/2000/svg">
<path fill-rule="evenodd" clip-rule="evenodd" d="M5.64062 6.5C5.64062 5.11929 6.75991 4 8.14062 4H9.75C10.0261 4 10.25 4.22386 10.25 4.5C10.25 4.77614 10.0261 5 9.75 5H8.14062C7.3122 5 6.64062 5.67157 6.64062 6.5V10.3594C6.64062 11.5416 5.68223 12.5 4.5 12.5C4.22386 12.5 4 12.2761 4 12C4 11.7238 4.22386 11.5 4.5 11.5C5.12995 11.5 5.64062 10.9893 5.64062 10.3594V6.5Z" fill="#171D26"/>
<path fill-rule="evenodd" clip-rule="evenodd" d="M5.64062 17.5C5.64062 18.8807 6.75991 20 8.14062 20H9.75C10.0261 20 10.25 19.7761 10.25 19.5C10.25 19.2238 10.0261 19 9.75 19H8.14062C7.3122 19 6.64062 18.3284 6.64062 17.5V13.6406C6.64062 12.4584 5.68223 11.5 4.5 11.5C4.22386 11.5 4 11.7238 4 12C4 12.2761 4.22386 12.5 4.5 12.5C5.12995 12.5 5.64062 13.0106 5.64062 13.6406V17.5Z" fill="#171D26"/>
<path fill-rule="evenodd" clip-rule="evenodd" d="M18.3594 6.5C18.3594 5.11929 17.2401 4 15.8594 4H14.25C13.9739 4 13.75 4.22386 13.75 4.5C13.75 4.77614 13.9739 5 14.25 5H15.8594C16.6878 5 17.3594 5.67157 17.3594 6.5V10.3594C17.3594 11.5416 18.3178 12.5 19.5 12.5C19.7761 12.5 20 12.2761 20 12C20 11.7238 19.7761 11.5 19.5 11.5C18.8701 11.5 18.3594 10.9893 18.3594 10.3594V6.5Z" fill="#171D26"/>
<path fill-rule="evenodd" clip-rule="evenodd" d="M18.3594 17.5C18.3594 18.8807 17.2401 20 15.8594 20H14.25C13.9739 20 13.75 19.7761 13.75 19.5C13.75 19.2238 13.9739 19 14.25 19H15.8594C16.6878 19 17.3594 18.3284 17.3594 17.5V13.6406C17.3594 12.4584 18.3178 11.5 19.5 11.5C19.7761 11.5 20 11.7238 20 12C20 12.2761 19.7761 12.5 19.5 12.5C18.8701 12.5 18.3594 13.0106 18.3594 13.6406V17.5Z" fill="#171D26"/>
</svg>
