<svg xmlns="http://www.w3.org/2000/svg" width="48" height="48" fill="none" viewBox="0 0 48 48">
  <path stroke="#3131FF" stroke-width="2" d="m9.07 29.29.027-.015.025-.016 9.202-5.827c2.016-1.098 4.563-.417 5.7 1.47 1.124 1.867.475 4.275-1.521 5.38l-.026.014-.025.016-9.203 5.827c-2.015 1.098-4.563.417-5.699-1.47-1.125-1.867-.475-4.275 1.52-5.38Zm13 1.664.027-.015.024-.015 9.203-5.827c2.016-1.099 4.563-.418 5.7 1.469 1.124 1.867.475 4.276-1.521 5.38l-.026.015-.025.015-9.203 5.827c-2.015 1.099-4.563.418-5.699-1.469-1.125-1.867-.475-4.276 1.52-5.38Z"/>
  <path fill="#3131FF" stroke="#3131FF" stroke-width="2" d="m26.07 18.383.027-.014.024-.016 9.203-5.827c2.016-1.098 4.563-.417 5.7 1.47 1.124 1.867.475 4.275-1.521 5.38l-.026.014-.025.016-9.203 5.827c-2.015 1.098-4.563.417-5.699-1.469-1.125-1.867-.475-4.276 1.52-5.38Z"/>
  <path stroke="#3131FF" stroke-width="2" d="m12.07 17.383.027-.014.024-.016 9.203-5.827c2.016-1.098 4.563-.417 5.7 1.47 1.124 1.867.475 4.275-1.521 5.38l-.026.014-.025.016-9.203 5.827c-2.015 1.098-4.562.417-5.699-1.469-1.125-1.867-.475-4.276 1.52-5.38Z"/>
</svg>
