<svg width="24" height="24" viewBox="0 0 24 24" fill="none" xmlns="http://www.w3.org/2000/svg">
<path d="M14.0152 9.7729V10.5969H15.4624V14.5002H16.4503V10.5969H17.8976V9.7729H14.0152Z" fill="#171D26"/>
<path d="M10.523 14.5002V9.7729H13.6529V10.5969H11.5224V11.7234H13.4452V12.5474H11.5224V14.5002H10.523Z" fill="#171D26"/>
<path d="M9.82718 14.5002V9.7729H8.83233V12.7459H8.79078L6.7503 9.7729H5.87317V14.5002H6.87264V11.5248H6.90726L8.9639 14.5002H9.82718Z" fill="#171D26"/>
<path fill-rule="evenodd" clip-rule="evenodd" d="M10.7942 3.57752C11.413 3.22025 12.1754 3.22025 12.7942 3.57752L18.5885 6.92282C19.2073 7.28008 19.5885 7.94034 19.5885 8.65487V15.3455C19.5885 16.06 19.2073 16.7203 18.5885 17.0775L12.7942 20.4228C12.1754 20.7801 11.413 20.7801 10.7942 20.4228L5 17.0775C4.3812 16.7203 4 16.06 4 15.3455V8.65487C4 7.94034 4.3812 7.28008 5 6.92282L10.7942 3.57752ZM12.2942 4.44354L18.0885 7.78884C18.3979 7.96748 18.5885 8.2976 18.5885 8.65487V15.3455C18.5885 15.7027 18.3979 16.0329 18.0885 16.2115L12.2942 19.5568C11.9848 19.7354 11.6036 19.7354 11.2942 19.5568L5.5 16.2115C5.1906 16.0329 5 15.7027 5 15.3455V8.65487C5 8.2976 5.1906 7.96748 5.5 7.78884L11.2942 4.44354C11.6036 4.26491 11.9848 4.26491 12.2942 4.44354Z" fill="#171D26"/>
</svg>
