<svg width="24" height="24" viewBox="0 0 24 24" fill="none" xmlns="http://www.w3.org/2000/svg">
<path d="M13.5027 7.99768V7.3638H16.4892V7.99768H15.3759V11.0002H14.6159V7.99768H13.5027Z" fill="#171D26"/>
<path d="M10.8164 7.3638V11.0002H11.5852V9.49804H13.0642V8.86416H11.5852V7.99768H13.224V7.3638H10.8164Z" fill="#171D26"/>
<path d="M10.2811 7.3638V11.0002H9.61708L8.03505 8.71146H8.00841V11.0002H7.23959V7.3638H7.91431L9.48391 9.65074H9.51587V7.3638H10.2811Z" fill="#171D26"/>
<path d="M11.9643 13.8638V14.4977H13.0775V17.5002H13.8375V14.4977H14.9508V13.8638H11.9643Z" fill="#171D26"/>
<path d="M9.27795 17.5002V13.8638H11.6856V14.4977H10.0468V15.3642H11.5258V15.998H10.0468V17.5002H9.27795Z" fill="#171D26"/>
<path fill-rule="evenodd" clip-rule="evenodd" d="M12.7942 3.57752C12.1754 3.22025 11.413 3.22025 10.7942 3.57752L5 6.92282C4.3812 7.28008 4 7.94034 4 8.65487V15.3455C4 16.06 4.3812 16.7203 5 17.0775L10.7942 20.4228C11.413 20.7801 12.1754 20.7801 12.7942 20.4228L18.5885 17.0775C19.2073 16.7203 19.5885 16.06 19.5885 15.3455V8.65487C19.5885 7.94034 19.2073 7.28008 18.5885 6.92282L12.7942 3.57752ZM18.0885 7.78884L12.2942 4.44354C11.9848 4.26491 11.6036 4.26491 11.2942 4.44354L5.5 7.78884C5.1906 7.96748 5 8.2976 5 8.65487V12.0002H18.5885V8.65487C18.5885 8.2976 18.3979 7.96748 18.0885 7.78884ZM18.5885 13.0002H5V15.3455C5 15.7027 5.1906 16.0329 5.5 16.2115L11.2942 19.5568C11.6036 19.7354 11.9848 19.7354 12.2942 19.5568L18.0885 16.2115C18.3979 16.0329 18.5885 15.7027 18.5885 15.3455V13.0002Z" fill="#171D26"/>
</svg>
