<svg width="24" height="24" viewBox="0 0 24 24" fill="none" xmlns="http://www.w3.org/2000/svg">
<path fill-rule="evenodd" clip-rule="evenodd" d="M12.9571 3.70696C12.5666 3.31643 11.9334 3.31643 11.5429 3.70696L10.2071 5.04274C10.1437 5.10608 10.0907 5.17581 10.0479 5.24985H8.5V4.49985C8.5 3.94756 8.05228 3.49985 7.5 3.49985H5C4.44772 3.49985 4 3.94756 4 4.49985V6.99985C4 7.55213 4.44772 7.99985 5 7.99985H5.75L5.75 9.49985C5.75 9.77599 5.97386 9.99985 6.25 9.99985H11.75V11.4998C11.75 11.5021 11.75 11.5043 11.75 11.5066C9.50278 11.5672 7.66789 12.0326 7.14788 12.6449C7.05656 12.7355 7 12.861 7 12.9998V18.9577C7 18.965 7.00016 18.9723 7.00047 18.9796C7.00016 18.9863 7 18.9931 7 18.9998C7 19.8283 9.3505 20.4998 12.25 20.4998C15.1495 20.4998 17.5 19.8283 17.5 18.9998C17.5 18.9931 17.4998 18.9863 17.4995 18.9796C17.4998 18.9723 17.5 18.965 17.5 18.9577V12.9998C17.5 12.861 17.4434 12.7355 17.3521 12.6449C16.8321 12.0326 14.9972 11.5672 12.75 11.5066C12.75 11.5043 12.75 11.5021 12.75 11.4998V9.99985H18.25C18.5089 9.99985 18.7218 9.8031 18.7474 9.55097C18.7491 9.53416 18.75 9.51711 18.75 9.49985V7.99985C18.75 7.98123 18.749 7.96286 18.747 7.94477C19.7505 7.71852 20.5 6.82171 20.5 5.74985C20.5 4.50721 19.4926 3.49985 18.25 3.49985C17.1792 3.49985 16.2831 4.24785 16.0558 5.24985H14.4521C14.4093 5.17581 14.3562 5.10608 14.2929 5.04274L12.9571 3.70696ZM13.5858 5.74985L12.25 4.41406L10.9142 5.74985L12.25 7.08563L13.5858 5.74985ZM16.5 13.8807C15.5457 14.2559 13.9976 14.4998 12.25 14.4998C10.5024 14.4998 8.95428 14.2559 8 13.8807V15.8807C8.95428 16.2559 10.5024 16.4998 12.25 16.4998C13.9976 16.4998 15.5457 16.2559 16.5 15.8807V13.8807ZM8.5 6.24985H10.0479C10.0412 6.2383 10.0348 6.22664 10.0286 6.21489C10.0744 6.30198 10.1339 6.38373 10.2071 6.45696L11.5429 7.79274C11.6062 7.85609 11.676 7.90917 11.75 7.95196V8.99985H6.75L6.75 7.99985H7.5C8.05228 7.99985 8.5 7.55213 8.5 6.99985V6.24985ZM12.75 8.99985V7.95193C12.824 7.90914 12.8937 7.85608 12.9571 7.79274L14.2929 6.45696C14.3562 6.39361 14.4093 6.32389 14.4521 6.24985L16.0558 6.24985C16.2469 7.09204 16.9104 7.75479 17.753 7.94477C17.751 7.96286 17.75 7.98123 17.75 7.99985V8.99985H12.75ZM7.5 4.49985H5L5 6.99985H7.5V4.49985ZM17 5.74985C17 6.4402 17.5596 6.99985 18.25 6.99985C18.9404 6.99985 19.5 6.4402 19.5 5.74985C19.5 5.05949 18.9404 4.49985 18.25 4.49985C17.5596 4.49985 17 5.05949 17 5.74985ZM16.5 18.8807C15.5457 19.2559 13.9976 19.4998 12.25 19.4998C10.5024 19.4998 8.95428 19.2559 8 18.8807V16.8807C8.95428 17.2559 10.5024 17.4998 12.25 17.4998C13.9976 17.4998 15.5457 17.2559 16.5 16.8807V18.8807ZM15.6876 12.9007C15.8029 12.9337 15.9069 12.9669 16.0002 12.9998C15.9069 13.0328 15.8029 13.066 15.6876 13.099C14.8497 13.3384 13.634 13.4998 12.25 13.4998C10.866 13.4998 9.65033 13.3384 8.81241 13.099C8.69709 13.066 8.59306 13.0328 8.49983 12.9998C8.59306 12.9669 8.69709 12.9337 8.81241 12.9007C9.65033 12.6613 10.866 12.4998 12.25 12.4998C13.634 12.4998 14.8497 12.6613 15.6876 12.9007Z" fill="#171D26"/>
</svg>
