<svg width="24" height="24" viewBox="0 0 24 24" fill="none" xmlns="http://www.w3.org/2000/svg">
<path d="M6.49988 7C6.49988 6.72386 6.72374 6.5 6.99988 6.5L16.9999 6.5C17.276 6.5 17.4999 6.72386 17.4999 7C17.4999 7.27614 17.276 7.5 16.9999 7.5L6.99988 7.5C6.72374 7.5 6.49988 7.27614 6.49988 7Z" fill="#171D26"/>
<path d="M6.99988 9C6.72374 9 6.49988 9.22386 6.49988 9.5C6.49988 9.77614 6.72374 10 6.99988 10L16.9999 10C17.276 10 17.4999 9.77614 17.4999 9.5C17.4999 9.22386 17.276 9 16.9999 9L6.99988 9Z" fill="#171D26"/>
<path d="M6.49988 12C6.49988 11.7239 6.72374 11.5 6.99988 11.5L16.9999 11.5C17.276 11.5 17.4999 11.7239 17.4999 12C17.4999 12.2761 17.276 12.5 16.9999 12.5L6.99988 12.5C6.72374 12.5 6.49988 12.2761 6.49988 12Z" fill="#171D26"/>
<path fill-rule="evenodd" clip-rule="evenodd" d="M12.5 15H18C19.1046 15 20 14.1046 20 13V6C20 4.89543 19.1046 4 18 4H6C4.89543 4 4 4.89543 4 6V13C4 14.1046 4.89543 15 6 15H11.5V16.063C10.7971 16.2438 10.2438 16.7972 10.0629 17.5H4.5C4.22386 17.5 4 17.7239 4 18C4 18.2761 4.22386 18.5 4.5 18.5H10.0629C10.2849 19.3626 11.068 20 11.9999 20C12.9332 20 13.7172 19.3607 13.9378 18.4962C13.9582 18.4987 13.979 18.5 14 18.5L19.5 18.5C19.7761 18.5 20 18.2761 20 18C20 17.7239 19.7761 17.5 19.5 17.5L14 17.5C13.979 17.5 13.9582 17.5013 13.9378 17.5038C13.758 16.7992 13.204 16.2443 12.5 16.063V15ZM6 5H18C18.5523 5 19 5.44772 19 6V13C19 13.5523 18.5523 14 18 14H6C5.44772 14 5 13.5523 5 13V6C5 5.44772 5.44772 5 6 5ZM10.9999 18.0091C11.0048 18.5572 11.4506 19 11.9999 19C12.5522 19 12.9999 18.5523 12.9999 18C12.9999 17.4477 12.5522 17 11.9999 17C11.4506 17 11.0048 17.4428 10.9999 17.9909C11 17.9939 11 17.997 11 18C11 18.003 11 18.0061 10.9999 18.0091Z" fill="#171D26"/>
</svg>
