<svg width="24" height="24" viewBox="0 0 24 24" fill="none" xmlns="http://www.w3.org/2000/svg">
<path fill-rule="evenodd" clip-rule="evenodd" d="M4.5 12C4.5 8.13401 7.63401 5 11.5 5C14.4369 5 16.9526 6.80883 17.9914 9.37511C18.095 9.63107 18.3865 9.75458 18.6424 9.65097C18.8984 9.54736 19.0219 9.25586 18.9183 8.99989C17.7319 6.06898 14.8582 4 11.5 4C7.08172 4 3.5 7.58172 3.5 12C3.5 16.4183 7.08172 20 11.5 20C15.6847 20 19.1189 16.787 19.4704 12.6934L19.999 13.222C20.1943 13.4173 20.5109 13.4173 20.7061 13.222C20.9014 13.0267 20.9014 12.7102 20.7061 12.5149L19.3377 11.1464C19.1424 10.9512 18.8258 10.9512 18.6306 11.1464L17.2621 12.5149C17.0668 12.7102 17.0668 13.0267 17.2621 13.222C17.4574 13.4173 17.774 13.4173 17.9692 13.222L18.4625 12.7287C18.2936 14.3616 17.5634 15.828 16.468 16.9314C16.1857 14.4377 14.0692 12.5 11.5 12.5C8.93084 12.5 6.81425 14.4377 6.53198 16.9314C5.27597 15.6661 4.5 13.9237 4.5 12ZM7.5 17.7453C8.63383 18.5362 10.0128 19 11.5 19C12.9872 19 14.3662 18.5362 15.5 17.7453V17.5C15.5 15.2909 13.7091 13.5 11.5 13.5C9.29086 13.5 7.5 15.2909 7.5 17.5V17.7453Z" fill="#171D26"/>
<path fill-rule="evenodd" clip-rule="evenodd" d="M14 9C14 10.3807 12.8807 11.5 11.5 11.5C10.1193 11.5 9 10.3807 9 9C9 7.61929 10.1193 6.5 11.5 6.5C12.8807 6.5 14 7.61929 14 9ZM13 9C13 9.82843 12.3284 10.5 11.5 10.5C10.6716 10.5 10 9.82843 10 9C10 8.17157 10.6716 7.5 11.5 7.5C12.3284 7.5 13 8.17157 13 9Z" fill="#171D26"/>
</svg>
