<svg xmlns="http://www.w3.org/2000/svg" width="48" height="48" fill="none" viewBox="0 0 48 48">
  <mask id="a" fill="#fff">
    <path fill-rule="evenodd" d="M31.313 39.235C36.472 36.579 40 31.202 40 25c0-8.837-7.163-16-16-16S8 16.163 8 25c0 6.202 3.528 11.58 8.687 14.235l5.555-9.621a5.551 5.551 0 1 1 3.516 0l5.555 9.62Z" clip-rule="evenodd"/>
  </mask>
  <path fill="#3131FF" d="m31.313 39.235-1.732 1 .953 1.65 1.694-.872-.915-1.778Zm-14.626 0-.915 1.778 1.694.872.953-1.65-1.732-1Zm5.555-9.621 1.732 1 1.225-2.122-2.324-.775-.633 1.897Zm3.516 0-.633-1.897-2.324.775 1.225 2.122 1.732-1ZM38 25c0 5.424-3.084 10.13-7.603 12.457l1.831 3.556C38.027 38.028 42 31.98 42 25h-4ZM24 11c7.732 0 14 6.268 14 14h4c0-9.941-8.059-18-18-18v4ZM10 25c0-7.732 6.268-14 14-14V7C14.059 7 6 15.059 6 25h4Zm7.602 12.457C13.084 35.13 10 30.424 10 25H6c0 6.98 3.973 13.028 9.772 16.013l1.83-3.556Zm2.908-8.843-5.555 9.62 3.464 2 5.555-9.62-3.464-2Zm-4.061-4.267a7.554 7.554 0 0 0 5.16 7.164l1.266-3.794a3.554 3.554 0 0 1-2.426-3.37h-4Zm7.55-7.551a7.551 7.551 0 0 0-7.55 7.55h4a3.551 3.551 0 0 1 3.55-3.55v-4Zm7.552 7.55A7.55 7.55 0 0 0 24 16.796v4a3.551 3.551 0 0 1 3.55 3.55h4Zm-5.16 7.165a7.554 7.554 0 0 0 5.16-7.164h-4a3.554 3.554 0 0 1-2.426 3.37l1.266 3.794Zm6.654 6.724-5.555-9.621-3.464 2 5.555 9.62 3.464-2Z" mask="url(#a)"/>
</svg>
