<svg width="24" height="24" viewBox="0 0 24 24" fill="none" xmlns="http://www.w3.org/2000/svg">
<path d="M11.9984 4C12.2746 4 12.4984 4.22386 12.4984 4.5V5.5C12.4984 5.77614 12.2746 6 11.9984 6C11.7223 6 11.4984 5.77614 11.4984 5.5V4.5C11.4984 4.22386 11.7223 4 11.9984 4Z" fill="#171D26"/>
<path fill-rule="evenodd" clip-rule="evenodd" d="M11.9984 9.5C10.6177 9.5 9.49841 10.6193 9.49841 12C9.49841 13.3807 10.6177 14.5 11.9984 14.5C13.3791 14.5 14.4984 13.3807 14.4984 12C14.4984 10.6193 13.3791 9.5 11.9984 9.5ZM10.4984 12C10.4984 12.8284 11.17 13.5 11.9984 13.5C12.8268 13.5 13.4984 12.8284 13.4984 12C13.4984 11.1716 12.8268 10.5 11.9984 10.5C11.17 10.5 10.4984 11.1716 10.4984 12Z" fill="#171D26"/>
<path fill-rule="evenodd" clip-rule="evenodd" d="M20.4984 12C19.0423 14.9882 15.9755 17.0471 12.4277 17.0471H11.5707C8.02297 17.0471 4.95615 14.9882 3.5 12C4.95615 9.01182 8.02297 6.95285 11.5707 6.95285H12.4277C15.9755 6.95285 19.0423 9.01182 20.4984 12ZM15.722 15.3369C17.2612 14.6377 18.5394 13.4634 19.3689 12C18.5394 10.5366 17.2612 9.36224 15.722 8.66302C16.5157 9.54805 16.9984 10.7177 16.9984 12C16.9984 13.2823 16.5157 14.4519 15.722 15.3369ZM8.27371 15.3357C7.48071 14.4508 6.99841 13.2817 6.99841 12C6.99841 10.7182 7.48071 9.54914 8.27373 8.66426C6.73571 9.36362 5.45858 10.5374 4.62956 12C5.45858 13.4625 6.7357 14.6364 8.27371 15.3357ZM7.99841 12C7.99841 14.2091 9.78927 16 11.9984 16C14.2076 16 15.9984 14.2091 15.9984 12C15.9984 9.79086 14.2076 8 11.9984 8C9.78927 8 7.99841 9.79086 7.99841 12Z" fill="#171D26"/>
<path d="M8.93146 4.80859C8.79338 4.56945 8.48759 4.48751 8.24844 4.62558C8.0093 4.76365 7.92736 5.06945 8.06543 5.30859L8.59671 6.22879C8.73478 6.46794 9.04057 6.54988 9.27972 6.41181C9.51887 6.27374 9.6008 5.96794 9.46273 5.72879L8.93146 4.80859Z" fill="#171D26"/>
<path d="M15.6864 4.62558C15.9255 4.76365 16.0075 5.06945 15.8694 5.30859L15.3381 6.22879C15.2 6.46794 14.8942 6.54988 14.6551 6.41181C14.4159 6.27374 14.334 5.96794 14.4721 5.72879L15.0034 4.80859C15.1414 4.56945 15.4472 4.48751 15.6864 4.62558Z" fill="#171D26"/>
<path d="M12.4984 18.5C12.4984 18.2239 12.2746 18 11.9984 18C11.7223 18 11.4984 18.2239 11.4984 18.5V19.5C11.4984 19.7761 11.7223 20 11.9984 20C12.2746 20 12.4984 19.7761 12.4984 19.5V18.5Z" fill="#171D26"/>
<path d="M14.7014 17.567C14.9405 17.4289 15.2463 17.5109 15.3844 17.75L15.9157 18.6702C16.0537 18.9093 15.9718 19.2151 15.7327 19.3532C15.4935 19.4913 15.1877 19.4093 15.0497 19.1702L14.5184 18.25C14.3803 18.0109 14.4622 17.7051 14.7014 17.567Z" fill="#171D26"/>
<path d="M9.46271 18.2712C9.60078 18.0321 9.51884 17.7263 9.27969 17.5882C9.04055 17.4501 8.73475 17.5321 8.59668 17.7712L8.0654 18.6914C7.92733 18.9306 8.00927 19.2364 8.24841 19.3744C8.48756 19.5125 8.79336 19.4306 8.93143 19.1914L9.46271 18.2712Z" fill="#171D26"/>
</svg>
