<svg width="24" height="24" viewBox="0 0 24 24" fill="none" xmlns="http://www.w3.org/2000/svg">
<path fill-rule="evenodd" clip-rule="evenodd" d="M12 3.4707L12.1637 3.5274C14.6615 4.3927 16.4999 6.49217 16.4999 9.02048C16.4999 9.02357 16.5 9.02747 16.5 9.03192C16.5 9.04509 16.5 9.06309 16.4999 9.07946V16.4999H13.3333V15.4999H15.4999V9.07074C15.5 9.06122 15.5 9.05338 15.5 9.04245C15.5 9.03636 15.4999 9.02931 15.4999 9.02048C15.4999 7.06733 14.1062 5.32296 12 4.5314C9.89387 5.32296 8.5001 7.06733 8.5001 9.02048C8.5001 9.03188 8.50006 9.03986 8.50003 9.0464C8.49999 9.05554 8.49996 9.06186 8.50006 9.07073L8.50014 9.07678L8.5001 15.4999H10.6667V16.4999H7.5001V9.07945C7.49995 9.06336 7.50002 9.04423 7.50007 9.03139C7.50009 9.02681 7.5001 9.02304 7.5001 9.02048C7.5001 6.49217 9.33853 4.39269 11.8364 3.5274L12 3.4707Z" fill="#171D26"/>
<path fill-rule="evenodd" clip-rule="evenodd" d="M12 18.4999C12.2761 18.4999 12.5 18.7237 12.5 18.9999V20.4999C12.5 20.776 12.2761 20.9999 12 20.9999C11.7239 20.9999 11.5 20.776 11.5 20.4999V18.9999C11.5 18.7237 11.7239 18.4999 12 18.4999Z" fill="#171D26"/>
<path fill-rule="evenodd" clip-rule="evenodd" d="M14.5 17.9999C14.7761 17.9999 15 18.2237 15 18.4999V19.4999C15 19.776 14.7761 19.9999 14.5 19.9999C14.2239 19.9999 14 19.776 14 19.4999V18.4999C14 18.2237 14.2239 17.9999 14.5 17.9999Z" fill="#171D26"/>
<path fill-rule="evenodd" clip-rule="evenodd" d="M9.5 17.9999C9.77614 17.9999 10 18.2237 10 18.4999V19.4999C10 19.776 9.77614 19.9999 9.5 19.9999C9.22386 19.9999 9 19.776 9 19.4999V18.4999C9 18.2237 9.22386 17.9999 9.5 17.9999Z" fill="#171D26"/>
<path fill-rule="evenodd" clip-rule="evenodd" d="M12 9.99985C12.5523 9.99985 13 9.55214 13 8.99985C13 8.44757 12.5523 7.99985 12 7.99985C11.4477 7.99985 11 8.44757 11 8.99985C11 9.55214 11.4477 9.99985 12 9.99985ZM12 10.9999C13.1046 10.9999 14 10.1044 14 8.99985C14 7.89529 13.1046 6.99985 12 6.99985C10.8954 6.99985 10 7.89529 10 8.99985C10 10.1044 10.8954 10.9999 12 10.9999Z" fill="#171D26"/>
<path fill-rule="evenodd" clip-rule="evenodd" d="M7.5 13.0942C7.7942 13.0324 8.09918 12.9999 8.41176 12.9999H8.5V16.4999C8.5 17.0521 8.05228 17.4999 7.5 17.4999H4.08824C4.0395 17.4999 4 17.4604 4 17.4116C4 17.1095 4.03037 16.8144 4.08824 16.5293C4.09023 16.5195 4.09226 16.5097 4.09432 16.4999C4.45256 14.795 5.79513 13.4524 7.5 13.0942ZM5.12319 16.4999C5.44171 15.3485 6.34865 14.4416 7.5 14.123L7.5001 16.4999H5.12319Z" fill="#171D26"/>
<path fill-rule="evenodd" clip-rule="evenodd" d="M16.5 13.0942C16.2058 13.0324 15.9008 12.9999 15.5882 12.9999H15.5V16.4999C15.5 17.0521 15.9477 17.4999 16.5 17.4999H19.9118C19.9605 17.4999 20 17.4604 20 17.4116C20 17.1095 19.9696 16.8144 19.9118 16.5293C19.9098 16.5195 19.9077 16.5097 19.9057 16.4999C19.5474 14.795 18.2049 13.4524 16.5 13.0942ZM18.8768 16.4999C18.5583 15.3485 17.6514 14.4416 16.5 14.123L16.4999 16.4999H18.8768Z" fill="#171D26"/>
<path fill-rule="evenodd" clip-rule="evenodd" d="M12.5 16.4999V14.4999C12.5 14.2237 12.2761 13.9999 12 13.9999C11.7239 13.9999 11.5 14.2237 11.5 14.4999V16.4999H12.5ZM12 12.9999C11.1716 12.9999 10.5 13.6714 10.5 14.4999V17.4116C10.5 17.4604 10.5395 17.4999 10.5882 17.4999H13.4118C13.4605 17.4999 13.5 17.4604 13.5 17.4116V14.4999C13.5 13.6714 12.8284 12.9999 12 12.9999Z" fill="#171D26"/>
</svg>
