<svg width="24" height="24" viewBox="0 0 24 24" fill="none" xmlns="http://www.w3.org/2000/svg">
<path d="M9 4C9.27614 4 9.5 4.22386 9.5 4.5C9.5 4.77614 9.27614 5 9 5H5.5C5.22386 5 5 5.22386 5 5.5V9C5 9.27614 4.77614 9.5 4.5 9.5C4.22386 9.5 4 9.27614 4 9V5.5C4 4.67157 4.67157 4 5.5 4H9Z" fill="#171D26"/>
<path d="M15 4C14.7239 4 14.5 4.22386 14.5 4.5C14.5 4.77614 14.7239 5 15 5H18.5C18.7761 5 19 5.22386 19 5.5V9C19 9.27614 19.2239 9.5 19.5 9.5C19.7761 9.5 20 9.27614 20 9V5.5C20 4.67157 19.3284 4 18.5 4H15Z" fill="#171D26"/>
<path d="M9.5 19.5C9.5 19.7761 9.27614 20 9 20H5.5C4.67157 20 4 19.3284 4 18.5V15C4 14.7239 4.22386 14.5 4.5 14.5C4.77614 14.5 5 14.7239 5 15V18.5C5 18.7761 5.22386 19 5.5 19H9C9.27614 19 9.5 19.2239 9.5 19.5Z" fill="#171D26"/>
<path d="M15 20C14.7239 20 14.5 19.7761 14.5 19.5C14.5 19.2239 14.7239 19 15 19H18.5C18.7761 19 19 18.7761 19 18.5V15C19 14.7239 19.2239 14.5 19.5 14.5C19.7761 14.5 20 14.7239 20 15V18.5C20 19.3284 19.3284 20 18.5 20H15Z" fill="#171D26"/>
<path fill-rule="evenodd" clip-rule="evenodd" d="M9.52666 8.81955C10.204 8.57232 10.9354 8.43742 11.6983 8.43742H12.3033C14.8075 8.43742 16.9722 9.89076 18 12C17.4406 13.1481 16.5443 14.1018 15.4397 14.7326L16.8536 16.1464C17.0488 16.3417 17.0488 16.6583 16.8536 16.8536C16.6583 17.0488 16.3417 17.0488 16.1464 16.8536L14.4737 15.1809C13.7967 15.4278 13.0657 15.5625 12.3033 15.5625H11.6983C9.19415 15.5625 7.02942 14.1092 6.00159 12C6.56087 10.8523 7.45678 9.89876 8.56082 9.26793L7.14645 7.85355C6.95118 7.65829 6.95118 7.34171 7.14645 7.14645C7.34171 6.95118 7.65829 6.95118 7.85355 7.14645L9.52666 8.81955ZM10.6462 11.3533C10.5525 11.5491 10.5 11.7684 10.5 12C10.5 12.8284 11.1716 13.5 12 13.5C12.2316 13.5 12.4509 13.4475 12.6467 13.3538L13.3787 14.0858C12.9835 14.3476 12.5095 14.5 12 14.5C10.6193 14.5 9.5 13.3807 9.5 12C9.5 11.4905 9.65244 11.0165 9.9142 10.6213L10.6462 11.3533ZM13.3538 12.6467C13.4475 12.4509 13.5 12.2316 13.5 12C13.5 11.1716 12.8284 10.5 12 10.5C11.7684 10.5 11.5491 10.5525 11.3533 10.6462L10.6213 9.9142C11.0165 9.65244 11.4905 9.5 12 9.5C13.3807 9.5 14.5 10.6193 14.5 12C14.5 12.5095 14.3476 12.9835 14.0858 13.3787L13.3538 12.6467ZM8.5 12C8.5 11.3226 8.69246 10.6901 9.02569 10.1542C8.25381 10.602 7.60431 11.238 7.14004 12C7.6043 12.762 8.25379 13.3979 9.02565 13.8457C8.69245 13.3099 8.5 12.6774 8.5 12ZM14.9734 10.1528C15.3072 10.6889 15.5 11.322 15.5 12C15.5 12.678 15.3072 13.311 14.9734 13.8472C15.7464 13.3993 16.3968 12.7628 16.8616 12C16.3968 11.2371 15.7464 10.6006 14.9734 10.1528Z" fill="#171D26"/>
</svg>
