<svg width="24" height="24" viewBox="0 0 24 24" fill="none" xmlns="http://www.w3.org/2000/svg">
<path fill-rule="evenodd" clip-rule="evenodd" d="M7.41465 5.5C7.20873 6.0826 6.65311 6.5 6 6.5C5.17157 6.5 4.5 5.82843 4.5 5C4.5 4.17157 5.17157 3.5 6 3.5C6.65311 3.5 7.20873 3.9174 7.41465 4.5H8.52778C9.34086 4.5 10 5.15914 10 5.97222V6.1472L11.7579 5.13222C12.0633 4.95593 12.4367 4.95593 12.7421 5.13222L14.5 6.1472V5.97222C14.5 5.15914 15.1591 4.5 15.9722 4.5H17.0854C17.2913 3.9174 17.8469 3.5 18.5 3.5C19.3284 3.5 20 4.17157 20 5C20 5.82843 19.3284 6.5 18.5 6.5C17.8469 6.5 17.2913 6.0826 17.0854 5.5H15.9722C15.7114 5.5 15.5 5.71142 15.5 5.97222V6.72457L17.9921 8.1634C18.3059 8.34462 18.5 8.68439 18.5 9.05268V15.0778C18.5 15.446 18.3059 15.7858 17.9921 15.967L15.5 17.4059V18.0278C15.5 18.2886 15.7114 18.5 15.9722 18.5H17.0854C17.2913 17.9174 17.8469 17.5 18.5 17.5C19.3284 17.5 20 18.1716 20 19C20 19.8284 19.3284 20.5 18.5 20.5C17.8469 20.5 17.2913 20.0826 17.0854 19.5H15.9722C15.1591 19.5 14.5 18.8409 14.5 18.0278V17.9832L12.7421 18.9982C12.4367 19.1745 12.0633 19.1745 11.7579 18.9982L10 17.9832V18.0278C10 18.8409 9.34086 19.5 8.52778 19.5H7.41465C7.20873 20.0826 6.65311 20.5 6 20.5C5.17157 20.5 4.5 19.8284 4.5 19C4.5 18.1716 5.17157 17.5 6 17.5C6.65311 17.5 7.20873 17.9174 7.41465 18.5H8.52778C8.78858 18.5 9 18.2886 9 18.0278V17.4059L6.50794 15.967C6.19407 15.7858 6 15.446 6 15.0778V9.05268C6 8.68439 6.19407 8.34462 6.50794 8.1634L9 6.72457V5.97222C9 5.71142 8.78858 5.5 8.52778 5.5H7.41465ZM6 5.5C6.27614 5.5 6.5 5.27614 6.5 5C6.5 4.72386 6.27614 4.5 6 4.5C5.72386 4.5 5.5 4.72386 5.5 5C5.5 5.27614 5.72386 5.5 6 5.5ZM12.25 6.00283L7.55964 8.7109L11.9577 11.0641C12.0643 11.1212 12.1622 11.1901 12.25 11.2686C12.3378 11.1901 12.4357 11.1212 12.5423 11.0641L16.9404 8.7109L12.25 6.00283ZM17.5 9.5456L13.0141 11.9459C12.8515 12.0329 12.75 12.2023 12.75 12.3867L12.75 17.8389L17.492 15.1011C17.492 15.1011 17.4937 15.0995 17.4954 15.0966C17.4979 15.0921 17.5 15.0858 17.5 15.0778V9.5456ZM7 15.0778V9.5456L11.4859 11.9459C11.6485 12.0329 11.75 12.2023 11.75 12.3867V17.8389L7.00804 15.1011C7.00804 15.1011 7.00628 15.0995 7.0046 15.0966C7.00208 15.0921 7 15.0858 7 15.0778ZM18.5 5.5C18.2239 5.5 18 5.27614 18 5C18 4.72386 18.2239 4.5 18.5 4.5C18.7761 4.5 19 4.72386 19 5C19 5.27614 18.7761 5.5 18.5 5.5ZM6 18.5C6.27614 18.5 6.5 18.7239 6.5 19C6.5 19.2761 6.27614 19.5 6 19.5C5.72386 19.5 5.5 19.2761 5.5 19C5.5 18.7239 5.72386 18.5 6 18.5ZM18.5 18.5C18.2239 18.5 18 18.7239 18 19C18 19.2761 18.2239 19.5 18.5 19.5C18.7761 19.5 19 19.2761 19 19C19 18.7239 18.7761 18.5 18.5 18.5Z" fill="#171D26"/>
</svg>
