<svg width="24" height="24" viewBox="0 0 24 24" fill="none" xmlns="http://www.w3.org/2000/svg">
<path fill-rule="evenodd" clip-rule="evenodd" d="M10.0403 3.74794C10.636 3.41735 11.364 3.41735 11.9597 3.74794L17.5064 6.82624C18.8312 7.56148 18.8312 9.43852 17.5064 10.1738L17.369 10.25L17.5064 10.3262C18.4878 10.8709 18.7422 12.0422 18.2695 12.9117C19.5911 13.5646 20.5 14.9262 20.5 16.5C20.5 18.7091 18.7092 20.5 16.5 20.5C15.3868 20.5 14.3798 20.0453 13.6547 19.3114L11.9597 20.2521C11.364 20.5826 10.636 20.5826 10.0403 20.2521L4.4936 17.1738C3.1688 16.4385 3.1688 14.5615 4.4936 13.8262L4.63098 13.75L4.4936 13.6738C3.1688 12.9385 3.1688 11.0615 4.4936 10.3262L4.63098 10.25L4.4936 10.1738C3.1688 9.43852 3.1688 7.56148 4.4936 6.82624L10.0403 3.74794ZM11.4744 4.62231L17.0211 7.70061C17.6596 8.05495 17.6596 8.94505 17.0211 9.29939L11.4744 12.3777C11.1806 12.5408 10.8194 12.5408 10.5256 12.3777L4.97886 9.29939C4.34038 8.94505 4.34038 8.05495 4.97886 7.70061L10.5256 4.62231C10.8194 4.45923 11.1806 4.45923 11.4744 4.62231ZM13.0402 18.5087C12.6967 17.9184 12.5 17.2322 12.5 16.5C12.5 16.484 12.5001 16.468 12.5003 16.452L11.9597 16.7521C11.364 17.0826 10.636 17.0826 10.0403 16.7521L5.66136 14.3218L4.97886 14.7006C4.34038 15.055 4.34038 15.945 4.97886 16.2994L10.5256 19.3777C10.8194 19.5408 11.1806 19.5408 11.4744 19.3777L13.0402 18.5087ZM12.7209 15.1859C13.2645 13.6223 14.7512 12.5 16.5 12.5C16.7708 12.5 17.0352 12.5269 17.2908 12.5782C17.6413 12.1586 17.5514 11.4949 17.0211 11.2006L16.3386 10.8218L11.9597 13.2521C11.364 13.5826 10.636 13.5826 10.0403 13.2521L5.66136 10.8218L4.97886 11.2006C4.34038 11.555 4.34038 12.445 4.97886 12.7994L10.5256 15.8777C10.8194 16.0408 11.1806 16.0408 11.4744 15.8777L12.7209 15.1859ZM18.4806 15.012C18.7039 15.1744 18.7533 15.4871 18.5909 15.7105L17.0892 17.7752C16.7474 18.2453 16.0782 18.3259 15.6346 17.9505L14.8636 17.2981C14.6527 17.1197 14.6265 16.8042 14.8048 16.5934C14.9832 16.3826 15.2987 16.3563 15.5095 16.5347L16.2805 17.1871L17.7822 15.1223C17.9446 14.899 18.2573 14.8496 18.4806 15.012Z" fill="#171D26"/>
</svg>
