<svg width="24" height="24" viewBox="0 0 24 24" fill="none" xmlns="http://www.w3.org/2000/svg">
<path fill-rule="evenodd" clip-rule="evenodd" d="M6.5 7C6.5 6.72386 6.72386 6.5 7 6.5H17C17.2761 6.5 17.5 6.72386 17.5 7V12C17.5 12.2761 17.2761 12.5 17 12.5H7C6.72386 12.5 6.5 12.2761 6.5 12V7ZM7.5 7.80902L10.882 9.5L7.5 11.191V7.80902ZM14.882 11.5L12 10.059L9.11803 11.5H14.882ZM13.118 9.5L16.5 11.191V7.80901L13.118 9.5ZM14.882 7.5H9.11803L12 8.94098L14.882 7.5Z" fill="#171D26"/>
<path d="M6.5 14.5C6.5 14.2239 6.72386 14 7 14H17C17.2761 14 17.5 14.2239 17.5 14.5C17.5 14.7761 17.2761 15 17 15H7C6.72386 15 6.5 14.7761 6.5 14.5Z" fill="#171D26"/>
<path d="M7 16.5C6.72386 16.5 6.5 16.7239 6.5 17C6.5 17.2761 6.72386 17.5 7 17.5H17C17.2761 17.5 17.5 17.2761 17.5 17C17.5 16.7239 17.2761 16.5 17 16.5H7Z" fill="#171D26"/>
<path fill-rule="evenodd" clip-rule="evenodd" d="M4 6C4 4.89543 4.89543 4 6 4H18C19.1046 4 20 4.89543 20 6V18C20 19.1046 19.1046 20 18 20H6C4.89543 20 4 19.1046 4 18V6ZM6 5H18C18.5523 5 19 5.44772 19 6V18C19 18.5523 18.5523 19 18 19H6C5.44772 19 5 18.5523 5 18V6C5 5.44772 5.44772 5 6 5Z" fill="#171D26"/>
</svg>
