<svg width="24" height="24" viewBox="0 0 24 24" fill="none" xmlns="http://www.w3.org/2000/svg">
<path fill-rule="evenodd" clip-rule="evenodd" d="M13.4607 5.34269C13.4864 5.23263 13.5 5.1179 13.5 5C13.5 4.17157 12.8284 3.5 12 3.5C11.1716 3.5 10.5 4.17157 10.5 5C10.5 5.1179 10.5136 5.23263 10.5393 5.34269L7.00181 7.38357C6.73621 7.14508 6.38505 7 6 7C5.17157 7 4.5 7.67157 4.5 8.5C4.5 9.15311 4.9174 9.70873 5.5 9.91465V14.0854C4.9174 14.2913 4.5 14.8469 4.5 15.5C4.5 16.3284 5.17157 17 6 17C6.38505 17 6.73622 16.8549 7.00182 16.6164L10.5393 18.6573C10.5136 18.7674 10.5 18.8821 10.5 19C10.5 19.8284 11.1716 20.5 12 20.5C12.8284 20.5 13.5 19.8284 13.5 19C13.5 18.8821 13.4864 18.7674 13.4607 18.6573L16.9982 16.6164C17.2638 16.8549 17.6149 17 18 17C18.8284 17 19.5 16.3284 19.5 15.5C19.5 14.8469 19.0826 14.2913 18.5 14.0854V9.91465C19.0826 9.70873 19.5 9.15311 19.5 8.5C19.5 7.67157 18.8284 7 18 7C17.615 7 17.2638 7.14508 16.9982 7.38357L13.4607 5.34269ZM12.5 5C12.5 5.27614 12.2761 5.5 12 5.5C11.7239 5.5 11.5 5.27614 11.5 5C11.5 4.72386 11.7239 4.5 12 4.5C12.2761 4.5 12.5 4.72386 12.5 5ZM11.0803 6.18507C11.2058 6.28261 11.3472 6.36065 11.5 6.41465V10.5854C11.3266 10.6466 11.1678 10.7389 11.0303 10.8555L7.47375 8.78085C7.49098 8.68987 7.5 8.59599 7.5 8.5C7.5 8.41884 7.49355 8.33918 7.48115 8.26151L11.0803 6.18507ZM12.5 6.41465C12.6528 6.36065 12.7942 6.28261 12.9197 6.18507L16.5189 8.26151C16.5064 8.33918 16.5 8.41884 16.5 8.5C16.5 8.59599 16.509 8.68987 16.5262 8.78085L12.9697 10.8555C12.8322 10.7389 12.6734 10.6466 12.5 10.5854V6.41465ZM10.5262 11.7192L6.96965 9.6445C6.83217 9.76109 6.6734 9.85336 6.5 9.91465V14.0854C6.67341 14.1466 6.83218 14.2389 6.96967 14.3555L10.5262 12.2808C10.509 12.1899 10.5 12.096 10.5 12C10.5 11.904 10.509 11.8101 10.5262 11.7192ZM13.4738 12.2809C13.491 12.1899 13.5 12.096 13.5 12C13.5 11.904 13.491 11.8101 13.4738 11.7192L17.0303 9.64449C17.1678 9.76109 17.3266 9.85336 17.5 9.91465V14.0854C17.3266 14.1466 17.1678 14.2389 17.0303 14.3555L13.4738 12.2809ZM12.5 13.4146C12.6734 13.3534 12.8322 13.2611 12.9697 13.1445L16.5262 15.2192C16.509 15.3101 16.5 15.404 16.5 15.5C16.5 15.5812 16.5064 15.6608 16.5189 15.7385L12.9197 17.8149C12.7942 17.7174 12.6528 17.6393 12.5 17.5854V13.4146ZM11.0303 13.1445C11.1678 13.2611 11.3266 13.3534 11.5 13.4146V17.5854C11.3472 17.6393 11.2058 17.7174 11.0803 17.8149L7.48115 15.7385C7.49355 15.6608 7.5 15.5812 7.5 15.5C7.5 15.404 7.49099 15.3101 7.47376 15.2192L11.0303 13.1445ZM12.5 12C12.5 12.2761 12.2761 12.5 12 12.5C11.7239 12.5 11.5 12.2761 11.5 12C11.5 11.7239 11.7239 11.5 12 11.5C12.2761 11.5 12.5 11.7239 12.5 12ZM12 19.5C12.2761 19.5 12.5 19.2761 12.5 19C12.5 18.7239 12.2761 18.5 12 18.5C11.7239 18.5 11.5 18.7239 11.5 19C11.5 19.2761 11.7239 19.5 12 19.5ZM18.5 8.5C18.5 8.77614 18.2761 9 18 9C17.7239 9 17.5 8.77614 17.5 8.5C17.5 8.22386 17.7239 8 18 8C18.2761 8 18.5 8.22386 18.5 8.5ZM18 16C18.2761 16 18.5 15.7761 18.5 15.5C18.5 15.2239 18.2761 15 18 15C17.7239 15 17.5 15.2239 17.5 15.5C17.5 15.7761 17.7239 16 18 16ZM6.5 8.5C6.5 8.77614 6.27614 9 6 9C5.72386 9 5.5 8.77614 5.5 8.5C5.5 8.22386 5.72386 8 6 8C6.27614 8 6.5 8.22386 6.5 8.5ZM6 16C6.27614 16 6.5 15.7761 6.5 15.5C6.5 15.2239 6.27614 15 6 15C5.72386 15 5.5 15.2239 5.5 15.5C5.5 15.7761 5.72386 16 6 16Z" fill="#171D26"/>
</svg>
