<svg width="24" height="24" viewBox="0 0 24 24" fill="none" xmlns="http://www.w3.org/2000/svg">
<path d="M16.2942 12.5956C16.5175 12.7581 16.5669 13.0708 16.4045 13.2941L14.9028 15.3589C14.561 15.8289 13.8918 15.9095 13.4482 15.5341L12.6772 14.8817C12.4664 14.7033 12.4401 14.3878 12.6184 14.177C12.7968 13.9662 13.1123 13.9399 13.3231 14.1183L14.0941 14.7707L15.5958 12.7059C15.7582 12.4826 16.0709 12.4332 16.2942 12.5956Z" fill="#171D26"/>
<path d="M9.50012 8C9.22398 8 9.00012 8.22386 9.00012 8.5C9.00012 8.77614 9.22398 9 9.50012 9L16.0001 9C16.2763 9 16.5001 8.77614 16.5001 8.5C16.5001 8.22386 16.2763 8 16.0001 8L9.50012 8Z" fill="#171D26"/>
<path d="M9.00012 11C9.00012 10.7239 9.22398 10.5 9.50012 10.5L16.0001 10.5C16.2763 10.5 16.5001 10.7239 16.5001 11C16.5001 11.2761 16.2763 11.5 16.0001 11.5L9.50012 11.5C9.22398 11.5 9.00012 11.2761 9.00012 11Z" fill="#171D26"/>
<path fill-rule="evenodd" clip-rule="evenodd" d="M17.0001 3C18.1047 3 19.0001 3.89543 19.0001 5V16C19.0001 17.1046 18.1047 18 17.0001 18H8.50012C7.39555 18 6.50012 17.1046 6.50012 16V5C6.50012 3.89543 7.39555 3 8.50012 3H17.0001ZM15.5001 4H17.0001C17.5524 4 18.0001 4.44772 18.0001 5V16C18.0001 16.5523 17.5524 17 17.0001 17H8.50012C7.94784 17 7.50012 16.5523 7.50012 16V5C7.50012 4.44772 7.94784 4 8.50012 4L10.0001 4V5C10.0001 5.55228 10.4478 6 11.0001 6H14.5001C15.0524 6 15.5001 5.55228 15.5001 5V4ZM14.5001 4H11.0001V5H14.5001V4Z" fill="#171D26"/>
<path d="M5.5 6C5.5 5.72386 5.27614 5.5 5 5.5C4.72386 5.5 4.5 5.72386 4.5 6V16.5C4.5 18.433 6.067 20 8 20H16.0001C16.2762 20 16.5001 19.7761 16.5001 19.5C16.5001 19.2239 16.2762 19 16.0001 19H8C6.61929 19 5.5 17.8807 5.5 16.5V6Z" fill="#171D26"/>
</svg>
