<svg width="24" height="24" viewBox="0 0 24 24" fill="none" xmlns="http://www.w3.org/2000/svg">
<path fill-rule="evenodd" clip-rule="evenodd" d="M12.9223 9.23156L12.8569 9.16618L12.0578 9.96528L19.5602 17.4676C20.1488 18.0563 20.1488 19.0106 19.5602 19.5993C18.9716 20.1879 18.0172 20.1879 17.4286 19.5993L9.92621 12.0969L9.11961 12.9035L9.18499 12.9689C9.57551 13.3594 9.57551 13.9926 9.18499 14.3831L8.36064 15.2074C7.97012 15.5979 7.33695 15.5979 6.94643 15.2074L3.79289 12.0539C3.40237 11.6634 3.40237 11.0302 3.79289 10.6397L4.61724 9.81533C4.9463 9.48626 5.44765 9.43447 5.83094 9.65997C5.8354 9.65532 5.83992 9.65072 5.8445 9.64614L9.60707 5.88358L9.61332 5.87738C9.38791 5.49411 9.43973 4.99284 9.76875 4.66381L10.6006 3.83196C10.9911 3.44143 11.6243 3.44143 12.0148 3.83196L15.1684 6.98549C15.5589 7.37602 15.5589 8.00918 15.1684 8.3997L14.3365 9.23156C13.946 9.62209 13.3128 9.62209 12.9223 9.23156ZM10.4759 5.37092L11.3077 4.53906L14.4613 7.6926L13.6294 8.52446L13.0089 7.90399C12.9707 7.8443 12.9255 7.78778 12.8733 7.73559L11.0213 5.88358C10.9691 5.83139 10.9126 5.78617 10.8529 5.74793L10.4759 5.37092ZM12.1498 8.45908L10.2978 6.60706L6.56049 10.3444L8.4125 12.1964L12.1498 8.45908ZM10.6333 11.3898L11.3507 10.6724L18.8531 18.1747C19.0512 18.3729 19.0512 18.694 18.8531 18.8921C18.655 19.0903 18.3338 19.0903 18.1357 18.8921L10.6333 11.3898ZM5.8445 11.0604C5.80624 11.0221 5.77174 10.9815 5.74098 10.9391L5.32435 10.5224L4.5 11.3468L7.65354 14.5003L8.47788 13.676L7.81781 13.0159C7.77535 12.9851 7.73477 12.9506 7.69651 12.9124L5.8445 11.0604Z" fill="#171D26"/>
<path fill-rule="evenodd" clip-rule="evenodd" d="M3.58578 18.5001C3.58578 17.6717 4.25736 17.0001 5.08578 17.0001H9.08578C9.91421 17.0001 10.5858 17.6717 10.5858 18.5001C10.5858 19.3285 9.91421 20.0001 9.08578 20.0001H5.08579C4.25736 20.0001 3.58578 19.3285 3.58578 18.5001ZM5.08578 18.0001H9.08578C9.36193 18.0001 9.58578 18.224 9.58578 18.5001C9.58578 18.7762 9.36193 19.0001 9.08578 19.0001H5.08579C4.80964 19.0001 4.58578 18.7762 4.58578 18.5001C4.58578 18.224 4.80964 18.0001 5.08578 18.0001Z" fill="#171D26"/>
</svg>
