<svg width="24" height="24" viewBox="0 0 24 24" fill="none" xmlns="http://www.w3.org/2000/svg">
<path fill-rule="evenodd" clip-rule="evenodd" d="M5.5 8.99998H5C4.72386 8.99998 4.5 8.77612 4.5 8.49998V7.42547C4.5 7.23339 4.61003 7.0583 4.78308 6.97497L11.5662 3.70887C11.8403 3.57686 12.1597 3.57686 12.4338 3.70887L19.2169 6.97497C19.39 7.0583 19.5 7.23339 19.5 7.42547V8.49998C19.5 8.77612 19.2761 8.99998 19 8.99998H18.5V9.99997C18.5 10.5523 18.0523 11 17.5 11V17H18C18.5523 17 19 17.4477 19 18V20H5V18C5 17.4477 5.44772 17 6 17H6.5V11C5.94772 11 5.5 10.5523 5.5 9.99997V8.99998ZM12 4.60986L18.5 7.73966V7.99998H17.5038C17.5025 7.99997 17.5013 7.99997 17.5 7.99997H6.5C6.49873 7.99997 6.49745 7.99997 6.49618 7.99998H5.5V7.73966L12 4.60986ZM6.5 8.99998V9.99997H17.5V8.99998H6.5ZM7.5 11V17H9.5V11H7.5ZM6 19V18H18V19H6ZM10.5 17V11H13.5V17H10.5ZM14.5 11V17H16.5V11H14.5Z" fill="#171D26"/>
</svg>
