<svg width="24" height="24" viewBox="0 0 24 24" fill="none" xmlns="http://www.w3.org/2000/svg">
<path d="M8 4.5C8 4.22386 7.77614 4 7.5 4H5.5C4.67157 4 4 4.67157 4 5.5V7.5C4 7.77614 4.22386 8 4.5 8C4.77614 8 5 7.77614 5 7.5V5.5C5 5.22386 5.22386 5 5.5 5H7.5C7.77614 5 8 4.77614 8 4.5Z" fill="#171D26"/>
<path fill-rule="evenodd" clip-rule="evenodd" d="M16 7.5C16.2761 7.5 16.5 7.72386 16.5 8V10.1783C16.5 10.359 16.4025 10.5256 16.245 10.6141L13.755 12.0136C13.5975 12.1021 13.5 12.2688 13.5 12.4495V15.2055C13.5 15.4101 13.3754 15.5941 13.1853 15.6699L11.1853 16.4681C10.857 16.5992 10.5 16.3573 10.5 16.0037V12.4495C10.5 12.2688 10.4025 12.1021 10.245 12.0136L7.75502 10.6141C7.5975 10.5256 7.5 10.359 7.5 10.1783V8C7.5 7.72386 7.72386 7.5 8 7.5H16ZM8.5 8.5V9.88572L10.7349 11.1419C11.2075 11.4075 11.5 11.9074 11.5 12.4495V15.2658L12.5 14.8667V12.4495C12.5 11.9074 12.7925 11.4075 13.2651 11.1419L15.5 9.88572V8.5H8.5Z" fill="#171D26"/>
<path d="M7.5 20C7.77614 20 8 19.7761 8 19.5C8 19.2239 7.77614 19 7.5 19H5.5C5.22386 19 5 18.7761 5 18.5V16.5C5 16.2239 4.77614 16 4.5 16C4.22386 16 4 16.2239 4 16.5V18.5C4 19.3284 4.67157 20 5.5 20H7.5Z" fill="#171D26"/>
<path d="M4.5 10C4.77614 10 5 10.2239 5 10.5V13.5C5 13.7761 4.77614 14 4.5 14C4.22386 14 4 13.7761 4 13.5V10.5C4 10.2239 4.22386 10 4.5 10Z" fill="#171D26"/>
<path d="M13.5 5C13.7761 5 14 4.77614 14 4.5C14 4.22386 13.7761 4 13.5 4H10.5C10.2239 4 10 4.22386 10 4.5C10 4.77614 10.2239 5 10.5 5L13.5 5Z" fill="#171D26"/>
<path d="M14 19.5C14 19.7761 13.7761 20 13.5 20H10.5C10.2239 20 10 19.7761 10 19.5C10 19.2239 10.2239 19 10.5 19H13.5C13.7761 19 14 19.2239 14 19.5Z" fill="#171D26"/>
<path d="M16.5 4C16.2239 4 16 4.22386 16 4.5C16 4.77614 16.2239 5 16.5 5H18.5C18.7761 5 19 5.22386 19 5.5V7.5C19 7.77614 19.2239 8 19.5 8C19.7761 8 20 7.77614 20 7.5V5.5C20 4.67157 19.3284 4 18.5 4H16.5Z" fill="#171D26"/>
<path d="M16 19.5C16 19.7761 16.2239 20 16.5 20H18.5C19.3284 20 20 19.3284 20 18.5V16.5C20 16.2239 19.7761 16 19.5 16C19.2239 16 19 16.2239 19 16.5V18.5C19 18.7761 18.7761 19 18.5 19H16.5C16.2239 19 16 19.2239 16 19.5Z" fill="#171D26"/>
<path d="M19 10.5C19 10.2239 19.2239 10 19.5 10C19.7761 10 20 10.2239 20 10.5V13.5C20 13.7761 19.7761 14 19.5 14C19.2239 14 19 13.7761 19 13.5V10.5Z" fill="#171D26"/>
</svg>
