<svg width="24" height="24" viewBox="0 0 24 24" fill="none" xmlns="http://www.w3.org/2000/svg">
<path d="M8 4.5C8 4.22386 7.77614 4 7.5 4H5.5C4.67157 4 4 4.67157 4 5.5V7.5C4 7.77614 4.22386 8 4.5 8C4.77614 8 5 7.77614 5 7.5V5.5C5 5.22386 5.22386 5 5.5 5H7.5C7.77614 5 8 4.77614 8 4.5Z" fill="#171D26"/>
<path d="M15.5 7C15.5 6.44772 15.9477 6 16.5 6C17.0523 6 17.5 6.44772 17.5 7C17.5 7.55228 17.0523 8 16.5 8C15.9477 8 15.5 7.55228 15.5 7Z" fill="#171D26"/>
<path d="M6.5 9.5C6.5 9.22386 6.72386 9 7 9H17C17.2761 9 17.5 9.22386 17.5 9.5C17.5 9.77614 17.2761 10 17 10H7C6.72386 10 6.5 9.77614 6.5 9.5Z" fill="#171D26"/>
<path d="M16.5 11C15.9477 11 15.5 11.4477 15.5 12C15.5 12.5523 15.9477 13 16.5 13C17.0523 13 17.5 12.5523 17.5 12C17.5 11.4477 17.0523 11 16.5 11Z" fill="#171D26"/>
<path d="M15.5 17C15.5 16.4477 15.9477 16 16.5 16C17.0523 16 17.5 16.4477 17.5 17C17.5 17.5523 17.0523 18 16.5 18C15.9477 18 15.5 17.5523 15.5 17Z" fill="#171D26"/>
<path d="M7 14C6.72386 14 6.5 14.2239 6.5 14.5C6.5 14.7761 6.72386 15 7 15H17C17.2761 15 17.5 14.7761 17.5 14.5C17.5 14.2239 17.2761 14 17 14H7Z" fill="#171D26"/>
<path d="M7.5 20C7.77614 20 8 19.7761 8 19.5C8 19.2239 7.77614 19 7.5 19H5.5C5.22386 19 5 18.7761 5 18.5V16.5C5 16.2239 4.77614 16 4.5 16C4.22386 16 4 16.2239 4 16.5V18.5C4 19.3284 4.67157 20 5.5 20H7.5Z" fill="#171D26"/>
<path d="M4.5 10C4.77614 10 5 10.2239 5 10.5V13.5C5 13.7761 4.77614 14 4.5 14C4.22386 14 4 13.7761 4 13.5V10.5C4 10.2239 4.22386 10 4.5 10Z" fill="#171D26"/>
<path d="M13.5 5C13.7761 5 14 4.77614 14 4.5C14 4.22386 13.7761 4 13.5 4H10.5C10.2239 4 10 4.22386 10 4.5C10 4.77614 10.2239 5 10.5 5L13.5 5Z" fill="#171D26"/>
<path d="M14 19.5C14 19.7761 13.7761 20 13.5 20H10.5C10.2239 20 10 19.7761 10 19.5C10 19.2239 10.2239 19 10.5 19H13.5C13.7761 19 14 19.2239 14 19.5Z" fill="#171D26"/>
<path d="M16.5 4C16.2239 4 16 4.22386 16 4.5C16 4.77614 16.2239 5 16.5 5H18.5C18.7761 5 19 5.22386 19 5.5V7.5C19 7.77614 19.2239 8 19.5 8C19.7761 8 20 7.77614 20 7.5V5.5C20 4.67157 19.3284 4 18.5 4H16.5Z" fill="#171D26"/>
<path d="M16 19.5C16 19.7761 16.2239 20 16.5 20H18.5C19.3284 20 20 19.3284 20 18.5V16.5C20 16.2239 19.7761 16 19.5 16C19.2239 16 19 16.2239 19 16.5V18.5C19 18.7761 18.7761 19 18.5 19H16.5C16.2239 19 16 19.2239 16 19.5Z" fill="#171D26"/>
<path d="M19 10.5C19 10.2239 19.2239 10 19.5 10C19.7761 10 20 10.2239 20 10.5V13.5C20 13.7761 19.7761 14 19.5 14C19.2239 14 19 13.7761 19 13.5V10.5Z" fill="#171D26"/>
</svg>
