<svg width="24" height="24" viewBox="0 0 24 24" fill="none" xmlns="http://www.w3.org/2000/svg">
<path d="M16.7941 6.09563C17.0174 6.25805 17.0668 6.57076 16.9044 6.79409L15.4027 8.85887C15.0609 9.3289 14.3917 9.4095 13.948 9.03408L13.177 8.38169C12.9662 8.20332 12.9399 7.88783 13.1183 7.67703C13.2967 7.46623 13.6122 7.43993 13.823 7.61831L14.594 8.27069L16.0956 6.20591C16.2581 5.98259 16.5708 5.93321 16.7941 6.09563Z" fill="#171D26"/>
<path d="M8 7.5C7.72386 7.5 7.5 7.72386 7.5 8C7.5 8.27614 7.72386 8.5 8 8.5L11 8.5C11.2761 8.5 11.5 8.27614 11.5 8C11.5 7.72386 11.2761 7.5 11 7.5L8 7.5Z" fill="#171D26"/>
<path d="M16.7941 10.0956C17.0174 10.2581 17.0668 10.5708 16.9044 10.7941L15.4027 12.8589C15.0609 13.3289 14.3917 13.4095 13.948 13.0341L13.177 12.3817C12.9662 12.2033 12.9399 11.8878 13.1183 11.677C13.2967 11.4662 13.6122 11.4399 13.823 11.6183L14.594 12.2707L16.0956 10.2059C16.2581 9.98259 16.5708 9.93321 16.7941 10.0956Z" fill="#171D26"/>
<path d="M16.9044 14.7941C17.0668 14.5708 17.0174 14.2581 16.7941 14.0956C16.5708 13.9332 16.2581 13.9826 16.0956 14.2059L14.594 16.2707L13.823 15.6183C13.6122 15.4399 13.2967 15.4662 13.1183 15.677C12.9399 15.8878 12.9662 16.2033 13.177 16.3817L13.948 17.0341C14.3917 17.4095 15.0609 17.3289 15.4027 16.8589L16.9044 14.7941Z" fill="#171D26"/>
<path d="M7.5 12C7.5 11.7239 7.72386 11.5 8 11.5L11 11.5C11.2761 11.5 11.5 11.7239 11.5 12C11.5 12.2761 11.2761 12.5 11 12.5H8C7.72386 12.5 7.5 12.2761 7.5 12Z" fill="#171D26"/>
<path d="M8 15.5C7.72386 15.5 7.5 15.7239 7.5 16C7.5 16.2761 7.72386 16.5 8 16.5H11C11.2761 16.5 11.5 16.2761 11.5 16C11.5 15.7239 11.2761 15.5 11 15.5H8Z" fill="#171D26"/>
<path fill-rule="evenodd" clip-rule="evenodd" d="M7.5 4C6.39543 4 5.5 4.89543 5.5 6V18C5.5 19.1046 6.39543 20 7.5 20H17C18.1046 20 19 19.1046 19 18V6C19 4.89543 18.1046 4 17 4H7.5ZM17 5H7.5C6.94772 5 6.5 5.44772 6.5 6V18C6.5 18.5523 6.94772 19 7.5 19H17C17.5523 19 18 18.5523 18 18V6C18 5.44772 17.5523 5 17 5Z" fill="#171D26"/>
</svg>
