<svg width="24" height="24" viewBox="0 0 24 24" fill="none" xmlns="http://www.w3.org/2000/svg">
<path fill-rule="evenodd" clip-rule="evenodd" d="M10 13H6C5.44772 13 5 13.4477 5 14V18C5 18.5523 5.44772 19 6 19H10C10.5523 19 11 18.5523 11 18V14C11 13.4477 10.5523 13 10 13ZM6 12C4.89543 12 4 12.8954 4 14V18C4 19.1046 4.89543 20 6 20H10C11.1046 20 12 19.1046 12 18V14C12 12.8954 11.1046 12 10 12H6Z" fill="#171D26"/>
<path d="M17.3344 6.6283C17.3479 6.64042 17.3607 6.65326 17.3728 6.66676C17.408 6.70609 17.4359 6.74965 17.4565 6.7957C17.4844 6.85807 17.5 6.92722 17.5 7V10C17.5 10.2761 17.2761 10.5 17 10.5C16.7239 10.5 16.5 10.2761 16.5 10V8.20709L13.3535 11.3536C13.1583 11.5488 12.8417 11.5488 12.6464 11.3536C12.4512 11.1583 12.4512 10.8417 12.6464 10.6464L15.7929 7.5H14C13.7239 7.5 13.5 7.27614 13.5 7C13.5 6.72386 13.7239 6.5 14 6.5H16.9999C17.1285 6.5 17.2458 6.54854 17.3344 6.6283Z" fill="#171D26"/>
<path fill-rule="evenodd" clip-rule="evenodd" d="M13.5 4.5C13.5 4.22386 13.7239 4 14 4H17.5C18.8807 4 20 5.11929 20 6.5V10C20 10.2761 19.7761 10.5 19.5 10.5C19.2239 10.5 19 10.2761 19 10V6.5C19 5.67157 18.3284 5 17.5 5H14C13.7239 5 13.5 4.77614 13.5 4.5Z" fill="#171D26"/>
<path fill-rule="evenodd" clip-rule="evenodd" d="M13.5 19.5C13.5 19.7761 13.7239 20 14 20H17.5C18.8807 20 20 18.8807 20 17.5V14C20 13.7239 19.7761 13.5 19.5 13.5C19.2239 13.5 19 13.7239 19 14V17.5C19 18.3284 18.3284 19 17.5 19H14C13.7239 19 13.5 19.2239 13.5 19.5Z" fill="#171D26"/>
<path fill-rule="evenodd" clip-rule="evenodd" d="M10.5 4.5C10.5 4.22386 10.2761 4 10 4H6.5C5.11929 4 4 5.11929 4 6.5V10C4 10.2761 4.22386 10.5 4.5 10.5C4.77614 10.5 5 10.2761 5 10V6.5C5 5.67157 5.67157 5 6.5 5H10C10.2761 5 10.5 4.77614 10.5 4.5Z" fill="#171D26"/>
</svg>
