<svg width="24" height="24" viewBox="0 0 24 24" fill="none" xmlns="http://www.w3.org/2000/svg">
<path fill-rule="evenodd" clip-rule="evenodd" d="M6.25 8.5C6.69027 8.5 7.10101 8.37355 7.44787 8.15498L8.84007 9.54718C8.31354 10.2245 8 11.0756 8 12C8 12.9244 8.31354 13.7755 8.84007 14.4528L7.44787 15.845C7.10101 15.6265 6.69027 15.5 6.25 15.5C5.00736 15.5 4 16.5074 4 17.75C4 18.9926 5.00736 20 6.25 20C7.49264 20 8.5 18.9926 8.5 17.75C8.5 17.3097 8.37355 16.899 8.15498 16.5521L9.54718 15.1599C10.2245 15.6865 11.0756 16 12 16C12.9244 16 13.7755 15.6865 14.4528 15.1599L15.845 16.5521C15.6265 16.899 15.5 17.3097 15.5 17.75C15.5 18.9926 16.5074 20 17.75 20C18.9926 20 20 18.9926 20 17.75C20 16.5074 18.9926 15.5 17.75 15.5C17.3097 15.5 16.899 15.6265 16.5521 15.845L15.1599 14.4528C15.6865 13.7755 16 12.9244 16 12C16 11.0756 15.6865 10.2245 15.1599 9.54718L16.5521 8.15498C16.899 8.37355 17.3097 8.5 17.75 8.5C18.9926 8.5 20 7.49264 20 6.25C20 5.00736 18.9926 4 17.75 4C16.5074 4 15.5 5.00736 15.5 6.25C15.5 6.69027 15.6265 7.10101 15.845 7.44787L14.4528 8.84007C13.7755 8.31354 12.9244 8 12 8C11.0756 8 10.2245 8.31354 9.54718 8.84007L8.15498 7.44787C8.37355 7.10101 8.5 6.69027 8.5 6.25C8.5 5.00736 7.49264 4 6.25 4C5.00736 4 4 5.00736 4 6.25C4 7.49264 5.00736 8.5 6.25 8.5ZM6.25 7.5C6.94036 7.5 7.5 6.94036 7.5 6.25C7.5 5.55964 6.94036 5 6.25 5C5.55964 5 5 5.55964 5 6.25C5 6.94036 5.55964 7.5 6.25 7.5ZM12 15C13.6569 15 15 13.6569 15 12C15 10.3431 13.6569 9 12 9C10.3431 9 9 10.3431 9 12C9 13.6569 10.3431 15 12 15ZM7.5 17.75C7.5 18.4404 6.94036 19 6.25 19C5.55964 19 5 18.4404 5 17.75C5 17.0596 5.55964 16.5 6.25 16.5C6.94036 16.5 7.5 17.0596 7.5 17.75ZM17.75 7.5C18.4404 7.5 19 6.94036 19 6.25C19 5.55964 18.4404 5 17.75 5C17.0596 5 16.5 5.55964 16.5 6.25C16.5 6.94036 17.0596 7.5 17.75 7.5ZM19 17.75C19 18.4404 18.4404 19 17.75 19C17.0596 19 16.5 18.4404 16.5 17.75C16.5 17.0596 17.0596 16.5 17.75 16.5C18.4404 16.5 19 17.0596 19 17.75Z" fill="#171D26"/>
</svg>
