<svg width="24" height="24" viewBox="0 0 24 24" fill="none" xmlns="http://www.w3.org/2000/svg">
<path fill-rule="evenodd" clip-rule="evenodd" d="M12 4C8.13401 4 5 7.13401 5 11C5 14.866 8.13401 18 12 18C13.314 18 14.5434 17.638 15.594 17.0082L19.2929 20.7071C19.6834 21.0976 20.3166 21.0976 20.7071 20.7071C21.0976 20.3166 21.0976 19.6834 20.7071 19.2929L17.1525 15.7383C18.2996 14.4917 19 12.8276 19 11C19 7.13401 15.866 4 12 4ZM7 11C7 8.23858 9.23858 6 12 6C14.7614 6 17 8.23858 17 11C17 13.7614 14.7614 16 12 16C9.23858 16 7 13.7614 7 11Z" fill="#171D26"/>
</svg>
