<svg width="24" height="24" viewBox="0 0 24 24" fill="none" xmlns="http://www.w3.org/2000/svg">
<path d="M10.5 14C10.5 13.1716 11.1716 12.5 12 12.5C12.8284 12.5 13.5 13.1716 13.5 14C13.5 14.6531 13.0826 15.2087 12.5 15.4146V16.75C12.5 17.0261 12.2761 17.25 12 17.25C11.7239 17.25 11.5 17.0261 11.5 16.75V15.4146C10.9174 15.2087 10.5 14.6531 10.5 14Z" fill="#171D26"/>
<path fill-rule="evenodd" clip-rule="evenodd" d="M9 10V7C9 5.34315 10.3431 4 12 4C13.6569 4 15 5.34315 15 7V10H16C17.1046 10 18 10.8954 18 12V18C18 19.1046 17.1046 20 16 20H8C6.89543 20 6 19.1046 6 18V12C6 10.8954 6.89543 10 8 10H9ZM14 7V10H10V7C10 5.89543 10.8954 5 12 5C13.1046 5 14 5.89543 14 7ZM8 11C7.44772 11 7 11.4477 7 12V18C7 18.5523 7.44772 19 8 19H16C16.5523 19 17 18.5523 17 18V12C17 11.4477 16.5523 11 16 11H8Z" fill="#171D26"/>
</svg>
