<svg width="24" height="24" viewBox="0 0 24 24" fill="none" xmlns="http://www.w3.org/2000/svg">
<path fill-rule="evenodd" clip-rule="evenodd" d="M12 19.5C16.1421 19.5 19.5 16.1421 19.5 12C19.5 7.85786 16.1421 4.5 12 4.5C7.85786 4.5 4.5 7.85786 4.5 12C4.5 16.1421 7.85786 19.5 12 19.5ZM12 20.5C16.6944 20.5 20.5 16.6944 20.5 12C20.5 7.30558 16.6944 3.5 12 3.5C7.30558 3.5 3.5 7.30558 3.5 12C3.5 16.6944 7.30558 20.5 12 20.5Z" fill="#171D26"/>
<path fill-rule="evenodd" clip-rule="evenodd" d="M6.5 14.5C6.5 14.2239 6.72386 14 7 14H19.5C19.7761 14 20 14.2239 20 14.5C20 14.7761 19.7761 15 19.5 15H7C6.72386 15 6.5 14.7761 6.5 14.5Z" fill="#171D26"/>
<path fill-rule="evenodd" clip-rule="evenodd" d="M9.85355 17.3536C9.65829 17.5488 9.34171 17.5488 9.14645 17.3536L6.64645 14.8536C6.55268 14.7598 6.5 14.6326 6.5 14.5C6.5 14.3674 6.55268 14.2402 6.64645 14.1464L9.14645 11.6464C9.34171 11.4512 9.65829 11.4512 9.85355 11.6464C10.0488 11.8417 10.0488 12.1583 9.85355 12.3536L7.70711 14.5L9.85355 16.6464C10.0488 16.8417 10.0488 17.1583 9.85355 17.3536Z" fill="#171D26"/>
<path fill-rule="evenodd" clip-rule="evenodd" d="M17.5 9.5C17.5 9.22385 17.2761 9 17 9H4.5C4.22386 9 4 9.22385 4 9.5C4 9.77614 4.22386 10 4.5 10H17C17.2761 10 17.5 9.77614 17.5 9.5Z" fill="#171D26"/>
<path fill-rule="evenodd" clip-rule="evenodd" d="M14.1464 12.3536C14.3417 12.5488 14.6583 12.5488 14.8536 12.3536L17.3536 9.85355C17.4473 9.75978 17.5 9.63261 17.5 9.5C17.5 9.36739 17.4473 9.24021 17.3536 9.14645L14.8536 6.64645C14.6583 6.45118 14.3417 6.45118 14.1464 6.64645C13.9512 6.84171 13.9512 7.15829 14.1464 7.35355L16.2929 9.5L14.1464 11.6464C13.9512 11.8417 13.9512 12.1583 14.1464 12.3536Z" fill="#171D26"/>
</svg>
