<svg width="24" height="24" viewBox="0 0 24 24" fill="none" xmlns="http://www.w3.org/2000/svg">
<path d="M10.4806 6.01201C10.7039 6.17443 10.7533 6.48714 10.5909 6.71046L9.08924 8.77524C8.7474 9.24528 8.07824 9.32588 7.63457 8.95046L6.86356 8.29807C6.65276 8.1197 6.62647 7.80421 6.80484 7.59341C6.98321 7.3826 7.2987 7.35631 7.50951 7.53469L8.28051 8.18707L9.78217 6.12229C9.94458 5.89897 10.2573 5.84959 10.4806 6.01201Z" fill="#171D26"/>
<path fill-rule="evenodd" clip-rule="evenodd" d="M12.5 7.5C12.5 9.70914 10.7091 11.5 8.5 11.5C6.29086 11.5 4.5 9.70914 4.5 7.5C4.5 5.29086 6.29086 3.5 8.5 3.5C10.7091 3.5 12.5 5.29086 12.5 7.5ZM11.5 7.5C11.5 9.15685 10.1569 10.5 8.5 10.5C6.84315 10.5 5.5 9.15685 5.5 7.5C5.5 5.84315 6.84315 4.5 8.5 4.5C10.1569 4.5 11.5 5.84315 11.5 7.5Z" fill="#171D26"/>
<path d="M13.5 6.5C13.5 6.22386 13.7239 6 14 6L19.5 6C19.7761 6 20 6.22386 20 6.5C20 6.77614 19.7761 7 19.5 7L14 7C13.7239 7 13.5 6.77614 13.5 6.5Z" fill="#171D26"/>
<path d="M13.5 8.5C13.5 8.22386 13.7239 8 14 8L19.5 8C19.7761 8 20 8.22386 20 8.5C20 8.77614 19.7761 9 19.5 9L14 9C13.7239 9 13.5 8.77614 13.5 8.5Z" fill="#171D26"/>
<path d="M14 15C13.7239 15 13.5 15.2239 13.5 15.5C13.5 15.7761 13.7239 16 14 16L19.5 16C19.7761 16 20 15.7761 20 15.5C20 15.2239 19.7761 15 19.5 15L14 15Z" fill="#171D26"/>
<path d="M13.5 17.5C13.5 17.2239 13.7239 17 14 17L19.5 17C19.7761 17 20 17.2239 20 17.5C20 17.7761 19.7761 18 19.5 18L14 18C13.7239 18 13.5 17.7761 13.5 17.5Z" fill="#171D26"/>
<path d="M7.00356 15.0036C7.19883 14.8083 7.51541 14.8083 7.71067 15.0036L8.5 15.7929L9.28933 15.0036C9.48459 14.8083 9.80117 14.8083 9.99644 15.0036C10.1917 15.1988 10.1917 15.5154 9.99644 15.7107L9.2071 16.5L9.99638 17.2893C10.1916 17.4846 10.1916 17.8012 9.99638 17.9964C9.80112 18.1917 9.48454 18.1917 9.28928 17.9964L8.5 17.2071L7.71072 17.9964C7.51546 18.1917 7.19888 18.1917 7.00362 17.9964C6.80835 17.8011 6.80835 17.4846 7.00362 17.2893L7.79289 16.5L7.00356 15.7107C6.8083 15.5154 6.8083 15.1989 7.00356 15.0036Z" fill="#171D26"/>
<path fill-rule="evenodd" clip-rule="evenodd" d="M12.5 16.5C12.5 18.7091 10.7091 20.5 8.5 20.5C6.29086 20.5 4.5 18.7091 4.5 16.5C4.5 14.2909 6.29086 12.5 8.5 12.5C10.7091 12.5 12.5 14.2909 12.5 16.5ZM11.5 16.5C11.5 18.1569 10.1569 19.5 8.5 19.5C6.84315 19.5 5.5 18.1569 5.5 16.5C5.5 14.8431 6.84315 13.5 8.5 13.5C10.1569 13.5 11.5 14.8431 11.5 16.5Z" fill="#171D26"/>
</svg>
