<svg width="24" height="24" viewBox="0 0 24 24" fill="none" xmlns="http://www.w3.org/2000/svg">
<path d="M17.2414 6.0226C14.841 3.37636 10.8961 3.31932 8.43016 5.89526C5.96424 8.47119 5.91113 12.7046 8.31153 15.3509L9.88962 13.7024C8.34156 11.9855 8.37886 9.24684 9.97526 7.57922C11.5717 5.91159 14.1238 5.94531 15.6815 7.65219L17.2414 6.0226Z" fill="#171D26"/>
<path d="M6.75854 16.9775C9.15894 19.6237 13.1038 19.6806 15.5698 17.1047C18.0357 14.5288 18.0888 10.2954 15.6884 7.64915L14.1105 9.29748C15.6585 11.0144 15.6212 13.7531 14.0249 15.4207C12.4285 17.0883 9.87636 17.0546 8.31865 15.3477L6.75854 16.9775Z" fill="#171D26"/>
</svg>
