<svg width="24" height="24" viewBox="0 0 24 24" fill="none" xmlns="http://www.w3.org/2000/svg">
<path fill-rule="evenodd" clip-rule="evenodd" d="M19.9827 14.1949C21.2737 12.9832 21.2737 11.0168 19.9827 9.80515C18.1572 8.09177 15.2608 6 11.9999 6C8.73893 6 5.84254 8.09177 4.01706 9.80515C2.72608 11.0168 2.72609 12.9832 4.01706 14.1949C5.84254 15.9082 8.73893 18 11.9999 18C15.2608 18 18.1572 15.9082 19.9827 14.1949ZM11.9999 16C14.209 16 15.9999 14.2091 15.9999 12C15.9999 9.79086 14.209 8 11.9999 8C9.79074 8 7.99988 9.79086 7.99988 12C7.99988 14.2091 9.79074 16 11.9999 16Z" fill="#171D26"/>
<path d="M14.9999 12C14.9999 13.6569 13.6567 15 11.9999 15C10.343 15 8.99988 13.6569 8.99988 12C8.99988 10.3431 10.343 9 11.9999 9C13.6567 9 14.9999 10.3431 14.9999 12Z" fill="#171D26"/>
</svg>
