<svg width="24" height="24" viewBox="0 0 24 24" fill="none" xmlns="http://www.w3.org/2000/svg">
<path d="M15.9856 9.0309C15.9735 8.98615 15.9558 8.94673 15.9323 8.91264C15.9089 8.87784 15.8801 8.84837 15.846 8.82422C15.8119 8.80007 15.7729 8.78196 15.7288 8.76989C15.6848 8.7571 15.6365 8.75071 15.584 8.75071C15.4781 8.75071 15.3865 8.77628 15.3091 8.82742C15.2324 8.87855 15.1731 8.95313 15.1312 9.05114C15.0893 9.14844 15.0683 9.26669 15.0683 9.4059C15.0683 9.54581 15.0886 9.66513 15.1291 9.76385C15.1695 9.86257 15.2281 9.93786 15.3048 9.9897C15.3815 10.0415 15.4746 10.0675 15.584 10.0675C15.6805 10.0675 15.7622 10.0518 15.829 10.0206C15.8965 9.98864 15.9476 9.94354 15.9824 9.8853C16.0155 9.82996 16.0328 9.76533 16.0345 9.69141H15.6021V9.30682H16.5428V9.59553C16.5428 9.79084 16.5012 9.9581 16.4181 10.0973C16.3357 10.2365 16.2221 10.3434 16.0772 10.418C15.933 10.4925 15.7672 10.5298 15.5797 10.5298C15.3716 10.5298 15.1887 10.4847 15.031 10.3945C14.8734 10.3043 14.7505 10.1758 14.6624 10.0089C14.5744 9.84126 14.5303 9.6424 14.5303 9.41229C14.5303 9.23331 14.557 9.07457 14.6102 8.93608C14.6635 8.79688 14.7377 8.67898 14.8329 8.58239C14.9288 8.4858 15.0396 8.41264 15.1653 8.36293C15.2917 8.31321 15.4277 8.28835 15.5733 8.28835C15.6997 8.28835 15.8173 8.30646 15.9259 8.34269C16.0353 8.37891 16.1319 8.43004 16.2157 8.49609C16.3002 8.56215 16.3688 8.64063 16.4213 8.73153C16.4739 8.82244 16.5065 8.92223 16.5193 9.0309H15.9856Z" fill="#171D26"/>
<path d="M12.7022 8.31818V10.5H14.2235V10.0717H13.2296V9.62323H14.1457V9.19389H13.2296V8.74645H14.2235V8.31818H12.7022Z" fill="#171D26"/>
<path fill-rule="evenodd" clip-rule="evenodd" d="M10.7452 10.5V8.31818H11.6465C11.8098 8.31818 11.9508 8.35014 12.0694 8.41406C12.1887 8.47727 12.2807 8.5657 12.3453 8.67933C12.41 8.79226 12.4423 8.92365 12.4423 9.07351C12.4423 9.22408 12.4092 9.35583 12.3432 9.46875C12.2778 9.58097 12.1845 9.66797 12.063 9.72976C11.9416 9.79155 11.7974 9.82245 11.6305 9.82245H11.2725V10.5H10.7452ZM11.2725 8.74326V9.40696H11.5325C11.612 9.40696 11.6784 9.39311 11.7317 9.36541C11.7857 9.33772 11.8265 9.29901 11.8542 9.24929C11.8819 9.19887 11.8957 9.14027 11.8957 9.07351C11.8957 9.00604 11.8819 8.9478 11.8542 8.89879C11.8265 8.84908 11.7857 8.81073 11.7317 8.78374C11.6777 8.75675 11.6113 8.74326 11.5325 8.74326H11.2725Z" fill="#171D26"/>
<path d="M8.62968 8.31818H7.97662V10.5H8.49012V9.15235H8.50823L9.03238 10.4862H9.3605L9.88465 9.1598H9.90276V10.5H10.4163V8.31818H9.7632L9.20922 9.66904H9.18365L8.62968 8.31818Z" fill="#171D26"/>
<path d="M16.1268 11.4545V18H14.9411V12.6083H14.9027L13.3718 13.5863V12.4996L14.9986 11.4545H16.1268Z" fill="#171D26"/>
<path d="M7.87466 17.1435V18H12.3619V17.0092H9.51102V16.9645L10.6392 15.8171C11.0632 15.408 11.3924 15.0597 11.6268 14.772C11.8633 14.4844 12.0284 14.2223 12.1222 13.9858C12.2159 13.7493 12.2628 13.5085 12.2628 13.2635C12.2628 12.897 12.1701 12.571 11.9847 12.2855C11.8015 12 11.5437 11.7752 11.2113 11.6112C10.8789 11.4471 10.4933 11.3651 10.0543 11.3651C9.62182 11.3651 9.23829 11.4492 8.90378 11.6175C8.57139 11.7859 8.31038 12.0234 8.12075 12.3303C7.93112 12.6371 7.8363 12.9982 7.8363 13.4137H8.9645C8.9645 13.19 9.00818 12.9972 9.09554 12.8352C9.18503 12.6733 9.31074 12.5487 9.47267 12.4613C9.6346 12.3718 9.82316 12.3271 10.0384 12.3271C10.2472 12.3271 10.4336 12.3675 10.5977 12.4485C10.7617 12.5295 10.8906 12.6445 10.9844 12.7937C11.0781 12.9407 11.125 13.1175 11.125 13.3242C11.125 13.5053 11.0888 13.6758 11.0163 13.8356C10.9439 13.9954 10.8352 14.1605 10.6904 14.331C10.5455 14.5014 10.3644 14.6964 10.147 14.9158L7.87466 17.1435Z" fill="#171D26"/>
<path fill-rule="evenodd" clip-rule="evenodd" d="M19 17.5C19 18.8807 17.8807 20 16.5 20H8C6.61929 20 5.5 18.8807 5.5 17.5V6.5C5.5 5.11929 6.61929 4 8 4H15.5724C16.2318 4 16.8644 4.26046 17.3326 4.72467L18.2602 5.64433C18.7337 6.11377 19 6.7529 19 7.41966V17.5ZM6.5 6.5C6.5 5.67157 7.17157 5 8 5H15.5V7.5H18V17.5C18 18.3284 17.3284 19 16.5 19H8C7.17157 19 6.5 18.3284 6.5 17.5V6.5Z" fill="#171D26"/>
</svg>
