<svg width="24" height="24" viewBox="0 0 24 24" fill="none" xmlns="http://www.w3.org/2000/svg">
<path d="M9.75012 8C9.47398 8 9.25012 8.22386 9.25012 8.5C9.25012 8.77614 9.47398 9 9.75012 9L16.2501 9C16.5263 9 16.7501 8.77614 16.7501 8.5C16.7501 8.22386 16.5263 8 16.2501 8L9.75012 8Z" fill="#171D26"/>
<path d="M9.25012 11C9.25012 10.7239 9.47398 10.5 9.75012 10.5L16.2501 10.5C16.5263 10.5 16.7501 10.7239 16.7501 11C16.7501 11.2761 16.5263 11.5 16.2501 11.5L9.75012 11.5C9.47398 11.5 9.25012 11.2761 9.25012 11Z" fill="#171D26"/>
<path d="M9.75012 13C9.47398 13 9.25012 13.2239 9.25012 13.5C9.25012 13.7761 9.47398 14 9.75012 14L16.2501 14C16.5263 14 16.7501 13.7761 16.7501 13.5C16.7501 13.2239 16.5263 13 16.2501 13L9.75012 13Z" fill="#171D26"/>
<path fill-rule="evenodd" clip-rule="evenodd" d="M6.75012 5C6.75012 3.89543 7.64555 3 8.75012 3H15.8216C16.3496 3 16.8562 3.20882 17.2309 3.5809L18.6594 4.99959C19.0375 5.37506 19.2501 5.88586 19.2501 6.41869V16C19.2501 17.1046 18.3547 18 17.2501 18H8.75012C7.64555 18 6.75012 17.1046 6.75012 16V5ZM17.2501 17H8.75012C8.19784 17 7.75012 16.5523 7.75012 16V5C7.75012 4.44772 8.19784 4 8.75012 4H15.7501V6.5H18.2501V16C18.2501 16.5523 17.8024 17 17.2501 17Z" fill="#171D26"/>
<path d="M5.75 6C5.75 5.72386 5.52614 5.5 5.25 5.5C4.97386 5.5 4.75 5.72386 4.75 6V16.5C4.75 18.433 6.317 20 8.25 20H16.2501C16.5262 20 16.7501 19.7761 16.7501 19.5C16.7501 19.2239 16.5262 19 16.2501 19H8.25C6.86929 19 5.75 17.8807 5.75 16.5V6Z" fill="#171D26"/>
</svg>
