<svg width="24" height="24" viewBox="0 0 24 24" fill="none" xmlns="http://www.w3.org/2000/svg">
<path d="M12.7501 6L15.3286 9.86763L12.7501 11.5866L10.1717 9.86763L12.7501 6Z" fill="#171D26"/>
<path d="M12.7501 12.7884L15.404 11.0192L12.7501 15L10.0963 11.0192L12.7501 12.7884Z" fill="#171D26"/>
<path fill-rule="evenodd" clip-rule="evenodd" d="M6.50012 5C6.50012 3.89543 7.39555 3 8.50012 3H15.5716C16.0996 3 16.6062 3.20882 16.9809 3.5809L18.4094 4.99959C18.7875 5.37506 19.0001 5.88586 19.0001 6.41869V16C19.0001 17.1046 18.1047 18 17.0001 18H8.50012C7.39555 18 6.50012 17.1046 6.50012 16V5ZM17.0001 17H8.50012C7.94784 17 7.50012 16.5523 7.50012 16V5C7.50012 4.44772 7.94784 4 8.50012 4H15.5001V6.5H18.0001V16C18.0001 16.5523 17.5524 17 17.0001 17Z" fill="#171D26"/>
<path d="M5.5 6C5.5 5.72386 5.27614 5.5 5 5.5C4.72386 5.5 4.5 5.72386 4.5 6V16.5C4.5 18.433 6.067 20 8 20H16.0001C16.2762 20 16.5001 19.7761 16.5001 19.5C16.5001 19.2239 16.2762 19 16.0001 19H8C6.61929 19 5.5 17.8807 5.5 16.5V6Z" fill="#171D26"/>
</svg>
