<svg xmlns="http://www.w3.org/2000/svg" width="48" height="48" fill="none" viewBox="0 0 48 48">
  <path fill="#3131FF" fill-rule="evenodd" d="M41 24c0 9.389-7.611 17-17 17S7 33.389 7 24 14.611 7 24 7s17 7.611 17 17ZM28.382 38.35c5.84-1.781 10.17-7.031 10.585-13.35h-6.98c-.109 4.131-.886 7.892-2.121 10.715-.432.986-.927 1.877-1.484 2.635ZM29.986 25c-.108 3.908-.846 7.385-1.952 9.913-.6 1.372-1.29 2.42-2.004 3.11-.71.687-1.394.977-2.03.977-.636 0-1.32-.29-2.03-.976-.714-.691-1.403-1.739-2.004-3.111-1.106-2.528-1.844-6.005-1.952-9.913h11.972Zm2-2h6.981c-.416-6.319-4.744-11.569-10.585-13.35.556.758 1.052 1.649 1.484 2.636 1.235 2.822 2.012 6.583 2.12 10.714ZM19.619 9.65C13.778 11.431 9.448 16.681 9.033 23h6.98c.109-4.131.886-7.892 2.121-10.714.432-.987.928-1.878 1.484-2.636ZM18.014 23c.108-3.908.846-7.385 1.952-9.913.6-1.372 1.29-2.42 2.004-3.11C22.68 9.29 23.364 9 24 9c.636 0 1.32.29 2.03.976.714.691 1.403 1.739 2.004 3.111 1.106 2.528 1.844 6.005 1.952 9.913H18.014Zm-2 2H9.032c.416 6.319 4.744 11.569 10.585 13.35-.556-.758-1.052-1.649-1.484-2.636-1.235-2.822-2.012-6.582-2.12-10.714Z" clip-rule="evenodd"/>
</svg>
