<svg xmlns="http://www.w3.org/2000/svg" width="48" height="48" fill="none" viewBox="0 0 48 48">
  <path fill="#3131FF" d="M21.788 4.839A1.111 1.111 0 0 1 22.865 4h2.255c.516 0 .963.355 1.082.857l1.288 5.475a1.1 1.1 0 0 1-.03.62 2.778 2.778 0 0 1-2.91 2.507 10.556 10.556 0 1 0 .05 21.08 2.778 2.778 0 0 1 2.916 3.106 1.12 1.12 0 0 1-.027.4l-1.279 5.113a1.111 1.111 0 0 1-1.078.842h-2.267c-.508 0-.952-.346-1.077-.839l-.844-3.343a16.12 16.12 0 0 1-6-2.493 1.117 1.117 0 0 1-.222.173l-2.707 1.615c-.437.26-.995.191-1.355-.169L9.056 37.34a1.11 1.11 0 0 1-.169-1.355l1.615-2.707a1.12 1.12 0 0 1 .173-.222 16.113 16.113 0 0 1-2.5-6.038c-.093 0-.186-.01-.28-.034l-3.056-.772A1.111 1.111 0 0 1 4 25.135v-2.27c0-.508.346-.952.839-1.077l3.056-.772c.094-.023.187-.034.28-.034a16.11 16.11 0 0 1 2.5-6.038 1.12 1.12 0 0 1-.173-.222l-1.615-2.707a1.111 1.111 0 0 1 .169-1.355l1.604-1.605a1.11 1.11 0 0 1 1.355-.168l2.707 1.615c.083.05.157.108.222.173a16.11 16.11 0 0 1 6-2.494l.844-3.342Z"/>
  <path fill="#3131FF" d="M40 12a4 4 0 0 1-5.94 3.5l-4.968 5.962c.416.506.71 1.118.838 1.788h7.14A4.001 4.001 0 0 1 45 24a4 4 0 0 1-7.93.75h-7.14a3.985 3.985 0 0 1-.838 1.788l4.968 5.963a4 4 0 1 1-1.152.96L27.94 27.5a4 4 0 1 1 0-6.998l4.968-5.963A4 4 0 1 1 40 12Z"/>
</svg>
