<svg width="24" height="24" viewBox="0 0 24 24" fill="none" xmlns="http://www.w3.org/2000/svg">
<path fill-rule="evenodd" clip-rule="evenodd" d="M8.02276 7.13872C8.22236 7.32955 8.22947 7.64605 8.03864 7.84565L4.06674 12.0001L8.03864 16.1546C8.22947 16.3542 8.22236 16.6707 8.02276 16.8615C7.82316 17.0524 7.50666 17.0453 7.31583 16.8457L3.01359 12.3457C2.8288 12.1524 2.8288 11.8479 3.01359 11.6546L7.31583 7.15461C7.50666 6.95501 7.82316 6.9479 8.02276 7.13872Z" fill="#171D26"/>
<path fill-rule="evenodd" clip-rule="evenodd" d="M15.9774 7.13872C15.7778 7.32955 15.7707 7.64605 15.9615 7.84565L19.9334 12.0001L15.9615 16.1546C15.7707 16.3542 15.7778 16.6707 15.9774 16.8615C16.177 17.0524 16.4935 17.0453 16.6843 16.8457L20.9865 12.3457C21.1713 12.1524 21.1713 11.8479 20.9865 11.6546L16.6843 7.15461C16.4935 6.95501 16.177 6.9479 15.9774 7.13872Z" fill="#171D26"/>
<path fill-rule="evenodd" clip-rule="evenodd" d="M13.4286 7.01951C13.694 7.09564 13.8475 7.37254 13.7714 7.63798L11.19 16.638C11.1139 16.9034 10.837 17.0569 10.5716 16.9808C10.3061 16.9046 10.1527 16.6277 10.2288 16.3623L12.8101 7.36228C12.8863 7.09684 13.1632 6.94337 13.4286 7.01951Z" fill="#171D26"/>
</svg>
