<svg xmlns="http://www.w3.org/2000/svg" width="48" height="48" fill="none" viewBox="0 0 48 48">
  <path fill="#3131FF" stroke="#3131FF" stroke-width="2" d="M22.211 8.894a4 4 0 0 1 3.578 0l12.422 6.212a1 1 0 0 1 0 1.788L25.79 23.106a4 4 0 0 1-3.578 0L9.79 16.894a1 1 0 0 1 0-1.788l12.42-6.212Z"/>
  <path stroke="#3131FF" stroke-width="2" d="M22.211 15.894a4 4 0 0 1 3.578 0l12.422 6.212a1 1 0 0 1 0 1.788L25.79 30.106a4 4 0 0 1-3.578 0L9.79 23.894a1 1 0 0 1 0-1.788l12.422-6.212Z"/>
  <path stroke="#3131FF" stroke-width="2" d="m16 27-6.211 3.106a1 1 0 0 0 0 1.788l12.422 6.212a4 4 0 0 0 3.578 0l12.422-6.212a1 1 0 0 0 0-1.788L32 27"/>
</svg>
