<svg width="24" height="24" viewBox="0 0 24 24" fill="none" xmlns="http://www.w3.org/2000/svg">
<path fill-rule="evenodd" clip-rule="evenodd" d="M11.0403 3.74794C11.636 3.41735 12.364 3.41735 12.9597 3.74794L18.5064 6.82624C19.8312 7.56148 19.8312 9.43852 18.5064 10.1738L18.369 10.25L18.5064 10.3262C19.8312 11.0615 19.8312 12.9385 18.5064 13.6738L18.369 13.75L18.5064 13.8262C19.8312 14.5615 19.8312 16.4385 18.5064 17.1738L12.9597 20.2521C12.364 20.5826 11.636 20.5826 11.0403 20.2521L5.4936 17.1738C4.1688 16.4385 4.1688 14.5615 5.4936 13.8262L5.63098 13.75L5.4936 13.6738C4.1688 12.9385 4.1688 11.0615 5.4936 10.3262L5.63098 10.25L5.4936 10.1738C4.1688 9.43852 4.1688 7.56148 5.4936 6.82624L11.0403 3.74794ZM12.4744 4.62231L18.0211 7.70061C18.6596 8.05495 18.6596 8.94505 18.0211 9.29939L12.4744 12.3777C12.1806 12.5408 11.8194 12.5408 11.5256 12.3777L5.97886 9.29939C5.34038 8.94505 5.34038 8.05495 5.97886 7.70061L11.5256 4.62231C11.8194 4.45923 12.1806 4.45923 12.4744 4.62231ZM6.66136 10.8218L5.97886 11.2006C5.34038 11.555 5.34038 12.445 5.97886 12.7994L11.5256 15.8777C11.8194 16.0408 12.1806 16.0408 12.4744 15.8777L18.0211 12.7994C18.6596 12.445 18.6596 11.555 18.0211 11.2006L17.3386 10.8218L12.9597 13.2521C12.364 13.5826 11.636 13.5826 11.0403 13.2521L6.66136 10.8218ZM5.97886 14.7006L6.66136 14.3218L11.0403 16.7521C11.636 17.0826 12.364 17.0826 12.9597 16.7521L17.3386 14.3218L18.0211 14.7006C18.6596 15.055 18.6596 15.945 18.0211 16.2994L12.4744 19.3777C12.1806 19.5408 11.8194 19.5408 11.5256 19.3777L5.97886 16.2994C5.34038 15.945 5.34038 15.055 5.97886 14.7006Z" fill="#171D26"/>
</svg>
