<svg width="24" height="24" viewBox="0 0 24 24" fill="none" xmlns="http://www.w3.org/2000/svg">
<path d="M20.9424 12.0648C21.0192 12.0558 21.0192 11.9442 20.9424 11.9352L18.1359 11.6053C15.124 11.2513 12.7489 8.87625 12.3948 5.86439L12.0648 3.05763C12.0558 2.98079 11.9442 2.98079 11.9352 3.05763L11.6052 5.86439C11.2511 8.87625 8.87599 11.2513 5.86408 11.6053L3.05763 11.9352C2.98079 11.9442 2.98079 12.0558 3.05763 12.0648L5.86408 12.3947C8.87599 12.7487 11.2511 15.1237 11.6052 18.1356L11.9352 20.9424C11.9442 21.0192 12.0558 21.0192 12.0648 20.9424L12.3948 18.1356C12.7489 15.1237 15.124 12.7487 18.1359 12.3947L20.9424 12.0648Z" fill="#171D26"/>
</svg>
