<svg width="24" height="24" viewBox="0 0 24 24" fill="none" xmlns="http://www.w3.org/2000/svg">
<path d="M5 5.70709V7.5C5 7.77614 4.77614 8 4.5 8C4.22386 8 4 7.77614 4 7.5V4.5C4 4.42706 4.01562 4.35776 4.0437 4.29528C4.06418 4.2496 4.09187 4.20636 4.12677 4.16728C4.13905 4.15351 4.15209 4.14042 4.16581 4.12809C4.20745 4.0906 4.25389 4.06134 4.303 4.04031C4.36345 4.01436 4.43005 4 4.5 4H7.49995C7.77609 4 7.99995 4.22386 7.99995 4.5C7.99995 4.77614 7.77609 5 7.49995 5H5.70712L7.85357 7.14645C8.04883 7.34171 8.04883 7.65829 7.85357 7.85355C7.6583 8.04882 7.34172 8.04882 7.14646 7.85355L5 5.70709Z" fill="#171D26"/>
<path d="M19.8333 4.12723C19.8475 4.13999 19.8611 4.15357 19.8738 4.16788C19.9084 4.20678 19.9359 4.24979 19.9563 4.29521C19.9844 4.35771 20 4.42703 20 4.5V7.5C20 7.77614 19.7762 8 19.5 8C19.2239 8 19 7.77614 19 7.5V5.70709L16.8536 7.85355C16.6583 8.04882 16.3417 8.04882 16.1465 7.85355C15.9512 7.65829 15.9512 7.34171 16.1465 7.14645L18.2929 5H16.5001C16.2239 5 16.0001 4.77614 16.0001 4.5C16.0001 4.22386 16.2239 4 16.5001 4H19.4999C19.6279 4 19.7448 4.04811 19.8333 4.12723Z" fill="#171D26"/>
<path d="M19 18.2929V16.5C19 16.2239 19.2239 16 19.5 16C19.7762 16 20 16.2239 20 16.5V19.5C20 19.5729 19.9844 19.6422 19.9563 19.7047C19.9358 19.7504 19.9081 19.7937 19.8732 19.8328C19.861 19.8464 19.8481 19.8594 19.8344 19.8717C19.7927 19.9093 19.7462 19.9386 19.697 19.9597C19.6366 19.9856 19.57 20 19.5 20H16.5001C16.2239 20 16.0001 19.7761 16.0001 19.5C16.0001 19.2239 16.2239 19 16.5001 19H18.2929L16.1465 16.8536C15.9512 16.6583 15.9512 16.3417 16.1465 16.1464C16.3417 15.9512 16.6583 15.9512 16.8536 16.1464L19 18.2929Z" fill="#171D26"/>
<path d="M5 18.2929V16.5C5 16.2239 4.77614 16 4.5 16C4.22386 16 4 16.2239 4 16.5V19.5C4 19.5729 4.0156 19.6422 4.04366 19.7046C4.06424 19.7506 4.0921 19.794 4.12723 19.8332C4.13931 19.8467 4.15211 19.8596 4.16557 19.8717C4.20728 19.9093 4.2538 19.9386 4.303 19.9597C4.36345 19.9856 4.43005 20 4.5 20H7.49995C7.77609 20 7.99995 19.7761 7.99995 19.5C7.99995 19.2239 7.77609 19 7.49995 19H5.70712L7.85357 16.8536C8.04883 16.6583 8.04883 16.3417 7.85357 16.1464C7.6583 15.9512 7.34172 15.9512 7.14646 16.1464L5 18.2929Z" fill="#171D26"/>
<path fill-rule="evenodd" clip-rule="evenodd" d="M11.5 15.6462C9.75778 14.5932 8.64692 12.9979 8.64692 11.2122C8.64692 9.26117 9.97294 7.53747 11.9996 6.49998C14.0264 7.53747 15.3524 9.26118 15.3524 11.2122C15.3524 12.9977 14.2418 14.5928 12.5 15.6458V17.5C12.5 17.7761 12.2762 18 12 18C11.7239 18 11.5 17.7761 11.5 17.5V15.6462ZM11.5 14.4448C10.297 13.5527 9.64692 12.39 9.64692 11.2122C9.64692 9.88037 10.478 8.56801 11.9996 7.6443C13.5213 8.56801 14.3524 9.88039 14.3524 11.2122C14.3524 12.3898 13.7026 13.5523 12.5 14.4443V10.5C12.5 10.2239 12.2762 10 12 10C11.7239 10 11.5 10.2239 11.5 10.5V14.4448Z" fill="#171D26"/>
</svg>
