<svg width="24" height="24" viewBox="0 0 24 24" fill="none" xmlns="http://www.w3.org/2000/svg">
<path d="M12.9993 4.07084C12.7256 4.03439 12.4742 4.22674 12.4377 4.50047C12.4013 4.77419 12.5936 5.02564 12.8673 5.06209C16.2916 5.51806 18.9335 8.4509 18.9335 12C18.9335 15.5469 16.2948 18.4783 12.8736 18.937C12.5999 18.9737 12.4078 19.2253 12.4445 19.499C12.4812 19.7727 12.7328 19.9649 13.0065 19.9282C16.9176 19.4038 19.9335 16.0545 19.9335 12C19.9335 7.943 16.9139 4.5921 12.9993 4.07084Z" fill="#171D26"/>
<path d="M4.99571 12.9308C4.95936 12.657 4.70799 12.4646 4.43425 12.5009C4.16051 12.5373 3.96806 12.7887 4.00441 13.0624C4.47796 16.6288 7.29946 19.4522 10.865 19.9286C11.1387 19.9652 11.3902 19.773 11.4268 19.4993C11.4634 19.2256 11.2711 18.974 10.9974 18.9375C7.87936 18.5208 5.40983 16.0496 4.99571 12.9308Z" fill="#171D26"/>
<path d="M6.23355 7.10107C6.45436 7.26689 6.49894 7.58032 6.33312 7.80113C5.63064 8.73656 5.15743 9.853 4.99588 11.0678C4.95948 11.3416 4.70806 11.534 4.43433 11.4976C4.1606 11.4612 3.9682 11.2097 4.0046 10.936C4.18941 9.54628 4.73093 8.26933 5.53349 7.20064C5.69931 6.97982 6.01274 6.93525 6.23355 7.10107Z" fill="#171D26"/>
<path d="M10.9993 5.06226C11.273 5.02576 11.4653 4.77428 11.4288 4.50056C11.3923 4.22684 11.1408 4.03454 10.8671 4.07103C9.47829 4.25622 8.20219 4.79768 7.13414 5.59987C6.91334 5.7657 6.86879 6.07914 7.03462 6.29994C7.20046 6.52074 7.51389 6.56529 7.73469 6.39945C8.66957 5.69729 9.78525 5.22414 10.9993 5.06226Z" fill="#171D26"/>
<path fill-rule="evenodd" clip-rule="evenodd" d="M11.7477 14.8863V15.5126H12.1958V14.8867C12.5572 14.8678 12.8724 14.8013 13.1413 14.6874C13.4655 14.549 13.7133 14.3549 13.8845 14.1054C14.0576 13.854 14.145 13.557 14.1468 13.2145C14.145 12.9814 14.1022 12.7746 14.0184 12.5943C13.9364 12.4139 13.8208 12.2572 13.6714 12.1243C13.522 11.9913 13.3453 11.8792 13.1413 11.7882C12.9372 11.6971 12.7132 11.6242 12.4691 11.5695L12.1958 11.5042V10.1427C12.3805 10.1666 12.5335 10.2232 12.6549 10.3126C12.8206 10.4346 12.9145 10.6059 12.9363 10.8263H14.0703C14.0649 10.4929 13.9756 10.1996 13.8025 9.9464C13.6295 9.69319 13.3872 9.49553 13.0757 9.35344C12.8187 9.23555 12.5255 9.16657 12.1958 9.14648V8.51727H11.7477V9.14889C11.4355 9.17169 11.1514 9.23987 10.8951 9.35344C10.5745 9.49553 10.3222 9.69319 10.1382 9.9464C9.956 10.1996 9.86583 10.4956 9.86765 10.8345C9.86583 11.248 10.0015 11.5768 10.2748 11.8209C10.5481 12.0651 10.9206 12.2445 11.3924 12.3593L11.7477 12.4485V13.8883C11.6271 13.874 11.515 13.8471 11.4115 13.8075C11.2512 13.7438 11.1228 13.6499 11.0263 13.5261C10.9315 13.4004 10.8778 13.2437 10.865 13.0561H9.72009C9.7292 13.4587 9.82666 13.7966 10.0125 14.0698C10.2001 14.3413 10.4606 14.5462 10.794 14.6847C11.0718 14.7994 11.3897 14.8666 11.7477 14.8863ZM12.1958 13.8855C12.3005 13.8713 12.3962 13.8472 12.4827 13.813C12.6321 13.7547 12.7478 13.6736 12.8297 13.5698C12.9117 13.4659 12.9527 13.3466 12.9527 13.2118C12.9527 13.0861 12.9154 12.9805 12.8407 12.8948C12.7678 12.8092 12.6603 12.7364 12.5182 12.6762C12.4249 12.6362 12.3174 12.5986 12.1958 12.5635V13.8855ZM11.7477 11.3922V10.1446C11.6523 10.158 11.5666 10.1803 11.4908 10.2115C11.3578 10.2643 11.2558 10.3381 11.1847 10.4328C11.1155 10.5275 11.0809 10.635 11.0809 10.7552C11.0773 10.8554 11.0982 10.9429 11.1438 11.0176C11.1911 11.0923 11.2558 11.1569 11.3378 11.2116C11.4197 11.2644 11.5145 11.3109 11.622 11.3509C11.6628 11.3655 11.7047 11.3792 11.7477 11.3922Z" fill="#171D26"/>
<path fill-rule="evenodd" clip-rule="evenodd" d="M11.9335 18C15.2472 18 17.9335 15.3137 17.9335 12C17.9335 8.68632 15.2472 6.00003 11.9335 6.00003C8.61976 6.00003 5.93347 8.68632 5.93347 12C5.93347 15.3137 8.61976 18 11.9335 18ZM11.9335 17C14.6949 17 16.9335 14.7615 16.9335 12C16.9335 9.23861 14.6949 7.00003 11.9335 7.00003C9.17205 7.00003 6.93347 9.23861 6.93347 12C6.93347 14.7615 9.17205 17 11.9335 17Z" fill="#171D26"/>
</svg>
