<svg xmlns="http://www.w3.org/2000/svg" width="48" height="48" fill="none" viewBox="0 0 48 48">
  <path fill="#3131FF" d="M19.572 36.469c0-1.003 0-1.404.589-2.206l7.38-11c.48-.631.77-.276.77.171V37.5c0 .276-.22.5-.49.5h-7.76a.495.495 0 0 1-.49-.5v-1.031Zm8.426-25.425c.27 0 .49.224.49.5v6.858c0 .298-.353.446-.558.236l-6.857-7.025c-.205-.21-.06-.57.231-.57h6.694Z"/>
  <path fill="#3131FF" d="M28.314 11.044c-.27 0-.49.224-.49.5v6.858c0 .298.352.446.558.236l6.857-7.025c.205-.21.06-.57-.232-.57h-6.693Zm-15.816 8.477c-1.611 0-2.414-.4-2.947-1.703l-2.53-6.425a.226.226 0 0 1-.018-.124.329.329 0 0 1 .32-.269h7.656c.887 0 1.42 0 2.306.905l8.896 7.047c.206.21.06.569-.23.569H12.497Zm24.364.001c1.134 0 2.094-.812 2.466-1.704l2.646-6.354a.333.333 0 0 0-.301-.464h-.882c-.392 0-.589.2-1.178.602l-9.335 7.35c-.206.21-.06.57.23.57h6.354Zm-17.29 3.648c0-.588.417-1.09.986-1.186l5.778-.973c.365-.062.604.38.358.662l-6.436 7.39c-.24.275-.686.101-.686-.267V23.17Z"/>
</svg>
