<svg width="24" height="24" viewBox="0 0 24 24" fill="none" xmlns="http://www.w3.org/2000/svg">
<path d="M9.78577 18.2343C9.78577 17.733 9.78577 17.5325 10.0805 17.1314L13.7707 11.6319C14.0101 11.3159 14.1553 11.4937 14.1553 11.7171V18.7499C14.1553 18.888 14.0456 19 13.9103 19H10.0308C9.89547 19 9.78577 18.888 9.78577 18.7499V18.2343Z" fill="#171D26"/>
<path d="M13.999 5.52194C14.1343 5.52194 14.244 5.6339 14.244 5.77202V9.20119C14.244 9.34987 14.0677 9.42419 13.9649 9.31885L10.5365 5.80632C10.4339 5.7012 10.5068 5.52193 10.6522 5.52193L13.999 5.52194Z" fill="#171D26"/>
<path d="M14.1569 5.52194C14.0216 5.52194 13.9119 5.6339 13.9119 5.77202L13.9119 9.20119C13.9119 9.34987 14.0882 9.42419 14.191 9.31885L17.6194 5.80632C17.722 5.7012 17.6491 5.52193 17.5037 5.52193L14.1569 5.52194Z" fill="#171D26"/>
<path d="M6.24912 9.76069C5.44338 9.76072 5.04199 9.56079 4.77552 8.90914L3.51018 5.69665C3.50239 5.67688 3.49742 5.65557 3.50141 5.63465C3.51606 5.55792 3.58227 5.5 3.66174 5.5L7.48936 5.5C7.93297 5.5 8.19914 5.5 8.64275 5.95277L13.0907 9.47594C13.1934 9.58102 13.1205 9.76042 12.9751 9.76042L6.24912 9.76069Z" fill="#171D26"/>
<path d="M18.4309 9.76083C18.9982 9.76085 19.4782 9.35498 19.6638 8.90914L20.9868 5.73199C21.0326 5.62202 20.9536 5.50003 20.8365 5.50006C20.6607 5.5001 20.4468 5.50014 20.3957 5.50014C20.1992 5.50014 20.101 5.60041 19.8063 5.80103L15.1388 9.47608C15.0361 9.58116 15.109 9.76056 15.2544 9.76057L18.4309 9.76083Z" fill="#171D26"/>
<path d="M9.78577 11.5854C9.78577 11.291 9.9946 11.0398 10.2793 10.9918L13.1679 10.5054C13.3506 10.4746 13.4697 10.6952 13.3467 10.8365L10.1291 14.531C10.0091 14.6689 9.78577 14.5822 9.78577 14.3978V11.5854Z" fill="#171D26"/>
</svg>
