<svg width="24" height="24" viewBox="0 0 24 24" fill="none" xmlns="http://www.w3.org/2000/svg">
<path fill-rule="evenodd" clip-rule="evenodd" d="M21 12C21 16.9706 16.9706 21 12 21C7.02944 21 3 16.9706 3 12C3 7.02944 7.02944 3 12 3C16.9706 3 21 7.02944 21 12ZM9.02671 11.1756C8.12518 11.5692 7.19886 11.9737 6.35184 12.4402C5.90951 12.7641 6.49741 12.9932 7.04893 13.2081C7.13659 13.2422 7.22333 13.276 7.30486 13.3098C7.37272 13.3307 7.44173 13.3526 7.51166 13.3749C8.12503 13.5704 8.809 13.7883 9.40449 13.4605C10.3827 12.8985 11.3059 12.2489 12.2283 11.5997C12.5305 11.387 12.8327 11.1744 13.1366 10.9649C13.1509 10.9558 13.1669 10.9454 13.1844 10.9341C13.4434 10.7662 14.0259 10.3885 13.8104 10.9088C13.3011 11.4658 12.7556 11.9588 12.2071 12.4546C11.8373 12.7888 11.4661 13.1243 11.1037 13.4815C10.7882 13.7378 10.4606 14.2533 10.8139 14.6123C11.6268 15.1814 12.4524 15.7367 13.2776 16.2917C13.5472 16.473 13.8167 16.6543 14.0857 16.836C14.5403 17.1989 15.2507 16.9053 15.3506 16.3382C15.3955 16.0749 15.4405 15.8116 15.4856 15.5483C15.7317 14.109 15.978 12.6691 16.1955 11.2251C16.2251 10.9983 16.2587 10.7715 16.2923 10.5446C16.3737 9.99433 16.4552 9.44341 16.4807 8.8902C16.415 8.3382 15.7457 8.45955 15.3733 8.58367C13.4588 9.31215 11.5635 10.0946 9.67569 10.8909C9.4618 10.9857 9.24498 11.0803 9.02671 11.1756Z" fill="#171D26"/>
</svg>
