<svg xmlns="http://www.w3.org/2000/svg" width="48" height="48" fill="none" viewBox="0 0 48 48">
  <rect width="8" height="8" x="34" y="14" fill="#3131FF" rx="4"/>
  <rect width="8" height="8" x="6" y="14" fill="#3131FF" rx="4"/>
  <path fill="#3131FF" fill-rule="evenodd" d="M18 10a4 4 0 0 1 4-4h4a4 4 0 0 1 4 4v28a4 4 0 0 1-4 4h-4a4 4 0 0 1-4-4V10Zm2 20a4 4 0 1 1 8 0 4 4 0 0 1-8 0Zm4-16a4 4 0 1 0 0 8 4 4 0 0 0 0-8Z" clip-rule="evenodd"/>
  <rect width="8" height="8" x="34" y="26" fill="#3131FF" rx="4"/>
  <rect width="8" height="8" x="6" y="26" fill="#3131FF" rx="4"/>
  <path stroke="#3131FF" stroke-width="1.5" d="M9 18h9.152m11.187 0h7.627m-26.95 12h8.136m11.187 0H39"/>
</svg>
