<svg width="24" height="24" viewBox="0 0 24 24" fill="none" xmlns="http://www.w3.org/2000/svg">
<path fill-rule="evenodd" clip-rule="evenodd" d="M14.0078 17.0537C14.2142 17.2372 14.5303 17.2186 14.7137 17.0122C14.8972 16.8058 14.8786 16.4898 14.6722 16.3063L13.3579 15.1381C13.4491 14.9444 13.5 14.7282 13.5 14.5C13.5 13.8469 13.0826 13.2913 12.5 13.0854V10.5C12.5 10.2239 12.2761 10 12 10C11.7239 10 11.5 10.2239 11.5 10.5V13.0854C10.9174 13.2913 10.5 13.8469 10.5 14.5C10.5 15.3284 11.1716 16 12 16C12.2345 16 12.4563 15.9462 12.654 15.8503L14.0078 17.0537ZM12 14C11.7239 14 11.5 14.2239 11.5 14.5C11.5 14.7761 11.7239 15 12 15C12.2761 15 12.5 14.7761 12.5 14.5C12.5 14.2239 12.2761 14 12 14Z" fill="#171D26"/>
<path fill-rule="evenodd" clip-rule="evenodd" d="M18.5 14.5C18.5 12.1988 17.3042 10.1769 15.5 9.02182V6.5C15.5 4.567 13.933 3 12 3C10.067 3 8.5 4.567 8.5 6.5V9.02182C6.69584 10.1769 5.5 12.1988 5.5 14.5C5.5 18.0899 8.41015 21 12 21C15.5899 21 18.5 18.0899 18.5 14.5ZM12 8C11.1141 8 10.2696 8.17723 9.5 8.49816V6.5C9.5 5.11929 10.6193 4 12 4C13.3807 4 14.5 5.11929 14.5 6.5V8.49816C13.7304 8.17723 12.8859 8 12 8ZM6.5 14.5C6.5 17.5376 8.96243 20 12 20C15.0376 20 17.5 17.5376 17.5 14.5C17.5 11.4624 15.0376 9 12 9C8.96243 9 6.5 11.4624 6.5 14.5Z" fill="#171D26"/>
</svg>
