<svg width="24" height="24" viewBox="0 0 24 24" fill="none" xmlns="http://www.w3.org/2000/svg">
<path fill-rule="evenodd" clip-rule="evenodd" d="M11.7942 15.9999C14.0033 15.9999 15.7942 14.2091 15.7942 11.9999C15.7942 9.7908 14.0033 7.99994 11.7942 7.99994C9.58505 7.99994 7.79419 9.7908 7.79419 11.9999C7.79419 14.2091 9.58505 15.9999 11.7942 15.9999ZM10.2942 11.4999C10.018 11.4999 9.79419 11.7238 9.79419 11.9999C9.79419 12.2761 10.018 12.4999 10.2942 12.4999H11.2942V13.4999C11.2942 13.7761 11.518 13.9999 11.7942 13.9999C12.0703 13.9999 12.2942 13.7761 12.2942 13.4999V12.4999H13.2942C13.5703 12.4999 13.7942 12.2761 13.7942 11.9999C13.7942 11.7238 13.5703 11.4999 13.2942 11.4999H12.2942V10.4999C12.2942 10.2238 12.0703 9.99994 11.7942 9.99994C11.518 9.99994 11.2942 10.2238 11.2942 10.4999V11.4999H10.2942Z" fill="#171D26"/>
<path fill-rule="evenodd" clip-rule="evenodd" d="M10.7942 3.57728C11.413 3.22001 12.1754 3.22001 12.7942 3.57728L18.5885 6.92257C19.2073 7.27984 19.5885 7.94009 19.5885 8.65463V15.3452C19.5885 16.0598 19.2073 16.72 18.5885 17.0773L12.7942 20.4226C12.1754 20.7798 11.413 20.7798 10.7942 20.4226L5 17.0773C4.3812 16.72 4 16.0598 4 15.3452V8.65463C4 7.94009 4.3812 7.27984 5 6.92257L10.7942 3.57728ZM12.2942 4.4433L18.0885 7.7886C18.3979 7.96723 18.5885 8.29736 18.5885 8.65463V15.3452C18.5885 15.7025 18.3979 16.0326 18.0885 16.2112L12.2942 19.5565C11.9848 19.7352 11.6036 19.7352 11.2942 19.5565L5.5 16.2112C5.1906 16.0326 5 15.7025 5 15.3452V8.65463C5 8.29736 5.1906 7.96723 5.5 7.7886L11.2942 4.4433C11.6036 4.26467 11.9848 4.26467 12.2942 4.4433Z" fill="#171D26"/>
</svg>
