<svg width="24" height="24" viewBox="0 0 24 24" fill="none" xmlns="http://www.w3.org/2000/svg">
<path d="M9.00031 10.4999C8.72416 10.4999 8.50031 10.7238 8.50031 10.9999C8.50031 11.2761 8.72416 11.4999 9.00031 11.4999L15.0003 11.4999C15.2764 11.4999 15.5003 11.2761 15.5003 10.9999C15.5003 10.7238 15.2764 10.4999 15.0003 10.4999L9.00031 10.4999Z" fill="#171D26"/>
<path d="M8.50031 13.4999C8.50031 13.2238 8.72416 12.9999 9.00031 12.9999L15.0003 12.9999C15.2764 12.9999 15.5003 13.2238 15.5003 13.4999C15.5003 13.7761 15.2764 13.9999 15.0003 13.9999L9.00031 13.9999C8.72416 13.9999 8.50031 13.7761 8.50031 13.4999Z" fill="#171D26"/>
<path d="M9.00031 15.4999C8.72416 15.4999 8.50031 15.7238 8.50031 15.9999C8.50031 16.2761 8.72416 16.4999 9.00031 16.4999L15.0003 16.4999C15.2764 16.4999 15.5003 16.2761 15.5003 15.9999C15.5003 15.7238 15.2764 15.4999 15.0003 15.4999L9.00031 15.4999Z" fill="#171D26"/>
<path fill-rule="evenodd" clip-rule="evenodd" d="M13.0003 3.57728C12.3815 3.22001 11.6191 3.22001 11.0003 3.57728L5.20605 6.92257C4.58725 7.27984 4.20605 7.94009 4.20605 8.65463V15.3452C4.20605 16.0598 4.58725 16.72 5.20605 17.0773L11.0003 20.4226C11.6191 20.7798 12.3815 20.7798 13.0003 20.4226L18.7945 17.0773C19.4133 16.72 19.7945 16.0598 19.7945 15.3452V8.65463C19.7945 7.94009 19.4133 7.27984 18.7945 6.92257L13.0003 3.57728ZM18.2945 7.7886L12.5003 4.4433C12.1909 4.26467 11.8097 4.26467 11.5003 4.4433L5.70605 7.7886C5.39665 7.96723 5.20605 8.29736 5.20605 8.65463V15.3452C5.20605 15.7025 5.39665 16.0326 5.70605 16.2112L6.50031 16.6698V9.99994C6.50031 8.89537 7.39574 7.99994 8.50031 7.99994H15.5003C16.6049 7.99994 17.5003 8.89537 17.5003 9.99994V16.6698L18.2945 16.2113C18.6039 16.0326 18.7945 15.7025 18.7945 15.3452V8.65463C18.7945 8.29736 18.6039 7.96723 18.2945 7.7886ZM11.5003 19.5565L7.50031 17.2472V9.99994C7.50031 9.44765 7.94802 8.99994 8.50031 8.99994H15.5003C16.0526 8.99994 16.5003 9.44765 16.5003 9.99994V17.2471L12.5003 19.5565C12.1909 19.7352 11.8097 19.7352 11.5003 19.5565Z" fill="#171D26"/>
</svg>
