<svg width="24" height="24" viewBox="0 0 24 24" fill="none" xmlns="http://www.w3.org/2000/svg">
<path d="M8 10.5C8.27614 10.5 8.5 10.7239 8.5 11V15C8.5 15.2761 8.27614 15.5 8 15.5C7.72386 15.5 7.5 15.2761 7.5 15V11C7.5 10.7239 7.72386 10.5 8 10.5Z" fill="#171D26"/>
<path d="M12 6.5C10.305 6.5 8.82971 7.43726 8.06277 8.81939C7.92878 9.06085 8.01591 9.36521 8.25737 9.4992C8.49883 9.63318 8.80318 9.54606 8.93717 9.3046C9.53496 8.22731 10.6829 7.5 12 7.5C13.933 7.5 15.5 9.067 15.5 11V15C15.5 15.2761 15.7238 15.5 16 15.5C16.2761 15.5 16.5 15.2761 16.5 15V11C16.5 8.51472 14.4853 6.5 12 6.5Z" fill="#171D26"/>
<path d="M14 13.5C14.2761 13.5 14.5 13.7239 14.5 14V16.5C14.5 16.7761 14.2761 17 14 17C13.7239 17 13.5 16.7761 13.5 16.5V14C13.5 13.7239 13.7239 13.5 14 13.5Z" fill="#171D26"/>
<path d="M12 8.5C10.6193 8.5 9.5 9.61929 9.5 11V16.5C9.5 16.7761 9.72386 17 10 17C10.2761 17 10.5 16.7761 10.5 16.5V11C10.5 10.1716 11.1716 9.5 12 9.5C12.8284 9.5 13.5 10.1716 13.5 11V12C13.5 12.2761 13.7239 12.5 14 12.5C14.2761 12.5 14.5 12.2761 14.5 12V11C14.5 9.61929 13.3807 8.5 12 8.5Z" fill="#171D26"/>
<path d="M12 10.5C12.2761 10.5 12.5 10.7239 12.5 11V14C12.5 14.2761 12.2761 14.5 12 14.5C11.7239 14.5 11.5 14.2761 11.5 14V11C11.5 10.7239 11.7239 10.5 12 10.5Z" fill="#171D26"/>
<path d="M12.5 16C12.5 15.7239 12.2761 15.5 12 15.5C11.7239 15.5 11.5 15.7239 11.5 16V16.5C11.5 16.7761 11.7239 17 12 17C12.2761 17 12.5 16.7761 12.5 16.5V16Z" fill="#171D26"/>
<path fill-rule="evenodd" clip-rule="evenodd" d="M12 20.5C16.6944 20.5 20.5 16.6944 20.5 12C20.5 7.30558 16.6944 3.5 12 3.5C7.30558 3.5 3.5 7.30558 3.5 12C3.5 16.6944 7.30558 20.5 12 20.5ZM12 19.5C16.1421 19.5 19.5 16.1421 19.5 12C19.5 7.85786 16.1421 4.5 12 4.5C7.85786 4.5 4.5 7.85786 4.5 12C4.5 16.1421 7.85786 19.5 12 19.5Z" fill="#171D26"/>
</svg>
