<svg width="24" height="24" viewBox="0 0 24 24" fill="none" xmlns="http://www.w3.org/2000/svg">
<path fill-rule="evenodd" clip-rule="evenodd" d="M16.5 11.5V5C16.5 4.44772 16.0523 4 15.5 4H8.5C7.94772 4 7.5 4.44772 7.5 5V11.5H4.5C3.94772 11.5 3.5 11.9477 3.5 12.5V19C3.5 19.5523 3.94772 20 4.5 20H19.5C20.0523 20 20.5 19.5523 20.5 19V12.5C20.5 11.9477 20.0523 11.5 19.5 11.5H16.5ZM10 5H8.5V11.5H15.5V5H14V6C14 6.55228 13.5523 7 13 7H11C10.4477 7 10 6.55228 10 6V5ZM17 12.5H15V13.5H17V12.5ZM14 12.5V13.5C14 14.0523 14.4477 14.5 15 14.5H17C17.5523 14.5 18 14.0523 18 13.5V12.5H19.5V19H12.5V12.5H14ZM4.5 12.5H6V13.5C6 14.0523 6.44772 14.5 7 14.5H9C9.55228 14.5 10 14.0523 10 13.5V12.5H11.5V19H4.5L4.5 12.5ZM9 12.5V13.5H7V12.5H9ZM11 5V6H13V5H11Z" fill="#171D26"/>
</svg>
