<svg width="24" height="24" viewBox="0 0 24 24" fill="none" xmlns="http://www.w3.org/2000/svg">
<path d="M16.5 4C16.2239 4 16 4.22386 16 4.5C16 4.77614 16.2239 5 16.5 5H17.5C18.3284 5 19 5.67157 19 6.5V7.5C19 7.77614 19.2239 8 19.5 8C19.7761 8 20 7.77614 20 7.5V6.5C20 5.11929 18.8807 4 17.5 4H16.5Z" fill="#171D26"/>
<path fill-rule="evenodd" clip-rule="evenodd" d="M13.5 8.5H6C4.89543 8.5 4 9.39543 4 10.5V18C4 19.1046 4.89543 20 6 20H13.5C14.6046 20 15.5 19.1046 15.5 18V10.5C15.5 9.39543 14.6046 8.5 13.5 8.5ZM8.5 14.5V9.5H13.5C14.0523 9.5 14.5 9.94772 14.5 10.5V15.5H9.5C8.94772 15.5 8.5 15.0523 8.5 14.5ZM9.5 16.5H14.5V18C14.5 18.5523 14.0523 19 13.5 19H6C5.44772 19 5 18.5523 5 18V10.5C5 9.94772 5.44772 9.5 6 9.5H7.5V14.5C7.5 15.6046 8.39543 16.5 9.5 16.5Z" fill="#171D26"/>
<path d="M16 16C16 16.2761 16.2239 16.5 16.5 16.5H17.5C18.8807 16.5 20 15.3807 20 14V13C20 12.7239 19.7761 12.5 19.5 12.5C19.2239 12.5 19 12.7239 19 13V14C19 14.8284 18.3284 15.5 17.5 15.5H16.5C16.2239 15.5 16 15.7239 16 16Z" fill="#171D26"/>
<path d="M11 4C11.2761 4 11.5 4.22386 11.5 4.5C11.5 4.77614 11.2761 5 11 5H10C9.17157 5 8.5 5.67157 8.5 6.5V7.5C8.5 7.77614 8.27614 8 8 8C7.72386 8 7.5 7.77614 7.5 7.5V6.5C7.5 5.11929 8.61929 4 10 4H11Z" fill="#171D26"/>
</svg>
