<svg width="24" height="24" viewBox="0 0 24 24" fill="none" xmlns="http://www.w3.org/2000/svg">
<path fill-rule="evenodd" clip-rule="evenodd" d="M12.5 7.75C12.5 10.0972 10.5972 12 8.25 12C5.90279 12 4 10.0972 4 7.75C4 5.40279 5.90279 3.5 8.25 3.5C10.5972 3.5 12.5 5.40279 12.5 7.75ZM11.5 7.75C11.5 9.54493 10.0449 11 8.25 11C6.45507 11 5 9.54493 5 7.75C5 5.95507 6.45507 4.5 8.25 4.5C10.0449 4.5 11.5 5.95507 11.5 7.75Z" fill="#171D26"/>
<path d="M11.5 18.5046C11.4994 18.5707 11.486 18.6338 11.4621 18.6914L11.5 18.5L11.5 18.5046Z" fill="#171D26"/>
<path d="M11.3536 18.8536C11.4015 18.8056 11.4377 18.7504 11.4621 18.6914L11.5 18.4954C11.4988 18.369 11.45 18.2429 11.3536 18.1464L9.85355 16.6464C9.65829 16.4512 9.34171 16.4512 9.14645 16.6464C8.95118 16.8417 8.95118 17.1583 9.14645 17.3536L9.79289 18H6.5C6.22386 18 6 17.7761 6 17.5V13C6 12.7239 5.77614 12.5 5.5 12.5C5.22386 12.5 5 12.7239 5 13V17.5C5 18.3284 5.67157 19 6.5 19H9.79289L9.14645 19.6464C8.95118 19.8417 8.95118 20.1583 9.14645 20.3536C9.34171 20.5488 9.65829 20.5488 9.85355 20.3536L11.3536 18.8536Z" fill="#171D26"/>
<path d="M14.6464 3.64645C14.8417 3.45118 15.1583 3.45118 15.3536 3.64645C15.5488 3.84171 15.5488 4.15829 15.3536 4.35355L14.7071 5H18C18.8284 5 19.5 5.67157 19.5 6.5V11C19.5 11.2761 19.2761 11.5 19 11.5C18.7239 11.5 18.5 11.2761 18.5 11V6.5C18.5 6.22386 18.2761 6 18 6H14.7071L15.3536 6.64645C15.5488 6.84171 15.5488 7.15829 15.3536 7.35355C15.1583 7.54882 14.8417 7.54882 14.6464 7.35355L13.1464 5.85355C13.0492 5.7563 13.0004 5.62896 13 5.5015L13 5.5L13 5.4985C13.0002 5.43125 13.0137 5.36713 13.0379 5.30861C13.0623 5.24964 13.0985 5.19438 13.1464 5.14645L14.6464 3.64645Z" fill="#171D26"/>
<path fill-rule="evenodd" clip-rule="evenodd" d="M16.25 19C17.7688 19 19 17.7688 19 16.25C19 14.7312 17.7688 13.5 16.25 13.5C14.7312 13.5 13.5 14.7312 13.5 16.25C13.5 17.7688 14.7312 19 16.25 19ZM16.25 18C17.2165 18 18 17.2165 18 16.25C18 15.2835 17.2165 14.5 16.25 14.5C15.2835 14.5 14.5 15.2835 14.5 16.25C14.5 17.2165 15.2835 18 16.25 18Z" fill="#171D26"/>
<path fill-rule="evenodd" clip-rule="evenodd" d="M16.25 20.5C18.5972 20.5 20.5 18.5972 20.5 16.25C20.5 13.9028 18.5972 12 16.25 12C13.9028 12 12 13.9028 12 16.25C12 18.5972 13.9028 20.5 16.25 20.5ZM16.25 19.5C18.0449 19.5 19.5 18.0449 19.5 16.25C19.5 14.4551 18.0449 13 16.25 13C14.4551 13 13 14.4551 13 16.25C13 18.0449 14.4551 19.5 16.25 19.5Z" fill="#171D26"/>
</svg>
