<svg width="24" height="24" viewBox="0 0 24 24" fill="none" xmlns="http://www.w3.org/2000/svg">
<path fill-rule="evenodd" clip-rule="evenodd" d="M6 20C4.89543 20 4 19.1046 4 18V6C4 4.89543 4.89543 4 6 4H18C19.1046 4 20 4.89543 20 6V18C20 19.1046 19.1046 20 18 20H6ZM18 5H6C5.44772 5 5 5.44772 5 6V9H9.5H14.5L19 9V6C19 5.44772 18.5523 5 18 5ZM9 10L5 10V14H9V10ZM10 14V10L14 10V14H10ZM9 15H5V18C5 18.5523 5.44772 19 6 19H9V15ZM10 19V15H14V19H10ZM15 15V19H18C18.5523 19 19 18.5523 19 18V15H15ZM15 10V14H19V10L15 10Z" fill="#171D26"/>
</svg>
