<svg width="24" height="24" viewBox="0 0 24 24" fill="none" xmlns="http://www.w3.org/2000/svg">
<path d="M11.9537 12.3155C10.0403 12.3155 8.30759 12.9644 7.0468 14.0165C6.99094 14.063 6.9852 14.146 7.03219 14.2014C7.48534 14.7426 8.06065 15.205 8.72367 15.5612C8.77431 15.5884 8.83748 15.5785 8.87768 15.5383C9.00386 15.412 9.12839 15.279 9.25402 15.1447C9.69394 14.6747 10.1474 14.1903 10.7326 13.9319C10.79 13.9063 10.8558 13.9491 10.8558 14.0118V16.1557C10.8558 16.221 10.9028 16.2769 10.9675 16.2858C11.288 16.3307 11.6175 16.3537 11.9537 16.3537C12.2899 16.3537 12.6193 16.3307 12.9399 16.2858C13.0046 16.2764 13.0516 16.2205 13.0516 16.1557V14.0118C13.0516 13.9491 13.1174 13.9063 13.1748 13.9319C13.76 14.1903 14.2134 14.6747 14.6533 15.1447C14.779 15.279 14.9035 15.412 15.0297 15.5383C15.0704 15.579 15.133 15.5884 15.1837 15.5612C15.8467 15.205 16.422 14.7426 16.8752 14.2014C16.9222 14.146 16.9164 14.063 16.8606 14.0165C15.5998 12.9644 13.8665 12.3155 11.9537 12.3155Z" fill="#171D26"/>
<path d="M16.8605 9.83722C15.5997 10.8894 13.867 11.5382 11.9537 11.5382H11.9531C10.0403 11.5382 8.30704 10.8894 7.04625 9.83722C6.99039 9.79073 6.98465 9.70766 7.03164 9.65229C7.48479 9.11107 8.0601 8.64874 8.72364 8.29246C8.77428 8.2653 8.83693 8.2747 8.87765 8.31545C9.00383 8.44171 9.12836 8.57475 9.25399 8.70897C9.69391 9.17896 10.1474 9.66341 10.7325 9.92185C10.79 9.94745 10.8558 9.90461 10.8558 9.84192V7.69796C10.8558 7.63318 10.9027 7.57729 10.9675 7.56788C11.288 7.52296 11.6174 7.49997 11.9537 7.49997C12.2899 7.49997 12.6193 7.52296 12.9398 7.56788C13.0046 7.57676 13.0516 7.63266 13.0516 7.69796V9.84192C13.0516 9.90461 13.1173 9.94745 13.1748 9.92185C13.7599 9.66341 14.2134 9.17896 14.6533 8.70897C14.7789 8.57475 14.9035 8.44171 15.0297 8.31545C15.0698 8.27522 15.133 8.2653 15.1837 8.29246C15.8467 8.64874 16.422 9.11107 16.8751 9.65229C16.9221 9.70766 16.9164 9.79073 16.8605 9.83722Z" fill="#171D26"/>
<path fill-rule="evenodd" clip-rule="evenodd" d="M5.00117 8.12189C4.39752 7.71837 4 7.03061 4 6.25C4 5.00736 5.00736 4 6.25 4C7.03061 4 7.71837 4.39752 8.12189 5.00117C9.27063 4.36328 10.5929 4 12 4C13.4071 4 14.7294 4.36328 15.8781 5.00117C16.2816 4.39752 16.9694 4 17.75 4C18.9926 4 20 5.00736 20 6.25C20 7.03061 19.6025 7.71837 18.9988 8.12189C19.6367 9.27063 20 10.5929 20 12C20 13.4071 19.6367 14.7294 18.9988 15.8781C19.6025 16.2816 20 16.9694 20 17.75C20 18.9926 18.9926 20 17.75 20C16.9694 20 16.2816 19.6025 15.8781 18.9988C14.7294 19.6367 13.4071 20 12 20C10.5929 20 9.27063 19.6367 8.12189 18.9988C7.71837 19.6025 7.03061 20 6.25 20C5.00736 20 4 18.9926 4 17.75C4 16.9694 4.39752 16.2816 5.00117 15.8781C4.36328 14.7294 4 13.4071 4 12C4 10.5929 4.36328 9.27063 5.00117 8.12189ZM5.54059 7.27933C5.214 7.05382 5 6.6769 5 6.25C5 5.55964 5.55964 5 6.25 5C6.6769 5 7.05382 5.214 7.27933 5.54059C6.61437 6.02738 6.02738 6.61437 5.54059 7.27933ZM5.54059 16.7207C5.214 16.9462 5 17.3231 5 17.75C5 18.4404 5.55964 19 6.25 19C6.6769 19 7.05382 18.786 7.27933 18.4594C6.61437 17.9726 6.02738 17.3856 5.54059 16.7207ZM16.7207 18.4594C16.9462 18.786 17.3231 19 17.75 19C18.4404 19 19 18.4404 19 17.75C19 17.3231 18.786 16.9462 18.4594 16.7207C17.9726 17.3856 17.3856 17.9726 16.7207 18.4594ZM18.4594 7.27933C18.786 7.05382 19 6.6769 19 6.25C19 5.55964 18.4404 5 17.75 5C17.3231 5 16.9462 5.214 16.7207 5.54059C17.3856 6.02738 17.9726 6.61437 18.4594 7.27933ZM19 12C19 15.866 15.866 19 12 19C8.13401 19 5 15.866 5 12C5 8.13401 8.13401 5 12 5C15.866 5 19 8.13401 19 12Z" fill="#171D26"/>
</svg>
