<svg width="24" height="24" viewBox="0 0 24 24" fill="none" xmlns="http://www.w3.org/2000/svg">
<path fill-rule="evenodd" clip-rule="evenodd" d="M11.5994 7.42424L11.7044 6.32884C11.7095 6.27574 11.7121 6.22165 11.7121 6.16667C11.7121 5.24619 10.9659 4.5 10.0455 4.5C9.12499 4.5 8.3788 5.24619 8.3788 6.16667C8.3788 6.22165 8.38143 6.27574 8.38652 6.32884L8.4915 7.42424H5.5C4.94771 7.42424 4.5 7.87196 4.5 8.42424V10.4642C5.4944 10.8615 6.19697 11.8336 6.19697 12.9697C6.19697 14.1059 5.4944 15.078 4.5 15.4752V18C4.5 18.5523 4.94771 19 5.5 19L7.53995 19C7.93719 18.0056 8.90927 17.303 10.0454 17.303C11.1816 17.303 12.1537 18.0056 12.5509 19L15.0758 19C15.628 19 16.0758 18.5523 16.0758 18V14.4914L17.194 14.6245C17.2593 14.6323 17.3261 14.6364 17.3943 14.6364C18.3148 14.6364 19.061 13.8902 19.061 12.9697C19.061 12.0492 18.3148 11.303 17.3943 11.303C17.3261 11.303 17.2593 11.3071 17.194 11.3148L16.0758 11.448V8.42424C16.0758 7.87196 15.628 7.42424 15.0758 7.42424H11.5994ZM11.7424 20C11.7424 19.0628 10.9827 18.303 10.0454 18.303C9.10824 18.303 8.34848 19.0628 8.34848 20L5.5 20C4.39543 20 3.5 19.1046 3.5 18V14.6667C4.43721 14.6667 5.19697 13.9069 5.19697 12.9697C5.19697 12.0325 4.43721 11.2728 3.5 11.2728V8.42424C3.5 7.31967 4.39543 6.42424 5.5 6.42424H7.39108C7.38296 6.33948 7.3788 6.25356 7.3788 6.16667C7.3788 6.07978 7.38296 5.99385 7.39108 5.90909C7.52065 4.55718 8.6596 3.5 10.0455 3.5C11.4313 3.5 12.5703 4.55719 12.6999 5.90909C12.708 5.99386 12.7121 6.07978 12.7121 6.16667C12.7121 6.25356 12.708 6.33948 12.6999 6.42424H15.0758C16.1803 6.42424 17.0758 7.31967 17.0758 8.42424V10.3219C17.1802 10.3094 17.2865 10.303 17.3943 10.303C17.5021 10.303 17.6085 10.3094 17.7129 10.3219C19.0355 10.4793 20.061 11.6047 20.061 12.9697C20.061 14.3346 19.0355 15.4601 17.7129 15.6175C17.6085 15.63 17.5021 15.6364 17.3943 15.6364C17.2865 15.6364 17.1802 15.63 17.0758 15.6175V18C17.0758 19.1046 16.1803 20 15.0758 20L11.7424 20Z" fill="#171D26"/>
</svg>
