<svg xmlns="http://www.w3.org/2000/svg" width="48" height="48" fill="none" viewBox="0 0 48 48">
  <path fill="#3131FF" fill-rule="evenodd" d="M24.4 35a9.6 9.6 0 0 0 9.6-9.6v-.8a9.6 9.6 0 0 0-9.6-9.6h-.8a9.6 9.6 0 0 0-9.6 9.6v.8a9.6 9.6 0 0 0 9.6 9.6h.8Zm-3.07-7.221a.466.466 0 0 1-.088-.123l-2.912-2.912a.467.467 0 0 1 0-.66l.754-.754a.467.467 0 0 1 .66 0l2.688 2.687 5.309-5.31a.467.467 0 0 1 .66 0l.754.755a.467.467 0 0 1 0 .66l-6.41 6.41a.467.467 0 0 1-.661 0l-.754-.753Z" clip-rule="evenodd"/>
  <path fill="#3131FF" d="M16.8 36.8a3.2 3.2 0 1 1-6.4 0 3.2 3.2 0 0 1 6.4 0Z"/>
  <path stroke="#3131FF" stroke-width="2" d="M40 25a16 16 0 1 0-1.683 7.142"/>
  <path fill="#3131FF" d="m39 32.5-1-.5-5 7 4.5 3 1.5-9.5Z"/>
</svg>
