<svg width="24" height="24" viewBox="0 0 24 24" fill="none" xmlns="http://www.w3.org/2000/svg">
<path d="M6.75006 7C7.16427 7 7.50006 6.66421 7.50006 6.25C7.50006 5.83579 7.16427 5.5 6.75006 5.5C6.33585 5.5 6.00006 5.83579 6.00006 6.25C6.00006 6.66421 6.33585 7 6.75006 7Z" fill="#171D26"/>
<path d="M10.0001 6.25C10.0001 6.66421 9.66427 7 9.25006 7C8.83585 7 8.50006 6.66421 8.50006 6.25C8.50006 5.83579 8.83585 5.5 9.25006 5.5C9.66427 5.5 10.0001 5.83579 10.0001 6.25Z" fill="#171D26"/>
<path d="M14.1964 12.8927C14.3588 12.6694 14.3094 12.3567 14.0861 12.1943C13.8628 12.0319 13.5501 12.0812 13.3876 12.3046L11.7723 14.5256L10.9275 13.8107C10.7167 13.6323 10.4012 13.6586 10.2228 13.8694C10.0444 14.0802 10.0707 14.3957 10.2815 14.5741L11.1264 15.289C11.5701 15.6644 12.2392 15.5838 12.5811 15.1138L14.1964 12.8927Z" fill="#171D26"/>
<path fill-rule="evenodd" clip-rule="evenodd" d="M12.0001 18C14.3473 18 16.2501 16.0972 16.2501 13.75C16.2501 11.4028 14.3473 9.5 12.0001 9.5C9.65285 9.5 7.75006 11.4028 7.75006 13.75C7.75006 16.0972 9.65285 18 12.0001 18ZM12.0001 17C13.795 17 15.2501 15.5449 15.2501 13.75C15.2501 11.9551 13.795 10.5 12.0001 10.5C10.2051 10.5 8.75006 11.9551 8.75006 13.75C8.75006 15.5449 10.2051 17 12.0001 17Z" fill="#171D26"/>
<path fill-rule="evenodd" clip-rule="evenodd" d="M4 6C4 4.89543 4.89543 4 6 4H18C19.1046 4 20 4.89543 20 6V18C20 19.1046 19.1046 20 18 20H6C4.89543 20 4 19.1046 4 18V6ZM6 5H18C18.5523 5 19 5.44772 19 6V7.5H5V6C5 5.44772 5.44772 5 6 5ZM5 8.5V18C5 18.5523 5.44772 19 6 19H18C18.5523 19 19 18.5523 19 18V8.5H5Z" fill="#171D26"/>
</svg>
