<svg width="24" height="24" viewBox="0 0 24 24" fill="none" xmlns="http://www.w3.org/2000/svg">
<path fill-rule="evenodd" clip-rule="evenodd" d="M10.187 16C9.96497 16.8626 9.18192 17.5 8.25 17.5C7.14543 17.5 6.25 16.6046 6.25 15.5C6.25 14.3954 7.14543 13.5 8.25 13.5C8.64556 13.5 9.0143 13.6148 9.3247 13.813L13.9929 9.45603C13.9152 9.31361 13.8544 9.16072 13.813 9H10.187C9.96497 9.86261 9.18192 10.5 8.25 10.5C7.14543 10.5 6.25 9.60457 6.25 8.5C6.25 7.39543 7.14543 6.5 8.25 6.5C9.18192 6.5 9.96497 7.13739 10.187 8H13.813C13.813 8.00006 13.813 7.99994 13.813 8C14.035 7.1373 14.818 6.5 15.75 6.5C16.8546 6.5 17.75 7.39543 17.75 8.5C17.75 9.60457 16.8546 10.5 15.75 10.5C15.3544 10.5 14.9857 10.3852 14.6753 10.187L10.0071 14.5439C10.0848 14.6864 10.1456 14.8393 10.187 15H13.813C14.035 14.1374 14.8181 13.5 15.75 13.5C16.8546 13.5 17.75 14.3954 17.75 15.5C17.75 16.6046 16.8546 17.5 15.75 17.5C14.8181 17.5 14.035 16.8626 13.813 16H10.187ZM9.25 15.5C9.25 16.0523 8.80228 16.5 8.25 16.5C7.69772 16.5 7.25 16.0523 7.25 15.5C7.25 14.9477 7.69772 14.5 8.25 14.5C8.80228 14.5 9.25 14.9477 9.25 15.5ZM15.75 9.5C16.3023 9.5 16.75 9.05228 16.75 8.5C16.75 7.94772 16.3023 7.5 15.75 7.5C15.1977 7.5 14.75 7.94772 14.75 8.5C14.75 9.05228 15.1977 9.5 15.75 9.5ZM9.25 8.5C9.25 9.05228 8.80228 9.5 8.25 9.5C7.69772 9.5 7.25 9.05228 7.25 8.5C7.25 7.94772 7.69772 7.5 8.25 7.5C8.80228 7.5 9.25 7.94772 9.25 8.5Z" fill="#171D26"/>
<path fill-rule="evenodd" clip-rule="evenodd" d="M4 6C4 4.89543 4.89543 4 6 4H18C19.1046 4 20 4.89543 20 6V18C20 19.1046 19.1046 20 18 20H6C4.89543 20 4 19.1046 4 18V6ZM6 5H18C18.5523 5 19 5.44772 19 6V18C19 18.5523 18.5523 19 18 19H6C5.44772 19 5 18.5523 5 18V6C5 5.44772 5.44772 5 6 5Z" fill="#171D26"/>
</svg>
