<svg width="24" height="24" viewBox="0 0 24 24" fill="none" xmlns="http://www.w3.org/2000/svg">
<path fill-rule="evenodd" clip-rule="evenodd" d="M12 19C15.866 19 19 15.866 19 12C19 8.13401 15.866 5 12 5C8.13401 5 5 8.13401 5 12C5 15.866 8.13401 19 12 19ZM12 20C16.4183 20 20 16.4183 20 12C20 7.58172 16.4183 4 12 4C7.58172 4 4 7.58172 4 12C4 16.4183 7.58172 20 12 20Z" fill="#171D26"/>
<path fill-rule="evenodd" clip-rule="evenodd" d="M13.934 17.2096C14.5748 15.928 15 14.0876 15 12C15 9.91244 14.5748 8.07196 13.934 6.79036C13.2633 5.44895 12.5217 5 12 5C11.4783 5 10.7367 5.44895 10.066 6.79036C9.4252 8.07196 9 9.91244 9 12C9 14.0876 9.4252 15.928 10.066 17.2096C10.7367 18.5511 11.4783 19 12 19C12.5217 19 13.2633 18.5511 13.934 17.2096ZM12 20C14.2091 20 16 16.4183 16 12C16 7.58172 14.2091 4 12 4C9.79086 4 8 7.58172 8 12C8 16.4183 9.79086 20 12 20Z" fill="#171D26"/>
<path fill-rule="evenodd" clip-rule="evenodd" d="M5.81806 17.0781C7.2853 15.5039 9.50978 14.5 12 14.5C14.4902 14.5 16.7147 15.5039 18.1819 17.0781C17.9689 17.3372 17.7399 17.5826 17.4965 17.8129C16.2346 16.4211 14.2761 15.5 12 15.5C9.72391 15.5 7.76538 16.4211 6.50354 17.8129C6.26009 17.5826 6.0311 17.3372 5.81806 17.0781Z" fill="#171D26"/>
<path fill-rule="evenodd" clip-rule="evenodd" d="M6.50204 6.18857C6.25914 6.41844 6.03066 6.66337 5.81806 6.92188C5.94462 7.05766 6.07682 7.1892 6.21433 7.31623C7.67103 8.66179 9.72458 9.5 12 9.5C14.2754 9.5 16.329 8.66179 17.7857 7.31623C17.9232 7.1892 18.0554 7.05766 18.1819 6.92188C17.9693 6.66337 17.7409 6.41844 17.498 6.18857C17.3744 6.32411 17.244 6.45526 17.1071 6.58165C15.8404 7.75179 14.031 8.5 12 8.5C9.96897 8.5 8.15965 7.75179 6.89286 6.58165C6.75603 6.45526 6.62564 6.32411 6.50204 6.18857Z" fill="#171D26"/>
<path fill-rule="evenodd" clip-rule="evenodd" d="M19.6265 12.5H4.37347V11.5H19.6265V12.5Z" fill="#171D26"/>
</svg>
