<svg width="24" height="24" viewBox="0 0 24 24" fill="none" xmlns="http://www.w3.org/2000/svg">
<path fill-rule="evenodd" clip-rule="evenodd" d="M4 9C4 7.89543 4.89543 7 6 7H8V4.5C8 4.22386 8.22386 4 8.5 4H15.5C15.7761 4 16 4.22386 16 4.5V7H18C19.1046 7 20 7.89543 20 9V18C20 19.1046 19.1046 20 18 20H6C4.89543 20 4 19.1046 4 18V9ZM9 9.5V5H15V9.5H9ZM8 9.5V8H6C5.44772 8 5 8.44772 5 9V11C5 11.5523 5.44772 12 6 12H18C18.5523 12 19 11.5523 19 11V9C19 8.44772 18.5523 8 18 8H16V9.5H17C17.2761 9.5 17.5 9.72386 17.5 10C17.5 10.2761 17.2761 10.5 17 10.5H7C6.72386 10.5 6.5 10.2761 6.5 10C6.5 9.72386 6.72386 9.5 7 9.5H8ZM19 12.7324C18.7058 12.9026 18.3643 13 18 13H6C5.63571 13 5.29417 12.9026 5 12.7324V18C5 18.5523 5.44772 19 6 19H18C18.5523 19 19 18.5523 19 18V12.7324Z" fill="#171D26"/>
</svg>
