<svg width="24" height="24" viewBox="0 0 24 24" fill="none" xmlns="http://www.w3.org/2000/svg">
  <path fill-rule="evenodd" clip-rule="evenodd"
    d="M18.5 14.5H19.5C20.0523 14.5 20.5 14.0523 20.5 13.5V10.5C20.5 9.94772 20.0523 9.5 19.5 9.5H18.5V7C18.5 6.17157 17.8284 5.5 17 5.5H14.5V4.5C14.5 3.94772 14.0523 3.5 13.5 3.5H10.5C9.94772 3.5 9.5 3.94772 9.5 4.5V5.5H7C6.17157 5.5 5.5 6.17157 5.5 7V9.5H4.5C3.94772 9.5 3.5 9.94772 3.5 10.5V13.5C3.5 14.0523 3.94772 14.5 4.5 14.5H5.5V16.5C5.5 17.3284 6.17157 18 7 18H9.5V19C9.5 19.5523 9.94772 20 10.5 20H13.5C14.0523 20 14.5 19.5523 14.5 19V18H17C17.8284 18 18.5 17.3284 18.5 16.5V14.5ZM10.5 7.5V4.5L13.5 4.5V7.5H10.5ZM10.5 8.5C9.94772 8.5 9.5 8.05228 9.5 7.5V6.5H7C6.72386 6.5 6.5 6.72386 6.5 7V9.5H7.5C8.05228 9.5 8.5 9.94772 8.5 10.5V11.25H11.5V8.5H10.5ZM11.5 12.25H8.5V13.5C8.5 14.0523 8.05228 14.5 7.5 14.5H6.5V16.5C6.5 16.7761 6.72386 17 7 17H9.5V16C9.5 15.4477 9.94772 15 10.5 15H11.5V12.25ZM12.5 12.25H15.5V13.5C15.5 14.0523 15.9477 14.5 16.5 14.5H17.5V16.5C17.5 16.7761 17.2761 17 17 17H14.5V16C14.5 15.4477 14.0523 15 13.5 15H12.5V12.25ZM15.5 11.25H12.5V8.5H13.5C14.0523 8.5 14.5 8.05228 14.5 7.5V6.5H17C17.2761 6.5 17.5 6.72386 17.5 7V9.5H16.5C15.9477 9.5 15.5 9.94772 15.5 10.5V11.25ZM16.5 13.5V10.5H19.5V13.5H16.5ZM7.5 13.5V10.5H4.5L4.5 13.5H7.5ZM13.5 19H10.5V16H13.5V19Z"
    fill="#171D26" />
</svg>