<svg width="24" height="24" viewBox="0 0 24 24" fill="none" xmlns="http://www.w3.org/2000/svg">
<path d="M13.5 6.5C13.2239 6.5 13 6.72386 13 7C13 7.27614 13.2239 7.5 13.5 7.5L17 7.5C17.2761 7.5 17.5 7.27614 17.5 7C17.5 6.72386 17.2761 6.5 17 6.5L13.5 6.5Z" fill="#171D26"/>
<path d="M13.5 9C13.2239 9 13 9.22386 13 9.5C13 9.77614 13.2239 10 13.5 10L17 10C17.2761 10 17.5 9.77614 17.5 9.5C17.5 9.22386 17.2761 9 17 9L13.5 9Z" fill="#171D26"/>
<path fill-rule="evenodd" clip-rule="evenodd" d="M9 10.5C7.067 10.5 5.5 12.067 5.5 14V14.6304C5.5 15.1107 5.88932 15.5 6.36957 15.5H11.6304C12.1107 15.5 12.5 15.1107 12.5 14.6304V14C12.5 12.067 10.933 10.5 9 10.5ZM11.5 14.5V14C11.5 12.6193 10.3807 11.5 9 11.5C7.61929 11.5 6.5 12.6193 6.5 14V14.5H11.5Z" fill="#171D26"/>
<path fill-rule="evenodd" clip-rule="evenodd" d="M11 8C11 9.10457 10.1046 10 9 10C7.89543 10 7 9.10457 7 8C7 6.89543 7.89543 6 9 6C10.1046 6 11 6.89543 11 8ZM10 8C10 8.55228 9.55228 9 9 9C8.44772 9 8 8.55228 8 8C8 7.44772 8.44772 7 9 7C9.55228 7 10 7.44772 10 8Z" fill="#171D26"/>
<path fill-rule="evenodd" clip-rule="evenodd" d="M12.626 17.5H5.5C4.39543 17.5 3.5 16.6046 3.5 15.5V6C3.5 4.89543 4.39543 4 5.5 4H17.5C18.6046 4 19.5 4.89543 19.5 6V13.8542C20.1224 14.5593 20.5 15.4856 20.5 16.5C20.5 18.7091 18.7091 20.5 16.5 20.5C14.6362 20.5 13.0701 19.2252 12.626 17.5ZM5.5 5H17.5C18.0523 5 18.5 5.44772 18.5 6V13.0351C17.9117 12.6948 17.2286 12.5 16.5 12.5C14.2909 12.5 12.5 14.2909 12.5 16.5H5.5C4.94772 16.5 4.5 16.0523 4.5 15.5V6C4.5 5.44772 4.94772 5 5.5 5ZM18.4806 15.012C18.7039 15.1744 18.7533 15.4871 18.5909 15.7105L17.0892 17.7752C16.7474 18.2453 16.0782 18.3259 15.6346 17.9505L14.8636 17.2981C14.6527 17.1197 14.6265 16.8042 14.8048 16.5934C14.9832 16.3826 15.2987 16.3563 15.5095 16.5347L16.2805 17.1871L17.7822 15.1223C17.9446 14.899 18.2573 14.8496 18.4806 15.012Z" fill="#171D26"/>
</svg>
