<svg width="24" height="24" viewBox="0 0 24 24" fill="none" xmlns="http://www.w3.org/2000/svg">
<path d="M21.2205 6.28764C20.4985 5.37306 19.1656 5 16.6201 5H7.37974C4.77594 5 3.42045 5.39713 2.70123 6.37084C2 7.32021 2 8.71903 2 10.655V14.345C2 18.0957 2.832 20 7.37974 20H16.6201C18.8276 20 20.0508 19.6708 20.8422 18.8637C21.6537 18.036 22 16.6846 22 14.345V10.655C22 8.61335 21.9457 7.20628 21.2205 6.28764ZM14.8401 13.0095L10.6441 15.3465C10.5503 15.3988 10.4477 15.4247 10.3452 15.4247C10.2292 15.4247 10.1135 15.3914 10.011 15.3253C9.81794 15.2006 9.70006 14.9777 9.70006 14.7371V10.078C9.70006 9.83794 9.81761 9.61518 10.0103 9.49046C10.203 9.36573 10.4426 9.35721 10.6426 9.46791L14.8386 11.7899C15.0521 11.908 15.1861 12.1429 15.1865 12.3991C15.1867 12.6556 15.0532 12.8908 14.8401 13.0095Z" fill="#171D26"/>
</svg>
