<svg width="470" height="470" viewBox="0 0 470 470" fill="none" xmlns="http://www.w3.org/2000/svg">
<g clip-path="url(#clip0_5822_15606)">
<mask id="path-2-inside-1_5822_15606" fill="white">
<path d="M379.726 25.3608C372.936 18.5701 364.819 11.9243 355.216 11.9221L341.947 11.9192C332.339 11.9171 324.217 18.5662 317.423 25.3602C303.364 39.419 280.57 39.419 266.511 25.3602C252.453 11.3013 252.453 -11.4927 266.511 -25.5515C280.57 -39.6104 303.364 -39.6104 317.423 -25.5515C324.227 -18.7477 332.357 -12.0829 341.979 -12.0808L355.157 -12.0779C364.784 -12.0757 372.919 -18.7437 379.726 -25.5508C393.785 -39.6097 416.579 -39.6097 430.638 -25.5508C444.697 -11.492 444.697 11.302 430.638 25.3608C416.579 39.4197 393.785 39.4197 379.726 25.3608Z"/>
<path d="M40.1992 313.976C26.1403 328.035 26.1404 350.829 40.1992 364.888C54.2581 378.947 77.052 378.947 91.1109 364.888C105.17 350.829 105.17 328.035 91.1109 313.976C77.052 299.918 54.2581 299.918 40.1992 313.976Z"/>
<path d="M-323.84 690.978C-314.237 690.98 -306.12 697.626 -299.329 704.417C-285.271 718.476 -262.477 718.476 -248.418 704.417C-234.359 690.358 -234.359 667.564 -248.418 653.505C-262.477 639.446 -285.271 639.446 -299.329 653.505C-306.136 660.312 -314.272 666.98 -323.898 666.978L-337.077 666.975C-346.699 666.973 -354.829 660.308 -361.633 653.504C-369.292 645.844 -377.247 636.849 -377.249 626.016L-377.251 618.7C-377.253 607.864 -369.296 598.863 -361.634 591.201C-347.575 577.142 -347.575 554.348 -361.634 540.289C-375.692 526.23 -398.486 526.23 -412.545 540.289C-426.604 554.348 -426.604 577.142 -412.545 591.201C-406.66 597.086 -401.254 604.25 -401.252 612.573L-401.248 632.118C-401.246 640.446 -406.655 647.615 -412.544 653.504C-426.603 667.563 -426.603 690.357 -412.544 704.416C-398.485 718.475 -375.691 718.475 -361.633 704.416C-354.839 697.622 -346.717 690.973 -337.109 690.975L-323.84 690.978Z"/>
<path d="M-97.5476 214.207C-87.9366 214.209 -79.8126 207.557 -73.0166 200.761C-58.9577 186.702 -36.1638 186.702 -22.1049 200.761C-8.04601 214.819 -8.046 237.613 -22.1049 251.672C-29.7673 259.335 -37.7243 268.335 -37.7219 279.172L-37.7202 286.488C-37.7178 297.321 -29.7638 306.316 -22.1042 313.976C-8.04532 328.035 -8.04531 350.829 -22.1042 364.887C-36.1631 378.946 -58.957 378.946 -73.0159 364.887C-87.0748 350.829 -87.0748 328.035 -73.0159 313.976C-67.1267 308.087 -61.7171 300.918 -61.719 292.589L-61.7233 273.044C-61.7251 264.721 -67.1312 257.558 -73.0166 251.672C-79.8184 244.87 -87.9463 238.209 -97.5655 238.207L-110.758 238.204C-120.382 238.202 -128.515 244.866 -135.32 251.671C-149.379 265.73 -172.173 265.73 -186.232 251.671C-200.291 237.613 -200.291 214.819 -186.232 200.76C-172.173 186.701 -149.379 186.701 -135.32 200.76C-128.527 207.553 -120.409 214.201 -110.802 214.204L-97.5476 214.207Z"/>
<path d="M266.511 -138.766C259.715 -131.971 251.591 -125.319 241.98 -125.321L228.725 -125.324C219.119 -125.326 211 -131.975 204.207 -138.768C190.148 -152.826 167.354 -152.826 153.295 -138.768C139.237 -124.709 139.237 -101.915 153.295 -87.8558C167.354 -73.7969 190.148 -73.797 204.207 -87.8558C211.012 -94.6609 219.145 -101.326 228.769 -101.324L241.961 -101.321C251.581 -101.319 259.709 -94.6567 266.511 -87.8548C280.569 -73.7959 303.363 -73.7959 317.422 -87.8548C331.481 -101.914 331.481 -124.708 317.422 -138.766C303.363 -152.825 280.569 -152.825 266.511 -138.766Z"/>
<path d="M323.158 -31.2077C309.099 -45.2666 309.099 -68.0605 323.158 -82.1194C337.217 -96.1782 360.011 -96.1783 374.07 -82.1194C388.129 -68.0605 388.128 -45.2665 374.07 -31.2077C360.011 -17.1489 337.217 -17.1488 323.158 -31.2077Z"/>
<path d="M210.021 -195.256C195.962 -181.198 195.962 -158.404 210.021 -144.345C224.08 -130.286 246.874 -130.286 260.933 -144.345C274.991 -158.404 274.991 -181.198 260.933 -195.256C246.874 -209.315 224.08 -209.315 210.021 -195.256Z"/>
<path d="M97.5909 -256.775C83.532 -270.834 83.5321 -293.628 97.5909 -307.686C111.65 -321.745 134.444 -321.745 148.503 -307.686C162.561 -293.628 162.561 -270.834 148.503 -256.775C134.444 -242.716 111.65 -242.716 97.5909 -256.775Z"/>
<path d="M205.534 -81.8756C191.476 -67.8168 191.476 -45.0228 205.534 -30.9639C219.593 -16.9051 242.387 -16.9051 256.446 -30.9639C270.505 -45.0228 270.505 -67.8168 256.446 -81.8756C242.387 -95.9345 219.593 -95.9345 205.534 -81.8756Z"/>
<path d="M94.5187 -141.98C80.4598 -156.039 80.4599 -178.833 94.5187 -192.891C108.578 -206.95 131.372 -206.95 145.43 -192.891C159.489 -178.833 159.489 -156.039 145.43 -141.98C131.372 -127.921 108.578 -127.921 94.5187 -141.98Z"/>
<path d="M210.258 30.7808C196.199 44.8397 196.199 67.6337 210.258 81.6925C224.317 95.7514 247.111 95.7514 261.169 81.6925C275.228 67.6337 275.228 44.8397 261.169 30.7808C247.111 16.722 224.317 16.722 210.258 30.7808Z"/>
<path d="M97.1206 -31.4445C83.0618 -45.5034 83.0618 -68.2974 97.1206 -82.3562C111.179 -96.4151 133.973 -96.4151 148.032 -82.3562C162.091 -68.2974 162.091 -45.5034 148.032 -31.4445C133.973 -17.3857 111.18 -17.3857 97.1206 -31.4445Z"/>
<path d="M-15.3093 -194.786C-29.3682 -180.727 -29.3682 -157.933 -15.3093 -143.875C-1.25046 -129.816 21.5435 -129.816 35.6023 -143.875C49.6612 -157.933 49.6612 -180.727 35.6023 -194.786C21.5435 -208.845 -1.2505 -208.845 -15.3093 -194.786Z"/>
<path d="M322.444 82.6434C308.385 68.5845 308.385 45.7906 322.444 31.7317C336.503 17.6729 359.297 17.6728 373.356 31.7317C387.414 45.7906 387.414 68.5846 373.356 82.6434C359.297 96.7022 336.503 96.7023 322.444 82.6434Z"/>
<path d="M92.6342 31.0246C78.5753 45.0835 78.5754 67.8774 92.6342 81.9363C106.693 95.9952 129.487 95.9952 143.546 81.9363C157.605 67.8774 157.605 45.0835 143.546 31.0246C129.487 16.9657 106.693 16.9657 92.6342 31.0246Z"/>
<path d="M-18.3815 -29.0795C-32.4404 -43.1384 -32.4405 -65.9322 -18.3815 -79.9912C-4.3226 -94.0501 18.4713 -94.05 32.5302 -79.9912C46.589 -65.9323 46.5891 -43.1384 32.5302 -29.0795C18.4712 -15.0205 -4.32264 -15.0206 -18.3815 -29.0795Z"/>
<path d="M97.3575 143.681C83.2986 157.74 83.2986 180.534 97.3575 194.593C111.416 208.652 134.21 208.652 148.269 194.593C162.328 180.534 162.328 157.74 148.269 143.681C134.21 129.622 111.416 129.622 97.3575 143.681Z"/>
<path d="M-15.7796 81.4557C-29.8385 67.3968 -29.8385 44.6029 -15.7796 30.544C-1.72067 16.4851 21.0732 16.4851 35.1321 30.544C49.191 44.6029 49.191 67.3968 35.1321 81.4557C21.0732 95.5146 -1.72071 95.5146 -15.7796 81.4557Z"/>
<path d="M-128.21 -81.886C-142.268 -67.8271 -142.268 -45.0332 -128.21 -30.9743C-114.151 -16.9154 -91.3568 -16.9154 -77.2979 -30.9743C-63.239 -45.0332 -63.239 -67.8271 -77.2979 -81.886C-91.3568 -95.9449 -114.151 -95.9449 -128.21 -81.886Z"/>
<path d="M209.544 195.544C195.485 181.485 195.485 158.691 209.544 144.632C223.603 130.573 246.397 130.573 260.455 144.632C274.514 158.691 274.514 181.485 260.455 195.544C246.396 209.603 223.603 209.603 209.544 195.544Z"/>
<path d="M-20.266 143.925C-34.3249 157.984 -34.3249 180.778 -20.266 194.837C-6.20712 208.895 16.5868 208.895 30.6457 194.837C44.7046 180.778 44.7046 157.984 30.6457 143.925C16.5868 129.866 -6.20711 129.866 -20.266 143.925Z"/>
<path d="M-131.282 83.8208C-145.341 69.7619 -145.341 46.968 -131.282 32.9091C-117.223 18.8502 -94.429 18.8502 -80.3701 32.9091C-66.3112 46.968 -66.3112 69.7619 -80.3701 83.8208C-94.429 97.8796 -117.223 97.8796 -131.282 83.8208Z"/>
<path d="M-15.5427 256.581C-29.6016 270.64 -29.6016 293.434 -15.5427 307.493C-1.48387 321.552 21.3101 321.552 35.3689 307.493C49.4278 293.434 49.4278 270.64 35.3689 256.581C21.3101 242.522 -1.48386 242.522 -15.5427 256.581Z"/>
<path d="M-128.68 194.356C-142.739 180.297 -142.739 157.503 -128.68 143.444C-114.621 129.385 -91.827 129.385 -77.7681 143.444C-63.7093 157.503 -63.7093 180.297 -77.7681 194.356C-91.827 208.415 -114.621 208.415 -128.68 194.356Z"/>
<path d="M-241.11 31.0142C-255.169 45.0731 -255.169 67.8671 -241.11 81.9259C-227.051 95.9848 -204.257 95.9848 -190.198 81.9259C-176.139 67.8671 -176.139 45.0731 -190.198 31.0142C-204.257 16.9554 -227.051 16.9554 -241.11 31.0142Z"/>
<path d="M96.6435 308.444C82.5846 294.385 82.5846 271.591 96.6435 257.532C110.702 243.473 133.496 243.473 147.555 257.532C161.614 271.591 161.614 294.385 147.555 308.444C133.496 322.503 110.702 322.503 96.6435 308.444Z"/>
<path d="M-133.166 256.825C-147.225 270.884 -147.225 293.678 -133.166 307.737C-119.107 321.796 -96.3134 321.796 -82.2545 307.737C-68.1957 293.678 -68.1957 270.884 -82.2545 256.825C-96.3134 242.766 -119.107 242.766 -133.166 256.825Z"/>
<path d="M-244.182 196.721C-258.241 182.662 -258.241 159.868 -244.182 145.809C-230.123 131.75 -207.329 131.75 -193.27 145.809C-179.211 159.868 -179.211 182.662 -193.27 196.721C-207.329 210.78 -230.123 210.78 -244.182 196.721Z"/>
<path d="M-128.443 369.482C-142.502 383.54 -142.502 406.334 -128.443 420.393C-114.384 434.452 -91.5902 434.452 -77.5313 420.393C-63.4724 406.334 -63.4724 383.54 -77.5313 369.482C-91.5902 355.423 -114.384 355.423 -128.443 369.482Z"/>
<path d="M-241.58 307.256C-255.639 293.197 -255.639 270.403 -241.58 256.344C-227.521 242.286 -204.727 242.286 -190.668 256.344C-176.609 270.403 -176.609 293.197 -190.668 307.256C-204.727 321.315 -227.521 321.315 -241.58 307.256Z"/>
<path d="M-354.01 143.914C-368.069 157.973 -368.069 180.767 -354.01 194.826C-339.951 208.885 -317.157 208.885 -303.098 194.826C-289.039 180.767 -289.039 157.973 -303.098 143.914C-317.157 129.856 -339.951 129.856 -354.01 143.914Z"/>
<path d="M-16.2568 421.344C-30.3156 407.285 -30.3156 384.491 -16.2568 370.432C-2.19787 356.374 20.5961 356.374 34.6549 370.432C48.7138 384.491 48.7138 407.285 34.6549 421.344C20.5961 435.403 -2.19788 435.403 -16.2568 421.344Z"/>
<path d="M-246.066 369.725C-260.125 383.784 -260.125 406.578 -246.066 420.637C-232.008 434.696 -209.214 434.696 -195.155 420.637C-181.096 406.578 -181.096 383.784 -195.155 369.725C-209.214 355.666 -232.008 355.666 -246.066 369.725Z"/>
<path d="M-357.082 309.621C-371.141 295.562 -371.141 272.768 -357.082 258.71C-343.023 244.651 -320.229 244.651 -306.171 258.71C-292.112 272.768 -292.112 295.562 -306.171 309.621C-320.229 323.68 -343.023 323.68 -357.082 309.621Z"/>
<path d="M-241.343 482.382C-255.402 496.441 -255.402 519.235 -241.343 533.293C-227.284 547.352 -204.49 547.352 -190.432 533.293C-176.373 519.235 -176.373 496.441 -190.432 482.382C-204.49 468.323 -227.284 468.323 -241.343 482.382Z"/>
<path d="M-354.48 420.156C-368.539 406.097 -368.539 383.304 -354.48 369.245C-340.421 355.186 -317.627 355.186 -303.569 369.245C-289.51 383.304 -289.51 406.097 -303.569 420.156C-317.627 434.215 -340.421 434.215 -354.48 420.156Z"/>
<path d="M-466.91 256.815C-480.969 270.874 -480.969 293.668 -466.91 307.726C-452.851 321.785 -430.057 321.785 -415.999 307.726C-401.94 293.668 -401.94 270.874 -415.999 256.815C-430.057 242.756 -452.851 242.756 -466.91 256.815Z"/>
<path d="M-129.157 534.244C-143.216 520.185 -143.216 497.392 -129.157 483.333C-115.098 469.274 -92.3042 469.274 -78.2453 483.333C-64.1864 497.392 -64.1864 520.185 -78.2453 534.244C-92.3042 548.303 -115.098 548.303 -129.157 534.244Z"/>
<path d="M-358.967 482.626C-373.026 496.684 -373.026 519.478 -358.967 533.537C-344.908 547.596 -322.114 547.596 -308.055 533.537C-293.996 519.478 -293.996 496.684 -308.055 482.626C-322.114 468.567 -344.908 468.567 -358.967 482.626Z"/>
<path d="M-469.982 422.521C-484.041 408.463 -484.041 385.669 -469.982 371.61C-455.924 357.551 -433.13 357.551 -419.071 371.61C-405.012 385.669 -405.012 408.463 -419.071 422.521C-433.13 436.58 -455.924 436.58 -469.982 422.521Z"/>
<path d="M-354.243 595.282C-368.302 609.341 -368.302 632.135 -354.243 646.194C-340.185 660.253 -317.391 660.253 -303.332 646.194C-289.273 632.135 -289.273 609.341 -303.332 595.282C-317.391 581.223 -340.185 581.223 -354.243 595.282Z"/>
<path d="M-467.381 533.057C-481.439 518.998 -481.439 496.204 -467.381 482.145C-453.322 468.086 -430.528 468.086 -416.469 482.145C-402.41 496.204 -402.41 518.998 -416.469 533.057C-430.528 547.115 -453.322 547.115 -467.381 533.057Z"/>
<path d="M-579.81 369.715C-593.869 383.774 -593.869 406.568 -579.81 420.627C-565.752 434.686 -542.958 434.686 -528.899 420.627C-514.84 406.568 -514.84 383.774 -528.899 369.715C-542.958 355.656 -565.752 355.656 -579.81 369.715Z"/>
<path d="M-242.057 647.145C-256.116 633.086 -256.116 610.292 -242.057 596.233C-227.998 582.174 -205.204 582.174 -191.146 596.233C-177.087 610.292 -177.087 633.086 -191.146 647.145C-205.204 661.203 -227.998 661.203 -242.057 647.145Z"/>
<path d="M-471.867 595.526C-485.926 609.585 -485.926 632.379 -471.867 646.437C-457.808 660.496 -435.014 660.496 -420.955 646.437C-406.896 632.379 -406.896 609.585 -420.955 595.526C-435.014 581.467 -457.808 581.467 -471.867 595.526Z"/>
<path d="M-582.883 535.422C-596.942 521.363 -596.942 498.569 -582.883 484.51C-568.824 470.451 -546.03 470.451 -531.971 484.51C-517.912 498.569 -517.912 521.363 -531.971 535.422C-546.03 549.481 -568.824 549.481 -582.883 535.422Z"/>
<path d="M-467.144 708.182C-481.202 722.241 -481.203 745.035 -467.144 759.094C-453.085 773.153 -430.291 773.153 -416.232 759.094C-402.173 745.035 -402.173 722.241 -416.232 708.182C-430.291 694.123 -453.085 694.123 -467.144 708.182Z"/>
<path d="M-580.281 645.957C-594.34 631.898 -594.34 609.104 -580.281 595.045C-566.222 580.986 -543.428 580.986 -529.369 595.045C-515.31 609.104 -515.31 631.898 -529.369 645.957C-543.428 660.016 -566.222 660.016 -580.281 645.957Z"/>
<path d="M-692.711 482.615C-706.77 496.674 -706.77 519.468 -692.711 533.527C-678.652 547.586 -655.858 547.586 -641.799 533.527C-627.74 519.468 -627.74 496.674 -641.799 482.615C-655.858 468.556 -678.652 468.556 -692.711 482.615Z"/>
<path d="M-354.957 760.045C-369.016 745.986 -369.016 723.192 -354.957 709.133C-340.899 695.074 -318.105 695.074 -304.046 709.133C-289.987 723.192 -289.987 745.986 -304.046 760.045C-318.105 774.104 -340.899 774.104 -354.957 760.045Z"/>
<path d="M-584.767 708.426C-598.826 722.485 -598.826 745.279 -584.767 759.338C-570.708 773.397 -547.914 773.397 -533.855 759.338C-519.797 745.279 -519.797 722.485 -533.855 708.426C-547.914 694.367 -570.708 694.367 -584.767 708.426Z"/>
<path d="M-695.783 648.322C-709.842 634.263 -709.842 611.469 -695.783 597.41C-681.724 583.351 -658.93 583.351 -644.871 597.41C-630.812 611.469 -630.812 634.263 -644.871 648.322C-658.93 662.381 -681.724 662.381 -695.783 648.322Z"/>
<path d="M-580.044 821.082C-594.103 835.141 -594.103 857.935 -580.044 871.994C-565.985 886.053 -543.191 886.053 -529.132 871.994C-515.073 857.935 -515.073 835.141 -529.132 821.082C-543.191 807.024 -565.985 807.024 -580.044 821.082Z"/>
<path d="M-693.181 758.857C-707.24 744.798 -707.24 722.004 -693.181 707.945C-679.122 693.887 -656.328 693.886 -642.269 707.945C-628.21 722.004 -628.21 744.798 -642.269 758.857C-656.328 772.916 -679.122 772.916 -693.181 758.857Z"/>
<path d="M-805.611 595.515C-819.67 609.574 -819.67 632.368 -805.611 646.427C-791.552 660.486 -768.758 660.486 -754.699 646.427C-740.64 632.368 -740.64 609.574 -754.699 595.515C-768.758 581.457 -791.552 581.457 -805.611 595.515Z"/>
<path d="M-467.858 872.945C-481.917 858.886 -481.917 836.092 -467.858 822.033C-453.799 807.974 -431.005 807.974 -416.946 822.033C-402.887 836.092 -402.887 858.886 -416.946 872.945C-431.005 887.004 -453.799 887.004 -467.858 872.945Z"/>
<path d="M-697.667 821.326C-711.726 835.385 -711.726 858.179 -697.667 872.238C-683.608 886.297 -660.815 886.297 -646.756 872.238C-632.697 858.179 -632.697 835.385 -646.756 821.326C-660.815 807.267 -683.609 807.267 -697.667 821.326Z"/>
<path d="M-808.683 761.222C-822.742 747.163 -822.742 724.369 -808.683 710.31C-794.624 696.252 -771.83 696.252 -757.771 710.31C-743.713 724.369 -743.713 747.163 -757.771 761.222C-771.83 775.281 -794.624 775.281 -808.683 761.222Z"/>
<path d="M-525.76 591.2C-539.819 577.141 -539.819 554.347 -525.76 540.288C-511.701 526.229 -488.907 526.229 -474.849 540.288C-460.79 554.347 -460.79 577.141 -474.849 591.2C-488.907 605.259 -511.701 605.259 -525.76 591.2Z"/>
<path d="M-638.033 428.016C-652.091 442.075 -652.091 464.869 -638.033 478.927C-623.974 492.986 -601.18 492.986 -587.121 478.927C-580.316 472.122 -572.183 465.457 -562.559 465.459L-548.958 465.462C-539.892 465.465 -532.172 471.575 -525.761 477.985C-511.702 492.044 -488.908 492.044 -474.85 477.985C-460.791 463.926 -460.791 441.132 -474.85 427.073C-488.908 413.014 -511.702 413.014 -525.761 427.073C-532.939 434.251 -541.454 441.464 -551.605 441.462L-562.603 441.459C-572.21 441.457 -580.328 434.809 -587.121 428.016C-601.18 413.957 -623.974 413.957 -638.033 428.016Z"/>
<path d="M-298.504 139.399C-312.563 125.34 -312.563 102.546 -298.504 88.4874C-284.445 74.4285 -261.651 74.4285 -247.593 88.4874C-233.534 102.546 -233.534 125.34 -247.593 139.399C-261.651 153.458 -284.445 153.458 -298.504 139.399Z"/>
<path d="M41.023 -251.04C26.9642 -236.981 26.9642 -214.187 41.023 -200.128C55.0819 -186.069 77.8759 -186.069 91.9347 -200.128C98.7399 -206.933 106.873 -213.598 116.497 -213.596L130.098 -213.593C139.164 -213.591 146.884 -207.481 153.295 -201.071C167.354 -187.012 190.148 -187.012 204.206 -201.071C218.265 -215.13 218.265 -237.924 204.206 -251.983C190.148 -266.042 167.354 -266.041 153.295 -251.983C146.117 -244.804 137.602 -237.592 127.45 -237.594L116.452 -237.596C106.846 -237.598 98.7275 -244.247 91.9347 -251.04C77.8758 -265.099 55.0819 -265.099 41.023 -251.04Z"/>
<path d="M-186.233 87.5446C-200.291 101.604 -200.291 124.397 -186.233 138.456C-172.174 152.515 -149.38 152.515 -135.321 138.456C-121.262 124.397 -121.262 101.604 -135.321 87.5446C-149.38 73.4858 -172.174 73.4858 -186.233 87.5446Z"/>
<path d="M-412.546 766.722C-426.605 780.781 -426.605 803.575 -412.546 817.634C-398.487 831.693 -375.693 831.693 -361.635 817.634C-347.576 803.575 -347.576 780.781 -361.635 766.722C-375.694 752.663 -398.487 752.663 -412.546 766.722Z"/>
<path d="M-97.5873 440.667C-87.9606 440.669 -79.8251 434.001 -73.018 427.194C-58.9591 413.135 -36.1651 413.135 -22.1063 427.194C-8.04739 441.252 -8.04738 464.046 -22.1063 478.105C-36.1651 492.164 -58.9591 492.164 -73.018 478.105C-79.8087 471.315 -87.9251 464.669 -97.5286 464.667L-110.797 464.664C-120.406 464.662 -128.527 471.311 -135.321 478.105C-149.38 492.163 -172.174 492.163 -186.233 478.105C-200.292 464.046 -200.292 441.252 -186.233 427.193C-180.344 421.304 -174.934 414.135 -174.936 405.806L-174.94 386.261C-174.942 377.938 -180.348 370.775 -186.234 364.889C-200.293 350.831 -200.293 328.037 -186.234 313.978C-172.175 299.919 -149.381 299.919 -135.322 313.978C-121.263 328.037 -121.263 350.831 -135.322 364.889C-142.984 372.552 -150.941 381.553 -150.939 392.389L-150.937 399.706C-150.935 410.538 -142.981 419.533 -135.321 427.193C-128.517 433.997 -120.387 440.662 -110.765 440.664L-97.5873 440.667Z"/>
<path d="M266.509 87.6663C259.702 94.4735 251.567 101.141 241.94 101.139L228.762 101.136C219.14 101.134 211.01 94.4695 204.206 87.6657C196.546 80.0061 188.592 71.0105 188.59 60.1783L188.588 52.8616C188.586 42.0254 196.543 33.0246 204.205 25.3622C218.264 11.3034 218.264 -11.4906 204.205 -25.5495C190.146 -39.6083 167.352 -39.6083 153.294 -25.5495C139.235 -11.4906 139.235 11.3034 153.294 25.3622C159.179 31.2476 164.585 38.4109 164.587 46.734L164.591 66.2791C164.593 74.6076 159.183 81.7765 153.294 87.6657C139.235 101.725 139.235 124.518 153.294 138.577C167.353 152.636 190.147 152.636 204.206 138.577C211 131.783 219.122 125.134 228.73 125.136L241.999 125.139C251.602 125.141 259.719 131.787 266.509 138.578C280.568 152.637 303.362 152.637 317.421 138.578C331.48 124.519 331.48 101.725 317.421 87.6663C303.362 73.6075 280.568 73.6075 266.509 87.6663Z"/>
<path d="M-550.254 666.925C-540.659 666.927 -532.547 660.291 -525.762 653.506C-511.703 639.447 -488.909 639.447 -474.85 653.506C-460.792 667.565 -460.792 690.359 -474.85 704.418C-482.513 712.08 -490.47 721.081 -490.468 731.917L-490.466 739.234C-490.464 750.066 -482.509 759.062 -474.85 766.721C-460.791 780.78 -460.791 803.574 -474.85 817.633C-488.909 831.692 -511.703 831.692 -525.761 817.633C-539.82 803.574 -539.82 780.78 -525.761 766.721C-519.872 760.832 -514.463 753.664 -514.465 745.335L-514.469 725.789C-514.471 717.466 -519.877 710.303 -525.762 704.418C-532.575 697.605 -540.715 690.927 -550.35 690.925L-563.465 690.922C-573.105 690.92 -581.249 697.601 -588.066 704.417C-602.125 718.476 -624.919 718.476 -638.977 704.417C-653.036 690.358 -653.036 667.564 -638.977 653.505C-624.919 639.446 -602.125 639.446 -588.066 653.505C-581.284 660.287 -573.177 666.92 -563.587 666.922L-550.254 666.925Z"/>
<path d="M-299.449 364.889C-313.508 350.83 -313.508 328.036 -299.449 313.977C-285.39 299.918 -262.596 299.918 -248.537 313.977C-234.478 328.036 -234.478 350.83 -248.537 364.889C-255.641 371.992 -262.742 380.431 -262.74 390.477L-262.738 401.616C-262.735 411.658 -255.637 420.092 -248.536 427.192C-234.478 441.251 -234.478 464.045 -248.536 478.104C-262.595 492.163 -285.389 492.163 -299.448 478.104C-313.507 464.045 -313.507 441.251 -299.448 427.192C-292.957 420.701 -286.735 412.893 -286.737 403.712L-286.741 388.355C-286.743 379.179 -292.961 371.377 -299.449 364.889Z"/>
<path d="M40.0782 -25.5503C26.0193 -11.4914 26.0193 11.3025 40.0782 25.3614C45.9637 31.2468 51.3699 38.4101 51.3717 46.7334L51.376 66.2784C51.3779 74.6069 45.9682 81.7758 40.0791 87.665C33.283 94.461 25.1591 101.113 15.5481 101.111L2.29358 101.108C-7.31298 101.106 -15.4317 94.4569 -22.2245 87.6641C-36.2834 73.6052 -59.0773 73.6052 -73.1362 87.6641C-87.1951 101.723 -87.1951 124.517 -73.1362 138.576C-59.0773 152.635 -36.2834 152.635 -22.2245 138.576C-15.4195 131.771 -7.28627 125.106 2.33744 125.108L15.5301 125.111C25.1493 125.113 33.2773 131.775 40.0791 138.577C54.138 152.636 76.9318 152.636 90.9908 138.577C105.05 124.518 105.05 101.724 90.9908 87.665C83.3312 80.0054 75.3771 71.0098 75.3747 60.1776L75.3731 52.8605C75.3707 42.0243 83.3276 33.0237 90.9899 25.3614C105.049 11.3024 105.049 -11.4914 90.9899 -25.5503C76.931 -39.6092 54.1371 -39.6093 40.0782 -25.5503Z"/>
<path d="M-751.25 541.233C-765.309 555.292 -765.309 578.086 -751.25 592.145C-737.191 606.204 -714.397 606.203 -700.338 592.145C-693.533 585.339 -685.4 578.674 -675.776 578.676L-662.175 578.679C-653.109 578.681 -645.388 584.792 -638.978 591.202C-624.919 605.261 -602.125 605.261 -588.066 591.202C-574.008 577.143 -574.008 554.349 -588.066 540.29C-602.125 526.231 -624.919 526.231 -638.978 540.29C-646.156 547.468 -654.671 554.681 -664.822 554.679L-675.821 554.676C-685.427 554.674 -693.545 548.026 -700.338 541.233C-714.397 527.174 -737.191 527.174 -751.25 541.233Z"/>
<path d="M-411.721 252.616C-425.78 238.557 -425.78 215.763 -411.721 201.705C-397.663 187.646 -374.869 187.646 -360.81 201.705C-354.017 208.497 -345.898 215.146 -336.292 215.148L-325.294 215.151C-315.143 215.153 -306.628 207.94 -299.45 200.762C-285.391 186.703 -262.597 186.703 -248.538 200.762C-234.479 214.821 -234.479 237.615 -248.538 251.674C-262.597 265.732 -285.391 265.732 -299.45 251.674C-305.86 245.263 -313.581 239.153 -322.646 239.151L-336.248 239.148C-345.871 239.146 -354.005 245.811 -360.81 252.616C-374.869 266.675 -397.663 266.675 -411.721 252.616Z"/>
<path d="M-72.1941 -137.823C-86.2531 -123.764 -86.253 -100.97 -72.1941 -86.911C-58.1353 -72.8521 -35.3414 -72.8521 -21.2825 -86.911C-14.4773 -93.7161 -6.34407 -100.381 3.27979 -100.379L16.8811 -100.376C25.9466 -100.374 33.6673 -94.264 40.0775 -87.8538C54.1364 -73.7949 76.9304 -73.7949 90.9892 -87.8538C105.048 -101.913 105.048 -124.707 90.9892 -138.765C76.9303 -152.824 54.1364 -152.824 40.0775 -138.765C32.8993 -131.587 24.3845 -124.374 14.233 -124.377L3.23527 -124.379C-6.37113 -124.381 -14.4897 -131.03 -21.2825 -137.823C-35.3413 -151.882 -58.1352 -151.882 -72.1941 -137.823Z"/>
<path d="M-550.272 917.409C-540.668 917.411 -532.552 924.057 -525.761 930.848C-511.702 944.907 -488.908 944.907 -474.849 930.848C-460.79 916.789 -460.79 893.995 -474.849 879.936C-488.908 865.878 -511.702 865.878 -525.761 879.936C-532.568 886.743 -540.703 893.411 -550.33 893.409L-563.508 893.406C-573.13 893.404 -581.26 886.739 -588.064 879.936C-602.123 865.877 -624.917 865.877 -638.976 879.936C-653.035 893.995 -653.035 916.789 -638.976 930.847C-624.917 944.906 -602.123 944.906 -588.064 930.847C-581.27 924.053 -573.148 917.404 -563.54 917.406L-550.272 917.409Z"/>
<path d="M-186.232 591.32C-193.023 584.529 -201.14 577.883 -210.743 577.881L-224.012 577.878C-233.62 577.876 -241.742 584.525 -248.536 591.319C-262.595 605.378 -285.389 605.378 -299.447 591.319C-313.506 577.26 -313.506 554.466 -299.447 540.407C-285.389 526.348 -262.595 526.348 -248.536 540.407C-241.732 547.211 -233.602 553.876 -223.98 553.878L-210.802 553.881C-201.175 553.883 -193.04 547.215 -186.232 540.408C-172.173 526.349 -149.38 526.349 -135.321 540.408C-121.262 554.467 -121.262 577.261 -135.321 591.32C-149.38 605.379 -172.174 605.379 -186.232 591.32Z"/>
<path d="M128.784 238.354C138.388 238.356 146.504 245.002 153.295 251.792C167.354 265.851 190.148 265.851 204.207 251.792C218.265 237.734 218.265 214.94 204.207 200.881C190.148 186.822 167.354 186.822 153.295 200.881C146.488 207.688 138.352 214.356 128.726 214.354L115.548 214.351C105.925 214.349 97.7953 207.684 90.9915 200.88C76.9326 186.821 54.1387 186.821 40.0798 200.88C26.0209 214.939 26.0209 237.733 40.0798 251.792C54.1386 265.851 76.9326 265.851 90.9915 251.792C97.7854 244.998 105.907 238.349 115.515 238.351L128.784 238.354Z"/>
<path d="M-752.192 817.631C-766.251 803.573 -766.251 780.779 -752.192 766.72C-747.916 762.444 -744.429 757.073 -744.43 751.026L-744.437 720.092C-744.438 714.052 -747.922 708.687 -752.193 704.416C-759.028 697.581 -767.19 690.871 -776.857 690.869L-787.566 690.866C-797.776 690.864 -806.333 698.139 -813.553 705.359C-827.611 719.418 -850.405 719.418 -864.464 705.359C-878.523 691.3 -878.523 668.506 -864.464 654.447C-850.405 640.389 -827.611 640.388 -813.553 654.447C-807.186 660.814 -799.511 666.864 -790.508 666.866L-776.608 666.869C-767.044 666.871 -758.955 660.267 -752.193 653.505C-738.134 639.446 -715.34 639.446 -701.281 653.505C-687.222 667.564 -687.222 690.357 -701.281 704.416C-701.465 704.6 -701.651 704.782 -701.838 704.962C-710.677 713.433 -720.436 723.333 -720.433 735.576C-720.431 747.813 -710.677 757.705 -701.841 766.17C-701.653 766.351 -701.466 766.534 -701.28 766.72C-694.487 773.512 -686.369 780.161 -676.763 780.163L-663.507 780.166C-653.896 780.168 -645.772 773.517 -638.977 766.721C-624.918 752.662 -602.124 752.662 -588.065 766.721C-574.006 780.779 -574.006 803.573 -588.065 817.632C-602.124 831.691 -624.918 831.691 -638.977 817.632C-645.778 810.83 -653.907 804.168 -663.526 804.166L-676.718 804.163C-686.342 804.161 -694.475 810.826 -701.28 817.631C-715.339 831.69 -738.133 831.69 -752.192 817.631Z"/>
<path d="M-412.663 427.191C-426.722 441.25 -426.722 464.044 -412.663 478.103C-398.605 492.162 -375.811 492.162 -361.752 478.103C-347.693 464.044 -347.693 441.25 -361.752 427.191C-369.684 419.26 -378.073 409.996 -378.075 398.778L-378.077 393.313C-378.079 382.092 -369.687 372.822 -361.752 364.888C-347.694 350.829 -347.694 328.035 -361.752 313.976C-375.811 299.917 -398.605 299.917 -412.664 313.976C-419.427 320.739 -427.516 327.343 -437.08 327.341L-450.979 327.338C-459.983 327.336 -467.657 321.286 -474.024 314.919C-488.083 300.86 -510.877 300.86 -524.936 314.919C-538.995 328.978 -538.995 351.772 -524.936 365.831C-510.877 379.89 -488.083 379.89 -474.024 365.831C-466.805 358.611 -458.248 351.336 -448.038 351.338L-437.328 351.341C-427.662 351.343 -419.499 358.053 -412.664 364.888C-407.089 370.463 -402.08 377.291 -402.078 385.175L-402.074 406.889C-402.072 414.779 -407.084 421.612 -412.663 427.191Z"/>
<path d="M-185.409 -24.6083C-199.467 -10.5494 -199.467 12.2445 -185.409 26.3034C-171.35 40.3623 -148.556 40.3623 -134.497 26.3034C-127.277 19.0838 -118.72 11.8088 -108.51 11.8111L-97.8009 11.8134C-88.1344 11.8155 -79.9721 18.5255 -73.1369 25.3607C-59.078 39.4196 -36.2841 39.4196 -22.2252 25.3607C-8.16628 11.3017 -8.16633 -11.4921 -22.2252 -25.551C-36.2841 -39.6099 -59.078 -39.6099 -73.1369 -25.551C-79.8995 -18.7884 -87.9889 -12.1844 -97.5527 -12.1865L-111.452 -12.1896C-120.455 -12.1916 -128.13 -18.2416 -134.497 -24.6083C-148.556 -38.6671 -171.35 -38.6671 -185.409 -24.6083Z"/>
</mask>
<path d="M-97.5476 214.207C-87.9366 214.209 -79.8126 207.557 -73.0166 200.761C-58.9577 186.702 -36.1638 186.702 -22.1049 200.761C-8.04601 214.819 -8.046 237.613 -22.1049 251.672C-29.7673 259.335 -37.7243 268.335 -37.7219 279.172L-37.7202 286.488C-37.7178 297.321 -29.7638 306.316 -22.1042 313.976C-8.04532 328.035 -8.04531 350.829 -22.1042 364.887C-36.1631 378.946 -58.957 378.946 -73.0159 364.887C-87.0748 350.829 -87.0748 328.035 -73.0159 313.976C-67.1267 308.087 -61.7171 300.918 -61.719 292.589L-61.7233 273.044C-61.7251 264.721 -67.1312 257.558 -73.0166 251.672C-79.8184 244.87 -87.9463 238.209 -97.5655 238.207L-110.758 238.204C-120.382 238.202 -128.515 244.866 -135.32 251.671C-149.379 265.73 -172.173 265.73 -186.232 251.671C-200.291 237.613 -200.291 214.819 -186.232 200.76C-172.173 186.701 -149.379 186.701 -135.32 200.76C-128.527 207.553 -120.409 214.201 -110.802 214.204L-97.5476 214.207Z" fill="white" fill-opacity="0.24"/>
<path d="M-298.504 139.399C-312.563 125.34 -312.563 102.546 -298.504 88.4874C-284.445 74.4285 -261.651 74.4285 -247.593 88.4874C-233.534 102.546 -233.534 125.34 -247.593 139.399C-261.651 153.458 -284.445 153.458 -298.504 139.399Z" fill="white" fill-opacity="0.24"/>
<path d="M379.726 25.3608C372.936 18.5701 364.819 11.9243 355.216 11.9221L341.947 11.9192C332.339 11.9171 324.217 18.5662 317.423 25.3602C303.364 39.419 280.57 39.419 266.511 25.3602C252.453 11.3013 252.453 -11.4927 266.511 -25.5515C280.57 -39.6104 303.364 -39.6104 317.423 -25.5515C324.227 -18.7477 332.357 -12.0829 341.979 -12.0808L355.157 -12.0779C364.784 -12.0757 372.919 -18.7437 379.726 -25.5508C393.785 -39.6097 416.579 -39.6097 430.638 -25.5508C444.697 -11.492 444.697 11.302 430.638 25.3608C416.579 39.4197 393.785 39.4197 379.726 25.3608Z" stroke="white" stroke-opacity="0.24" stroke-width="4" mask="url(#path-2-inside-1_5822_15606)"/>
<path d="M40.1992 313.976C26.1403 328.035 26.1404 350.829 40.1992 364.888C54.2581 378.947 77.052 378.947 91.1109 364.888C105.17 350.829 105.17 328.035 91.1109 313.976C77.052 299.918 54.2581 299.918 40.1992 313.976Z" stroke="white" stroke-opacity="0.24" stroke-width="4" mask="url(#path-2-inside-1_5822_15606)"/>
<path d="M-323.84 690.978C-314.237 690.98 -306.12 697.626 -299.329 704.417C-285.271 718.476 -262.477 718.476 -248.418 704.417C-234.359 690.358 -234.359 667.564 -248.418 653.505C-262.477 639.446 -285.271 639.446 -299.329 653.505C-306.136 660.312 -314.272 666.98 -323.898 666.978L-337.077 666.975C-346.699 666.973 -354.829 660.308 -361.633 653.504C-369.292 645.844 -377.247 636.849 -377.249 626.016L-377.251 618.7C-377.253 607.864 -369.296 598.863 -361.634 591.201C-347.575 577.142 -347.575 554.348 -361.634 540.289C-375.692 526.23 -398.486 526.23 -412.545 540.289C-426.604 554.348 -426.604 577.142 -412.545 591.201C-406.66 597.086 -401.254 604.25 -401.252 612.573L-401.248 632.118C-401.246 640.446 -406.655 647.615 -412.544 653.504C-426.603 667.563 -426.603 690.357 -412.544 704.416C-398.485 718.475 -375.691 718.475 -361.633 704.416C-354.839 697.622 -346.717 690.973 -337.109 690.975L-323.84 690.978Z" stroke="white" stroke-opacity="0.24" stroke-width="4" mask="url(#path-2-inside-1_5822_15606)"/>
<path d="M-97.5476 214.207C-87.9366 214.209 -79.8126 207.557 -73.0166 200.761C-58.9577 186.702 -36.1638 186.702 -22.1049 200.761C-8.04601 214.819 -8.046 237.613 -22.1049 251.672C-29.7673 259.335 -37.7243 268.335 -37.7219 279.172L-37.7202 286.488C-37.7178 297.321 -29.7638 306.316 -22.1042 313.976C-8.04532 328.035 -8.04531 350.829 -22.1042 364.887C-36.1631 378.946 -58.957 378.946 -73.0159 364.887C-87.0748 350.829 -87.0748 328.035 -73.0159 313.976C-67.1267 308.087 -61.7171 300.918 -61.719 292.589L-61.7233 273.044C-61.7251 264.721 -67.1312 257.558 -73.0166 251.672C-79.8184 244.87 -87.9463 238.209 -97.5655 238.207L-110.758 238.204C-120.382 238.202 -128.515 244.866 -135.32 251.671C-149.379 265.73 -172.173 265.73 -186.232 251.671C-200.291 237.613 -200.291 214.819 -186.232 200.76C-172.173 186.701 -149.379 186.701 -135.32 200.76C-128.527 207.553 -120.409 214.201 -110.802 214.204L-97.5476 214.207Z" stroke="white" stroke-opacity="0.24" stroke-width="4" mask="url(#path-2-inside-1_5822_15606)"/>
<path d="M266.511 -138.766C259.715 -131.971 251.591 -125.319 241.98 -125.321L228.725 -125.324C219.119 -125.326 211 -131.975 204.207 -138.768C190.148 -152.826 167.354 -152.826 153.295 -138.768C139.237 -124.709 139.237 -101.915 153.295 -87.8558C167.354 -73.7969 190.148 -73.797 204.207 -87.8558C211.012 -94.6609 219.145 -101.326 228.769 -101.324L241.961 -101.321C251.581 -101.319 259.709 -94.6567 266.511 -87.8548C280.569 -73.7959 303.363 -73.7959 317.422 -87.8548C331.481 -101.914 331.481 -124.708 317.422 -138.766C303.363 -152.825 280.569 -152.825 266.511 -138.766Z" stroke="white" stroke-opacity="0.24" stroke-width="4" mask="url(#path-2-inside-1_5822_15606)"/>
<path d="M323.158 -31.2077C309.099 -45.2666 309.099 -68.0605 323.158 -82.1194C337.217 -96.1782 360.011 -96.1783 374.07 -82.1194C388.129 -68.0605 388.128 -45.2665 374.07 -31.2077C360.011 -17.1489 337.217 -17.1488 323.158 -31.2077Z" stroke="white" stroke-opacity="0.24" stroke-width="4" mask="url(#path-2-inside-1_5822_15606)"/>
<path d="M210.021 -195.256C195.962 -181.198 195.962 -158.404 210.021 -144.345C224.08 -130.286 246.874 -130.286 260.933 -144.345C274.991 -158.404 274.991 -181.198 260.933 -195.256C246.874 -209.315 224.08 -209.315 210.021 -195.256Z" stroke="white" stroke-opacity="0.24" stroke-width="4" mask="url(#path-2-inside-1_5822_15606)"/>
<path d="M97.5909 -256.775C83.532 -270.834 83.5321 -293.628 97.5909 -307.686C111.65 -321.745 134.444 -321.745 148.503 -307.686C162.561 -293.628 162.561 -270.834 148.503 -256.775C134.444 -242.716 111.65 -242.716 97.5909 -256.775Z" stroke="white" stroke-opacity="0.24" stroke-width="4" mask="url(#path-2-inside-1_5822_15606)"/>
<path d="M205.534 -81.8756C191.476 -67.8168 191.476 -45.0228 205.534 -30.9639C219.593 -16.9051 242.387 -16.9051 256.446 -30.9639C270.505 -45.0228 270.505 -67.8168 256.446 -81.8756C242.387 -95.9345 219.593 -95.9345 205.534 -81.8756Z" stroke="white" stroke-opacity="0.24" stroke-width="4" mask="url(#path-2-inside-1_5822_15606)"/>
<path d="M94.5187 -141.98C80.4598 -156.039 80.4599 -178.833 94.5187 -192.891C108.578 -206.95 131.372 -206.95 145.43 -192.891C159.489 -178.833 159.489 -156.039 145.43 -141.98C131.372 -127.921 108.578 -127.921 94.5187 -141.98Z" stroke="white" stroke-opacity="0.24" stroke-width="4" mask="url(#path-2-inside-1_5822_15606)"/>
<path d="M210.258 30.7808C196.199 44.8397 196.199 67.6337 210.258 81.6925C224.317 95.7514 247.111 95.7514 261.169 81.6925C275.228 67.6337 275.228 44.8397 261.169 30.7808C247.111 16.722 224.317 16.722 210.258 30.7808Z" stroke="white" stroke-opacity="0.24" stroke-width="4" mask="url(#path-2-inside-1_5822_15606)"/>
<path d="M97.1206 -31.4445C83.0618 -45.5034 83.0618 -68.2974 97.1206 -82.3562C111.179 -96.4151 133.973 -96.4151 148.032 -82.3562C162.091 -68.2974 162.091 -45.5034 148.032 -31.4445C133.973 -17.3857 111.18 -17.3857 97.1206 -31.4445Z" stroke="white" stroke-opacity="0.24" stroke-width="4" mask="url(#path-2-inside-1_5822_15606)"/>
<path d="M-15.3093 -194.786C-29.3682 -180.727 -29.3682 -157.933 -15.3093 -143.875C-1.25046 -129.816 21.5435 -129.816 35.6023 -143.875C49.6612 -157.933 49.6612 -180.727 35.6023 -194.786C21.5435 -208.845 -1.2505 -208.845 -15.3093 -194.786Z" stroke="white" stroke-opacity="0.24" stroke-width="4" mask="url(#path-2-inside-1_5822_15606)"/>
<path d="M322.444 82.6434C308.385 68.5845 308.385 45.7906 322.444 31.7317C336.503 17.6729 359.297 17.6728 373.356 31.7317C387.414 45.7906 387.414 68.5846 373.356 82.6434C359.297 96.7022 336.503 96.7023 322.444 82.6434Z" stroke="white" stroke-opacity="0.24" stroke-width="4" mask="url(#path-2-inside-1_5822_15606)"/>
<path d="M92.6342 31.0246C78.5753 45.0835 78.5754 67.8774 92.6342 81.9363C106.693 95.9952 129.487 95.9952 143.546 81.9363C157.605 67.8774 157.605 45.0835 143.546 31.0246C129.487 16.9657 106.693 16.9657 92.6342 31.0246Z" stroke="white" stroke-opacity="0.24" stroke-width="4" mask="url(#path-2-inside-1_5822_15606)"/>
<path d="M-18.3815 -29.0795C-32.4404 -43.1384 -32.4405 -65.9322 -18.3815 -79.9912C-4.3226 -94.0501 18.4713 -94.05 32.5302 -79.9912C46.589 -65.9323 46.5891 -43.1384 32.5302 -29.0795C18.4712 -15.0205 -4.32264 -15.0206 -18.3815 -29.0795Z" stroke="white" stroke-opacity="0.24" stroke-width="4" mask="url(#path-2-inside-1_5822_15606)"/>
<path d="M97.3575 143.681C83.2986 157.74 83.2986 180.534 97.3575 194.593C111.416 208.652 134.21 208.652 148.269 194.593C162.328 180.534 162.328 157.74 148.269 143.681C134.21 129.622 111.416 129.622 97.3575 143.681Z" stroke="white" stroke-opacity="0.24" stroke-width="4" mask="url(#path-2-inside-1_5822_15606)"/>
<path d="M-15.7796 81.4557C-29.8385 67.3968 -29.8385 44.6029 -15.7796 30.544C-1.72067 16.4851 21.0732 16.4851 35.1321 30.544C49.191 44.6029 49.191 67.3968 35.1321 81.4557C21.0732 95.5146 -1.72071 95.5146 -15.7796 81.4557Z" stroke="white" stroke-opacity="0.24" stroke-width="4" mask="url(#path-2-inside-1_5822_15606)"/>
<path d="M-128.21 -81.886C-142.268 -67.8271 -142.268 -45.0332 -128.21 -30.9743C-114.151 -16.9154 -91.3568 -16.9154 -77.2979 -30.9743C-63.239 -45.0332 -63.239 -67.8271 -77.2979 -81.886C-91.3568 -95.9449 -114.151 -95.9449 -128.21 -81.886Z" stroke="white" stroke-opacity="0.24" stroke-width="4" mask="url(#path-2-inside-1_5822_15606)"/>
<path d="M209.544 195.544C195.485 181.485 195.485 158.691 209.544 144.632C223.603 130.573 246.397 130.573 260.455 144.632C274.514 158.691 274.514 181.485 260.455 195.544C246.396 209.603 223.603 209.603 209.544 195.544Z" stroke="white" stroke-opacity="0.24" stroke-width="4" mask="url(#path-2-inside-1_5822_15606)"/>
<path d="M-20.266 143.925C-34.3249 157.984 -34.3249 180.778 -20.266 194.837C-6.20712 208.895 16.5868 208.895 30.6457 194.837C44.7046 180.778 44.7046 157.984 30.6457 143.925C16.5868 129.866 -6.20711 129.866 -20.266 143.925Z" stroke="white" stroke-opacity="0.24" stroke-width="4" mask="url(#path-2-inside-1_5822_15606)"/>
<path d="M-131.282 83.8208C-145.341 69.7619 -145.341 46.968 -131.282 32.9091C-117.223 18.8502 -94.429 18.8502 -80.3701 32.9091C-66.3112 46.968 -66.3112 69.7619 -80.3701 83.8208C-94.429 97.8796 -117.223 97.8796 -131.282 83.8208Z" stroke="white" stroke-opacity="0.24" stroke-width="4" mask="url(#path-2-inside-1_5822_15606)"/>
<path d="M-15.5427 256.581C-29.6016 270.64 -29.6016 293.434 -15.5427 307.493C-1.48387 321.552 21.3101 321.552 35.3689 307.493C49.4278 293.434 49.4278 270.64 35.3689 256.581C21.3101 242.522 -1.48386 242.522 -15.5427 256.581Z" stroke="white" stroke-opacity="0.24" stroke-width="4" mask="url(#path-2-inside-1_5822_15606)"/>
<path d="M-128.68 194.356C-142.739 180.297 -142.739 157.503 -128.68 143.444C-114.621 129.385 -91.827 129.385 -77.7681 143.444C-63.7093 157.503 -63.7093 180.297 -77.7681 194.356C-91.827 208.415 -114.621 208.415 -128.68 194.356Z" stroke="white" stroke-opacity="0.24" stroke-width="4" mask="url(#path-2-inside-1_5822_15606)"/>
<path d="M-241.11 31.0142C-255.169 45.0731 -255.169 67.8671 -241.11 81.9259C-227.051 95.9848 -204.257 95.9848 -190.198 81.9259C-176.139 67.8671 -176.139 45.0731 -190.198 31.0142C-204.257 16.9554 -227.051 16.9554 -241.11 31.0142Z" stroke="white" stroke-opacity="0.24" stroke-width="4" mask="url(#path-2-inside-1_5822_15606)"/>
<path d="M96.6435 308.444C82.5846 294.385 82.5846 271.591 96.6435 257.532C110.702 243.473 133.496 243.473 147.555 257.532C161.614 271.591 161.614 294.385 147.555 308.444C133.496 322.503 110.702 322.503 96.6435 308.444Z" stroke="white" stroke-opacity="0.24" stroke-width="4" mask="url(#path-2-inside-1_5822_15606)"/>
<path d="M-133.166 256.825C-147.225 270.884 -147.225 293.678 -133.166 307.737C-119.107 321.796 -96.3134 321.796 -82.2545 307.737C-68.1957 293.678 -68.1957 270.884 -82.2545 256.825C-96.3134 242.766 -119.107 242.766 -133.166 256.825Z" stroke="white" stroke-opacity="0.24" stroke-width="4" mask="url(#path-2-inside-1_5822_15606)"/>
<path d="M-244.182 196.721C-258.241 182.662 -258.241 159.868 -244.182 145.809C-230.123 131.75 -207.329 131.75 -193.27 145.809C-179.211 159.868 -179.211 182.662 -193.27 196.721C-207.329 210.78 -230.123 210.78 -244.182 196.721Z" stroke="white" stroke-opacity="0.24" stroke-width="4" mask="url(#path-2-inside-1_5822_15606)"/>
<path d="M-128.443 369.482C-142.502 383.54 -142.502 406.334 -128.443 420.393C-114.384 434.452 -91.5902 434.452 -77.5313 420.393C-63.4724 406.334 -63.4724 383.54 -77.5313 369.482C-91.5902 355.423 -114.384 355.423 -128.443 369.482Z" stroke="white" stroke-opacity="0.24" stroke-width="4" mask="url(#path-2-inside-1_5822_15606)"/>
<path d="M-241.58 307.256C-255.639 293.197 -255.639 270.403 -241.58 256.344C-227.521 242.286 -204.727 242.286 -190.668 256.344C-176.609 270.403 -176.609 293.197 -190.668 307.256C-204.727 321.315 -227.521 321.315 -241.58 307.256Z" stroke="white" stroke-opacity="0.24" stroke-width="4" mask="url(#path-2-inside-1_5822_15606)"/>
<path d="M-354.01 143.914C-368.069 157.973 -368.069 180.767 -354.01 194.826C-339.951 208.885 -317.157 208.885 -303.098 194.826C-289.039 180.767 -289.039 157.973 -303.098 143.914C-317.157 129.856 -339.951 129.856 -354.01 143.914Z" stroke="white" stroke-opacity="0.24" stroke-width="4" mask="url(#path-2-inside-1_5822_15606)"/>
<path d="M-16.2568 421.344C-30.3156 407.285 -30.3156 384.491 -16.2568 370.432C-2.19787 356.374 20.5961 356.374 34.6549 370.432C48.7138 384.491 48.7138 407.285 34.6549 421.344C20.5961 435.403 -2.19788 435.403 -16.2568 421.344Z" stroke="white" stroke-opacity="0.24" stroke-width="4" mask="url(#path-2-inside-1_5822_15606)"/>
<path d="M-246.066 369.725C-260.125 383.784 -260.125 406.578 -246.066 420.637C-232.008 434.696 -209.214 434.696 -195.155 420.637C-181.096 406.578 -181.096 383.784 -195.155 369.725C-209.214 355.666 -232.008 355.666 -246.066 369.725Z" stroke="white" stroke-opacity="0.24" stroke-width="4" mask="url(#path-2-inside-1_5822_15606)"/>
<path d="M-357.082 309.621C-371.141 295.562 -371.141 272.768 -357.082 258.71C-343.023 244.651 -320.229 244.651 -306.171 258.71C-292.112 272.768 -292.112 295.562 -306.171 309.621C-320.229 323.68 -343.023 323.68 -357.082 309.621Z" stroke="white" stroke-opacity="0.24" stroke-width="4" mask="url(#path-2-inside-1_5822_15606)"/>
<path d="M-241.343 482.382C-255.402 496.441 -255.402 519.235 -241.343 533.293C-227.284 547.352 -204.49 547.352 -190.432 533.293C-176.373 519.235 -176.373 496.441 -190.432 482.382C-204.49 468.323 -227.284 468.323 -241.343 482.382Z" stroke="white" stroke-opacity="0.24" stroke-width="4" mask="url(#path-2-inside-1_5822_15606)"/>
<path d="M-354.48 420.156C-368.539 406.097 -368.539 383.304 -354.48 369.245C-340.421 355.186 -317.627 355.186 -303.569 369.245C-289.51 383.304 -289.51 406.097 -303.569 420.156C-317.627 434.215 -340.421 434.215 -354.48 420.156Z" stroke="white" stroke-opacity="0.24" stroke-width="4" mask="url(#path-2-inside-1_5822_15606)"/>
<path d="M-466.91 256.815C-480.969 270.874 -480.969 293.668 -466.91 307.726C-452.851 321.785 -430.057 321.785 -415.999 307.726C-401.94 293.668 -401.94 270.874 -415.999 256.815C-430.057 242.756 -452.851 242.756 -466.91 256.815Z" stroke="white" stroke-opacity="0.24" stroke-width="4" mask="url(#path-2-inside-1_5822_15606)"/>
<path d="M-129.157 534.244C-143.216 520.185 -143.216 497.392 -129.157 483.333C-115.098 469.274 -92.3042 469.274 -78.2453 483.333C-64.1864 497.392 -64.1864 520.185 -78.2453 534.244C-92.3042 548.303 -115.098 548.303 -129.157 534.244Z" stroke="white" stroke-opacity="0.24" stroke-width="4" mask="url(#path-2-inside-1_5822_15606)"/>
<path d="M-358.967 482.626C-373.026 496.684 -373.026 519.478 -358.967 533.537C-344.908 547.596 -322.114 547.596 -308.055 533.537C-293.996 519.478 -293.996 496.684 -308.055 482.626C-322.114 468.567 -344.908 468.567 -358.967 482.626Z" stroke="white" stroke-opacity="0.24" stroke-width="4" mask="url(#path-2-inside-1_5822_15606)"/>
<path d="M-469.982 422.521C-484.041 408.463 -484.041 385.669 -469.982 371.61C-455.924 357.551 -433.13 357.551 -419.071 371.61C-405.012 385.669 -405.012 408.463 -419.071 422.521C-433.13 436.58 -455.924 436.58 -469.982 422.521Z" stroke="white" stroke-opacity="0.24" stroke-width="4" mask="url(#path-2-inside-1_5822_15606)"/>
<path d="M-354.243 595.282C-368.302 609.341 -368.302 632.135 -354.243 646.194C-340.185 660.253 -317.391 660.253 -303.332 646.194C-289.273 632.135 -289.273 609.341 -303.332 595.282C-317.391 581.223 -340.185 581.223 -354.243 595.282Z" stroke="white" stroke-opacity="0.24" stroke-width="4" mask="url(#path-2-inside-1_5822_15606)"/>
<path d="M-467.381 533.057C-481.439 518.998 -481.439 496.204 -467.381 482.145C-453.322 468.086 -430.528 468.086 -416.469 482.145C-402.41 496.204 -402.41 518.998 -416.469 533.057C-430.528 547.115 -453.322 547.115 -467.381 533.057Z" stroke="white" stroke-opacity="0.24" stroke-width="4" mask="url(#path-2-inside-1_5822_15606)"/>
<path d="M-579.81 369.715C-593.869 383.774 -593.869 406.568 -579.81 420.627C-565.752 434.686 -542.958 434.686 -528.899 420.627C-514.84 406.568 -514.84 383.774 -528.899 369.715C-542.958 355.656 -565.752 355.656 -579.81 369.715Z" stroke="white" stroke-opacity="0.24" stroke-width="4" mask="url(#path-2-inside-1_5822_15606)"/>
<path d="M-242.057 647.145C-256.116 633.086 -256.116 610.292 -242.057 596.233C-227.998 582.174 -205.204 582.174 -191.146 596.233C-177.087 610.292 -177.087 633.086 -191.146 647.145C-205.204 661.203 -227.998 661.203 -242.057 647.145Z" stroke="white" stroke-opacity="0.24" stroke-width="4" mask="url(#path-2-inside-1_5822_15606)"/>
<path d="M-471.867 595.526C-485.926 609.585 -485.926 632.379 -471.867 646.437C-457.808 660.496 -435.014 660.496 -420.955 646.437C-406.896 632.379 -406.896 609.585 -420.955 595.526C-435.014 581.467 -457.808 581.467 -471.867 595.526Z" stroke="white" stroke-opacity="0.24" stroke-width="4" mask="url(#path-2-inside-1_5822_15606)"/>
<path d="M-582.883 535.422C-596.942 521.363 -596.942 498.569 -582.883 484.51C-568.824 470.451 -546.03 470.451 -531.971 484.51C-517.912 498.569 -517.912 521.363 -531.971 535.422C-546.03 549.481 -568.824 549.481 -582.883 535.422Z" stroke="white" stroke-opacity="0.24" stroke-width="4" mask="url(#path-2-inside-1_5822_15606)"/>
<path d="M-467.144 708.182C-481.202 722.241 -481.203 745.035 -467.144 759.094C-453.085 773.153 -430.291 773.153 -416.232 759.094C-402.173 745.035 -402.173 722.241 -416.232 708.182C-430.291 694.123 -453.085 694.123 -467.144 708.182Z" stroke="white" stroke-opacity="0.24" stroke-width="4" mask="url(#path-2-inside-1_5822_15606)"/>
<path d="M-580.281 645.957C-594.34 631.898 -594.34 609.104 -580.281 595.045C-566.222 580.986 -543.428 580.986 -529.369 595.045C-515.31 609.104 -515.31 631.898 -529.369 645.957C-543.428 660.016 -566.222 660.016 -580.281 645.957Z" stroke="white" stroke-opacity="0.24" stroke-width="4" mask="url(#path-2-inside-1_5822_15606)"/>
<path d="M-692.711 482.615C-706.77 496.674 -706.77 519.468 -692.711 533.527C-678.652 547.586 -655.858 547.586 -641.799 533.527C-627.74 519.468 -627.74 496.674 -641.799 482.615C-655.858 468.556 -678.652 468.556 -692.711 482.615Z" stroke="white" stroke-opacity="0.24" stroke-width="4" mask="url(#path-2-inside-1_5822_15606)"/>
<path d="M-354.957 760.045C-369.016 745.986 -369.016 723.192 -354.957 709.133C-340.899 695.074 -318.105 695.074 -304.046 709.133C-289.987 723.192 -289.987 745.986 -304.046 760.045C-318.105 774.104 -340.899 774.104 -354.957 760.045Z" stroke="white" stroke-opacity="0.24" stroke-width="4" mask="url(#path-2-inside-1_5822_15606)"/>
<path d="M-584.767 708.426C-598.826 722.485 -598.826 745.279 -584.767 759.338C-570.708 773.397 -547.914 773.397 -533.855 759.338C-519.797 745.279 -519.797 722.485 -533.855 708.426C-547.914 694.367 -570.708 694.367 -584.767 708.426Z" stroke="white" stroke-opacity="0.24" stroke-width="4" mask="url(#path-2-inside-1_5822_15606)"/>
<path d="M-695.783 648.322C-709.842 634.263 -709.842 611.469 -695.783 597.41C-681.724 583.351 -658.93 583.351 -644.871 597.41C-630.812 611.469 -630.812 634.263 -644.871 648.322C-658.93 662.381 -681.724 662.381 -695.783 648.322Z" stroke="white" stroke-opacity="0.24" stroke-width="4" mask="url(#path-2-inside-1_5822_15606)"/>
<path d="M-580.044 821.082C-594.103 835.141 -594.103 857.935 -580.044 871.994C-565.985 886.053 -543.191 886.053 -529.132 871.994C-515.073 857.935 -515.073 835.141 -529.132 821.082C-543.191 807.024 -565.985 807.024 -580.044 821.082Z" stroke="white" stroke-opacity="0.24" stroke-width="4" mask="url(#path-2-inside-1_5822_15606)"/>
<path d="M-693.181 758.857C-707.24 744.798 -707.24 722.004 -693.181 707.945C-679.122 693.887 -656.328 693.886 -642.269 707.945C-628.21 722.004 -628.21 744.798 -642.269 758.857C-656.328 772.916 -679.122 772.916 -693.181 758.857Z" stroke="white" stroke-opacity="0.24" stroke-width="4" mask="url(#path-2-inside-1_5822_15606)"/>
<path d="M-805.611 595.515C-819.67 609.574 -819.67 632.368 -805.611 646.427C-791.552 660.486 -768.758 660.486 -754.699 646.427C-740.64 632.368 -740.64 609.574 -754.699 595.515C-768.758 581.457 -791.552 581.457 -805.611 595.515Z" stroke="white" stroke-opacity="0.24" stroke-width="4" mask="url(#path-2-inside-1_5822_15606)"/>
<path d="M-467.858 872.945C-481.917 858.886 -481.917 836.092 -467.858 822.033C-453.799 807.974 -431.005 807.974 -416.946 822.033C-402.887 836.092 -402.887 858.886 -416.946 872.945C-431.005 887.004 -453.799 887.004 -467.858 872.945Z" stroke="white" stroke-opacity="0.24" stroke-width="4" mask="url(#path-2-inside-1_5822_15606)"/>
<path d="M-697.667 821.326C-711.726 835.385 -711.726 858.179 -697.667 872.238C-683.608 886.297 -660.815 886.297 -646.756 872.238C-632.697 858.179 -632.697 835.385 -646.756 821.326C-660.815 807.267 -683.609 807.267 -697.667 821.326Z" stroke="white" stroke-opacity="0.24" stroke-width="4" mask="url(#path-2-inside-1_5822_15606)"/>
<path d="M-808.683 761.222C-822.742 747.163 -822.742 724.369 -808.683 710.31C-794.624 696.252 -771.83 696.252 -757.771 710.31C-743.713 724.369 -743.713 747.163 -757.771 761.222C-771.83 775.281 -794.624 775.281 -808.683 761.222Z" stroke="white" stroke-opacity="0.24" stroke-width="4" mask="url(#path-2-inside-1_5822_15606)"/>
<path d="M-525.76 591.2C-539.819 577.141 -539.819 554.347 -525.76 540.288C-511.701 526.229 -488.907 526.229 -474.849 540.288C-460.79 554.347 -460.79 577.141 -474.849 591.2C-488.907 605.259 -511.701 605.259 -525.76 591.2Z" stroke="white" stroke-opacity="0.24" stroke-width="4" mask="url(#path-2-inside-1_5822_15606)"/>
<path d="M-638.033 428.016C-652.091 442.075 -652.091 464.869 -638.033 478.927C-623.974 492.986 -601.18 492.986 -587.121 478.927C-580.316 472.122 -572.183 465.457 -562.559 465.459L-548.958 465.462C-539.892 465.465 -532.172 471.575 -525.761 477.985C-511.702 492.044 -488.908 492.044 -474.85 477.985C-460.791 463.926 -460.791 441.132 -474.85 427.073C-488.908 413.014 -511.702 413.014 -525.761 427.073C-532.939 434.251 -541.454 441.464 -551.605 441.462L-562.603 441.459C-572.21 441.457 -580.328 434.809 -587.121 428.016C-601.18 413.957 -623.974 413.957 -638.033 428.016Z" stroke="white" stroke-opacity="0.24" stroke-width="4" mask="url(#path-2-inside-1_5822_15606)"/>
<path d="M-298.504 139.399C-312.563 125.34 -312.563 102.546 -298.504 88.4874C-284.445 74.4285 -261.651 74.4285 -247.593 88.4874C-233.534 102.546 -233.534 125.34 -247.593 139.399C-261.651 153.458 -284.445 153.458 -298.504 139.399Z" stroke="white" stroke-opacity="0.24" stroke-width="4" mask="url(#path-2-inside-1_5822_15606)"/>
<path d="M41.023 -251.04C26.9642 -236.981 26.9642 -214.187 41.023 -200.128C55.0819 -186.069 77.8759 -186.069 91.9347 -200.128C98.7399 -206.933 106.873 -213.598 116.497 -213.596L130.098 -213.593C139.164 -213.591 146.884 -207.481 153.295 -201.071C167.354 -187.012 190.148 -187.012 204.206 -201.071C218.265 -215.13 218.265 -237.924 204.206 -251.983C190.148 -266.042 167.354 -266.041 153.295 -251.983C146.117 -244.804 137.602 -237.592 127.45 -237.594L116.452 -237.596C106.846 -237.598 98.7275 -244.247 91.9347 -251.04C77.8758 -265.099 55.0819 -265.099 41.023 -251.04Z" stroke="white" stroke-opacity="0.24" stroke-width="4" mask="url(#path-2-inside-1_5822_15606)"/>
<path d="M-186.233 87.5446C-200.291 101.604 -200.291 124.397 -186.233 138.456C-172.174 152.515 -149.38 152.515 -135.321 138.456C-121.262 124.397 -121.262 101.604 -135.321 87.5446C-149.38 73.4858 -172.174 73.4858 -186.233 87.5446Z" stroke="white" stroke-opacity="0.24" stroke-width="4" mask="url(#path-2-inside-1_5822_15606)"/>
<path d="M-412.546 766.722C-426.605 780.781 -426.605 803.575 -412.546 817.634C-398.487 831.693 -375.693 831.693 -361.635 817.634C-347.576 803.575 -347.576 780.781 -361.635 766.722C-375.694 752.663 -398.487 752.663 -412.546 766.722Z" stroke="white" stroke-opacity="0.24" stroke-width="4" mask="url(#path-2-inside-1_5822_15606)"/>
<path d="M-97.5873 440.667C-87.9606 440.669 -79.8251 434.001 -73.018 427.194C-58.9591 413.135 -36.1651 413.135 -22.1063 427.194C-8.04739 441.252 -8.04738 464.046 -22.1063 478.105C-36.1651 492.164 -58.9591 492.164 -73.018 478.105C-79.8087 471.315 -87.9251 464.669 -97.5286 464.667L-110.797 464.664C-120.406 464.662 -128.527 471.311 -135.321 478.105C-149.38 492.163 -172.174 492.163 -186.233 478.105C-200.292 464.046 -200.292 441.252 -186.233 427.193C-180.344 421.304 -174.934 414.135 -174.936 405.806L-174.94 386.261C-174.942 377.938 -180.348 370.775 -186.234 364.889C-200.293 350.831 -200.293 328.037 -186.234 313.978C-172.175 299.919 -149.381 299.919 -135.322 313.978C-121.263 328.037 -121.263 350.831 -135.322 364.889C-142.984 372.552 -150.941 381.553 -150.939 392.389L-150.937 399.706C-150.935 410.538 -142.981 419.533 -135.321 427.193C-128.517 433.997 -120.387 440.662 -110.765 440.664L-97.5873 440.667Z" stroke="white" stroke-opacity="0.24" stroke-width="4" mask="url(#path-2-inside-1_5822_15606)"/>
<path d="M266.509 87.6663C259.702 94.4735 251.567 101.141 241.94 101.139L228.762 101.136C219.14 101.134 211.01 94.4695 204.206 87.6657C196.546 80.0061 188.592 71.0105 188.59 60.1783L188.588 52.8616C188.586 42.0254 196.543 33.0246 204.205 25.3622C218.264 11.3034 218.264 -11.4906 204.205 -25.5495C190.146 -39.6083 167.352 -39.6083 153.294 -25.5495C139.235 -11.4906 139.235 11.3034 153.294 25.3622C159.179 31.2476 164.585 38.4109 164.587 46.734L164.591 66.2791C164.593 74.6076 159.183 81.7765 153.294 87.6657C139.235 101.725 139.235 124.518 153.294 138.577C167.353 152.636 190.147 152.636 204.206 138.577C211 131.783 219.122 125.134 228.73 125.136L241.999 125.139C251.602 125.141 259.719 131.787 266.509 138.578C280.568 152.637 303.362 152.637 317.421 138.578C331.48 124.519 331.48 101.725 317.421 87.6663C303.362 73.6075 280.568 73.6075 266.509 87.6663Z" stroke="white" stroke-opacity="0.24" stroke-width="4" mask="url(#path-2-inside-1_5822_15606)"/>
<path d="M-550.254 666.925C-540.659 666.927 -532.547 660.291 -525.762 653.506C-511.703 639.447 -488.909 639.447 -474.85 653.506C-460.792 667.565 -460.792 690.359 -474.85 704.418C-482.513 712.08 -490.47 721.081 -490.468 731.917L-490.466 739.234C-490.464 750.066 -482.509 759.062 -474.85 766.721C-460.791 780.78 -460.791 803.574 -474.85 817.633C-488.909 831.692 -511.703 831.692 -525.761 817.633C-539.82 803.574 -539.82 780.78 -525.761 766.721C-519.872 760.832 -514.463 753.664 -514.465 745.335L-514.469 725.789C-514.471 717.466 -519.877 710.303 -525.762 704.418C-532.575 697.605 -540.715 690.927 -550.35 690.925L-563.465 690.922C-573.105 690.92 -581.249 697.601 -588.066 704.417C-602.125 718.476 -624.919 718.476 -638.977 704.417C-653.036 690.358 -653.036 667.564 -638.977 653.505C-624.919 639.446 -602.125 639.446 -588.066 653.505C-581.284 660.287 -573.177 666.92 -563.587 666.922L-550.254 666.925Z" stroke="white" stroke-opacity="0.24" stroke-width="4" mask="url(#path-2-inside-1_5822_15606)"/>
<path d="M-299.449 364.889C-313.508 350.83 -313.508 328.036 -299.449 313.977C-285.39 299.918 -262.596 299.918 -248.537 313.977C-234.478 328.036 -234.478 350.83 -248.537 364.889C-255.641 371.992 -262.742 380.431 -262.74 390.477L-262.738 401.616C-262.735 411.658 -255.637 420.092 -248.536 427.192C-234.478 441.251 -234.478 464.045 -248.536 478.104C-262.595 492.163 -285.389 492.163 -299.448 478.104C-313.507 464.045 -313.507 441.251 -299.448 427.192C-292.957 420.701 -286.735 412.893 -286.737 403.712L-286.741 388.355C-286.743 379.179 -292.961 371.377 -299.449 364.889Z" stroke="white" stroke-opacity="0.24" stroke-width="4" mask="url(#path-2-inside-1_5822_15606)"/>
<path d="M40.0782 -25.5503C26.0193 -11.4914 26.0193 11.3025 40.0782 25.3614C45.9637 31.2468 51.3699 38.4101 51.3717 46.7334L51.376 66.2784C51.3779 74.6069 45.9682 81.7758 40.0791 87.665C33.283 94.461 25.1591 101.113 15.5481 101.111L2.29358 101.108C-7.31298 101.106 -15.4317 94.4569 -22.2245 87.6641C-36.2834 73.6052 -59.0773 73.6052 -73.1362 87.6641C-87.1951 101.723 -87.1951 124.517 -73.1362 138.576C-59.0773 152.635 -36.2834 152.635 -22.2245 138.576C-15.4195 131.771 -7.28627 125.106 2.33744 125.108L15.5301 125.111C25.1493 125.113 33.2773 131.775 40.0791 138.577C54.138 152.636 76.9318 152.636 90.9908 138.577C105.05 124.518 105.05 101.724 90.9908 87.665C83.3312 80.0054 75.3771 71.0098 75.3747 60.1776L75.3731 52.8605C75.3707 42.0243 83.3276 33.0237 90.9899 25.3614C105.049 11.3024 105.049 -11.4914 90.9899 -25.5503C76.931 -39.6092 54.1371 -39.6093 40.0782 -25.5503Z" stroke="white" stroke-opacity="0.24" stroke-width="4" mask="url(#path-2-inside-1_5822_15606)"/>
<path d="M-751.25 541.233C-765.309 555.292 -765.309 578.086 -751.25 592.145C-737.191 606.204 -714.397 606.203 -700.338 592.145C-693.533 585.339 -685.4 578.674 -675.776 578.676L-662.175 578.679C-653.109 578.681 -645.388 584.792 -638.978 591.202C-624.919 605.261 -602.125 605.261 -588.066 591.202C-574.008 577.143 -574.008 554.349 -588.066 540.29C-602.125 526.231 -624.919 526.231 -638.978 540.29C-646.156 547.468 -654.671 554.681 -664.822 554.679L-675.821 554.676C-685.427 554.674 -693.545 548.026 -700.338 541.233C-714.397 527.174 -737.191 527.174 -751.25 541.233Z" stroke="white" stroke-opacity="0.24" stroke-width="4" mask="url(#path-2-inside-1_5822_15606)"/>
<path d="M-411.721 252.616C-425.78 238.557 -425.78 215.763 -411.721 201.705C-397.663 187.646 -374.869 187.646 -360.81 201.705C-354.017 208.497 -345.898 215.146 -336.292 215.148L-325.294 215.151C-315.143 215.153 -306.628 207.94 -299.45 200.762C-285.391 186.703 -262.597 186.703 -248.538 200.762C-234.479 214.821 -234.479 237.615 -248.538 251.674C-262.597 265.732 -285.391 265.732 -299.45 251.674C-305.86 245.263 -313.581 239.153 -322.646 239.151L-336.248 239.148C-345.871 239.146 -354.005 245.811 -360.81 252.616C-374.869 266.675 -397.663 266.675 -411.721 252.616Z" stroke="white" stroke-opacity="0.24" stroke-width="4" mask="url(#path-2-inside-1_5822_15606)"/>
<path d="M-72.1941 -137.823C-86.2531 -123.764 -86.253 -100.97 -72.1941 -86.911C-58.1353 -72.8521 -35.3414 -72.8521 -21.2825 -86.911C-14.4773 -93.7161 -6.34407 -100.381 3.27979 -100.379L16.8811 -100.376C25.9466 -100.374 33.6673 -94.264 40.0775 -87.8538C54.1364 -73.7949 76.9304 -73.7949 90.9892 -87.8538C105.048 -101.913 105.048 -124.707 90.9892 -138.765C76.9303 -152.824 54.1364 -152.824 40.0775 -138.765C32.8993 -131.587 24.3845 -124.374 14.233 -124.377L3.23527 -124.379C-6.37113 -124.381 -14.4897 -131.03 -21.2825 -137.823C-35.3413 -151.882 -58.1352 -151.882 -72.1941 -137.823Z" stroke="white" stroke-opacity="0.24" stroke-width="4" mask="url(#path-2-inside-1_5822_15606)"/>
<path d="M-550.272 917.409C-540.668 917.411 -532.552 924.057 -525.761 930.848C-511.702 944.907 -488.908 944.907 -474.849 930.848C-460.79 916.789 -460.79 893.995 -474.849 879.936C-488.908 865.878 -511.702 865.878 -525.761 879.936C-532.568 886.743 -540.703 893.411 -550.33 893.409L-563.508 893.406C-573.13 893.404 -581.26 886.739 -588.064 879.936C-602.123 865.877 -624.917 865.877 -638.976 879.936C-653.035 893.995 -653.035 916.789 -638.976 930.847C-624.917 944.906 -602.123 944.906 -588.064 930.847C-581.27 924.053 -573.148 917.404 -563.54 917.406L-550.272 917.409Z" stroke="white" stroke-opacity="0.24" stroke-width="4" mask="url(#path-2-inside-1_5822_15606)"/>
<path d="M-186.232 591.32C-193.023 584.529 -201.14 577.883 -210.743 577.881L-224.012 577.878C-233.62 577.876 -241.742 584.525 -248.536 591.319C-262.595 605.378 -285.389 605.378 -299.447 591.319C-313.506 577.26 -313.506 554.466 -299.447 540.407C-285.389 526.348 -262.595 526.348 -248.536 540.407C-241.732 547.211 -233.602 553.876 -223.98 553.878L-210.802 553.881C-201.175 553.883 -193.04 547.215 -186.232 540.408C-172.173 526.349 -149.38 526.349 -135.321 540.408C-121.262 554.467 -121.262 577.261 -135.321 591.32C-149.38 605.379 -172.174 605.379 -186.232 591.32Z" stroke="white" stroke-opacity="0.24" stroke-width="4" mask="url(#path-2-inside-1_5822_15606)"/>
<path d="M128.784 238.354C138.388 238.356 146.504 245.002 153.295 251.792C167.354 265.851 190.148 265.851 204.207 251.792C218.265 237.734 218.265 214.94 204.207 200.881C190.148 186.822 167.354 186.822 153.295 200.881C146.488 207.688 138.352 214.356 128.726 214.354L115.548 214.351C105.925 214.349 97.7953 207.684 90.9915 200.88C76.9326 186.821 54.1387 186.821 40.0798 200.88C26.0209 214.939 26.0209 237.733 40.0798 251.792C54.1386 265.851 76.9326 265.851 90.9915 251.792C97.7854 244.998 105.907 238.349 115.515 238.351L128.784 238.354Z" stroke="white" stroke-opacity="0.24" stroke-width="4" mask="url(#path-2-inside-1_5822_15606)"/>
<path d="M-752.192 817.631C-766.251 803.573 -766.251 780.779 -752.192 766.72C-747.916 762.444 -744.429 757.073 -744.43 751.026L-744.437 720.092C-744.438 714.052 -747.922 708.687 -752.193 704.416C-759.028 697.581 -767.19 690.871 -776.857 690.869L-787.566 690.866C-797.776 690.864 -806.333 698.139 -813.553 705.359C-827.611 719.418 -850.405 719.418 -864.464 705.359C-878.523 691.3 -878.523 668.506 -864.464 654.447C-850.405 640.389 -827.611 640.388 -813.553 654.447C-807.186 660.814 -799.511 666.864 -790.508 666.866L-776.608 666.869C-767.044 666.871 -758.955 660.267 -752.193 653.505C-738.134 639.446 -715.34 639.446 -701.281 653.505C-687.222 667.564 -687.222 690.357 -701.281 704.416C-701.465 704.6 -701.651 704.782 -701.838 704.962C-710.677 713.433 -720.436 723.333 -720.433 735.576C-720.431 747.813 -710.677 757.705 -701.841 766.17C-701.653 766.351 -701.466 766.534 -701.28 766.72C-694.487 773.512 -686.369 780.161 -676.763 780.163L-663.507 780.166C-653.896 780.168 -645.772 773.517 -638.977 766.721C-624.918 752.662 -602.124 752.662 -588.065 766.721C-574.006 780.779 -574.006 803.573 -588.065 817.632C-602.124 831.691 -624.918 831.691 -638.977 817.632C-645.778 810.83 -653.907 804.168 -663.526 804.166L-676.718 804.163C-686.342 804.161 -694.475 810.826 -701.28 817.631C-715.339 831.69 -738.133 831.69 -752.192 817.631Z" stroke="white" stroke-opacity="0.24" stroke-width="4" mask="url(#path-2-inside-1_5822_15606)"/>
<path d="M-412.663 427.191C-426.722 441.25 -426.722 464.044 -412.663 478.103C-398.605 492.162 -375.811 492.162 -361.752 478.103C-347.693 464.044 -347.693 441.25 -361.752 427.191C-369.684 419.26 -378.073 409.996 -378.075 398.778L-378.077 393.313C-378.079 382.092 -369.687 372.822 -361.752 364.888C-347.694 350.829 -347.694 328.035 -361.752 313.976C-375.811 299.917 -398.605 299.917 -412.664 313.976C-419.427 320.739 -427.516 327.343 -437.08 327.341L-450.979 327.338C-459.983 327.336 -467.657 321.286 -474.024 314.919C-488.083 300.86 -510.877 300.86 -524.936 314.919C-538.995 328.978 -538.995 351.772 -524.936 365.831C-510.877 379.89 -488.083 379.89 -474.024 365.831C-466.805 358.611 -458.248 351.336 -448.038 351.338L-437.328 351.341C-427.662 351.343 -419.499 358.053 -412.664 364.888C-407.089 370.463 -402.08 377.291 -402.078 385.175L-402.074 406.889C-402.072 414.779 -407.084 421.612 -412.663 427.191Z" stroke="white" stroke-opacity="0.24" stroke-width="4" mask="url(#path-2-inside-1_5822_15606)"/>
<path d="M-185.409 -24.6083C-199.467 -10.5494 -199.467 12.2445 -185.409 26.3034C-171.35 40.3623 -148.556 40.3623 -134.497 26.3034C-127.277 19.0838 -118.72 11.8088 -108.51 11.8111L-97.8009 11.8134C-88.1344 11.8155 -79.9721 18.5255 -73.1369 25.3607C-59.078 39.4196 -36.2841 39.4196 -22.2252 25.3607C-8.16628 11.3017 -8.16633 -11.4921 -22.2252 -25.551C-36.2841 -39.6099 -59.078 -39.6099 -73.1369 -25.551C-79.8995 -18.7884 -87.9889 -12.1844 -97.5527 -12.1865L-111.452 -12.1896C-120.455 -12.1916 -128.13 -18.2416 -134.497 -24.6083C-148.556 -38.6671 -171.35 -38.6671 -185.409 -24.6083Z" stroke="white" stroke-opacity="0.24" stroke-width="4" mask="url(#path-2-inside-1_5822_15606)"/>
</g>
<defs>
<clipPath id="clip0_5822_15606">
<path d="M0 32C0 14.3269 14.3269 0 32 0H438C455.673 0 470 14.3269 470 32V438C470 455.673 455.673 470 438 470H32C14.3269 470 0 455.673 0 438V32Z" fill="white"/>
</clipPath>
</defs>
</svg>
