<svg xmlns="http://www.w3.org/2000/svg" width="762" height="422" fill="none" viewBox="0 0 762 422">
  <path fill="#30353C" d="M746.558 384.43c-4.018 0-7.853-.782-11.36-2.202-11.109-4.458-18.951-15.306-18.951-27.98v-71.462c0-.549.015-1.095.044-1.637v-.043c-.792-20.934-16.787-38.689-39.483-39.625-.625.039-1.255.058-1.889.058h-.049c-16.665 0-30.18-13.45-30.227-30.06l-.001-.155.001-.128c0-.732-.001-1.472-.004-2.217-1.184-21.345-17.93-38.867-41.335-38.867-4.018 0-7.853-.782-11.36-2.203-11.109-4.457-18.951-15.305-18.951-27.98V68.467c0-.549.015-1.094.044-1.636v-.044c-.795-20.996-16.883-38.795-39.688-39.632l-.836-.001h-.897c-16.694 0-30.228-13.498-30.228-30.149 0-16.65 13.534-30.148 30.228-30.148h.06c16.681.006 30.202 13.495 30.202 30.134 0 22.428 17.116 41.293 41.402 41.293h.024c16.686 0 30.213 13.492 30.213 30.134 0 .408-.009.814-.025 1.218v69.133c.016.402.024.805.024 1.21 0 21.625 16.217 40.278 39.484 41.254a30.471 30.471 0 0 1 1.869-.057h.061c16.681.006 30.201 13.495 30.201 30.133 0 22.428 17.117 41.294 41.403 41.294h.024c16.686 0 30.212 13.491 30.212 30.133 0 .408-.008.814-.024 1.219v69.132c.016.402.024.805.024 1.21 0 21.685 16.306 40.382 39.677 41.261.562.003 1.121.003 1.676.003a30.14 30.14 0 0 1 16.672 4.997c8.188 5.39 13.59 14.649 13.59 25.166 0 16.642-13.527 30.133-30.213 30.133h-.049c-16.694 0-30.227-13.497-30.227-30.148 0-.796 0-1.601-.003-2.411-1.184-21.346-17.93-38.868-41.335-38.868ZM920 354.248v-71.512c0-16.642-13.527-30.133-30.212-30.133-24.287 0-41.403-18.866-41.403-41.294 0-16.638-13.52-30.127-30.201-30.133h-.061c-.628 0-1.251.019-1.869.057-23.267-.976-39.484-19.629-39.484-41.254 0-.405-.008-.809-.024-1.21V69.636c.016-.404.024-.81.024-1.218 0-16.642-13.526-30.134-30.212-30.134h-.024c-24.286 0-41.403-18.865-41.403-41.293 0-16.639-13.52-30.128-30.201-30.133h-.061c-16.694 0-30.227 13.497-30.227 30.147s13.533 30.148 30.227 30.148c.574 0 1.153 0 1.734.002 22.805.837 38.893 18.636 39.688 39.632v.044a30.62 30.62 0 0 0-.044 1.636v71.462c0 12.675 7.842 23.523 18.951 27.98a30.183 30.183 0 0 0 11.36 2.203c23.405 0 40.151 17.522 41.335 38.867.003.745.003 1.485.003 2.217v.283c.048 16.61 13.563 30.06 30.227 30.06h.049c.635 0 1.265-.019 1.89-.058 22.696.936 38.69 18.691 39.482 39.625.002.563.002 1.123.002 1.68v71.462c0 16.65 13.533 30.148 30.227 30.148 16.694 0 30.227-13.498 30.227-30.148Zm0-214.319V68.418c0-16.642-13.527-30.134-30.212-30.134-24.287 0-41.403-18.865-41.403-41.293 0-16.639-13.52-30.128-30.201-30.133h-.061c-16.694 0-30.227 13.497-30.227 30.147s13.533 30.148 30.227 30.148l1.734.002c22.805.837 38.893 18.636 39.687 39.632.002.564.002 1.124.002 1.68v71.462c0 16.65 13.533 30.148 30.227 30.148 16.694 0 30.227-13.498 30.227-30.148ZM520.317 382.228a30.202 30.202 0 0 0 11.36 2.202c23.405 0 40.151 17.522 41.335 38.868.004.81.004 1.615.004 2.411 0 16.651 13.533 30.148 30.227 30.148h.049c16.686 0 30.212-13.491 30.212-30.133 0-10.517-5.402-19.776-13.59-25.166a30.138 30.138 0 0 0-16.671-4.997c-.556 0-1.115 0-1.677-.003-23.37-.879-39.677-19.576-39.677-41.261 0-.405-.008-.808-.024-1.209v-69.134c.017-.404.025-.81.025-1.218 0-16.642-13.527-30.133-30.213-30.133h-.024c-24.286 0-41.402-18.866-41.402-41.294 0-16.638-13.521-30.127-30.202-30.133h-.06c-.628 0-1.252.019-1.87.057-23.267-.976-39.484-19.629-39.484-41.254 0-.405-.008-.809-.023-1.21V69.636l.007-.208a24.621 24.621 0 0 0 .017-1.01c0-16.642-13.527-30.134-30.213-30.134h-.024c-24.286 0-41.402-18.865-41.402-41.293 0-16.639-13.521-30.128-30.202-30.133h-.06c-16.694 0-30.227 13.497-30.227 30.147s13.533 30.148 30.227 30.148h1.111l.623.002c22.804.837 38.893 18.636 39.687 39.632v.044a30.606 30.606 0 0 0-.044 1.636v71.462c0 12.675 7.842 23.523 18.951 27.98a30.183 30.183 0 0 0 11.36 2.203c23.405 0 40.151 17.522 41.335 38.867.003.743.004 1.481.004 2.212v.299c.054 16.605 13.566 30.049 30.227 30.049h.049c.634 0 1.264-.019 1.889-.058 22.696.936 38.691 18.691 39.483 39.625v.043a30.642 30.642 0 0 0-.044 1.637v71.462c0 12.674 7.842 23.522 18.951 27.98Z"/>
  <path fill="#30353C" d="M705.143 354.297c0-.405-.008-.808-.024-1.209v-69.134c.016-.404.024-.81.024-1.218 0-16.642-13.526-30.133-30.212-30.133h-.024c-24.286 0-41.403-18.866-41.403-41.294 0-16.638-13.52-30.127-30.201-30.133h-.061c-.627 0-1.251.019-1.869.057-23.267-.976-39.484-19.629-39.484-41.254 0-.405-.008-.808-.024-1.21V69.636c.017-.404.025-.81.025-1.218 0-16.642-13.527-30.134-30.213-30.134h-.024c-24.286 0-41.402-18.865-41.402-41.293 0-16.639-13.521-30.128-30.202-30.133h-.06c-16.694 0-30.227 13.497-30.227 30.147s13.533 30.148 30.227 30.148c.574 0 1.152 0 1.734.002 22.804.837 38.892 18.636 39.687 39.632v.044a30.603 30.603 0 0 0-.044 1.636v71.462c0 12.675 7.842 23.523 18.951 27.98a30.183 30.183 0 0 0 11.36 2.203c23.405 0 40.151 17.522 41.335 38.867.003.745.004 1.485.004 2.217l-.001.128.001.155c.047 16.61 13.562 30.06 30.227 30.06h.049c.634 0 1.264-.019 1.889-.058 22.696.936 38.691 18.691 39.483 39.625v.043a30.642 30.642 0 0 0-.044 1.637v71.462c0 12.674 7.842 23.522 18.951 27.98a30.202 30.202 0 0 0 11.36 2.202c23.405 0 40.151 17.522 41.335 38.868.003.81.003 1.615.003 2.411 0 16.651 13.534 30.148 30.228 30.148h.049c16.685 0 30.212-13.491 30.212-30.133 0-10.517-5.402-19.776-13.59-25.166a30.138 30.138 0 0 0-16.671-4.997c-.556 0-1.115 0-1.677-.003-23.371-.879-39.677-19.576-39.677-41.261Zm-.024-215.528c.016.402.024.805.024 1.21 0 21.625 16.217 40.278 39.484 41.254a30.447 30.447 0 0 1 1.869-.057h.061c16.681.006 30.201 13.495 30.201 30.133 0 22.428 17.117 41.294 41.403 41.294 16.686 0 30.212 13.491 30.212 30.133v71.512c0 16.65-13.533 30.148-30.227 30.148-16.694 0-30.227-13.498-30.227-30.148v-71.462l-.001-1.68c-.793-20.934-16.787-38.689-39.483-39.625-.625.039-1.255.058-1.889.058h-.049c-16.665 0-30.18-13.45-30.227-30.06l-.001-.155v-.128c0-.732 0-1.472-.003-2.217-1.184-21.345-17.93-38.867-41.335-38.867-4.018 0-7.853-.782-11.36-2.203-11.109-4.457-18.951-15.305-18.951-27.98V68.467c0-.549.015-1.094.044-1.636v-.044c-.795-20.996-16.883-38.795-39.688-39.632-.581-.002-1.16-.002-1.734-.002-16.694 0-30.227-13.497-30.227-30.148 0-16.65 13.533-30.148 30.227-30.148h.061c16.681.006 30.201 13.495 30.201 30.134 0 22.428 17.117 41.293 41.403 41.293h.024c16.686 0 30.212 13.492 30.212 30.134 0 .408-.008.814-.024 1.218v69.133ZM305.436 382.228a30.202 30.202 0 0 0 11.36 2.202c23.405 0 40.151 17.522 41.335 38.868.004.81.004 1.615.004 2.411 0 16.651 13.533 30.148 30.227 30.148h.049c16.686 0 30.212-13.491 30.212-30.133 0-10.517-5.402-19.776-13.589-25.166a30.14 30.14 0 0 0-16.672-4.997c-.555 0-1.115 0-1.677-.003-23.37-.879-39.676-19.576-39.676-41.261 0-.405-.008-.808-.024-1.21v-69.132c.016-.404.024-.811.024-1.219 0-16.642-13.527-30.133-30.212-30.133h-.025c-24.286 0-41.402-18.866-41.402-41.294 0-16.638-13.521-30.127-30.202-30.133h-.06c-.628 0-1.251.019-1.87.057-23.267-.976-39.483-19.629-39.483-41.254 0-.405-.008-.809-.024-1.21V69.636c.016-.404.024-.81.024-1.218 0-16.642-13.527-30.134-30.212-30.134h-.025c-24.286 0-41.402-18.865-41.402-41.293 0-16.639-13.521-30.128-30.201-30.133h-.061c-16.694 0-30.227 13.497-30.227 30.147s13.533 30.148 30.227 30.148h1.164l.57.002c22.804.837 38.893 18.636 39.687 39.632v.044a30.61 30.61 0 0 0-.043 1.636v71.462c0 12.675 7.842 23.523 18.95 27.98a30.183 30.183 0 0 0 11.36 2.203c23.405 0 40.151 17.522 41.336 38.867l.002.85.001.616v1.045c.054 16.605 13.566 30.049 30.227 30.049h.049c.635 0 1.264-.019 1.889-.058 22.696.936 38.691 18.691 39.483 39.625v.043a30.642 30.642 0 0 0-.044 1.637v71.462c0 12.674 7.842 23.522 18.951 27.98Zm184.826-27.931c0-.405-.008-.808-.023-1.21v-69.132c.016-.404.024-.811.024-1.219 0-16.642-13.527-30.133-30.213-30.133h-.024c-24.286 0-41.402-18.866-41.402-41.294 0-16.638-13.521-30.127-30.202-30.133h-.06c-.628 0-1.252.019-1.87.057-23.267-.976-39.483-19.629-39.483-41.254 0-.405-.008-.809-.024-1.21V69.636c.016-.404.024-.81.024-1.218 0-16.642-13.527-30.134-30.212-30.134h-.025c-24.286 0-41.402-18.865-41.402-41.293 0-16.639-13.521-30.128-30.202-30.133h-.06c-16.694 0-30.227 13.497-30.227 30.147s13.533 30.148 30.227 30.148c.574 0 1.152 0 1.734.002 22.804.837 38.893 18.636 39.687 39.632v.044a30.606 30.606 0 0 0-.044 1.636v71.462c0 12.675 7.842 23.523 18.951 27.98a30.183 30.183 0 0 0 11.36 2.203c23.405 0 40.151 17.522 41.335 38.867.003.743.004 1.481.004 2.212v.299c.054 16.605 13.566 30.049 30.227 30.049h.049c.634 0 1.264-.019 1.889-.058 22.696.936 38.691 18.691 39.483 39.625v.043a30.642 30.642 0 0 0-.044 1.637v71.462c0 12.674 7.842 23.522 18.951 27.98a30.202 30.202 0 0 0 11.36 2.202c23.405 0 40.151 17.522 41.335 38.868.004.81.004 1.615.004 2.411 0 16.651 13.533 30.148 30.227 30.148h.049c16.686 0 30.212-13.491 30.212-30.133 0-10.517-5.402-19.776-13.59-25.166a30.138 30.138 0 0 0-16.671-4.997c-.556 0-1.115 0-1.677-.003-23.37-.879-39.677-19.576-39.677-41.261Z"/>
  <path fill="#30353C" d="M490.239 138.769c.015.401.023.805.023 1.21 0 21.625 16.217 40.278 39.484 41.254a30.48 30.48 0 0 1 1.87-.057h.06c16.681.006 30.202 13.495 30.202 30.133 0 22.428 17.116 41.294 41.402 41.294h.024c16.686 0 30.213 13.491 30.213 30.133 0 .408-.009.814-.025 1.218v69.134c.016.401.024.804.024 1.209 0 21.685 16.307 40.382 39.677 41.261.562.003 1.121.003 1.677.003a30.138 30.138 0 0 1 16.671 4.997c8.188 5.39 13.59 14.649 13.59 25.166 0 16.642-13.527 30.133-30.212 30.133h-.049c-16.694 0-30.227-13.497-30.227-30.148 0-.796-.001-1.601-.004-2.411-1.184-21.346-17.93-38.868-41.335-38.868-4.018 0-7.853-.782-11.36-2.202-11.109-4.458-18.951-15.306-18.951-27.98v-71.462c0-.549.015-1.095.044-1.636v-.044c-.792-20.934-16.787-38.689-39.483-39.625-.625.039-1.255.058-1.889.058h-.049c-16.661 0-30.174-13.444-30.227-30.049l-.001-.166.001-.133c0-.731-.001-1.469-.004-2.212-1.184-21.345-17.93-38.867-41.335-38.867-4.018 0-7.853-.782-11.36-2.203-11.109-4.457-18.951-15.305-18.951-27.98V68.467c0-.549.015-1.094.044-1.636v-.044c-.794-20.996-16.883-38.795-39.687-39.632-.582-.002-1.16-.002-1.734-.002-16.694 0-30.227-13.497-30.227-30.148 0-16.65 13.533-30.148 30.227-30.148h.06c16.681.006 30.202 13.495 30.202 30.134 0 22.428 17.116 41.293 41.402 41.293h.024c16.686 0 30.213 13.492 30.213 30.134 0 .408-.008.814-.024 1.218v69.133ZM275.382 354.297c0-.405-.008-.808-.024-1.21v-69.132c.016-.404.024-.811.024-1.219 0-16.642-13.527-30.133-30.212-30.133h-.025c-24.286 0-41.402-18.866-41.402-41.294 0-16.638-13.521-30.127-30.201-30.133h-.061c-.628 0-1.251.019-1.87.057-23.267-.976-39.483-19.629-39.483-41.254 0-.405-.008-.809-.024-1.21V69.636c.016-.404.024-.81.024-1.218 0-16.642-13.526-30.134-30.212-30.134h-.025c-24.286 0-41.402-18.865-41.402-41.293 0-16.639-13.52-30.128-30.201-30.133h-.06C13.532-33.143 0-19.646 0-2.996s13.533 30.148 30.227 30.148c.574 0 1.152 0 1.734.002 22.805.837 38.893 18.636 39.687 39.632v.043a30.64 30.64 0 0 0-.043 1.637v71.462c0 12.675 7.842 23.523 18.95 27.98a30.183 30.183 0 0 0 11.36 2.203c23.405 0 40.151 17.522 41.336 38.867l.003 1.529v.983c.054 16.605 13.566 30.049 30.227 30.049h.049c.635 0 1.265-.019 1.889-.058 22.696.936 38.691 18.691 39.483 39.625v.043a30.645 30.645 0 0 0-.043 1.637l-.001 71.401.001.03v.031c0 12.674 7.841 23.522 18.95 27.98a30.202 30.202 0 0 0 11.36 2.202c23.405 0 40.151 17.522 41.336 38.868.003.81.003 1.615.003 2.411 0 16.651 13.533 30.148 30.227 30.148h.049c16.686 0 30.212-13.491 30.212-30.133 0-10.517-5.402-19.776-13.589-25.166a30.14 30.14 0 0 0-16.672-4.997c-.555 0-1.115 0-1.677-.003-23.37-.879-39.676-19.576-39.676-41.261Zm-.024-215.528c.016.401.024.805.024 1.21 0 21.625 16.216 40.278 39.483 41.254a30.504 30.504 0 0 1 1.87-.057h.06c16.681.006 30.202 13.495 30.202 30.133 0 22.428 17.116 41.294 41.402 41.294h.024c16.686 0 30.213 13.491 30.213 30.133 0 .408-.008.815-.024 1.219v69.132c.015.402.023.805.023 1.21 0 21.685 16.307 40.382 39.677 41.261.562.003 1.122.003 1.677.003a30.136 30.136 0 0 1 16.671 4.997c8.188 5.39 13.59 14.649 13.59 25.166 0 16.642-13.526 30.133-30.212 30.133h-.049c-16.694 0-30.227-13.497-30.227-30.148 0-.796 0-1.601-.004-2.411-1.184-21.346-17.93-38.868-41.335-38.868-4.018 0-7.853-.782-11.36-2.202-11.109-4.458-18.951-15.306-18.951-27.98v-71.462c0-.549.015-1.095.044-1.637v-.043c-.792-20.934-16.787-38.689-39.483-39.625a30.31 30.31 0 0 1-1.889.058h-.049c-16.661 0-30.173-13.444-30.227-30.049v-.299c0-.731 0-1.469-.003-2.212-1.185-21.345-17.931-38.867-41.336-38.867-4.018 0-7.853-.782-11.36-2.203-11.109-4.457-18.95-15.305-18.95-27.98v-.03l-.001-.03.001-71.402c0-.549.014-1.094.043-1.636v-.044c-.794-20.996-16.883-38.795-39.687-39.632-.582-.002-1.16-.002-1.734-.002-16.694 0-30.227-13.497-30.227-30.148 0-16.65 13.533-30.148 30.227-30.148h.061c16.68.006 30.201 13.495 30.201 30.134 0 22.428 17.116 41.293 41.402 41.293h.025c16.685 0 30.212 13.492 30.212 30.134 0 .408-.008.814-.024 1.218v69.133Zm573.015 1.16V68.418c0-16.642-13.526-30.134-30.212-30.134-24.286 0-41.403-18.865-41.403-41.293 0-16.639-13.52-30.128-30.201-30.133h-.061c-16.694 0-30.227 13.497-30.227 30.147s13.533 30.148 30.227 30.148c.574 0 1.153 0 1.734.002 22.805.837 38.893 18.636 39.688 39.632l.001 1.68v71.462c0 16.65 13.533 30.148 30.227 30.148 16.694 0 30.227-13.498 30.227-30.148Z"/>
</svg>
