<svg width="203" height="80" viewBox="0 0 203 80" fill="none" xmlns="http://www.w3.org/2000/svg">
<g clip-path="url(#clip0_1_171)">
<path d="M56.8061 25.335C58.1192 25.335 59.1837 24.2733 59.1837 22.9636C59.1837 21.6539 58.1192 20.5921 56.8061 20.5921C55.493 20.5921 54.4286 21.6539 54.4286 22.9636C54.4286 24.2733 55.493 25.335 56.8061 25.335Z" fill="black"/>
<path d="M59.4809 58.8322C60.794 58.8322 61.8585 57.7704 61.8585 56.4607C61.8585 55.151 60.794 54.0893 59.4809 54.0893C58.1678 54.0893 57.1033 55.151 57.1033 56.4607C57.1033 57.7704 58.1678 58.8322 59.4809 58.8322Z" fill="black"/>
<path d="M57.4856 31.2638C58.5877 31.2638 59.4811 30.3727 59.4811 29.2735C59.4811 28.1742 58.5877 27.2831 57.4856 27.2831C56.3836 27.2831 55.4902 28.1742 55.4902 29.2735C55.4902 30.3727 56.3836 31.2638 57.4856 31.2638Z" fill="black"/>
<path d="M62.7932 32.0258C63.8952 32.0258 64.7886 31.1347 64.7886 30.0355C64.7886 28.9363 63.8952 28.0452 62.7932 28.0452C61.6911 28.0452 60.7977 28.9363 60.7977 30.0355C60.7977 31.1347 61.6911 32.0258 62.7932 32.0258Z" fill="black"/>
<path d="M56.8065 36.303C57.7444 36.303 58.5047 35.5446 58.5047 34.6091C58.5047 33.6736 57.7444 32.9152 56.8065 32.9152C55.8685 32.9152 55.1082 33.6736 55.1082 34.6091C55.1082 35.5446 55.8685 36.303 56.8065 36.303Z" fill="black"/>
<path d="M62.1131 37.0233C63.0511 37.0233 63.8114 36.2649 63.8114 35.3294C63.8114 34.3939 63.0511 33.6355 62.1131 33.6355C61.1752 33.6355 60.4149 34.3939 60.4149 35.3294C60.4149 36.2649 61.1752 37.0233 62.1131 37.0233Z" fill="black"/>
<path d="M66.359 38.6746C67.297 38.6746 68.0573 37.9162 68.0573 36.9807C68.0573 36.0452 67.297 35.2868 66.359 35.2868C65.4211 35.2868 64.6608 36.0452 64.6608 36.9807C64.6608 37.9162 65.4211 38.6746 66.359 38.6746Z" fill="black"/>
<path d="M60.5423 41.0883C61.363 41.0883 62.0283 40.4248 62.0283 39.6062C62.0283 38.7876 61.363 38.124 60.5423 38.124C59.7217 38.124 59.0564 38.7876 59.0564 39.6062C59.0564 40.4248 59.7217 41.0883 60.5423 41.0883Z" fill="black"/>
<path d="M55.2356 40.3681C56.0563 40.3681 56.7216 39.7045 56.7216 38.8859C56.7216 38.0674 56.0563 37.4038 55.2356 37.4038C54.4149 37.4038 53.7496 38.0674 53.7496 38.8859C53.7496 39.7045 54.4149 40.3681 55.2356 40.3681Z" fill="black"/>
<path d="M64.8304 42.7397C65.6511 42.7397 66.3164 42.0761 66.3164 41.2576C66.3164 40.439 65.6511 39.7754 64.8304 39.7754C64.0098 39.7754 63.3445 40.439 63.3445 41.2576C63.3445 42.0761 64.0098 42.7397 64.8304 42.7397Z" fill="black"/>
<path d="M58.42 44.1794C59.1234 44.1794 59.6937 43.6106 59.6937 42.909C59.6937 42.2074 59.1234 41.6386 58.42 41.6386C57.7165 41.6386 57.1463 42.2074 57.1463 42.909C57.1463 43.6106 57.7165 44.1794 58.42 44.1794Z" fill="black"/>
<path d="M62.7081 45.7888C63.4115 45.7888 63.9818 45.22 63.9818 44.5183C63.9818 43.8167 63.4115 43.2479 62.7081 43.2479C62.0046 43.2479 61.4344 43.8167 61.4344 44.5183C61.4344 45.22 62.0046 45.7888 62.7081 45.7888Z" fill="black"/>
<path d="M53.1548 43.4169C53.8583 43.4169 54.4285 42.8481 54.4285 42.1465C54.4285 41.4449 53.8583 40.8761 53.1548 40.8761C52.4514 40.8761 51.8811 41.4449 51.8811 42.1465C51.8811 42.8481 52.4514 43.4169 53.1548 43.4169Z" fill="black"/>
<path d="M56.0844 46.2548C56.6706 46.2548 57.1459 45.7808 57.1459 45.1961C57.1459 44.6114 56.6706 44.1375 56.0844 44.1375C55.4982 44.1375 55.023 44.6114 55.023 45.1961C55.023 45.7808 55.4982 46.2548 56.0844 46.2548Z" fill="black"/>
<path d="M57.9101 49.1767C58.4259 49.1767 58.8441 48.7596 58.8441 48.245C58.8441 47.7305 58.4259 47.3134 57.9101 47.3134C57.3942 47.3134 56.976 47.7305 56.976 48.245C56.976 48.7596 57.3942 49.1767 57.9101 49.1767Z" fill="black"/>
<path d="M55.6599 49.7698C56.0819 49.7698 56.4241 49.4285 56.4241 49.0076C56.4241 48.5866 56.0819 48.2453 55.6599 48.2453C55.2378 48.2453 54.8956 48.5866 54.8956 49.0076C54.8956 49.4285 55.2378 49.7698 55.6599 49.7698Z" fill="black"/>
<path d="M53.6643 47.5673C54.1802 47.5673 54.5984 47.1502 54.5984 46.6357C54.5984 46.1211 54.1802 45.704 53.6643 45.704C53.1484 45.704 52.7303 46.1211 52.7303 46.6357C52.7303 47.1502 53.1484 47.5673 53.6643 47.5673Z" fill="black"/>
<path d="M50.7777 45.5349C51.3639 45.5349 51.8391 45.0609 51.8391 44.4763C51.8391 43.8916 51.3639 43.4176 50.7777 43.4176C50.1915 43.4176 49.7163 43.8916 49.7163 44.4763C49.7163 45.0609 50.1915 45.5349 50.7777 45.5349Z" fill="black"/>
<path d="M50.7348 37.573C51.321 37.573 51.7963 37.099 51.7963 36.5143C51.7963 35.9296 51.321 35.4556 50.7348 35.4556C50.1486 35.4556 49.6734 35.9296 49.6734 36.5143C49.6734 37.099 50.1486 37.573 50.7348 37.573Z" fill="black"/>
<path d="M51.2019 33.8466C51.7178 33.8466 52.1359 33.4295 52.1359 32.915C52.1359 32.4004 51.7178 31.9833 51.2019 31.9833C50.686 31.9833 50.2678 32.4004 50.2678 32.915C50.2678 33.4295 50.686 33.8466 51.2019 33.8466Z" fill="black"/>
<path d="M52.2211 30.7975C52.6431 30.7975 52.9853 30.4563 52.9853 30.0353C52.9853 29.6143 52.6431 29.273 52.2211 29.273C51.799 29.273 51.4568 29.6143 51.4568 30.0353C51.4568 30.4563 51.799 30.7975 52.2211 30.7975Z" fill="black"/>
<path d="M50.4378 29.3581C50.9536 29.3581 51.3718 28.941 51.3718 28.4264C51.3718 27.9119 50.9536 27.4948 50.4378 27.4948C49.9219 27.4948 49.5037 27.9119 49.5037 28.4264C49.5037 28.941 49.9219 29.3581 50.4378 29.3581Z" fill="black"/>
<path d="M60.3302 47.8635C60.9164 47.8635 61.3916 47.3895 61.3916 46.8048C61.3916 46.2201 60.9164 45.7461 60.3302 45.7461C59.744 45.7461 59.2688 46.2201 59.2688 46.8048C59.2688 47.3895 59.744 47.8635 60.3302 47.8635Z" fill="black"/>
<path d="M48.0177 28.1299C48.6039 28.1299 49.0792 27.656 49.0792 27.0713C49.0792 26.4866 48.6039 26.0126 48.0177 26.0126C47.4315 26.0126 46.9563 26.4866 46.9563 27.0713C46.9563 27.656 47.4315 28.1299 48.0177 28.1299Z" fill="black"/>
<path d="M48.7395 32.6189C49.3257 32.6189 49.8009 32.1449 49.8009 31.5602C49.8009 30.9755 49.3257 30.5016 48.7395 30.5016C48.1533 30.5016 47.6781 30.9755 47.6781 31.5602C47.6781 32.1449 48.1533 32.6189 48.7395 32.6189Z" fill="black"/>
<path d="M47.5511 36.8958C48.2545 36.8958 48.8248 36.327 48.8248 35.6253C48.8248 34.9237 48.2545 34.3549 47.5511 34.3549C46.8476 34.3549 46.2774 34.9237 46.2774 35.6253C46.2774 36.327 46.8476 36.8958 47.5511 36.8958Z" fill="black"/>
<path d="M43.687 36.8955C44.5077 36.8955 45.173 36.2319 45.173 35.4133C45.173 34.5948 44.5077 33.9312 43.687 33.9312C42.8663 33.9312 42.201 34.5948 42.201 35.4133C42.201 36.2319 42.8663 36.8955 43.687 36.8955Z" fill="black"/>
<path d="M39.1871 37.9123C40.125 37.9123 40.8853 37.1539 40.8853 36.2184C40.8853 35.2829 40.125 34.5245 39.1871 34.5245C38.2491 34.5245 37.4888 35.2829 37.4888 36.2184C37.4888 37.1539 38.2491 37.9123 39.1871 37.9123Z" fill="black"/>
<path d="M34.262 40.3264C35.3641 40.3264 36.2575 39.4353 36.2575 38.3361C36.2575 37.2368 35.3641 36.3457 34.262 36.3457C33.1599 36.3457 32.2665 37.2368 32.2665 38.3361C32.2665 39.4353 33.1599 40.3264 34.262 40.3264Z" fill="black"/>
<path d="M29.1671 44.3913C30.4802 44.3913 31.5446 43.3296 31.5446 42.0199C31.5446 40.7102 30.4802 39.6484 29.1671 39.6484C27.854 39.6484 26.7895 40.7102 26.7895 42.0199C26.7895 43.3296 27.854 44.3913 29.1671 44.3913Z" fill="black"/>
<path d="M32.2669 35.3715C33.3689 35.3715 34.2623 34.4804 34.2623 33.3812C34.2623 32.2819 33.3689 31.3908 32.2669 31.3908C31.1648 31.3908 30.2714 32.2819 30.2714 33.3812C30.2714 34.4804 31.1648 35.3715 32.2669 35.3715Z" fill="black"/>
<path d="M37.1912 32.9574C38.1292 32.9574 38.8895 32.199 38.8895 31.2635C38.8895 30.328 38.1292 29.5696 37.1912 29.5696C36.2533 29.5696 35.493 30.328 35.493 31.2635C35.493 32.199 36.2533 32.9574 37.1912 32.9574Z" fill="black"/>
<path d="M36.4693 28.4685C37.4073 28.4685 38.1676 27.7101 38.1676 26.7746C38.1676 25.8391 37.4073 25.0807 36.4693 25.0807C35.5314 25.0807 34.7711 25.8391 34.7711 26.7746C34.7711 27.7101 35.5314 28.4685 36.4693 28.4685Z" fill="black"/>
<path d="M40.9701 27.4523C41.7907 27.4523 42.456 26.7887 42.456 25.9701C42.456 25.1516 41.7907 24.488 40.9701 24.488C40.1494 24.488 39.4841 25.1516 39.4841 25.9701C39.4841 26.7887 40.1494 27.4523 40.9701 27.4523Z" fill="black"/>
<path d="M44.8333 27.4523C45.5367 27.4523 46.107 26.8835 46.107 26.1819C46.107 25.4803 45.5367 24.9115 44.8333 24.9115C44.1298 24.9115 43.5596 25.4803 43.5596 26.1819C43.5596 26.8835 44.1298 27.4523 44.8333 27.4523Z" fill="black"/>
<path d="M45.5553 31.9408C46.2587 31.9408 46.829 31.372 46.829 30.6704C46.829 29.9687 46.2587 29.4 45.5553 29.4C44.8518 29.4 44.2816 29.9687 44.2816 30.6704C44.2816 31.372 44.8518 31.9408 45.5553 31.9408Z" fill="black"/>
<path d="M41.6919 31.9836C42.5125 31.9836 43.1778 31.32 43.1778 30.5015C43.1778 29.6829 42.5125 29.0193 41.6919 29.0193C40.8712 29.0193 40.2059 29.6829 40.2059 30.5015C40.2059 31.32 40.8712 31.9836 41.6919 31.9836Z" fill="black"/>
<path d="M37.4884 43.2478C37.9105 43.2478 38.2527 42.9065 38.2527 42.4856C38.2527 42.0646 37.9105 41.7233 37.4884 41.7233C37.0664 41.7233 36.7242 42.0646 36.7242 42.4856C36.7242 42.9065 37.0664 43.2478 37.4884 43.2478Z" fill="black"/>
<path d="M40.5455 42.867C41.0613 42.867 41.4795 42.4499 41.4795 41.9354C41.4795 41.4208 41.0613 41.0037 40.5455 41.0037C40.0296 41.0037 39.6114 41.4208 39.6114 41.9354C39.6114 42.4499 40.0296 42.867 40.5455 42.867Z" fill="black"/>
<path d="M43.8993 41.5968C44.4855 41.5968 44.9607 41.1228 44.9607 40.5381C44.9607 39.9535 44.4855 39.4795 43.8993 39.4795C43.3131 39.4795 42.8379 39.9535 42.8379 40.5381C42.8379 41.1228 43.3131 41.5968 43.8993 41.5968Z" fill="black"/>
<path d="M44.706 44.9842C45.4094 44.9842 45.9797 44.4154 45.9797 43.7138C45.9797 43.0121 45.4094 42.4434 44.706 42.4434C44.0026 42.4434 43.4323 43.0121 43.4323 43.7138C43.4323 44.4154 44.0026 44.9842 44.706 44.9842Z" fill="black"/>
<path d="M40.6307 45.7885C41.2169 45.7885 41.6921 45.3145 41.6921 44.7298C41.6921 44.1451 41.2169 43.6711 40.6307 43.6711C40.0445 43.6711 39.5693 44.1451 39.5693 44.7298C39.5693 45.3145 40.0445 45.7885 40.6307 45.7885Z" fill="black"/>
<path d="M37.0214 45.7462C37.5372 45.7462 37.9554 45.3291 37.9554 44.8145C37.9554 44.3 37.5372 43.8829 37.0214 43.8829C36.5055 43.8829 36.0873 44.3 36.0873 44.8145C36.0873 45.3291 36.5055 45.7462 37.0214 45.7462Z" fill="black"/>
<path d="M37.0636 48.6685C37.6498 48.6685 38.125 48.1945 38.125 47.6098C38.125 47.0251 37.6498 46.5511 37.0636 46.5511C36.4774 46.5511 36.0022 47.0251 36.0022 47.6098C36.0022 48.1945 36.4774 48.6685 37.0636 48.6685Z" fill="black"/>
<path d="M41.3945 49.2189C42.0979 49.2189 42.6682 48.6501 42.6682 47.9484C42.6682 47.2468 42.0979 46.678 41.3945 46.678C40.691 46.678 40.1208 47.2468 40.1208 47.9484C40.1208 48.6501 40.691 49.2189 41.3945 49.2189Z" fill="black"/>
<path d="M46.4472 48.6684C47.2679 48.6684 47.9332 48.0048 47.9332 47.1862C47.9332 46.3676 47.2679 45.704 46.4472 45.704C45.6265 45.704 44.9612 46.3676 44.9612 47.1862C44.9612 48.0048 45.6265 48.6684 46.4472 48.6684Z" fill="black"/>
<path d="M49.4185 52.3523C50.3565 52.3523 51.1168 51.5939 51.1168 50.6584C51.1168 49.7229 50.3565 48.9645 49.4185 48.9645C48.4806 48.9645 47.7203 49.7229 47.7203 50.6584C47.7203 51.5939 48.4806 52.3523 49.4185 52.3523Z" fill="black"/>
<path d="M43.1778 52.8608C43.9985 52.8608 44.6638 52.1972 44.6638 51.3786C44.6638 50.56 43.9985 49.8965 43.1778 49.8965C42.3571 49.8965 41.6918 50.56 41.6918 51.3786C41.6918 52.1972 42.3571 52.8608 43.1778 52.8608Z" fill="black"/>
<path d="M39.6537 55.7402C40.4744 55.7402 41.1397 55.0766 41.1397 54.258C41.1397 53.4394 40.4744 52.7758 39.6537 52.7758C38.833 52.7758 38.1677 53.4394 38.1677 54.258C38.1677 55.0766 38.833 55.7402 39.6537 55.7402Z" fill="black"/>
<path d="M42.5831 59.467C43.5211 59.467 44.2814 58.7087 44.2814 57.7732C44.2814 56.8376 43.5211 56.0793 42.5831 56.0793C41.6452 56.0793 40.8849 56.8376 40.8849 57.7732C40.8849 58.7087 41.6452 59.467 42.5831 59.467Z" fill="black"/>
<path d="M50.3954 60.1447C51.4975 60.1447 52.3909 59.2536 52.3909 58.1544C52.3909 57.0552 51.4975 56.1641 50.3954 56.1641C49.2933 56.1641 48.3999 57.0552 48.3999 58.1544C48.3999 59.2536 49.2933 60.1447 50.3954 60.1447Z" fill="black"/>
<path d="M46.1072 56.5871C47.0451 56.5871 47.8055 55.8287 47.8055 54.8932C47.8055 53.9577 47.0451 53.1993 46.1072 53.1993C45.1693 53.1993 44.409 53.9577 44.409 54.8932C44.409 55.8287 45.1693 56.5871 46.1072 56.5871Z" fill="black"/>
<path d="M53.6648 55.9101C54.7668 55.9101 55.6602 55.019 55.6602 53.9198C55.6602 52.8206 54.7668 51.9295 53.6648 51.9295C52.5627 51.9295 51.6693 52.8206 51.6693 53.9198C51.6693 55.019 52.5627 55.9101 53.6648 55.9101Z" fill="black"/>
<path d="M37.8704 52.0987C38.5739 52.0987 39.1441 51.5299 39.1441 50.8283C39.1441 50.1267 38.5739 49.5579 37.8704 49.5579C37.167 49.5579 36.5967 50.1267 36.5967 50.8283C36.5967 51.5299 37.167 52.0987 37.8704 52.0987Z" fill="black"/>
<path d="M87.9347 27.6523H85.0197V53.2119H87.9347V27.6523Z" fill="black"/>
<path d="M97.3184 40.4116C97.3184 33.2497 103.32 27.1842 110.378 27.1842C117.478 27.1842 123.394 33.2045 123.394 40.4116C123.394 47.6187 117.437 53.639 110.378 53.639C103.361 53.68 97.3184 47.6187 97.3184 40.4116ZM120.479 40.4116C120.479 34.7322 115.873 29.8987 110.378 29.8987C104.884 29.8987 100.237 34.7322 100.237 40.4116C100.237 46.1362 104.884 50.9656 110.378 50.9656C115.873 50.9656 120.479 46.1362 120.479 40.4116Z" fill="black"/>
<path d="M138.353 30.4079H129.776V27.6523H149.809V30.4079H141.227V53.2119H138.312L138.353 30.4079Z" fill="black"/>
<path d="M165.104 31.2128L155.425 53.2119H152.257L162.864 29.0938C163.245 28.2026 164.134 27.6523 165.063 27.6523C166.033 27.6523 166.881 28.2026 167.261 29.0938L177.869 53.2119H174.7L165.104 31.2128Z" fill="black"/>
</g>
<defs>
<clipPath id="clip0_1_171">
<rect width="160.408" height="52.7368" fill="white" transform="translate(21.2961 14)"/>
</clipPath>
</defs>
</svg>
