<svg width="1081" height="808" viewBox="0 0 1081 808" fill="none"
    xmlns="http://www.w3.org/2000/svg">
    <path d="M789.36 489.227C770.025 468.381 741.918 438.078 700.4 436.462C666.088 435.126 626.053 462.797 605.243 482.099C562.179 522.041 494.819 519.434 454.789 476.276C414.76 433.118 417.219 365.752 460.282 325.81C503.345 285.868 570.705 288.476 610.735 331.633C630.108 352.52 659.566 375.117 699.164 378.077C739.307 379.586 774.002 358.101 794.853 338.761C837.916 298.82 905.276 301.427 945.306 344.585C985.336 387.743 982.877 455.108 939.814 495.05C896.75 534.992 829.39 532.385 789.36 489.227Z" fill="#84FF81"/>
    <path d="M452.552 476.562C433.217 455.716 405.11 425.412 363.591 423.796C329.279 422.46 289.244 450.132 268.434 469.433C225.371 509.375 158.011 506.768 117.981 463.611C77.951 420.453 80.4102 353.087 123.473 313.145C166.537 273.203 233.897 275.81 273.927 318.968C293.299 339.854 322.757 362.451 362.355 365.411C402.498 366.921 437.194 345.435 458.044 326.096C501.108 286.154 568.468 288.761 608.498 331.919C648.527 375.077 646.068 442.443 603.005 482.385C559.942 522.327 492.582 519.72 452.552 476.562Z" fill="#84FF81"/>
    <path d="M240.054 290.608C250.02 244.049 265.482 207.316 283.553 185.985C292.563 175.35 301.711 169.143 310.498 166.853C319.141 164.599 327.877 166.015 336.567 171.499C354.378 182.74 370.788 210.373 382.259 251.373C393.653 292.095 399.219 342.604 397.968 394.658C396.718 446.71 388.731 497.014 375.383 537.363C361.953 577.961 344.196 605.164 325.733 615.901C316.7 621.154 307.871 622.262 299.393 619.75C290.789 617.201 282.004 610.758 273.547 599.888C256.566 578.064 242.887 540.922 235.164 494.078" stroke="#1C1B24" stroke-width="9"/>
    <path d="M388.923 270.891C400.652 229.597 416.842 199.361 434.559 184.023C443.338 176.423 452.012 172.889 460.257 172.791C468.469 172.693 476.893 175.993 485.259 183.286C502.216 198.07 517.18 227.781 527.272 268.816C537.317 309.659 541.811 358.778 540.017 408.741C538.222 458.706 530.242 506.606 517.353 545.204C504.393 584.014 487.443 610.506 469.695 621.827C460.974 627.39 452.448 629.055 444.288 627.374C436.047 625.677 427.597 620.444 419.349 611.124C402.751 592.366 388.821 559.117 380.129 515.852" stroke="#1C1B24" stroke-width="9"/>
    <path d="M531.185 277.854C542.914 236.56 559.103 206.324 576.82 190.987C585.6 183.386 594.274 179.853 602.519 179.754C610.731 179.656 619.155 182.956 627.521 190.249C644.478 205.033 659.442 234.745 669.534 275.779C679.578 316.622 684.073 365.742 682.278 415.704C680.484 465.67 672.504 513.569 659.615 552.168C646.655 590.977 629.705 617.47 611.956 628.791C603.236 634.353 594.71 636.019 586.55 634.338C578.309 632.64 569.859 627.408 561.611 618.087C545.013 599.33 531.083 566.081 522.391 522.815" stroke="#1C1B24" stroke-width="9"/>
    <path d="M671.938 290.281C683.273 248.027 699.249 216.491 716.983 199.843C725.789 191.576 734.537 187.435 742.861 186.802C751.117 186.174 759.564 188.95 767.971 195.696C785.06 209.409 800.341 238.254 810.816 278.853C821.236 319.243 826.126 368.271 824.676 418.464" stroke="#1C1B24" stroke-width="9"/>
    <path d="M871.133 364L825.128 418.699L769.999 373.209" stroke="#1C1B24" stroke-width="9"/>
</svg>
