<svg width="708" height="532" viewBox="0 0 708 532" fill="none"
    xmlns="http://www.w3.org/2000/svg">
    <circle cx="354.158" cy="161.872" r="81.435" transform="rotate(45 354.158 161.872)" fill="#D6D1D9"/>
    <ellipse cx="225.756" cy="277.953" rx="81.435" ry="81.8658" transform="rotate(45 225.756 277.953)" fill="#84FF81"/>
    <circle cx="484.834" cy="283.742" r="81.435" transform="rotate(45 484.834 283.742)" fill="#84FF81"/>
    <ellipse cx="353.854" cy="399.822" rx="81.435" ry="81.8658" transform="rotate(45 353.854 399.822)" fill="#1C1B24"/>
    <path d="M165.035 351.407C145.883 390.773 138.98 423.896 145.256 446.321C151.531 468.746 170.683 479.397 200.136 476.842C229.59 474.287 267.931 458.649 310.004 432.029C352.076 405.41 395.863 369.087 435.473 327.946C475.084 286.805 508.619 242.819 531.568 201.904C554.517 160.989 565.779 125.107 563.84 99.0848C561.901 73.0626 546.854 58.1479 520.722 56.3468C494.59 54.5457 458.627 65.9445 417.669 89.0101" stroke="url(#paint0_linear_5822_14366)" stroke-width="2"/>
    <path d="M165.035 351.407C145.883 390.773 138.98 423.896 145.256 446.321C151.531 468.746 170.683 479.397 200.136 476.842C229.59 474.287 267.931 458.649 310.004 432.029C352.076 405.41 395.863 369.087 435.473 327.946C475.084 286.805 508.619 242.819 531.568 201.904C554.517 160.989 565.779 125.107 563.84 99.0848C561.901 73.0626 546.854 58.1479 520.722 56.3468C494.59 54.5457 458.627 65.9445 417.669 89.0101" stroke="url(#paint1_radial_5822_14366)" stroke-width="2"/>
    <path d="M291.859 89.3858C250.56 65.8383 214.189 54.019 187.687 55.5333C161.185 57.0476 145.836 71.822 143.724 97.8499C141.613 123.878 152.843 159.897 175.887 201.016C198.931 242.134 232.673 286.359 272.531 327.682C312.388 369.006 356.427 405.425 398.668 431.993C440.909 458.561 479.302 473.99 508.634 476.185C537.966 478.379 556.814 467.233 562.619 444.259C568.423 421.285 560.902 387.598 541.078 347.774" stroke="url(#paint2_linear_5822_14366)" stroke-width="2"/>
    <path d="M291.859 89.3858C250.56 65.8383 214.189 54.019 187.687 55.5333C161.185 57.0476 145.836 71.822 143.724 97.8499C141.613 123.878 152.843 159.897 175.887 201.016C198.931 242.134 232.673 286.359 272.531 327.682C312.388 369.006 356.427 405.425 398.668 431.993C440.909 458.561 479.302 473.99 508.634 476.185C537.966 478.379 556.814 467.233 562.619 444.259C568.423 421.285 560.902 387.598 541.078 347.774" stroke="url(#paint3_radial_5822_14366)" stroke-width="2"/>
    <path d="M579.598 255.554C623.195 230.049 649.926 205.948 655.808 186.84C661.691 167.733 646.411 154.641 612.244 149.514C578.077 144.388 526.85 147.501 466.193 158.39C405.537 169.279 338.694 187.361 275.619 209.944C212.545 232.527 156.614 258.403 116.154 283.718C75.6941 309.032 52.8707 332.432 51.0826 350.432C49.2944 368.432 68.6372 380.069 106.23 383.611C143.823 387.152 197.656 382.409 259.711 370.086" stroke="url(#paint4_linear_5822_14366)" stroke-width="2"/>
    <path d="M151.786 253.892C105.168 224.902 73.8716 197.524 62.5571 175.837C51.2427 154.15 60.5158 139.313 88.9955 133.536C117.475 127.759 163.638 131.351 220.609 143.777C277.58 156.203 342.312 176.799 405.165 202.496C468.018 228.193 525.63 257.618 569.421 286.389C613.211 315.159 640.838 341.736 648.188 362.162C655.537 382.588 642.215 395.769 610.207 399.744C578.198 403.718 529.215 398.273 470.551 384.219" stroke="url(#paint5_linear_5822_14366)" stroke-width="2"/>
    <circle cx="354" cy="186" r="11" fill="black"/>
    <ellipse cx="80.5" cy="137" rx="9.5" ry="10" fill="black"/>
    <ellipse cx="354.5" cy="401" rx="10.5" ry="11" fill="#84FF81"/>
    <ellipse cx="558" cy="146.5" rx="10" ry="9.5" fill="black"/>
    <ellipse cx="503" cy="247.5" rx="10" ry="9.5" fill="black"/>
    <ellipse cx="230" cy="279.5" rx="10" ry="9.5" fill="black"/>
    <ellipse cx="151" cy="386.5" rx="10" ry="9.5" fill="black"/>
    <ellipse cx="624.5" cy="328.5" rx="9.5" ry="10.5" fill="black"/>
    <circle cx="496" cy="60.9995" r="10" fill="black"/>
    <ellipse cx="538.5" cy="471" rx="9.5" ry="10" fill="black"/>
    <defs>
        <linearGradient id="paint0_linear_5822_14366" x1="391.659" y1="371.956" x2="258.231" y2="241.987" gradientUnits="userSpaceOnUse">
            <stop/>
            <stop offset="1" stop-color="white"/>
        </linearGradient>
        <radialGradient id="paint1_radial_5822_14366" cx="0" cy="0" r="1" gradientUnits="userSpaceOnUse" gradientTransform="translate(353.998 400.999) rotate(-5.74229) scale(89.9514 248.328)">
            <stop stop-color="#84FF81"/>
            <stop offset="1" stop-color="#84FF81" stop-opacity="0"/>
        </radialGradient>
        <linearGradient id="paint2_linear_5822_14366" x1="248.731" y1="304.061" x2="378.7" y2="170.633" gradientUnits="userSpaceOnUse">
            <stop/>
            <stop offset="1" stop-color="white"/>
        </linearGradient>
        <radialGradient id="paint3_radial_5822_14366" cx="0" cy="0" r="1" gradientUnits="userSpaceOnUse" gradientTransform="translate(354 398.5) rotate(177.73) scale(113.589 313.585)">
            <stop stop-color="#84FF81"/>
            <stop offset="1" stop-color="#84FF81" stop-opacity="0"/>
        </radialGradient>
        <linearGradient id="paint4_linear_5822_14366" x1="302.623" y1="199.45" x2="356.881" y2="338.257" gradientUnits="userSpaceOnUse">
            <stop/>
            <stop offset="1" stop-color="white"/>
        </linearGradient>
        <linearGradient id="paint5_linear_5822_14366" x1="409.996" y1="203.275" x2="345.994" y2="337.867" gradientUnits="userSpaceOnUse">
            <stop/>
            <stop offset="1" stop-color="white"/>
        </linearGradient>
    </defs>
</svg>
