<svg width="1441" height="618" viewBox="0 0 1441 618" fill="none" xmlns="http://www.w3.org/2000/svg">
<path d="M1368.67 105C1368.67 114.604 1367.63 125.042 1360.84 131.834L1351.46 141.219C1344.66 148.014 1334.22 149.056 1324.61 149.056C1304.73 149.056 1288.61 165.173 1288.61 185.056C1288.61 204.938 1304.73 221.056 1324.61 221.056C1344.49 221.056 1360.61 204.938 1360.61 185.056C1360.61 175.434 1361.65 164.972 1368.45 158.167L1377.77 148.846C1384.57 142.038 1395.04 141 1404.67 141C1424.55 141 1440.67 124.882 1440.67 105C1440.67 85.1177 1424.55 69 1404.67 69C1384.78 69 1368.67 85.1177 1368.67 105Z" fill="#D6D1D9"/>
<path d="M924.501 141C904.619 141 888.501 124.882 888.501 105C888.501 85.1177 904.619 69 924.501 69C944.383 69 960.501 85.1177 960.501 105C960.501 124.882 944.383 141 924.501 141Z" fill="#1C1B24"/>
<path d="M400.506 131.835C407.295 125.042 408.335 114.604 408.335 105C408.335 85.1177 424.453 69 444.335 69C464.217 69 480.335 85.1177 480.335 105C480.335 124.882 464.217 141 444.335 141C434.708 141 424.241 142.038 417.435 148.846L408.119 158.167C401.317 164.972 400.281 175.434 400.281 185.056C400.281 195.888 401.017 207.873 408.675 215.535L413.847 220.709C421.508 228.373 433.499 229.111 444.335 229.111C464.217 229.111 480.335 245.229 480.335 265.111C480.335 284.994 464.217 301.111 444.335 301.111C424.453 301.111 408.335 284.994 408.335 265.111C408.335 256.788 407.092 247.9 401.208 242.014L387.391 228.19C381.503 222.3 372.609 221.056 364.281 221.056C344.398 221.056 328.281 204.938 328.281 185.056C328.281 165.173 344.398 149.056 364.281 149.056C373.889 149.056 384.333 148.014 391.126 141.219L400.506 131.835Z" fill="#D6D1D9"/>
<path d="M897.647 308.95C904.442 302.152 914.89 301.111 924.501 301.111C944.383 301.111 960.501 284.994 960.501 265.111C960.501 245.229 944.383 229.111 924.501 229.111C913.665 229.111 901.674 228.373 894.013 220.709L888.841 215.534C881.183 207.873 880.446 195.888 880.446 185.056C880.446 165.173 864.329 149.056 844.446 149.056C824.564 149.056 808.446 165.173 808.446 185.056C808.446 204.938 824.564 221.056 844.446 221.056C852.775 221.056 861.669 222.3 867.557 228.19L881.374 242.014C887.258 247.9 888.501 256.788 888.501 265.111C888.501 274.731 887.464 285.188 880.664 291.992L871.337 301.323C864.534 308.129 854.07 309.167 844.446 309.167C824.564 309.167 808.446 325.285 808.446 345.167C808.446 365.049 824.564 381.167 844.446 381.167C864.329 381.167 880.446 365.049 880.446 345.167C880.446 335.561 881.486 325.118 888.277 318.324L897.647 308.95Z" fill="#84FF81"/>
<path d="M1404.66 301.111C1395.05 301.111 1384.61 302.152 1377.81 308.95L1368.44 318.324C1361.65 325.119 1360.61 335.561 1360.61 345.167C1360.61 365.049 1344.49 381.167 1324.61 381.167C1304.73 381.167 1288.61 365.049 1288.61 345.167C1288.61 325.285 1304.73 309.167 1324.61 309.167C1334.23 309.167 1344.7 308.129 1351.5 301.323L1360.83 291.992C1367.63 285.189 1368.66 274.731 1368.66 265.111C1368.66 245.229 1384.78 229.111 1404.66 229.111C1424.55 229.111 1440.66 245.229 1440.66 265.111C1440.66 284.994 1424.55 301.111 1404.66 301.111Z" fill="#D6D1D9"/>
<path d="M1368.67 185C1368.67 204.882 1384.78 221 1404.67 221C1424.55 221 1440.67 204.882 1440.67 185C1440.67 165.118 1424.55 149 1404.67 149C1384.78 149 1368.67 165.118 1368.67 185Z" fill="#1C1B24"/>
<path d="M1404.67 381C1384.78 381 1368.67 364.882 1368.67 345C1368.67 325.118 1384.78 309 1404.67 309C1424.55 309 1440.67 325.118 1440.67 345C1440.67 364.882 1424.55 381 1404.67 381Z" fill="#1C1B24"/>
<path d="M1368.67 504C1368.67 523.882 1384.78 540 1404.67 540C1424.55 540 1440.67 523.882 1440.67 504C1440.67 484.118 1424.55 468 1404.67 468C1384.78 468 1368.67 484.118 1368.67 504Z" fill="#1C1B24"/>
<path d="M1321.32 304C1301.44 304 1285.32 287.882 1285.32 268C1285.32 248.118 1301.44 232 1321.32 232C1341.2 232 1357.32 248.118 1357.32 268C1357.32 287.882 1341.2 304 1321.32 304Z" fill="#1C1B24"/>
<path d="M1285.32 425C1285.32 444.882 1301.44 461 1321.32 461C1341.2 461 1357.32 444.882 1357.32 425C1357.32 405.118 1341.2 389 1321.32 389C1301.44 389 1285.32 405.118 1285.32 425Z" fill="#84FF81"/>
<path d="M1245 221C1225.12 221 1209 204.882 1209 185C1209 165.118 1225.12 149 1245 149C1264.88 149 1281 165.118 1281 185C1281 204.882 1264.88 221 1245 221Z" fill="#1C1B24"/>
<path d="M1209 345C1209 364.882 1225.12 381 1245 381C1264.88 381 1281 364.882 1281 345C1281 325.118 1264.88 309 1245 309C1225.12 309 1209 325.118 1209 345Z" fill="#84FF81"/>
<path d="M1245 540C1225.12 540 1209 523.882 1209 504C1209 484.118 1225.12 468 1245 468C1264.88 468 1281 484.118 1281 504C1281 523.882 1264.88 540 1245 540Z" fill="#1C1B24"/>
<path d="M1287.66 105C1287.66 124.882 1303.77 141 1323.66 141C1343.54 141 1359.66 124.882 1359.66 105C1359.66 85.1177 1343.54 69 1323.66 69C1303.77 69 1287.66 85.1177 1287.66 105Z" fill="#84FF81"/>
<path d="M1161.66 304C1141.77 304 1125.66 287.882 1125.66 268C1125.66 248.118 1141.77 232 1161.66 232C1181.54 232 1197.66 248.118 1197.66 268C1197.66 287.882 1181.54 304 1161.66 304Z" fill="#1C1B24"/>
<path d="M1125.66 425C1125.66 444.882 1141.77 461 1161.66 461C1181.54 461 1197.66 444.882 1197.66 425C1197.66 405.118 1181.54 389 1161.66 389C1141.77 389 1125.66 405.118 1125.66 425Z" fill="#84FF81"/>
<path d="M1085.33 221C1065.45 221 1049.33 204.882 1049.33 185C1049.33 165.118 1065.45 149 1085.33 149C1105.22 149 1121.33 165.118 1121.33 185C1121.33 204.882 1105.22 221 1085.33 221Z" fill="#84FF81"/>
<path d="M1049.33 345C1049.33 364.882 1065.45 381 1085.33 381C1105.22 381 1121.33 364.882 1121.33 345C1121.33 325.118 1105.22 309 1085.33 309C1065.45 309 1049.33 325.118 1049.33 345Z" fill="#84FF81"/>
<path d="M1085.33 540C1065.45 540 1049.33 523.882 1049.33 504C1049.33 484.118 1065.45 468 1085.33 468C1105.22 468 1121.33 484.118 1121.33 504C1121.33 523.882 1105.22 540 1085.33 540Z" fill="#84FF81"/>
<path d="M1127.99 105C1127.99 124.882 1144.11 141 1163.99 141C1183.87 141 1199.99 124.882 1199.99 105C1199.99 85.1177 1183.87 69 1163.99 69C1144.11 69 1127.99 85.1177 1127.99 105Z" fill="#84FF81"/>
<path d="M1001.99 304C982.108 304 965.99 287.882 965.99 268C965.99 248.118 982.108 232 1001.99 232C1021.87 232 1037.99 248.118 1037.99 268C1037.99 287.882 1021.87 304 1001.99 304Z" fill="#84FF81"/>
<path d="M965.99 425C965.99 444.882 982.108 461 1001.99 461C1021.87 461 1037.99 444.882 1037.99 425C1037.99 405.118 1021.87 389 1001.99 389C982.108 389 965.99 405.118 965.99 425Z" fill="#84FF81"/>
<path d="M925.67 221C905.788 221 889.67 204.882 889.67 185C889.67 165.118 905.788 149 925.67 149C945.552 149 961.67 165.118 961.67 185C961.67 204.882 945.552 221 925.67 221Z" fill="#D6D1D9"/>
<path d="M889.67 345C889.67 364.882 905.788 381 925.67 381C945.552 381 961.67 364.882 961.67 345C961.67 325.118 945.552 309 925.67 309C905.788 309 889.67 325.118 889.67 345Z" fill="#1C1B24"/>
<path d="M925.67 540C905.788 540 889.67 523.882 889.67 504C889.67 484.118 905.788 468 925.67 468C945.552 468 961.67 484.118 961.67 504C961.67 523.882 945.552 540 925.67 540Z" fill="#1C1B24"/>
<path d="M968.325 105C968.325 124.882 984.443 141 1004.33 141C1024.21 141 1040.33 124.882 1040.33 105C1040.33 85.1177 1024.21 69 1004.33 69C984.443 69 968.325 85.1177 968.325 105Z" fill="#84FF81"/>
<path d="M842.325 304C822.443 304 806.325 287.882 806.325 268C806.325 248.118 822.443 232 842.325 232C862.207 232 878.325 248.118 878.325 268C878.325 287.882 862.207 304 842.325 304Z" fill="#1C1B24"/>
<path d="M806.325 425C806.325 444.882 822.443 461 842.325 461C862.207 461 878.325 444.882 878.325 425C878.325 405.118 862.207 389 842.325 389C822.443 389 806.325 405.118 806.325 425Z" fill="#84FF81"/>
<path d="M766.005 221C746.123 221 730.005 204.882 730.005 185C730.005 165.118 746.123 149 766.005 149C785.887 149 802.005 165.118 802.005 185C802.005 204.882 785.887 221 766.005 221Z" fill="#84FF81"/>
<path d="M730.005 345C730.005 364.882 746.123 381 766.005 381C785.887 381 802.005 364.882 802.005 345C802.005 325.118 785.887 309 766.005 309C746.123 309 730.005 325.118 730.005 345Z" fill="#1C1B24"/>
<path d="M766.005 540C746.123 540 730.005 523.882 730.005 504C730.005 484.118 746.123 468 766.005 468C785.887 468 802.005 484.118 802.005 504C802.005 523.882 785.887 540 766.005 540Z" fill="#1C1B24"/>
<path d="M808.66 105C808.66 124.882 824.778 141 844.66 141C864.542 141 880.66 124.882 880.66 105C880.66 85.1177 864.542 69 844.66 69C824.778 69 808.66 85.1177 808.66 105Z" fill="#84FF81"/>
<path d="M682.66 304C662.778 304 646.66 287.882 646.66 268C646.66 248.118 662.778 232 682.66 232C702.542 232 718.66 248.118 718.66 268C718.66 287.882 702.542 304 682.66 304Z" fill="#1C1B24"/>
<path d="M646.66 425C646.66 444.882 662.778 461 682.66 461C702.542 461 718.66 444.882 718.66 425C718.66 405.118 702.542 389 682.66 389C662.778 389 646.66 405.118 646.66 425Z" fill="#1C1B24"/>
<path d="M606.34 221C586.458 221 570.34 204.882 570.34 185C570.34 165.118 586.458 149 606.34 149C626.222 149 642.34 165.118 642.34 185C642.34 204.882 626.222 221 606.34 221Z" fill="#84FF81"/>
<path d="M570.34 345C570.34 364.882 586.458 381 606.34 381C626.222 381 642.34 364.882 642.34 345C642.34 325.118 626.222 309 606.34 309C586.458 309 570.34 325.118 570.34 345Z" fill="#D6D1D9"/>
<path d="M606.34 540C586.458 540 570.34 523.882 570.34 504C570.34 484.118 586.458 468 606.34 468C626.222 468 642.34 484.118 642.34 504C642.34 523.882 626.222 540 606.34 540Z" fill="#D6D1D9"/>
<path d="M648.995 105C648.995 124.882 665.113 141 684.995 141C704.877 141 720.995 124.882 720.995 105C720.995 85.1177 704.877 69 684.995 69C665.113 69 648.995 85.1177 648.995 105Z" fill="#84FF81"/>
<path d="M522.995 304C503.113 304 486.995 287.882 486.995 268C486.995 248.118 503.113 232 522.995 232C542.877 232 558.995 248.118 558.995 268C558.995 287.882 542.877 304 522.995 304Z" fill="#84FF81"/>
<path d="M486.995 425C486.995 444.882 503.113 461 522.995 461C542.877 461 558.995 444.882 558.995 425C558.995 405.118 542.877 389 522.995 389C503.113 389 486.995 405.118 486.995 425Z" fill="#D6D1D9"/>
<path d="M446.675 221C426.793 221 410.675 204.882 410.675 185C410.675 165.118 426.793 149 446.675 149C466.557 149 482.675 165.118 482.675 185C482.675 204.882 466.557 221 446.675 221Z" fill="#1C1B24"/>
<path d="M410.675 345C410.675 364.882 426.793 381 446.675 381C466.557 381 482.675 364.882 482.675 345C482.675 325.118 466.557 309 446.675 309C426.793 309 410.675 325.118 410.675 345Z" fill="#1B1B1B"/>
<path d="M446.675 540C426.793 540 410.675 523.882 410.675 504C410.675 484.118 426.793 468 446.675 468C466.557 468 482.675 484.118 482.675 504C482.675 523.882 466.557 540 446.675 540Z" fill="#1C1B24"/>
<path d="M489.33 105C489.33 124.882 505.448 141 525.33 141C545.212 141 561.33 124.882 561.33 105C561.33 85.1177 545.212 69 525.33 69C505.448 69 489.33 85.1177 489.33 105Z" fill="#D6D1D9"/>
<path d="M363.33 304C343.448 304 327.33 287.882 327.33 268C327.33 248.118 343.448 232 363.33 232C383.212 232 399.33 248.118 399.33 268C399.33 287.882 383.212 304 363.33 304Z" fill="#84FF81"/>
<path d="M327.33 425C327.33 444.882 343.448 461 363.33 461C383.212 461 399.33 444.882 399.33 425C399.33 405.118 383.212 389 363.33 389C343.448 389 327.33 405.118 327.33 425Z" fill="#D6D1D9"/>
<path d="M287.01 221C267.128 221 251.01 204.882 251.01 185C251.01 165.118 267.128 149 287.01 149C306.892 149 323.01 165.118 323.01 185C323.01 204.882 306.892 221 287.01 221Z" fill="#D6D1D9"/>
<path d="M251.01 345C251.01 364.882 267.128 381 287.01 381C306.892 381 323.01 364.882 323.01 345C323.01 325.118 306.892 309 287.01 309C267.128 309 251.01 325.118 251.01 345Z" fill="#1C1B24"/>
<path d="M287.01 540C267.128 540 251.01 523.882 251.01 504C251.01 484.118 267.128 468 287.01 468C306.892 468 323.01 484.118 323.01 504C323.01 523.882 306.892 540 287.01 540Z" fill="#1C1B24"/>
<path d="M329.665 105C329.665 124.882 345.783 141 365.665 141C385.547 141 401.665 124.882 401.665 105C401.665 85.1177 385.547 69 365.665 69C345.783 69 329.665 85.1177 329.665 105Z" fill="#D6D1D9"/>
<path d="M203.665 304C183.783 304 167.665 287.882 167.665 268C167.665 248.118 183.783 232 203.665 232C223.547 232 239.665 248.118 239.665 268C239.665 287.882 223.547 304 203.665 304Z" fill="#84FF81"/>
<path d="M167.665 425C167.665 444.882 183.783 461 203.665 461C223.547 461 239.665 444.882 239.665 425C239.665 405.118 223.547 389 203.665 389C183.783 389 167.665 405.118 167.665 425Z" fill="#1C1B24"/>
<path d="M127.345 221C107.463 221 91.3447 204.882 91.3447 185C91.3447 165.118 107.463 149 127.345 149C147.227 149 163.345 165.118 163.345 185C163.345 204.882 147.227 221 127.345 221Z" fill="#84FF81"/>
<path d="M91.3447 345C91.3447 364.882 107.463 381 127.345 381C147.227 381 163.345 364.882 163.345 345C163.345 325.118 147.227 309 127.345 309C107.463 309 91.3447 325.118 91.3447 345Z" fill="#1C1B24"/>
<path d="M127.345 540C107.463 540 91.3447 523.882 91.3447 504C91.3447 484.118 107.463 468 127.345 468C147.227 468 163.345 484.118 163.345 504C163.345 523.882 147.227 540 127.345 540Z" fill="#84FF81"/>
<path d="M170 105C170 124.882 186.118 141 206 141C225.882 141 242 124.882 242 105C242 85.1177 225.882 69 206 69C186.118 69 170 85.1177 170 105Z" fill="#84FF81"/>
<path d="M44 304C24.1178 304 8 287.882 8 268C8 248.118 24.1178 232 44 232C63.8822 232 80 248.118 80 268C80 287.882 63.8822 304 44 304Z" fill="#84FF81"/>
<path d="M8 425C8 444.882 24.1178 461 44 461C63.8822 461 80 444.882 80 425C80 405.118 63.8822 389 44 389C24.1178 389 8 405.118 8 425Z" fill="#84FF81"/>
<path d="M328.281 345.167C328.281 365.049 344.398 381.167 364.281 381.167C384.163 381.167 400.281 365.049 400.281 345.167C400.281 325.285 384.163 309.167 364.281 309.167C344.398 309.167 328.281 325.285 328.281 345.167Z" fill="#84FF81"/>
<path d="M364.281 539.944C344.398 539.944 328.281 523.827 328.281 503.944C328.281 484.062 344.398 467.944 364.281 467.944C373.904 467.944 384.368 466.906 391.172 460.1L400.787 450.48C407.196 444.068 408.335 434.288 408.335 425.223C408.335 405.341 424.453 389.223 444.335 389.223C464.217 389.223 480.335 405.341 480.335 425.223C480.335 445.105 464.217 461.223 444.335 461.223C434.184 461.223 423.063 462.144 415.886 469.323L408.111 477.102C401.32 483.896 400.281 494.338 400.281 503.944C400.281 523.827 384.163 539.944 364.281 539.944Z" fill="#D6D1D9"/>
<path d="M808.446 503.944C808.446 523.827 824.564 539.944 844.446 539.944C864.329 539.944 880.446 523.827 880.446 503.944C880.446 484.062 864.329 467.944 844.446 467.944C824.564 467.944 808.446 484.062 808.446 503.944Z" fill="#84FF81"/>
<path d="M1324.61 539.944C1304.73 539.944 1288.61 523.827 1288.61 503.944C1288.61 484.062 1304.73 467.944 1324.61 467.944C1334.23 467.944 1344.7 466.906 1351.5 460.1L1361.12 450.48C1367.53 444.068 1368.67 434.288 1368.67 425.223C1368.67 405.341 1384.78 389.223 1404.67 389.223C1424.55 389.223 1440.67 405.341 1440.67 425.223C1440.67 445.105 1424.55 461.223 1404.67 461.223C1394.51 461.223 1383.39 462.144 1376.22 469.323L1368.44 477.102C1361.65 483.896 1360.61 494.338 1360.61 503.944C1360.61 523.827 1344.49 539.944 1324.61 539.944Z" fill="#D6D1D9"/>
<path d="M924.501 461.223C904.619 461.223 888.501 445.105 888.501 425.223C888.501 405.341 904.619 389.223 924.501 389.223C944.383 389.223 960.501 405.341 960.501 425.223C960.501 445.105 944.383 461.223 924.501 461.223Z" fill="#1C1B24"/>
<path d="M284.222 141C264.34 141 248.222 124.882 248.222 105C248.222 85.1177 264.34 69 284.222 69C304.104 69 320.222 85.1177 320.222 105C320.222 124.882 304.104 141 284.222 141Z" fill="#84FF81"/>
<path d="M737.488 148.846C744.293 142.038 754.761 141 764.388 141C784.27 141 800.388 124.882 800.388 105C800.388 85.1177 784.27 69 764.388 69C744.505 69 728.388 85.1177 728.388 105C728.388 114.604 727.348 125.042 720.559 131.834L711.178 141.219C704.386 148.014 693.941 149.056 684.333 149.056C664.451 149.056 648.333 165.173 648.333 185.056C648.333 204.938 664.451 221.056 684.333 221.056C692.661 221.056 701.556 222.3 707.444 228.19L721.261 242.014C727.145 247.9 728.388 256.788 728.388 265.111C728.388 284.994 744.505 301.111 764.388 301.111C784.27 301.111 800.388 284.994 800.388 265.111C800.388 245.229 784.27 229.111 764.388 229.111C753.551 229.111 741.56 228.373 733.9 220.709L728.727 215.534C721.069 207.873 720.333 195.888 720.333 185.056C720.333 175.434 721.369 164.972 728.172 158.167L737.488 148.846Z" fill="#D6D1D9"/>
<path d="M1244.55 141C1234.93 141 1224.46 142.038 1217.65 148.846L1208.34 158.167C1201.53 164.972 1200.5 175.434 1200.5 185.056C1200.5 195.888 1201.23 207.873 1208.89 215.534L1214.06 220.709C1221.72 228.373 1233.72 229.111 1244.55 229.111C1264.43 229.111 1280.55 245.229 1280.55 265.111C1280.55 284.994 1264.43 301.111 1244.55 301.111C1224.67 301.111 1208.55 284.994 1208.55 265.111C1208.55 256.788 1207.31 247.9 1201.43 242.014L1187.61 228.19C1181.72 222.3 1172.83 221.056 1164.5 221.056C1144.61 221.056 1128.5 204.938 1128.5 185.056C1128.5 165.173 1144.61 149.056 1164.5 149.056C1174.11 149.056 1184.55 148.014 1191.34 141.219L1200.72 131.834C1207.51 125.042 1208.55 114.604 1208.55 105C1208.55 85.1177 1224.67 69 1244.55 69C1264.43 69 1280.55 85.1177 1280.55 105C1280.55 124.882 1264.43 141 1244.55 141Z" fill="#D6D1D9"/>
<path d="M257.415 308.942C264.199 302.155 274.627 301.111 284.222 301.111C304.104 301.111 320.222 284.994 320.222 265.111C320.222 245.229 304.104 229.111 284.222 229.111C273.386 229.111 261.395 228.373 253.734 220.709L248.562 215.535C240.904 207.873 240.167 195.888 240.167 185.056C240.167 165.173 224.05 149.056 204.167 149.056C184.285 149.056 168.167 165.173 168.167 185.056C168.167 204.938 184.285 221.056 204.167 221.056C212.496 221.056 221.39 222.3 227.277 228.19L241.096 242.014C246.979 247.901 248.222 256.788 248.222 265.111C248.222 274.746 247.189 285.224 240.377 292.039L231.105 301.314C224.291 308.132 213.807 309.167 204.167 309.167C184.285 309.167 168.167 325.285 168.167 345.167C168.167 365.049 184.285 381.167 204.167 381.167C224.05 381.167 240.167 365.049 240.167 345.167C240.167 335.577 241.21 325.154 247.99 318.371L257.415 308.942Z" fill="#1C1B24"/>
<path d="M648.333 345.167C648.333 365.049 664.451 381.167 684.333 381.167C704.215 381.167 720.333 365.049 720.333 345.167C720.333 325.285 704.215 309.167 684.333 309.167C674.287 309.167 663.298 308.221 656.197 301.116L648.321 293.238C641.223 286.136 640.278 275.153 640.278 265.111C640.278 245.229 624.161 229.111 604.278 229.111C584.396 229.111 568.278 245.229 568.278 265.111C568.278 284.994 584.396 301.111 604.278 301.111C613.459 301.111 623.379 302.233 629.869 308.726L640.726 319.588C647.213 326.077 648.333 335.991 648.333 345.167Z" fill="#D6D1D9"/>
<path d="M1164.5 381.167C1144.61 381.167 1128.5 365.049 1128.5 345.167C1128.5 336.844 1127.25 327.956 1121.37 322.069L1107.55 308.246C1101.67 302.355 1092.77 301.111 1084.44 301.111C1074.83 301.111 1064.38 302.152 1057.59 308.95L1048.22 318.324C1041.43 325.118 1040.39 335.561 1040.39 345.167C1040.39 365.049 1024.27 381.167 1004.39 381.167C984.505 381.167 968.388 365.049 968.388 345.167C968.388 325.285 984.505 309.167 1004.39 309.167C1014.01 309.167 1024.48 308.129 1031.28 301.322L1040.61 291.992C1047.41 285.188 1048.44 274.731 1048.44 265.111C1048.44 245.229 1064.56 229.111 1084.44 229.111C1104.32 229.111 1120.44 245.229 1120.44 265.111C1120.44 275.944 1121.18 287.929 1128.84 295.59L1134.01 300.765C1141.67 308.429 1153.66 309.167 1164.5 309.167C1184.38 309.167 1200.5 325.285 1200.5 345.167C1200.5 365.049 1184.38 381.167 1164.5 381.167Z" fill="#D6D1D9"/>
<path d="M204.167 539.944C184.285 539.944 168.167 523.827 168.167 503.944C168.167 484.062 184.285 467.944 204.167 467.944C213.791 467.944 224.256 466.906 231.059 460.099L240.674 450.48C247.083 444.068 248.222 434.288 248.222 425.223C248.222 405.341 264.34 389.223 284.222 389.223C304.104 389.223 320.222 405.341 320.222 425.223C320.222 445.105 304.104 461.223 284.222 461.223C274.071 461.223 262.95 462.144 255.773 469.323L247.998 477.102C241.207 483.896 240.167 494.338 240.167 503.944C240.167 523.827 224.05 539.944 204.167 539.944Z" fill="#84FF81"/>
<path d="M648.333 503.944C648.333 523.827 664.451 539.944 684.333 539.944C704.215 539.944 720.333 523.827 720.333 503.944C720.333 494.338 721.372 483.896 728.164 477.102L735.938 469.323C743.115 462.144 754.236 461.223 764.388 461.223C784.27 461.223 800.388 445.105 800.388 425.223C800.388 405.341 784.27 389.223 764.388 389.223C744.505 389.223 728.388 405.341 728.388 425.223C728.388 434.288 727.249 444.068 720.84 450.48L711.224 460.1C704.421 466.906 693.957 467.944 684.333 467.944C664.451 467.944 648.333 484.062 648.333 503.944Z" fill="#D6D1D9"/>
<path d="M1164.5 539.944C1144.61 539.944 1128.5 523.827 1128.5 503.944C1128.5 484.062 1144.61 467.944 1164.5 467.944C1174.12 467.944 1184.58 466.906 1191.39 460.1L1201 450.48C1207.41 444.068 1208.55 434.288 1208.55 425.223C1208.55 405.341 1224.67 389.223 1244.55 389.223C1264.43 389.223 1280.55 405.341 1280.55 425.223C1280.55 445.105 1264.43 461.223 1244.55 461.223C1234.4 461.223 1223.28 462.144 1216.1 469.323L1208.33 477.102C1201.54 483.896 1200.5 494.338 1200.5 503.944C1200.5 523.827 1184.38 539.944 1164.5 539.944Z" fill="#D6D1D9"/>
<path d="M80.2835 131.835C87.0727 125.042 88.1127 114.604 88.1127 105C88.1127 85.1177 104.23 69 124.113 69C143.995 69 160.113 85.1177 160.113 105C160.113 124.882 143.995 141 124.113 141C114.486 141 104.019 142.038 97.2132 148.846L87.8964 158.167C81.0941 164.972 80.058 175.434 80.058 185.056C80.058 204.938 63.9402 221.056 44.058 221.056C24.1758 221.056 8.05798 204.938 8.05798 185.056C8.05798 165.173 24.1758 149.056 44.058 149.056C53.6662 149.056 64.1109 148.014 70.9035 141.219L80.2835 131.835Z" fill="#1C1B24"/>
<path d="M568.278 105C568.278 114.604 567.238 125.042 560.449 131.834L551.069 141.219C544.276 148.014 533.832 149.056 524.224 149.056C504.341 149.056 488.224 165.173 488.224 185.056C488.224 204.938 504.341 221.056 524.224 221.056C544.106 221.056 560.224 204.938 560.224 185.056C560.224 175.434 561.26 164.972 568.062 158.167L577.378 148.846C584.184 142.038 594.652 141 604.278 141C624.161 141 640.278 124.882 640.278 105C640.278 85.1177 624.161 69 604.278 69C584.396 69 568.278 85.1177 568.278 105Z" fill="#1C1B24"/>
<path d="M1040.61 131.834C1047.4 125.042 1048.44 114.604 1048.44 105C1048.44 85.1177 1064.56 69 1084.44 69C1104.32 69 1120.44 85.1177 1120.44 105C1120.44 124.882 1104.32 141 1084.44 141C1074.82 141 1064.35 142.038 1057.54 148.846L1048.23 158.167C1041.42 164.972 1040.39 175.434 1040.39 185.056C1040.39 204.938 1024.27 221.056 1004.39 221.056C984.505 221.056 968.388 204.938 968.388 185.056C968.388 165.173 984.505 149.056 1004.39 149.056C1014 149.056 1024.44 148.014 1031.23 141.219L1040.61 131.834Z" fill="#1C1B24"/>
<path d="M8.05798 345.167C8.05798 365.049 24.1758 381.167 44.058 381.167C50.1045 381.167 56.3689 382.499 60.6434 386.776L82.5126 408.655C86.7824 412.926 88.1127 419.183 88.1127 425.223C88.1127 434.889 87.0857 445.406 80.2519 452.243L72.6812 459.817C65.4631 467.038 54.2681 467.944 44.058 467.944C24.1758 467.944 8.05798 484.062 8.05798 503.944C8.05798 523.827 24.1758 539.944 44.058 539.944C63.9402 539.944 80.058 523.827 80.058 503.944C80.058 494.941 81.207 485.236 87.5721 478.868L97.3985 469.037C104.159 462.273 114.549 461.223 124.113 461.223C143.995 461.223 160.113 445.105 160.113 425.223C160.113 405.341 143.995 389.223 124.113 389.223C123.852 389.223 123.592 389.226 123.333 389.231C111.093 389.491 97.1918 389.392 88.5365 380.732C79.8859 372.078 79.7878 358.186 80.0496 345.952C80.0552 345.691 80.058 345.43 80.058 345.167C80.058 335.561 81.0973 325.119 87.8885 318.325L97.2594 308.95C104.054 302.152 114.502 301.111 124.113 301.111C143.995 301.111 160.113 284.994 160.113 265.111C160.113 245.229 143.995 229.111 124.113 229.111C104.23 229.111 88.1127 245.229 88.1127 265.111C88.1127 274.731 87.076 285.189 80.2756 291.992L70.9494 301.322C64.1458 308.129 53.6818 309.167 44.058 309.167C24.1758 309.167 8.05798 325.285 8.05798 345.167Z" fill="#D6D1D9"/>
<path d="M524.224 381.167C504.341 381.167 488.224 365.049 488.224 345.167C488.224 325.285 504.341 309.167 524.224 309.167C544.106 309.167 560.224 325.285 560.224 345.167C560.224 356.384 560.842 368.867 568.772 376.801L572.636 380.667C580.569 388.603 593.057 389.223 604.278 389.223C624.161 389.223 640.278 405.341 640.278 425.223C640.278 445.105 624.161 461.223 604.278 461.223C594.715 461.223 584.325 462.273 577.564 469.037L567.738 478.868C561.373 485.236 560.224 494.941 560.224 503.944C560.224 523.827 544.106 539.944 524.224 539.944C504.341 539.944 488.224 523.827 488.224 503.944C488.224 484.062 504.341 467.944 524.224 467.944C534.434 467.944 545.628 467.038 552.846 459.817L560.418 452.242C567.251 445.406 568.278 434.889 568.278 425.223C568.278 417.338 566.992 408.969 561.418 403.392L546.068 388.035C540.49 382.455 532.114 381.167 524.224 381.167Z" fill="#84FF81"/>
<path d="M1004.39 539.944C984.505 539.944 968.388 523.827 968.388 503.944C968.388 484.062 984.505 467.944 1004.39 467.944C1014.6 467.944 1025.79 467.038 1033.01 459.817L1040.58 452.242C1047.42 445.406 1048.44 434.889 1048.44 425.223C1048.44 405.341 1064.56 389.223 1084.44 389.223C1104.32 389.223 1120.44 405.341 1120.44 425.223C1120.44 445.105 1104.32 461.223 1084.44 461.223C1074.88 461.223 1064.49 462.273 1057.73 469.037L1047.9 478.867C1041.54 485.236 1040.39 494.941 1040.39 503.944C1040.39 523.827 1024.27 539.944 1004.39 539.944Z" fill="#1C1B24"/>
</svg>
