<svg width="708" height="531" viewBox="0 0 708 531" fill="none" xmlns="http://www.w3.org/2000/svg">
<rect x="245" y="208.857" width="246" height="119" rx="59.5" fill="#84FF81"/>
<rect x="371" y="78.8574" width="246" height="120" rx="60" fill="#D6D1D9"/>
<path d="M496.244 492.857L464 451.857L525 451.857L496.244 492.857Z" fill="black"/>
<path d="M242.757 37.8574L275 78.8574L214 78.8574L242.757 37.8574Z" fill="#84FF81"/>
<path d="M77 332.101L118 299.857L118 360.857L77 332.101Z" fill="#D6D1D9"/>
<rect x="498" y="208.857" width="119" height="119" rx="59.5" fill="#84FF81"/>
<rect x="498" y="78.8574" width="119" height="120" rx="59.5" fill="black"/>
<rect x="371" y="208.857" width="120" height="119" rx="59.5" fill="#D6D1D9"/>
<rect x="118" y="78.8574" width="246" height="119" rx="59.5" fill="#84FF81"/>
<rect x="118" y="208.857" width="120" height="243" rx="60" fill="#D6D1D9"/>
<rect x="178" y="125.857" width="26" height="26" rx="13" fill="black"/>
<rect x="232" y="125.857" width="26" height="26" rx="13" fill="black"/>
<rect x="286" y="125.857" width="26" height="26" rx="13" fill="black"/>
<rect x="371" y="332.857" width="246" height="119" rx="59.5" fill="black"/>
<rect x="427" y="379.857" width="26" height="26" rx="13" stroke="#84FF81" stroke-width="2" stroke-dasharray="8 8"/>
<rect x="481" y="379.857" width="26" height="26" rx="13" stroke="#84FF81" stroke-width="2" stroke-dasharray="8 8"/>
<rect x="535" y="379.857" width="26" height="26" rx="13" stroke="#84FF81" stroke-width="2" stroke-dasharray="8 8"/>
<rect x="245" y="332.857" width="119" height="119" rx="59.5" fill="black"/>
<rect x="118" y="332.857" width="120" height="119" rx="59.5" fill="#84FF81"/>
<path d="M312 258.356L339.5 285.856L367 258.356L394.5 285.856L422 258.356" stroke="black" stroke-width="8" stroke-linecap="round"/>
<path d="M440 241.856L403 254.22L426.617 275.856L440 241.856Z" fill="black"/>
<rect x="209" y="245.857" width="169" height="62" rx="31" transform="rotate(90 209 245.857)" stroke="black" stroke-width="2" stroke-dasharray="8 8"/>
</svg>
