<svg width="708" height="531" viewBox="0 0 708 531" fill="none" xmlns="http://www.w3.org/2000/svg">
<rect x="349" y="69.8574" width="62.0383" height="62.0383" rx="31.0192" stroke="black" stroke-width="2" stroke-dasharray="8 8"/>
<rect x="427" y="69.8574" width="167" height="62" rx="31" fill="#D6D1D9"/>
<rect x="532.434" y="69.8577" width="62.0383" height="62.0383" rx="31.0192" fill="#84FF81"/>
<rect x="349" y="152.126" width="62.0383" height="62.0383" rx="31.0192" fill="#84FF81"/>
<rect x="429" y="151.857" width="164" height="62" rx="31" fill="#84FF81"/>
<rect x="113" y="234.394" width="62.0383" height="62.0383" rx="31.0192" fill="#D6D1D9"/>
<rect x="278" y="234.857" width="234" height="62" rx="31" fill="#D6D1D9"/>
<rect x="450" y="234.394" width="62.0383" height="62.0383" rx="31.0192" fill="black"/>
<rect x="278" y="234.394" width="62.0383" height="62.0383" rx="31.0192" fill="black"/>
<path fill-rule="evenodd" clip-rule="evenodd" d="M195 265.877C195 248.745 208.888 234.857 226.019 234.857C243.151 234.857 257.038 248.745 257.038 265.877C257.038 283.008 243.151 296.896 226.019 296.896C214.799 296.896 201.981 296.744 193.952 304.581L183.156 315.12C174.878 323.201 175.038 336.577 175.038 348.145C175.038 365.276 161.151 379.164 144.019 379.164C126.888 379.164 113 365.276 113 348.145C113 331.013 126.888 317.126 144.019 317.126C154.734 317.126 166.862 317.052 174.529 309.567L187.003 297.391C194.933 289.649 195 276.959 195 265.877Z" fill="#84FF81"/>
<rect x="193.92" y="319.359" width="230.828" height="56.6437" rx="28.3218" stroke="#84FF81" stroke-width="5.39464"/>
<path fill-rule="evenodd" clip-rule="evenodd" d="M532 265.413C532 248.282 545.888 234.394 563.019 234.394C580.151 234.394 594.038 248.282 594.038 265.413C594.038 282.544 580.151 296.432 563.019 296.432C551.799 296.432 538.981 296.28 530.952 304.118L520.156 314.657C511.878 322.737 512.038 336.113 512.038 347.681C512.038 364.813 498.151 378.7 481.019 378.7C463.888 378.7 450 364.813 450 347.681C450 330.55 463.888 316.662 481.019 316.662C491.734 316.662 503.862 316.588 511.529 309.104L524.003 296.927C531.933 289.185 532 276.496 532 265.413Z" fill="black"/>
<rect x="532" y="316.662" width="62.0383" height="62.0383" rx="31.0192" fill="#D6D1D9"/>
<rect x="113" y="398.93" width="236.223" height="62.0383" rx="31.0192" stroke="black" stroke-width="2" stroke-dasharray="8 8"/>
<rect x="113" y="398.93" width="62.0383" height="62.0383" rx="31.0192" fill="black"/>
<rect x="365.406" y="398.93" width="62.0383" height="62.0383" rx="31.0192" fill="#D6D1D9"/>
<rect x="450" y="398.93" width="62.0383" height="62.0383" rx="31.0192" fill="black"/>
<rect x="532" y="398.93" width="62.0383" height="62.0383" rx="31.0192" fill="#84FF81"/>
<path d="M202.172 211.467H122.441V185.384H202.172V211.467Z" fill="black"/>
<path d="M309.905 136.616L220.953 187.528V152.357L264.201 128.749V126.951L220.953 103.357V69.8574L309.905 118.184V136.616Z" fill="black"/>
</svg>
