<svg width="708" height="531" viewBox="0 0 708 531" fill="none" xmlns="http://www.w3.org/2000/svg">
<mask id="path-1-inside-1_5822_14385" fill="white">
<path fill-rule="evenodd" clip-rule="evenodd" d="M169.039 421.145C169.039 438.276 155.151 452.164 138.02 452.164C120.888 452.164 107.001 438.276 107.001 421.145C107.001 404.013 120.888 390.126 138.02 390.126C149.24 390.126 162.058 390.277 170.087 382.44L180.883 371.901C189.161 363.821 189.001 350.444 189.001 338.877C189.001 321.745 202.888 307.857 220.02 307.857C237.151 307.857 251.039 321.745 251.039 338.877C251.039 356.008 237.151 369.896 220.02 369.896C209.305 369.896 197.177 369.969 189.51 377.454L177.036 389.631C169.106 397.373 169.039 410.062 169.039 421.145Z"/>
</mask>
<path d="M177.036 389.631L176.338 388.915L177.036 389.631ZM180.883 371.901L181.581 372.617L180.883 371.901ZM138.02 453.164C139.436 453.164 140.832 453.072 142.201 452.893L141.942 450.91C140.659 451.078 139.35 451.164 138.02 451.164V453.164ZM150.277 450.734C152.88 449.654 155.31 448.241 157.513 446.548L156.295 444.963C154.229 446.55 151.951 447.875 149.511 448.887L150.277 450.734ZM163.423 440.638C165.116 438.435 166.529 436.005 167.609 433.402L165.762 432.636C164.75 435.076 163.425 437.354 161.838 439.42L163.423 440.638ZM169.768 425.326C169.947 423.957 170.039 422.561 170.039 421.145H168.039C168.039 422.475 167.953 423.784 167.785 425.067L169.768 425.326ZM170.039 421.145C170.039 419.773 170.04 418.381 170.057 416.979L168.057 416.955C168.04 418.371 168.039 419.773 168.039 421.145H170.039ZM170.446 408.719C170.715 405.94 171.158 403.232 171.887 400.685L169.964 400.134C169.192 402.832 168.732 405.666 168.456 408.527L170.446 408.719ZM175.189 393.394C175.927 392.308 176.77 391.288 177.735 390.347L176.338 388.915C175.273 389.955 174.344 391.079 173.535 392.27L175.189 393.394ZM177.735 390.347L180.853 387.302L179.456 385.871L176.338 388.915L177.735 390.347ZM187.09 381.214L190.208 378.17L188.811 376.739L185.693 379.783L187.09 381.214ZM190.208 378.17C191.139 377.262 192.14 376.467 193.2 375.771L192.103 374.099C190.94 374.862 189.838 375.736 188.811 376.739L190.208 378.17ZM200.27 372.653C202.736 371.961 205.348 371.54 208.028 371.285L207.838 369.294C205.078 369.557 202.342 369.994 199.73 370.727L200.27 372.653ZM215.999 370.913C217.351 370.897 218.694 370.896 220.02 370.896V368.896C218.694 368.896 217.34 368.897 215.975 368.913L215.999 370.913ZM220.02 370.896C221.436 370.896 222.832 370.804 224.201 370.625L223.942 368.642C222.659 368.809 221.35 368.896 220.02 368.896V370.896ZM232.277 368.466C234.88 367.386 237.31 365.973 239.513 364.28L238.295 362.694C236.229 364.282 233.951 365.606 231.511 366.618L232.277 368.466ZM245.423 358.37C247.116 356.167 248.529 353.737 249.609 351.133L247.762 350.367C246.75 352.807 245.425 355.085 243.838 357.151L245.423 358.37ZM251.768 343.057C251.947 341.689 252.039 340.293 252.039 338.877H250.039C250.039 340.206 249.953 341.515 249.785 342.799L251.768 343.057ZM252.039 338.877C252.039 337.46 251.947 336.065 251.768 334.696L249.785 334.955C249.953 336.238 250.039 337.547 250.039 338.877H252.039ZM249.609 326.62C248.529 324.016 247.116 321.586 245.423 319.383L243.838 320.602C245.425 322.668 246.75 324.946 247.762 327.386L249.609 326.62ZM239.513 313.473C237.31 311.78 234.88 310.367 232.277 309.287L231.511 311.135C233.951 312.147 236.229 313.471 238.295 315.059L239.513 313.473ZM224.201 307.128C222.832 306.949 221.436 306.857 220.02 306.857V308.857C221.35 308.857 222.659 308.944 223.942 309.111L224.201 307.128ZM220.02 306.857C218.603 306.857 217.208 306.949 215.839 307.128L216.098 309.111C217.381 308.944 218.69 308.857 220.02 308.857V306.857ZM207.763 309.287C205.159 310.367 202.73 311.78 200.527 313.473L201.745 315.059C203.811 313.471 206.089 312.147 208.529 311.135L207.763 309.287ZM194.616 319.383C192.924 321.586 191.51 324.016 190.431 326.62L192.278 327.386C193.29 324.946 194.615 322.668 196.202 320.602L194.616 319.383ZM188.271 334.696C188.093 336.065 188.001 337.46 188.001 338.877H190.001C190.001 337.547 190.087 336.238 190.255 334.955L188.271 334.696ZM188.001 338.877C188.001 340.312 188.003 341.769 187.992 343.239L189.992 343.255C190.003 341.774 190.001 340.308 190.001 338.877H188.001ZM187.645 351.892C187.392 354.807 186.96 357.649 186.227 360.322L188.156 360.851C188.93 358.027 189.377 355.059 189.638 352.065L187.645 351.892ZM182.84 367.988C182.074 369.129 181.195 370.199 180.184 371.186L181.581 372.617C182.695 371.53 183.662 370.352 184.501 369.102L182.84 367.988ZM180.184 371.186L177.485 373.82L178.882 375.251L181.581 372.617L180.184 371.186ZM172.087 379.09L169.389 381.724L170.786 383.156L173.485 380.521L172.087 379.09ZM169.389 381.724C168.411 382.679 167.358 383.51 166.24 384.234L167.327 385.912C168.551 385.12 169.709 384.207 170.786 383.156L169.389 381.724ZM158.784 387.44C156.189 388.136 153.438 388.547 150.62 388.788L150.79 390.781C153.686 390.533 156.56 390.108 159.302 389.372L158.784 387.44ZM142.243 389.117C140.821 389.128 139.412 389.126 138.02 389.126V391.126C139.407 391.126 140.827 391.128 142.258 391.117L142.243 389.117ZM138.02 389.126C136.603 389.126 135.208 389.218 133.839 389.396L134.098 391.38C135.381 391.212 136.69 391.126 138.02 391.126V389.126ZM125.763 391.556C123.159 392.635 120.73 394.049 118.527 395.741L119.745 397.327C121.811 395.74 124.089 394.415 126.529 393.403L125.763 391.556ZM112.616 401.652C110.924 403.855 109.51 406.284 108.431 408.888L110.278 409.654C111.29 407.214 112.615 404.936 114.202 402.87L112.616 401.652ZM106.271 416.964C106.093 418.333 106.001 419.728 106.001 421.145H108.001C108.001 419.815 108.087 418.506 108.255 417.223L106.271 416.964ZM106.001 421.145C106.001 422.561 106.093 423.957 106.271 425.326L108.255 425.067C108.087 423.784 108.001 422.475 108.001 421.145H106.001ZM108.431 433.402C109.51 436.005 110.924 438.435 112.616 440.638L114.202 439.42C112.615 437.354 111.29 435.076 110.278 432.636L108.431 433.402ZM118.527 446.548C120.73 448.241 123.159 449.654 125.763 450.734L126.529 448.887C124.089 447.875 121.811 446.55 119.745 444.963L118.527 446.548ZM133.839 452.893C135.208 453.072 136.603 453.164 138.02 453.164V451.164C136.69 451.164 135.381 451.078 134.098 450.91L133.839 452.893ZM177.036 389.631L175.639 388.2L177.036 389.631ZM180.883 371.901L182.28 373.332L180.883 371.901ZM138.02 454.164C139.48 454.164 140.918 454.069 142.33 453.885L141.813 449.919C140.572 450.08 139.306 450.164 138.02 450.164V454.164ZM150.66 451.658C153.345 450.544 155.851 449.087 158.123 447.341L155.685 444.17C153.688 445.705 151.486 446.985 149.128 447.963L150.66 451.658ZM164.216 441.248C165.962 438.976 167.419 436.47 168.533 433.785L164.838 432.253C163.86 434.611 162.58 436.813 161.045 438.81L164.216 441.248ZM170.76 425.455C170.944 424.043 171.039 422.605 171.039 421.145H167.039C167.039 422.431 166.955 423.697 166.794 424.938L170.76 425.455ZM171.039 421.145C171.039 419.772 171.04 418.387 171.057 416.991L167.057 416.943C167.04 418.366 167.039 419.773 167.039 421.145H171.039ZM171.442 408.815C171.706 406.076 172.141 403.432 172.848 400.96L169.003 399.859C168.209 402.632 167.74 405.529 167.46 408.431L171.442 408.815ZM176.016 393.956C176.718 392.923 177.519 391.955 178.433 391.062L175.639 388.2C174.524 389.288 173.553 390.464 172.707 391.708L176.016 393.956ZM178.433 391.062L181.552 388.018L178.758 385.156L175.639 388.2L178.433 391.062ZM187.789 381.93L190.907 378.885L188.113 376.023L184.994 379.067L187.789 381.93ZM190.907 378.885C191.789 378.024 192.739 377.27 193.748 376.608L191.555 373.263C190.341 374.059 189.188 374.974 188.113 376.023L190.907 378.885ZM200.541 373.616C202.932 372.945 205.483 372.532 208.122 372.28L207.743 368.298C204.943 368.565 202.145 369.011 199.46 369.764L200.541 373.616ZM216.011 371.913C217.356 371.897 218.693 371.896 220.02 371.896V367.896C218.694 367.896 217.335 367.897 215.964 367.913L216.011 371.913ZM220.02 371.896C221.48 371.896 222.918 371.801 224.33 371.617L223.813 367.65C222.572 367.812 221.306 367.896 220.02 367.896V371.896ZM232.66 369.389C235.345 368.276 237.851 366.819 240.123 365.073L237.685 361.901C235.688 363.436 233.486 364.717 231.128 365.695L232.66 369.389ZM246.216 358.979C247.962 356.708 249.419 354.202 250.533 351.516L246.838 349.984C245.86 352.342 244.58 354.544 243.045 356.542L246.216 358.979ZM252.76 343.187C252.944 341.775 253.039 340.336 253.039 338.877H249.039C249.039 340.163 248.955 341.429 248.794 342.669L252.76 343.187ZM253.039 338.877C253.039 337.417 252.944 335.978 252.76 334.567L248.794 335.084C248.955 336.324 249.039 337.59 249.039 338.877H253.039ZM250.533 326.237C249.419 323.551 247.962 321.045 246.216 318.774L243.045 321.211C244.58 323.209 245.86 325.411 246.838 327.769L250.533 326.237ZM240.123 312.68C237.851 310.935 235.345 309.477 232.66 308.364L231.128 312.059C233.486 313.036 235.688 314.317 237.685 315.852L240.123 312.68ZM224.33 306.136C222.918 305.952 221.48 305.857 220.02 305.857V309.857C221.306 309.857 222.572 309.941 223.813 310.103L224.33 306.136ZM220.02 305.857C218.56 305.857 217.121 305.952 215.71 306.136L216.227 310.103C217.468 309.941 218.734 309.857 220.02 309.857V305.857ZM207.38 308.364C204.695 309.477 202.189 310.935 199.917 312.68L202.355 315.852C204.352 314.317 206.554 313.036 208.912 312.059L207.38 308.364ZM193.823 318.774C192.078 321.045 190.621 323.551 189.507 326.237L193.202 327.769C194.18 325.411 195.46 323.209 196.995 321.211L193.823 318.774ZM187.28 334.567C187.096 335.978 187.001 337.417 187.001 338.877H191.001C191.001 337.59 191.084 336.324 191.246 335.084L187.28 334.567ZM187.001 338.877C187.001 340.315 187.003 341.766 186.992 343.231L190.992 343.262C191.003 341.777 191.001 340.305 191.001 338.877H187.001ZM186.649 351.805C186.399 354.681 185.974 357.46 185.262 360.058L189.12 361.115C189.915 358.216 190.37 355.185 190.634 352.152L186.649 351.805ZM182.009 367.43C181.28 368.518 180.444 369.534 179.486 370.47L182.28 373.332C183.445 372.195 184.456 370.964 185.331 369.659L182.009 367.43ZM179.486 370.47L176.787 373.105L179.581 375.967L182.28 373.332L179.486 370.47ZM171.389 378.374L168.69 381.009L171.484 383.871L174.183 381.236L171.389 378.374ZM168.69 381.009C167.762 381.915 166.761 382.705 165.696 383.394L167.871 386.752C169.147 385.925 170.357 384.971 171.484 383.871L168.69 381.009ZM158.525 386.474C156.003 387.151 153.315 387.554 150.534 387.792L150.875 391.777C153.81 391.526 156.745 391.093 159.562 390.337L158.525 386.474ZM142.236 388.117C140.819 388.128 139.414 388.126 138.02 388.126V392.126C139.405 392.126 140.83 392.128 142.266 392.117L142.236 388.117ZM138.02 388.126C136.56 388.126 135.121 388.221 133.71 388.405L134.227 392.371C135.468 392.209 136.734 392.126 138.02 392.126V388.126ZM125.38 390.632C122.695 391.746 120.189 393.203 117.917 394.948L120.355 398.12C122.352 396.585 124.554 395.305 126.912 394.327L125.38 390.632ZM111.823 401.042C110.078 403.314 108.621 405.82 107.507 408.505L111.202 410.037C112.18 407.679 113.46 405.477 114.995 403.48L111.823 401.042ZM105.28 416.835C105.096 418.246 105.001 419.685 105.001 421.145H109.001C109.001 419.859 109.084 418.593 109.246 417.352L105.28 416.835ZM105.001 421.145C105.001 422.605 105.096 424.043 105.28 425.455L109.246 424.938C109.084 423.697 109.001 422.431 109.001 421.145H105.001ZM107.507 433.785C108.621 436.47 110.078 438.976 111.823 441.248L114.995 438.81C113.46 436.813 112.18 434.611 111.202 432.253L107.507 433.785ZM117.917 447.341C120.189 449.087 122.695 450.544 125.38 451.658L126.912 447.963C124.554 446.985 122.352 445.705 120.355 444.17L117.917 447.341ZM133.71 453.885C135.121 454.069 136.56 454.164 138.02 454.164V450.164C136.734 450.164 135.468 450.08 134.227 449.919L133.71 453.885Z" fill="black" mask="url(#path-1-inside-1_5822_14385)"/>
<mask id="path-3-inside-2_5822_14385" fill="white">
<path fill-rule="evenodd" clip-rule="evenodd" d="M551 421.145C551 438.276 564.888 452.164 582.019 452.164C599.151 452.164 613.038 438.276 613.038 421.145C613.038 404.013 599.151 390.126 582.019 390.126C570.799 390.126 557.981 390.277 549.952 382.44L539.156 371.901C530.878 363.821 531.038 350.444 531.038 338.877C531.038 321.745 517.151 307.857 500.019 307.857C482.888 307.857 469 321.745 469 338.877C469 356.008 482.888 369.896 500.019 369.896C510.734 369.896 522.862 369.969 530.529 377.454L543.003 389.631C550.933 397.373 551 410.062 551 421.145Z"/>
</mask>
<path d="M543.003 389.631L543.701 388.915L543.003 389.631ZM539.156 371.901L538.458 372.617L539.156 371.901ZM582.019 453.164C580.603 453.164 579.207 453.072 577.838 452.893L578.097 450.91C579.38 451.078 580.689 451.164 582.019 451.164V453.164ZM569.762 450.734C567.159 449.654 564.729 448.241 562.526 446.548L563.745 444.963C565.811 446.55 568.089 447.875 570.528 448.887L569.762 450.734ZM556.616 440.638C554.923 438.435 553.51 436.005 552.43 433.402L554.277 432.636C555.289 435.076 556.614 437.354 558.201 439.42L556.616 440.638ZM550.271 425.326C550.092 423.957 550 422.561 550 421.145H552C552 422.475 552.086 423.784 552.254 425.067L550.271 425.326ZM550 421.145C550 419.773 549.999 418.381 549.982 416.979L551.982 416.955C551.999 418.371 552 419.773 552 421.145H550ZM549.593 408.719C549.325 405.94 548.881 403.232 548.152 400.685L550.075 400.134C550.847 402.832 551.307 405.666 551.584 408.527L549.593 408.719ZM544.85 393.394C544.112 392.308 543.269 391.288 542.304 390.347L543.701 388.915C544.766 389.955 545.695 391.079 546.504 392.27L544.85 393.394ZM542.304 390.347L539.186 387.302L540.583 385.871L543.701 388.915L542.304 390.347ZM532.949 381.214L529.831 378.17L531.228 376.739L534.346 379.783L532.949 381.214ZM529.831 378.17C528.9 377.262 527.9 376.467 526.839 375.771L527.936 374.099C529.099 374.862 530.201 375.736 531.228 376.739L529.831 378.17ZM519.769 372.653C517.303 371.961 514.691 371.54 512.012 371.285L512.201 369.294C514.961 369.557 517.697 369.994 520.309 370.727L519.769 372.653ZM504.04 370.913C502.688 370.897 501.346 370.896 500.019 370.896V368.896C501.345 368.896 502.699 368.897 504.064 368.913L504.04 370.913ZM500.019 370.896C498.603 370.896 497.207 370.804 495.838 370.625L496.097 368.642C497.38 368.809 498.689 368.896 500.019 368.896V370.896ZM487.762 368.466C485.159 367.386 482.729 365.973 480.526 364.28L481.745 362.694C483.81 364.282 486.089 365.606 488.528 366.618L487.762 368.466ZM474.616 358.37C472.923 356.167 471.51 353.737 470.43 351.133L472.277 350.367C473.289 352.807 474.614 355.085 476.201 357.151L474.616 358.37ZM468.271 343.057C468.092 341.689 468 340.293 468 338.877H470C470 340.206 470.086 341.515 470.254 342.799L468.271 343.057ZM468 338.877C468 337.46 468.092 336.065 468.271 334.696L470.254 334.955C470.086 336.238 470 337.547 470 338.877H468ZM470.43 326.62C471.51 324.016 472.923 321.586 474.616 319.383L476.201 320.602C474.614 322.668 473.289 324.946 472.277 327.386L470.43 326.62ZM480.526 313.473C482.729 311.78 485.159 310.367 487.762 309.287L488.528 311.135C486.089 312.147 483.81 313.471 481.745 315.059L480.526 313.473ZM495.838 307.128C497.207 306.949 498.603 306.857 500.019 306.857V308.857C498.689 308.857 497.38 308.944 496.097 309.111L495.838 307.128ZM500.019 306.857C501.436 306.857 502.831 306.949 504.2 307.128L503.941 309.111C502.658 308.944 501.349 308.857 500.019 308.857V306.857ZM512.276 309.287C514.88 310.367 517.309 311.78 519.512 313.473L518.294 315.059C516.228 313.471 513.95 312.147 511.51 311.135L512.276 309.287ZM525.423 319.383C527.116 321.586 528.529 324.016 529.608 326.62L527.761 327.386C526.749 324.946 525.424 322.668 523.837 320.602L525.423 319.383ZM531.768 334.696C531.946 336.065 532.038 337.46 532.038 338.877H530.038C530.038 337.547 529.952 336.238 529.785 334.955L531.768 334.696ZM532.038 338.877C532.038 340.312 532.036 341.769 532.047 343.239L530.047 343.255C530.036 341.774 530.038 340.308 530.038 338.877H532.038ZM532.394 351.892C532.647 354.807 533.08 357.649 533.812 360.322L531.884 360.851C531.109 358.027 530.662 355.059 530.401 352.065L532.394 351.892ZM537.199 367.988C537.965 369.129 538.844 370.199 539.855 371.186L538.458 372.617C537.344 371.53 536.377 370.352 535.538 369.102L537.199 367.988ZM539.855 371.186L542.554 373.82L541.157 375.251L538.458 372.617L539.855 371.186ZM547.952 379.09L550.651 381.724L549.253 383.156L546.555 380.521L547.952 379.09ZM550.651 381.724C551.628 382.679 552.681 383.51 553.799 384.234L552.712 385.912C551.488 385.12 550.33 384.207 549.253 383.156L550.651 381.724ZM561.255 387.44C563.85 388.136 566.601 388.547 569.42 388.788L569.249 390.781C566.353 390.533 563.479 390.108 560.737 389.372L561.255 387.44ZM577.796 389.117C579.218 389.128 580.627 389.126 582.019 389.126V391.126C580.632 391.126 579.212 391.128 577.781 391.117L577.796 389.117ZM582.019 389.126C583.436 389.126 584.831 389.218 586.2 389.396L585.941 391.38C584.658 391.212 583.349 391.126 582.019 391.126V389.126ZM594.276 391.556C596.88 392.635 599.309 394.049 601.512 395.741L600.294 397.327C598.228 395.74 595.95 394.415 593.51 393.403L594.276 391.556ZM607.423 401.652C609.116 403.855 610.529 406.284 611.608 408.888L609.761 409.654C608.749 407.214 607.424 404.936 605.837 402.87L607.423 401.652ZM613.768 416.964C613.946 418.333 614.038 419.728 614.038 421.145H612.038C612.038 419.815 611.952 418.506 611.785 417.223L613.768 416.964ZM614.038 421.145C614.038 422.561 613.946 423.957 613.768 425.326L611.785 425.067C611.952 423.784 612.038 422.475 612.038 421.145H614.038ZM611.608 433.402C610.529 436.005 609.116 438.435 607.423 440.638L605.837 439.42C607.424 437.354 608.749 435.076 609.761 432.636L611.608 433.402ZM601.512 446.548C599.309 448.241 596.88 449.654 594.276 450.734L593.51 448.887C595.95 447.875 598.228 446.55 600.294 444.963L601.512 446.548ZM586.2 452.893C584.831 453.072 583.436 453.164 582.019 453.164V451.164C583.349 451.164 584.658 451.078 585.941 450.91L586.2 452.893ZM543.003 389.631L544.4 388.2L543.003 389.631ZM539.156 371.901L537.759 373.332L539.156 371.901ZM582.019 454.164C580.559 454.164 579.121 454.069 577.709 453.885L578.226 449.919C579.467 450.08 580.733 450.164 582.019 450.164V454.164ZM569.379 451.658C566.694 450.544 564.188 449.087 561.917 447.341L564.354 444.17C566.351 445.705 568.553 446.985 570.912 447.963L569.379 451.658ZM555.823 441.248C554.077 438.976 552.62 436.47 551.506 433.785L555.201 432.253C556.179 434.611 557.459 436.813 558.994 438.81L555.823 441.248ZM549.279 425.455C549.095 424.043 549 422.605 549 421.145H553C553 422.431 553.084 423.697 553.245 424.938L549.279 425.455ZM549 421.145C549 419.772 548.999 418.387 548.982 416.991L552.982 416.943C552.999 418.366 553 419.773 553 421.145H549ZM548.597 408.815C548.333 406.076 547.898 403.432 547.191 400.96L551.036 399.859C551.83 402.632 552.299 405.529 552.579 408.431L548.597 408.815ZM544.023 393.956C543.321 392.923 542.52 391.955 541.606 391.062L544.4 388.2C545.515 389.288 546.486 390.464 547.332 391.708L544.023 393.956ZM541.606 391.062L538.487 388.018L541.281 385.156L544.4 388.2L541.606 391.062ZM532.25 381.93L529.132 378.885L531.926 376.023L535.045 379.067L532.25 381.93ZM529.132 378.885C528.25 378.024 527.3 377.27 526.291 376.608L528.484 373.263C529.698 374.059 530.851 374.974 531.926 376.023L529.132 378.885ZM519.498 373.616C517.107 372.945 514.556 372.532 511.917 372.28L512.296 368.298C515.096 368.565 517.894 369.011 520.579 369.764L519.498 373.616ZM504.028 371.913C502.683 371.897 501.346 371.896 500.019 371.896V367.896C501.345 367.896 502.704 367.897 504.076 367.913L504.028 371.913ZM500.019 371.896C498.559 371.896 497.121 371.801 495.709 371.617L496.226 367.65C497.467 367.812 498.733 367.896 500.019 367.896V371.896ZM487.379 369.389C484.694 368.276 482.188 366.819 479.917 365.073L482.354 361.901C484.351 363.436 486.553 364.717 488.912 365.695L487.379 369.389ZM473.823 358.979C472.077 356.708 470.62 354.202 469.506 351.516L473.201 349.984C474.179 352.342 475.459 354.544 476.994 356.542L473.823 358.979ZM467.279 343.187C467.095 341.775 467 340.336 467 338.877H471C471 340.163 471.084 341.429 471.245 342.669L467.279 343.187ZM467 338.877C467 337.417 467.095 335.978 467.279 334.567L471.245 335.084C471.084 336.324 471 337.59 471 338.877H467ZM469.506 326.237C470.62 323.551 472.077 321.045 473.823 318.774L476.994 321.211C475.459 323.209 474.179 325.411 473.201 327.769L469.506 326.237ZM479.917 312.68C482.188 310.935 484.694 309.477 487.379 308.364L488.912 312.059C486.553 313.036 484.351 314.317 482.354 315.852L479.917 312.68ZM495.709 306.136C497.121 305.952 498.559 305.857 500.019 305.857V309.857C498.733 309.857 497.467 309.941 496.226 310.103L495.709 306.136ZM500.019 305.857C501.479 305.857 502.918 305.952 504.329 306.136L503.812 310.103C502.571 309.941 501.306 309.857 500.019 309.857V305.857ZM512.659 308.364C515.344 309.477 517.85 310.935 520.122 312.68L517.684 315.852C515.687 314.317 513.485 313.036 511.127 312.059L512.659 308.364ZM526.216 318.774C527.961 321.045 529.418 323.551 530.532 326.237L526.837 327.769C525.859 325.411 524.579 323.209 523.044 321.211L526.216 318.774ZM532.759 334.567C532.943 335.978 533.038 337.417 533.038 338.877H529.038C529.038 337.59 528.955 336.324 528.793 335.084L532.759 334.567ZM533.038 338.877C533.038 340.315 533.036 341.766 533.047 343.231L529.047 343.262C529.036 341.777 529.038 340.305 529.038 338.877H533.038ZM533.39 351.805C533.64 354.681 534.065 357.46 534.777 360.058L530.919 361.115C530.124 358.216 529.669 355.185 529.405 352.152L533.39 351.805ZM538.03 367.43C538.759 368.518 539.595 369.534 540.553 370.47L537.759 373.332C536.594 372.195 535.583 370.964 534.708 369.659L538.03 367.43ZM540.553 370.47L543.252 373.105L540.458 375.967L537.759 373.332L540.553 370.47ZM548.65 378.374L551.349 381.009L548.555 383.871L545.856 381.236L548.65 378.374ZM551.349 381.009C552.277 381.915 553.278 382.705 554.343 383.394L552.168 386.752C550.892 385.925 549.682 384.971 548.555 383.871L551.349 381.009ZM561.514 386.474C564.036 387.151 566.725 387.554 569.505 387.792L569.164 391.777C566.229 391.526 563.294 391.093 560.478 390.337L561.514 386.474ZM577.803 388.117C579.22 388.128 580.625 388.126 582.019 388.126V392.126C580.634 392.126 579.209 392.128 577.773 392.117L577.803 388.117ZM582.019 388.126C583.479 388.126 584.918 388.221 586.329 388.405L585.812 392.371C584.571 392.209 583.306 392.126 582.019 392.126V388.126ZM594.659 390.632C597.344 391.746 599.85 393.203 602.122 394.948L599.684 398.12C597.687 396.585 595.485 395.305 593.127 394.327L594.659 390.632ZM608.216 401.042C609.961 403.314 611.418 405.82 612.532 408.505L608.837 410.037C607.859 407.679 606.579 405.477 605.044 403.48L608.216 401.042ZM614.759 416.835C614.943 418.246 615.038 419.685 615.038 421.145H611.038C611.038 419.859 610.955 418.593 610.793 417.352L614.759 416.835ZM615.038 421.145C615.038 422.605 614.943 424.043 614.759 425.455L610.793 424.938C610.955 423.697 611.038 422.431 611.038 421.145H615.038ZM612.532 433.785C611.418 436.47 609.961 438.976 608.216 441.248L605.044 438.81C606.579 436.813 607.859 434.611 608.837 432.253L612.532 433.785ZM602.122 447.341C599.85 449.087 597.344 450.544 594.659 451.658L593.127 447.963C595.485 446.985 597.687 445.705 599.684 444.17L602.122 447.341ZM586.329 453.885C584.918 454.069 583.479 454.164 582.019 454.164V450.164C583.306 450.164 584.571 450.08 585.812 449.919L586.329 453.885Z" fill="black" mask="url(#path-3-inside-2_5822_14385)"/>
<path fill-rule="evenodd" clip-rule="evenodd" d="M169.039 117.877C169.039 100.745 155.151 86.8574 138.02 86.8574C120.888 86.8574 107.001 100.745 107.001 117.877C107.001 135.008 120.888 148.896 138.02 148.896C149.24 148.896 162.058 148.744 170.087 156.581L180.883 167.12C189.161 175.201 189.001 188.577 189.001 200.145C189.001 217.276 202.888 231.164 220.02 231.164C237.151 231.164 251.039 217.276 251.039 200.145C251.039 183.013 237.151 169.126 220.02 169.126C209.305 169.126 197.177 169.052 189.51 161.567L177.036 149.391C169.106 141.649 169.039 128.959 169.039 117.877Z" fill="white"/>
<path fill-rule="evenodd" clip-rule="evenodd" d="M551 117.877C551 100.745 564.888 86.8574 582.019 86.8574C599.151 86.8574 613.038 100.745 613.038 117.877C613.038 135.008 599.151 148.896 582.019 148.896C570.799 148.896 557.981 148.744 549.952 156.581L539.156 167.12C530.878 175.201 531.038 188.577 531.038 200.145C531.038 217.276 517.151 231.164 500.019 231.164C482.888 231.164 469 217.276 469 200.145C469 183.013 482.888 169.126 500.019 169.126C510.734 169.126 522.862 169.052 530.529 161.567L543.003 149.391C550.933 141.649 551 128.959 551 117.877Z" fill="black"/>
<mask id="path-7-inside-3_5822_14385" fill="white">
<path fill-rule="evenodd" clip-rule="evenodd" d="M251.039 117.877C251.039 100.745 237.151 86.8574 220.02 86.8574C202.888 86.8574 189.001 100.745 189.001 117.877C189.001 135.008 202.888 148.896 220.02 148.896C231.24 148.896 244.058 148.744 252.087 156.581L262.883 167.12C271.161 175.201 271.001 188.577 271.001 200.145C271.001 217.276 284.888 231.164 302.02 231.164C319.151 231.164 333.039 217.276 333.039 200.145C333.039 183.013 319.151 169.126 302.02 169.126C291.305 169.126 279.177 169.052 271.51 161.567L259.036 149.391C251.106 141.649 251.039 128.959 251.039 117.877Z"/>
</mask>
<path d="M259.036 149.391L258.338 150.106L259.036 149.391ZM262.883 167.12L263.581 166.405L262.883 167.12ZM220.02 85.8574C221.436 85.8574 222.832 85.9495 224.201 86.128L223.942 88.1112C222.659 87.9438 221.35 87.8574 220.02 87.8574V85.8574ZM232.277 88.2874C234.88 89.3671 237.31 90.7802 239.513 92.4731L238.295 94.0589C236.229 92.4713 233.951 91.1467 231.511 90.1349L232.277 88.2874ZM245.423 98.3833C247.116 100.586 248.529 103.016 249.609 105.62L247.762 106.386C246.75 103.946 245.425 101.668 243.838 99.6019L245.423 98.3833ZM251.768 113.696C251.947 115.065 252.039 116.46 252.039 117.877H250.039C250.039 116.547 249.953 115.238 249.785 113.955L251.768 113.696ZM252.039 117.877C252.039 119.249 252.04 120.64 252.057 122.042L250.057 122.066C250.04 120.651 250.039 119.248 250.039 117.877H252.039ZM252.446 130.303C252.715 133.082 253.158 135.79 253.887 138.337L251.964 138.887C251.192 136.19 250.732 133.356 250.456 130.495L252.446 130.303ZM257.189 145.627C257.927 146.714 258.77 147.733 259.735 148.675L258.338 150.106C257.273 149.066 256.344 147.943 255.535 146.751L257.189 145.627ZM259.735 148.675L262.853 151.719L261.456 153.15L258.338 150.106L259.735 148.675ZM269.09 157.807L272.208 160.852L270.811 162.283L267.693 159.239L269.09 157.807ZM272.208 160.852C273.139 161.76 274.14 162.554 275.2 163.25L274.103 164.922C272.94 164.16 271.838 163.285 270.811 162.283L272.208 160.852ZM282.27 166.369C284.736 167.06 287.348 167.482 290.028 167.737L289.838 169.728C287.078 169.465 284.342 169.027 281.73 168.294L282.27 166.369ZM297.999 168.109C299.351 168.125 300.694 168.126 302.02 168.126V170.126C300.694 170.126 299.34 170.125 297.975 170.108L297.999 168.109ZM302.02 168.126C303.436 168.126 304.832 168.218 306.201 168.396L305.942 170.38C304.659 170.212 303.35 170.126 302.02 170.126V168.126ZM314.277 170.556C316.88 171.635 319.31 173.048 321.513 174.741L320.295 176.327C318.229 174.74 315.951 173.415 313.511 172.403L314.277 170.556ZM327.423 180.652C329.116 182.855 330.529 185.284 331.609 187.888L329.762 188.654C328.75 186.214 327.425 183.936 325.838 181.87L327.423 180.652ZM333.768 195.964C333.947 197.333 334.039 198.728 334.039 200.145H332.039C332.039 198.815 331.953 197.506 331.785 196.223L333.768 195.964ZM334.039 200.145C334.039 201.561 333.947 202.957 333.768 204.326L331.785 204.067C331.953 202.784 332.039 201.475 332.039 200.145H334.039ZM331.609 212.402C330.529 215.005 329.116 217.435 327.423 219.638L325.838 218.42C327.425 216.354 328.75 214.076 329.762 211.636L331.609 212.402ZM321.513 225.548C319.31 227.241 316.88 228.654 314.277 229.734L313.511 227.887C315.951 226.875 318.229 225.55 320.295 223.963L321.513 225.548ZM306.201 231.893C304.832 232.072 303.436 232.164 302.02 232.164V230.164C303.35 230.164 304.659 230.078 305.942 229.91L306.201 231.893ZM302.02 232.164C300.603 232.164 299.208 232.072 297.839 231.893L298.098 229.91C299.381 230.078 300.69 230.164 302.02 230.164V232.164ZM289.763 229.734C287.159 228.654 284.73 227.241 282.527 225.548L283.745 223.963C285.811 225.55 288.089 226.875 290.529 227.887L289.763 229.734ZM276.616 219.638C274.924 217.435 273.51 215.005 272.431 212.402L274.278 211.636C275.29 214.076 276.615 216.354 278.202 218.42L276.616 219.638ZM270.271 204.326C270.093 202.957 270.001 201.561 270.001 200.145H272.001C272.001 201.475 272.087 202.784 272.255 204.067L270.271 204.326ZM270.001 200.145C270.001 198.709 270.003 197.253 269.992 195.782L271.992 195.767C272.003 197.247 272.001 198.714 272.001 200.145H270.001ZM269.645 187.13C269.392 184.215 268.96 181.373 268.227 178.699L270.156 178.171C270.93 180.995 271.377 183.963 271.638 186.956L269.645 187.13ZM264.84 171.034C264.074 169.892 263.195 168.822 262.184 167.836L263.581 166.405C264.695 167.492 265.662 168.669 266.501 169.92L264.84 171.034ZM262.184 167.836L259.485 165.201L260.882 163.77L263.581 166.405L262.184 167.836ZM254.087 159.932L251.389 157.297L252.786 155.866L255.485 158.501L254.087 159.932ZM251.389 157.297C250.411 156.343 249.358 155.512 248.24 154.788L249.327 153.109C250.551 153.902 251.709 154.815 252.786 155.866L251.389 157.297ZM240.784 151.582C238.189 150.885 235.438 150.474 232.62 150.233L232.79 148.241C235.686 148.488 238.56 148.914 241.302 149.65L240.784 151.582ZM224.243 149.904C222.821 149.893 221.412 149.896 220.02 149.896V147.896C221.407 147.896 222.827 147.893 224.258 147.904L224.243 149.904ZM220.02 149.896C218.603 149.896 217.208 149.804 215.839 149.625L216.098 147.642C217.381 147.809 218.69 147.896 220.02 147.896V149.896ZM207.763 147.466C205.159 146.386 202.73 144.973 200.527 143.28L201.745 141.694C203.811 143.282 206.089 144.606 208.529 145.618L207.763 147.466ZM194.616 137.37C192.924 135.167 191.51 132.737 190.431 130.133L192.278 129.367C193.29 131.807 194.615 134.085 196.202 136.151L194.616 137.37ZM188.271 122.057C188.093 120.689 188.001 119.293 188.001 117.877H190.001C190.001 119.206 190.087 120.515 190.255 121.799L188.271 122.057ZM188.001 117.877C188.001 116.46 188.093 115.065 188.271 113.696L190.255 113.955C190.087 115.238 190.001 116.547 190.001 117.877H188.001ZM190.431 105.62C191.51 103.016 192.924 100.586 194.616 98.3833L196.202 99.6019C194.615 101.668 193.29 103.946 192.278 106.386L190.431 105.62ZM200.527 92.4731C202.73 90.7802 205.159 89.3671 207.763 88.2874L208.529 90.1349C206.089 91.1467 203.811 92.4713 201.745 94.0589L200.527 92.4731ZM215.839 86.128C217.208 85.9495 218.603 85.8574 220.02 85.8574V87.8574C218.69 87.8574 217.381 87.9438 216.098 88.1112L215.839 86.128ZM259.036 149.391L257.639 150.822L259.036 149.391ZM262.883 167.12L264.28 165.689L262.883 167.12ZM220.02 84.8574C221.48 84.8574 222.918 84.9523 224.33 85.1364L223.813 89.1028C222.572 88.941 221.306 88.8574 220.02 88.8574V84.8574ZM232.66 87.3637C235.345 88.4773 237.851 89.9346 240.123 91.6802L237.685 94.8518C235.688 93.3168 233.486 92.0365 231.128 91.0586L232.66 87.3637ZM246.216 97.774C247.962 100.045 249.419 102.551 250.533 105.237L246.838 106.769C245.86 104.411 244.58 102.209 243.045 100.211L246.216 97.774ZM252.76 113.567C252.944 114.978 253.039 116.417 253.039 117.877H249.039C249.039 116.59 248.955 115.324 248.794 114.084L252.76 113.567ZM253.039 117.877C253.039 119.249 253.04 120.635 253.057 122.03L249.057 122.078C249.04 120.656 249.039 119.248 249.039 117.877H253.039ZM253.442 130.207C253.706 132.945 254.141 135.59 254.848 138.062L251.003 139.162C250.209 136.39 249.74 133.492 249.46 130.591L253.442 130.207ZM258.016 145.066C258.718 146.099 259.519 147.067 260.433 147.959L257.639 150.822C256.524 149.733 255.553 148.558 254.707 147.313L258.016 145.066ZM260.433 147.959L263.552 151.004L260.758 153.866L257.639 150.822L260.433 147.959ZM269.789 157.092L272.907 160.136L270.113 162.998L266.994 159.954L269.789 157.092ZM272.907 160.136C273.789 160.997 274.739 161.752 275.748 162.414L273.555 165.759C272.341 164.962 271.188 164.048 270.113 162.998L272.907 160.136ZM282.541 165.406C284.932 166.077 287.483 166.49 290.122 166.741L289.743 170.723C286.943 170.457 284.145 170.01 281.46 169.257L282.541 165.406ZM298.011 167.109C299.356 167.125 300.693 167.126 302.02 167.126V171.126C300.694 171.126 299.335 171.125 297.964 171.108L298.011 167.109ZM302.02 167.126C303.48 167.126 304.918 167.221 306.33 167.405L305.813 171.371C304.572 171.209 303.306 171.126 302.02 171.126V167.126ZM314.66 169.632C317.345 170.746 319.851 172.203 322.123 173.948L319.685 177.12C317.688 175.585 315.486 174.305 313.128 173.327L314.66 169.632ZM328.216 180.042C329.962 182.314 331.419 184.82 332.533 187.505L328.838 189.037C327.86 186.679 326.58 184.477 325.045 182.48L328.216 180.042ZM334.76 195.835C334.944 197.246 335.039 198.685 335.039 200.145H331.039C331.039 198.858 330.955 197.593 330.794 196.352L334.76 195.835ZM335.039 200.145C335.039 201.605 334.944 203.043 334.76 204.455L330.794 203.938C330.955 202.697 331.039 201.431 331.039 200.145H335.039ZM332.533 212.785C331.419 215.47 329.962 217.976 328.216 220.248L325.045 217.81C326.58 215.813 327.86 213.611 328.838 211.253L332.533 212.785ZM322.123 226.341C319.851 228.087 317.345 229.544 314.66 230.658L313.128 226.963C315.486 225.985 317.688 224.705 319.685 223.17L322.123 226.341ZM306.33 232.885C304.918 233.069 303.48 233.164 302.02 233.164V229.164C303.306 229.164 304.572 229.08 305.813 228.919L306.33 232.885ZM302.02 233.164C300.56 233.164 299.121 233.069 297.71 232.885L298.227 228.919C299.468 229.08 300.734 229.164 302.02 229.164V233.164ZM289.38 230.658C286.695 229.544 284.189 228.087 281.917 226.341L284.355 223.17C286.352 224.705 288.554 225.985 290.912 226.963L289.38 230.658ZM275.823 220.248C274.078 217.976 272.621 215.47 271.507 212.785L275.202 211.253C276.18 213.611 277.46 215.813 278.995 217.81L275.823 220.248ZM269.28 204.455C269.096 203.043 269.001 201.605 269.001 200.145H273.001C273.001 201.431 273.084 202.697 273.246 203.938L269.28 204.455ZM269.001 200.145C269.001 198.707 269.003 197.256 268.992 195.79L272.992 195.759C273.003 197.245 273.001 198.716 273.001 200.145H269.001ZM268.649 187.216C268.399 184.341 267.974 181.562 267.262 178.964L271.12 177.906C271.915 180.806 272.37 183.837 272.634 186.87L268.649 187.216ZM264.009 171.591C263.28 170.504 262.444 169.487 261.486 168.551L264.28 165.689C265.445 166.827 266.456 168.058 267.331 169.363L264.009 171.591ZM261.486 168.551L258.787 165.917L261.581 163.054L264.28 165.689L261.486 168.551ZM253.389 160.647L250.69 158.013L253.484 155.15L256.183 157.785L253.389 160.647ZM250.69 158.013C249.762 157.107 248.761 156.317 247.696 155.627L249.871 152.27C251.147 153.096 252.357 154.05 253.484 155.15L250.69 158.013ZM240.525 152.547C238.003 151.871 235.315 151.467 232.534 151.23L232.875 147.244C235.81 147.495 238.745 147.928 241.562 148.684L240.525 152.547ZM224.236 150.904C222.819 150.893 221.414 150.896 220.02 150.896V146.896C221.405 146.896 222.83 146.893 224.266 146.904L224.236 150.904ZM220.02 150.896C218.56 150.896 217.121 150.801 215.71 150.617L216.227 146.65C217.468 146.812 218.734 146.896 220.02 146.896V150.896ZM207.38 148.389C204.695 147.276 202.189 145.819 199.917 144.073L202.355 140.901C204.352 142.436 206.554 143.717 208.912 144.695L207.38 148.389ZM193.823 137.979C192.078 135.708 190.621 133.202 189.507 130.516L193.202 128.984C194.18 131.342 195.46 133.544 196.995 135.542L193.823 137.979ZM187.28 122.187C187.096 120.775 187.001 119.336 187.001 117.877H191.001C191.001 119.163 191.084 120.429 191.246 121.669L187.28 122.187ZM187.001 117.877C187.001 116.417 187.096 114.978 187.28 113.566L191.246 114.084C191.084 115.324 191.001 116.59 191.001 117.877H187.001ZM189.507 105.237C190.621 102.551 192.078 100.045 193.823 97.774L196.995 100.211C195.46 102.209 194.18 104.411 193.202 106.769L189.507 105.237ZM199.917 91.6802C202.189 89.9346 204.695 88.4773 207.38 87.3637L208.912 91.0586C206.554 92.0365 204.352 93.3168 202.355 94.8518L199.917 91.6802ZM215.71 85.1364C217.121 84.9523 218.56 84.8574 220.02 84.8574V88.8574C218.734 88.8574 217.468 88.941 216.227 89.1028L215.71 85.1364Z" fill="black" mask="url(#path-7-inside-3_5822_14385)"/>
<mask id="path-9-inside-4_5822_14385" fill="white">
<path fill-rule="evenodd" clip-rule="evenodd" d="M500.021 86.8573C482.89 86.8573 469.002 100.745 469.002 117.877C469.002 128.959 468.936 141.649 461.005 149.39L448.531 161.567C440.864 169.052 428.737 169.126 418.021 169.126C400.89 169.126 387.002 183.013 387.002 200.145C387.002 217.276 400.89 231.164 418.021 231.164C419.33 231.164 420.62 231.083 421.886 230.926C428.235 230.137 435.192 231.065 439.456 235.835C444.204 241.147 443.827 249.144 441.581 255.906C437.999 266.693 440.5 279.057 449.084 287.642C461.198 299.756 480.838 299.756 492.952 287.642C500.885 279.708 509.842 270.537 521.061 270.402L536.147 270.22C547.714 270.081 557.06 279.652 565.239 287.832C577.353 299.945 596.993 299.945 609.107 287.832C621.221 275.718 621.221 256.078 609.107 243.964C596.993 231.85 577.353 231.85 565.239 243.964C557.663 251.541 549.035 260.064 538.321 260.193L520.89 260.403C509.808 260.537 500.788 251.611 492.952 243.774C485.487 236.309 475.163 233.444 465.504 235.18C459.389 236.279 452.571 235.502 448.43 230.87C443.838 225.733 444.344 217.954 446.878 211.547C448.274 208.017 449.041 204.171 449.041 200.145C449.041 199.93 449.041 199.715 449.041 199.5C449.038 188.083 449.034 175.051 457.158 167.12L467.954 156.581C475.834 148.89 488.327 148.893 499.394 148.896C499.604 148.896 499.813 148.896 500.021 148.896C517.153 148.896 531.041 135.008 531.041 117.877C531.041 100.745 517.153 86.8573 500.021 86.8573Z"/>
</mask>
<path d="M469.002 117.877L470.002 117.877L469.002 117.877ZM500.021 86.8573V85.8573V86.8573ZM461.005 149.39L460.307 148.675L461.005 149.39ZM448.531 161.567L449.23 162.283L448.531 161.567ZM418.021 169.126L418.021 170.126L418.021 169.126ZM387.002 200.145L388.002 200.145L387.002 200.145ZM418.021 231.164V232.164V231.164ZM449.041 200.145H448.041V200.145L449.041 200.145ZM449.041 199.5L448.041 199.5L448.041 199.5L449.041 199.5ZM457.158 167.12L457.857 167.836L457.158 167.12ZM467.954 156.581L468.653 157.297L467.954 156.581ZM499.394 148.896L499.394 149.896L499.394 149.896L499.394 148.896ZM531.041 117.877L532.041 117.877L531.041 117.877ZM446.878 211.547L445.948 211.179L446.878 211.547ZM521.061 270.402L521.049 269.402L521.061 270.402ZM441.581 255.906L442.53 256.221L441.581 255.906ZM538.321 260.193L538.333 261.193L538.321 260.193ZM536.147 270.22L536.159 271.22L536.147 270.22ZM520.89 260.403L520.902 261.403L520.89 260.403ZM421.886 230.926L421.763 229.933L421.886 230.926ZM468.002 117.877C468.002 116.46 468.094 115.065 468.273 113.696L470.256 113.954C470.089 115.238 470.002 116.547 470.002 117.877L468.002 117.877ZM470.432 105.62C471.512 103.016 472.925 100.586 474.618 98.3832L476.204 99.6019C474.616 101.668 473.292 103.946 472.28 106.386L470.432 105.62ZM480.528 92.473C482.731 90.7801 485.161 89.367 487.765 88.2874L488.531 90.1348C486.091 91.1466 483.813 92.4712 481.747 94.0588L480.528 92.473ZM495.841 86.1279C497.209 85.9494 498.605 85.8573 500.021 85.8573V87.8573C498.692 87.8573 497.383 87.9437 496.099 88.1111L495.841 86.1279ZM500.021 85.8573C501.438 85.8573 502.833 85.9494 504.202 86.1279L503.944 88.1111C502.66 87.9437 501.351 87.8573 500.021 87.8573V85.8573ZM512.278 88.2874C514.882 89.367 517.312 90.7801 519.515 92.473L518.296 94.0588C516.23 92.4712 513.952 91.1466 511.512 90.1348L512.278 88.2874ZM525.425 98.3832C527.118 100.586 528.531 103.016 529.611 105.62L527.763 106.386C526.751 103.946 525.427 101.668 523.839 99.6019L525.425 98.3832ZM531.77 113.696C531.949 115.065 532.041 116.46 532.041 117.877L530.041 117.877C530.041 116.547 529.954 115.238 529.787 113.954L531.77 113.696ZM532.041 117.877C532.041 119.293 531.949 120.688 531.77 122.057L529.787 121.799C529.954 120.515 530.041 119.206 530.041 117.877L532.041 117.877ZM529.611 130.133C528.531 132.737 527.118 135.167 525.425 137.37L523.839 136.151C525.427 134.085 526.751 131.807 527.763 129.367L529.611 130.133ZM519.515 143.28C517.312 144.973 514.882 146.386 512.278 147.466L511.512 145.618C513.952 144.606 516.23 143.282 518.296 141.694L519.515 143.28ZM504.202 149.625C502.833 149.804 501.438 149.896 500.021 149.896V147.896C501.351 147.896 502.66 147.809 503.944 147.642L504.202 149.625ZM500.021 149.896C499.969 149.896 499.917 149.896 499.865 149.896L499.865 147.896C499.917 147.896 499.969 147.896 500.021 147.896V149.896ZM499.551 149.896C499.498 149.896 499.446 149.896 499.394 149.896L499.394 147.896C499.447 147.896 499.499 147.896 499.551 147.896L499.551 149.896ZM499.394 149.896C498.027 149.895 496.644 149.895 495.252 149.909L495.231 147.909C496.636 147.895 498.029 147.895 499.394 147.896L499.394 149.896ZM487.037 150.267C484.272 150.519 481.578 150.941 479.037 151.641L478.506 149.713C481.194 148.972 484.011 148.535 486.855 148.276L487.037 150.267ZM471.739 154.828C470.644 155.543 469.612 156.361 468.653 157.297L467.256 155.866C468.313 154.834 469.447 153.936 470.646 153.154L471.739 154.828ZM468.653 157.297L465.954 159.932L464.557 158.501L467.256 155.866L468.653 157.297ZM460.556 165.201L457.857 167.836L456.46 166.405L459.159 163.77L460.556 165.201ZM457.857 167.836C456.866 168.804 456 169.852 455.244 170.97L453.588 169.85C454.416 168.625 455.367 167.471 456.46 166.405L457.857 167.836ZM451.878 178.473C451.141 181.091 450.697 183.875 450.432 186.734L448.44 186.549C448.713 183.609 449.173 180.699 449.952 177.931L451.878 178.473ZM450.055 195.22C450.04 196.66 450.04 198.089 450.041 199.499L448.041 199.5C448.04 198.091 448.04 196.652 448.055 195.2L450.055 195.22ZM450.041 199.499C450.041 199.553 450.041 199.607 450.041 199.661L448.041 199.661C448.041 199.607 448.041 199.554 448.041 199.5L450.041 199.499ZM450.041 199.983C450.041 200.037 450.041 200.091 450.041 200.145L448.041 200.145C448.041 200.091 448.041 200.037 448.041 199.984L450.041 199.983ZM450.041 200.145C450.041 201.159 449.993 202.162 449.901 203.152L447.91 202.966C447.996 202.038 448.041 201.097 448.041 200.145H450.041ZM448.782 209.064C448.501 210.034 448.176 210.985 447.808 211.914L445.948 211.179C446.293 210.308 446.597 209.417 446.861 208.508L448.782 209.064ZM447.808 211.914C447.209 213.428 446.729 215.017 446.41 216.624L444.448 216.234C444.793 214.501 445.309 212.796 445.948 211.179L447.808 211.914ZM446.807 226.167C447.326 227.637 448.1 229 449.176 230.203L447.685 231.536C446.422 230.124 445.52 228.53 444.921 226.833L446.807 226.167ZM449.176 230.203C450.141 231.283 451.267 232.138 452.508 232.798L451.57 234.564C450.135 233.802 448.818 232.804 447.685 231.536L449.176 230.203ZM460.923 234.621C462.395 234.607 463.88 234.456 465.328 234.196L465.681 236.164C464.133 236.443 462.536 236.605 460.942 236.621L460.923 234.621ZM465.328 234.196C466.596 233.968 467.875 233.817 469.157 233.743L469.273 235.739C468.07 235.809 466.87 235.951 465.681 236.164L465.328 234.196ZM476.841 234.22C479.354 234.682 481.824 235.447 484.19 236.515L483.368 238.338C481.15 237.338 478.836 236.621 476.479 236.187L476.841 234.22ZM490.775 240.507C491.775 241.293 492.738 242.146 493.659 243.067L492.245 244.481C491.38 243.617 490.476 242.816 489.539 242.08L490.775 240.507ZM493.659 243.067C494.629 244.037 495.614 245.02 496.617 246L495.22 247.431C494.207 246.442 493.215 245.451 492.245 244.481L493.659 243.067ZM502.733 251.566C504.888 253.341 507.116 254.942 509.433 256.228L508.462 257.977C506.009 256.615 503.68 254.937 501.462 253.109L502.733 251.566ZM516.923 259.048C518.213 259.295 519.53 259.419 520.878 259.403L520.902 261.403C519.414 261.421 517.963 261.283 516.548 261.013L516.923 259.048ZM520.878 259.403L525.236 259.351L525.26 261.35L520.902 261.403L520.878 259.403ZM533.951 259.246L538.309 259.193L538.333 261.193L533.975 261.245L533.951 259.246ZM538.309 259.193C539.609 259.177 540.878 259.032 542.12 258.774L542.527 260.732C541.165 261.015 539.768 261.176 538.333 261.193L538.309 259.193ZM549.325 255.979C551.557 254.725 553.702 253.176 555.777 251.462L557.051 253.004C554.913 254.769 552.669 256.394 550.304 257.723L549.325 255.979ZM561.677 246.088C562.644 245.143 563.594 244.195 564.532 243.257L565.946 244.671C565.009 245.609 564.051 246.565 563.074 247.519L561.677 246.088ZM564.532 243.257C565.534 242.255 566.586 241.334 567.68 240.492L568.899 242.077C567.873 242.866 566.887 243.731 565.946 244.671L564.532 243.257ZM574.917 236.308C577.522 235.231 580.239 234.512 582.994 234.151L583.254 236.134C580.67 236.472 578.123 237.146 575.682 238.156L574.917 236.308ZM591.352 234.151C594.107 234.512 596.824 235.231 599.429 236.308L598.664 238.156C596.224 237.146 593.676 236.472 591.093 236.134L591.352 234.151ZM606.667 240.492C607.761 241.334 608.812 242.255 609.814 243.257L608.4 244.671C607.46 243.731 606.473 242.866 605.447 242.077L606.667 240.492ZM609.814 243.257C610.816 244.258 611.737 245.31 612.579 246.404L610.994 247.624C610.205 246.598 609.34 245.611 608.4 244.671L609.814 243.257ZM616.763 253.642C617.84 256.246 618.559 258.964 618.92 261.719L616.937 261.978C616.599 259.395 615.924 256.847 614.915 254.407L616.763 253.642ZM618.92 270.077C618.559 272.832 617.84 275.549 616.763 278.154L614.915 277.389C615.924 274.948 616.599 272.401 616.937 269.817L618.92 270.077ZM612.579 285.391C611.737 286.485 610.816 287.537 609.814 288.539L608.4 287.125C609.34 286.184 610.205 285.197 610.994 284.172L612.579 285.391ZM609.814 288.539C608.812 289.54 607.761 290.462 606.667 291.304L605.447 289.718C606.473 288.929 607.46 288.065 608.4 287.125L609.814 288.539ZM599.429 295.487C596.824 296.565 594.107 297.284 591.352 297.645L591.093 295.662C593.676 295.323 596.224 294.649 598.664 293.639L599.429 295.487ZM582.994 297.645C580.239 297.284 577.522 296.565 574.917 295.487L575.682 293.639C578.123 294.649 580.67 295.323 583.254 295.662L582.994 297.645ZM567.68 291.304C566.586 290.462 565.534 289.54 564.532 288.539L565.946 287.125C566.887 288.065 567.873 288.929 568.899 289.718L567.68 291.304ZM564.532 288.539C563.517 287.523 562.489 286.492 561.441 285.46L562.844 284.035C563.899 285.074 564.934 286.113 565.946 287.125L564.532 288.539ZM555.078 279.587C552.837 277.705 550.522 276.001 548.113 274.629L549.103 272.891C551.648 274.341 554.063 276.123 556.364 278.055L555.078 279.587ZM540.298 271.603C538.95 271.338 537.571 271.203 536.159 271.22L536.135 269.22C537.691 269.201 539.208 269.35 540.685 269.641L540.298 271.603ZM536.159 271.22L532.388 271.265L532.364 269.265L536.135 269.22L536.159 271.22ZM524.845 271.356L521.073 271.402L521.049 269.402L524.821 269.356L524.845 271.356ZM521.073 271.402C519.707 271.418 518.375 271.575 517.072 271.854L516.654 269.898C518.08 269.593 519.544 269.42 521.049 269.402L521.073 271.402ZM509.533 274.859C507.206 276.201 504.97 277.856 502.807 279.678L501.518 278.149C503.741 276.276 506.074 274.545 508.534 273.126L509.533 274.859ZM496.651 285.369C495.638 286.366 494.643 287.365 493.659 288.349L492.245 286.935C493.226 285.954 494.228 284.948 495.248 283.944L496.651 285.369ZM493.659 288.349C492.657 289.351 491.605 290.272 490.511 291.114L489.292 289.529C490.318 288.74 491.304 287.875 492.245 286.935L493.659 288.349ZM483.274 295.298C480.669 296.375 477.952 297.094 475.197 297.455L474.937 295.472C477.521 295.134 480.068 294.459 482.509 293.45L483.274 295.298ZM466.839 297.455C464.084 297.094 461.367 296.375 458.762 295.298L459.527 293.45C461.967 294.459 464.515 295.134 467.098 295.472L466.839 297.455ZM451.524 291.114C450.43 290.272 449.379 289.351 448.377 288.349L449.791 286.935C450.731 287.875 451.718 288.74 452.744 289.529L451.524 291.114ZM448.377 288.349C447.318 287.29 446.348 286.175 445.468 285.013L447.062 283.805C447.887 284.894 448.797 285.941 449.791 286.935L448.377 288.349ZM441.162 277.299C440.086 274.523 439.411 271.627 439.138 268.702L441.13 268.516C441.386 271.26 442.018 273.975 443.027 276.576L441.162 277.299ZM439.531 259.879C439.798 258.431 440.165 256.998 440.632 255.591L442.53 256.221C442.092 257.54 441.748 258.884 441.498 260.241L439.531 259.879ZM440.632 255.591C441.166 253.984 441.589 252.309 441.858 250.624L443.833 250.939C443.546 252.742 443.094 254.522 442.53 256.221L440.632 255.591ZM441.2 240.693C440.642 239.167 439.828 237.752 438.71 236.501L440.201 235.168C441.501 236.623 442.441 238.261 443.079 240.006L441.2 240.693ZM438.71 236.501C437.711 235.384 436.55 234.491 435.269 233.792L436.228 232.036C437.693 232.837 439.039 233.868 440.201 235.168L438.71 236.501ZM426.59 231.686C425.065 231.643 423.522 231.73 422.009 231.918L421.763 229.933C423.364 229.734 425.009 229.641 426.646 229.687L426.59 231.686ZM422.009 231.918C421.679 231.959 421.348 231.995 421.015 232.026L420.831 230.034C421.143 230.005 421.453 229.972 421.763 229.933L422.009 231.918ZM419.021 232.149C418.689 232.159 418.356 232.164 418.021 232.164V230.164C418.335 230.164 418.648 230.159 418.959 230.15L419.021 232.149ZM418.021 232.164C416.605 232.164 415.209 232.072 413.841 231.893L414.099 229.91C415.383 230.078 416.692 230.164 418.021 230.164V232.164ZM405.765 229.734C403.161 228.654 400.731 227.241 398.528 225.548L399.747 223.962C401.813 225.55 404.091 226.875 406.531 227.886L405.765 229.734ZM392.618 219.638C390.925 217.435 389.512 215.005 388.432 212.402L390.28 211.636C391.292 214.075 392.616 216.353 394.204 218.419L392.618 219.638ZM386.273 204.326C386.094 202.957 386.002 201.561 386.002 200.145L388.002 200.145C388.002 201.475 388.089 202.784 388.256 204.067L386.273 204.326ZM386.002 200.145C386.002 198.728 386.094 197.333 386.273 195.964L388.256 196.223C388.089 197.506 388.002 198.815 388.002 200.145L386.002 200.145ZM388.432 187.888C389.512 185.284 390.925 182.854 392.618 180.652L394.204 181.87C392.616 183.936 391.292 186.214 390.28 188.654L388.432 187.888ZM398.528 174.741C400.731 173.048 403.161 171.635 405.765 170.556L406.531 172.403C404.091 173.415 401.813 174.74 399.747 176.327L398.528 174.741ZM413.841 168.396C415.209 168.218 416.605 168.126 418.021 168.126L418.021 170.126C416.692 170.126 415.383 170.212 414.099 170.379L413.841 168.396ZM418.021 168.126C419.348 168.126 420.69 168.125 422.042 168.108L422.066 170.108C420.701 170.125 419.348 170.126 418.021 170.126L418.021 168.126ZM430.014 167.737C432.694 167.482 435.306 167.06 437.771 166.369L438.311 168.294C435.699 169.027 432.964 169.465 430.203 169.728L430.014 167.737ZM444.841 163.25C445.902 162.554 446.902 161.76 447.833 160.851L449.23 162.283C448.203 163.285 447.101 164.16 445.938 164.922L444.841 163.25ZM447.833 160.851L450.951 157.807L452.348 159.238L449.23 162.283L447.833 160.851ZM457.188 151.719L460.307 148.675L461.704 150.106L458.585 153.15L457.188 151.719ZM460.307 148.675C461.271 147.733 462.115 146.714 462.852 145.627L464.507 146.751C463.697 147.943 462.769 149.066 461.704 150.106L460.307 148.675ZM466.155 138.337C466.883 135.79 467.327 133.082 467.595 130.303L469.586 130.495C469.31 133.355 468.849 136.19 468.077 138.887L466.155 138.337ZM467.985 122.042C468.001 120.64 468.002 119.249 468.002 117.877L470.002 117.877C470.002 119.248 470.001 120.651 469.984 122.066L467.985 122.042ZM469.002 117.877L471.002 117.877L471.002 117.877L469.002 117.877ZM500.021 86.8573L500.021 84.8573L500.021 86.8573ZM461.005 149.39L459.608 147.959L461.005 149.39ZM448.531 161.567L449.929 162.998L448.531 161.567ZM418.021 169.126L418.021 171.126L418.021 171.126L418.021 169.126ZM387.002 200.145L389.002 200.145L389.002 200.145L387.002 200.145ZM418.021 231.164V233.164V231.164ZM449.041 200.145L447.041 200.145L447.041 200.145L449.041 200.145ZM449.041 199.5L447.041 199.5L447.041 199.5L449.041 199.5ZM457.158 167.12L458.556 168.551L457.158 167.12ZM467.954 156.581L469.351 158.013L467.954 156.581ZM499.394 148.896L499.394 150.896L499.394 150.896L499.394 148.896ZM531.041 117.877L533.041 117.877L533.041 117.877L531.041 117.877ZM446.878 211.547L445.018 210.811L446.878 211.547ZM521.061 270.402L521.037 268.402L521.061 270.402ZM441.581 255.906L443.479 256.537L441.581 255.906ZM538.321 260.193L538.345 262.193L538.321 260.193ZM536.147 270.22L536.171 272.22L536.147 270.22ZM520.89 260.403L520.914 262.403L520.89 260.403ZM421.886 230.926L421.639 228.941L421.886 230.926ZM467.002 117.877C467.002 116.417 467.097 114.978 467.281 113.566L471.248 114.084C471.086 115.324 471.002 116.59 471.002 117.877L467.002 117.877ZM469.509 105.237C470.622 102.551 472.08 100.045 473.825 97.7739L476.997 100.211C475.462 102.209 474.181 104.411 473.204 106.769L469.509 105.237ZM479.919 91.6801C482.19 89.9345 484.696 88.4773 487.382 87.3636L488.914 91.0585C486.556 92.0364 484.354 93.3168 482.356 94.8518L479.919 91.6801ZM495.711 85.1363C497.123 84.9522 498.562 84.8573 500.021 84.8573L500.021 88.8573C498.735 88.8573 497.469 88.9409 496.229 89.1027L495.711 85.1363ZM500.021 84.8573C501.481 84.8573 502.92 84.9522 504.332 85.1363L503.814 89.1027C502.574 88.9409 501.308 88.8573 500.021 88.8573L500.021 84.8573ZM512.661 87.3636C515.347 88.4773 517.853 89.9345 520.124 91.6801L517.687 94.8518C515.689 93.3168 513.487 92.0364 511.129 91.0585L512.661 87.3636ZM526.218 97.7739C527.963 100.045 529.421 102.551 530.534 105.237L526.839 106.769C525.862 104.411 524.581 102.209 523.046 100.211L526.218 97.7739ZM532.762 113.566C532.946 114.978 533.041 116.417 533.041 117.877L529.041 117.877C529.041 116.59 528.957 115.324 528.795 114.084L532.762 113.566ZM533.041 117.877C533.041 119.336 532.946 120.775 532.762 122.187L528.795 121.669C528.957 120.429 529.041 119.163 529.041 117.877H533.041ZM530.534 130.516C529.421 133.202 527.963 135.708 526.218 137.979L523.046 135.542C524.581 133.544 525.862 131.342 526.839 128.984L530.534 130.516ZM520.124 144.073C517.853 145.818 515.347 147.276 512.661 148.389L511.129 144.694C513.487 143.717 515.689 142.436 517.687 140.901L520.124 144.073ZM504.332 150.617C502.92 150.801 501.481 150.896 500.021 150.896L500.021 146.896C501.308 146.896 502.574 146.812 503.814 146.65L504.332 150.617ZM500.021 150.896C499.969 150.896 499.917 150.896 499.864 150.896L499.865 146.896C499.917 146.896 499.969 146.896 500.021 146.896L500.021 150.896ZM499.55 150.896C499.498 150.896 499.446 150.896 499.394 150.896L499.395 146.896C499.447 146.896 499.499 146.896 499.551 146.896L499.55 150.896ZM499.394 150.896C498.026 150.895 496.648 150.895 495.262 150.909L495.221 146.909C496.632 146.895 498.03 146.895 499.395 146.896L499.394 150.896ZM487.128 151.263C484.403 151.512 481.771 151.925 479.303 152.606L478.24 148.749C481.002 147.988 483.881 147.543 486.764 147.28L487.128 151.263ZM472.285 155.666C471.243 156.346 470.262 157.124 469.351 158.013L466.557 155.15C467.663 154.071 468.849 153.132 470.099 152.316L472.285 155.666ZM469.351 158.013L466.652 160.647L463.858 157.785L466.557 155.15L469.351 158.013ZM461.255 165.917L458.556 168.551L455.761 165.689L458.46 163.054L461.255 165.917ZM458.556 168.551C457.615 169.47 456.793 170.466 456.073 171.53L452.759 169.29C453.623 168.012 454.618 166.805 455.761 165.689L458.556 168.551ZM452.84 178.744C452.124 181.287 451.689 184.007 451.427 186.826L447.445 186.456C447.721 183.477 448.189 180.503 448.99 177.66L452.84 178.744ZM451.055 195.231C451.04 196.664 451.04 198.088 451.041 199.499L447.041 199.5C447.04 198.092 447.04 196.648 447.055 195.189L451.055 195.231ZM451.041 199.499C451.041 199.553 451.041 199.607 451.041 199.66L447.041 199.661C447.041 199.608 447.041 199.554 447.041 199.5L451.041 199.499ZM451.041 199.983C451.041 200.037 451.041 200.091 451.041 200.145L447.041 200.145C447.041 200.091 447.041 200.037 447.041 199.984L451.041 199.983ZM451.041 200.145C451.041 201.19 450.992 202.224 450.897 203.245L446.914 202.874C446.998 201.976 447.041 201.066 447.041 200.145L451.041 200.145ZM449.742 209.342C449.453 210.342 449.117 211.323 448.738 212.282L445.018 210.811C445.351 209.969 445.646 209.108 445.9 208.23L449.742 209.342ZM448.738 212.282C448.16 213.744 447.697 215.276 447.39 216.82L443.467 216.039C443.825 214.242 444.358 212.48 445.018 210.811L448.738 212.282ZM447.75 225.834C448.228 227.19 448.939 228.438 449.921 229.537L446.939 232.203C445.584 230.686 444.617 228.977 443.978 227.166L447.75 225.834ZM449.921 229.537C450.802 230.522 451.832 231.306 452.977 231.914L451.101 235.447C449.57 234.634 448.157 233.565 446.939 232.203L449.921 229.537ZM460.913 233.621C462.324 233.607 463.753 233.463 465.151 233.212L465.858 237.149C464.259 237.436 462.607 237.605 460.952 237.621L460.913 233.621ZM465.151 233.212C466.458 232.977 467.777 232.821 469.099 232.744L469.33 236.738C468.167 236.805 467.008 236.942 465.858 237.149L465.151 233.212ZM477.022 233.236C479.614 233.713 482.16 234.502 484.602 235.603L482.957 239.25C480.814 238.283 478.576 237.59 476.298 237.17L477.022 233.236ZM491.393 239.721C492.424 240.531 493.417 241.411 494.366 242.36L491.538 245.188C490.701 244.352 489.827 243.578 488.921 242.866L491.393 239.721ZM494.366 242.36C495.336 243.331 496.317 244.31 497.316 245.285L494.521 248.147C493.504 247.153 492.507 246.158 491.538 245.188L494.366 242.36ZM503.369 250.794C505.493 252.543 507.67 254.106 509.918 255.354L507.977 258.851C505.456 257.452 503.075 255.735 500.826 253.881L503.369 250.794ZM517.111 258.066C518.338 258.3 519.588 258.419 520.866 258.403L520.914 262.403C519.356 262.422 517.838 262.277 516.36 261.995L517.111 258.066ZM520.866 258.403L525.224 258.351L525.272 262.35L520.914 262.403L520.866 258.403ZM533.939 258.246L538.297 258.193L538.345 262.193L533.987 262.245L533.939 258.246ZM538.297 258.193C539.529 258.178 540.735 258.04 541.916 257.795L542.73 261.711C541.309 262.006 539.847 262.175 538.345 262.193L538.297 258.193ZM548.835 255.108C551.001 253.891 553.096 252.379 555.14 250.691L557.688 253.775C555.519 255.566 553.225 257.229 550.794 258.595L548.835 255.108ZM560.978 245.372C561.941 244.432 562.887 243.488 563.825 242.55L566.653 245.378C565.716 246.316 564.754 247.276 563.773 248.234L560.978 245.372ZM563.825 242.55C564.857 241.517 565.942 240.567 567.07 239.699L569.509 242.87C568.517 243.633 567.563 244.469 566.653 245.378L563.825 242.55ZM574.535 235.384C577.221 234.273 580.024 233.531 582.864 233.159L583.383 237.126C580.886 237.453 578.423 238.104 576.064 239.08L574.535 235.384ZM591.482 233.159C594.323 233.531 597.125 234.273 599.811 235.384L598.282 239.08C595.923 238.104 593.461 237.453 590.963 237.126L591.482 233.159ZM607.276 239.699C608.405 240.567 609.489 241.517 610.521 242.55L607.693 245.378C606.783 244.469 605.829 243.633 604.837 242.87L607.276 239.699ZM610.521 242.55C611.553 243.582 612.504 244.666 613.372 245.795L610.201 248.233C609.438 247.242 608.602 246.288 607.693 245.378L610.521 242.55ZM617.687 253.26C618.798 255.946 619.54 258.748 619.911 261.589L615.945 262.108C615.618 259.61 614.967 257.148 613.991 254.789L617.687 253.26ZM619.911 270.207C619.54 273.047 618.798 275.85 617.687 278.536L613.991 277.007C614.967 274.648 615.618 272.185 615.945 269.687L619.911 270.207ZM613.372 286.001C612.504 287.129 611.553 288.214 610.521 289.246L607.693 286.417C608.602 285.508 609.438 284.554 610.201 283.562L613.372 286.001ZM610.521 289.246C609.489 290.278 608.405 291.228 607.276 292.096L604.837 288.926C605.829 288.163 606.783 287.327 607.693 286.417L610.521 289.246ZM599.811 296.411C597.125 297.523 594.323 298.264 591.482 298.636L590.963 294.67C593.461 294.343 595.923 293.691 598.282 292.715L599.811 296.411ZM582.864 298.636C580.024 298.264 577.221 297.523 574.535 296.411L576.064 292.715C578.423 293.691 580.886 294.343 583.383 294.67L582.864 298.636ZM567.07 292.096C565.942 291.228 564.857 290.278 563.825 289.246L566.653 286.417C567.563 287.327 568.517 288.163 569.509 288.926L567.07 292.096ZM563.825 289.246C562.808 288.229 561.784 287.201 560.74 286.173L563.546 283.323C564.604 284.365 565.643 285.407 566.653 286.417L563.825 289.246ZM554.434 280.353C552.225 278.496 549.959 276.831 547.618 275.498L549.598 272.022C552.211 273.51 554.676 275.332 557.007 277.29L554.434 280.353ZM540.105 272.585C538.821 272.332 537.511 272.204 536.171 272.22L536.123 268.22C537.751 268.2 539.337 268.356 540.878 268.66L540.105 272.585ZM536.171 272.22L532.4 272.265L532.352 268.265L536.123 268.22L536.171 272.22ZM524.857 272.356L521.085 272.402L521.037 268.402L524.809 268.356L524.857 272.356ZM521.085 272.402C519.789 272.417 518.522 272.566 517.282 272.832L516.445 268.92C517.932 268.602 519.463 268.421 521.037 268.402L521.085 272.402ZM510.033 275.725C507.771 277.029 505.585 278.645 503.451 280.443L500.874 277.384C503.127 275.486 505.509 273.717 508.034 272.26L510.033 275.725ZM497.353 286.081C496.343 287.076 495.352 288.07 494.366 289.056L491.538 286.228C492.517 285.248 493.523 284.239 494.546 283.231L497.353 286.081ZM494.366 289.056C493.334 290.088 492.249 291.039 491.121 291.907L488.682 288.736C489.674 287.973 490.628 287.137 491.538 286.228L494.366 289.056ZM483.656 296.222C480.97 297.333 478.167 298.075 475.327 298.446L474.808 294.48C477.305 294.153 479.768 293.502 482.127 292.526L483.656 296.222ZM466.709 298.446C463.868 298.075 461.066 297.333 458.38 296.222L459.909 292.526C462.268 293.502 464.73 294.153 467.228 294.48L466.709 298.446ZM450.915 291.907C449.786 291.039 448.702 290.088 447.67 289.056L450.498 286.228C451.408 287.137 452.362 287.973 453.354 288.736L450.915 291.907ZM447.67 289.056C446.578 287.965 445.579 286.815 444.671 285.617L447.859 283.201C448.657 284.254 449.536 285.266 450.498 286.228L447.67 289.056ZM440.23 277.661C439.12 274.797 438.424 271.811 438.142 268.795L442.125 268.423C442.373 271.076 442.984 273.7 443.959 276.215L440.23 277.661ZM438.547 259.698C438.822 258.205 439.201 256.727 439.683 255.276L443.479 256.537C443.056 257.812 442.723 259.11 442.481 260.423L438.547 259.698ZM439.683 255.276C440.201 253.715 440.611 252.093 440.871 250.467L444.821 251.097C444.524 252.958 444.059 254.791 443.479 256.537L439.683 255.276ZM440.261 241.037C439.743 239.619 438.992 238.317 437.965 237.168L440.947 234.502C442.338 236.058 443.34 237.808 444.018 239.663L440.261 241.037ZM437.965 237.168C437.047 236.142 435.978 235.318 434.79 234.669L436.707 231.159C438.265 232.009 439.702 233.11 440.947 234.502L437.965 237.168ZM426.562 232.686C425.093 232.644 423.601 232.728 422.133 232.91L421.639 228.941C423.285 228.736 424.981 228.64 426.674 228.687L426.562 232.686ZM422.133 232.91C421.793 232.953 421.451 232.99 421.108 233.021L420.738 229.039C421.04 229.011 421.34 228.978 421.639 228.941L422.133 232.91ZM419.051 233.148C418.709 233.159 418.366 233.164 418.021 233.164V229.164C418.325 229.164 418.627 229.159 418.929 229.15L419.051 233.148ZM418.021 233.164C416.562 233.164 415.123 233.069 413.711 232.885L414.229 228.919C415.469 229.08 416.735 229.164 418.021 229.164L418.021 233.164ZM405.382 230.658C402.696 229.544 400.19 228.087 397.919 226.341L400.356 223.17C402.354 224.705 404.556 225.985 406.914 226.963L405.382 230.658ZM391.825 220.247C390.08 217.976 388.622 215.47 387.509 212.785L391.204 211.252C392.181 213.611 393.462 215.813 394.997 217.81L391.825 220.247ZM385.281 204.455C385.097 203.043 385.002 201.605 385.002 200.145L389.002 200.145C389.002 201.431 389.086 202.697 389.248 203.938L385.281 204.455ZM385.002 200.145C385.002 198.685 385.097 197.246 385.281 195.835L389.248 196.352C389.086 197.593 389.002 198.858 389.002 200.145L385.002 200.145ZM387.509 187.505C388.622 184.819 390.08 182.314 391.825 180.042L394.997 182.479C393.462 184.477 392.181 186.679 391.204 189.037L387.509 187.505ZM397.919 173.948C400.19 172.203 402.696 170.746 405.382 169.632L406.914 173.327C404.556 174.305 402.354 175.585 400.356 177.12L397.919 173.948ZM413.711 167.405C415.123 167.221 416.562 167.126 418.021 167.126L418.021 171.126C416.735 171.126 415.469 171.209 414.229 171.371L413.711 167.405ZM418.021 167.126C419.348 167.126 420.685 167.125 422.03 167.108L422.078 171.108C420.706 171.125 419.348 171.126 418.021 171.126L418.021 167.126ZM429.919 166.741C432.559 166.49 435.109 166.077 437.501 165.406L438.581 169.257C435.896 170.01 433.099 170.457 430.298 170.723L429.919 166.741ZM444.293 162.414C445.302 161.752 446.252 160.997 447.134 160.136L449.929 162.998C448.853 164.048 447.701 164.962 446.487 165.759L444.293 162.414ZM447.134 160.136L450.253 157.092L453.047 159.954L449.929 162.998L447.134 160.136ZM456.49 151.003L459.608 147.959L462.402 150.822L459.284 153.866L456.49 151.003ZM459.608 147.959C460.522 147.067 461.323 146.099 462.025 145.065L465.334 147.313C464.489 148.557 463.517 149.733 462.402 150.822L459.608 147.959ZM465.193 138.062C465.901 135.589 466.335 132.945 466.6 130.206L470.581 130.591C470.301 133.492 469.832 136.39 469.039 139.162L465.193 138.062ZM466.985 122.03C467.001 120.635 467.002 119.249 467.002 117.877L471.002 117.877C471.002 119.248 471.001 120.656 470.984 122.078L466.985 122.03Z" fill="black" mask="url(#path-9-inside-4_5822_14385)"/>
<path fill-rule="evenodd" clip-rule="evenodd" d="M154.794 243.965C142.68 231.851 123.04 231.851 110.926 243.965C98.8123 256.078 98.8123 275.719 110.926 287.832C123.04 299.946 142.68 299.946 154.794 287.832C162.974 279.652 172.319 270.08 183.887 270.22L198.973 270.401C210.192 270.537 219.149 279.708 227.082 287.642C239.196 299.756 258.836 299.756 270.95 287.642C271.239 287.353 271.521 287.06 271.796 286.763C279.085 278.887 287.762 270.17 298.493 270.3C309.229 270.429 317.729 279.055 323.678 287.993C325.567 290.831 327.809 293.414 330.341 295.679C340.611 304.865 351.905 315.971 351.739 329.748L351.697 333.244C351.565 344.224 342.703 353.027 334.938 360.792C322.824 372.905 322.824 392.546 334.938 404.659C347.052 416.773 366.692 416.773 378.805 404.659C390.919 392.546 390.919 372.905 378.805 360.792C370.804 352.791 361.573 343.614 361.709 332.3L361.751 328.785C361.912 315.466 372.864 304.925 382.986 296.267C391.563 288.93 397 278.029 397 265.857C397 253.442 391.343 242.348 382.467 235.011C372.252 226.567 361.331 215.938 361.49 202.685C361.639 190.362 372.132 180.383 379.175 170.269C382.218 165.899 384.002 160.586 384.002 154.857C384.002 139.946 371.914 127.857 357.002 127.857C342.09 127.857 330.002 139.946 330.002 154.857C330.002 160.071 331.48 164.94 334.04 169.068C340.808 179.982 351.635 190.666 351.48 203.507C351.322 216.616 340.69 227.045 330.79 235.639C328.452 237.669 326.353 239.965 324.538 242.48C317.987 251.562 308.929 260.425 297.733 260.29C287.152 260.162 278.657 251.715 271.29 244.12C271.178 244.004 271.064 243.889 270.95 243.774C258.836 231.66 239.196 231.66 227.082 243.774C219.246 251.611 210.226 260.536 199.144 260.403L181.711 260.193C170.997 260.064 162.37 251.541 154.794 243.965Z" fill="black"/>
<rect x="169.039" y="369.896" width="62.0383" height="62.0383" rx="31.0192" transform="rotate(180 169.039 369.896)" fill="black"/>
<rect width="62.0383" height="62.0383" rx="31.0192" transform="matrix(1 0 0 -1 551 369.896)" fill="black"/>
<rect x="333.039" y="363.896" width="62.0383" height="62.0383" rx="31.0192" transform="rotate(180 333.039 363.896)" fill="white"/>
<rect width="62.0383" height="62.0383" rx="31.0192" transform="matrix(1 0 0 -1 387 363.896)" fill="black"/>
<rect x="333.039" y="148.896" width="62.0383" height="62.0383" rx="31.0192" transform="rotate(180 333.039 148.896)" fill="white"/>
<rect width="62.0383" height="62.0383" rx="31.0192" transform="matrix(1 0 0 -1 387 148.896)" fill="white"/>
<rect x="332.039" y="450.896" width="60.0383" height="60.0383" rx="30.0192" transform="rotate(180 332.039 450.896)" stroke="black" stroke-width="2" stroke-dasharray="8 8"/>
<rect x="1" y="-1" width="60.0383" height="60.0383" rx="30.0192" transform="matrix(1 0 0 -1 387 449.896)" stroke="black" stroke-width="2" stroke-dasharray="8 8"/>
<rect width="62.0383" height="62.0383" rx="31.0192" transform="matrix(-1 0 0 1 169.039 169.125)" fill="white"/>
<rect x="551" y="169.125" width="62.0383" height="62.0383" rx="31.0192" fill="white"/>
<rect x="251.039" y="452.164" width="62.0383" height="62.0383" rx="31.0192" transform="rotate(180 251.039 452.164)" fill="white"/>
<rect width="62.0383" height="62.0383" rx="31.0192" transform="matrix(1 0 0 -1 469 452.164)" fill="white"/>
</svg>
