<svg width="1081" height="808" viewBox="0 0 1081 808" fill="none"
    xmlns="http://www.w3.org/2000/svg">
    <path d="M731.632 601.306C706.785 601.306 686.634 580.954 686.634 555.838C686.634 530.723 706.785 510.371 731.632 510.371C756.48 510.371 776.631 530.723 776.631 555.838C776.631 580.954 756.48 601.306 731.632 601.306Z" stroke="#84FF81" stroke-width="0.937467"/>
    <path d="M731.632 403.5C706.785 403.5 686.634 383.148 686.634 358.033C686.634 332.917 706.785 312.566 731.632 312.566C756.48 312.566 776.631 332.917 776.631 358.033C776.631 383.148 756.48 403.5 731.632 403.5Z" stroke="#84FF81" stroke-width="0.937467"/>
    <g filter="url(#filter0_b_7617_10869)">
        <mask id="path-3-inside-1_7617_10869" fill="white">
            <path d="M579.415 184.583C588.011 175.971 589.328 162.736 589.328 150.56C589.328 125.352 609.736 104.917 634.91 104.917C660.085 104.917 680.492 125.352 680.492 150.56C680.492 175.768 660.085 196.203 634.91 196.203C622.721 196.203 609.468 197.519 600.851 206.151L589.055 217.968C580.442 226.597 579.13 239.861 579.13 252.06C579.13 265.794 580.062 280.99 589.759 290.704L596.307 297.264C606.007 306.981 621.19 307.917 634.91 307.917C660.085 307.917 680.492 328.352 680.492 353.56C680.492 378.768 660.085 399.204 634.91 399.204C609.736 399.204 589.328 378.768 589.328 353.56C589.328 343.008 587.755 331.739 580.305 324.275L562.809 306.749C555.354 299.281 544.093 297.703 533.548 297.703C508.374 297.703 487.966 277.268 487.966 252.06C487.966 226.852 508.374 206.417 533.548 206.417C545.713 206.417 558.938 205.097 567.538 196.481L579.415 184.583Z"/>
            <path d="M936.671 402.866C911.497 402.866 891.089 382.431 891.089 357.223C891.089 332.015 911.497 311.579 936.671 311.579C961.845 311.579 982.253 332.015 982.253 357.223C982.253 382.431 961.845 402.866 936.671 402.866Z"/>
            <path d="M891.089 556.278C891.089 581.486 911.497 601.922 936.671 601.922C961.845 601.922 982.253 581.486 982.253 556.278C982.253 531.07 961.845 510.635 936.671 510.635C911.497 510.635 891.089 531.07 891.089 556.278Z"/>
            <path d="M840.036 297.633C814.862 297.633 794.454 277.198 794.454 251.99C794.454 226.781 814.862 206.346 840.036 206.346C865.211 206.346 885.618 226.781 885.618 251.99C885.618 277.198 865.211 297.633 840.036 297.633Z"/>
            <path d="M794.454 454.849C794.454 480.057 814.862 500.492 840.036 500.492C865.211 500.492 885.618 480.057 885.618 454.849C885.618 429.641 865.211 409.205 840.036 409.205C814.862 409.205 794.454 429.641 794.454 454.849Z"/>
            <path d="M840.036 702.083C814.862 702.083 794.454 681.648 794.454 656.44C794.454 631.232 814.862 610.797 840.036 610.797C865.211 610.797 885.618 631.232 885.618 656.44C885.618 681.648 865.211 702.083 840.036 702.083Z"/>
            <path d="M894.045 150.56C894.045 175.768 914.453 196.203 939.627 196.203C964.802 196.203 985.209 175.768 985.209 150.56C985.209 125.352 964.802 104.917 939.627 104.917C914.453 104.917 894.045 125.352 894.045 150.56Z"/>
            <path d="M637.873 297.633C612.699 297.633 592.291 277.198 592.291 251.99C592.291 226.781 612.699 206.346 637.873 206.346C663.047 206.346 683.455 226.781 683.455 251.99C683.455 277.198 663.047 297.633 637.873 297.633Z"/>
            <path d="M592.291 454.849C592.291 480.057 612.699 500.492 637.873 500.492C663.047 500.492 683.455 480.057 683.455 454.849C683.455 429.641 663.047 409.205 637.873 409.205C612.699 409.205 592.291 429.641 592.291 454.849Z"/>
            <path d="M637.873 702.083C612.699 702.083 592.291 681.648 592.291 656.44C592.291 631.232 612.699 610.797 637.873 610.797C663.047 610.797 683.455 631.232 683.455 656.44C683.455 681.648 663.047 702.083 637.873 702.083Z"/>
            <path d="M486.762 556.278C486.762 581.486 507.17 601.922 532.344 601.922C557.519 601.922 577.926 581.486 577.926 556.278C577.926 531.07 557.519 510.635 532.344 510.635C507.17 510.635 486.762 531.07 486.762 556.278Z"/>
            <path d="M435.71 297.633C410.535 297.633 390.128 277.198 390.128 251.99C390.128 226.781 410.535 206.346 435.71 206.346C460.884 206.346 481.292 226.781 481.292 251.99C481.292 277.198 460.884 297.633 435.71 297.633Z"/>
            <path d="M390.128 454.849C390.128 480.057 410.535 500.492 435.71 500.492C460.884 500.492 481.292 480.057 481.292 454.849C481.292 429.641 460.884 409.205 435.71 409.205C410.535 409.205 390.128 429.641 390.128 454.849Z"/>
            <path d="M435.71 702.083C410.535 702.083 390.128 681.648 390.128 656.44C390.128 631.232 410.535 610.797 435.71 610.797C460.884 610.797 481.292 631.232 481.292 656.44C481.292 681.648 460.884 702.083 435.71 702.083Z"/>
            <path d="M489.719 150.56C489.719 175.768 510.126 196.203 535.301 196.203C560.475 196.203 580.883 175.768 580.883 150.56C580.883 125.352 560.475 104.917 535.301 104.917C510.126 104.917 489.719 125.352 489.719 150.56Z"/>
            <path d="M330.181 402.866C305.007 402.866 284.599 382.431 284.599 357.223C284.599 332.015 305.007 311.579 330.181 311.579C355.355 311.579 375.763 332.015 375.763 357.223C375.763 382.431 355.355 402.866 330.181 402.866Z"/>
            <path d="M284.599 556.278C284.599 581.486 305.007 601.922 330.181 601.922C355.355 601.922 375.763 581.486 375.763 556.278C375.763 531.07 355.355 510.635 330.181 510.635C305.007 510.635 284.599 531.07 284.599 556.278Z"/>
            <path d="M233.546 297.633C208.372 297.633 187.964 277.198 187.964 251.99C187.964 226.781 208.372 206.346 233.546 206.346C258.721 206.346 279.129 226.781 279.129 251.99C279.129 277.198 258.721 297.633 233.546 297.633Z"/>
            <path d="M187.964 454.849C187.964 480.057 208.372 500.492 233.546 500.492C258.721 500.492 279.129 480.057 279.129 454.849C279.129 429.641 258.721 409.205 233.546 409.205C208.372 409.205 187.964 429.641 187.964 454.849Z"/>
            <path d="M233.546 702.083C208.372 702.083 187.964 681.648 187.964 656.44C187.964 631.232 208.372 610.797 233.546 610.797C258.721 610.797 279.129 631.232 279.129 656.44C279.129 681.648 258.721 702.083 233.546 702.083Z"/>
            <path d="M128.018 402.866C102.843 402.866 82.4355 382.431 82.4355 357.223C82.4355 332.015 102.843 311.579 128.018 311.579C153.192 311.579 173.6 332.015 173.6 357.223C173.6 382.431 153.192 402.866 128.018 402.866Z"/>
            <path d="M82.4355 556.278C82.4355 581.486 102.843 601.922 128.018 601.922C153.192 601.922 173.6 581.486 173.6 556.278C173.6 531.07 153.192 510.635 128.018 510.635C102.843 510.635 82.4355 531.07 82.4355 556.278Z"/>
            <path d="M533.548 702.013C508.374 702.013 487.966 681.578 487.966 656.37C487.966 631.161 508.374 610.726 533.548 610.726C545.733 610.726 558.983 609.41 567.597 600.78L579.771 588.584C587.886 580.455 589.328 568.055 589.328 556.561C589.328 531.353 609.736 510.918 634.91 510.918C660.085 510.918 680.492 531.353 680.492 556.561C680.492 581.769 660.085 602.204 634.91 602.204C622.057 602.204 607.976 603.372 598.889 612.474L589.045 622.336C580.446 630.951 579.13 644.19 579.13 656.37C579.13 681.578 558.722 702.013 533.548 702.013Z"/>
            <path d="M432.18 196.203C407.006 196.203 386.598 175.768 386.598 150.56C386.598 125.352 407.006 104.917 432.18 104.917C457.354 104.917 477.762 125.352 477.762 150.56C477.762 175.768 457.354 196.203 432.18 196.203Z"/>
            <path d="M398.238 409.131C406.827 400.527 420.031 399.204 432.18 399.204C457.354 399.204 477.762 378.768 477.762 353.56C477.762 328.352 457.354 307.917 432.18 307.917C418.459 307.917 403.277 306.981 393.577 297.264L387.028 290.704C377.331 280.99 376.399 265.794 376.399 252.06C376.399 226.852 355.991 206.417 330.817 206.417C305.643 206.417 285.235 226.852 285.235 252.06C285.235 277.268 305.643 297.703 330.817 297.703C341.362 297.703 352.624 299.281 360.078 306.749L377.574 324.276C385.025 331.739 386.598 343.008 386.598 353.56C386.598 365.776 385.289 379.061 376.665 387.701L364.925 399.461C356.296 408.105 343.022 409.417 330.817 409.417C305.643 409.417 285.235 429.853 285.235 455.061C285.235 480.269 305.643 500.704 330.817 500.704C355.991 500.704 376.399 480.269 376.399 455.061C376.399 442.901 377.719 429.687 386.304 421.087L398.238 409.131Z"/>
            <path d="M893.207 455.061C893.207 480.269 913.615 500.704 938.789 500.704C963.963 500.704 984.371 480.269 984.371 455.061C984.371 429.853 963.963 409.417 938.789 409.417C926.069 409.417 912.156 408.218 903.163 399.21L893.192 389.221C884.204 380.217 883.008 366.292 883.008 353.56C883.008 328.352 862.6 307.917 837.426 307.917C812.252 307.917 791.844 328.352 791.844 353.56C791.844 378.768 812.252 399.204 837.426 399.204C849.05 399.204 861.611 400.626 869.829 408.858L883.575 422.629C891.788 430.857 893.207 443.427 893.207 455.061Z"/>
            <path d="M330.817 702.013C305.643 702.013 285.235 681.578 285.235 656.37C285.235 631.161 305.643 610.726 330.817 610.726C343.003 610.726 356.252 609.41 364.867 600.78L377.041 588.584C385.156 580.455 386.598 568.055 386.598 556.561C386.598 531.353 407.006 510.918 432.18 510.918C457.354 510.918 477.762 531.353 477.762 556.561C477.762 581.769 457.354 602.204 432.18 602.204C419.327 602.204 405.246 603.372 396.159 612.474L386.314 622.337C377.715 630.951 376.399 644.19 376.399 656.37C376.399 681.578 355.991 702.013 330.817 702.013Z"/>
            <path d="M173.959 184.583C182.555 175.971 183.872 162.736 183.872 150.56C183.872 125.352 204.28 104.917 229.454 104.917C254.628 104.917 275.036 125.352 275.036 150.56C275.036 175.768 254.628 196.203 229.454 196.203C217.265 196.203 204.012 197.519 195.395 206.151L183.598 217.969C174.985 226.597 173.673 239.861 173.673 252.06C173.673 277.268 153.265 297.703 128.091 297.703C102.917 297.703 82.509 277.268 82.509 252.06C82.509 226.852 102.917 206.417 128.091 206.417C140.257 206.417 153.482 205.097 162.082 196.481L173.959 184.583Z"/>
            <path d="M791.844 150.56C791.844 162.736 790.527 175.971 781.931 184.582L770.054 196.481C761.453 205.096 748.229 206.417 736.063 206.417C710.889 206.417 690.481 226.852 690.481 252.06C690.481 277.268 710.889 297.703 736.063 297.703C761.237 297.703 781.645 277.268 781.645 252.06C781.645 239.861 782.957 226.597 791.57 217.968L803.366 206.151C811.983 197.519 825.237 196.203 837.426 196.203C862.6 196.203 883.008 175.768 883.008 150.56C883.008 125.352 862.6 104.917 837.426 104.917C812.252 104.917 791.844 125.352 791.844 150.56Z"/>
            <path d="M736.063 500.704C710.889 500.704 690.481 480.269 690.481 455.061C690.481 429.853 710.889 409.417 736.063 409.417C761.237 409.417 781.645 429.853 781.645 455.061C781.645 469.283 782.428 485.109 792.469 495.168L797.362 500.069C807.406 510.131 823.218 510.918 837.426 510.918C862.6 510.918 883.008 531.353 883.008 556.561C883.008 581.769 862.6 602.204 837.426 602.204C825.317 602.204 812.161 603.536 803.601 612.112L791.159 624.575C783.1 632.649 781.645 644.954 781.645 656.37C781.645 681.578 761.237 702.013 736.063 702.013C710.889 702.013 690.481 681.578 690.481 656.37C690.481 631.161 710.889 610.726 736.063 610.726C748.991 610.726 763.165 609.577 772.304 600.422L781.891 590.818C790.543 582.15 791.844 568.817 791.844 556.561C791.844 546.564 790.215 535.953 783.158 528.883L763.722 509.412C756.659 502.337 746.053 500.704 736.063 500.704Z"/>
        </mask>
        <path d="M579.415 184.583C588.011 175.971 589.328 162.736 589.328 150.56C589.328 125.352 609.736 104.917 634.91 104.917C660.085 104.917 680.492 125.352 680.492 150.56C680.492 175.768 660.085 196.203 634.91 196.203C622.721 196.203 609.468 197.519 600.851 206.151L589.055 217.968C580.442 226.597 579.13 239.861 579.13 252.06C579.13 265.794 580.062 280.99 589.759 290.704L596.307 297.264C606.007 306.981 621.19 307.917 634.91 307.917C660.085 307.917 680.492 328.352 680.492 353.56C680.492 378.768 660.085 399.204 634.91 399.204C609.736 399.204 589.328 378.768 589.328 353.56C589.328 343.008 587.755 331.739 580.305 324.275L562.809 306.749C555.354 299.281 544.093 297.703 533.548 297.703C508.374 297.703 487.966 277.268 487.966 252.06C487.966 226.852 508.374 206.417 533.548 206.417C545.713 206.417 558.938 205.097 567.538 196.481L579.415 184.583Z" fill="url(#paint0_linear_7617_10869)" fill-opacity="0.12"/>
        <path d="M936.671 402.866C911.497 402.866 891.089 382.431 891.089 357.223C891.089 332.015 911.497 311.579 936.671 311.579C961.845 311.579 982.253 332.015 982.253 357.223C982.253 382.431 961.845 402.866 936.671 402.866Z" fill="url(#paint1_linear_7617_10869)" fill-opacity="0.12"/>
        <path d="M891.089 556.278C891.089 581.486 911.497 601.922 936.671 601.922C961.845 601.922 982.253 581.486 982.253 556.278C982.253 531.07 961.845 510.635 936.671 510.635C911.497 510.635 891.089 531.07 891.089 556.278Z" fill="url(#paint2_linear_7617_10869)" fill-opacity="0.12"/>
        <path d="M840.036 297.633C814.862 297.633 794.454 277.198 794.454 251.99C794.454 226.781 814.862 206.346 840.036 206.346C865.211 206.346 885.618 226.781 885.618 251.99C885.618 277.198 865.211 297.633 840.036 297.633Z" fill="url(#paint3_linear_7617_10869)" fill-opacity="0.12"/>
        <path d="M794.454 454.849C794.454 480.057 814.862 500.492 840.036 500.492C865.211 500.492 885.618 480.057 885.618 454.849C885.618 429.641 865.211 409.205 840.036 409.205C814.862 409.205 794.454 429.641 794.454 454.849Z" fill="url(#paint4_linear_7617_10869)" fill-opacity="0.12"/>
        <path d="M840.036 702.083C814.862 702.083 794.454 681.648 794.454 656.44C794.454 631.232 814.862 610.797 840.036 610.797C865.211 610.797 885.618 631.232 885.618 656.44C885.618 681.648 865.211 702.083 840.036 702.083Z" fill="url(#paint5_linear_7617_10869)" fill-opacity="0.12"/>
        <path d="M894.045 150.56C894.045 175.768 914.453 196.203 939.627 196.203C964.802 196.203 985.209 175.768 985.209 150.56C985.209 125.352 964.802 104.917 939.627 104.917C914.453 104.917 894.045 125.352 894.045 150.56Z" fill="url(#paint6_linear_7617_10869)" fill-opacity="0.12"/>
        <path d="M637.873 297.633C612.699 297.633 592.291 277.198 592.291 251.99C592.291 226.781 612.699 206.346 637.873 206.346C663.047 206.346 683.455 226.781 683.455 251.99C683.455 277.198 663.047 297.633 637.873 297.633Z" fill="url(#paint7_linear_7617_10869)" fill-opacity="0.12"/>
        <path d="M592.291 454.849C592.291 480.057 612.699 500.492 637.873 500.492C663.047 500.492 683.455 480.057 683.455 454.849C683.455 429.641 663.047 409.205 637.873 409.205C612.699 409.205 592.291 429.641 592.291 454.849Z" fill="url(#paint8_linear_7617_10869)" fill-opacity="0.12"/>
        <path d="M637.873 702.083C612.699 702.083 592.291 681.648 592.291 656.44C592.291 631.232 612.699 610.797 637.873 610.797C663.047 610.797 683.455 631.232 683.455 656.44C683.455 681.648 663.047 702.083 637.873 702.083Z" fill="url(#paint9_linear_7617_10869)" fill-opacity="0.12"/>
        <path d="M486.762 556.278C486.762 581.486 507.17 601.922 532.344 601.922C557.519 601.922 577.926 581.486 577.926 556.278C577.926 531.07 557.519 510.635 532.344 510.635C507.17 510.635 486.762 531.07 486.762 556.278Z" fill="url(#paint10_linear_7617_10869)" fill-opacity="0.12"/>
        <path d="M435.71 297.633C410.535 297.633 390.128 277.198 390.128 251.99C390.128 226.781 410.535 206.346 435.71 206.346C460.884 206.346 481.292 226.781 481.292 251.99C481.292 277.198 460.884 297.633 435.71 297.633Z" fill="url(#paint11_linear_7617_10869)" fill-opacity="0.12"/>
        <path d="M390.128 454.849C390.128 480.057 410.535 500.492 435.71 500.492C460.884 500.492 481.292 480.057 481.292 454.849C481.292 429.641 460.884 409.205 435.71 409.205C410.535 409.205 390.128 429.641 390.128 454.849Z" fill="url(#paint12_linear_7617_10869)" fill-opacity="0.12"/>
        <path d="M435.71 702.083C410.535 702.083 390.128 681.648 390.128 656.44C390.128 631.232 410.535 610.797 435.71 610.797C460.884 610.797 481.292 631.232 481.292 656.44C481.292 681.648 460.884 702.083 435.71 702.083Z" fill="url(#paint13_linear_7617_10869)" fill-opacity="0.12"/>
        <path d="M489.719 150.56C489.719 175.768 510.126 196.203 535.301 196.203C560.475 196.203 580.883 175.768 580.883 150.56C580.883 125.352 560.475 104.917 535.301 104.917C510.126 104.917 489.719 125.352 489.719 150.56Z" fill="url(#paint14_linear_7617_10869)" fill-opacity="0.12"/>
        <path d="M330.181 402.866C305.007 402.866 284.599 382.431 284.599 357.223C284.599 332.015 305.007 311.579 330.181 311.579C355.355 311.579 375.763 332.015 375.763 357.223C375.763 382.431 355.355 402.866 330.181 402.866Z" fill="url(#paint15_linear_7617_10869)" fill-opacity="0.12"/>
        <path d="M284.599 556.278C284.599 581.486 305.007 601.922 330.181 601.922C355.355 601.922 375.763 581.486 375.763 556.278C375.763 531.07 355.355 510.635 330.181 510.635C305.007 510.635 284.599 531.07 284.599 556.278Z" fill="url(#paint16_linear_7617_10869)" fill-opacity="0.12"/>
        <path d="M233.546 297.633C208.372 297.633 187.964 277.198 187.964 251.99C187.964 226.781 208.372 206.346 233.546 206.346C258.721 206.346 279.129 226.781 279.129 251.99C279.129 277.198 258.721 297.633 233.546 297.633Z" fill="url(#paint17_linear_7617_10869)" fill-opacity="0.12"/>
        <path d="M187.964 454.849C187.964 480.057 208.372 500.492 233.546 500.492C258.721 500.492 279.129 480.057 279.129 454.849C279.129 429.641 258.721 409.205 233.546 409.205C208.372 409.205 187.964 429.641 187.964 454.849Z" fill="url(#paint18_linear_7617_10869)" fill-opacity="0.12"/>
        <path d="M233.546 702.083C208.372 702.083 187.964 681.648 187.964 656.44C187.964 631.232 208.372 610.797 233.546 610.797C258.721 610.797 279.129 631.232 279.129 656.44C279.129 681.648 258.721 702.083 233.546 702.083Z" fill="url(#paint19_linear_7617_10869)" fill-opacity="0.12"/>
        <path d="M128.018 402.866C102.843 402.866 82.4355 382.431 82.4355 357.223C82.4355 332.015 102.843 311.579 128.018 311.579C153.192 311.579 173.6 332.015 173.6 357.223C173.6 382.431 153.192 402.866 128.018 402.866Z" fill="url(#paint20_linear_7617_10869)" fill-opacity="0.12"/>
        <path d="M82.4355 556.278C82.4355 581.486 102.843 601.922 128.018 601.922C153.192 601.922 173.6 581.486 173.6 556.278C173.6 531.07 153.192 510.635 128.018 510.635C102.843 510.635 82.4355 531.07 82.4355 556.278Z" fill="url(#paint21_linear_7617_10869)" fill-opacity="0.12"/>
        <path d="M533.548 702.013C508.374 702.013 487.966 681.578 487.966 656.37C487.966 631.161 508.374 610.726 533.548 610.726C545.733 610.726 558.983 609.41 567.597 600.78L579.771 588.584C587.886 580.455 589.328 568.055 589.328 556.561C589.328 531.353 609.736 510.918 634.91 510.918C660.085 510.918 680.492 531.353 680.492 556.561C680.492 581.769 660.085 602.204 634.91 602.204C622.057 602.204 607.976 603.372 598.889 612.474L589.045 622.336C580.446 630.951 579.13 644.19 579.13 656.37C579.13 681.578 558.722 702.013 533.548 702.013Z" fill="url(#paint22_linear_7617_10869)" fill-opacity="0.12"/>
        <path d="M432.18 196.203C407.006 196.203 386.598 175.768 386.598 150.56C386.598 125.352 407.006 104.917 432.18 104.917C457.354 104.917 477.762 125.352 477.762 150.56C477.762 175.768 457.354 196.203 432.18 196.203Z" fill="url(#paint23_linear_7617_10869)" fill-opacity="0.12"/>
        <path d="M398.238 409.131C406.827 400.527 420.031 399.204 432.18 399.204C457.354 399.204 477.762 378.768 477.762 353.56C477.762 328.352 457.354 307.917 432.18 307.917C418.459 307.917 403.277 306.981 393.577 297.264L387.028 290.704C377.331 280.99 376.399 265.794 376.399 252.06C376.399 226.852 355.991 206.417 330.817 206.417C305.643 206.417 285.235 226.852 285.235 252.06C285.235 277.268 305.643 297.703 330.817 297.703C341.362 297.703 352.624 299.281 360.078 306.749L377.574 324.276C385.025 331.739 386.598 343.008 386.598 353.56C386.598 365.776 385.289 379.061 376.665 387.701L364.925 399.461C356.296 408.105 343.022 409.417 330.817 409.417C305.643 409.417 285.235 429.853 285.235 455.061C285.235 480.269 305.643 500.704 330.817 500.704C355.991 500.704 376.399 480.269 376.399 455.061C376.399 442.901 377.719 429.687 386.304 421.087L398.238 409.131Z" fill="url(#paint24_linear_7617_10869)" fill-opacity="0.12"/>
        <path d="M893.207 455.061C893.207 480.269 913.615 500.704 938.789 500.704C963.963 500.704 984.371 480.269 984.371 455.061C984.371 429.853 963.963 409.417 938.789 409.417C926.069 409.417 912.156 408.218 903.163 399.21L893.192 389.221C884.204 380.217 883.008 366.292 883.008 353.56C883.008 328.352 862.6 307.917 837.426 307.917C812.252 307.917 791.844 328.352 791.844 353.56C791.844 378.768 812.252 399.204 837.426 399.204C849.05 399.204 861.611 400.626 869.829 408.858L883.575 422.629C891.788 430.857 893.207 443.427 893.207 455.061Z" fill="url(#paint25_linear_7617_10869)" fill-opacity="0.12"/>
        <path d="M330.817 702.013C305.643 702.013 285.235 681.578 285.235 656.37C285.235 631.161 305.643 610.726 330.817 610.726C343.003 610.726 356.252 609.41 364.867 600.78L377.041 588.584C385.156 580.455 386.598 568.055 386.598 556.561C386.598 531.353 407.006 510.918 432.18 510.918C457.354 510.918 477.762 531.353 477.762 556.561C477.762 581.769 457.354 602.204 432.18 602.204C419.327 602.204 405.246 603.372 396.159 612.474L386.314 622.337C377.715 630.951 376.399 644.19 376.399 656.37C376.399 681.578 355.991 702.013 330.817 702.013Z" fill="url(#paint26_linear_7617_10869)" fill-opacity="0.12"/>
        <path d="M173.959 184.583C182.555 175.971 183.872 162.736 183.872 150.56C183.872 125.352 204.28 104.917 229.454 104.917C254.628 104.917 275.036 125.352 275.036 150.56C275.036 175.768 254.628 196.203 229.454 196.203C217.265 196.203 204.012 197.519 195.395 206.151L183.598 217.969C174.985 226.597 173.673 239.861 173.673 252.06C173.673 277.268 153.265 297.703 128.091 297.703C102.917 297.703 82.509 277.268 82.509 252.06C82.509 226.852 102.917 206.417 128.091 206.417C140.257 206.417 153.482 205.097 162.082 196.481L173.959 184.583Z" fill="url(#paint27_linear_7617_10869)" fill-opacity="0.12"/>
        <path d="M791.844 150.56C791.844 162.736 790.527 175.971 781.931 184.582L770.054 196.481C761.453 205.096 748.229 206.417 736.063 206.417C710.889 206.417 690.481 226.852 690.481 252.06C690.481 277.268 710.889 297.703 736.063 297.703C761.237 297.703 781.645 277.268 781.645 252.06C781.645 239.861 782.957 226.597 791.57 217.968L803.366 206.151C811.983 197.519 825.237 196.203 837.426 196.203C862.6 196.203 883.008 175.768 883.008 150.56C883.008 125.352 862.6 104.917 837.426 104.917C812.252 104.917 791.844 125.352 791.844 150.56Z" fill="url(#paint28_linear_7617_10869)" fill-opacity="0.12"/>
        <path d="M736.063 500.704C710.889 500.704 690.481 480.269 690.481 455.061C690.481 429.853 710.889 409.417 736.063 409.417C761.237 409.417 781.645 429.853 781.645 455.061C781.645 469.283 782.428 485.109 792.469 495.168L797.362 500.069C807.406 510.131 823.218 510.918 837.426 510.918C862.6 510.918 883.008 531.353 883.008 556.561C883.008 581.769 862.6 602.204 837.426 602.204C825.317 602.204 812.161 603.536 803.601 612.112L791.159 624.575C783.1 632.649 781.645 644.954 781.645 656.37C781.645 681.578 761.237 702.013 736.063 702.013C710.889 702.013 690.481 681.578 690.481 656.37C690.481 631.161 710.889 610.726 736.063 610.726C748.991 610.726 763.165 609.577 772.304 600.422L781.891 590.818C790.543 582.15 791.844 568.817 791.844 556.561C791.844 546.564 790.215 535.953 783.158 528.883L763.722 509.412C756.659 502.337 746.053 500.704 736.063 500.704Z" fill="url(#paint29_linear_7617_10869)" fill-opacity="0.12"/>
        <path d="M162.14 399.471L162.472 399.803L162.14 399.471ZM173.949 387.642L173.617 387.311L173.949 387.642ZM195.453 409.142L195.121 408.81L195.453 409.142ZM183.588 421.028L183.92 421.359L183.588 421.028ZM195.629 612.112L195.961 612.443L195.629 612.112ZM164.333 600.421L164.001 600.09L164.333 600.421ZM173.919 590.819L174.251 591.15L173.919 590.819ZM149.091 507.815L148.759 508.146L149.091 507.815ZM183.187 624.576L182.856 624.245L183.187 624.576ZM968.051 306.749L967.719 307.08L968.051 306.749ZM972.78 196.481L973.111 196.812L972.78 196.481ZM984.657 184.582L984.325 184.251L984.657 184.582ZM972.838 600.78L973.17 601.111L972.838 600.78ZM985.546 324.275L985.878 323.944L985.546 324.275ZM176.781 535.554L177.113 535.223L176.781 535.554ZM228.467 510.928L228.457 510.46L228.467 510.928ZM184.409 500.153L184.74 499.822L184.409 500.153ZM985.013 588.583L984.681 588.252L985.013 588.583ZM173.663 456.056L174.131 456.066L173.663 456.056ZM688.457 357.223C688.457 382.689 709.074 403.335 734.508 403.335V402.397C709.593 402.397 689.394 382.173 689.394 357.223H688.457ZM734.508 311.111C709.074 311.111 688.457 331.756 688.457 357.223H689.394C689.394 332.273 709.593 312.048 734.508 312.048V311.111ZM780.558 357.223C780.558 331.756 759.941 311.111 734.508 311.111V312.048C759.422 312.048 779.621 332.273 779.621 357.223H780.558ZM734.508 403.335C759.941 403.335 780.558 382.689 780.558 357.223H779.621C779.621 382.173 759.422 402.397 734.508 402.397V403.335ZM734.508 601.453C709.593 601.453 689.394 581.228 689.394 556.278H688.457C688.457 581.745 709.074 602.39 734.508 602.39V601.453ZM779.621 556.278C779.621 581.228 759.422 601.453 734.508 601.453V602.39C759.941 602.39 780.558 581.745 780.558 556.278H779.621ZM734.508 511.104C759.422 511.104 779.621 531.329 779.621 556.278H780.558C780.558 530.812 759.941 510.166 734.508 510.166V511.104ZM689.394 556.278C689.394 531.329 709.593 511.104 734.508 511.104V510.166C709.074 510.166 688.457 530.812 688.457 556.278H689.394ZM737.464 195.735C712.549 195.735 692.351 175.51 692.351 150.56H691.413C691.413 176.026 712.03 196.672 737.464 196.672V195.735ZM782.577 150.56C782.577 175.51 762.379 195.735 737.464 195.735V196.672C762.898 196.672 783.515 176.026 783.515 150.56H782.577ZM737.464 105.385C762.379 105.385 782.577 125.61 782.577 150.56H783.515C783.515 125.094 762.898 104.448 737.464 104.448V105.385ZM692.351 150.56C692.351 125.61 712.549 105.385 737.464 105.385V104.448C712.03 104.448 691.413 125.094 691.413 150.56H692.351ZM333.137 195.735C308.223 195.735 288.024 175.51 288.024 150.56H287.087C287.087 176.026 307.704 196.672 333.137 196.672V195.735ZM378.251 150.56C378.251 175.51 358.052 195.735 333.137 195.735V196.672C358.571 196.672 379.188 176.026 379.188 150.56H378.251ZM333.137 105.385C358.052 105.385 378.251 125.61 378.251 150.56H379.188C379.188 125.094 358.571 104.448 333.137 104.448V105.385ZM288.024 150.56C288.024 125.61 308.223 105.385 333.137 105.385V104.448C307.704 104.448 287.087 125.094 287.087 150.56H288.024ZM973.111 196.812L984.989 184.913L984.325 184.251L972.448 196.15L973.111 196.812ZM893.676 252.06C893.676 227.11 913.874 206.886 938.789 206.886V205.948C913.355 205.948 892.738 226.594 892.738 252.06H893.676ZM938.789 297.235C913.874 297.235 893.676 277.01 893.676 252.06H892.738C892.738 277.527 913.355 298.172 938.789 298.172V297.235ZM985.878 323.944L968.383 306.418L967.719 307.08L985.215 324.607L985.878 323.944ZM938.789 701.544C913.874 701.544 893.676 681.319 893.676 656.37H892.738C892.738 681.836 913.355 702.482 938.789 702.482V701.544ZM983.902 656.37C983.902 681.319 963.704 701.544 938.789 701.544V702.482C964.223 702.482 984.84 681.836 984.84 656.37H983.902ZM973.17 601.111L985.345 588.914L984.681 588.252L972.506 600.449L973.17 601.111ZM893.676 656.37C893.676 631.42 913.874 611.195 938.789 611.195V610.257C913.355 610.257 892.738 630.903 892.738 656.37H893.676ZM128.091 500.235C103.176 500.235 82.9777 480.011 82.9777 455.061H82.0402C82.0402 480.527 102.657 501.173 128.091 501.173V500.235ZM177.113 535.223L149.423 507.484L148.759 508.146L176.449 535.886L177.113 535.223ZM164.665 600.753L174.251 591.15L173.587 590.487L164.001 600.09L164.665 600.753ZM82.9777 656.37C82.9777 631.42 103.176 611.195 128.091 611.195V610.257C102.657 610.257 82.0402 630.903 82.0402 656.37H82.9777ZM128.091 701.544C103.176 701.544 82.9777 681.319 82.9777 656.37H82.0402C82.0402 681.836 102.657 702.482 128.091 702.482V701.544ZM173.205 656.37C173.205 681.319 153.006 701.544 128.091 701.544V702.482C153.525 702.482 174.142 681.836 174.142 656.37H173.205ZM195.298 611.781L182.856 624.245L183.519 624.907L195.961 612.443L195.298 611.781ZM274.568 556.561C274.568 581.511 254.369 601.736 229.454 601.736V602.673C254.888 602.673 275.505 582.027 275.505 556.561H274.568ZM229.454 511.386C254.369 511.386 274.568 531.611 274.568 556.561H275.505C275.505 531.095 254.888 510.449 229.454 510.449V511.386ZM228.477 511.397C228.802 511.39 229.128 511.386 229.454 511.386V510.449C229.121 510.449 228.789 510.452 228.457 510.46L228.477 511.397ZM173.205 455.061C173.205 455.39 173.201 455.719 173.194 456.046L174.131 456.066C174.138 455.732 174.142 455.397 174.142 455.061H173.205ZM195.121 408.81L183.256 420.697L183.92 421.359L195.785 409.473L195.121 408.81ZM274.568 353.56C274.568 378.51 254.369 398.735 229.454 398.735V399.672C254.888 399.672 275.505 379.027 275.505 353.56H274.568ZM229.454 308.386C254.369 308.386 274.568 328.611 274.568 353.56H275.505C275.505 328.094 254.888 307.448 229.454 307.448V308.386ZM184.341 353.56C184.341 328.611 204.539 308.386 229.454 308.386V307.448C204.02 307.448 183.403 328.094 183.403 353.56H184.341ZM162.472 399.803L174.281 387.973L173.617 387.311L161.809 399.14L162.472 399.803ZM82.9777 455.061C82.9777 430.111 103.176 409.886 128.091 409.886V408.949C102.657 408.949 82.0402 429.594 82.0402 455.061H82.9777ZM161.809 399.14C153.343 407.621 140.28 408.949 128.091 408.949V409.886C140.273 409.886 153.708 408.582 162.472 399.803L161.809 399.14ZM183.403 353.56C183.403 365.76 182.079 378.834 173.617 387.311L174.281 387.973C183.04 379.198 184.341 365.753 184.341 353.56H183.403ZM195.785 409.473C204.239 401.004 217.282 399.672 229.454 399.672V398.735C217.288 398.735 203.873 400.043 195.121 408.81L195.785 409.473ZM174.142 455.061C174.142 442.878 175.47 429.824 183.92 421.359L183.256 420.697C174.509 429.46 173.205 442.885 173.205 455.061H174.142ZM195.961 612.443C204.373 604.016 217.342 602.673 229.454 602.673V601.736C217.348 601.736 204.007 603.056 195.298 611.781L195.961 612.443ZM164.001 600.09C155.014 609.094 141.032 610.257 128.091 610.257V611.195C141.006 611.195 155.373 610.061 164.665 600.753L164.001 600.09ZM183.403 556.561C183.403 568.821 182.091 581.969 173.587 590.487L174.251 591.15C183.052 582.332 184.341 568.812 184.341 556.561H183.403ZM128.091 501.173C135.696 501.173 143.476 502.853 148.759 508.146L149.423 507.484C143.881 501.932 135.798 500.235 128.091 500.235V501.173ZM174.142 656.37C174.142 644.96 175.606 632.835 183.519 624.907L182.856 624.245C174.651 632.464 173.205 644.948 173.205 656.37H174.142ZM984.84 252.06C984.84 239.857 986.164 226.779 994.628 218.299L993.964 217.637C985.202 226.415 983.902 239.864 983.902 252.06H984.84ZM984.84 656.37C984.84 644.186 986.168 631.133 994.618 622.667L993.954 622.005C985.207 630.769 983.902 644.193 983.902 656.37H984.84ZM938.789 298.172C949.317 298.172 960.407 299.754 967.719 307.08L968.383 306.418C960.785 298.807 949.351 297.235 938.789 297.235V298.172ZM972.448 196.15C963.997 204.616 950.958 205.948 938.789 205.948V206.886C950.951 206.886 964.362 205.577 973.111 196.812L972.448 196.15ZM994.101 150.56C994.101 162.739 992.773 175.789 984.325 184.251L984.989 184.913C993.734 176.153 995.039 162.733 995.039 150.56H994.101ZM972.506 600.449C964.041 608.929 950.978 610.257 938.789 610.257V611.195C950.971 611.195 964.406 609.89 973.17 601.111L972.506 600.449ZM995.331 290.372C985.79 280.814 984.84 265.818 984.84 252.06H983.902C983.902 265.77 984.817 281.166 994.668 291.034L995.331 290.372ZM985.215 324.607C992.523 331.928 994.101 343.024 994.101 353.56H995.039C995.039 342.991 993.47 331.55 985.878 323.944L985.215 324.607ZM176.449 535.886C181.727 541.172 183.403 548.954 183.403 556.561H184.341C184.341 548.853 182.648 540.768 177.113 535.223L176.449 535.886ZM228.457 510.46C220.706 510.624 212.474 510.673 204.817 509.32C197.165 507.967 190.128 505.219 184.74 499.822L184.077 500.484C189.648 506.065 196.891 508.87 204.654 510.243C212.412 511.614 220.73 511.562 228.477 511.397L228.457 510.46ZM994.101 556.561C994.101 568.05 992.65 580.269 984.681 588.252L985.345 588.914C993.606 580.639 995.039 568.06 995.039 556.561H994.101ZM184.74 499.822C179.355 494.427 176.615 487.384 175.266 479.725C173.916 472.062 173.966 463.824 174.131 456.066L173.194 456.046C173.028 463.8 172.975 472.123 174.342 479.888C175.711 487.656 178.509 494.906 184.077 500.484L184.74 499.822ZM763.722 509.412L763.058 510.074L763.722 509.412ZM783.158 528.883L783.821 528.22L783.158 528.883ZM803.601 612.112L804.264 612.774L803.601 612.112ZM797.362 500.069L796.698 500.732L797.362 500.069ZM792.469 495.168L793.133 494.506L792.469 495.168ZM598.889 612.474L599.553 613.137L598.889 612.474ZM781.931 184.582L781.267 183.92L781.931 184.582ZM162.082 196.481L161.419 195.818L162.082 196.481ZM183.598 217.969L182.935 217.307L183.598 217.969ZM173.959 184.583L174.622 185.245L173.959 184.583ZM396.159 612.474L396.822 613.137L396.159 612.474ZM589.055 217.968L588.391 217.306L589.055 217.968ZM377.041 588.584L376.378 587.922L377.041 588.584ZM600.851 206.151L601.514 206.814L600.851 206.151ZM364.867 600.78L365.53 601.442L364.867 600.78ZM386.304 421.087L386.967 421.749L386.304 421.087ZM364.925 399.461L364.262 398.799L364.925 399.461ZM376.665 387.701L377.328 388.363V388.363L376.665 387.701ZM803.366 206.151L804.029 206.814L803.366 206.151ZM377.574 324.276L378.238 323.614L377.574 324.276ZM791.57 217.968L790.907 217.306L791.57 217.968ZM360.078 306.749L360.742 306.087L360.078 306.749ZM770.054 196.481L770.717 197.143L770.054 196.481ZM387.028 290.704L387.691 290.041L387.028 290.704ZM393.577 297.264L392.913 297.927L393.577 297.264ZM398.238 409.131L397.575 408.469L398.238 409.131ZM195.395 206.151L196.058 206.813L195.395 206.151ZM772.304 600.422L771.641 599.759L772.304 600.422ZM567.538 196.481L568.202 197.143L567.538 196.481ZM386.314 622.337L385.651 621.675L386.314 622.337ZM791.159 624.575L790.496 623.913L791.159 624.575ZM580.305 324.275L580.968 323.613L580.305 324.275ZM883.575 422.629L882.911 423.292V423.292L883.575 422.629ZM589.045 622.336L588.381 621.674L589.045 622.336ZM893.192 389.221L892.529 389.883L893.192 389.221ZM579.771 588.584L580.435 589.246L579.771 588.584ZM903.163 399.21L903.827 398.548L903.163 399.21ZM567.597 600.78L566.933 600.118L567.597 600.78ZM781.891 590.818L782.554 591.48L781.891 590.818ZM869.829 408.858L870.492 408.196L869.829 408.858ZM562.809 306.749L562.146 307.411L562.809 306.749ZM596.307 297.264L595.644 297.927L596.307 297.264ZM579.415 184.583L578.752 183.921H578.752L579.415 184.583ZM589.759 290.704L590.422 290.041L589.759 290.704ZM634.91 103.979C609.217 103.979 588.391 124.835 588.391 150.56H590.266C590.266 125.868 610.255 105.854 634.91 105.854V103.979ZM681.43 150.56C681.43 124.835 660.604 103.979 634.91 103.979V105.854C659.566 105.854 679.555 125.868 679.555 150.56H681.43ZM634.91 197.141C660.604 197.141 681.43 176.285 681.43 150.56H679.555C679.555 175.252 659.566 195.266 634.91 195.266V197.141ZM589.718 218.631L601.514 206.814L600.187 205.489L588.391 217.306L589.718 218.631ZM596.971 296.602L590.422 290.041L589.095 291.366L595.644 297.927L596.971 296.602ZM681.43 353.56C681.43 327.836 660.604 306.98 634.91 306.98V308.854C659.566 308.854 679.555 328.869 679.555 353.56H681.43ZM634.91 400.141C660.604 400.141 681.43 379.285 681.43 353.56H679.555C679.555 378.252 659.566 398.266 634.91 398.266V400.141ZM588.391 353.56C588.391 379.285 609.217 400.141 634.91 400.141V398.266C610.255 398.266 590.266 378.252 590.266 353.56H588.391ZM562.146 307.411L579.641 324.938L580.968 323.613L563.473 306.087L562.146 307.411ZM487.028 252.06C487.028 277.785 507.855 298.641 533.548 298.641V296.766C508.893 296.766 488.903 276.752 488.903 252.06H487.028ZM533.548 205.479C507.855 205.479 487.028 226.335 487.028 252.06H488.903C488.903 227.369 508.893 207.354 533.548 207.354V205.479ZM578.752 183.921L566.875 195.819L568.202 197.143L580.078 185.245L578.752 183.921ZM890.151 357.223C890.151 382.947 910.978 403.804 936.671 403.804V401.929C912.016 401.929 892.026 381.914 892.026 357.223H890.151ZM936.671 310.642C910.978 310.642 890.151 331.498 890.151 357.223H892.026C892.026 332.531 912.016 312.517 936.671 312.517V310.642ZM983.19 357.223C983.19 331.498 962.364 310.642 936.671 310.642V312.517C961.326 312.517 981.316 332.531 981.316 357.223H983.19ZM936.671 403.804C962.364 403.804 983.19 382.947 983.19 357.223H981.316C981.316 381.914 961.326 401.929 936.671 401.929V403.804ZM936.671 600.984C912.016 600.984 892.026 580.97 892.026 556.278H890.151C890.151 582.003 910.978 602.859 936.671 602.859V600.984ZM981.316 556.278C981.316 580.97 961.326 600.984 936.671 600.984V602.859C962.364 602.859 983.19 582.003 983.19 556.278H981.316ZM936.671 511.573C961.326 511.573 981.316 531.587 981.316 556.278H983.19C983.19 530.554 962.364 509.698 936.671 509.698V511.573ZM892.026 556.278C892.026 531.587 912.016 511.573 936.671 511.573V509.698C910.978 509.698 890.151 530.554 890.151 556.278H892.026ZM793.517 251.99C793.517 277.714 814.343 298.57 840.036 298.57V296.695C815.381 296.695 795.392 276.681 795.392 251.99H793.517ZM840.036 205.409C814.343 205.409 793.517 226.265 793.517 251.99H795.392C795.392 227.298 815.381 207.284 840.036 207.284V205.409ZM886.556 251.99C886.556 226.265 865.73 205.409 840.036 205.409V207.284C864.692 207.284 884.681 227.298 884.681 251.99H886.556ZM840.036 298.57C865.73 298.57 886.556 277.714 886.556 251.99H884.681C884.681 276.681 864.692 296.695 840.036 296.695V298.57ZM840.036 499.555C815.381 499.555 795.392 479.54 795.392 454.849H793.517C793.517 480.573 814.343 501.43 840.036 501.43V499.555ZM884.681 454.849C884.681 479.54 864.692 499.555 840.036 499.555V501.43C865.73 501.43 886.556 480.573 886.556 454.849H884.681ZM840.036 410.143C864.692 410.143 884.681 430.157 884.681 454.849H886.556C886.556 429.124 865.73 408.268 840.036 408.268V410.143ZM795.392 454.849C795.392 430.157 815.381 410.143 840.036 410.143V408.268C814.343 408.268 793.517 429.124 793.517 454.849H795.392ZM793.517 656.44C793.517 682.165 814.343 703.021 840.036 703.021V701.146C815.381 701.146 795.392 681.132 795.392 656.44H793.517ZM840.036 609.859C814.343 609.859 793.517 630.715 793.517 656.44H795.392C795.392 631.749 815.381 611.734 840.036 611.734V609.859ZM886.556 656.44C886.556 630.715 865.73 609.859 840.036 609.859V611.734C864.692 611.734 884.681 631.749 884.681 656.44H886.556ZM840.036 703.021C865.73 703.021 886.556 682.165 886.556 656.44H884.681C884.681 681.132 864.692 701.146 840.036 701.146V703.021ZM939.627 195.266C914.972 195.266 894.983 175.252 894.983 150.56H893.108C893.108 176.285 913.934 197.141 939.627 197.141V195.266ZM984.272 150.56C984.272 175.252 964.283 195.266 939.627 195.266V197.141C965.321 197.141 986.147 176.285 986.147 150.56H984.272ZM939.627 105.854C964.283 105.854 984.272 125.868 984.272 150.56H986.147C986.147 124.835 965.321 103.979 939.627 103.979V105.854ZM894.983 150.56C894.983 125.868 914.972 105.854 939.627 105.854V103.979C913.934 103.979 893.108 124.835 893.108 150.56H894.983ZM591.353 251.99C591.353 277.714 612.18 298.57 637.873 298.57V296.695C613.218 296.695 593.228 276.681 593.228 251.99H591.353ZM637.873 205.409C612.18 205.409 591.353 226.265 591.353 251.99H593.228C593.228 227.298 613.218 207.284 637.873 207.284V205.409ZM684.393 251.99C684.393 226.265 663.566 205.409 637.873 205.409V207.284C662.528 207.284 682.518 227.298 682.518 251.99H684.393ZM637.873 298.57C663.566 298.57 684.393 277.714 684.393 251.99H682.518C682.518 276.681 662.528 296.695 637.873 296.695V298.57ZM637.873 499.555C613.218 499.555 593.228 479.54 593.228 454.849H591.353C591.353 480.573 612.18 501.43 637.873 501.43V499.555ZM682.518 454.849C682.518 479.54 662.528 499.555 637.873 499.555V501.43C663.566 501.43 684.393 480.573 684.393 454.849H682.518ZM637.873 410.143C662.528 410.143 682.518 430.157 682.518 454.849H684.393C684.393 429.124 663.566 408.268 637.873 408.268V410.143ZM593.228 454.849C593.228 430.157 613.218 410.143 637.873 410.143V408.268C612.18 408.268 591.353 429.124 591.353 454.849H593.228ZM591.353 656.44C591.353 682.165 612.18 703.021 637.873 703.021V701.146C613.218 701.146 593.228 681.132 593.228 656.44H591.353ZM637.873 609.859C612.18 609.859 591.353 630.715 591.353 656.44H593.228C593.228 631.749 613.218 611.734 637.873 611.734V609.859ZM684.393 656.44C684.393 630.715 663.566 609.859 637.873 609.859V611.734C662.528 611.734 682.518 631.749 682.518 656.44H684.393ZM637.873 703.021C663.566 703.021 684.393 682.165 684.393 656.44H682.518C682.518 681.132 662.528 701.146 637.873 701.146V703.021ZM532.344 600.984C507.689 600.984 487.7 580.97 487.7 556.278H485.825C485.825 582.003 506.651 602.859 532.344 602.859V600.984ZM576.989 556.278C576.989 580.97 557 600.984 532.344 600.984V602.859C558.037 602.859 578.864 582.003 578.864 556.278H576.989ZM532.344 511.573C557 511.573 576.989 531.587 576.989 556.278H578.864C578.864 530.554 558.037 509.698 532.344 509.698V511.573ZM487.7 556.278C487.7 531.587 507.689 511.573 532.344 511.573V509.698C506.651 509.698 485.825 530.554 485.825 556.278H487.7ZM389.19 251.99C389.19 277.714 410.016 298.57 435.71 298.57V296.695C411.054 296.695 391.065 276.681 391.065 251.99H389.19ZM435.71 205.409C410.016 205.409 389.19 226.265 389.19 251.99H391.065C391.065 227.298 411.054 207.284 435.71 207.284V205.409ZM482.229 251.99C482.229 226.265 461.403 205.409 435.71 205.409V207.284C460.365 207.284 480.354 227.298 480.354 251.99H482.229ZM435.71 298.57C461.403 298.57 482.229 277.714 482.229 251.99H480.354C480.354 276.681 460.365 296.695 435.71 296.695V298.57ZM435.71 499.555C411.054 499.555 391.065 479.54 391.065 454.849H389.19C389.19 480.573 410.016 501.43 435.71 501.43V499.555ZM480.354 454.849C480.354 479.54 460.365 499.555 435.71 499.555V501.43C461.403 501.43 482.229 480.573 482.229 454.849H480.354ZM435.71 410.143C460.365 410.143 480.354 430.157 480.354 454.849H482.229C482.229 429.124 461.403 408.268 435.71 408.268V410.143ZM391.065 454.849C391.065 430.157 411.054 410.143 435.71 410.143V408.268C410.016 408.268 389.19 429.124 389.19 454.849H391.065ZM389.19 656.44C389.19 682.165 410.016 703.021 435.71 703.021V701.146C411.054 701.146 391.065 681.132 391.065 656.44H389.19ZM435.71 609.859C410.016 609.859 389.19 630.715 389.19 656.44H391.065C391.065 631.749 411.054 611.734 435.71 611.734V609.859ZM482.229 656.44C482.229 630.715 461.403 609.859 435.71 609.859V611.734C460.365 611.734 480.354 631.749 480.354 656.44H482.229ZM435.71 703.021C461.403 703.021 482.229 682.165 482.229 656.44H480.354C480.354 681.132 460.365 701.146 435.71 701.146V703.021ZM535.301 195.266C510.645 195.266 490.656 175.252 490.656 150.56H488.781C488.781 176.285 509.608 197.141 535.301 197.141V195.266ZM579.945 150.56C579.945 175.252 559.956 195.266 535.301 195.266V197.141C560.994 197.141 581.82 176.285 581.82 150.56H579.945ZM535.301 105.854C559.956 105.854 579.945 125.868 579.945 150.56H581.82C581.82 124.835 560.994 103.979 535.301 103.979V105.854ZM490.656 150.56C490.656 125.868 510.645 105.854 535.301 105.854V103.979C509.608 103.979 488.781 124.835 488.781 150.56H490.656ZM283.661 357.223C283.661 382.947 304.488 403.804 330.181 403.804V401.929C305.526 401.929 285.536 381.914 285.536 357.223H283.661ZM330.181 310.642C304.488 310.642 283.661 331.498 283.661 357.223H285.536C285.536 332.531 305.526 312.517 330.181 312.517V310.642ZM376.701 357.223C376.701 331.498 355.874 310.642 330.181 310.642V312.517C354.836 312.517 374.826 332.531 374.826 357.223H376.701ZM330.181 403.804C355.874 403.804 376.701 382.947 376.701 357.223H374.826C374.826 381.914 354.836 401.929 330.181 401.929V403.804ZM330.181 600.984C305.526 600.984 285.536 580.97 285.536 556.278H283.661C283.661 582.003 304.488 602.859 330.181 602.859V600.984ZM374.826 556.278C374.826 580.97 354.836 600.984 330.181 600.984V602.859C355.874 602.859 376.701 582.003 376.701 556.278H374.826ZM330.181 511.573C354.836 511.573 374.826 531.587 374.826 556.278H376.701C376.701 530.554 355.874 509.698 330.181 509.698V511.573ZM285.536 556.278C285.536 531.587 305.526 511.573 330.181 511.573V509.698C304.488 509.698 283.661 530.554 283.661 556.278H285.536ZM187.027 251.99C187.027 277.714 207.853 298.57 233.546 298.57V296.695C208.891 296.695 188.902 276.681 188.902 251.99H187.027ZM233.546 205.409C207.853 205.409 187.027 226.265 187.027 251.99H188.902C188.902 227.298 208.891 207.284 233.546 207.284V205.409ZM280.066 251.99C280.066 226.265 259.24 205.409 233.546 205.409V207.284C258.202 207.284 278.191 227.298 278.191 251.99H280.066ZM233.546 298.57C259.24 298.57 280.066 277.714 280.066 251.99H278.191C278.191 276.681 258.202 296.695 233.546 296.695V298.57ZM233.546 499.555C208.891 499.555 188.902 479.54 188.902 454.849H187.027C187.027 480.573 207.853 501.43 233.546 501.43V499.555ZM278.191 454.849C278.191 479.54 258.202 499.555 233.546 499.555V501.43C259.24 501.43 280.066 480.573 280.066 454.849H278.191ZM233.546 410.143C258.202 410.143 278.191 430.157 278.191 454.849H280.066C280.066 429.124 259.24 408.268 233.546 408.268V410.143ZM188.902 454.849C188.902 430.157 208.891 410.143 233.546 410.143V408.268C207.853 408.268 187.027 429.124 187.027 454.849H188.902ZM187.027 656.44C187.027 682.165 207.853 703.021 233.546 703.021V701.146C208.891 701.146 188.902 681.132 188.902 656.44H187.027ZM233.546 609.859C207.853 609.859 187.027 630.715 187.027 656.44H188.902C188.902 631.749 208.891 611.734 233.546 611.734V609.859ZM280.066 656.44C280.066 630.715 259.24 609.859 233.546 609.859V611.734C258.202 611.734 278.191 631.749 278.191 656.44H280.066ZM233.546 703.021C259.24 703.021 280.066 682.165 280.066 656.44H278.191C278.191 681.132 258.202 701.146 233.546 701.146V703.021ZM81.4981 357.223C81.4981 382.947 102.325 403.804 128.018 403.804V401.929C103.362 401.929 83.373 381.914 83.373 357.223H81.4981ZM128.018 310.642C102.325 310.642 81.4981 331.498 81.4981 357.223H83.373C83.373 332.531 103.362 312.517 128.018 312.517V310.642ZM174.537 357.223C174.537 331.498 153.711 310.642 128.018 310.642V312.517C152.673 312.517 172.662 332.531 172.662 357.223H174.537ZM128.018 403.804C153.711 403.804 174.537 382.947 174.537 357.223H172.662C172.662 381.914 152.673 401.929 128.018 401.929V403.804ZM128.018 600.984C103.362 600.984 83.373 580.97 83.373 556.278H81.4981C81.4981 582.003 102.325 602.859 128.018 602.859V600.984ZM172.662 556.278C172.662 580.97 152.673 600.984 128.018 600.984V602.859C153.711 602.859 174.537 582.003 174.537 556.278H172.662ZM128.018 511.573C152.673 511.573 172.662 531.587 172.662 556.278H174.537C174.537 530.554 153.711 509.698 128.018 509.698V511.573ZM83.373 556.278C83.373 531.587 103.362 511.573 128.018 511.573V509.698C102.325 509.698 81.4981 530.554 81.4981 556.278H83.373ZM487.028 656.37C487.028 682.094 507.855 702.95 533.548 702.95V701.075C508.893 701.075 488.903 681.061 488.903 656.37H487.028ZM533.548 609.789C507.855 609.789 487.028 630.645 487.028 656.37H488.903C488.903 631.678 508.893 611.664 533.548 611.664V609.789ZM579.108 587.922L566.933 600.118L568.26 601.442L580.435 589.246L579.108 587.922ZM634.91 509.98C609.217 509.98 588.391 530.836 588.391 556.561H590.266C590.266 531.869 610.255 511.855 634.91 511.855V509.98ZM681.43 556.561C681.43 530.836 660.604 509.98 634.91 509.98V511.855C659.566 511.855 679.555 531.869 679.555 556.561H681.43ZM634.91 603.142C660.604 603.142 681.43 582.286 681.43 556.561H679.555C679.555 581.253 659.566 601.267 634.91 601.267V603.142ZM589.708 622.999L599.553 613.137L598.226 611.812L588.381 621.674L589.708 622.999ZM533.548 702.95C559.241 702.95 580.067 682.094 580.067 656.37H578.193C578.193 681.061 558.203 701.075 533.548 701.075V702.95ZM385.66 150.56C385.66 176.285 406.487 197.141 432.18 197.141V195.266C407.525 195.266 387.535 175.252 387.535 150.56H385.66ZM432.18 103.979C406.487 103.979 385.66 124.835 385.66 150.56H387.535C387.535 125.868 407.525 105.854 432.18 105.854V103.979ZM478.7 150.56C478.7 124.835 457.873 103.979 432.18 103.979V105.854C456.835 105.854 476.825 125.868 476.825 150.56H478.7ZM432.18 197.141C457.873 197.141 478.7 176.285 478.7 150.56H476.825C476.825 175.252 456.835 195.266 432.18 195.266V197.141ZM476.825 353.56C476.825 378.252 456.835 398.266 432.18 398.266V400.141C457.873 400.141 478.7 379.285 478.7 353.56H476.825ZM432.18 308.854C456.835 308.854 476.825 328.869 476.825 353.56H478.7C478.7 327.836 457.873 306.98 432.18 306.98V308.854ZM386.364 291.366L392.913 297.927L394.24 296.602L387.691 290.041L386.364 291.366ZM330.817 207.354C355.472 207.354 375.462 227.369 375.462 252.06H377.337C377.337 226.335 356.51 205.479 330.817 205.479V207.354ZM286.172 252.06C286.172 227.369 306.162 207.354 330.817 207.354V205.479C305.124 205.479 284.297 226.335 284.297 252.06H286.172ZM330.817 296.766C306.162 296.766 286.172 276.752 286.172 252.06H284.297C284.297 277.785 305.124 298.641 330.817 298.641V296.766ZM378.238 323.614L360.742 306.087L359.415 307.411L376.911 324.938L378.238 323.614ZM365.589 400.124L377.328 388.363L376.001 387.038L364.262 398.799L365.589 400.124ZM286.172 455.061C286.172 430.369 306.162 410.355 330.817 410.355V408.48C305.124 408.48 284.297 429.336 284.297 455.061H286.172ZM330.817 499.767C306.162 499.767 286.172 479.752 286.172 455.061H284.297C284.297 480.786 305.124 501.642 330.817 501.642V499.767ZM375.462 455.061C375.462 479.752 355.472 499.767 330.817 499.767V501.642C356.51 501.642 377.337 480.786 377.337 455.061H375.462ZM397.575 408.469L385.64 420.425L386.967 421.749L398.902 409.794L397.575 408.469ZM938.789 499.767C914.134 499.767 894.144 479.752 894.144 455.061H892.269C892.269 480.786 913.096 501.642 938.789 501.642V499.767ZM983.434 455.061C983.434 479.752 963.444 499.767 938.789 499.767V501.642C964.482 501.642 985.309 480.786 985.309 455.061H983.434ZM938.789 410.355C963.444 410.355 983.434 430.369 983.434 455.061H985.309C985.309 429.336 964.482 408.48 938.789 408.48V410.355ZM892.529 389.883L902.5 399.872L903.827 398.548L893.856 388.559L892.529 389.883ZM837.426 308.854C862.081 308.854 882.071 328.869 882.071 353.56H883.946C883.946 327.836 863.119 306.98 837.426 306.98V308.854ZM792.781 353.56C792.781 328.869 812.771 308.854 837.426 308.854V306.98C811.733 306.98 790.906 327.836 790.906 353.56H792.781ZM837.426 398.266C812.771 398.266 792.781 378.252 792.781 353.56H790.906C790.906 379.285 811.733 400.141 837.426 400.141V398.266ZM884.238 421.967L870.492 408.196L869.165 409.521L882.911 423.292L884.238 421.967ZM284.297 656.37C284.297 682.094 305.124 702.95 330.817 702.95V701.075C306.162 701.075 286.172 681.061 286.172 656.37H284.297ZM330.817 609.789C305.124 609.789 284.297 630.645 284.297 656.37H286.172C286.172 631.678 306.162 611.664 330.817 611.664V609.789ZM376.378 587.922L364.203 600.118L365.53 601.442L377.704 589.246L376.378 587.922ZM432.18 509.98C406.487 509.98 385.66 530.836 385.66 556.561H387.535C387.535 531.869 407.525 511.855 432.18 511.855V509.98ZM478.7 556.561C478.7 530.836 457.873 509.98 432.18 509.98V511.855C456.835 511.855 476.825 531.869 476.825 556.561H478.7ZM432.18 603.142C457.873 603.142 478.7 582.286 478.7 556.561H476.825C476.825 581.253 456.835 601.267 432.18 601.267V603.142ZM386.977 622.999L396.822 613.137L395.495 611.812L385.651 621.675L386.977 622.999ZM330.817 702.95C356.51 702.95 377.337 682.094 377.337 656.37H375.462C375.462 681.061 355.472 701.075 330.817 701.075V702.95ZM229.454 103.979C203.761 103.979 182.934 124.835 182.934 150.56H184.809C184.809 125.868 204.799 105.854 229.454 105.854V103.979ZM275.974 150.56C275.974 124.835 255.147 103.979 229.454 103.979V105.854C254.109 105.854 274.099 125.868 274.099 150.56H275.974ZM229.454 197.141C255.147 197.141 275.974 176.285 275.974 150.56H274.099C274.099 175.252 254.109 195.266 229.454 195.266V197.141ZM184.262 218.631L196.058 206.813L194.731 205.489L182.935 217.307L184.262 218.631ZM128.091 298.641C153.784 298.641 174.611 277.785 174.611 252.06H172.736C172.736 276.752 152.746 296.766 128.091 296.766V298.641ZM81.5715 252.06C81.5715 277.785 102.398 298.641 128.091 298.641V296.766C103.436 296.766 83.4464 276.752 83.4464 252.06H81.5715ZM128.091 205.479C102.398 205.479 81.5715 226.335 81.5715 252.06H83.4464C83.4464 227.369 103.436 207.354 128.091 207.354V205.479ZM173.295 183.921L161.419 195.818L162.746 197.143L174.622 185.245L173.295 183.921ZM770.717 197.143L782.594 185.245L781.267 183.92L769.39 195.818L770.717 197.143ZM691.418 252.06C691.418 227.369 711.408 207.354 736.063 207.354V205.479C710.37 205.479 689.543 226.335 689.543 252.06H691.418ZM736.063 296.766C711.408 296.766 691.418 276.752 691.418 252.06H689.543C689.543 277.785 710.37 298.641 736.063 298.641V296.766ZM780.708 252.06C780.708 276.752 760.719 296.766 736.063 296.766V298.641C761.756 298.641 782.583 277.785 782.583 252.06H780.708ZM802.703 205.489L790.907 217.306L792.234 218.631L804.029 206.814L802.703 205.489ZM882.071 150.56C882.071 175.252 862.081 195.266 837.426 195.266V197.141C863.119 197.141 883.946 176.285 883.946 150.56H882.071ZM837.426 105.854C862.081 105.854 882.071 125.868 882.071 150.56H883.946C883.946 124.835 863.119 103.979 837.426 103.979V105.854ZM792.781 150.56C792.781 125.868 812.771 105.854 837.426 105.854V103.979C811.733 103.979 790.906 124.835 790.906 150.56H792.781ZM689.543 455.061C689.543 480.786 710.37 501.642 736.063 501.642V499.767C711.408 499.767 691.418 479.752 691.418 455.061H689.543ZM736.063 408.48C710.37 408.48 689.543 429.336 689.543 455.061H691.418C691.418 430.369 711.408 410.355 736.063 410.355V408.48ZM782.583 455.061C782.583 429.336 761.756 408.48 736.063 408.48V410.355C760.719 410.355 780.708 430.369 780.708 455.061H782.583ZM798.025 499.407L793.133 494.506L791.806 495.83L796.698 500.732L798.025 499.407ZM883.946 556.561C883.946 530.836 863.119 509.98 837.426 509.98V511.855C862.081 511.855 882.071 531.869 882.071 556.561H883.946ZM837.426 603.142C863.119 603.142 883.946 582.286 883.946 556.561H882.071C882.071 581.253 862.081 601.267 837.426 601.267V603.142ZM791.823 625.238L804.264 612.774L802.937 611.45L790.496 623.913L791.823 625.238ZM736.063 702.95C761.756 702.95 782.583 682.094 782.583 656.37H780.708C780.708 681.061 760.719 701.075 736.063 701.075V702.95ZM689.543 656.37C689.543 682.094 710.37 702.95 736.063 702.95V701.075C711.408 701.075 691.418 681.061 691.418 656.37H689.543ZM736.063 609.789C710.37 609.789 689.543 630.645 689.543 656.37H691.418C691.418 631.678 711.408 611.664 736.063 611.664V609.789ZM781.227 590.156L771.641 599.759L772.968 601.084L782.554 591.48L781.227 590.156ZM763.058 510.074L782.494 529.545L783.821 528.22L764.385 508.75L763.058 510.074ZM764.385 508.75C757.043 501.394 746.101 499.767 736.063 499.767V501.642C746.006 501.642 756.276 503.279 763.058 510.074L764.385 508.75ZM792.781 556.561C792.781 546.517 791.158 535.57 783.821 528.22L782.494 529.545C789.273 536.335 790.906 546.611 790.906 556.561H792.781ZM837.426 601.267C825.322 601.267 811.796 602.575 802.937 611.45L804.264 612.774C812.527 604.497 825.312 603.142 837.426 603.142V601.267ZM796.698 500.732C801.892 505.934 808.547 508.707 815.641 510.185C822.728 511.66 830.317 511.855 837.426 511.855V509.98C830.328 509.98 822.906 509.782 816.024 508.349C809.149 506.917 802.876 504.266 798.025 499.407L796.698 500.732ZM780.708 455.061C780.708 462.177 780.902 469.773 782.374 476.866C783.847 483.967 786.614 490.629 791.806 495.83L793.133 494.506C788.284 489.648 785.638 483.368 784.21 476.485C782.78 469.595 782.583 462.166 782.583 455.061H780.708ZM634.91 601.267C622.082 601.267 607.616 602.405 598.226 611.812L599.553 613.137C608.336 604.338 622.032 603.142 634.91 603.142V601.267ZM790.906 150.56C790.906 162.743 789.566 175.606 781.267 183.92L782.594 185.245C791.488 176.335 792.781 162.729 792.781 150.56H790.906ZM128.091 207.354C140.25 207.354 153.847 206.058 162.746 197.143L161.419 195.818C153.116 204.136 140.263 205.479 128.091 205.479V207.354ZM182.935 217.307C174.024 226.233 172.736 239.868 172.736 252.06H174.611C174.611 239.853 175.946 226.961 184.262 218.631L182.935 217.307ZM182.934 150.56C182.934 162.743 181.594 175.607 173.295 183.921L174.622 185.245C183.516 176.335 184.809 162.729 184.809 150.56H182.934ZM432.18 601.267C419.351 601.267 404.886 602.405 395.495 611.812L396.822 613.137C405.605 604.338 419.302 603.142 432.18 603.142V601.267ZM588.391 217.306C579.481 226.233 578.193 239.868 578.193 252.06H580.067C580.067 239.853 581.403 226.961 589.718 218.631L588.391 217.306ZM377.704 589.246C386.111 580.824 387.535 568.065 387.535 556.561H385.66C385.66 568.045 384.2 580.085 376.378 587.922L377.704 589.246ZM634.91 195.266C622.729 195.266 609.103 196.558 600.187 205.489L601.514 206.814C609.833 198.48 622.714 197.141 634.91 197.141V195.266ZM330.817 611.664C342.995 611.664 356.617 610.371 365.53 601.442L364.203 600.118C355.887 608.449 343.01 609.789 330.817 609.789V611.664ZM377.337 455.061C377.337 442.895 378.68 430.051 386.967 421.749L385.64 420.425C376.758 429.323 375.462 442.908 375.462 455.061H377.337ZM364.262 398.799C355.932 407.144 343.03 408.48 330.817 408.48V410.355C343.015 410.355 356.661 409.067 365.589 400.124L364.262 398.799ZM385.66 353.56C385.66 365.784 384.328 378.697 376.001 387.038L377.328 388.363C386.251 379.425 387.535 365.768 387.535 353.56H385.66ZM804.029 206.814C812.348 198.48 825.23 197.141 837.426 197.141V195.266C825.244 195.266 811.618 196.558 802.703 205.489L804.029 206.814ZM376.911 324.938C384.077 332.117 385.66 343.041 385.66 353.56H387.535C387.535 342.974 385.972 331.362 378.238 323.614L376.911 324.938ZM782.583 252.06C782.583 239.853 783.918 226.961 792.234 218.631L790.907 217.306C781.996 226.233 780.708 239.868 780.708 252.06H782.583ZM330.817 298.641C341.328 298.641 352.245 300.228 359.415 307.411L360.742 306.087C353.002 298.333 341.396 296.766 330.817 296.766V298.641ZM769.39 195.818C761.088 204.135 748.235 205.479 736.063 205.479V207.354C748.222 207.354 761.818 206.058 770.717 197.143L769.39 195.818ZM387.691 290.041C378.305 280.638 377.337 265.842 377.337 252.06H375.462C375.462 265.746 376.358 281.342 386.364 291.366L387.691 290.041ZM432.18 306.98C418.411 306.98 403.63 306.008 394.24 296.602L392.913 297.927C402.923 307.955 418.507 308.854 432.18 308.854V306.98ZM432.18 398.266C420.037 398.266 406.461 399.566 397.575 408.469L398.902 409.794C407.192 401.488 420.025 400.141 432.18 400.141V398.266ZM229.454 195.266C217.272 195.266 203.647 196.558 194.731 205.489L196.058 206.813C204.377 198.48 217.258 197.141 229.454 197.141V195.266ZM736.063 611.664C748.964 611.664 763.524 610.544 772.968 601.084L771.641 599.759C762.806 608.61 749.017 609.789 736.063 609.789V611.664ZM533.548 207.354C545.707 207.354 559.303 206.058 568.202 197.143L566.875 195.819C558.573 204.135 545.72 205.479 533.548 205.479V207.354ZM385.651 621.675C376.754 630.587 375.462 644.197 375.462 656.37H377.337C377.337 644.183 378.676 631.315 386.977 622.999L385.651 621.675ZM790.496 623.913C782.145 632.279 780.708 644.942 780.708 656.37H782.583C782.583 644.966 784.055 633.02 791.823 625.238L790.496 623.913ZM590.266 353.56C590.266 342.974 588.703 331.361 580.968 323.613L579.641 324.938C586.807 332.117 588.391 343.041 588.391 353.56H590.266ZM882.911 423.292C890.832 431.226 892.269 443.434 892.269 455.061H894.144C894.144 443.42 892.745 430.489 884.238 421.967L882.911 423.292ZM588.381 621.674C579.485 630.586 578.193 644.197 578.193 656.37H580.067C580.067 644.183 581.407 631.315 589.708 622.999L588.381 621.674ZM893.856 388.559C885.169 379.857 883.946 366.313 883.946 353.56H882.071C882.071 366.27 883.238 380.576 892.529 389.883L893.856 388.559ZM580.435 589.246C588.842 580.824 590.266 568.065 590.266 556.561H588.391C588.391 568.045 586.931 580.085 579.108 587.922L580.435 589.246ZM938.789 408.48C926.048 408.48 912.517 407.253 903.827 398.548L902.5 399.872C911.795 409.184 926.09 410.355 938.789 410.355V408.48ZM533.548 611.664C545.726 611.664 559.348 610.371 568.26 601.442L566.933 600.118C558.617 608.449 545.74 609.789 533.548 609.789V611.664ZM782.554 591.48C791.505 582.514 792.781 568.808 792.781 556.561H790.906C790.906 568.826 789.582 581.786 781.227 590.156L782.554 591.48ZM837.426 400.141C849.043 400.141 861.241 401.582 869.165 409.521L870.492 408.196C861.981 399.669 849.057 398.266 837.426 398.266V400.141ZM563.473 306.087C555.733 298.333 544.127 296.766 533.548 296.766V298.641C544.059 298.641 554.976 300.228 562.146 307.411L563.473 306.087ZM595.644 297.927C605.654 307.954 621.238 308.854 634.91 308.854V306.98C621.142 306.98 606.36 306.008 596.971 296.602L595.644 297.927ZM588.391 150.56C588.391 162.743 587.05 175.607 578.752 183.921L580.078 185.245C588.973 176.335 590.266 162.729 590.266 150.56H588.391ZM578.193 252.06C578.193 265.746 579.089 281.342 589.095 291.366L590.422 290.041C581.035 280.638 580.067 265.842 580.067 252.06H578.193Z" fill="url(#paint30_linear_7617_10869)" mask="url(#path-3-inside-1_7617_10869)"/>
    </g>
    <path d="M127.903 502.872C103.056 502.872 82.9045 482.52 82.9045 457.404C82.9045 432.289 103.056 411.937 127.903 411.937C152.75 411.937 172.901 432.289 172.901 457.404C172.901 482.52 152.75 502.872 127.903 502.872Z" stroke="#84FF81" stroke-width="0.937467"/>
    <path d="M233.838 402.562C208.99 402.562 188.839 382.211 188.839 357.095C188.839 331.98 208.99 311.628 233.838 311.628C258.685 311.628 278.836 331.98 278.836 357.095C278.836 382.211 258.685 402.562 233.838 402.562Z" stroke="#FA82FE" stroke-width="0.937467"/>
    <g filter="url(#filter1_b_7617_10869)">
        <ellipse cx="539.451" cy="448.967" rx="45.9359" ry="45.4672" transform="rotate(90 539.451 448.967)" fill="url(#paint31_linear_7617_10869)" fill-opacity="0.12"/>
        <path d="M539.451 494.434C514.603 494.434 494.452 474.083 494.452 448.967C494.452 423.852 514.603 403.5 539.451 403.5C564.298 403.5 584.449 423.852 584.449 448.967C584.449 474.083 564.298 494.434 539.451 494.434Z" stroke="url(#paint32_linear_7617_10869)" stroke-width="0.937467"/>
    </g>
    <path d="M940.687 299.441C915.84 299.441 895.689 279.089 895.689 253.974C895.689 228.859 915.84 208.507 940.687 208.507C965.535 208.507 985.686 228.859 985.686 253.974C985.686 279.089 965.535 299.441 940.687 299.441Z" stroke="#FA82FE" stroke-width="0.937467"/>
    <ellipse cx="128.84" cy="150.853" rx="45.9359" ry="45.4672" transform="rotate(90 128.84 150.853)" fill="#84FF81"/>
    <path d="M730.695 196.32C705.848 196.32 685.697 175.968 685.697 150.853C685.697 125.737 705.848 105.385 730.695 105.385C755.542 105.385 775.693 125.737 775.693 150.853C775.693 175.968 755.542 196.32 730.695 196.32Z" stroke="#84FF81" stroke-width="0.937467"/>
    <path d="M329.459 196.32C304.611 196.32 284.46 175.968 284.46 150.853C284.46 125.737 304.611 105.385 329.459 105.385C354.306 105.385 374.457 125.737 374.457 150.853C374.457 175.968 354.306 196.32 329.459 196.32Z" stroke="#84FF81" stroke-width="0.937467"/>
    <ellipse cx="940.687" cy="656.147" rx="45.9359" ry="45.4672" transform="rotate(90 940.687 656.147)" fill="#84FF81"/>
    <ellipse cx="940.687" cy="150.853" rx="45.9359" ry="45.4672" transform="rotate(90 940.687 150.853)" fill="#FA82FE"/>
    <ellipse cx="127.903" cy="656.147" rx="45.9359" ry="45.4672" transform="rotate(90 127.903 656.147)" fill="#FA82FE"/>
    <path d="M842.254 701.615C817.406 701.615 797.255 681.263 797.255 656.147C797.255 631.032 817.406 610.68 842.254 610.68C867.101 610.68 887.252 631.032 887.252 656.147C887.252 681.263 867.101 701.615 842.254 701.615Z" stroke="#FA82FE" stroke-width="0.937467"/>
    <path d="M438.205 299.441C413.357 299.441 393.206 279.089 393.206 253.974C393.206 228.859 413.357 208.507 438.205 208.507C463.052 208.507 483.203 228.859 483.203 253.974C483.203 279.089 463.052 299.441 438.205 299.441Z" stroke="#FA82FE" stroke-width="0.937467"/>
    <path d="M233.838 609.743C208.99 609.743 188.839 589.391 188.839 564.276C188.839 539.16 208.99 518.808 233.838 518.808C258.685 518.808 278.836 539.16 278.836 564.276C278.836 589.391 258.685 609.743 233.838 609.743Z" stroke="#84FF81" stroke-width="0.937467"/>
    <g filter="url(#filter2_b_7617_10869)">
        <path fill-rule="evenodd" clip-rule="evenodd" d="M495.224 149.192C523.381 132.936 558.071 132.936 586.228 149.192L738.497 237.105C766.654 253.361 783.999 283.404 783.999 315.916V491.742C783.999 524.254 766.654 554.297 738.497 570.553L586.228 658.466C558.071 674.722 523.381 674.722 495.224 658.466L342.955 570.553C314.798 554.297 297.453 524.254 297.453 491.742V315.916C297.453 283.404 314.798 253.361 342.955 237.105L495.224 149.192ZM575.759 167.324L728.029 255.237C735.419 259.504 741.842 265.004 747.098 271.393L571.329 358.974C551.419 368.895 527.917 368.457 508.39 357.802L339.591 265.7C343.699 261.702 348.332 258.177 353.424 255.237L505.693 167.324C527.372 154.808 554.081 154.808 575.759 167.324ZM326.826 282.586C321.38 292.655 318.39 304.073 318.39 315.916V491.742C318.39 516.774 331.745 539.905 353.424 552.421L505.693 640.334C512.977 644.539 520.828 647.332 528.866 648.711V433.214C528.866 408.316 515.268 385.406 493.412 373.481L326.826 282.586ZM549.803 649.131C558.809 647.956 567.637 645.024 575.759 640.334L728.029 552.421C749.707 539.905 763.062 516.774 763.062 491.742V315.916C763.062 306.68 761.244 297.703 757.861 289.422L587.502 374.308C564.403 385.818 549.803 409.404 549.803 435.212V649.131Z" fill="white"/>
    </g>
    <defs>
        <filter id="filter0_b_7617_10869" x="48.4144" y="70.8956" width="970.816" height="665.209" filterUnits="userSpaceOnUse" color-interpolation-filters="sRGB">
            <feFlood flood-opacity="0" result="BackgroundImageFix"/>
            <feGaussianBlur in="BackgroundImageFix" stdDeviation="17.0106"/>
            <feComposite in2="SourceAlpha" operator="in" result="effect1_backgroundBlur_7617_10869"/>
            <feBlend mode="normal" in="SourceGraphic" in2="effect1_backgroundBlur_7617_10869" result="shape"/>
        </filter>
        <filter id="filter1_b_7617_10869" x="459.963" y="369.01" width="158.976" height="159.914" filterUnits="userSpaceOnUse" color-interpolation-filters="sRGB">
            <feFlood flood-opacity="0" result="BackgroundImageFix"/>
            <feGaussianBlur in="BackgroundImageFix" stdDeviation="17.0106"/>
            <feComposite in2="SourceAlpha" operator="in" result="effect1_backgroundBlur_7617_10869"/>
            <feBlend mode="normal" in="SourceGraphic" in2="effect1_backgroundBlur_7617_10869" result="shape"/>
        </filter>
        <filter id="filter2_b_7617_10869" x="265.794" y="105.341" width="549.865" height="596.977" filterUnits="userSpaceOnUse" color-interpolation-filters="sRGB">
            <feFlood flood-opacity="0" result="BackgroundImageFix"/>
            <feGaussianBlur in="BackgroundImageFix" stdDeviation="15.8296"/>
            <feComposite in2="SourceAlpha" operator="in" result="effect1_backgroundBlur_7617_10869"/>
            <feBlend mode="normal" in="SourceGraphic" in2="effect1_backgroundBlur_7617_10869" result="shape"/>
        </filter>
        <linearGradient id="paint0_linear_7617_10869" x1="947.464" y1="421.693" x2="947.464" y2="543.695" gradientUnits="userSpaceOnUse">
            <stop stop-color="white"/>
            <stop offset="1" stop-color="white" stop-opacity="0.6"/>
        </linearGradient>
        <linearGradient id="paint1_linear_7617_10869" x1="947.464" y1="421.693" x2="947.464" y2="543.695" gradientUnits="userSpaceOnUse">
            <stop stop-color="white"/>
            <stop offset="1" stop-color="white" stop-opacity="0.6"/>
        </linearGradient>
        <linearGradient id="paint2_linear_7617_10869" x1="947.464" y1="421.693" x2="947.464" y2="543.695" gradientUnits="userSpaceOnUse">
            <stop stop-color="white"/>
            <stop offset="1" stop-color="white" stop-opacity="0.6"/>
        </linearGradient>
        <linearGradient id="paint3_linear_7617_10869" x1="947.464" y1="421.693" x2="947.464" y2="543.695" gradientUnits="userSpaceOnUse">
            <stop stop-color="white"/>
            <stop offset="1" stop-color="white" stop-opacity="0.6"/>
        </linearGradient>
        <linearGradient id="paint4_linear_7617_10869" x1="947.464" y1="421.693" x2="947.464" y2="543.695" gradientUnits="userSpaceOnUse">
            <stop stop-color="white"/>
            <stop offset="1" stop-color="white" stop-opacity="0.6"/>
        </linearGradient>
        <linearGradient id="paint5_linear_7617_10869" x1="947.464" y1="421.693" x2="947.464" y2="543.695" gradientUnits="userSpaceOnUse">
            <stop stop-color="white"/>
            <stop offset="1" stop-color="white" stop-opacity="0.6"/>
        </linearGradient>
        <linearGradient id="paint6_linear_7617_10869" x1="947.464" y1="421.693" x2="947.464" y2="543.695" gradientUnits="userSpaceOnUse">
            <stop stop-color="white"/>
            <stop offset="1" stop-color="white" stop-opacity="0.6"/>
        </linearGradient>
        <linearGradient id="paint7_linear_7617_10869" x1="947.464" y1="421.693" x2="947.464" y2="543.695" gradientUnits="userSpaceOnUse">
            <stop stop-color="white"/>
            <stop offset="1" stop-color="white" stop-opacity="0.6"/>
        </linearGradient>
        <linearGradient id="paint8_linear_7617_10869" x1="947.464" y1="421.693" x2="947.464" y2="543.695" gradientUnits="userSpaceOnUse">
            <stop stop-color="white"/>
            <stop offset="1" stop-color="white" stop-opacity="0.6"/>
        </linearGradient>
        <linearGradient id="paint9_linear_7617_10869" x1="947.464" y1="421.693" x2="947.464" y2="543.695" gradientUnits="userSpaceOnUse">
            <stop stop-color="white"/>
            <stop offset="1" stop-color="white" stop-opacity="0.6"/>
        </linearGradient>
        <linearGradient id="paint10_linear_7617_10869" x1="947.464" y1="421.693" x2="947.464" y2="543.695" gradientUnits="userSpaceOnUse">
            <stop stop-color="white"/>
            <stop offset="1" stop-color="white" stop-opacity="0.6"/>
        </linearGradient>
        <linearGradient id="paint11_linear_7617_10869" x1="947.464" y1="421.693" x2="947.464" y2="543.695" gradientUnits="userSpaceOnUse">
            <stop stop-color="white"/>
            <stop offset="1" stop-color="white" stop-opacity="0.6"/>
        </linearGradient>
        <linearGradient id="paint12_linear_7617_10869" x1="947.464" y1="421.693" x2="947.464" y2="543.695" gradientUnits="userSpaceOnUse">
            <stop stop-color="white"/>
            <stop offset="1" stop-color="white" stop-opacity="0.6"/>
        </linearGradient>
        <linearGradient id="paint13_linear_7617_10869" x1="947.464" y1="421.693" x2="947.464" y2="543.695" gradientUnits="userSpaceOnUse">
            <stop stop-color="white"/>
            <stop offset="1" stop-color="white" stop-opacity="0.6"/>
        </linearGradient>
        <linearGradient id="paint14_linear_7617_10869" x1="947.464" y1="421.693" x2="947.464" y2="543.695" gradientUnits="userSpaceOnUse">
            <stop stop-color="white"/>
            <stop offset="1" stop-color="white" stop-opacity="0.6"/>
        </linearGradient>
        <linearGradient id="paint15_linear_7617_10869" x1="947.464" y1="421.693" x2="947.464" y2="543.695" gradientUnits="userSpaceOnUse">
            <stop stop-color="white"/>
            <stop offset="1" stop-color="white" stop-opacity="0.6"/>
        </linearGradient>
        <linearGradient id="paint16_linear_7617_10869" x1="947.464" y1="421.693" x2="947.464" y2="543.695" gradientUnits="userSpaceOnUse">
            <stop stop-color="white"/>
            <stop offset="1" stop-color="white" stop-opacity="0.6"/>
        </linearGradient>
        <linearGradient id="paint17_linear_7617_10869" x1="947.464" y1="421.693" x2="947.464" y2="543.695" gradientUnits="userSpaceOnUse">
            <stop stop-color="white"/>
            <stop offset="1" stop-color="white" stop-opacity="0.6"/>
        </linearGradient>
        <linearGradient id="paint18_linear_7617_10869" x1="947.464" y1="421.693" x2="947.464" y2="543.695" gradientUnits="userSpaceOnUse">
            <stop stop-color="white"/>
            <stop offset="1" stop-color="white" stop-opacity="0.6"/>
        </linearGradient>
        <linearGradient id="paint19_linear_7617_10869" x1="947.464" y1="421.693" x2="947.464" y2="543.695" gradientUnits="userSpaceOnUse">
            <stop stop-color="white"/>
            <stop offset="1" stop-color="white" stop-opacity="0.6"/>
        </linearGradient>
        <linearGradient id="paint20_linear_7617_10869" x1="947.464" y1="421.693" x2="947.464" y2="543.695" gradientUnits="userSpaceOnUse">
            <stop stop-color="white"/>
            <stop offset="1" stop-color="white" stop-opacity="0.6"/>
        </linearGradient>
        <linearGradient id="paint21_linear_7617_10869" x1="947.464" y1="421.693" x2="947.464" y2="543.695" gradientUnits="userSpaceOnUse">
            <stop stop-color="white"/>
            <stop offset="1" stop-color="white" stop-opacity="0.6"/>
        </linearGradient>
        <linearGradient id="paint22_linear_7617_10869" x1="947.464" y1="421.693" x2="947.464" y2="543.695" gradientUnits="userSpaceOnUse">
            <stop stop-color="white"/>
            <stop offset="1" stop-color="white" stop-opacity="0.6"/>
        </linearGradient>
        <linearGradient id="paint23_linear_7617_10869" x1="947.464" y1="421.693" x2="947.464" y2="543.695" gradientUnits="userSpaceOnUse">
            <stop stop-color="white"/>
            <stop offset="1" stop-color="white" stop-opacity="0.6"/>
        </linearGradient>
        <linearGradient id="paint24_linear_7617_10869" x1="947.464" y1="421.693" x2="947.464" y2="543.695" gradientUnits="userSpaceOnUse">
            <stop stop-color="white"/>
            <stop offset="1" stop-color="white" stop-opacity="0.6"/>
        </linearGradient>
        <linearGradient id="paint25_linear_7617_10869" x1="947.464" y1="421.693" x2="947.464" y2="543.695" gradientUnits="userSpaceOnUse">
            <stop stop-color="white"/>
            <stop offset="1" stop-color="white" stop-opacity="0.6"/>
        </linearGradient>
        <linearGradient id="paint26_linear_7617_10869" x1="947.464" y1="421.693" x2="947.464" y2="543.695" gradientUnits="userSpaceOnUse">
            <stop stop-color="white"/>
            <stop offset="1" stop-color="white" stop-opacity="0.6"/>
        </linearGradient>
        <linearGradient id="paint27_linear_7617_10869" x1="947.464" y1="421.693" x2="947.464" y2="543.695" gradientUnits="userSpaceOnUse">
            <stop stop-color="white"/>
            <stop offset="1" stop-color="white" stop-opacity="0.6"/>
        </linearGradient>
        <linearGradient id="paint28_linear_7617_10869" x1="947.464" y1="421.693" x2="947.464" y2="543.695" gradientUnits="userSpaceOnUse">
            <stop stop-color="white"/>
            <stop offset="1" stop-color="white" stop-opacity="0.6"/>
        </linearGradient>
        <linearGradient id="paint29_linear_7617_10869" x1="947.464" y1="421.693" x2="947.464" y2="543.695" gradientUnits="userSpaceOnUse">
            <stop stop-color="white"/>
            <stop offset="1" stop-color="white" stop-opacity="0.6"/>
        </linearGradient>
        <linearGradient id="paint30_linear_7617_10869" x1="686.19" y1="104.917" x2="686.19" y2="702.083" gradientUnits="userSpaceOnUse">
            <stop stop-color="white" stop-opacity="0.12"/>
            <stop offset="1" stop-color="#999999" stop-opacity="0.08"/>
        </linearGradient>
        <linearGradient id="paint31_linear_7617_10869" x1="580.601" y1="451.738" x2="580.601" y2="470.316" gradientUnits="userSpaceOnUse">
            <stop stop-color="white"/>
            <stop offset="1" stop-color="white" stop-opacity="0.6"/>
        </linearGradient>
        <linearGradient id="paint32_linear_7617_10869" x1="584.918" y1="463.814" x2="493.984" y2="463.814" gradientUnits="userSpaceOnUse">
            <stop stop-color="white" stop-opacity="0.12"/>
            <stop offset="1" stop-color="#999999" stop-opacity="0.08"/>
        </linearGradient>
    </defs>
</svg>
