<svg width="708" height="531" viewBox="0 0 708 531" fill="none" xmlns="http://www.w3.org/2000/svg">
<path d="M191.791 486.909C205.536 486.909 217.96 487.799 226.931 489.232C231.423 489.949 235.011 490.796 237.458 491.72C238.685 492.183 239.576 492.648 240.145 493.091C240.728 493.547 240.835 493.867 240.835 494.036C240.835 494.204 240.728 494.524 240.145 494.98C239.576 495.423 238.685 495.888 237.458 496.351C235.011 497.275 231.423 498.122 226.931 498.839C217.96 500.272 205.536 501.162 191.791 501.162C178.046 501.162 165.622 500.272 156.651 498.839C152.158 498.122 148.57 497.275 146.124 496.351C144.897 495.888 144.006 495.423 143.437 494.98C142.854 494.524 142.747 494.204 142.747 494.036C142.747 493.867 142.854 493.547 143.437 493.091C144.006 492.648 144.897 492.183 146.124 491.72C148.57 490.796 152.158 489.949 156.651 489.232C165.622 487.799 178.046 486.909 191.791 486.909Z" stroke="#D9D9D9" stroke-width="1.67673"/>
<path d="M298.264 486.909C312.008 486.909 324.433 487.799 333.404 489.232C337.896 489.949 341.484 490.796 343.93 491.72C345.158 492.183 346.049 492.648 346.617 493.091C347.201 493.547 347.308 493.867 347.308 494.036C347.308 494.204 347.201 494.524 346.617 494.98C346.049 495.423 345.158 495.888 343.93 496.351C341.484 497.275 337.896 498.122 333.404 498.839C324.433 500.272 312.008 501.162 298.264 501.162C284.519 501.162 272.095 500.272 263.123 498.839C258.631 498.122 255.043 497.275 252.597 496.351C251.369 495.888 250.479 495.423 249.91 494.98C249.326 494.524 249.219 494.204 249.219 494.036C249.219 493.867 249.326 493.547 249.91 493.091C250.479 492.648 251.369 492.183 252.597 491.72C255.043 490.796 258.631 489.949 263.123 489.232C272.095 487.799 284.519 486.909 298.264 486.909Z" stroke="#84FF81" stroke-width="1.67673"/>
<path d="M404.736 486.909C418.481 486.909 430.905 487.799 439.877 489.232C444.369 489.949 447.957 490.796 450.403 491.72C451.631 492.183 452.521 492.648 453.09 493.091C453.673 493.547 453.781 493.867 453.781 494.036C453.781 494.204 453.673 494.524 453.09 494.98C452.521 495.423 451.631 495.888 450.403 496.351C447.957 497.275 444.369 498.122 439.877 498.839C430.905 500.272 418.481 501.162 404.736 501.162C390.992 501.162 378.567 500.272 369.596 498.839C365.104 498.122 361.516 497.275 359.07 496.351C357.842 495.888 356.951 495.423 356.383 494.98C355.799 494.524 355.692 494.204 355.692 494.036C355.692 493.867 355.799 493.547 356.383 493.091C356.951 492.648 357.842 492.183 359.07 491.72C361.516 490.796 365.104 489.949 369.596 489.232C378.567 487.799 390.992 486.909 404.736 486.909Z" stroke="#D9D9D9" stroke-width="1.67673"/>
<path d="M511.209 486.909C524.954 486.909 537.378 487.799 546.349 489.232C550.841 489.949 554.429 490.796 556.876 491.72C558.103 492.183 558.994 492.648 559.563 493.091C560.146 493.547 560.253 493.867 560.253 494.036C560.253 494.204 560.146 494.524 559.563 494.98C558.994 495.423 558.103 495.888 556.876 496.351C554.429 497.275 550.841 498.122 546.349 498.839C537.378 500.272 524.954 501.162 511.209 501.162C497.464 501.162 485.04 500.272 476.069 498.839C471.576 498.122 467.988 497.275 465.542 496.351C464.315 495.888 463.424 495.423 462.855 494.98C462.272 494.524 462.165 494.204 462.165 494.036C462.165 493.867 462.272 493.547 462.855 493.091C463.424 492.648 464.315 492.183 465.542 491.72C467.988 490.796 471.576 489.949 476.069 489.232C485.04 487.799 497.464 486.909 511.209 486.909Z" stroke="#FA82FE" stroke-width="1.67673"/>
<path d="M191.791 46.7673C205.532 46.7673 217.952 45.784 226.918 44.2018C231.407 43.4095 234.99 42.4739 237.431 41.4556C238.655 40.9449 239.544 40.4328 240.113 39.942C240.687 39.4465 240.835 39.0645 240.835 38.8028C240.835 38.5412 240.687 38.1592 240.113 37.6636C239.544 37.1728 238.655 36.6608 237.431 36.1501C234.99 35.1318 231.407 34.1962 226.918 33.4039C217.952 31.8217 205.532 30.8384 191.791 30.8384C178.05 30.8384 165.63 31.8217 156.664 33.4039C152.175 34.1962 148.592 35.1318 146.151 36.1501C144.927 36.6608 144.038 37.1729 143.469 37.6636C142.895 38.1592 142.747 38.5412 142.747 38.8028C142.747 39.0645 142.895 39.4465 143.469 39.942C144.038 40.4328 144.927 40.9449 146.151 41.4556C148.592 42.4739 152.175 43.4095 156.664 44.2018C165.63 45.784 178.05 46.7673 191.791 46.7673Z" stroke="#D9D9D9" stroke-width="1.67673"/>
<path d="M298.264 46.7673C312.005 46.7673 324.425 45.784 333.39 44.2018C337.88 43.4095 341.463 42.4739 343.904 41.4556C345.127 40.9449 346.016 40.4328 346.585 39.942C347.16 39.4465 347.308 39.0645 347.308 38.8028C347.308 38.5412 347.16 38.1592 346.585 37.6636C346.016 37.1728 345.127 36.6608 343.904 36.1501C341.463 35.1318 337.88 34.1962 333.39 33.4039C324.425 31.8217 312.005 30.8384 298.264 30.8384C284.522 30.8384 272.103 31.8217 263.137 33.4039C258.647 34.1962 255.064 35.1318 252.624 36.1501C251.4 36.6608 250.511 37.1729 249.942 37.6636C249.367 38.1592 249.219 38.5412 249.219 38.8028C249.219 39.0645 249.367 39.4465 249.942 39.942C250.511 40.4328 251.4 40.9449 252.624 41.4556C255.064 42.4739 258.647 43.4095 263.137 44.2018C272.103 45.784 284.522 46.7673 298.264 46.7673Z" stroke="#D9D9D9" stroke-width="1.67673"/>
<ellipse cx="8.80284" cy="49.8828" rx="8.80284" ry="49.8828" transform="matrix(4.37114e-08 1 1 -4.37114e-08 354.854 30)" fill="#84FF81"/>
<path d="M511.209 46.7673C524.95 46.7673 537.37 45.784 546.336 44.2018C550.825 43.4095 554.408 42.4739 556.849 41.4556C558.073 40.9449 558.962 40.4328 559.531 39.942C560.105 39.4465 560.253 39.0645 560.253 38.8028C560.253 38.5412 560.105 38.1592 559.531 37.6636C558.962 37.1728 558.073 36.6608 556.849 36.1501C554.408 35.1318 550.825 34.1962 546.336 33.4039C537.37 31.8217 524.95 30.8384 511.209 30.8384C497.468 30.8384 485.048 31.8217 476.082 33.4039C471.592 34.1962 468.01 35.1318 465.569 36.1501C464.345 36.6608 463.456 37.1729 462.887 37.6636C462.312 38.1592 462.165 38.5412 462.165 38.8028C462.165 39.0645 462.312 39.4465 462.887 39.942C463.456 40.4328 464.345 40.9449 465.569 41.4556C468.01 42.4739 471.592 43.4095 476.082 44.2018C485.048 45.784 497.468 46.7673 511.209 46.7673Z" stroke="#84FF81" stroke-width="1.67673"/>
<path d="M191.791 452.536C205.509 452.536 217.896 454.173 226.827 456.799C231.298 458.114 234.855 459.664 237.275 461.347C239.72 463.047 240.835 464.758 240.835 466.369C240.835 467.981 239.72 469.692 237.275 471.392C234.855 473.075 231.298 474.624 226.827 475.939C217.896 478.566 205.509 480.202 191.791 480.202C178.073 480.202 165.686 478.566 156.755 475.939C152.284 474.624 148.727 473.075 146.307 471.392C143.862 469.692 142.747 467.981 142.747 466.369C142.747 464.758 143.862 463.047 146.307 461.347C148.727 459.664 152.284 458.114 156.755 456.799C165.686 454.173 178.073 452.536 191.791 452.536Z" stroke="#D9D9D9" stroke-width="1.67673"/>
<path d="M298.264 452.536C311.982 452.536 324.369 454.173 333.3 456.799C337.77 458.114 341.327 459.664 343.748 461.347C346.193 463.047 347.308 464.758 347.308 466.369C347.308 467.981 346.193 469.692 343.748 471.392C341.327 473.075 337.77 474.624 333.3 475.939C324.369 478.566 311.982 480.202 298.264 480.202C284.546 480.202 272.158 478.566 263.228 475.939C258.757 474.624 255.2 473.075 252.78 471.392C250.334 469.692 249.219 467.981 249.219 466.369C249.219 464.758 250.334 463.047 252.78 461.347C255.2 459.664 258.757 458.114 263.228 456.799C272.158 454.173 284.546 452.536 298.264 452.536Z" stroke="#84FF81" stroke-width="1.67673"/>
<path d="M404.736 452.536C418.454 452.536 430.841 454.173 439.772 456.799C444.243 458.114 447.8 459.664 450.22 461.347C452.665 463.047 453.781 464.758 453.781 466.369C453.781 467.981 452.665 469.692 450.22 471.392C447.8 473.075 444.243 474.624 439.772 475.939C430.841 478.566 418.454 480.202 404.736 480.202C391.018 480.202 378.631 478.566 369.7 475.939C365.23 474.624 361.673 473.075 359.252 471.392C356.807 469.692 355.692 467.981 355.692 466.369C355.692 464.758 356.807 463.047 359.252 461.347C361.673 459.664 365.23 458.114 369.7 456.799C378.631 454.173 391.018 452.536 404.736 452.536Z" stroke="#D9D9D9" stroke-width="1.67673"/>
<ellipse opacity="0.2" cx="511.209" cy="466.369" rx="14.6714" ry="49.8828" transform="rotate(-90 511.209 466.369)" fill="#D9D9D9"/>
<path d="M191.791 79.4634C205.509 79.4634 217.896 77.827 226.827 75.2003C231.298 73.8854 234.855 72.3359 237.275 70.6528C239.72 68.9526 240.835 67.242 240.835 65.6304C240.835 64.0188 239.72 62.3081 237.275 60.6079C234.855 58.9249 231.298 57.3754 226.827 56.0604C217.896 53.4338 205.509 51.7973 191.791 51.7973C178.073 51.7973 165.686 53.4338 156.755 56.0604C152.284 57.3754 148.727 58.9249 146.307 60.6079C143.862 62.3081 142.747 64.0188 142.747 65.6304C142.747 67.242 143.862 68.9526 146.307 70.6528C148.727 72.3359 152.284 73.8854 156.755 75.2003C165.686 77.827 178.073 79.4634 191.791 79.4634Z" stroke="#D9D9D9" stroke-width="1.67673"/>
<ellipse cx="14.6714" cy="49.8828" rx="14.6714" ry="49.8828" transform="matrix(4.37114e-08 1 1 -4.37114e-08 248.381 50.959)" fill="#D9D9D9"/>
<path d="M404.736 79.4634C418.454 79.4634 430.841 77.827 439.772 75.2003C444.243 73.8854 447.8 72.3359 450.22 70.6528C452.665 68.9526 453.781 67.242 453.781 65.6304C453.781 64.0188 452.665 62.3081 450.22 60.6079C447.8 58.9249 444.243 57.3754 439.772 56.0604C430.841 53.4338 418.454 51.7973 404.736 51.7973C391.018 51.7973 378.631 53.4338 369.7 56.0604C365.23 57.3754 361.673 58.9249 359.252 60.6079C356.807 62.3081 355.692 64.0188 355.692 65.6304C355.692 67.242 356.807 68.9526 359.252 70.6528C361.673 72.3359 365.23 73.8854 369.7 75.2003C378.631 77.827 391.018 79.4634 404.736 79.4634Z" stroke="#D9D9D9" stroke-width="1.67673"/>
<path d="M511.209 79.4634C524.927 79.4634 537.314 77.827 546.245 75.2003C550.716 73.8854 554.273 72.3359 556.693 70.6528C559.138 68.9526 560.253 67.242 560.253 65.6304C560.253 64.0188 559.138 62.3081 556.693 60.6079C554.273 58.9249 550.716 57.3754 546.245 56.0604C537.314 53.4338 524.927 51.7973 511.209 51.7973C497.491 51.7973 485.104 53.4338 476.173 56.0604C471.702 57.3754 468.145 58.9249 465.725 60.6079C463.28 62.3081 462.165 64.0188 462.165 65.6304C462.165 67.242 463.28 68.9526 465.725 70.6528C468.145 72.3359 471.702 73.8854 476.173 75.2003C485.104 77.827 497.491 79.4634 511.209 79.4634Z" stroke="#D9D9D9" stroke-width="1.67673"/>
<ellipse opacity="0.2" cx="191.791" cy="421.098" rx="23.8934" ry="49.8828" transform="rotate(-90 191.791 421.098)" fill="#D9D9D9"/>
<path d="M404.736 398.043C418.414 398.043 430.756 400.7 439.647 404.959C448.598 409.247 453.781 415.007 453.781 421.098C453.781 427.188 448.598 432.949 439.647 437.237C430.756 441.496 418.414 444.153 404.736 444.153C391.059 444.153 378.717 441.496 369.826 437.237C360.874 432.949 355.692 427.188 355.692 421.098C355.692 415.007 360.874 409.247 369.826 404.959C378.717 400.7 391.059 398.043 404.736 398.043Z" stroke="#D9D9D9" stroke-width="1.67673"/>
<path d="M511.209 398.043C524.887 398.043 537.228 400.7 546.119 404.959C555.071 409.247 560.253 415.007 560.253 421.098C560.253 427.188 555.071 432.949 546.119 437.237C537.228 441.496 524.887 444.153 511.209 444.153C497.531 444.153 485.19 441.496 476.299 437.237C467.347 432.949 462.165 427.188 462.165 421.098C462.165 415.007 467.347 409.247 476.299 404.959C485.19 400.7 497.531 398.043 511.209 398.043Z" stroke="#FA82FE" stroke-width="1.67673"/>
<ellipse cx="21.3783" cy="49.8828" rx="21.3783" ry="49.8828" transform="matrix(4.37114e-08 1 1 -4.37114e-08 141.908 86.1704)" fill="#84FF81"/>
<path d="M298.264 128.089C311.953 128.089 324.306 125.709 333.206 121.895C337.657 119.987 341.206 117.737 343.63 115.281C346.05 112.829 347.308 110.217 347.308 107.549C347.308 104.881 346.05 102.268 343.63 99.8162C341.206 97.3604 337.657 95.1103 333.206 93.2026C324.306 89.3884 311.953 87.0088 298.264 87.0088C284.575 87.0088 272.221 89.3884 263.321 93.2026C258.87 95.1103 255.321 97.3604 252.898 99.8162C250.477 102.268 249.219 104.881 249.219 107.549C249.219 110.217 250.477 112.829 252.898 115.281C255.321 117.737 258.87 119.987 263.321 121.895C272.221 125.709 284.575 128.089 298.264 128.089Z" stroke="#D9D9D9" stroke-width="1.67673"/>
<path d="M511.209 128.089C524.898 128.089 537.251 125.709 546.151 121.895C550.603 119.987 554.151 117.737 556.575 115.281C558.995 112.829 560.253 110.217 560.253 107.549C560.253 104.881 558.995 102.268 556.575 99.8162C554.151 97.3604 550.603 95.1103 546.151 93.2026C537.251 89.3884 524.898 87.0088 511.209 87.0088C497.52 87.0088 485.167 89.3884 476.267 93.2026C471.815 95.1103 468.267 97.3604 465.843 99.8162C463.423 102.268 462.165 104.881 462.165 107.549C462.165 110.217 463.423 112.829 465.843 115.281C468.267 117.737 471.815 119.987 476.267 121.895C485.167 125.709 497.52 128.089 511.209 128.089Z" stroke="#D9D9D9" stroke-width="1.67673"/>
<ellipse cx="404.736" cy="351.932" rx="34.373" ry="49.8828" transform="rotate(-90 404.736 351.932)" fill="#84FF81"/>
<path d="M511.209 321.751C524.855 321.751 537.168 325.146 546.043 330.59C554.932 336.043 560.253 343.464 560.253 351.513C560.253 359.562 554.932 366.984 546.043 372.437C537.168 377.881 524.855 381.275 511.209 381.275C497.563 381.275 485.25 377.881 476.375 372.437C467.486 366.984 462.165 359.562 462.165 351.513C462.165 343.464 467.486 336.043 476.375 330.59C485.25 325.146 497.563 321.751 511.209 321.751Z" stroke="#FA82FE" stroke-width="1.67673"/>
<path d="M191.791 201.865C205.435 201.865 217.747 198.425 226.621 192.906C235.507 187.38 240.835 179.854 240.835 171.684C240.835 163.514 235.507 155.988 226.621 150.462C217.747 144.943 205.435 141.503 191.791 141.503C178.147 141.503 165.835 144.944 156.961 150.462C148.075 155.988 142.747 163.514 142.747 171.684C142.747 179.854 148.075 187.38 156.961 192.906C165.835 198.425 178.147 201.865 191.791 201.865Z" stroke="#D9D9D9" stroke-width="1.67673"/>
<path d="M298.264 201.865C311.907 201.865 324.219 198.424 333.093 192.906C341.98 187.38 347.308 179.854 347.308 171.684C347.308 163.513 341.98 155.988 333.093 150.461C324.219 144.943 311.907 141.502 298.264 141.502C284.62 141.502 272.308 144.943 263.434 150.461C254.547 155.988 249.219 163.513 249.219 171.684C249.219 179.854 254.547 187.38 263.434 192.906C272.308 198.424 284.62 201.865 298.264 201.865Z" stroke="#D9D9D9" stroke-width="1.67673"/>
<mask id="path-27-inside-1_5822_14438" fill="white">
<path fill-rule="evenodd" clip-rule="evenodd" d="M453.781 106.291C453.781 95.6418 431.635 87.0088 404.317 87.0088C376.999 87.0088 354.854 95.6418 354.854 106.291C354.854 114.691 368.632 121.837 387.86 124.481C392.152 125.071 395.514 128.629 395.514 132.961C395.514 137.155 392.348 140.627 388.251 141.521C368.819 145.761 354.854 157.476 354.854 171.265C354.854 185.202 369.122 197.021 388.882 201.142C392.629 201.924 395.514 205.097 395.514 208.925C395.514 212.569 392.879 215.631 389.404 216.728C369.374 223.054 354.854 241.783 354.854 263.904C354.854 291.222 376.999 313.368 404.317 313.368C431.635 313.368 453.781 291.222 453.781 263.904C453.781 241.783 439.26 223.054 419.23 216.728C415.755 215.631 413.12 212.569 413.12 208.925C413.12 205.097 416.006 201.924 419.752 201.142C439.512 197.021 453.781 185.202 453.781 171.265C453.781 157.476 439.815 145.761 420.383 141.521C416.286 140.627 413.12 137.155 413.12 132.961C413.12 128.629 416.482 125.071 420.774 124.481C440.002 121.837 453.781 114.691 453.781 106.291Z"/>
</mask>
<path d="M419.752 201.142L419.41 199.501L419.752 201.142ZM389.404 216.728L389.909 218.327L389.404 216.728ZM388.251 141.521L387.894 139.883L388.251 141.521ZM404.317 85.3321C418.13 85.3321 430.712 87.5117 439.902 91.0942C444.492 92.8835 448.32 95.0554 451.03 97.5527C453.741 100.052 455.457 103.003 455.457 106.291L452.104 106.291C452.104 104.255 451.052 102.134 448.757 100.019C446.461 97.902 443.046 95.9189 438.684 94.2187C429.972 90.8224 417.822 88.6855 404.317 88.6855L404.317 85.3321ZM353.177 106.291C353.177 103.003 354.893 100.052 357.604 97.5527C360.314 95.0554 364.142 92.8835 368.732 91.0943C377.922 87.5117 390.504 85.3321 404.317 85.3321L404.317 88.6855C390.812 88.6855 378.662 90.8224 369.95 94.2187C365.589 95.9189 362.173 97.902 359.877 100.019C357.582 102.134 356.53 104.255 356.53 106.291L353.177 106.291ZM387.632 126.142C377.894 124.803 369.43 122.313 363.348 119.019C357.379 115.787 353.177 111.47 353.177 106.291L356.53 106.291C356.53 109.513 359.218 112.969 364.945 116.07C370.559 119.11 378.599 121.515 388.088 122.82L387.632 126.142ZM353.177 171.265C353.177 163.764 356.981 156.96 363.161 151.55C369.337 146.145 377.961 142.05 387.894 139.883L388.608 143.16C379.109 145.232 371.035 149.115 365.37 154.074C359.709 159.029 356.53 164.977 356.53 171.265L353.177 171.265ZM388.539 202.784C378.441 200.678 369.657 196.588 363.362 191.154C357.064 185.716 353.177 178.847 353.177 171.265L356.53 171.265C356.53 177.62 359.778 183.629 365.554 188.615C371.333 193.605 379.563 197.486 389.224 199.501L388.539 202.784ZM353.177 263.904C353.177 241.031 368.192 221.669 388.899 215.129L389.909 218.327C370.557 224.439 356.53 242.536 356.53 263.904L353.177 263.904ZM404.317 315.044C376.073 315.044 353.177 292.148 353.177 263.904L356.53 263.904C356.53 290.296 377.925 311.691 404.317 311.691L404.317 315.044ZM455.457 263.904C455.457 292.148 432.561 315.044 404.317 315.044L404.317 311.691C430.709 311.691 452.104 290.296 452.104 263.904L455.457 263.904ZM419.735 215.129C440.442 221.669 455.457 241.031 455.457 263.904L452.104 263.904C452.104 242.536 438.078 224.439 418.725 218.327L419.735 215.129ZM455.457 171.265C455.457 178.847 451.57 185.716 445.272 191.154C438.977 196.588 430.193 200.678 420.095 202.784L419.41 199.501C429.071 197.486 437.301 193.605 443.081 188.615C448.857 183.629 452.104 177.62 452.104 171.265L455.457 171.265ZM420.741 139.883C430.673 142.05 439.298 146.145 445.473 151.55C451.653 156.96 455.457 163.764 455.457 171.265L452.104 171.265C452.104 164.977 448.925 159.029 443.264 154.074C437.599 149.115 429.525 145.232 420.026 143.16L420.741 139.883ZM455.457 106.291C455.457 111.47 451.256 115.787 445.286 119.019C439.204 122.313 430.74 124.803 421.003 126.142L420.546 122.82C430.035 121.515 438.075 119.11 443.689 116.07C449.416 112.969 452.104 109.513 452.104 106.291L455.457 106.291ZM411.443 208.925C411.443 204.211 414.98 200.425 419.41 199.501L420.095 202.784C417.031 203.423 414.797 205.984 414.797 208.925L411.443 208.925ZM397.191 208.925C397.191 213.422 393.958 217.048 389.909 218.327L388.899 215.129C391.8 214.213 393.838 211.716 393.838 208.925L397.191 208.925ZM418.725 218.327C414.676 217.048 411.443 213.422 411.443 208.925L414.797 208.925C414.797 211.716 416.834 214.213 419.735 215.129L418.725 218.327ZM389.224 199.501C393.654 200.425 397.191 204.211 397.191 208.925L393.838 208.925C393.838 205.984 391.603 203.423 388.539 202.784L389.224 199.501ZM411.443 132.961C411.443 127.721 415.495 123.514 420.546 122.82L421.003 126.142C417.469 126.628 414.797 129.537 414.797 132.961L411.443 132.961ZM397.191 132.961C397.191 138.045 393.373 142.12 388.608 143.16L387.894 139.883C391.324 139.135 393.838 136.265 393.838 132.961L397.191 132.961ZM420.026 143.16C415.262 142.12 411.443 138.045 411.443 132.961L414.797 132.961C414.797 136.265 417.31 139.135 420.741 139.883L420.026 143.16ZM388.088 122.82C393.139 123.514 397.191 127.721 397.191 132.961L393.838 132.961C393.838 129.537 391.165 126.628 387.632 126.142L388.088 122.82Z" fill="#FA82FE" mask="url(#path-27-inside-1_5822_14438)"/>
<ellipse cx="31.0195" cy="49.8828" rx="31.0195" ry="49.8828" transform="matrix(4.37114e-08 1 1 -4.37114e-08 461.326 140.664)" fill="#FA82FE"/>
<mask id="path-30-inside-2_5822_14438" fill="white">
<path fill-rule="evenodd" clip-rule="evenodd" d="M191.372 393.851C218.69 393.851 240.835 378.837 240.835 360.316C240.835 345.976 227.559 333.738 208.885 328.944C203.983 327.686 200.175 323.506 200.175 318.445C200.175 313.599 203.696 309.551 208.252 307.898C227.258 300.998 240.835 282.779 240.835 261.389C240.835 234.071 218.69 211.925 191.372 211.925C164.054 211.925 141.908 234.071 141.908 261.389C141.908 282.779 155.485 300.998 174.492 307.898C179.047 309.551 182.569 313.599 182.569 318.445C182.569 323.506 178.761 327.686 173.859 328.944C155.185 333.738 141.908 345.976 141.908 360.316C141.908 378.837 164.054 393.851 191.372 393.851Z"/>
</mask>
<path d="M173.859 328.944L174.276 330.568L173.859 328.944ZM208.252 307.898L207.679 306.322L208.252 307.898ZM174.492 307.898L173.92 309.474L174.492 307.898ZM208.885 328.944L208.468 330.568L208.885 328.944ZM239.159 360.316C239.159 368.855 234.055 376.778 225.407 382.641C216.768 388.498 204.74 392.174 191.372 392.174L191.372 395.528C205.321 395.528 218.025 391.697 227.289 385.417C236.543 379.142 242.512 370.298 242.512 360.316L239.159 360.316ZM208.468 330.568C226.83 335.282 239.159 347.109 239.159 360.316L242.512 360.316C242.512 344.843 228.288 332.194 209.302 327.32L208.468 330.568ZM239.159 261.389C239.159 282.051 226.044 299.655 207.679 306.322L208.824 309.474C228.472 302.341 242.512 283.507 242.512 261.389L239.159 261.389ZM191.372 213.602C217.764 213.602 239.159 234.997 239.159 261.389L242.512 261.389C242.512 233.145 219.616 210.249 191.372 210.249L191.372 213.602ZM143.585 261.389C143.585 234.997 164.98 213.602 191.372 213.602L191.372 210.249C163.128 210.249 140.231 233.145 140.231 261.389L143.585 261.389ZM175.064 306.322C156.699 299.655 143.585 282.051 143.585 261.389L140.231 261.389C140.231 283.507 154.271 302.341 173.92 309.474L175.064 306.322ZM143.585 360.316C143.585 347.109 155.914 335.282 174.276 330.568L173.442 327.32C154.456 332.194 140.231 344.843 140.231 360.316L143.585 360.316ZM191.372 392.174C178.003 392.174 165.975 388.498 157.337 382.641C148.689 376.778 143.585 368.855 143.585 360.316L140.231 360.316C140.231 370.298 146.2 379.142 155.455 385.417C164.719 391.697 177.422 395.528 191.372 395.528L191.372 392.174ZM180.892 318.445C180.892 322.613 177.733 326.218 173.442 327.32L174.276 330.568C179.788 329.153 184.246 324.399 184.246 318.445L180.892 318.445ZM201.851 318.445C201.851 314.461 204.77 310.945 208.824 309.474L207.679 306.322C202.622 308.157 198.498 312.736 198.498 318.445L201.851 318.445ZM173.92 309.474C177.973 310.945 180.892 314.461 180.892 318.445L184.246 318.445C184.246 312.736 180.122 308.157 175.064 306.322L173.92 309.474ZM209.302 327.32C205.01 326.218 201.851 322.613 201.851 318.445L198.498 318.445C198.498 324.399 202.955 329.153 208.468 330.568L209.302 327.32Z" fill="#84FF81" mask="url(#path-30-inside-2_5822_14438)"/>
<path fill-rule="evenodd" clip-rule="evenodd" d="M298.682 444.991C326 444.991 348.146 434.475 348.146 421.502C348.146 410.998 333.629 402.105 313.603 399.099C310.159 398.583 307.485 395.707 307.485 392.223C307.485 388.843 310.014 386.028 313.318 385.313C333.491 380.942 348.146 367.773 348.146 352.207C348.146 333.072 326 317.56 298.682 317.56C271.364 317.56 249.219 333.072 249.219 352.207C249.219 367.773 263.874 380.942 284.047 385.313C287.351 386.028 289.879 388.843 289.879 392.223C289.879 395.707 287.206 398.583 283.761 399.099C263.736 402.105 249.219 410.998 249.219 421.502C249.219 434.475 271.364 444.991 298.682 444.991Z" fill="#FA82FE"/>
<path d="M298.264 216.956C325.384 216.956 347.308 238.009 347.308 263.904C347.308 289.799 325.384 310.853 298.264 310.853C271.143 310.853 249.219 289.799 249.219 263.904C249.219 238.009 271.143 216.956 298.264 216.956Z" stroke="#D9D9D9" stroke-width="1.67673"/>
<path d="M511.209 216.956C538.33 216.956 560.253 238.009 560.253 263.904C560.253 289.799 538.33 310.853 511.209 310.853C484.088 310.853 462.165 289.799 462.165 263.904C462.165 238.009 484.088 216.956 511.209 216.956Z" stroke="#D9D9D9" stroke-width="1.67673"/>
</svg>
