<svg width="197" height="66" viewBox="0 0 197 66" fill="none" xmlns="http://www.w3.org/2000/svg">
<path d="M52.6667 24.8587C55.4286 27.6206 59.9066 27.6206 62.6686 24.8587C65.4305 22.0967 65.4305 17.6187 62.6686 14.8568C59.9066 12.0948 55.4286 12.0948 52.6667 14.8568C49.9047 17.6187 49.9047 22.0967 52.6667 24.8587Z" fill="#108CFF"/>
<path d="M37.1718 27.6179C32.2955 26.1982 27.034 27.5936 23.5023 31.2433L20.0297 34.8319C14.1626 40.895 17.1454 51.0402 25.3605 52.9629C29.0699 53.831 32.963 52.6926 35.6202 49.9626L51.6611 33.4823C52.227 32.9009 51.97 31.9263 51.1911 31.6995L37.1718 27.6179Z" fill="#FFCA62"/>
<path d="M37.3697 37.8205C32.5174 39.32 27.2337 38.0111 23.6425 34.4198L20.1115 30.8887C14.1457 24.9227 16.9617 14.7299 25.1441 12.6727C28.8388 11.7438 32.75 12.8182 35.4517 15.5042L51.7608 31.7191C52.3361 32.2911 52.0952 33.2699 51.3201 33.5094L37.3697 37.8205Z" fill="#108CFF"/>
<path fill-rule="evenodd" clip-rule="evenodd" d="M23.6421 34.4197C27.2333 38.011 32.5169 39.3199 37.3692 37.8204L51.3196 33.5093C51.589 33.426 51.7939 33.2535 51.9224 33.0398C52.083 32.4979 51.7928 31.8757 51.1906 31.7004L37.1714 27.6187C32.2951 26.199 27.0336 27.5945 23.5019 31.2442L22.0092 32.7867L23.6421 34.4197Z" fill="#0066FF"/>
<path d="M102.09 23.7515V18.9204H87.0083V44.5401H91.9873V34.6582H101.801V29.8271H91.9873V23.7515H102.09Z" fill="#25395F"/>
<path d="M107.81 24.0443C109.398 24.0443 110.697 22.7268 110.697 21.153C110.697 19.5792 109.398 18.225 107.81 18.225C106.259 18.225 104.96 19.5792 104.96 21.153C104.96 22.7268 106.259 24.0443 107.81 24.0443ZM105.501 44.5401H110.155V26.2403H105.501V44.5401Z" fill="#25395F"/>
<path d="M119.07 29.3879V26.2403H114.415V44.5401H119.07V35.7928C119.07 31.9498 122.136 30.8519 124.554 31.1447V25.8743C122.281 25.8743 120.008 26.8991 119.07 29.3879Z" fill="#25395F"/>
<path d="M130.539 37.33H144.141C144.249 36.7078 144.322 36.0856 144.322 35.3902C144.322 30.0101 140.533 25.7279 135.193 25.7279C129.529 25.7279 125.668 29.9369 125.668 35.3902C125.668 40.8435 129.493 45.0525 135.554 45.0525C139.018 45.0525 141.724 43.6251 143.42 41.1363L139.667 38.9404C138.874 40.0017 137.43 40.7703 135.626 40.7703C133.173 40.7703 131.189 39.7456 130.539 37.33ZM130.467 33.67C131.008 31.3277 132.704 29.9735 135.193 29.9735C137.142 29.9735 139.09 31.0349 139.667 33.67H130.467Z" fill="#25395F"/>
<path d="M156.748 18.408C151.011 18.408 148.269 21.0066 148.269 26.0573V26.2403H145.671V30.7787H148.269V44.5401H152.923V30.7787H155.918V26.2403H152.923V26.0573C152.923 23.5685 154.33 22.5438 156.748 22.5438C157.217 22.5438 157.722 22.5438 158.227 22.5804V44.5401H162.881V19.1766C160.897 18.774 159.021 18.408 156.748 18.408Z" fill="#25395F"/>
<path d="M178.888 26.2403L174.883 38.5378L170.192 26.2403H165.105L172.502 43.9545C171.636 46.4067 170.337 47.5047 167.775 47.4681V51.86C172.357 52.1162 175.424 49.8104 177.3 44.5401L183.867 26.2403H178.888Z" fill="#25395F"/>
</svg>
