<svg width="215" height="58" viewBox="0 0 215 58" fill="none" xmlns="http://www.w3.org/2000/svg">
<path d="M41.7639 15.3545C35.4069 8.59972 24.9594 8.45412 18.4289 15.0294C11.8984 21.6047 11.7577 32.4108 18.1147 39.1655L22.294 34.9578C18.1943 30.5751 18.293 23.5845 22.5208 19.3278C26.7485 15.0711 33.5073 15.1572 37.6326 19.5141L41.7639 15.3545Z" fill="#00E0CA"/>
<path d="M14.0019 43.3175C20.3589 50.0721 30.8063 50.2176 37.3367 43.6423C43.8672 37.0671 44.0079 26.2611 37.651 19.5063L33.4722 23.7138C37.5719 28.0965 37.4731 35.0871 33.2454 39.3438C29.0176 43.6005 22.2589 43.5145 18.1336 39.1575L14.0019 43.3175Z" fill="#00E0CA"/>
<path d="M60.6176 35.4483L57.7813 38.1927C60.4104 40.5725 63.3698 41.7624 66.6595 41.7624C69.0814 41.7368 71.0695 41.1867 72.6236 40.1119C74.1908 39.0627 74.9873 37.5722 75.0132 35.6402C75.0132 33.9897 74.5793 32.627 73.7116 31.5523C72.7791 30.4519 71.2637 29.825 69.1656 29.6715L65.8241 29.422C64.8398 29.3196 64.1534 29.0829 63.7648 28.7119C63.3374 28.3792 63.1367 27.989 63.1626 27.5412C63.1626 26.8375 63.4281 26.2617 63.9591 25.8139C64.4642 25.3661 65.3514 25.1422 66.6206 25.1422C67.7345 25.1422 68.7188 25.3021 69.5736 25.622C70.4413 25.9802 71.2637 26.4344 72.0408 26.9846L74.5469 24.0866C73.5626 23.2422 72.4488 22.5704 71.2055 22.0714C70.5579 21.8411 69.865 21.662 69.1267 21.5341C68.3885 21.4189 67.5531 21.3613 66.6206 21.3613C64.4707 21.3613 62.6963 21.8731 61.2976 22.8967C59.86 23.9203 59.1282 25.4556 59.1023 27.5028C59.1282 29.2045 59.6851 30.5287 60.773 31.4755C61.8351 32.4479 63.2144 33.0109 64.911 33.1644L68.4856 33.4715C69.2368 33.4971 69.8391 33.657 70.2924 33.9513C70.7327 34.2328 70.9529 34.7318 70.9529 35.4483C70.9529 36.2543 70.5838 36.8813 69.8456 37.3291C69.1073 37.7769 68.1554 38.0008 66.9898 38.0008C64.3865 38.0008 62.2625 37.1499 60.6176 35.4483Z" fill="#00121F"/>
<path d="M77.9382 41.5321H81.9984V29.6715C81.9984 28.2769 82.3805 27.2149 83.1446 26.4856C83.8958 25.7435 84.8542 25.3725 86.0199 25.3725C87.1855 25.3725 88.1374 25.7435 88.8757 26.4856C89.6269 27.2149 90.0025 28.2769 90.0025 29.6715V41.5321H94.0627V28.2896C93.998 26.0122 93.2792 24.2849 91.9063 23.1078C90.5205 21.9435 88.9922 21.3613 87.3215 21.3613C85.1586 21.3613 83.4102 22.1482 82.0761 23.722H81.9984V13.5502H77.9382V41.5321Z" fill="#00121F"/>
<path d="M98.231 41.5321H102.291V21.6108H98.231V41.5321ZM98.231 17.5613H102.291V13.5502H98.231V17.5613Z" fill="#00121F"/>
<path d="M106.712 41.5321H110.772V29.6715C110.772 28.2769 111.161 27.2149 111.938 26.4856C112.676 25.7435 113.628 25.3725 114.794 25.3725C115.96 25.3725 116.918 25.7435 117.669 26.4856C118.407 27.2149 118.776 28.2769 118.776 29.6715V41.5321H122.837V29.6715C122.837 28.2769 123.219 27.2149 123.983 26.4856C124.734 25.7435 125.693 25.3725 126.858 25.3725C128.024 25.3725 128.976 25.7435 129.714 26.4856C130.452 27.2149 130.821 28.2769 130.821 29.6715V41.5321H134.882V28.2896C134.83 26.0122 134.118 24.2849 132.745 23.1078C131.359 21.9435 129.831 21.3613 128.16 21.3613C125.505 21.3358 123.387 22.2058 121.807 23.9715C121.108 23.2038 120.337 22.5704 119.495 22.0714C118.641 21.6236 117.514 21.3869 116.115 21.3613C113.939 21.3613 112.184 22.1482 110.85 23.722H110.772V21.6108H106.712V41.5321Z" fill="#00121F"/>
<path d="M139.438 41.5321H143.499V29.6715C143.499 28.2769 143.887 27.2149 144.664 26.4856C145.403 25.7435 146.355 25.3725 147.52 25.3725C148.686 25.3725 149.644 25.7435 150.395 26.4856C151.134 27.2149 151.503 28.2769 151.503 29.6715V41.5321H155.563V29.6715C155.563 28.2769 155.945 27.2149 156.709 26.4856C157.46 25.7435 158.419 25.3725 159.585 25.3725C160.75 25.3725 161.702 25.7435 162.44 26.4856C163.179 27.2149 163.548 28.2769 163.548 29.6715V41.5321H167.608V28.2896C167.556 26.0122 166.844 24.2849 165.471 23.1078C164.085 21.9435 162.557 21.3613 160.886 21.3613C158.231 21.3358 156.114 22.2058 154.533 23.9715C153.834 23.2038 153.063 22.5704 152.222 22.0714C151.367 21.6236 150.24 21.3869 148.841 21.3613C146.665 21.3613 144.91 22.1482 143.576 23.722H143.499V21.6108H139.438V41.5321Z" fill="#00121F"/>
<path d="M187.571 33.0876V29.7866C187.545 27.1637 186.722 25.1038 185.103 23.6068C183.51 22.1354 181.561 21.3869 179.256 21.3613C178.297 21.3613 177.326 21.5341 176.342 21.8795C175.344 22.225 174.444 22.7879 173.641 23.5684C172.851 24.3361 172.204 25.3853 171.699 26.7159C171.193 28.021 170.941 29.6587 170.941 31.6291C170.941 33.6762 171.232 35.3395 171.815 36.619C172.346 37.9496 173.039 38.986 173.894 39.7281C174.334 40.0863 174.807 40.387 175.312 40.6301C175.791 40.9116 176.283 41.1355 176.788 41.3018C177.799 41.6089 178.835 41.7624 179.897 41.7624C182.681 41.788 185.103 40.7133 187.163 38.5382L184.229 36.0624C182.934 37.3547 181.464 38.0008 179.819 38.0008C178.407 38.0008 177.268 37.5786 176.4 36.7341C175.467 35.9025 175.001 34.687 175.001 33.0876H187.571ZM175.001 29.7866C175.079 28.2385 175.5 27.0678 176.264 26.2745C177.041 25.5196 178.038 25.1422 179.256 25.1422C180.473 25.1422 181.47 25.5196 182.248 26.2745C183.038 27.0678 183.458 28.2385 183.51 29.7866H175.001Z" fill="#00121F"/>
<path d="M190.632 41.5321H194.692V29.5371C194.718 28.0785 195.145 27.023 195.974 26.3704C196.712 25.7051 197.599 25.3725 198.636 25.3725C199.555 25.3725 200.442 25.7051 201.297 26.3704L204.25 22.8967C203.046 21.8987 201.634 21.3869 200.015 21.3613C197.852 21.3613 196.104 22.1482 194.77 23.722H194.692V21.6108H190.632V41.5321Z" fill="#00121F"/>
</svg>
