<svg width="1080" height="810" viewBox="0 0 1080 810" fill="none"
    xmlns="http://www.w3.org/2000/svg">
    <rect x="118.094" y="163.59" width="842.814" height="479.427" rx="44.2782" fill="black"/>
    <rect x="322.045" y="409.192" width="24.4294" height="24.4294" rx="12.2147" fill="#84FF81"/>
    <rect x="195.436" y="485.534" width="24.4294" height="24.4294" rx="12.2147" fill="#84FF81"/>
    <rect x="195.436" y="549.662" width="24.4294" height="24.4294" rx="12.2147" fill="#84FF81"/>
    <rect x="470.266" y="235.134" width="24.4294" height="24.4294" rx="12.2147" fill="#FA82FE"/>
    <rect x="470.266" y="293.153" width="24.4294" height="24.4294" rx="12.2147" fill="#84FF81"/>
    <rect x="422.934" y="351.173" width="24.4294" height="24.4294" rx="12.2147" fill="#84FF81"/>
    <rect x="593.939" y="409.192" width="24.4294" height="24.4294" rx="12.2147" fill="#84FF81"/>
    <rect x="494.695" y="485.534" width="24.4294" height="24.4294" rx="12.2147" fill="#FA82FE"/>
    <rect x="470.266" y="549.662" width="24.4294" height="24.4294" rx="12.2147" fill="#84FF81"/>
    <rect x="847.395" y="235.134" width="24.4294" height="24.4294" rx="12.2147" fill="#FA82FE"/>
    <rect x="847.395" y="297.733" width="24.4294" height="24.4294" rx="12.2147" fill="#84FF81"/>
    <rect x="725.248" y="293.153" width="93.137" height="24.4294" rx="12.2147" fill="#FA82FE"/>
    <rect x="847.395" y="360.334" width="24.4294" height="24.4294" rx="12.2147" fill="#84FF81"/>
    <rect x="797.01" y="422.935" width="75.1673" height="24.4294" rx="12.2147" fill="#84FF81"/>
    <rect x="797.01" y="485.534" width="75.1673" height="24.4294" rx="12.2147" fill="#84FF81"/>
    <rect x="847.395" y="548.135" width="24.4294" height="24.4294" rx="12.2147" fill="#FA82FE"/>
    <rect x="793.955" y="235.134" width="24.4294" height="24.4294" rx="12.2147" fill="#84FF81"/>
    <rect x="793.955" y="549.662" width="24.4294" height="24.4294" rx="12.2147" fill="#84FF81"/>
    <rect x="195.436" y="409.192" width="93.0195" height="24.4294" rx="12.2147" fill="#84FF81"/>
    <rect x="253.455" y="485.534" width="93.0195" height="24.4294" rx="12.2147" fill="#FA82FE"/>
    <rect x="253.455" y="549.662" width="93.0195" height="24.4294" rx="12.2147" fill="#84FF81"/>
    <rect x="548.135" y="235.134" width="93.0195" height="24.4294" rx="12.2147" fill="#84FF81"/>
    <rect x="548.135" y="293.153" width="93.0195" height="24.4294" rx="12.2147" fill="#84FF81"/>
    <rect x="480.953" y="351.173" width="179.462" height="24.4294" rx="12.2147" fill="#FA82FE"/>
    <rect x="482.48" y="409.192" width="93.0195" height="24.4294" rx="12.2147" fill="#84FF81"/>
    <rect x="377.129" y="485.534" width="93.0195" height="24.4294" rx="12.2147" fill="#84FF81"/>
    <rect x="548.135" y="549.662" width="93.0195" height="24.4294" rx="12.2147" fill="#84FF81"/>
    <path d="M270.764 351.391H195.436V335.182H270.764V351.391Z" fill="#84FF81"/>
    <path d="M372.549 280.371L288.508 328.677V305.004L318.15 289.329L352.043 272.907V271.2L288.508 240.596V217.029L372.549 262.883V280.371Z" fill="#84FF81"/>
    <rect x="384.764" y="120.62" width="329.797" height="577.144" rx="44.2782" fill="#84FF81"/>
    <circle cx="550.424" cy="145.813" r="9.92443" fill="black"/>
    <rect x="496.223" y="664.174" width="102.298" height="12.2147" rx="6.10734" fill="black"/>
    <rect x="415.299" y="200.016" width="122.147" height="122.147" rx="18.322" fill="white"/>
    <rect x="494.695" y="404.611" width="117.566" height="3.05367" rx="1.52684" fill="black"/>
    <rect x="494.695" y="471.792" width="117.566" height="3.05367" rx="1.52684" fill="black"/>
    <rect x="494.695" y="538.973" width="117.566" height="3.05367" rx="1.52684" fill="black"/>
    <rect x="494.695" y="415.3" width="73.2881" height="3.05367" rx="1.52684" fill="black"/>
    <rect x="494.695" y="482.48" width="73.2881" height="3.05367" rx="1.52684" fill="black"/>
    <rect x="494.695" y="549.661" width="73.2881" height="3.05367" rx="1.52684" fill="black"/>
    <rect x="415.299" y="384.763" width="54.9661" height="54.9661" rx="27.4831" fill="#FA82FE"/>
    <rect x="415.299" y="451.943" width="54.9661" height="54.9661" rx="18.322" fill="white"/>
    <rect x="415.299" y="519.124" width="54.9661" height="54.9661" rx="18.322" fill="white"/>
    <rect x="560.35" y="200.016" width="122.147" height="122.147" rx="18.322" fill="#FA82FE"/>
</svg>
