<svg width="1081" height="808" viewBox="0 0 1081 808" fill="none"
    xmlns="http://www.w3.org/2000/svg">
    <mask id="mask0_7492_4997" style="mask-type:alpha" maskUnits="userSpaceOnUse" x="324" y="62" width="432" height="662">
        <rect x="324.645" y="62.6523" width="430.57" height="661.102" fill="white"/>
    </mask>
    <g mask="url(#mask0_7492_4997)">
        <path d="M779.877 31.5752C779.877 58.6718 779.877 98.0613 751.915 126.098C728.805 149.268 682.899 155.88 655.848 155.88C599.873 155.88 554.496 201.356 554.496 257.455C554.496 313.553 599.873 359.03 655.848 359.03C711.824 359.03 757.201 313.553 757.201 257.455C757.201 230.306 763.139 195.426 788.889 167.695C815.96 140.624 854.127 133.15 881.23 133.15C937.205 133.15 982.582 87.6736 982.582 31.5752C982.582 -24.5232 937.205 -70 881.23 -70C825.254 -70 779.877 -24.5232 779.877 31.5752Z" fill="#1C1B24"/>
        <path d="M550.106 31.5752C550.106 58.6718 550.106 98.0613 522.143 126.098C499.034 149.268 453.127 155.88 426.077 155.88C370.102 155.88 324.725 201.356 324.725 257.455C324.725 313.553 370.102 359.03 426.077 359.03C482.052 359.03 527.429 313.553 527.429 257.455C527.429 230.306 533.368 195.426 559.118 167.695C586.189 140.624 624.356 133.15 651.458 133.15C707.434 133.15 752.81 87.6736 752.81 31.5752C752.81 -24.5232 707.434 -70 651.458 -70C595.483 -70 550.106 -24.5232 550.106 31.5752Z" fill="#D6D1D9"/>
        <path d="M322.975 31.5752C322.975 58.6718 322.975 98.0613 295.012 126.098C271.903 149.268 225.996 155.88 198.946 155.88C142.971 155.88 97.5938 201.356 97.5938 257.455C97.5938 313.553 142.971 359.03 198.946 359.03C254.922 359.03 300.298 313.553 300.298 257.455C300.298 230.306 306.237 195.426 331.987 167.695C359.058 140.624 397.225 133.15 424.327 133.15C480.303 133.15 525.68 87.6736 525.68 31.5752C525.68 -24.5232 480.303 -70 424.327 -70C368.352 -70 322.975 -24.5232 322.975 31.5752Z" fill="#84FF81"/>
        <path d="M777.237 480.554C777.237 507.65 777.237 547.04 749.274 575.076C726.165 598.247 680.258 604.858 653.208 604.858C597.233 604.858 551.855 650.335 551.855 706.433C551.855 762.532 597.233 808.009 653.208 808.009C709.183 808.009 754.56 762.532 754.56 706.433C754.56 679.284 760.498 644.404 786.249 616.673C813.319 589.602 851.487 582.129 878.589 582.129C934.564 582.129 979.941 536.652 979.941 480.554C979.941 424.455 934.564 378.979 878.589 378.979C822.614 378.979 777.237 424.455 777.237 480.554Z" fill="#1C1B24"/>
        <path d="M777.237 265.308C777.237 292.405 777.237 331.794 749.274 359.831C726.165 383.001 680.258 389.613 653.208 389.613C597.233 389.613 551.855 435.089 551.855 491.188C551.855 547.286 597.233 592.763 653.208 592.763C709.183 592.763 754.56 547.286 754.56 491.188C754.56 464.039 760.498 429.158 786.249 401.427C813.319 374.357 851.487 366.883 878.589 366.883C934.564 366.883 979.941 321.407 979.941 265.308C979.941 209.21 934.564 163.733 878.589 163.733C822.614 163.733 777.237 209.21 777.237 265.308Z" fill="#84FF81"/>
        <path d="M552.747 258.706C552.747 285.802 552.747 325.192 524.784 353.228C501.675 376.399 455.768 383.01 428.718 383.01C372.742 383.01 327.365 428.487 327.365 484.585C327.365 540.684 372.742 586.16 428.718 586.16C484.693 586.16 530.07 540.684 530.07 484.585C530.07 457.436 536.008 422.556 561.758 394.825C588.829 367.754 626.996 360.281 654.099 360.281C710.074 360.281 755.451 314.804 755.451 258.706C755.451 202.607 710.074 157.13 654.099 157.13C598.124 157.13 552.747 202.607 552.747 258.706Z" fill="#1C1B24"/>
        <path d="M322.975 258.706C322.975 285.802 322.975 325.192 295.012 353.228C271.903 376.399 225.996 383.01 198.946 383.01C142.971 383.01 97.5938 428.487 97.5938 484.585C97.5938 540.684 142.971 586.16 198.946 586.16C254.922 586.16 300.298 540.684 300.298 484.585C300.298 457.436 306.237 422.556 331.987 394.825C359.058 367.754 397.225 360.281 424.327 360.281C480.303 360.281 525.68 314.804 525.68 258.706C525.68 202.607 480.303 157.13 424.327 157.13C368.352 157.13 322.975 202.607 322.975 258.706Z" fill="#D6D1D9"/>
        <path d="M550.106 492.438C550.106 519.535 550.106 558.925 522.143 586.961C499.034 610.132 453.127 616.743 426.077 616.743C370.102 616.743 324.725 662.22 324.725 718.318C324.725 774.417 370.102 819.893 426.077 819.893C482.052 819.893 527.429 774.417 527.429 718.318C527.429 691.169 533.368 656.289 559.118 628.558C586.189 601.487 624.356 594.014 651.458 594.014C707.434 594.014 752.81 548.537 752.81 492.438C752.81 436.34 707.434 390.863 651.458 390.863C595.483 390.863 550.106 436.34 550.106 492.438Z" fill="#84FF81"/>
        <path d="M322.975 485.836C322.975 512.933 322.975 552.322 295.012 580.359C271.903 603.529 225.996 610.14 198.946 610.14C142.971 610.14 97.5938 655.617 97.5938 711.716C97.5938 767.814 142.971 813.291 198.946 813.291C254.922 813.291 300.298 767.814 300.298 711.716C300.298 684.566 306.237 649.686 331.987 621.955C359.058 594.884 397.225 587.411 424.327 587.411C480.303 587.411 525.68 541.934 525.68 485.836C525.68 429.737 480.303 384.261 424.327 384.261C368.352 384.261 322.975 429.737 322.975 485.836Z" fill="#1C1B24"/>
    </g>
    <path d="M702 250H917V63" stroke="#84FF81" stroke-width="9"/>
    <path d="M390 492H175V724" stroke="#84FF81" stroke-width="9"/>
    <path d="M247 255H402.5M402.5 255L355 207.5M402.5 255L355 302.5" stroke="#1C1B24" stroke-width="9"/>
    <path d="M823.5 488.5L633 488.5M633 488.5L680.5 536M633 488.5L680.5 441" stroke="#1C1B24" stroke-width="9"/>
    <circle cx="663" cy="249" r="38" stroke="#84FF81" stroke-width="9"/>
    <circle cx="428" cy="492" r="38" stroke="#84FF81" stroke-width="9"/>
</svg>
