<svg width="127" height="56" viewBox="0 0 127 56" fill="none" xmlns="http://www.w3.org/2000/svg">
<g clip-path="url(#clip0_0_3)">
<path d="M56.0218 36.3227C58.3651 38.6271 61.7952 40.1967 66.5836 40.1967C73.3079 40.1967 76.5342 36.8237 76.5342 32.3485C76.5342 26.9382 71.3042 25.7026 67.2289 24.8009C64.3422 24.1329 62.2706 23.632 62.2706 21.9621C62.2706 20.4927 63.5272 19.4574 65.9384 19.4574C68.3496 19.4574 71.0325 20.2923 73.0702 22.1291L76.0248 18.3219C73.5796 16.0843 70.2854 14.9155 66.3459 14.9155C60.5047 14.9155 56.9048 18.2217 56.9048 22.2961C56.9048 27.7732 62.1348 28.8419 66.1761 29.777C69.0628 30.4449 71.2023 31.046 71.2023 32.8828C71.2023 34.2855 69.776 35.6214 66.8893 35.6214C63.4593 35.6214 60.7424 34.1185 58.9764 32.3151L56.0218 36.3227Z" fill="black"/>
<path d="M78.8095 30.8791C78.8095 36.5565 82.9528 40.1967 88.4205 40.1967C91.2052 40.1967 94.058 39.3618 95.8239 37.7254L93.7523 34.7197C92.5976 35.8218 90.6279 36.4897 88.9299 36.4897C85.8734 36.4897 84.0395 34.6195 83.7339 32.3819H97.1144V31.38C97.1144 25.6024 93.4467 21.6282 88.0808 21.6282C82.6471 21.6282 78.8095 25.7694 78.8095 30.8791ZM88.1488 25.3352C91.2732 25.3352 92.4618 27.5728 92.5976 29.2426H83.7339C83.9376 27.4726 85.1942 25.3352 88.1488 25.3352Z" fill="black"/>
<path d="M100.578 39.7626H105.299V15.3163H100.578V39.7626Z" fill="black"/>
<path d="M114.672 39.7626H119.766L127 22.0624H121.906L117.219 34.3857L112.533 22.0624H107.473L114.672 39.7626Z" fill="black"/>
<path d="M34.3208 46.8427C33.9439 46.8427 33.5703 46.6891 33.302 46.3918C32.8062 45.8375 32.8571 44.9959 33.4209 44.5049C37.1192 41.2922 39.3674 36.827 39.758 31.9277C40.1485 27.0051 38.5931 22.3229 35.3736 18.7394C35.3498 18.716 33.0745 16.1879 31.8688 15.1559C31.3017 14.6717 31.2406 13.8301 31.733 13.2724C32.2254 12.7146 33.0847 12.6545 33.6484 13.1388C34.9899 14.2843 37.3094 16.8592 37.4079 16.9694C41.1164 21.1005 42.9129 26.4841 42.4646 32.1348C42.0198 37.7287 39.4455 42.8351 35.2174 46.5087C34.9627 46.7325 34.6401 46.8427 34.3208 46.8427Z" fill="black"/>
<path d="M22.3327 50.1489C21.9557 50.1489 21.5821 49.9953 21.3138 49.6981C20.818 49.1437 20.869 48.3021 21.4327 47.8112L28.7003 41.4992C31.5496 39.0212 33.2477 35.598 33.482 31.8576C33.7163 28.1172 32.4598 24.5137 29.9399 21.7117C29.9195 21.6883 28.2928 19.8682 27.1687 18.9465C26.5914 18.4756 26.5132 17.6306 26.9955 17.0662C27.4743 16.4985 28.3336 16.4217 28.9075 16.8959C30.198 17.9512 31.9062 19.8649 31.9809 19.9484C34.9763 23.2813 36.474 27.5695 36.1955 32.0246C35.917 36.4764 33.8929 40.5541 30.5003 43.5064L23.2326 49.815C22.9745 50.0387 22.6519 50.1489 22.3327 50.1489Z" fill="black"/>
<path d="M8.06908 55.3922C7.69551 55.3922 7.32534 55.242 7.05705 54.9481C6.55782 54.397 6.60537 53.5521 7.16572 53.0612L23.8405 38.4C27.9667 34.8132 28.3641 28.6115 24.7405 24.5471L24.6691 24.477C24.6488 24.4569 24.6318 24.4369 24.6114 24.4169C24.3431 24.1196 23.9729 23.9426 23.562 23.9226C23.1511 23.8992 22.7571 24.0328 22.4515 24.3C21.7655 24.8978 21.7213 25.7327 22.336 26.4307C23.7624 28.0404 23.9288 29.8572 23.9288 31.0828C23.9288 33.2369 22.8488 35.2607 20.7127 37.0976L12.433 44.3046C11.8727 44.7921 11.0135 44.7421 10.5143 44.191C10.015 43.64 10.0694 42.795 10.6297 42.3041L18.9162 35.0904C20.4614 33.7612 21.2085 32.4521 21.2085 31.0828C21.2085 30.1177 21.0965 29.1024 20.2848 28.1873C18.6954 26.3939 18.8516 23.8658 20.6448 22.3029C21.4904 21.5648 22.5805 21.1974 23.7114 21.2609C24.8322 21.3243 25.8578 21.8052 26.6083 22.6201L26.683 22.6936C26.7034 22.7136 26.7204 22.7337 26.7408 22.7537C31.3832 27.9202 30.8908 35.8352 25.637 40.4038L8.96904 55.0583C8.71433 55.2787 8.39171 55.3922 8.06908 55.3922Z" fill="black"/>
<path d="M7.4578 40.13C7.08084 40.13 6.70387 39.9763 6.43558 39.6758L4.46585 37.4716C-2.04784 30.2011 -1.35504 19.0333 6.01107 12.5811L13.0851 6.52624C13.6523 6.04199 14.5081 6.10211 15.0005 6.65649C15.4929 7.21421 15.4318 8.05581 14.8681 8.54006L7.8042 14.5849C1.5656 20.0552 0.974677 29.5332 6.5069 35.7049L8.47663 37.9091C8.97246 38.4635 8.91472 39.3084 8.35437 39.796C8.09627 40.0197 7.77704 40.13 7.4578 40.13Z" fill="black"/>
<path d="M12.0765 36.2893C11.6995 36.2893 11.3225 36.1357 11.0543 35.8318L9.39018 33.9616C4.75112 28.8018 5.24695 20.8835 10.4973 16.3181L23.0526 5.17367C23.6096 4.6794 24.4688 4.72282 24.9714 5.27052C25.474 5.81823 25.4299 6.66317 24.8729 7.15744L12.3074 18.3119C8.16759 21.9121 7.77704 28.1372 11.4312 32.1982L13.0987 34.0751C13.5945 34.6295 13.5368 35.4745 12.9697 35.9587C12.7149 36.1791 12.3957 36.2893 12.0765 36.2893Z" fill="black"/>
<path d="M16.0839 32.0145C15.7171 32.0145 15.3503 31.8676 15.082 31.5804L14.7085 31.1796C11.5739 27.6963 11.8999 22.3863 15.4216 19.3238L36.3415 1.05584C36.9019 0.564906 37.7611 0.615001 38.2603 1.16938C38.7595 1.72043 38.7086 2.56536 38.1449 3.0563L17.225 21.3243C14.8273 23.4115 14.6032 27.0317 16.7291 29.3929L17.0857 29.7769C17.5917 30.3213 17.5544 31.1662 17.0042 31.6639C16.7427 31.8976 16.4133 32.0145 16.0839 32.0145Z" fill="black"/>
</g>
<defs>
<clipPath id="clip0_0_3">
<rect width="127" height="54.6703" fill="white" transform="translate(0 0.721899)"/>
</clipPath>
</defs>
</svg>
