<svg width="697" height="668" viewBox="0 0 697 668" fill="none" xmlns="http://www.w3.org/2000/svg">
<path d="M506.558 80.395C528.691 80.395 546.633 62.4992 546.633 40.4236C546.633 18.348 528.691 0.452148 506.558 0.452148C484.425 0.452148 466.483 18.348 466.483 40.4236C466.483 62.4992 484.425 80.395 506.558 80.395Z" fill="#171D26"/>
<path d="M551.642 645.004C573.774 645.004 591.716 627.108 591.716 605.033C591.716 582.957 573.774 565.061 551.642 565.061C529.509 565.061 511.567 582.957 511.567 605.033C511.567 627.108 529.509 645.004 551.642 645.004Z" fill="#171D26"/>
<path d="M518.011 180.33C536.587 180.33 551.646 165.311 551.646 146.783C551.646 128.255 536.587 113.236 518.011 113.236C499.436 113.236 484.377 128.255 484.377 146.783C484.377 165.311 499.436 180.33 518.011 180.33Z" fill="#171D26"/>
<path d="M607.471 193.172C626.047 193.172 641.105 178.152 641.105 159.624C641.105 141.097 626.047 126.077 607.471 126.077C588.896 126.077 573.837 141.097 573.837 159.624C573.837 178.152 588.896 193.172 607.471 193.172Z" fill="#171D26"/>
<path d="M506.563 265.265C522.372 265.265 535.188 252.482 535.188 236.714C535.188 220.946 522.372 208.163 506.563 208.163C490.754 208.163 477.939 220.946 477.939 236.714C477.939 252.482 490.754 265.265 506.563 265.265Z" fill="#171D26"/>
<path d="M596.009 277.409C611.818 277.409 624.633 264.627 624.633 248.858C624.633 233.09 611.818 220.307 596.009 220.307C580.2 220.307 567.384 233.09 567.384 248.858C567.384 264.627 580.2 277.409 596.009 277.409Z" fill="#171D26"/>
<path d="M667.574 305.24C683.383 305.24 696.199 292.458 696.199 276.689C696.199 260.921 683.383 248.138 667.574 248.138C651.765 248.138 638.949 260.921 638.949 276.689C638.949 292.458 651.765 305.24 667.574 305.24Z" fill="#171D26"/>
<path d="M569.532 345.925C583.365 345.925 594.579 334.74 594.579 320.943C594.579 307.146 583.365 295.961 569.532 295.961C555.699 295.961 544.486 307.146 544.486 320.943C544.486 334.74 555.699 345.925 569.532 345.925Z" fill="#171D26"/>
<path d="M480.086 333.786C493.919 333.786 505.132 322.601 505.132 308.804C505.132 295.007 493.919 283.822 480.086 283.822C466.253 283.822 455.039 295.007 455.039 308.804C455.039 322.601 466.253 333.786 480.086 333.786Z" fill="#171D26"/>
<path d="M641.81 373.757C655.643 373.757 666.857 362.572 666.857 348.774C666.857 334.977 655.643 323.792 641.81 323.792C627.977 323.792 616.764 334.977 616.764 348.774C616.764 362.572 627.977 373.757 641.81 373.757Z" fill="#171D26"/>
<path d="M533.759 398.024C545.615 398.024 555.227 388.436 555.227 376.61C555.227 364.784 545.615 355.197 533.759 355.197C521.902 355.197 512.29 364.784 512.29 376.61C512.29 388.436 521.902 398.024 533.759 398.024Z" fill="#171D26"/>
<path d="M606.036 425.15C617.893 425.15 627.505 415.563 627.505 403.736C627.505 391.91 617.893 382.323 606.036 382.323C594.179 382.323 584.568 391.91 584.568 403.736C584.568 415.563 594.179 425.15 606.036 425.15Z" fill="#171D26"/>
<path d="M445.015 385.172C456.872 385.172 466.484 375.585 466.484 363.759C466.484 351.932 456.872 342.345 445.015 342.345C433.159 342.345 423.547 351.932 423.547 363.759C423.547 375.585 433.159 385.172 445.015 385.172Z" fill="#171D26"/>
<path d="M494.394 433.007C504.275 433.007 512.285 425.018 512.285 415.163C512.285 405.307 504.275 397.318 494.394 397.318C484.513 397.318 476.504 405.307 476.504 415.163C476.504 425.018 484.513 433.007 494.394 433.007Z" fill="#171D26"/>
<path d="M525.165 482.256C533.86 482.256 540.909 475.226 540.909 466.553C540.909 457.88 533.86 450.85 525.165 450.85C516.47 450.85 509.421 457.88 509.421 466.553C509.421 475.226 516.47 482.256 525.165 482.256Z" fill="#171D26"/>
<path d="M487.237 492.254C494.351 492.254 500.118 486.501 500.118 479.406C500.118 472.31 494.351 466.558 487.237 466.558C480.123 466.558 474.356 472.31 474.356 479.406C474.356 486.501 480.123 492.254 487.237 492.254Z" fill="#171D26"/>
<path d="M453.602 455.132C462.297 455.132 469.346 448.102 469.346 439.429C469.346 430.757 462.297 423.726 453.602 423.726C444.907 423.726 437.858 430.757 437.858 439.429C437.858 448.102 444.907 455.132 453.602 455.132Z" fill="#171D26"/>
<path d="M404.948 420.873C414.828 420.873 422.838 412.884 422.838 403.029C422.838 393.173 414.828 385.184 404.948 385.184C395.067 385.184 387.057 393.173 387.057 403.029C387.057 412.884 395.067 420.873 404.948 420.873Z" fill="#171D26"/>
<path d="M404.225 286.668C414.105 286.668 422.115 278.678 422.115 268.823C422.115 258.968 414.105 250.979 404.225 250.979C394.344 250.979 386.334 258.968 386.334 268.823C386.334 278.678 394.344 286.668 404.225 286.668Z" fill="#171D26"/>
<path d="M412.097 223.864C420.792 223.864 427.841 216.834 427.841 208.161C427.841 199.488 420.792 192.458 412.097 192.458C403.402 192.458 396.354 199.488 396.354 208.161C396.354 216.834 403.402 223.864 412.097 223.864Z" fill="#171D26"/>
<path d="M429.275 172.469C436.389 172.469 442.156 166.717 442.156 159.621C442.156 152.526 436.389 146.773 429.275 146.773C422.16 146.773 416.393 152.526 416.393 159.621C416.393 166.717 422.16 172.469 429.275 172.469Z" fill="#171D26"/>
<path d="M399.218 148.21C407.913 148.21 414.962 141.18 414.962 132.507C414.962 123.835 407.913 116.804 399.218 116.804C390.524 116.804 383.475 123.835 383.475 132.507C383.475 141.18 390.524 148.21 399.218 148.21Z" fill="#171D26"/>
<path d="M565.958 460.12C575.838 460.12 583.848 452.131 583.848 442.276C583.848 432.421 575.838 424.431 565.958 424.431C556.077 424.431 548.067 432.421 548.067 442.276C548.067 452.131 556.077 460.12 565.958 460.12Z" fill="#171D26"/>
<path d="M358.427 127.505C368.308 127.505 376.317 119.516 376.317 109.661C376.317 99.8053 368.308 91.8161 358.427 91.8161C348.546 91.8161 340.536 99.8053 340.536 109.661C340.536 119.516 348.546 127.505 358.427 127.505Z" fill="#171D26"/>
<path d="M370.593 203.172C380.474 203.172 388.484 195.182 388.484 185.327C388.484 175.472 380.474 167.483 370.593 167.483C360.713 167.483 352.703 175.472 352.703 185.327C352.703 195.182 360.713 203.172 370.593 203.172Z" fill="#171D26"/>
<path d="M350.561 275.257C362.418 275.257 372.03 265.67 372.03 253.844C372.03 242.018 362.418 232.431 350.561 232.431C338.704 232.431 329.093 242.018 329.093 253.844C329.093 265.67 338.704 275.257 350.561 275.257Z" fill="#171D26"/>
<path d="M285.431 275.25C299.263 275.25 310.477 264.065 310.477 250.268C310.477 236.471 299.263 225.286 285.431 225.286C271.598 225.286 260.384 236.471 260.384 250.268C260.384 264.065 271.598 275.25 285.431 275.25Z" fill="#171D26"/>
<path d="M209.584 292.391C225.393 292.391 238.209 279.609 238.209 263.84C238.209 248.072 225.393 235.289 209.584 235.289C193.775 235.289 180.959 248.072 180.959 263.84C180.959 279.609 193.775 292.391 209.584 292.391Z" fill="#171D26"/>
<path d="M126.57 333.079C145.146 333.079 160.204 318.059 160.204 299.531C160.204 281.004 145.146 265.984 126.57 265.984C107.994 265.984 92.9357 281.004 92.9357 299.531C92.9357 318.059 107.994 333.079 126.57 333.079Z" fill="#171D26"/>
<path d="M40.6939 401.597C62.8266 401.597 80.7686 383.701 80.7686 361.625C80.7686 339.55 62.8266 321.654 40.6939 321.654C18.5613 321.654 0.619141 339.55 0.619141 361.625C0.619141 383.701 18.5613 401.597 40.6939 401.597Z" fill="#171D26"/>
<path d="M92.9419 249.562C111.518 249.562 126.576 234.543 126.576 216.015C126.576 197.487 111.518 182.467 92.9419 182.467C74.3663 182.467 59.3078 197.487 59.3078 216.015C59.3078 234.543 74.3663 249.562 92.9419 249.562Z" fill="#171D26"/>
<path d="M175.943 208.872C191.752 208.872 204.568 196.089 204.568 180.321C204.568 164.553 191.752 151.77 175.943 151.77C160.134 151.77 147.319 164.553 147.319 180.321C147.319 196.089 160.134 208.872 175.943 208.872Z" fill="#171D26"/>
<path d="M163.776 133.213C179.585 133.213 192.4 120.43 192.4 104.662C192.4 88.8938 179.585 76.1111 163.776 76.1111C147.966 76.1111 135.151 88.8938 135.151 104.662C135.151 120.43 147.966 133.213 163.776 133.213Z" fill="#171D26"/>
<path d="M239.637 116.082C253.469 116.082 264.683 104.897 264.683 91.1001C264.683 77.3028 253.469 66.1179 239.637 66.1179C225.804 66.1179 214.59 77.3028 214.59 91.1001C214.59 104.897 225.804 116.082 239.637 116.082Z" fill="#171D26"/>
<path d="M304.753 116.084C316.609 116.084 326.221 106.497 326.221 94.671C326.221 82.8448 316.609 73.2577 304.753 73.2577C292.896 73.2577 283.284 82.8448 283.284 94.671C283.284 106.497 292.896 116.084 304.753 116.084Z" fill="#171D26"/>
<path d="M316.922 191.741C328.779 191.741 338.39 182.154 338.39 170.327C338.39 158.501 328.779 148.914 316.922 148.914C305.065 148.914 295.453 158.501 295.453 170.327C295.453 182.154 305.065 191.741 316.922 191.741Z" fill="#171D26"/>
<path d="M251.803 192.462C265.636 192.462 276.849 181.277 276.849 167.479C276.849 153.682 265.636 142.497 251.803 142.497C237.97 142.497 226.756 153.682 226.756 167.479C226.756 181.277 237.97 192.462 251.803 192.462Z" fill="#171D26"/>
<path d="M180.953 382.321C188.067 382.321 193.834 376.569 193.834 369.473C193.834 362.377 188.067 356.625 180.953 356.625C173.839 356.625 168.072 362.377 168.072 369.473C168.072 376.569 173.839 382.321 180.953 382.321Z" fill="#171D26"/>
<path d="M232.48 375.902C241.175 375.902 248.224 368.872 248.224 360.199C248.224 351.527 241.175 344.496 232.48 344.496C223.785 344.496 216.736 351.527 216.736 360.199C216.736 368.872 223.785 375.902 232.48 375.902Z" fill="#171D26"/>
<path d="M289.01 354.495C298.89 354.495 306.9 346.505 306.9 336.65C306.9 326.795 298.89 318.806 289.01 318.806C279.129 318.806 271.119 326.795 271.119 336.65C271.119 346.505 279.129 354.495 289.01 354.495Z" fill="#171D26"/>
<path d="M302.606 411.588C314.463 411.588 324.075 402.001 324.075 390.175C324.075 378.348 314.463 368.761 302.606 368.761C290.749 368.761 281.137 378.348 281.137 390.175C281.137 402.001 290.749 411.588 302.606 411.588Z" fill="#171D26"/>
<path d="M233.917 425.147C243.798 425.147 251.808 417.157 251.808 407.302C251.808 397.447 243.798 389.458 233.917 389.458C224.037 389.458 216.027 397.447 216.027 407.302C216.027 417.157 224.037 425.147 233.917 425.147Z" fill="#171D26"/>
<path d="M173.081 424.433C181.776 424.433 188.824 417.402 188.824 408.73C188.824 400.057 181.776 393.026 173.081 393.026C164.386 393.026 157.337 400.057 157.337 408.73C157.337 417.402 164.386 424.433 173.081 424.433Z" fill="#171D26"/>
<path d="M173.792 473.69C183.672 473.69 191.682 465.701 191.682 455.845C191.682 445.99 183.672 438.001 173.792 438.001C163.911 438.001 155.901 445.99 155.901 455.845C155.901 465.701 163.911 473.69 173.792 473.69Z" fill="#171D26"/>
<path d="M246.79 482.966C258.647 482.966 268.259 473.378 268.259 461.552C268.259 449.726 258.647 440.139 246.79 440.139C234.933 440.139 225.321 449.726 225.321 461.552C225.321 473.378 234.933 482.966 246.79 482.966Z" fill="#171D26"/>
<path d="M331.955 473.691C345.788 473.691 357.002 462.506 357.002 448.709C357.002 434.911 345.788 423.726 331.955 423.726C318.122 423.726 306.908 434.911 306.908 448.709C306.908 462.506 318.122 473.691 331.955 473.691Z" fill="#171D26"/>
<path d="M382.038 535.781C397.848 535.781 410.663 522.998 410.663 507.23C410.663 491.461 397.848 478.679 382.038 478.679C366.229 478.679 353.414 491.461 353.414 507.23C353.414 522.998 366.229 535.781 382.038 535.781Z" fill="#171D26"/>
<path d="M276.849 544.35C290.681 544.35 301.895 533.165 301.895 519.368C301.895 505.571 290.681 494.386 276.849 494.386C263.016 494.386 251.802 505.571 251.802 519.368C251.802 533.165 263.016 544.35 276.849 544.35Z" fill="#171D26"/>
<path d="M217.449 592.881C231.282 592.881 242.496 581.696 242.496 567.898C242.496 554.101 231.282 542.916 217.449 542.916C203.616 542.916 192.402 554.101 192.402 567.898C192.402 581.696 203.616 592.881 217.449 592.881Z" fill="#171D26"/>
<path d="M266.826 655.701C282.635 655.701 295.45 642.919 295.45 627.15C295.45 611.382 282.635 598.599 266.826 598.599C251.017 598.599 238.201 611.382 238.201 627.15C238.201 642.919 251.017 655.701 266.826 655.701Z" fill="#171D26"/>
<path d="M398.504 667.125C417.079 667.125 432.138 652.105 432.138 633.577C432.138 615.049 417.079 600.03 398.504 600.03C379.928 600.03 364.87 615.049 364.87 633.577C364.87 652.105 379.928 667.125 398.504 667.125Z" fill="#171D26"/>
<path d="M326.225 607.163C342.034 607.163 354.85 594.381 354.85 578.612C354.85 562.844 342.034 550.061 326.225 550.061C310.416 550.061 297.6 562.844 297.6 578.612C297.6 594.381 310.416 607.163 326.225 607.163Z" fill="#171D26"/>
<path d="M453.61 595.747C472.185 595.747 487.244 580.727 487.244 562.2C487.244 543.672 472.185 528.652 453.61 528.652C435.034 528.652 419.975 543.672 419.975 562.2C419.975 580.727 435.034 595.747 453.61 595.747Z" fill="#171D26"/>
<path d="M187.391 531.509C199.248 531.509 208.86 521.922 208.86 510.095C208.86 498.269 199.248 488.682 187.391 488.682C175.535 488.682 165.923 498.269 165.923 510.095C165.923 521.922 175.535 531.509 187.391 531.509Z" fill="#171D26"/>
</svg>
